<?xml version="1.0" encoding="UTF-8" standalone="no"?>
<!-- Created with Inkscape (http://www.inkscape.org/) -->

<svg
   xmlns:dc="http://purl.org/dc/elements/1.1/"
   xmlns:cc="http://creativecommons.org/ns#"
   xmlns:rdf="http://www.w3.org/1999/02/22-rdf-syntax-ns#"
   xmlns:svg="http://www.w3.org/2000/svg"
   xmlns="http://www.w3.org/2000/svg"
   xmlns:sodipodi="http://sodipodi.sourceforge.net/DTD/sodipodi-0.dtd"
   xmlns:inkscape="http://www.inkscape.org/namespaces/inkscape"
   width="100.0mm"
   height="100.0mm"
   viewBox="0 0 100.0 100.0"
   version="1.1"
   id="svg8"
   inkscape:version="0.92.4 (5da689c313, 2019-01-14)"
   sodipodi:docname="bottom.svg">
  <defs
     id="defs2" />
  <sodipodi:namedview
     id="base"
     pagecolor="#ffffff"
     bordercolor="#666666"
     borderopacity="1.0"
     inkscape:pageopacity="0.0"
     inkscape:pageshadow="2"
     inkscape:zoom="1.4"
     inkscape:cx="222.64563"
     inkscape:cy="301.33263"
     inkscape:document-units="mm"
     inkscape:current-layer="g824"
     showgrid="true"
     inkscape:window-width="1920"
     inkscape:window-height="1019"
     inkscape:window-x="0"
     inkscape:window-y="27"
     inkscape:window-maximized="1"
     borderlayer="true"
     showguides="true"
     inkscape:guide-bbox="true">
    <inkscape:grid
       enabled="false"
       id="grid816"
       units="mm"
       type="xygrid"
       empspacing="1"
       spacingy="2.54"
       spacingx="2.54" />
    <inkscape:grid
       enabled="false"
       spacingx="2.54"
       spacingy="2.54"
       empspacing="1"
       type="xygrid"
       units="mm"
       id="grid854" />
    <inkscape:grid
       dotted="false"
       enabled="true"
       empopacity="0.25098039"
       empcolor="#d93fff"
       opacity="0.1254902"
       color="#b83f1a"
       spacingx="0.99999999"
       spacingy="0.99999999"
       id="grid871"
       type="xygrid" />
    <sodipodi:guide
       inkscape:color="rgb(0,0,255)"
       inkscape:label=""
       inkscape:locked="false"
       id="guide897"
       orientation="0,1"
       position="9.9999998,300" />
    <sodipodi:guide
       inkscape:color="rgb(0,0,255)"
       inkscape:label=""
       inkscape:locked="false"
       id="guide899"
       orientation="0,1"
       position="0,61.8" />
    <sodipodi:guide
       id="guide1016"
       inkscape:locked="false"
       orientation="0,1"
       position="84.999999,69.999999" />
    <sodipodi:guide
       inkscape:color="rgb(0,0,255)"
       inkscape:label=""
       inkscape:locked="false"
       id="guide1938"
       orientation="0,1"
       position="11,71.799999" />
    <sodipodi:guide
       inkscape:color="rgb(0,0,255)"
       inkscape:label=""
       inkscape:locked="false"
       id="guide1940"
       orientation="0,1"
       position="25,68.199999" />
    <sodipodi:guide
       inkscape:color="rgb(0,0,255)"
       inkscape:label=""
       inkscape:locked="false"
       id="guide1970"
       orientation="0,1"
       position="35.999999,69.799999" />
    <sodipodi:guide
       inkscape:locked="false"
       id="guide1987"
       orientation="0,1"
       position="43.999999,39.999999" />
    <sodipodi:guide
       inkscape:color="rgb(0,0,255)"
       inkscape:label=""
       inkscape:locked="false"
       id="guide1989"
       orientation="0,1"
       position="49.999999,41.6" />
    <sodipodi:guide
       inkscape:color="rgb(0,0,255)"
       inkscape:label=""
       inkscape:locked="false"
       id="guide1991"
       orientation="0,1"
       position="64.999999,38.2" />
    <sodipodi:guide
       inkscape:locked="false"
       id="guide2002"
       orientation="0,1"
       position="103,63.999999" />
  </sodipodi:namedview>
  <metadata
     id="metadata5">
    <rdf:RDF>
      <cc:Work
         rdf:about="">
        <dc:format>image/svg+xml</dc:format>
        <dc:type
           rdf:resource="http://purl.org/dc/dcmitype/StillImage" />
        <dc:title />
      </cc:Work>
    </rdf:RDF>
  </metadata>
  <g
     id="g822"
     inkscape:groupmode="layer"
     inkscape:label="[fixed] BG"
     style="display:inline" />
  <g
     id="g824"
     inkscape:groupmode="layer"
     inkscape:label="Edge.Cuts"
     style="display:inline">
    <path
       sodipodi:nodetypes="ssssscccccccccccccccccccssss"
       inkscape:connector-curvature="0"
       id="rect875-0-3"
       d="M95.999999 29.977394L3.9999933 29.977394L3.58988678071 29.9568178508L3.19188566133 29.8964097129L2.80797041206 29.7981500505L2.44012150312 29.6640193281L2.09031940474 29.49599801L1.76054458711 29.2960665605L1.45277752046 29.0662054441L1.168998675 28.808395125L0.911188520947 28.5246160676L0.681327528515 28.2168487363L0.48139616792 27.8870735955L0.313374909375 27.5372711094L0.179244223095 27.1694217424L0.0809845792964 26.785505959L0.0205764481929 26.3875042234L2.9999949e-07 25.977397L2.9999949e-07 3.999998L0.0205764481929 3.58989077661L0.0809845792964 3.19188904102L0.179244223095 2.80797325757L0.313374909375 2.44012389063L0.48139616792 2.09032140454L0.681327528515 1.76054626367L0.911188520947 1.45277893237L1.168998675 1.168999875L1.45277752046 0.911189555908L1.76054458711 0.681328439453L2.09031940474 0.48139698999L2.44012150312 0.313375671875L2.80797041206 0.179244949463L3.19188566133 0.0809852871094L3.58988678071 0.0205771491699L3.9999933 1e-06L14.004508 1e-06L14.999998 1e-06L14.999998 1e-06L14.999998 0.900002L14.999998 1.800004L15.988883 1.800004L28.995905 1.800001L29.999999 1.800001L29.999999 0.899999L29.999999 -2e-06L69.999999 1e-06L69.999999 0.900002L69.999999 1.800004L70.999859 1.800004L83.995069 1.800004L84.999999 1.800004L84.999999 0.900002L84.999999 1e-06L85.997159 1e-06L95.999999 1e-06L96.4101064219 0.0205771491699L96.808108375 0.0809852871094L97.1920243906 0.179244949463L97.559874 0.313375671875L97.9096767344 0.48139698999L98.239452125 0.681328439453L98.5472197031 0.911189555908L98.830999 1.168999875L99.0888095469 1.45277893237L99.318670875 1.76054626367L99.5186025156 2.09032140454L99.686624 2.44012389062L99.8207548594 2.80797325757L99.919014625 3.19188904102L99.9794228281 3.58989077661L99.999999 3.999998L99.999999 25.977397L99.9794228281 26.3875042234L99.919014625 26.785505959L99.8207548594 27.1694217424L99.686624 27.5372711094L99.5186025156 27.8870735955L99.318670875 28.2168487363L99.0888095469 28.5246160676L98.830999 28.808395125L98.5472197031 29.0662054441L98.239452125 29.2960665605L97.9096767344 29.49599801L97.559874 29.6640193281L97.1920243906 29.7981500505L96.808108375 29.8964097129L96.4101064219 29.9568178508L95.999999 29.977394L95.999999 29.977394"
       style="display:inline;fill:none;fill-opacity:1;stroke:#000000;stroke-width:0.1;stroke-miterlimit:4;stroke-dasharray:none;stroke-opacity:1" />
  </g>
  <g
     id="g826"
     inkscape:groupmode="layer"
     inkscape:label="B.Cu-disabled" />
  <g
     id="g828"
     inkscape:groupmode="layer"
     inkscape:label="B.Mask-disabled" />
  <g
     id="g830"
     inkscape:groupmode="layer"
     inkscape:label="B.Silk-disabled" />
  <g
     id="g832"
     inkscape:groupmode="layer"
     inkscape:label="F.Cu" />
  <g
     id="g834"
     inkscape:groupmode="layer"
     inkscape:label="F.Mask-disabled" />
  <g
     id="g836"
     inkscape:groupmode="layer"
     inkscape:label="F.Silk-disabled" />
  <g
     id="g838"
     inkscape:groupmode="layer"
     inkscape:label="Drill" />
</svg>
