<?xml version="1.0" standalone="no"?>
 <!DOCTYPE svg PUBLIC "-//W3C//DTD SVG 1.1//EN" 
 "http://www.w3.org/Graphics/SVG/1.1/DTD/svg11.dtd"> 
<svg xmlns="http://www.w3.org/2000/svg" version="1.1" 
    width="29.7002cm" height="21.0007cm" viewBox="0 0 116930 82680 ">
<title>SVG Picture created as kicad.svg date 2019/11/04 20:44:08 </title>
  <desc>Picture generated by Eeschema-SVG </desc>
<g style="fill:#000000; fill-opacity:1;stroke:#000000; stroke-opacity:1;
stroke-linecap:round; stroke-linejoin:round; "
 transform="translate(0 0) scale(1 1)">
</g>
<g style="fill:#000000; fill-opacity:0.0; 
stroke:#000000; stroke-width:-10; stroke-opacity:1; 
stroke-linecap:round; stroke-linejoin:round;">
</g>
<g style="fill:#840000; fill-opacity:0.0; 
stroke:#840000; stroke-width:-10; stroke-opacity:1; 
stroke-linecap:round; stroke-linejoin:round;">
</g>
<g style="fill:#840000; fill-opacity:0.0; 
stroke:#840000; stroke-width:100; stroke-opacity:1; 
stroke-linecap:round; stroke-linejoin:round;">
</g>
<g style="fill:#840000; fill-opacity:0.0; 
stroke:#840000; stroke-width:60; stroke-opacity:1; 
stroke-linecap:round; stroke-linejoin:round;">
<rect x="69690" y="65360" width="42520" height="12600" rx="0" />
</g>
<g style="fill:#840000; fill-opacity:0.0; 
stroke:#840000; stroke-width:100; stroke-opacity:1; 
stroke-linecap:round; stroke-linejoin:round;">
</g>
<g style="fill:#840000; fill-opacity:0.0; 
stroke:#840000; stroke-width:60; stroke-opacity:1; 
stroke-linecap:round; stroke-linejoin:round;">
<rect x="3940" y="3940" width="109050" height="74800" rx="0" />
</g>
<g style="fill:#840000; fill-opacity:0.0; 
stroke:#840000; stroke-width:100; stroke-opacity:1; 
stroke-linecap:round; stroke-linejoin:round;">
</g>
<g style="fill:#840000; fill-opacity:0.0; 
stroke:#840000; stroke-width:60; stroke-opacity:1; 
stroke-linecap:round; stroke-linejoin:round;">
<rect x="4720" y="4720" width="107490" height="73240" rx="0" />
</g>
<g style="fill:#840000; fill-opacity:0.0; 
stroke:#840000; stroke-width:100; stroke-opacity:1; 
stroke-linecap:round; stroke-linejoin:round;">
</g>
<g style="fill:#840000; fill-opacity:0.0; 
stroke:#840000; stroke-width:60; stroke-opacity:1; 
stroke-linecap:round; stroke-linejoin:round;">
<path d="M23620 4720
L23620 3940
" />
</g>
<g style="fill:#840000; fill-opacity:0.0; 
stroke:#840000; stroke-width:100; stroke-opacity:1; 
stroke-linecap:round; stroke-linejoin:round;">
</g>
<g style="fill:#840000; fill-opacity:0.0; 
stroke:#840000; stroke-width:60; stroke-opacity:1; 
stroke-linecap:round; stroke-linejoin:round;">
<path d="M43310 4720
L43310 3940
" />
</g>
<g style="fill:#840000; fill-opacity:0.0; 
stroke:#840000; stroke-width:100; stroke-opacity:1; 
stroke-linecap:round; stroke-linejoin:round;">
</g>
<g style="fill:#840000; fill-opacity:0.0; 
stroke:#840000; stroke-width:60; stroke-opacity:1; 
stroke-linecap:round; stroke-linejoin:round;">
<path d="M62990 4720
L62990 3940
" />
</g>
<g style="fill:#840000; fill-opacity:0.0; 
stroke:#840000; stroke-width:100; stroke-opacity:1; 
stroke-linecap:round; stroke-linejoin:round;">
</g>
<g style="fill:#840000; fill-opacity:0.0; 
stroke:#840000; stroke-width:60; stroke-opacity:1; 
stroke-linecap:round; stroke-linejoin:round;">
<path d="M82680 4720
L82680 3940
" />
</g>
<g style="fill:#840000; fill-opacity:0.0; 
stroke:#840000; stroke-width:100; stroke-opacity:1; 
stroke-linecap:round; stroke-linejoin:round;">
</g>
<g style="fill:#840000; fill-opacity:0.0; 
stroke:#840000; stroke-width:60; stroke-opacity:1; 
stroke-linecap:round; stroke-linejoin:round;">
<path d="M102360 4720
L102360 3940
" />
</g>
<g style="fill:#840000; fill-opacity:0.0; 
stroke:#840000; stroke-width:100; stroke-opacity:1; 
stroke-linecap:round; stroke-linejoin:round;">
</g>
<g style="fill:#840000; fill-opacity:0.0; 
stroke:#840000; stroke-width:60; stroke-opacity:1; 
stroke-linecap:round; stroke-linejoin:round;">
<path d="M14190 4560
L13900 4560
" />
<path d="M14050 4560
L14050 4050
L14000 4120
L13950 4170
L13900 4190
" />
</g>
<g style="fill:#840000; fill-opacity:0.0; 
stroke:#840000; stroke-width:100; stroke-opacity:1; 
stroke-linecap:round; stroke-linejoin:round;">
</g>
<g style="fill:#840000; fill-opacity:0.0; 
stroke:#840000; stroke-width:60; stroke-opacity:1; 
stroke-linecap:round; stroke-linejoin:round;">
<path d="M33580 4090
L33610 4070
L33660 4050
L33780 4050
L33830 4070
L33850 4090
L33870 4140
L33870 4190
L33850 4260
L33560 4560
L33870 4560
" />
</g>
<g style="fill:#840000; fill-opacity:0.0; 
stroke:#840000; stroke-width:100; stroke-opacity:1; 
stroke-linecap:round; stroke-linejoin:round;">
</g>
<g style="fill:#840000; fill-opacity:0.0; 
stroke:#840000; stroke-width:60; stroke-opacity:1; 
stroke-linecap:round; stroke-linejoin:round;">
<path d="M53250 4050
L53560 4050
L53390 4240
L53470 4240
L53520 4260
L53540 4290
L53560 4340
L53560 4460
L53540 4510
L53520 4530
L53470 4560
L53320 4560
L53270 4530
L53250 4510
" />
</g>
<g style="fill:#840000; fill-opacity:0.0; 
stroke:#840000; stroke-width:100; stroke-opacity:1; 
stroke-linecap:round; stroke-linejoin:round;">
</g>
<g style="fill:#840000; fill-opacity:0.0; 
stroke:#840000; stroke-width:60; stroke-opacity:1; 
stroke-linecap:round; stroke-linejoin:round;">
<path d="M73200 4220
L73200 4560
" />
<path d="M73070 4020
L72950 4390
L73270 4390
" />
</g>
<g style="fill:#840000; fill-opacity:0.0; 
stroke:#840000; stroke-width:100; stroke-opacity:1; 
stroke-linecap:round; stroke-linejoin:round;">
</g>
<g style="fill:#840000; fill-opacity:0.0; 
stroke:#840000; stroke-width:60; stroke-opacity:1; 
stroke-linecap:round; stroke-linejoin:round;">
<path d="M92910 4050
L92670 4050
L92640 4290
L92670 4260
L92720 4240
L92840 4240
L92890 4260
L92910 4290
L92930 4340
L92930 4460
L92910 4510
L92890 4530
L92840 4560
L92720 4560
L92670 4530
L92640 4510
" />
</g>
<g style="fill:#840000; fill-opacity:0.0; 
stroke:#840000; stroke-width:100; stroke-opacity:1; 
stroke-linecap:round; stroke-linejoin:round;">
</g>
<g style="fill:#840000; fill-opacity:0.0; 
stroke:#840000; stroke-width:60; stroke-opacity:1; 
stroke-linecap:round; stroke-linejoin:round;">
<path d="M112570 4050
L112470 4050
L112420 4070
L112400 4090
L112350 4170
L112320 4260
L112320 4460
L112350 4510
L112370 4530
L112420 4560
L112520 4560
L112570 4530
L112590 4510
L112610 4460
L112610 4340
L112590 4290
L112570 4260
L112520 4240
L112420 4240
L112370 4260
L112350 4290
L112320 4340
" />
</g>
<g style="fill:#840000; fill-opacity:0.0; 
stroke:#840000; stroke-width:100; stroke-opacity:1; 
stroke-linecap:round; stroke-linejoin:round;">
</g>
<g style="fill:#840000; fill-opacity:0.0; 
stroke:#840000; stroke-width:60; stroke-opacity:1; 
stroke-linecap:round; stroke-linejoin:round;">
<path d="M23620 77960
L23620 78740
" />
</g>
<g style="fill:#840000; fill-opacity:0.0; 
stroke:#840000; stroke-width:100; stroke-opacity:1; 
stroke-linecap:round; stroke-linejoin:round;">
</g>
<g style="fill:#840000; fill-opacity:0.0; 
stroke:#840000; stroke-width:60; stroke-opacity:1; 
stroke-linecap:round; stroke-linejoin:round;">
<path d="M43310 77960
L43310 78740
" />
</g>
<g style="fill:#840000; fill-opacity:0.0; 
stroke:#840000; stroke-width:100; stroke-opacity:1; 
stroke-linecap:round; stroke-linejoin:round;">
</g>
<g style="fill:#840000; fill-opacity:0.0; 
stroke:#840000; stroke-width:60; stroke-opacity:1; 
stroke-linecap:round; stroke-linejoin:round;">
<path d="M62990 77960
L62990 78740
" />
</g>
<g style="fill:#840000; fill-opacity:0.0; 
stroke:#840000; stroke-width:100; stroke-opacity:1; 
stroke-linecap:round; stroke-linejoin:round;">
</g>
<g style="fill:#840000; fill-opacity:0.0; 
stroke:#840000; stroke-width:60; stroke-opacity:1; 
stroke-linecap:round; stroke-linejoin:round;">
<path d="M82680 77960
L82680 78740
" />
</g>
<g style="fill:#840000; fill-opacity:0.0; 
stroke:#840000; stroke-width:100; stroke-opacity:1; 
stroke-linecap:round; stroke-linejoin:round;">
</g>
<g style="fill:#840000; fill-opacity:0.0; 
stroke:#840000; stroke-width:60; stroke-opacity:1; 
stroke-linecap:round; stroke-linejoin:round;">
<path d="M102360 77960
L102360 78740
" />
</g>
<g style="fill:#840000; fill-opacity:0.0; 
stroke:#840000; stroke-width:100; stroke-opacity:1; 
stroke-linecap:round; stroke-linejoin:round;">
</g>
<g style="fill:#840000; fill-opacity:0.0; 
stroke:#840000; stroke-width:60; stroke-opacity:1; 
stroke-linecap:round; stroke-linejoin:round;">
<path d="M14190 78580
L13900 78580
" />
<path d="M14050 78580
L14050 78070
L14000 78140
L13950 78190
L13900 78210
" />
</g>
<g style="fill:#840000; fill-opacity:0.0; 
stroke:#840000; stroke-width:100; stroke-opacity:1; 
stroke-linecap:round; stroke-linejoin:round;">
</g>
<g style="fill:#840000; fill-opacity:0.0; 
stroke:#840000; stroke-width:60; stroke-opacity:1; 
stroke-linecap:round; stroke-linejoin:round;">
<path d="M33580 78110
L33610 78090
L33660 78070
L33780 78070
L33830 78090
L33850 78110
L33870 78160
L33870 78210
L33850 78280
L33560 78580
L33870 78580
" />
</g>
<g style="fill:#840000; fill-opacity:0.0; 
stroke:#840000; stroke-width:100; stroke-opacity:1; 
stroke-linecap:round; stroke-linejoin:round;">
</g>
<g style="fill:#840000; fill-opacity:0.0; 
stroke:#840000; stroke-width:60; stroke-opacity:1; 
stroke-linecap:round; stroke-linejoin:round;">
<path d="M53250 78070
L53560 78070
L53390 78260
L53470 78260
L53520 78280
L53540 78310
L53560 78360
L53560 78480
L53540 78530
L53520 78550
L53470 78580
L53320 78580
L53270 78550
L53250 78530
" />
</g>
<g style="fill:#840000; fill-opacity:0.0; 
stroke:#840000; stroke-width:100; stroke-opacity:1; 
stroke-linecap:round; stroke-linejoin:round;">
</g>
<g style="fill:#840000; fill-opacity:0.0; 
stroke:#840000; stroke-width:60; stroke-opacity:1; 
stroke-linecap:round; stroke-linejoin:round;">
<path d="M73200 78240
L73200 78580
" />
<path d="M73070 78040
L72950 78410
L73270 78410
" />
</g>
<g style="fill:#840000; fill-opacity:0.0; 
stroke:#840000; stroke-width:100; stroke-opacity:1; 
stroke-linecap:round; stroke-linejoin:round;">
</g>
<g style="fill:#840000; fill-opacity:0.0; 
stroke:#840000; stroke-width:60; stroke-opacity:1; 
stroke-linecap:round; stroke-linejoin:round;">
<path d="M92910 78070
L92670 78070
L92640 78310
L92670 78280
L92720 78260
L92840 78260
L92890 78280
L92910 78310
L92930 78360
L92930 78480
L92910 78530
L92890 78550
L92840 78580
L92720 78580
L92670 78550
L92640 78530
" />
</g>
<g style="fill:#840000; fill-opacity:0.0; 
stroke:#840000; stroke-width:100; stroke-opacity:1; 
stroke-linecap:round; stroke-linejoin:round;">
</g>
<g style="fill:#840000; fill-opacity:0.0; 
stroke:#840000; stroke-width:60; stroke-opacity:1; 
stroke-linecap:round; stroke-linejoin:round;">
<path d="M112570 78070
L112470 78070
L112420 78090
L112400 78110
L112350 78190
L112320 78280
L112320 78480
L112350 78530
L112370 78550
L112420 78580
L112520 78580
L112570 78550
L112590 78530
L112610 78480
L112610 78360
L112590 78310
L112570 78280
L112520 78260
L112420 78260
L112370 78280
L112350 78310
L112320 78360
" />
</g>
<g style="fill:#840000; fill-opacity:0.0; 
stroke:#840000; stroke-width:100; stroke-opacity:1; 
stroke-linecap:round; stroke-linejoin:round;">
</g>
<g style="fill:#840000; fill-opacity:0.0; 
stroke:#840000; stroke-width:60; stroke-opacity:1; 
stroke-linecap:round; stroke-linejoin:round;">
<path d="M3940 23620
L4720 23620
" />
</g>
<g style="fill:#840000; fill-opacity:0.0; 
stroke:#840000; stroke-width:100; stroke-opacity:1; 
stroke-linecap:round; stroke-linejoin:round;">
</g>
<g style="fill:#840000; fill-opacity:0.0; 
stroke:#840000; stroke-width:60; stroke-opacity:1; 
stroke-linecap:round; stroke-linejoin:round;">
<path d="M3940 43310
L4720 43310
" />
</g>
<g style="fill:#840000; fill-opacity:0.0; 
stroke:#840000; stroke-width:100; stroke-opacity:1; 
stroke-linecap:round; stroke-linejoin:round;">
</g>
<g style="fill:#840000; fill-opacity:0.0; 
stroke:#840000; stroke-width:60; stroke-opacity:1; 
stroke-linecap:round; stroke-linejoin:round;">
<path d="M3940 62990
L4720 62990
" />
</g>
<g style="fill:#840000; fill-opacity:0.0; 
stroke:#840000; stroke-width:100; stroke-opacity:1; 
stroke-linecap:round; stroke-linejoin:round;">
</g>
<g style="fill:#840000; fill-opacity:0.0; 
stroke:#840000; stroke-width:60; stroke-opacity:1; 
stroke-linecap:round; stroke-linejoin:round;">
<path d="M4200 13860
L4450 13860
" />
<path d="M4160 14010
L4330 13500
L4500 14010
" />
</g>
<g style="fill:#840000; fill-opacity:0.0; 
stroke:#840000; stroke-width:100; stroke-opacity:1; 
stroke-linecap:round; stroke-linejoin:round;">
</g>
<g style="fill:#840000; fill-opacity:0.0; 
stroke:#840000; stroke-width:60; stroke-opacity:1; 
stroke-linecap:round; stroke-linejoin:round;">
<path d="M4360 33420
L4430 33440
L4460 33470
L4480 33520
L4480 33590
L4460 33640
L4430 33660
L4390 33690
L4190 33690
L4190 33180
L4360 33180
L4410 33200
L4430 33220
L4460 33270
L4460 33320
L4430 33370
L4410 33390
L4360 33420
L4190 33420
" />
</g>
<g style="fill:#840000; fill-opacity:0.0; 
stroke:#840000; stroke-width:100; stroke-opacity:1; 
stroke-linecap:round; stroke-linejoin:round;">
</g>
<g style="fill:#840000; fill-opacity:0.0; 
stroke:#840000; stroke-width:60; stroke-opacity:1; 
stroke-linecap:round; stroke-linejoin:round;">
<path d="M4480 53330
L4460 53350
L4390 53380
L4340 53380
L4260 53350
L4220 53300
L4190 53250
L4170 53160
L4170 53080
L4190 52990
L4220 52940
L4260 52890
L4340 52870
L4390 52870
L4460 52890
L4480 52910
" />
</g>
<g style="fill:#840000; fill-opacity:0.0; 
stroke:#840000; stroke-width:100; stroke-opacity:1; 
stroke-linecap:round; stroke-linejoin:round;">
</g>
<g style="fill:#840000; fill-opacity:0.0; 
stroke:#840000; stroke-width:60; stroke-opacity:1; 
stroke-linecap:round; stroke-linejoin:round;">
<path d="M4190 73060
L4190 72550
L4310 72550
L4390 72570
L4430 72620
L4460 72670
L4480 72760
L4480 72840
L4460 72930
L4430 72980
L4390 73030
L4310 73060
L4190 73060
" />
</g>
<g style="fill:#840000; fill-opacity:0.0; 
stroke:#840000; stroke-width:100; stroke-opacity:1; 
stroke-linecap:round; stroke-linejoin:round;">
</g>
<g style="fill:#840000; fill-opacity:0.0; 
stroke:#840000; stroke-width:60; stroke-opacity:1; 
stroke-linecap:round; stroke-linejoin:round;">
<path d="M112990 23620
L112210 23620
" />
</g>
<g style="fill:#840000; fill-opacity:0.0; 
stroke:#840000; stroke-width:100; stroke-opacity:1; 
stroke-linecap:round; stroke-linejoin:round;">
</g>
<g style="fill:#840000; fill-opacity:0.0; 
stroke:#840000; stroke-width:60; stroke-opacity:1; 
stroke-linecap:round; stroke-linejoin:round;">
<path d="M112990 43310
L112210 43310
" />
</g>
<g style="fill:#840000; fill-opacity:0.0; 
stroke:#840000; stroke-width:100; stroke-opacity:1; 
stroke-linecap:round; stroke-linejoin:round;">
</g>
<g style="fill:#840000; fill-opacity:0.0; 
stroke:#840000; stroke-width:60; stroke-opacity:1; 
stroke-linecap:round; stroke-linejoin:round;">
<path d="M112990 62990
L112210 62990
" />
</g>
<g style="fill:#840000; fill-opacity:0.0; 
stroke:#840000; stroke-width:100; stroke-opacity:1; 
stroke-linecap:round; stroke-linejoin:round;">
</g>
<g style="fill:#840000; fill-opacity:0.0; 
stroke:#840000; stroke-width:60; stroke-opacity:1; 
stroke-linecap:round; stroke-linejoin:round;">
<path d="M112470 13860
L112720 13860
" />
<path d="M112430 14010
L112600 13500
L112770 14010
" />
</g>
<g style="fill:#840000; fill-opacity:0.0; 
stroke:#840000; stroke-width:100; stroke-opacity:1; 
stroke-linecap:round; stroke-linejoin:round;">
</g>
<g style="fill:#840000; fill-opacity:0.0; 
stroke:#840000; stroke-width:60; stroke-opacity:1; 
stroke-linecap:round; stroke-linejoin:round;">
<path d="M112630 33420
L112700 33440
L112730 33470
L112750 33520
L112750 33590
L112730 33640
L112700 33660
L112660 33690
L112460 33690
L112460 33180
L112630 33180
L112680 33200
L112700 33220
L112730 33270
L112730 33320
L112700 33370
L112680 33390
L112630 33420
L112460 33420
" />
</g>
<g style="fill:#840000; fill-opacity:0.0; 
stroke:#840000; stroke-width:100; stroke-opacity:1; 
stroke-linecap:round; stroke-linejoin:round;">
</g>
<g style="fill:#840000; fill-opacity:0.0; 
stroke:#840000; stroke-width:60; stroke-opacity:1; 
stroke-linecap:round; stroke-linejoin:round;">
<path d="M112750 53330
L112730 53350
L112660 53380
L112610 53380
L112530 53350
L112490 53300
L112460 53250
L112440 53160
L112440 53080
L112460 52990
L112490 52940
L112530 52890
L112610 52870
L112660 52870
L112730 52890
L112750 52910
" />
</g>
<g style="fill:#840000; fill-opacity:0.0; 
stroke:#840000; stroke-width:100; stroke-opacity:1; 
stroke-linecap:round; stroke-linejoin:round;">
</g>
<g style="fill:#840000; fill-opacity:0.0; 
stroke:#840000; stroke-width:60; stroke-opacity:1; 
stroke-linecap:round; stroke-linejoin:round;">
<path d="M112460 73060
L112460 72550
L112580 72550
L112660 72570
L112700 72620
L112730 72670
L112750 72760
L112750 72840
L112730 72930
L112700 72980
L112660 73030
L112580 73060
L112460 73060
" />
</g>
<g style="fill:#840000; fill-opacity:0.0; 
stroke:#840000; stroke-width:100; stroke-opacity:1; 
stroke-linecap:round; stroke-linejoin:round;">
</g>
<g style="fill:#840000; fill-opacity:0.0; 
stroke:#840000; stroke-width:60; stroke-opacity:1; 
stroke-linecap:round; stroke-linejoin:round;">
<path d="M78910 76290
L78910 75700
L79050 75700
L79130 75730
L79190 75790
L79210 75840
L79240 75950
L79240 76040
L79210 76150
L79190 76210
L79130 76260
L79050 76290
L78910 76290
" />
<path d="M79750 76290
L79750 75980
L79720 75930
L79660 75900
L79550 75900
L79500 75930
" />
<path d="M79750 76260
L79690 76290
L79550 76290
L79500 76260
L79470 76210
L79470 76150
L79500 76100
L79550 76070
L79690 76070
L79750 76040
" />
<path d="M79950 75900
L80170 75900
" />
<path d="M80030 75700
L80030 76210
L80060 76260
L80110 76290
L80170 76290
" />
<path d="M80590 76260
L80540 76290
L80420 76290
L80370 76260
L80340 76210
L80340 75980
L80370 75930
L80420 75900
L80540 75900
L80590 75930
L80620 75980
L80620 76040
L80340 76100
" />
<path d="M80870 76240
L80900 76260
L80870 76290
L80840 76260
L80870 76240
L80870 76290
" />
<path d="M80870 75930
L80900 75950
L80870 75980
L80840 75950
L80870 75930
L80870 75980
" />
</g>
<g style="fill:#840000; fill-opacity:0.0; 
stroke:#840000; stroke-width:100; stroke-opacity:1; 
stroke-linecap:round; stroke-linejoin:round;">
</g>
<g style="fill:#840000; fill-opacity:0.0; 
stroke:#840000; stroke-width:60; stroke-opacity:1; 
stroke-linecap:round; stroke-linejoin:round;">
<path d="M69690 76580
L112210 76580
" />
</g>
<g style="fill:#840000; fill-opacity:0.0; 
stroke:#840000; stroke-width:100; stroke-opacity:1; 
stroke-linecap:round; stroke-linejoin:round;">
</g>
<g style="fill:#840000; fill-opacity:0.0; 
stroke:#840000; stroke-width:60; stroke-opacity:1; 
stroke-linecap:round; stroke-linejoin:round;">
<path d="M70250 77390
L70250 76800
" />
<path d="M70580 77390
L70330 77050
" />
<path d="M70580 76800
L70250 77140
" />
<path d="M70840 77390
L70840 77000
" />
<path d="M70840 76800
L70810 76830
L70840 76860
L70860 76830
L70840 76800
L70840 76860
" />
<path d="M71450 77340
L71430 77360
L71340 77390
L71290 77390
L71200 77360
L71140 77310
L71120 77250
L71090 77140
L71090 77050
L71120 76940
L71140 76890
L71200 76830
L71290 76800
L71340 76800
L71430 76830
L71450 76860
" />
<path d="M71960 77390
L71960 77080
L71930 77030
L71880 77000
L71760 77000
L71710 77030
" />
<path d="M71960 77360
L71900 77390
L71760 77390
L71710 77360
L71680 77310
L71680 77250
L71710 77200
L71760 77170
L71900 77170
L71960 77140
" />
<path d="M72490 77390
L72490 76800
" />
<path d="M72490 77360
L72440 77390
L72320 77390
L72270 77360
L72240 77340
L72210 77280
L72210 77110
L72240 77050
L72270 77030
L72320 77000
L72440 77000
L72490 77030
" />
<path d="M73220 77080
L73420 77080
" />
<path d="M73500 77390
L73220 77390
L73220 76800
L73500 76800
" />
<path d="M73760 77340
L73790 77360
L73760 77390
L73730 77360
L73760 77340
L73760 77390
" />
<path d="M74040 77390
L74040 76800
L74180 76800
L74260 76830
L74320 76890
L74350 76940
L74380 77050
L74380 77140
L74350 77250
L74320 77310
L74260 77360
L74180 77390
L74040 77390
" />
<path d="M74630 77340
L74660 77360
L74630 77390
L74600 77360
L74630 77340
L74630 77390
" />
<path d="M74880 77220
L75160 77220
" />
<path d="M74830 77390
L75020 76800
L75220 77390
" />
<path d="M75420 77340
L75440 77360
L75420 77390
L75390 77360
L75420 77340
L75420 77390
" />
<path d="M76600 77390
L76600 76800
" />
<path d="M76650 77170
L76820 77390
" />
<path d="M76820 77000
L76600 77220
" />
<path d="M77070 77390
L77070 77000
" />
<path d="M77070 76800
L77040 76830
L77070 76860
L77100 76830
L77070 76800
L77070 76860
" />
<path d="M77610 77360
L77550 77390
L77440 77390
L77380 77360
L77350 77340
L77330 77280
L77330 77110
L77350 77050
L77380 77030
L77440 77000
L77550 77000
L77610 77030
" />
<path d="M78110 77390
L78110 77080
L78080 77030
L78030 77000
L77920 77000
L77860 77030
" />
<path d="M78110 77360
L78060 77390
L77920 77390
L77860 77360
L77830 77310
L77830 77250
L77860 77200
L77920 77170
L78060 77170
L78110 77140
" />
<path d="M78650 77390
L78650 76800
" />
<path d="M78650 77360
L78590 77390
L78480 77390
L78420 77360
L78390 77340
L78370 77280
L78370 77110
L78390 77050
L78420 77030
L78480 77000
L78590 77000
L78650 77030
" />
<path d="M79660 76800
L79380 76800
L79350 77080
L79380 77050
L79430 77030
L79570 77030
L79630 77050
L79660 77080
L79690 77140
L79690 77280
L79660 77340
L79630 77360
L79570 77390
L79430 77390
L79380 77360
L79350 77340
" />
<path d="M79940 77340
L79970 77360
L79940 77390
L79910 77360
L79940 77340
L79940 77390
" />
<path d="M80530 77390
L80190 77390
" />
<path d="M80360 77390
L80360 76800
L80300 76890
L80250 76940
L80190 76970
" />
<path d="M80780 77340
L80810 77360
L80780 77390
L80750 77360
L80780 77340
L80780 77390
" />
<path d="M81320 77000
L81320 77390
" />
<path d="M81170 76770
L81030 77200
L81400 77200
" />
<path d="M81620 77170
L82070 77170
" />
<path d="M82580 77360
L82520 77390
L82410 77390
L82350 77360
L82330 77310
L82330 77080
L82350 77030
L82410 77000
L82520 77000
L82580 77030
L82610 77080
L82610 77140
L82330 77200
" />
<path d="M83110 76800
L83000 76800
L82940 76830
L82920 76860
L82860 76940
L82830 77050
L82830 77280
L82860 77340
L82890 77360
L82940 77390
L83060 77390
L83110 77360
L83140 77340
L83170 77280
L83170 77140
L83140 77080
L83110 77050
L83060 77030
L82940 77030
L82890 77050
L82860 77080
L82830 77140
" />
<path d="M83530 76800
L83590 76800
L83650 76830
L83680 76860
L83700 76910
L83730 77030
L83730 77170
L83700 77280
L83680 77340
L83650 77360
L83590 77390
L83530 77390
L83480 77360
L83450 77340
L83420 77280
L83390 77170
L83390 77030
L83420 76910
L83450 76860
L83480 76830
L83530 76800
" />
<path d="M83980 77390
L83980 76800
" />
<path d="M83980 77030
L84040 77000
L84150 77000
L84210 77030
L84240 77050
L84270 77110
L84270 77280
L84240 77340
L84210 77360
L84150 77390
L84040 77390
L83980 77360
" />
<path d="M84490 76860
L84520 76830
L84570 76800
L84710 76800
L84770 76830
L84800 76860
L84830 76910
L84830 76970
L84800 77050
L84460 77390
L84830 77390
" />
<path d="M85330 76800
L85220 76800
L85160 76830
L85140 76860
L85080 76940
L85050 77050
L85050 77280
L85080 77340
L85110 77360
L85160 77390
L85280 77390
L85330 77360
L85360 77340
L85390 77280
L85390 77140
L85360 77080
L85330 77050
L85280 77030
L85160 77030
L85110 77050
L85080 77080
L85050 77140
" />
<path d="M85890 76800
L85780 76800
L85730 76830
L85700 76860
L85640 76940
L85610 77050
L85610 77280
L85640 77340
L85670 77360
L85730 77390
L85840 77390
L85890 77360
L85920 77340
L85950 77280
L85950 77140
L85920 77080
L85890 77050
L85840 77030
L85730 77030
L85670 77050
L85640 77080
L85610 77140
" />
<path d="M86060 76640
L86630 76640
" />
<path d="M86290 77050
L86230 77030
L86200 77000
L86180 76940
L86180 76910
L86200 76860
L86230 76830
L86290 76800
L86400 76800
L86460 76830
L86480 76860
L86510 76910
L86510 76940
L86480 77000
L86460 77030
L86400 77050
L86290 77050
L86230 77080
L86200 77110
L86180 77170
L86180 77280
L86200 77340
L86230 77360
L86290 77390
L86400 77390
L86460 77360
L86480 77340
L86510 77280
L86510 77170
L86480 77110
L86460 77080
L86400 77050
" />
<path d="M86630 76640
L87190 76640
" />
<path d="M87020 77000
L87020 77390
" />
<path d="M86880 76770
L86740 77200
L87100 77200
" />
<path d="M87580 77000
L87580 77390
" />
<path d="M87330 77000
L87330 77310
L87360 77360
L87410 77390
L87500 77390
L87550 77360
L87580 77340
" />
<path d="M87860 77390
L87860 76800
" />
<path d="M87860 77030
L87920 77000
L88030 77000
L88090 77030
L88110 77050
L88140 77110
L88140 77280
L88110 77340
L88090 77360
L88030 77390
L87920 77390
L87860 77360
" />
<path d="M88650 77000
L88650 77390
" />
<path d="M88400 77000
L88400 77310
L88420 77360
L88480 77390
L88560 77390
L88620 77360
L88650 77340
" />
<path d="M88930 77000
L88930 77390
" />
<path d="M88930 77050
L88960 77030
L89010 77000
L89100 77000
L89150 77030
L89180 77080
L89180 77390
" />
<path d="M89380 77000
L89600 77000
" />
<path d="M89460 76800
L89460 77310
L89490 77360
L89550 77390
L89600 77390
" />
<path d="M90050 77000
L90050 77390
" />
<path d="M89800 77000
L89800 77310
L89830 77360
L89880 77390
L89970 77390
L90020 77360
L90050 77340
" />
<path d="M90640 77390
L90310 77390
" />
<path d="M90470 77390
L90470 76800
L90420 76890
L90360 76940
L90310 76970
" />
<path d="M90920 77390
L91040 77390
L91090 77360
L91120 77340
L91180 77250
L91200 77140
L91200 76910
L91180 76860
L91150 76830
L91090 76800
L90980 76800
L90920 76830
L90900 76860
L90870 76910
L90870 77050
L90900 77110
L90920 77140
L90980 77170
L91090 77170
L91150 77140
L91180 77110
L91200 77050
" />
<path d="M91460 77340
L91490 77360
L91460 77390
L91430 77360
L91460 77340
L91460 77390
" />
<path d="M91850 76800
L91910 76800
L91960 76830
L91990 76860
L92020 76910
L92050 77030
L92050 77170
L92020 77280
L91990 77340
L91960 77360
L91910 77390
L91850 77390
L91790 77360
L91770 77340
L91740 77280
L91710 77170
L91710 77030
L91740 76910
L91770 76860
L91790 76830
L91850 76800
" />
<path d="M92550 77000
L92550 77390
" />
<path d="M92410 76770
L92270 77200
L92640 77200
" />
<path d="M92860 77340
L92890 77360
L92860 77390
L92830 77360
L92860 77340
L92860 77390
" />
<path d="M93450 77390
L93120 77390
" />
<path d="M93280 77390
L93280 76800
L93230 76890
L93170 76940
L93120 76970
" />
</g>
<g style="fill:#840000; fill-opacity:0.0; 
stroke:#840000; stroke-width:100; stroke-opacity:1; 
stroke-linecap:round; stroke-linejoin:round;">
</g>
<g style="fill:#840000; fill-opacity:0.0; 
stroke:#840000; stroke-width:60; stroke-opacity:1; 
stroke-linecap:round; stroke-linejoin:round;">
<path d="M69690 75400
L112210 75400
" />
</g>
<g style="fill:#840000; fill-opacity:0.0; 
stroke:#840000; stroke-width:100; stroke-opacity:1; 
stroke-linecap:round; stroke-linejoin:round;">
</g>
<g style="fill:#840000; fill-opacity:0.0; 
stroke:#840000; stroke-width:120; stroke-opacity:1; 
stroke-linecap:round; stroke-linejoin:round;">
<path d="M104090 76290
L103890 76010
" />
<path d="M103750 76290
L103750 75700
L103980 75700
L104030 75730
L104060 75760
L104090 75810
L104090 75900
L104060 75950
L104030 75980
L103980 76010
L103750 76010
" />
<path d="M104570 76260
L104510 76290
L104400 76290
L104340 76260
L104320 76210
L104320 75980
L104340 75930
L104400 75900
L104510 75900
L104570 75930
L104600 75980
L104600 76040
L104320 76100
" />
<path d="M104790 75900
L104930 76290
L105070 75900
" />
<path d="M105300 76240
L105330 76260
L105300 76290
L105270 76260
L105300 76240
L105300 76290
" />
<path d="M105300 75930
L105330 75950
L105300 75980
L105270 75950
L105300 75930
L105300 75980
" />
</g>
<g style="fill:#840000; fill-opacity:0.0; 
stroke:#840000; stroke-width:100; stroke-opacity:1; 
stroke-linecap:round; stroke-linejoin:round;">
</g>
<g style="fill:#840000; fill-opacity:0.0; 
stroke:#840000; stroke-width:60; stroke-opacity:1; 
stroke-linecap:round; stroke-linejoin:round;">
<path d="M70220 76260
L70300 76290
L70440 76290
L70500 76260
L70530 76240
L70550 76180
L70550 76120
L70530 76070
L70500 76040
L70440 76010
L70330 75980
L70270 75950
L70250 75930
L70220 75870
L70220 75810
L70250 75760
L70270 75730
L70330 75700
L70470 75700
L70550 75730
" />
<path d="M70810 76290
L70810 75900
" />
<path d="M70810 75700
L70780 75730
L70810 75760
L70840 75730
L70810 75700
L70810 75760
" />
<path d="M71030 75900
L71340 75900
L71030 76290
L71340 76290
" />
<path d="M71790 76260
L71730 76290
L71620 76290
L71570 76260
L71540 76210
L71540 75980
L71570 75930
L71620 75900
L71730 75900
L71790 75930
L71820 75980
L71820 76040
L71540 76100
" />
<path d="M72070 76240
L72100 76260
L72070 76290
L72040 76260
L72070 76240
L72070 76290
" />
<path d="M72070 75930
L72100 75950
L72070 75980
L72040 75950
L72070 75930
L72070 75980
" />
<path d="M72770 76120
L73060 76120
" />
<path d="M72720 76290
L72910 75700
L73110 76290
" />
<path d="M73560 75900
L73560 76290
" />
<path d="M73420 75670
L73280 76100
L73650 76100
" />
</g>
<g style="fill:#840000; fill-opacity:0.0; 
stroke:#840000; stroke-width:100; stroke-opacity:1; 
stroke-linecap:round; stroke-linejoin:round;">
</g>
<g style="fill:#840000; fill-opacity:0.0; 
stroke:#840000; stroke-width:60; stroke-opacity:1; 
stroke-linecap:round; stroke-linejoin:round;">
<path d="M103710 77390
L103710 76800
" />
<path d="M104240 77390
L104240 76800
" />
<path d="M104240 77360
L104180 77390
L104070 77390
L104010 77360
L103990 77340
L103960 77280
L103960 77110
L103990 77050
L104010 77030
L104070 77000
L104180 77000
L104240 77030
" />
<path d="M104520 77340
L104550 77360
L104520 77390
L104490 77360
L104520 77340
L104520 77390
" />
<path d="M104520 77030
L104550 77050
L104520 77080
L104490 77050
L104520 77030
L104520 77080
" />
<path d="M105560 77390
L105220 77390
" />
<path d="M105390 77390
L105390 76800
L105340 76890
L105280 76940
L105220 76970
" />
<path d="M106230 76770
L105730 77530
" />
<path d="M106740 77390
L106400 77390
" />
<path d="M106570 77390
L106570 76800
L106520 76890
L106460 76940
L106400 76970
" />
</g>
<g style="fill:#840000; fill-opacity:0.0; 
stroke:#840000; stroke-width:100; stroke-opacity:1; 
stroke-linecap:round; stroke-linejoin:round;">
</g>
<g style="fill:#840000; fill-opacity:0.0; 
stroke:#840000; stroke-width:60; stroke-opacity:1; 
stroke-linecap:round; stroke-linejoin:round;">
<path d="M69690 73820
L112210 73820
" />
</g>
<g style="fill:#840000; fill-opacity:0.0; 
stroke:#840000; stroke-width:100; stroke-opacity:1; 
stroke-linecap:round; stroke-linejoin:round;">
</g>
<g style="fill:#840000; fill-opacity:0.0; 
stroke:#840000; stroke-width:160; stroke-opacity:1; 
stroke-linecap:round; stroke-linejoin:round;">
<path d="M70360 74090
L70810 74090
" />
<path d="M70480 74880
L70580 74090
" />
<path d="M70970 74880
L71040 74360
" />
<path d="M71070 74090
L71030 74130
L71060 74170
L71110 74130
L71070 74090
L71060 74170
" />
<path d="M71300 74360
L71600 74360
" />
<path d="M71450 74090
L71360 74770
L71390 74840
L71460 74880
L71540 74880
" />
<path d="M71910 74880
L71840 74840
L71820 74770
L71900 74090
" />
<path d="M72520 74840
L72440 74880
L72290 74880
L72220 74840
L72190 74770
L72230 74470
L72280 74390
L72360 74360
L72510 74360
L72580 74390
L72610 74470
L72600 74540
L72210 74620
" />
<path d="M72900 74810
L72930 74840
L72890 74880
L72860 74840
L72900 74810
L72890 74880
" />
<path d="M72950 74390
L72990 74430
L72940 74470
L72910 74430
L72950 74390
L72940 74470
" />
</g>
<g style="fill:#840000; fill-opacity:0.0; 
stroke:#840000; stroke-width:100; stroke-opacity:1; 
stroke-linecap:round; stroke-linejoin:round;">
</g>
<g style="fill:#840000; fill-opacity:0.0; 
stroke:#840000; stroke-width:60; stroke-opacity:1; 
stroke-linecap:round; stroke-linejoin:round;">
<path d="M70440 73060
L70250 73060
" />
<path d="M70250 73370
L70250 72780
L70530 72780
" />
<path d="M70750 73370
L70750 72980
" />
<path d="M70750 72780
L70720 72810
L70750 72840
L70780 72810
L70750 72780
L70750 72840
" />
<path d="M71120 73370
L71060 73340
L71030 73290
L71030 72780
" />
<path d="M71570 73340
L71510 73370
L71400 73370
L71340 73340
L71310 73290
L71310 73060
L71340 73010
L71400 72980
L71510 72980
L71570 73010
L71590 73060
L71590 73120
L71310 73180
" />
<path d="M71850 73320
L71880 73340
L71850 73370
L71820 73340
L71850 73320
L71850 73370
" />
<path d="M71850 73010
L71880 73030
L71850 73060
L71820 73030
L71850 73010
L71850 73060
" />
<path d="M72580 73370
L72580 72780
" />
<path d="M72630 73150
L72800 73370
" />
<path d="M72800 72980
L72580 73200
" />
<path d="M73060 73370
L73060 72980
" />
<path d="M73060 72780
L73030 72810
L73060 72840
L73080 72810
L73060 72780
L73060 72840
" />
<path d="M73590 73340
L73530 73370
L73420 73370
L73360 73340
L73340 73320
L73310 73260
L73310 73090
L73340 73030
L73360 73010
L73420 72980
L73530 72980
L73590 73010
" />
<path d="M74090 73370
L74090 73060
L74070 73010
L74010 72980
L73900 72980
L73840 73010
" />
<path d="M74090 73340
L74040 73370
L73900 73370
L73840 73340
L73810 73290
L73810 73230
L73840 73180
L73900 73150
L74040 73150
L74090 73120
" />
<path d="M74630 73370
L74630 72780
" />
<path d="M74630 73340
L74570 73370
L74460 73370
L74400 73340
L74380 73320
L74350 73260
L74350 73090
L74380 73030
L74400 73010
L74460 72980
L74570 72980
L74630 73010
" />
<path d="M74910 73320
L74940 73340
L74910 73370
L74880 73340
L74910 73320
L74910 73370
" />
<path d="M75160 73340
L75220 73370
L75330 73370
L75390 73340
L75420 73290
L75420 73260
L75390 73200
L75330 73180
L75250 73180
L75190 73150
L75160 73090
L75160 73060
L75190 73010
L75250 72980
L75330 72980
L75390 73010
" />
<path d="M75920 73340
L75860 73370
L75750 73370
L75700 73340
L75670 73320
L75640 73260
L75640 73090
L75670 73030
L75700 73010
L75750 72980
L75860 72980
L75920 73010
" />
<path d="M76170 73370
L76170 72780
" />
<path d="M76430 73370
L76430 73060
L76400 73010
L76340 72980
L76260 72980
L76200 73010
L76170 73030
" />
</g>
<g style="fill:#840000; fill-opacity:0.0; 
stroke:#840000; stroke-width:100; stroke-opacity:1; 
stroke-linecap:round; stroke-linejoin:round;">
</g>
<g style="fill:#840000; fill-opacity:0.0; 
stroke:#840000; stroke-width:60; stroke-opacity:1; 
stroke-linecap:round; stroke-linejoin:round;">
<path d="M69690 71460
L112210 71460
" />
</g>
<g style="fill:#840000; fill-opacity:0.0; 
stroke:#840000; stroke-width:100; stroke-opacity:1; 
stroke-linecap:round; stroke-linejoin:round;">
</g>
<g style="fill:#840000; fill-opacity:0.0; 
stroke:#840000; stroke-width:60; stroke-opacity:1; 
stroke-linecap:round; stroke-linejoin:round;">
<path d="M70220 72280
L70300 72310
L70440 72310
L70500 72280
L70530 72260
L70550 72200
L70550 72140
L70530 72090
L70500 72060
L70440 72030
L70330 72000
L70270 71970
L70250 71950
L70220 71890
L70220 71830
L70250 71780
L70270 71750
L70330 71720
L70470 71720
L70550 71750
" />
<path d="M70810 72310
L70810 71720
" />
<path d="M71060 72310
L71060 72000
L71030 71950
L70980 71920
L70890 71920
L70840 71950
L70810 71970
" />
<path d="M71570 72280
L71510 72310
L71400 72310
L71340 72280
L71310 72230
L71310 72000
L71340 71950
L71400 71920
L71510 71920
L71570 71950
L71590 72000
L71590 72060
L71310 72120
" />
<path d="M72070 72280
L72020 72310
L71900 72310
L71850 72280
L71820 72230
L71820 72000
L71850 71950
L71900 71920
L72020 71920
L72070 71950
L72100 72000
L72100 72060
L71820 72120
" />
<path d="M72270 71920
L72490 71920
" />
<path d="M72350 71720
L72350 72230
L72380 72280
L72440 72310
L72490 72310
" />
<path d="M72690 72260
L72720 72280
L72690 72310
L72660 72280
L72690 72260
L72690 72310
" />
<path d="M72690 71950
L72720 71970
L72690 72000
L72660 71970
L72690 71950
L72690 72000
" />
<path d="M73840 71690
L73340 72450
" />
</g>
<g style="fill:#840000; fill-opacity:0.0; 
stroke:#840000; stroke-width:100; stroke-opacity:1; 
stroke-linecap:round; stroke-linejoin:round;">
</g>
<g style="fill:#840000; fill-opacity:0.0; 
stroke:#840000; stroke-width:60; stroke-opacity:1; 
stroke-linecap:round; stroke-linejoin:round;">
<path d="M77560 75400
L77560 76580
" />
</g>
<g style="fill:#840000; fill-opacity:0.0; 
stroke:#840000; stroke-width:100; stroke-opacity:1; 
stroke-linecap:round; stroke-linejoin:round;">
</g>
<g style="fill:#840000; fill-opacity:0.0; 
stroke:#840000; stroke-width:60; stroke-opacity:1; 
stroke-linecap:round; stroke-linejoin:round;">
<path d="M102760 75400
L102760 77960
" />
</g>
<g style="fill:#840000; fill-opacity:0.0; 
stroke:#840000; stroke-width:0; stroke-opacity:1; 
stroke-linecap:round; stroke-linejoin:round;">
<g >
</g>
<g style="fill:#840000; fill-opacity:0.0; 
stroke:#840000; stroke-width:60; stroke-opacity:1; 
stroke-linecap:round; stroke-linejoin:round;">
<rect x="12000" y="18000" width="9500" height="4000" rx="0" />
<path d="M12000 19000
L11000 19000
" />
</g>
<g style="fill:#008484; fill-opacity:0.0; 
stroke:#008484; stroke-width:60; stroke-opacity:1; 
stroke-linecap:round; stroke-linejoin:round;">
<path d="M12540 19220
L12540 18720
" />
<path d="M12780 19220
L12780 18720
L13070 19220
L13070 18720
" />
<path d="M13310 19030
L13690 19030
" />
<path d="M13500 19220
L13500 18840
" />
</g>
<g style="fill:#840000; fill-opacity:0.0; 
stroke:#840000; stroke-width:60; stroke-opacity:1; 
stroke-linecap:round; stroke-linejoin:round;">
<path d="M11640 18870
L11350 18870
" />
<path d="M11500 18870
L11500 18370
L11450 18440
L11400 18490
L11350 18510
" />
<path d="M12000 21000
L11000 21000
" />
</g>
<g style="fill:#008484; fill-opacity:0.0; 
stroke:#008484; stroke-width:60; stroke-opacity:1; 
stroke-linecap:round; stroke-linejoin:round;">
<path d="M12540 21220
L12540 20720
" />
<path d="M12780 21220
L12780 20720
L13070 21220
L13070 20720
" />
<path d="M13310 21030
L13690 21030
" />
</g>
<g style="fill:#840000; fill-opacity:0.0; 
stroke:#840000; stroke-width:60; stroke-opacity:1; 
stroke-linecap:round; stroke-linejoin:round;">
<path d="M11350 20420
L11380 20400
L11420 20370
L11540 20370
L11590 20400
L11610 20420
L11640 20470
L11640 20510
L11610 20590
L11330 20870
L11640 20870
" />
<path d="M15500 22000
L15500 23000
" />
</g>
<g style="fill:#008484; fill-opacity:0.0; 
stroke:#008484; stroke-width:60; stroke-opacity:1; 
stroke-linecap:round; stroke-linejoin:round;">
<path d="M15460 21280
L15480 21210
L15510 21180
L15550 21160
L15630 21160
L15670 21180
L15700 21210
L15720 21260
L15720 21450
L15220 21450
L15220 21280
L15250 21230
L15270 21210
L15320 21180
L15360 21180
L15410 21210
L15440 21230
L15460 21280
L15460 21450
" />
<path d="M15530 20950
L15530 20570
" />
<path d="M15720 20760
L15340 20760
" />
</g>
<g style="fill:#840000; fill-opacity:0.0; 
stroke:#840000; stroke-width:60; stroke-opacity:1; 
stroke-linecap:round; stroke-linejoin:round;">
<path d="M14870 22660
L14870 22350
L15060 22520
L15060 22450
L15090 22400
L15110 22380
L15160 22350
L15280 22350
L15320 22380
L15350 22400
L15370 22450
L15370 22590
L15350 22640
L15320 22660
" />
<path d="M18000 22000
L18000 23000
" />
</g>
<g style="fill:#008484; fill-opacity:0.0; 
stroke:#008484; stroke-width:60; stroke-opacity:1; 
stroke-linecap:round; stroke-linejoin:round;">
<path d="M17960 21280
L17980 21210
L18010 21180
L18050 21160
L18130 21160
L18170 21180
L18200 21210
L18220 21260
L18220 21450
L17720 21450
L17720 21280
L17750 21230
L17770 21210
L17820 21180
L17860 21180
L17910 21210
L17940 21230
L17960 21280
L17960 21450
" />
<path d="M18030 20950
L18030 20570
" />
</g>
<g style="fill:#840000; fill-opacity:0.0; 
stroke:#840000; stroke-width:60; stroke-opacity:1; 
stroke-linecap:round; stroke-linejoin:round;">
<path d="M17540 22400
L17870 22400
" />
<path d="M17350 22520
L17700 22640
L17700 22330
" />
<path d="M21500 19000
L22500 19000
" />
</g>
<g style="fill:#008484; fill-opacity:0.0; 
stroke:#008484; stroke-width:60; stroke-opacity:1; 
stroke-linecap:round; stroke-linejoin:round;">
<path d="M19230 18720
L19330 18720
L19370 18750
L19420 18790
L19450 18890
L19450 19050
L19420 19150
L19370 19200
L19330 19220
L19230 19220
L19180 19200
L19140 19150
L19110 19050
L19110 18890
L19140 18790
L19180 18750
L19230 18720
" />
<path d="M19660 18720
L19660 19130
L19680 19170
L19710 19200
L19760 19220
L19850 19220
L19900 19200
L19920 19170
L19950 19130
L19950 18720
" />
<path d="M20110 18720
L20400 18720
" />
<path d="M20260 19220
L20260 18720
" />
<path d="M20570 19030
L20950 19030
" />
<path d="M20760 19220
L20760 18840
" />
</g>
<g style="fill:#840000; fill-opacity:0.0; 
stroke:#840000; stroke-width:60; stroke-opacity:1; 
stroke-linecap:round; stroke-linejoin:round;">
<path d="M22110 18370
L21880 18370
L21850 18610
L21880 18590
L21920 18560
L22040 18560
L22090 18590
L22110 18610
L22140 18660
L22140 18780
L22110 18820
L22090 18850
L22040 18870
L21920 18870
L21880 18850
L21850 18820
" />
<path d="M21500 21000
L22500 21000
" />
</g>
<g style="fill:#008484; fill-opacity:0.0; 
stroke:#008484; stroke-width:60; stroke-opacity:1; 
stroke-linecap:round; stroke-linejoin:round;">
<path d="M19230 20720
L19330 20720
L19370 20750
L19420 20790
L19450 20890
L19450 21050
L19420 21150
L19370 21200
L19330 21220
L19230 21220
L19180 21200
L19140 21150
L19110 21050
L19110 20890
L19140 20790
L19180 20750
L19230 20720
" />
<path d="M19660 20720
L19660 21130
L19680 21170
L19710 21200
L19760 21220
L19850 21220
L19900 21200
L19920 21170
L19950 21130
L19950 20720
" />
<path d="M20110 20720
L20400 20720
" />
<path d="M20260 21220
L20260 20720
" />
<path d="M20570 21030
L20950 21030
" />
</g>
<g style="fill:#840000; fill-opacity:0.0; 
stroke:#840000; stroke-width:60; stroke-opacity:1; 
stroke-linecap:round; stroke-linejoin:round;">
<path d="M22090 20370
L22000 20370
L21950 20400
L21920 20420
L21880 20490
L21850 20590
L21850 20780
L21880 20820
L21900 20850
L21950 20870
L22040 20870
L22090 20850
L22110 20820
L22140 20780
L22140 20660
L22110 20610
L22090 20590
L22040 20560
L21950 20560
L21900 20590
L21880 20610
L21850 20660
" />
</g>
<g style="fill:#008484; fill-opacity:0.0; 
stroke:#008484; stroke-width:60; stroke-opacity:1; 
stroke-linecap:round; stroke-linejoin:round;">
<path d="M16340 16590
L16340 16090
L16510 16450
L16670 16090
L16670 16590
" />
<path d="M17170 16590
L16890 16590
" />
<path d="M17030 16590
L17030 16090
L16980 16160
L16940 16210
L16890 16230
" />
<path d="M14090 17000
L14380 17000
" />
<path d="M14230 17500
L14230 17000
" />
<path d="M14540 17500
L14540 17000
L14730 17000
L14780 17030
L14800 17050
L14830 17100
L14830 17170
L14800 17220
L14780 17240
L14730 17260
L14540 17260
" />
<path d="M15260 17170
L15260 17500
" />
<path d="M15140 16980
L15020 17330
L15330 17330
" />
<path d="M15610 17000
L15660 17000
L15710 17030
L15730 17050
L15760 17100
L15780 17190
L15780 17310
L15760 17410
L15730 17450
L15710 17480
L15660 17500
L15610 17500
L15570 17480
L15540 17450
L15520 17410
L15490 17310
L15490 17190
L15520 17100
L15540 17050
L15570 17030
L15610 17000
" />
<path d="M16230 17000
L15990 17000
L15970 17240
L15990 17220
L16040 17190
L16160 17190
L16210 17220
L16230 17240
L16260 17290
L16260 17410
L16230 17450
L16210 17480
L16160 17500
L16040 17500
L15990 17480
L15970 17450
" />
<path d="M16690 17000
L16590 17000
L16540 17030
L16520 17050
L16470 17120
L16450 17220
L16450 17410
L16470 17450
L16490 17480
L16540 17500
L16640 17500
L16690 17480
L16710 17450
L16730 17410
L16730 17290
L16710 17240
L16690 17220
L16640 17190
L16540 17190
L16490 17220
L16470 17240
L16450 17290
" />
<path d="M16950 17500
L16950 17000
L17110 17360
L17280 17000
L17280 17500
" />
<path d="M17590 17500
L17540 17480
L17520 17450
L17490 17410
L17490 17260
L17520 17220
L17540 17190
L17590 17170
L17660 17170
L17710 17190
L17730 17220
L17760 17260
L17760 17410
L17730 17450
L17710 17480
L17660 17500
L17590 17500
" />
<path d="M18190 17500
L18190 17000
" />
<path d="M18190 17480
L18140 17500
L18040 17500
L17990 17480
L17970 17450
L17950 17410
L17950 17260
L17970 17220
L17990 17190
L18040 17170
L18140 17170
L18190 17190
" />
<path d="M18640 17170
L18640 17500
" />
<path d="M18420 17170
L18420 17430
L18450 17480
L18490 17500
L18570 17500
L18610 17480
L18640 17450
" />
<path d="M18950 17500
L18900 17480
L18880 17430
L18880 17000
" />
<path d="M19330 17480
L19280 17500
L19190 17500
L19140 17480
L19110 17430
L19110 17240
L19140 17190
L19190 17170
L19280 17170
L19330 17190
L19350 17240
L19350 17290
L19110 17330
" />
</g>
</g>
<g style="fill:#008484; fill-opacity:0.0; 
stroke:#008484; stroke-width:0; stroke-opacity:1; 
stroke-linecap:round; stroke-linejoin:round;">
<g >
</g>
<g style="fill:#840000; fill-opacity:0.0; 
stroke:#840000; stroke-width:0; stroke-opacity:1; 
stroke-linecap:round; stroke-linejoin:round;">
</g>
<g style="fill:#FFFFC2; fill-opacity:0.0; 
stroke:#FFFFC2; stroke-width:0; stroke-opacity:1; 
stroke-linecap:round; stroke-linejoin:round;">
</g>
<g style="fill:#FFFFC2; fill-opacity:0.6; 
stroke:#FFFFC2; stroke-width:0; stroke-opacity:1; 
stroke-linecap:round; stroke-linejoin:round;">
<rect x="15000" y="26000" width="1000" height="1000" rx="0" />
</g>
<g style="fill:#840000; fill-opacity:0.6; 
stroke:#840000; stroke-width:0; stroke-opacity:1; 
stroke-linecap:round; stroke-linejoin:round;">
</g>
<g style="fill:#840000; fill-opacity:0.0; 
stroke:#840000; stroke-width:100; stroke-opacity:1; 
stroke-linecap:round; stroke-linejoin:round;">
<rect x="15000" y="26000" width="1000" height="1000" rx="0" />
</g>
<g style="fill:#840000; fill-opacity:0.0; 
stroke:#840000; stroke-width:60; stroke-opacity:1; 
stroke-linecap:round; stroke-linejoin:round;">
<rect x="15450" y="26000" width="100" height="500" rx="0" />
<path d="M15500 26000
L15500 24500
" />
<path d="M15370 25100
L15370 25390
" />
<path d="M15370 25250
L14870 25250
L14940 25290
L14990 25340
L15010 25390
" />
</g>
<g style="fill:#008484; fill-opacity:0.0; 
stroke:#008484; stroke-width:60; stroke-opacity:1; 
stroke-linecap:round; stroke-linejoin:round;">
<path d="M13790 24740
L13790 25100
L13760 25170
L13720 25220
L13650 25240
L13600 25240
" />
<path d="M14290 25240
L14000 25240
" />
<path d="M14150 25240
L14150 24740
L14100 24810
L14050 24860
L14000 24880
" />
<path d="M13810 25980
L13880 26000
L13910 26030
L13930 26070
L13930 26150
L13910 26190
L13880 26220
L13840 26240
L13640 26240
L13640 25740
L13810 25740
L13860 25770
L13880 25790
L13910 25840
L13910 25880
L13880 25930
L13860 25960
L13810 25980
L13640 25980
" />
<path d="M14140 26050
L14530 26050
" />
<path d="M14340 26240
L14340 25860
" />
</g>
</g>
<g style="fill:#008484; fill-opacity:0.0; 
stroke:#008484; stroke-width:0; stroke-opacity:1; 
stroke-linecap:round; stroke-linejoin:round;">
<g >
</g>
<g style="fill:#840000; fill-opacity:0.0; 
stroke:#840000; stroke-width:0; stroke-opacity:1; 
stroke-linecap:round; stroke-linejoin:round;">
</g>
<g style="fill:#FFFFC2; fill-opacity:0.0; 
stroke:#FFFFC2; stroke-width:0; stroke-opacity:1; 
stroke-linecap:round; stroke-linejoin:round;">
</g>
<g style="fill:#FFFFC2; fill-opacity:0.6; 
stroke:#FFFFC2; stroke-width:0; stroke-opacity:1; 
stroke-linecap:round; stroke-linejoin:round;">
<rect x="17500" y="26000" width="1000" height="1000" rx="0" />
</g>
<g style="fill:#840000; fill-opacity:0.6; 
stroke:#840000; stroke-width:0; stroke-opacity:1; 
stroke-linecap:round; stroke-linejoin:round;">
</g>
<g style="fill:#840000; fill-opacity:0.0; 
stroke:#840000; stroke-width:100; stroke-opacity:1; 
stroke-linecap:round; stroke-linejoin:round;">
<rect x="17500" y="26000" width="1000" height="1000" rx="0" />
</g>
<g style="fill:#840000; fill-opacity:0.0; 
stroke:#840000; stroke-width:60; stroke-opacity:1; 
stroke-linecap:round; stroke-linejoin:round;">
<rect x="17950" y="26000" width="100" height="500" rx="0" />
<path d="M18000 26000
L18000 24500
" />
<path d="M17870 25100
L17870 25390
" />
<path d="M17870 25250
L17370 25250
L17440 25290
L17490 25340
L17510 25390
" />
</g>
<g style="fill:#008484; fill-opacity:0.0; 
stroke:#008484; stroke-width:60; stroke-opacity:1; 
stroke-linecap:round; stroke-linejoin:round;">
<path d="M19090 24960
L19090 25320
L19060 25390
L19020 25440
L18950 25460
L18900 25460
" />
<path d="M19300 25010
L19330 24990
L19370 24960
L19490 24960
L19540 24990
L19560 25010
L19590 25060
L19590 25100
L19560 25180
L19280 25460
L19590 25460
" />
<path d="M19110 26110
L19180 26130
L19210 26160
L19230 26200
L19230 26280
L19210 26320
L19180 26350
L19140 26370
L18940 26370
L18940 25870
L19110 25870
L19160 25900
L19180 25920
L19210 25970
L19210 26010
L19180 26060
L19160 26090
L19110 26110
L18940 26110
" />
<path d="M19440 26180
L19830 26180
" />
</g>
</g>
<g style="fill:#008484; fill-opacity:0.0; 
stroke:#008484; stroke-width:0; stroke-opacity:1; 
stroke-linecap:round; stroke-linejoin:round;">
<g >
</g>
<g style="fill:#840000; fill-opacity:0.0; 
stroke:#840000; stroke-width:0; stroke-opacity:1; 
stroke-linecap:round; stroke-linejoin:round;">
</g>
<g style="fill:#FFFFC2; fill-opacity:0.0; 
stroke:#FFFFC2; stroke-width:0; stroke-opacity:1; 
stroke-linecap:round; stroke-linejoin:round;">
</g>
<g style="fill:#FFFFC2; fill-opacity:0.6; 
stroke:#FFFFC2; stroke-width:0; stroke-opacity:1; 
stroke-linecap:round; stroke-linejoin:round;">
<rect x="32500" y="20500" width="1000" height="1000" rx="0" />
</g>
<g style="fill:#840000; fill-opacity:0.6; 
stroke:#840000; stroke-width:0; stroke-opacity:1; 
stroke-linecap:round; stroke-linejoin:round;">
</g>
<g style="fill:#840000; fill-opacity:0.0; 
stroke:#840000; stroke-width:100; stroke-opacity:1; 
stroke-linecap:round; stroke-linejoin:round;">
<rect x="32500" y="20500" width="1000" height="1000" rx="0" />
</g>
<g style="fill:#840000; fill-opacity:0.0; 
stroke:#840000; stroke-width:60; stroke-opacity:1; 
stroke-linecap:round; stroke-linejoin:round;">
<rect x="32500" y="20950" width="500" height="100" rx="0" />
<path d="M32500 21000
L31000 21000
" />
<path d="M31890 20870
L31600 20870
" />
<path d="M31750 20870
L31750 20370
L31700 20440
L31650 20490
L31600 20510
" />
</g>
<g style="fill:#008484; fill-opacity:0.0; 
stroke:#008484; stroke-width:60; stroke-opacity:1; 
stroke-linecap:round; stroke-linejoin:round;">
<path d="M34090 20320
L34090 20680
L34060 20750
L34020 20800
L33950 20820
L33900 20820
" />
<path d="M34540 20490
L34540 20820
" />
<path d="M34420 20300
L34300 20650
L34610 20650
" />
<path d="M34040 21230
L34130 21230
L34180 21260
L34230 21300
L34250 21400
L34250 21560
L34230 21660
L34180 21710
L34130 21730
L34040 21730
L33990 21710
L33940 21660
L33920 21560
L33920 21400
L33940 21300
L33990 21260
L34040 21230
" />
<path d="M34460 21230
L34460 21640
L34490 21680
L34510 21710
L34560 21730
L34650 21730
L34700 21710
L34730 21680
L34750 21640
L34750 21230
" />
<path d="M34920 21230
L35200 21230
" />
<path d="M35060 21730
L35060 21230
" />
<path d="M35370 21540
L35750 21540
" />
</g>
</g>
<g style="fill:#008484; fill-opacity:0.0; 
stroke:#008484; stroke-width:0; stroke-opacity:1; 
stroke-linecap:round; stroke-linejoin:round;">
<g >
</g>
<g style="fill:#840000; fill-opacity:0.0; 
stroke:#840000; stroke-width:0; stroke-opacity:1; 
stroke-linecap:round; stroke-linejoin:round;">
</g>
<g style="fill:#FFFFC2; fill-opacity:0.0; 
stroke:#FFFFC2; stroke-width:0; stroke-opacity:1; 
stroke-linecap:round; stroke-linejoin:round;">
</g>
<g style="fill:#FFFFC2; fill-opacity:0.6; 
stroke:#FFFFC2; stroke-width:0; stroke-opacity:1; 
stroke-linecap:round; stroke-linejoin:round;">
<rect x="32500" y="17500" width="1000" height="1000" rx="0" />
</g>
<g style="fill:#840000; fill-opacity:0.6; 
stroke:#840000; stroke-width:0; stroke-opacity:1; 
stroke-linecap:round; stroke-linejoin:round;">
</g>
<g style="fill:#840000; fill-opacity:0.0; 
stroke:#840000; stroke-width:100; stroke-opacity:1; 
stroke-linecap:round; stroke-linejoin:round;">
<rect x="32500" y="17500" width="1000" height="1000" rx="0" />
</g>
<g style="fill:#840000; fill-opacity:0.0; 
stroke:#840000; stroke-width:60; stroke-opacity:1; 
stroke-linecap:round; stroke-linejoin:round;">
<rect x="32500" y="17950" width="500" height="100" rx="0" />
<path d="M32500 18000
L31000 18000
" />
<path d="M31890 17870
L31600 17870
" />
<path d="M31750 17870
L31750 17370
L31700 17440
L31650 17490
L31600 17510
" />
</g>
<g style="fill:#008484; fill-opacity:0.0; 
stroke:#008484; stroke-width:60; stroke-opacity:1; 
stroke-linecap:round; stroke-linejoin:round;">
<path d="M34090 17320
L34090 17680
L34060 17750
L34020 17800
L33950 17820
L33900 17820
" />
<path d="M34280 17320
L34590 17320
L34420 17510
L34490 17510
L34540 17540
L34560 17560
L34590 17610
L34590 17730
L34560 17770
L34540 17800
L34490 17820
L34350 17820
L34300 17800
L34280 17770
" />
<path d="M34040 18230
L34130 18230
L34180 18260
L34230 18300
L34250 18400
L34250 18560
L34230 18660
L34180 18710
L34130 18730
L34040 18730
L33990 18710
L33940 18660
L33920 18560
L33920 18400
L33940 18300
L33990 18260
L34040 18230
" />
<path d="M34460 18230
L34460 18640
L34490 18680
L34510 18710
L34560 18730
L34650 18730
L34700 18710
L34730 18680
L34750 18640
L34750 18230
" />
<path d="M34920 18230
L35200 18230
" />
<path d="M35060 18730
L35060 18230
" />
<path d="M35370 18540
L35750 18540
" />
<path d="M35560 18730
L35560 18350
" />
</g>
</g>
<g style="fill:#008484; fill-opacity:0.0; 
stroke:#008484; stroke-width:0; stroke-opacity:1; 
stroke-linecap:round; stroke-linejoin:round;">
<g >
</g>
<g style="fill:#840000; fill-opacity:0.0; 
stroke:#840000; stroke-width:0; stroke-opacity:1; 
stroke-linecap:round; stroke-linejoin:round;">
</g>
<g style="fill:#840000; fill-opacity:0.0; 
stroke:#840000; stroke-width:60; stroke-opacity:1; 
stroke-linecap:round; stroke-linejoin:round;">
<circle cx="25200" cy="19000" r="200" /> 
<circle cx="26800" cy="20000" r="200" /> 
<circle cx="26800" cy="18000" r="200" /> 
<path style="fill:#840000; fill-opacity:0.0; 
stroke:#840000; stroke-width:60; stroke-opacity:1; 
stroke-linecap:round; stroke-linejoin:round;fill:none"
d="M 25400,18900
26650,18100
Z" /> 
<path d="M27000 18000
L28000 18000
" />
<path d="M27640 18570
L27350 18570
" />
<path d="M27500 18570
L27500 18070
L27450 18140
L27400 18190
L27350 18210
" />
<path d="M25000 19000
L24000 19000
" />
<path d="M24350 19120
L24380 19100
L24420 19070
L24540 19070
L24590 19100
L24610 19120
L24640 19170
L24640 19210
L24610 19290
L24330 19570
L24640 19570
" />
<path d="M27000 20000
L28000 20000
" />
<path d="M27330 20070
L27640 20070
L27470 20260
L27540 20260
L27590 20290
L27610 20310
L27640 20360
L27640 20480
L27610 20520
L27590 20550
L27540 20570
L27400 20570
L27350 20550
L27330 20520
" />
</g>
<g style="fill:#008484; fill-opacity:0.0; 
stroke:#008484; stroke-width:60; stroke-opacity:1; 
stroke-linecap:round; stroke-linejoin:round;">
<path d="M25330 16370
L25400 16390
L25520 16390
L25570 16370
L25590 16340
L25610 16300
L25610 16250
L25590 16200
L25570 16180
L25520 16150
L25420 16130
L25380 16110
L25350 16080
L25330 16030
L25330 15990
L25350 15940
L25380 15920
L25420 15890
L25540 15890
L25610 15920
" />
<path d="M25780 15890
L25900 16390
L26000 16030
L26090 16390
L26210 15890
" />
<path d="M26660 16390
L26380 16390
" />
<path d="M26520 16390
L26520 15890
L26470 15960
L26420 16010
L26380 16030
" />
<path d="M24450 17280
L24520 17300
L24640 17300
L24690 17280
L24710 17250
L24730 17210
L24730 17160
L24710 17110
L24690 17090
L24640 17060
L24540 17040
L24500 17020
L24470 16990
L24450 16940
L24450 16900
L24470 16850
L24500 16830
L24540 16800
L24660 16800
L24730 16830
" />
<path d="M24900 16800
L25020 17300
L25110 16940
L25210 17300
L25330 16800
" />
<path d="M25400 17350
L25780 17350
" />
<path d="M25880 17280
L25950 17300
L26070 17300
L26110 17280
L26140 17250
L26160 17210
L26160 17160
L26140 17110
L26110 17090
L26070 17060
L25970 17040
L25920 17020
L25900 16990
L25880 16940
L25880 16900
L25900 16850
L25920 16830
L25970 16800
L26090 16800
L26160 16830
" />
<path d="M26380 17300
L26380 16800
L26570 16800
L26610 16830
L26640 16850
L26660 16900
L26660 16970
L26640 17020
L26610 17040
L26570 17060
L26380 17060
" />
<path d="M26880 17300
L26880 16800
L27000 16800
L27070 16830
L27110 16870
L27140 16920
L27160 17020
L27160 17090
L27140 17180
L27110 17230
L27070 17280
L27000 17300
L26880 17300
" />
<path d="M27300 16800
L27590 16800
" />
<path d="M27450 17300
L27450 16800
" />
</g>
</g>
<g style="fill:#008484; fill-opacity:0.0; 
stroke:#008484; stroke-width:60; stroke-opacity:1; 
stroke-linecap:round; stroke-linejoin:round;">
</g>
<g style="fill:#008400; fill-opacity:0.0; 
stroke:#008400; stroke-width:60; stroke-opacity:1; 
stroke-linecap:round; stroke-linejoin:round;">
<path d="M15500 23000
L15500 24500
" />
<path d="M18000 23000
L18000 24500
" />
<path d="M22500 21000
L31000 21000
" />
<path d="M22500 19000
L24000 19000
" />
<path d="M28000 18000
L31000 18000
" />
</g>
<g style="fill:#000000; fill-opacity:0.0; 
stroke:#000000; stroke-width:60; stroke-opacity:1; 
stroke-linecap:round; stroke-linejoin:round;">
<path d="M23240 18370
L23330 18370
L23380 18400
L23430 18440
L23450 18540
L23450 18700
L23430 18800
L23380 18850
L23330 18870
L23240 18870
L23190 18850
L23140 18800
L23120 18700
L23120 18540
L23140 18440
L23190 18400
L23240 18370
" />
<path d="M23670 18370
L23670 18780
L23690 18820
L23720 18850
L23760 18870
L23860 18870
L23910 18850
L23930 18820
L23950 18780
L23950 18370
" />
<path d="M24120 18370
L24410 18370
" />
<path d="M24260 18870
L24260 18370
" />
<path d="M24570 18680
L24950 18680
" />
<path d="M24760 18870
L24760 18490
" />
<path d="M23740 20370
L23830 20370
L23880 20400
L23930 20440
L23950 20540
L23950 20700
L23930 20800
L23880 20850
L23830 20870
L23740 20870
L23690 20850
L23640 20800
L23620 20700
L23620 20540
L23640 20440
L23690 20400
L23740 20370
" />
<path d="M24170 20370
L24170 20780
L24190 20820
L24220 20850
L24260 20870
L24360 20870
L24410 20850
L24430 20820
L24450 20780
L24450 20370
" />
<path d="M24620 20370
L24910 20370
" />
<path d="M24760 20870
L24760 20370
" />
<path d="M25070 20680
L25450 20680
" />
<path d="M28740 17370
L28830 17370
L28880 17400
L28930 17440
L28950 17540
L28950 17700
L28930 17800
L28880 17850
L28830 17870
L28740 17870
L28690 17850
L28640 17800
L28620 17700
L28620 17540
L28640 17440
L28690 17400
L28740 17370
" />
<path d="M29170 17370
L29170 17780
L29190 17820
L29220 17850
L29260 17870
L29360 17870
L29410 17850
L29430 17820
L29450 17780
L29450 17370
" />
<path d="M29620 17370
L29910 17370
" />
<path d="M29760 17870
L29760 17370
" />
<path d="M30070 17680
L30450 17680
" />
<path d="M30260 17870
L30260 17490
" />
<path d="M30760 17870
L30720 17850
L30690 17820
L30670 17780
L30670 17630
L30690 17590
L30720 17560
L30760 17540
L30830 17540
L30880 17560
L30910 17590
L30930 17630
L30930 17780
L30910 17820
L30880 17850
L30830 17870
L30760 17870
" />
<path d="M31140 17540
L31140 17870
" />
<path d="M31140 17590
L31170 17560
L31220 17540
L31290 17540
L31330 17560
L31360 17610
L31360 17870
" />
<path d="M18310 23610
L18380 23630
L18410 23660
L18430 23700
L18430 23780
L18410 23820
L18380 23850
L18330 23870
L18140 23870
L18140 23370
L18310 23370
L18360 23400
L18380 23420
L18410 23470
L18410 23510
L18380 23560
L18360 23590
L18310 23610
L18140 23610
" />
<path d="M18640 23680
L19030 23680
" />
<path d="M15810 23610
L15880 23630
L15910 23660
L15930 23700
L15930 23780
L15910 23820
L15880 23850
L15830 23870
L15640 23870
L15640 23370
L15810 23370
L15860 23400
L15880 23420
L15910 23470
L15910 23510
L15880 23560
L15860 23590
L15810 23610
L15640 23610
" />
<path d="M16140 23680
L16530 23680
" />
<path d="M16330 23870
L16330 23490
" />
</g>
<g style="fill:#000084; fill-opacity:0.0; 
stroke:#000084; stroke-width:60; stroke-opacity:1; 
stroke-linecap:round; stroke-linejoin:round;">
<path d="M27760 19760
L28240 20240
" />
<path d="M28240 19760
L27760 20240
" />
<path d="M10760 20760
L11240 21240
" />
<path d="M11240 20760
L10760 21240
" />
<path d="M10760 18760
L11240 19240
" />
<path d="M11240 18760
L10760 19240
" />
</g> 
</svg>
