M48
; DRILL file {KiCad 5.1.4-e60b266~84~ubuntu19.04.1} date Ne 15. září 2019, 17:37:28 CEST
; FORMAT={-:-/ absolute / inch / decimal}
; #@! TF.CreationDate,2019-09-15T17:37:28+02:00
; #@! TF.GenerationSoftware,Kicad,Pcbnew,5.1.4-e60b266~84~ubuntu19.04.1
; #@! TF.FileFunction,Plated,1,2,PTH
FMAT,2
INCH
T1C0.0157
T2C0.0315
T3C0.0394
%
G90
G05
T1
X1.0531Y-1.7163
X1.07Y-1.37
X1.1331Y-1.5563
X1.14Y-1.45
X1.31Y-1.05
X1.31Y-1.25
X1.31Y-1.35
X1.31Y-1.45
X1.31Y-1.58
X1.67Y-1.05
X1.67Y-1.25
X1.67Y-1.35
X1.67Y-1.45
X1.7697Y-1.685
X1.86Y-1.25
X1.86Y-1.35
X1.86Y-1.45
X1.87Y-1.05
X1.98Y-1.53
X2.06Y-1.45
X2.23Y-1.45
X2.32Y-1.52
X2.3661Y-1.1535
X2.37Y-1.32
X2.4Y-1.64
X2.4Y-1.74
X2.4282Y-1.06
X2.47Y-1.36
X2.55Y-1.63
X2.56Y-1.1535
X2.61Y-1.53
X2.8898Y-1.1535
X2.89Y-1.26
X3.0433Y-1.1535
X3.08Y-1.54
X3.08Y-1.71
X3.2795Y-1.8917
X3.3504Y-1.1535
X3.4Y-1.25
X3.4Y-1.41
X3.44Y-0.9
X3.4449Y-1.1535
X3.51Y-1.2963
X3.51Y-1.41
X3.5551Y-1.1535
X3.56Y-1.06
X3.69Y-1.39
X3.6932Y-1.6768
X3.9213Y-1.5591
X4.0787Y-1.5591
X4.13Y-1.76
X4.1575Y-1.561
X4.19Y-1.77
X4.2323Y-1.561
X4.26Y-1.77
X4.31Y-1.56
X4.39Y-1.56
T2
X1.7677Y-1.4764
X1.7677Y-1.5748
X2.1417Y-1.4764
X2.1417Y-1.5748
T3
X3.6157Y-0.9134
X3.7157Y-0.9134
X3.8157Y-0.9134
X3.9157Y-0.9134
X4.0157Y-0.9134
X2.126Y-0.9055
X2.126Y-1.0055
X2.126Y-1.1055
X2.126Y-1.2055
X2.126Y-1.3055
X4.2677Y-0.9134
X4.3677Y-0.9134
X0.9646Y-0.9035
X0.9646Y-1.0035
X0.9646Y-1.1035
X0.9646Y-1.2035
T0
M30
