G04 #@! TF.GenerationSoftware,KiCad,Pcbnew,5.1.4-e60b266~84~ubuntu19.04.1*
G04 #@! TF.CreationDate,2019-09-15T17:37:26+02:00*
G04 #@! TF.ProjectId,kicad,6b696361-642e-46b6-9963-61645f706362,rev?*
G04 #@! TF.SameCoordinates,Original*
G04 #@! TF.FileFunction,Copper,L1,Top*
G04 #@! TF.FilePolarity,Positive*
%FSLAX46Y46*%
G04 Gerber Fmt 4.6, Leading zero omitted, Abs format (unit mm)*
G04 Created by KiCad (PCBNEW 5.1.4-e60b266~84~ubuntu19.04.1) date 2019-09-15 17:37:26*
%MOMM*%
%LPD*%
G04 APERTURE LIST*
%ADD10C,0.100000*%
%ADD11C,0.600000*%
%ADD12R,1.800000X1.100000*%
%ADD13C,1.425000*%
%ADD14R,1.000000X2.500000*%
%ADD15R,1.800000X1.000000*%
%ADD16C,1.250000*%
%ADD17O,1.700000X1.700000*%
%ADD18R,1.700000X1.700000*%
%ADD19C,1.600000*%
%ADD20R,1.600000X1.600000*%
%ADD21C,0.800000*%
%ADD22C,0.250000*%
%ADD23C,0.254000*%
G04 APERTURE END LIST*
D10*
G36*
X36568703Y-38049722D02*
G01*
X36583264Y-38051882D01*
X36597543Y-38055459D01*
X36611403Y-38060418D01*
X36624710Y-38066712D01*
X36637336Y-38074280D01*
X36649159Y-38083048D01*
X36660066Y-38092934D01*
X36669952Y-38103841D01*
X36678720Y-38115664D01*
X36686288Y-38128290D01*
X36692582Y-38141597D01*
X36697541Y-38155457D01*
X36701118Y-38169736D01*
X36703278Y-38184297D01*
X36704000Y-38199000D01*
X36704000Y-38499000D01*
X36703278Y-38513703D01*
X36701118Y-38528264D01*
X36697541Y-38542543D01*
X36692582Y-38556403D01*
X36686288Y-38569710D01*
X36678720Y-38582336D01*
X36669952Y-38594159D01*
X36660066Y-38605066D01*
X36649159Y-38614952D01*
X36637336Y-38623720D01*
X36624710Y-38631288D01*
X36611403Y-38637582D01*
X36597543Y-38642541D01*
X36583264Y-38646118D01*
X36568703Y-38648278D01*
X36554000Y-38649000D01*
X34904000Y-38649000D01*
X34889297Y-38648278D01*
X34874736Y-38646118D01*
X34860457Y-38642541D01*
X34846597Y-38637582D01*
X34833290Y-38631288D01*
X34820664Y-38623720D01*
X34808841Y-38614952D01*
X34797934Y-38605066D01*
X34788048Y-38594159D01*
X34779280Y-38582336D01*
X34771712Y-38569710D01*
X34765418Y-38556403D01*
X34760459Y-38542543D01*
X34756882Y-38528264D01*
X34754722Y-38513703D01*
X34754000Y-38499000D01*
X34754000Y-38199000D01*
X34754722Y-38184297D01*
X34756882Y-38169736D01*
X34760459Y-38155457D01*
X34765418Y-38141597D01*
X34771712Y-38128290D01*
X34779280Y-38115664D01*
X34788048Y-38103841D01*
X34797934Y-38092934D01*
X34808841Y-38083048D01*
X34820664Y-38074280D01*
X34833290Y-38066712D01*
X34846597Y-38060418D01*
X34860457Y-38055459D01*
X34874736Y-38051882D01*
X34889297Y-38049722D01*
X34904000Y-38049000D01*
X36554000Y-38049000D01*
X36568703Y-38049722D01*
X36568703Y-38049722D01*
G37*
D11*
X35729000Y-38349000D03*
D10*
G36*
X36568703Y-39319722D02*
G01*
X36583264Y-39321882D01*
X36597543Y-39325459D01*
X36611403Y-39330418D01*
X36624710Y-39336712D01*
X36637336Y-39344280D01*
X36649159Y-39353048D01*
X36660066Y-39362934D01*
X36669952Y-39373841D01*
X36678720Y-39385664D01*
X36686288Y-39398290D01*
X36692582Y-39411597D01*
X36697541Y-39425457D01*
X36701118Y-39439736D01*
X36703278Y-39454297D01*
X36704000Y-39469000D01*
X36704000Y-39769000D01*
X36703278Y-39783703D01*
X36701118Y-39798264D01*
X36697541Y-39812543D01*
X36692582Y-39826403D01*
X36686288Y-39839710D01*
X36678720Y-39852336D01*
X36669952Y-39864159D01*
X36660066Y-39875066D01*
X36649159Y-39884952D01*
X36637336Y-39893720D01*
X36624710Y-39901288D01*
X36611403Y-39907582D01*
X36597543Y-39912541D01*
X36583264Y-39916118D01*
X36568703Y-39918278D01*
X36554000Y-39919000D01*
X34904000Y-39919000D01*
X34889297Y-39918278D01*
X34874736Y-39916118D01*
X34860457Y-39912541D01*
X34846597Y-39907582D01*
X34833290Y-39901288D01*
X34820664Y-39893720D01*
X34808841Y-39884952D01*
X34797934Y-39875066D01*
X34788048Y-39864159D01*
X34779280Y-39852336D01*
X34771712Y-39839710D01*
X34765418Y-39826403D01*
X34760459Y-39812543D01*
X34756882Y-39798264D01*
X34754722Y-39783703D01*
X34754000Y-39769000D01*
X34754000Y-39469000D01*
X34754722Y-39454297D01*
X34756882Y-39439736D01*
X34760459Y-39425457D01*
X34765418Y-39411597D01*
X34771712Y-39398290D01*
X34779280Y-39385664D01*
X34788048Y-39373841D01*
X34797934Y-39362934D01*
X34808841Y-39353048D01*
X34820664Y-39344280D01*
X34833290Y-39336712D01*
X34846597Y-39330418D01*
X34860457Y-39325459D01*
X34874736Y-39321882D01*
X34889297Y-39319722D01*
X34904000Y-39319000D01*
X36554000Y-39319000D01*
X36568703Y-39319722D01*
X36568703Y-39319722D01*
G37*
D11*
X35729000Y-39619000D03*
D10*
G36*
X36568703Y-40589722D02*
G01*
X36583264Y-40591882D01*
X36597543Y-40595459D01*
X36611403Y-40600418D01*
X36624710Y-40606712D01*
X36637336Y-40614280D01*
X36649159Y-40623048D01*
X36660066Y-40632934D01*
X36669952Y-40643841D01*
X36678720Y-40655664D01*
X36686288Y-40668290D01*
X36692582Y-40681597D01*
X36697541Y-40695457D01*
X36701118Y-40709736D01*
X36703278Y-40724297D01*
X36704000Y-40739000D01*
X36704000Y-41039000D01*
X36703278Y-41053703D01*
X36701118Y-41068264D01*
X36697541Y-41082543D01*
X36692582Y-41096403D01*
X36686288Y-41109710D01*
X36678720Y-41122336D01*
X36669952Y-41134159D01*
X36660066Y-41145066D01*
X36649159Y-41154952D01*
X36637336Y-41163720D01*
X36624710Y-41171288D01*
X36611403Y-41177582D01*
X36597543Y-41182541D01*
X36583264Y-41186118D01*
X36568703Y-41188278D01*
X36554000Y-41189000D01*
X34904000Y-41189000D01*
X34889297Y-41188278D01*
X34874736Y-41186118D01*
X34860457Y-41182541D01*
X34846597Y-41177582D01*
X34833290Y-41171288D01*
X34820664Y-41163720D01*
X34808841Y-41154952D01*
X34797934Y-41145066D01*
X34788048Y-41134159D01*
X34779280Y-41122336D01*
X34771712Y-41109710D01*
X34765418Y-41096403D01*
X34760459Y-41082543D01*
X34756882Y-41068264D01*
X34754722Y-41053703D01*
X34754000Y-41039000D01*
X34754000Y-40739000D01*
X34754722Y-40724297D01*
X34756882Y-40709736D01*
X34760459Y-40695457D01*
X34765418Y-40681597D01*
X34771712Y-40668290D01*
X34779280Y-40655664D01*
X34788048Y-40643841D01*
X34797934Y-40632934D01*
X34808841Y-40623048D01*
X34820664Y-40614280D01*
X34833290Y-40606712D01*
X34846597Y-40600418D01*
X34860457Y-40595459D01*
X34874736Y-40591882D01*
X34889297Y-40589722D01*
X34904000Y-40589000D01*
X36554000Y-40589000D01*
X36568703Y-40589722D01*
X36568703Y-40589722D01*
G37*
D11*
X35729000Y-40889000D03*
D10*
G36*
X36568703Y-41859722D02*
G01*
X36583264Y-41861882D01*
X36597543Y-41865459D01*
X36611403Y-41870418D01*
X36624710Y-41876712D01*
X36637336Y-41884280D01*
X36649159Y-41893048D01*
X36660066Y-41902934D01*
X36669952Y-41913841D01*
X36678720Y-41925664D01*
X36686288Y-41938290D01*
X36692582Y-41951597D01*
X36697541Y-41965457D01*
X36701118Y-41979736D01*
X36703278Y-41994297D01*
X36704000Y-42009000D01*
X36704000Y-42309000D01*
X36703278Y-42323703D01*
X36701118Y-42338264D01*
X36697541Y-42352543D01*
X36692582Y-42366403D01*
X36686288Y-42379710D01*
X36678720Y-42392336D01*
X36669952Y-42404159D01*
X36660066Y-42415066D01*
X36649159Y-42424952D01*
X36637336Y-42433720D01*
X36624710Y-42441288D01*
X36611403Y-42447582D01*
X36597543Y-42452541D01*
X36583264Y-42456118D01*
X36568703Y-42458278D01*
X36554000Y-42459000D01*
X34904000Y-42459000D01*
X34889297Y-42458278D01*
X34874736Y-42456118D01*
X34860457Y-42452541D01*
X34846597Y-42447582D01*
X34833290Y-42441288D01*
X34820664Y-42433720D01*
X34808841Y-42424952D01*
X34797934Y-42415066D01*
X34788048Y-42404159D01*
X34779280Y-42392336D01*
X34771712Y-42379710D01*
X34765418Y-42366403D01*
X34760459Y-42352543D01*
X34756882Y-42338264D01*
X34754722Y-42323703D01*
X34754000Y-42309000D01*
X34754000Y-42009000D01*
X34754722Y-41994297D01*
X34756882Y-41979736D01*
X34760459Y-41965457D01*
X34765418Y-41951597D01*
X34771712Y-41938290D01*
X34779280Y-41925664D01*
X34788048Y-41913841D01*
X34797934Y-41902934D01*
X34808841Y-41893048D01*
X34820664Y-41884280D01*
X34833290Y-41876712D01*
X34846597Y-41870418D01*
X34860457Y-41865459D01*
X34874736Y-41861882D01*
X34889297Y-41859722D01*
X34904000Y-41859000D01*
X36554000Y-41859000D01*
X36568703Y-41859722D01*
X36568703Y-41859722D01*
G37*
D11*
X35729000Y-42159000D03*
D10*
G36*
X31618703Y-41859722D02*
G01*
X31633264Y-41861882D01*
X31647543Y-41865459D01*
X31661403Y-41870418D01*
X31674710Y-41876712D01*
X31687336Y-41884280D01*
X31699159Y-41893048D01*
X31710066Y-41902934D01*
X31719952Y-41913841D01*
X31728720Y-41925664D01*
X31736288Y-41938290D01*
X31742582Y-41951597D01*
X31747541Y-41965457D01*
X31751118Y-41979736D01*
X31753278Y-41994297D01*
X31754000Y-42009000D01*
X31754000Y-42309000D01*
X31753278Y-42323703D01*
X31751118Y-42338264D01*
X31747541Y-42352543D01*
X31742582Y-42366403D01*
X31736288Y-42379710D01*
X31728720Y-42392336D01*
X31719952Y-42404159D01*
X31710066Y-42415066D01*
X31699159Y-42424952D01*
X31687336Y-42433720D01*
X31674710Y-42441288D01*
X31661403Y-42447582D01*
X31647543Y-42452541D01*
X31633264Y-42456118D01*
X31618703Y-42458278D01*
X31604000Y-42459000D01*
X29954000Y-42459000D01*
X29939297Y-42458278D01*
X29924736Y-42456118D01*
X29910457Y-42452541D01*
X29896597Y-42447582D01*
X29883290Y-42441288D01*
X29870664Y-42433720D01*
X29858841Y-42424952D01*
X29847934Y-42415066D01*
X29838048Y-42404159D01*
X29829280Y-42392336D01*
X29821712Y-42379710D01*
X29815418Y-42366403D01*
X29810459Y-42352543D01*
X29806882Y-42338264D01*
X29804722Y-42323703D01*
X29804000Y-42309000D01*
X29804000Y-42009000D01*
X29804722Y-41994297D01*
X29806882Y-41979736D01*
X29810459Y-41965457D01*
X29815418Y-41951597D01*
X29821712Y-41938290D01*
X29829280Y-41925664D01*
X29838048Y-41913841D01*
X29847934Y-41902934D01*
X29858841Y-41893048D01*
X29870664Y-41884280D01*
X29883290Y-41876712D01*
X29896597Y-41870418D01*
X29910457Y-41865459D01*
X29924736Y-41861882D01*
X29939297Y-41859722D01*
X29954000Y-41859000D01*
X31604000Y-41859000D01*
X31618703Y-41859722D01*
X31618703Y-41859722D01*
G37*
D11*
X30779000Y-42159000D03*
D10*
G36*
X31618703Y-40589722D02*
G01*
X31633264Y-40591882D01*
X31647543Y-40595459D01*
X31661403Y-40600418D01*
X31674710Y-40606712D01*
X31687336Y-40614280D01*
X31699159Y-40623048D01*
X31710066Y-40632934D01*
X31719952Y-40643841D01*
X31728720Y-40655664D01*
X31736288Y-40668290D01*
X31742582Y-40681597D01*
X31747541Y-40695457D01*
X31751118Y-40709736D01*
X31753278Y-40724297D01*
X31754000Y-40739000D01*
X31754000Y-41039000D01*
X31753278Y-41053703D01*
X31751118Y-41068264D01*
X31747541Y-41082543D01*
X31742582Y-41096403D01*
X31736288Y-41109710D01*
X31728720Y-41122336D01*
X31719952Y-41134159D01*
X31710066Y-41145066D01*
X31699159Y-41154952D01*
X31687336Y-41163720D01*
X31674710Y-41171288D01*
X31661403Y-41177582D01*
X31647543Y-41182541D01*
X31633264Y-41186118D01*
X31618703Y-41188278D01*
X31604000Y-41189000D01*
X29954000Y-41189000D01*
X29939297Y-41188278D01*
X29924736Y-41186118D01*
X29910457Y-41182541D01*
X29896597Y-41177582D01*
X29883290Y-41171288D01*
X29870664Y-41163720D01*
X29858841Y-41154952D01*
X29847934Y-41145066D01*
X29838048Y-41134159D01*
X29829280Y-41122336D01*
X29821712Y-41109710D01*
X29815418Y-41096403D01*
X29810459Y-41082543D01*
X29806882Y-41068264D01*
X29804722Y-41053703D01*
X29804000Y-41039000D01*
X29804000Y-40739000D01*
X29804722Y-40724297D01*
X29806882Y-40709736D01*
X29810459Y-40695457D01*
X29815418Y-40681597D01*
X29821712Y-40668290D01*
X29829280Y-40655664D01*
X29838048Y-40643841D01*
X29847934Y-40632934D01*
X29858841Y-40623048D01*
X29870664Y-40614280D01*
X29883290Y-40606712D01*
X29896597Y-40600418D01*
X29910457Y-40595459D01*
X29924736Y-40591882D01*
X29939297Y-40589722D01*
X29954000Y-40589000D01*
X31604000Y-40589000D01*
X31618703Y-40589722D01*
X31618703Y-40589722D01*
G37*
D11*
X30779000Y-40889000D03*
D10*
G36*
X31618703Y-39319722D02*
G01*
X31633264Y-39321882D01*
X31647543Y-39325459D01*
X31661403Y-39330418D01*
X31674710Y-39336712D01*
X31687336Y-39344280D01*
X31699159Y-39353048D01*
X31710066Y-39362934D01*
X31719952Y-39373841D01*
X31728720Y-39385664D01*
X31736288Y-39398290D01*
X31742582Y-39411597D01*
X31747541Y-39425457D01*
X31751118Y-39439736D01*
X31753278Y-39454297D01*
X31754000Y-39469000D01*
X31754000Y-39769000D01*
X31753278Y-39783703D01*
X31751118Y-39798264D01*
X31747541Y-39812543D01*
X31742582Y-39826403D01*
X31736288Y-39839710D01*
X31728720Y-39852336D01*
X31719952Y-39864159D01*
X31710066Y-39875066D01*
X31699159Y-39884952D01*
X31687336Y-39893720D01*
X31674710Y-39901288D01*
X31661403Y-39907582D01*
X31647543Y-39912541D01*
X31633264Y-39916118D01*
X31618703Y-39918278D01*
X31604000Y-39919000D01*
X29954000Y-39919000D01*
X29939297Y-39918278D01*
X29924736Y-39916118D01*
X29910457Y-39912541D01*
X29896597Y-39907582D01*
X29883290Y-39901288D01*
X29870664Y-39893720D01*
X29858841Y-39884952D01*
X29847934Y-39875066D01*
X29838048Y-39864159D01*
X29829280Y-39852336D01*
X29821712Y-39839710D01*
X29815418Y-39826403D01*
X29810459Y-39812543D01*
X29806882Y-39798264D01*
X29804722Y-39783703D01*
X29804000Y-39769000D01*
X29804000Y-39469000D01*
X29804722Y-39454297D01*
X29806882Y-39439736D01*
X29810459Y-39425457D01*
X29815418Y-39411597D01*
X29821712Y-39398290D01*
X29829280Y-39385664D01*
X29838048Y-39373841D01*
X29847934Y-39362934D01*
X29858841Y-39353048D01*
X29870664Y-39344280D01*
X29883290Y-39336712D01*
X29896597Y-39330418D01*
X29910457Y-39325459D01*
X29924736Y-39321882D01*
X29939297Y-39319722D01*
X29954000Y-39319000D01*
X31604000Y-39319000D01*
X31618703Y-39319722D01*
X31618703Y-39319722D01*
G37*
D11*
X30779000Y-39619000D03*
D10*
G36*
X31618703Y-38049722D02*
G01*
X31633264Y-38051882D01*
X31647543Y-38055459D01*
X31661403Y-38060418D01*
X31674710Y-38066712D01*
X31687336Y-38074280D01*
X31699159Y-38083048D01*
X31710066Y-38092934D01*
X31719952Y-38103841D01*
X31728720Y-38115664D01*
X31736288Y-38128290D01*
X31742582Y-38141597D01*
X31747541Y-38155457D01*
X31751118Y-38169736D01*
X31753278Y-38184297D01*
X31754000Y-38199000D01*
X31754000Y-38499000D01*
X31753278Y-38513703D01*
X31751118Y-38528264D01*
X31747541Y-38542543D01*
X31742582Y-38556403D01*
X31736288Y-38569710D01*
X31728720Y-38582336D01*
X31719952Y-38594159D01*
X31710066Y-38605066D01*
X31699159Y-38614952D01*
X31687336Y-38623720D01*
X31674710Y-38631288D01*
X31661403Y-38637582D01*
X31647543Y-38642541D01*
X31633264Y-38646118D01*
X31618703Y-38648278D01*
X31604000Y-38649000D01*
X29954000Y-38649000D01*
X29939297Y-38648278D01*
X29924736Y-38646118D01*
X29910457Y-38642541D01*
X29896597Y-38637582D01*
X29883290Y-38631288D01*
X29870664Y-38623720D01*
X29858841Y-38614952D01*
X29847934Y-38605066D01*
X29838048Y-38594159D01*
X29829280Y-38582336D01*
X29821712Y-38569710D01*
X29815418Y-38556403D01*
X29810459Y-38542543D01*
X29806882Y-38528264D01*
X29804722Y-38513703D01*
X29804000Y-38499000D01*
X29804000Y-38199000D01*
X29804722Y-38184297D01*
X29806882Y-38169736D01*
X29810459Y-38155457D01*
X29815418Y-38141597D01*
X29821712Y-38128290D01*
X29829280Y-38115664D01*
X29838048Y-38103841D01*
X29847934Y-38092934D01*
X29858841Y-38083048D01*
X29870664Y-38074280D01*
X29883290Y-38066712D01*
X29896597Y-38060418D01*
X29910457Y-38055459D01*
X29924736Y-38051882D01*
X29939297Y-38049722D01*
X29954000Y-38049000D01*
X31604000Y-38049000D01*
X31618703Y-38049722D01*
X31618703Y-38049722D01*
G37*
D11*
X30779000Y-38349000D03*
D12*
X69902000Y-25218000D03*
X63702000Y-25218000D03*
X69902000Y-21518000D03*
X63702000Y-21518000D03*
X79300000Y-25218000D03*
X73100000Y-25218000D03*
X79300000Y-21518000D03*
X73100000Y-21518000D03*
D10*
G36*
X93867504Y-29224204D02*
G01*
X93891773Y-29227804D01*
X93915571Y-29233765D01*
X93938671Y-29242030D01*
X93960849Y-29252520D01*
X93981893Y-29265133D01*
X94001598Y-29279747D01*
X94019777Y-29296223D01*
X94036253Y-29314402D01*
X94050867Y-29334107D01*
X94063480Y-29355151D01*
X94073970Y-29377329D01*
X94082235Y-29400429D01*
X94088196Y-29424227D01*
X94091796Y-29448496D01*
X94093000Y-29473000D01*
X94093000Y-30398000D01*
X94091796Y-30422504D01*
X94088196Y-30446773D01*
X94082235Y-30470571D01*
X94073970Y-30493671D01*
X94063480Y-30515849D01*
X94050867Y-30536893D01*
X94036253Y-30556598D01*
X94019777Y-30574777D01*
X94001598Y-30591253D01*
X93981893Y-30605867D01*
X93960849Y-30618480D01*
X93938671Y-30628970D01*
X93915571Y-30637235D01*
X93891773Y-30643196D01*
X93867504Y-30646796D01*
X93843000Y-30648000D01*
X92593000Y-30648000D01*
X92568496Y-30646796D01*
X92544227Y-30643196D01*
X92520429Y-30637235D01*
X92497329Y-30628970D01*
X92475151Y-30618480D01*
X92454107Y-30605867D01*
X92434402Y-30591253D01*
X92416223Y-30574777D01*
X92399747Y-30556598D01*
X92385133Y-30536893D01*
X92372520Y-30515849D01*
X92362030Y-30493671D01*
X92353765Y-30470571D01*
X92347804Y-30446773D01*
X92344204Y-30422504D01*
X92343000Y-30398000D01*
X92343000Y-29473000D01*
X92344204Y-29448496D01*
X92347804Y-29424227D01*
X92353765Y-29400429D01*
X92362030Y-29377329D01*
X92372520Y-29355151D01*
X92385133Y-29334107D01*
X92399747Y-29314402D01*
X92416223Y-29296223D01*
X92434402Y-29279747D01*
X92454107Y-29265133D01*
X92475151Y-29252520D01*
X92497329Y-29242030D01*
X92520429Y-29233765D01*
X92544227Y-29227804D01*
X92568496Y-29224204D01*
X92593000Y-29223000D01*
X93843000Y-29223000D01*
X93867504Y-29224204D01*
X93867504Y-29224204D01*
G37*
D13*
X93218000Y-29935500D03*
D10*
G36*
X93867504Y-26249204D02*
G01*
X93891773Y-26252804D01*
X93915571Y-26258765D01*
X93938671Y-26267030D01*
X93960849Y-26277520D01*
X93981893Y-26290133D01*
X94001598Y-26304747D01*
X94019777Y-26321223D01*
X94036253Y-26339402D01*
X94050867Y-26359107D01*
X94063480Y-26380151D01*
X94073970Y-26402329D01*
X94082235Y-26425429D01*
X94088196Y-26449227D01*
X94091796Y-26473496D01*
X94093000Y-26498000D01*
X94093000Y-27423000D01*
X94091796Y-27447504D01*
X94088196Y-27471773D01*
X94082235Y-27495571D01*
X94073970Y-27518671D01*
X94063480Y-27540849D01*
X94050867Y-27561893D01*
X94036253Y-27581598D01*
X94019777Y-27599777D01*
X94001598Y-27616253D01*
X93981893Y-27630867D01*
X93960849Y-27643480D01*
X93938671Y-27653970D01*
X93915571Y-27662235D01*
X93891773Y-27668196D01*
X93867504Y-27671796D01*
X93843000Y-27673000D01*
X92593000Y-27673000D01*
X92568496Y-27671796D01*
X92544227Y-27668196D01*
X92520429Y-27662235D01*
X92497329Y-27653970D01*
X92475151Y-27643480D01*
X92454107Y-27630867D01*
X92434402Y-27616253D01*
X92416223Y-27599777D01*
X92399747Y-27581598D01*
X92385133Y-27561893D01*
X92372520Y-27540849D01*
X92362030Y-27518671D01*
X92353765Y-27495571D01*
X92347804Y-27471773D01*
X92344204Y-27447504D01*
X92343000Y-27423000D01*
X92343000Y-26498000D01*
X92344204Y-26473496D01*
X92347804Y-26449227D01*
X92353765Y-26425429D01*
X92362030Y-26402329D01*
X92372520Y-26380151D01*
X92385133Y-26359107D01*
X92399747Y-26339402D01*
X92416223Y-26321223D01*
X92434402Y-26304747D01*
X92454107Y-26290133D01*
X92475151Y-26277520D01*
X92497329Y-26267030D01*
X92520429Y-26258765D01*
X92544227Y-26252804D01*
X92568496Y-26249204D01*
X92593000Y-26248000D01*
X93843000Y-26248000D01*
X93867504Y-26249204D01*
X93867504Y-26249204D01*
G37*
D13*
X93218000Y-26960500D03*
D14*
X111590000Y-42590000D03*
X109590000Y-42590000D03*
X107590000Y-42590000D03*
X105590000Y-42590000D03*
X103590000Y-42590000D03*
X101590000Y-42590000D03*
X99590000Y-42590000D03*
X97590000Y-42590000D03*
D15*
X96090000Y-39990000D03*
X96090000Y-37990000D03*
X96090000Y-35990000D03*
X96090000Y-33990000D03*
X96090000Y-31990000D03*
X96090000Y-29990000D03*
D14*
X97590000Y-27390000D03*
X99590000Y-27390000D03*
X101590000Y-27390000D03*
X103590000Y-27390000D03*
X105590000Y-27390000D03*
X107590000Y-27390000D03*
X109590000Y-27390000D03*
X111590000Y-27390000D03*
D10*
G36*
X83707504Y-22360204D02*
G01*
X83731773Y-22363804D01*
X83755571Y-22369765D01*
X83778671Y-22378030D01*
X83800849Y-22388520D01*
X83821893Y-22401133D01*
X83841598Y-22415747D01*
X83859777Y-22432223D01*
X83876253Y-22450402D01*
X83890867Y-22470107D01*
X83903480Y-22491151D01*
X83913970Y-22513329D01*
X83922235Y-22536429D01*
X83928196Y-22560227D01*
X83931796Y-22584496D01*
X83933000Y-22609000D01*
X83933000Y-23359000D01*
X83931796Y-23383504D01*
X83928196Y-23407773D01*
X83922235Y-23431571D01*
X83913970Y-23454671D01*
X83903480Y-23476849D01*
X83890867Y-23497893D01*
X83876253Y-23517598D01*
X83859777Y-23535777D01*
X83841598Y-23552253D01*
X83821893Y-23566867D01*
X83800849Y-23579480D01*
X83778671Y-23589970D01*
X83755571Y-23598235D01*
X83731773Y-23604196D01*
X83707504Y-23607796D01*
X83683000Y-23609000D01*
X82433000Y-23609000D01*
X82408496Y-23607796D01*
X82384227Y-23604196D01*
X82360429Y-23598235D01*
X82337329Y-23589970D01*
X82315151Y-23579480D01*
X82294107Y-23566867D01*
X82274402Y-23552253D01*
X82256223Y-23535777D01*
X82239747Y-23517598D01*
X82225133Y-23497893D01*
X82212520Y-23476849D01*
X82202030Y-23454671D01*
X82193765Y-23431571D01*
X82187804Y-23407773D01*
X82184204Y-23383504D01*
X82183000Y-23359000D01*
X82183000Y-22609000D01*
X82184204Y-22584496D01*
X82187804Y-22560227D01*
X82193765Y-22536429D01*
X82202030Y-22513329D01*
X82212520Y-22491151D01*
X82225133Y-22470107D01*
X82239747Y-22450402D01*
X82256223Y-22432223D01*
X82274402Y-22415747D01*
X82294107Y-22401133D01*
X82315151Y-22388520D01*
X82337329Y-22378030D01*
X82360429Y-22369765D01*
X82384227Y-22363804D01*
X82408496Y-22360204D01*
X82433000Y-22359000D01*
X83683000Y-22359000D01*
X83707504Y-22360204D01*
X83707504Y-22360204D01*
G37*
D16*
X83058000Y-22984000D03*
D10*
G36*
X83707504Y-25160204D02*
G01*
X83731773Y-25163804D01*
X83755571Y-25169765D01*
X83778671Y-25178030D01*
X83800849Y-25188520D01*
X83821893Y-25201133D01*
X83841598Y-25215747D01*
X83859777Y-25232223D01*
X83876253Y-25250402D01*
X83890867Y-25270107D01*
X83903480Y-25291151D01*
X83913970Y-25313329D01*
X83922235Y-25336429D01*
X83928196Y-25360227D01*
X83931796Y-25384496D01*
X83933000Y-25409000D01*
X83933000Y-26159000D01*
X83931796Y-26183504D01*
X83928196Y-26207773D01*
X83922235Y-26231571D01*
X83913970Y-26254671D01*
X83903480Y-26276849D01*
X83890867Y-26297893D01*
X83876253Y-26317598D01*
X83859777Y-26335777D01*
X83841598Y-26352253D01*
X83821893Y-26366867D01*
X83800849Y-26379480D01*
X83778671Y-26389970D01*
X83755571Y-26398235D01*
X83731773Y-26404196D01*
X83707504Y-26407796D01*
X83683000Y-26409000D01*
X82433000Y-26409000D01*
X82408496Y-26407796D01*
X82384227Y-26404196D01*
X82360429Y-26398235D01*
X82337329Y-26389970D01*
X82315151Y-26379480D01*
X82294107Y-26366867D01*
X82274402Y-26352253D01*
X82256223Y-26335777D01*
X82239747Y-26317598D01*
X82225133Y-26297893D01*
X82212520Y-26276849D01*
X82202030Y-26254671D01*
X82193765Y-26231571D01*
X82187804Y-26207773D01*
X82184204Y-26183504D01*
X82183000Y-26159000D01*
X82183000Y-25409000D01*
X82184204Y-25384496D01*
X82187804Y-25360227D01*
X82193765Y-25336429D01*
X82202030Y-25313329D01*
X82212520Y-25291151D01*
X82225133Y-25270107D01*
X82239747Y-25250402D01*
X82256223Y-25232223D01*
X82274402Y-25215747D01*
X82294107Y-25201133D01*
X82315151Y-25188520D01*
X82337329Y-25178030D01*
X82360429Y-25169765D01*
X82384227Y-25163804D01*
X82408496Y-25160204D01*
X82433000Y-25159000D01*
X83683000Y-25159000D01*
X83707504Y-25160204D01*
X83707504Y-25160204D01*
G37*
D16*
X83058000Y-25784000D03*
D10*
G36*
X66823504Y-31130204D02*
G01*
X66847773Y-31133804D01*
X66871571Y-31139765D01*
X66894671Y-31148030D01*
X66916849Y-31158520D01*
X66937893Y-31171133D01*
X66957598Y-31185747D01*
X66975777Y-31202223D01*
X66992253Y-31220402D01*
X67006867Y-31240107D01*
X67019480Y-31261151D01*
X67029970Y-31283329D01*
X67038235Y-31306429D01*
X67044196Y-31330227D01*
X67047796Y-31354496D01*
X67049000Y-31379000D01*
X67049000Y-32629000D01*
X67047796Y-32653504D01*
X67044196Y-32677773D01*
X67038235Y-32701571D01*
X67029970Y-32724671D01*
X67019480Y-32746849D01*
X67006867Y-32767893D01*
X66992253Y-32787598D01*
X66975777Y-32805777D01*
X66957598Y-32822253D01*
X66937893Y-32836867D01*
X66916849Y-32849480D01*
X66894671Y-32859970D01*
X66871571Y-32868235D01*
X66847773Y-32874196D01*
X66823504Y-32877796D01*
X66799000Y-32879000D01*
X66049000Y-32879000D01*
X66024496Y-32877796D01*
X66000227Y-32874196D01*
X65976429Y-32868235D01*
X65953329Y-32859970D01*
X65931151Y-32849480D01*
X65910107Y-32836867D01*
X65890402Y-32822253D01*
X65872223Y-32805777D01*
X65855747Y-32787598D01*
X65841133Y-32767893D01*
X65828520Y-32746849D01*
X65818030Y-32724671D01*
X65809765Y-32701571D01*
X65803804Y-32677773D01*
X65800204Y-32653504D01*
X65799000Y-32629000D01*
X65799000Y-31379000D01*
X65800204Y-31354496D01*
X65803804Y-31330227D01*
X65809765Y-31306429D01*
X65818030Y-31283329D01*
X65828520Y-31261151D01*
X65841133Y-31240107D01*
X65855747Y-31220402D01*
X65872223Y-31202223D01*
X65890402Y-31185747D01*
X65910107Y-31171133D01*
X65931151Y-31158520D01*
X65953329Y-31148030D01*
X65976429Y-31139765D01*
X66000227Y-31133804D01*
X66024496Y-31130204D01*
X66049000Y-31129000D01*
X66799000Y-31129000D01*
X66823504Y-31130204D01*
X66823504Y-31130204D01*
G37*
D16*
X66424000Y-32004000D03*
D10*
G36*
X64023504Y-31130204D02*
G01*
X64047773Y-31133804D01*
X64071571Y-31139765D01*
X64094671Y-31148030D01*
X64116849Y-31158520D01*
X64137893Y-31171133D01*
X64157598Y-31185747D01*
X64175777Y-31202223D01*
X64192253Y-31220402D01*
X64206867Y-31240107D01*
X64219480Y-31261151D01*
X64229970Y-31283329D01*
X64238235Y-31306429D01*
X64244196Y-31330227D01*
X64247796Y-31354496D01*
X64249000Y-31379000D01*
X64249000Y-32629000D01*
X64247796Y-32653504D01*
X64244196Y-32677773D01*
X64238235Y-32701571D01*
X64229970Y-32724671D01*
X64219480Y-32746849D01*
X64206867Y-32767893D01*
X64192253Y-32787598D01*
X64175777Y-32805777D01*
X64157598Y-32822253D01*
X64137893Y-32836867D01*
X64116849Y-32849480D01*
X64094671Y-32859970D01*
X64071571Y-32868235D01*
X64047773Y-32874196D01*
X64023504Y-32877796D01*
X63999000Y-32879000D01*
X63249000Y-32879000D01*
X63224496Y-32877796D01*
X63200227Y-32874196D01*
X63176429Y-32868235D01*
X63153329Y-32859970D01*
X63131151Y-32849480D01*
X63110107Y-32836867D01*
X63090402Y-32822253D01*
X63072223Y-32805777D01*
X63055747Y-32787598D01*
X63041133Y-32767893D01*
X63028520Y-32746849D01*
X63018030Y-32724671D01*
X63009765Y-32701571D01*
X63003804Y-32677773D01*
X63000204Y-32653504D01*
X62999000Y-32629000D01*
X62999000Y-31379000D01*
X63000204Y-31354496D01*
X63003804Y-31330227D01*
X63009765Y-31306429D01*
X63018030Y-31283329D01*
X63028520Y-31261151D01*
X63041133Y-31240107D01*
X63055747Y-31220402D01*
X63072223Y-31202223D01*
X63090402Y-31185747D01*
X63110107Y-31171133D01*
X63131151Y-31158520D01*
X63153329Y-31148030D01*
X63176429Y-31139765D01*
X63200227Y-31133804D01*
X63224496Y-31130204D01*
X63249000Y-31129000D01*
X63999000Y-31129000D01*
X64023504Y-31130204D01*
X64023504Y-31130204D01*
G37*
D16*
X63624000Y-32004000D03*
D10*
G36*
X110499504Y-46126204D02*
G01*
X110523773Y-46129804D01*
X110547571Y-46135765D01*
X110570671Y-46144030D01*
X110592849Y-46154520D01*
X110613893Y-46167133D01*
X110633598Y-46181747D01*
X110651777Y-46198223D01*
X110668253Y-46216402D01*
X110682867Y-46236107D01*
X110695480Y-46257151D01*
X110705970Y-46279329D01*
X110714235Y-46302429D01*
X110720196Y-46326227D01*
X110723796Y-46350496D01*
X110725000Y-46375000D01*
X110725000Y-47625000D01*
X110723796Y-47649504D01*
X110720196Y-47673773D01*
X110714235Y-47697571D01*
X110705970Y-47720671D01*
X110695480Y-47742849D01*
X110682867Y-47763893D01*
X110668253Y-47783598D01*
X110651777Y-47801777D01*
X110633598Y-47818253D01*
X110613893Y-47832867D01*
X110592849Y-47845480D01*
X110570671Y-47855970D01*
X110547571Y-47864235D01*
X110523773Y-47870196D01*
X110499504Y-47873796D01*
X110475000Y-47875000D01*
X109725000Y-47875000D01*
X109700496Y-47873796D01*
X109676227Y-47870196D01*
X109652429Y-47864235D01*
X109629329Y-47855970D01*
X109607151Y-47845480D01*
X109586107Y-47832867D01*
X109566402Y-47818253D01*
X109548223Y-47801777D01*
X109531747Y-47783598D01*
X109517133Y-47763893D01*
X109504520Y-47742849D01*
X109494030Y-47720671D01*
X109485765Y-47697571D01*
X109479804Y-47673773D01*
X109476204Y-47649504D01*
X109475000Y-47625000D01*
X109475000Y-46375000D01*
X109476204Y-46350496D01*
X109479804Y-46326227D01*
X109485765Y-46302429D01*
X109494030Y-46279329D01*
X109504520Y-46257151D01*
X109517133Y-46236107D01*
X109531747Y-46216402D01*
X109548223Y-46198223D01*
X109566402Y-46181747D01*
X109586107Y-46167133D01*
X109607151Y-46154520D01*
X109629329Y-46144030D01*
X109652429Y-46135765D01*
X109676227Y-46129804D01*
X109700496Y-46126204D01*
X109725000Y-46125000D01*
X110475000Y-46125000D01*
X110499504Y-46126204D01*
X110499504Y-46126204D01*
G37*
D16*
X110100000Y-47000000D03*
D10*
G36*
X107699504Y-46126204D02*
G01*
X107723773Y-46129804D01*
X107747571Y-46135765D01*
X107770671Y-46144030D01*
X107792849Y-46154520D01*
X107813893Y-46167133D01*
X107833598Y-46181747D01*
X107851777Y-46198223D01*
X107868253Y-46216402D01*
X107882867Y-46236107D01*
X107895480Y-46257151D01*
X107905970Y-46279329D01*
X107914235Y-46302429D01*
X107920196Y-46326227D01*
X107923796Y-46350496D01*
X107925000Y-46375000D01*
X107925000Y-47625000D01*
X107923796Y-47649504D01*
X107920196Y-47673773D01*
X107914235Y-47697571D01*
X107905970Y-47720671D01*
X107895480Y-47742849D01*
X107882867Y-47763893D01*
X107868253Y-47783598D01*
X107851777Y-47801777D01*
X107833598Y-47818253D01*
X107813893Y-47832867D01*
X107792849Y-47845480D01*
X107770671Y-47855970D01*
X107747571Y-47864235D01*
X107723773Y-47870196D01*
X107699504Y-47873796D01*
X107675000Y-47875000D01*
X106925000Y-47875000D01*
X106900496Y-47873796D01*
X106876227Y-47870196D01*
X106852429Y-47864235D01*
X106829329Y-47855970D01*
X106807151Y-47845480D01*
X106786107Y-47832867D01*
X106766402Y-47818253D01*
X106748223Y-47801777D01*
X106731747Y-47783598D01*
X106717133Y-47763893D01*
X106704520Y-47742849D01*
X106694030Y-47720671D01*
X106685765Y-47697571D01*
X106679804Y-47673773D01*
X106676204Y-47649504D01*
X106675000Y-47625000D01*
X106675000Y-46375000D01*
X106676204Y-46350496D01*
X106679804Y-46326227D01*
X106685765Y-46302429D01*
X106694030Y-46279329D01*
X106704520Y-46257151D01*
X106717133Y-46236107D01*
X106731747Y-46216402D01*
X106748223Y-46198223D01*
X106766402Y-46181747D01*
X106786107Y-46167133D01*
X106807151Y-46154520D01*
X106829329Y-46144030D01*
X106852429Y-46135765D01*
X106876227Y-46129804D01*
X106900496Y-46126204D01*
X106925000Y-46125000D01*
X107675000Y-46125000D01*
X107699504Y-46126204D01*
X107699504Y-46126204D01*
G37*
D16*
X107300000Y-47000000D03*
D10*
G36*
X87009504Y-36838204D02*
G01*
X87033773Y-36841804D01*
X87057571Y-36847765D01*
X87080671Y-36856030D01*
X87102849Y-36866520D01*
X87123893Y-36879133D01*
X87143598Y-36893747D01*
X87161777Y-36910223D01*
X87178253Y-36928402D01*
X87192867Y-36948107D01*
X87205480Y-36969151D01*
X87215970Y-36991329D01*
X87224235Y-37014429D01*
X87230196Y-37038227D01*
X87233796Y-37062496D01*
X87235000Y-37087000D01*
X87235000Y-37837000D01*
X87233796Y-37861504D01*
X87230196Y-37885773D01*
X87224235Y-37909571D01*
X87215970Y-37932671D01*
X87205480Y-37954849D01*
X87192867Y-37975893D01*
X87178253Y-37995598D01*
X87161777Y-38013777D01*
X87143598Y-38030253D01*
X87123893Y-38044867D01*
X87102849Y-38057480D01*
X87080671Y-38067970D01*
X87057571Y-38076235D01*
X87033773Y-38082196D01*
X87009504Y-38085796D01*
X86985000Y-38087000D01*
X85735000Y-38087000D01*
X85710496Y-38085796D01*
X85686227Y-38082196D01*
X85662429Y-38076235D01*
X85639329Y-38067970D01*
X85617151Y-38057480D01*
X85596107Y-38044867D01*
X85576402Y-38030253D01*
X85558223Y-38013777D01*
X85541747Y-37995598D01*
X85527133Y-37975893D01*
X85514520Y-37954849D01*
X85504030Y-37932671D01*
X85495765Y-37909571D01*
X85489804Y-37885773D01*
X85486204Y-37861504D01*
X85485000Y-37837000D01*
X85485000Y-37087000D01*
X85486204Y-37062496D01*
X85489804Y-37038227D01*
X85495765Y-37014429D01*
X85504030Y-36991329D01*
X85514520Y-36969151D01*
X85527133Y-36948107D01*
X85541747Y-36928402D01*
X85558223Y-36910223D01*
X85576402Y-36893747D01*
X85596107Y-36879133D01*
X85617151Y-36866520D01*
X85639329Y-36856030D01*
X85662429Y-36847765D01*
X85686227Y-36841804D01*
X85710496Y-36838204D01*
X85735000Y-36837000D01*
X86985000Y-36837000D01*
X87009504Y-36838204D01*
X87009504Y-36838204D01*
G37*
D16*
X86360000Y-37462000D03*
D10*
G36*
X87009504Y-39638204D02*
G01*
X87033773Y-39641804D01*
X87057571Y-39647765D01*
X87080671Y-39656030D01*
X87102849Y-39666520D01*
X87123893Y-39679133D01*
X87143598Y-39693747D01*
X87161777Y-39710223D01*
X87178253Y-39728402D01*
X87192867Y-39748107D01*
X87205480Y-39769151D01*
X87215970Y-39791329D01*
X87224235Y-39814429D01*
X87230196Y-39838227D01*
X87233796Y-39862496D01*
X87235000Y-39887000D01*
X87235000Y-40637000D01*
X87233796Y-40661504D01*
X87230196Y-40685773D01*
X87224235Y-40709571D01*
X87215970Y-40732671D01*
X87205480Y-40754849D01*
X87192867Y-40775893D01*
X87178253Y-40795598D01*
X87161777Y-40813777D01*
X87143598Y-40830253D01*
X87123893Y-40844867D01*
X87102849Y-40857480D01*
X87080671Y-40867970D01*
X87057571Y-40876235D01*
X87033773Y-40882196D01*
X87009504Y-40885796D01*
X86985000Y-40887000D01*
X85735000Y-40887000D01*
X85710496Y-40885796D01*
X85686227Y-40882196D01*
X85662429Y-40876235D01*
X85639329Y-40867970D01*
X85617151Y-40857480D01*
X85596107Y-40844867D01*
X85576402Y-40830253D01*
X85558223Y-40813777D01*
X85541747Y-40795598D01*
X85527133Y-40775893D01*
X85514520Y-40754849D01*
X85504030Y-40732671D01*
X85495765Y-40709571D01*
X85489804Y-40685773D01*
X85486204Y-40661504D01*
X85485000Y-40637000D01*
X85485000Y-39887000D01*
X85486204Y-39862496D01*
X85489804Y-39838227D01*
X85495765Y-39814429D01*
X85504030Y-39791329D01*
X85514520Y-39769151D01*
X85527133Y-39748107D01*
X85541747Y-39728402D01*
X85558223Y-39710223D01*
X85576402Y-39693747D01*
X85596107Y-39679133D01*
X85617151Y-39666520D01*
X85639329Y-39656030D01*
X85662429Y-39647765D01*
X85686227Y-39641804D01*
X85710496Y-39638204D01*
X85735000Y-39637000D01*
X86985000Y-39637000D01*
X87009504Y-39638204D01*
X87009504Y-39638204D01*
G37*
D16*
X86360000Y-40262000D03*
D10*
G36*
X89803504Y-36838204D02*
G01*
X89827773Y-36841804D01*
X89851571Y-36847765D01*
X89874671Y-36856030D01*
X89896849Y-36866520D01*
X89917893Y-36879133D01*
X89937598Y-36893747D01*
X89955777Y-36910223D01*
X89972253Y-36928402D01*
X89986867Y-36948107D01*
X89999480Y-36969151D01*
X90009970Y-36991329D01*
X90018235Y-37014429D01*
X90024196Y-37038227D01*
X90027796Y-37062496D01*
X90029000Y-37087000D01*
X90029000Y-37837000D01*
X90027796Y-37861504D01*
X90024196Y-37885773D01*
X90018235Y-37909571D01*
X90009970Y-37932671D01*
X89999480Y-37954849D01*
X89986867Y-37975893D01*
X89972253Y-37995598D01*
X89955777Y-38013777D01*
X89937598Y-38030253D01*
X89917893Y-38044867D01*
X89896849Y-38057480D01*
X89874671Y-38067970D01*
X89851571Y-38076235D01*
X89827773Y-38082196D01*
X89803504Y-38085796D01*
X89779000Y-38087000D01*
X88529000Y-38087000D01*
X88504496Y-38085796D01*
X88480227Y-38082196D01*
X88456429Y-38076235D01*
X88433329Y-38067970D01*
X88411151Y-38057480D01*
X88390107Y-38044867D01*
X88370402Y-38030253D01*
X88352223Y-38013777D01*
X88335747Y-37995598D01*
X88321133Y-37975893D01*
X88308520Y-37954849D01*
X88298030Y-37932671D01*
X88289765Y-37909571D01*
X88283804Y-37885773D01*
X88280204Y-37861504D01*
X88279000Y-37837000D01*
X88279000Y-37087000D01*
X88280204Y-37062496D01*
X88283804Y-37038227D01*
X88289765Y-37014429D01*
X88298030Y-36991329D01*
X88308520Y-36969151D01*
X88321133Y-36948107D01*
X88335747Y-36928402D01*
X88352223Y-36910223D01*
X88370402Y-36893747D01*
X88390107Y-36879133D01*
X88411151Y-36866520D01*
X88433329Y-36856030D01*
X88456429Y-36847765D01*
X88480227Y-36841804D01*
X88504496Y-36838204D01*
X88529000Y-36837000D01*
X89779000Y-36837000D01*
X89803504Y-36838204D01*
X89803504Y-36838204D01*
G37*
D16*
X89154000Y-37462000D03*
D10*
G36*
X89803504Y-39638204D02*
G01*
X89827773Y-39641804D01*
X89851571Y-39647765D01*
X89874671Y-39656030D01*
X89896849Y-39666520D01*
X89917893Y-39679133D01*
X89937598Y-39693747D01*
X89955777Y-39710223D01*
X89972253Y-39728402D01*
X89986867Y-39748107D01*
X89999480Y-39769151D01*
X90009970Y-39791329D01*
X90018235Y-39814429D01*
X90024196Y-39838227D01*
X90027796Y-39862496D01*
X90029000Y-39887000D01*
X90029000Y-40637000D01*
X90027796Y-40661504D01*
X90024196Y-40685773D01*
X90018235Y-40709571D01*
X90009970Y-40732671D01*
X89999480Y-40754849D01*
X89986867Y-40775893D01*
X89972253Y-40795598D01*
X89955777Y-40813777D01*
X89937598Y-40830253D01*
X89917893Y-40844867D01*
X89896849Y-40857480D01*
X89874671Y-40867970D01*
X89851571Y-40876235D01*
X89827773Y-40882196D01*
X89803504Y-40885796D01*
X89779000Y-40887000D01*
X88529000Y-40887000D01*
X88504496Y-40885796D01*
X88480227Y-40882196D01*
X88456429Y-40876235D01*
X88433329Y-40867970D01*
X88411151Y-40857480D01*
X88390107Y-40844867D01*
X88370402Y-40830253D01*
X88352223Y-40813777D01*
X88335747Y-40795598D01*
X88321133Y-40775893D01*
X88308520Y-40754849D01*
X88298030Y-40732671D01*
X88289765Y-40709571D01*
X88283804Y-40685773D01*
X88280204Y-40661504D01*
X88279000Y-40637000D01*
X88279000Y-39887000D01*
X88280204Y-39862496D01*
X88283804Y-39838227D01*
X88289765Y-39814429D01*
X88298030Y-39791329D01*
X88308520Y-39769151D01*
X88321133Y-39748107D01*
X88335747Y-39728402D01*
X88352223Y-39710223D01*
X88370402Y-39693747D01*
X88390107Y-39679133D01*
X88411151Y-39666520D01*
X88433329Y-39656030D01*
X88456429Y-39647765D01*
X88480227Y-39641804D01*
X88504496Y-39638204D01*
X88529000Y-39637000D01*
X89779000Y-39637000D01*
X89803504Y-39638204D01*
X89803504Y-39638204D01*
G37*
D16*
X89154000Y-40262000D03*
D10*
G36*
X92597504Y-36786204D02*
G01*
X92621773Y-36789804D01*
X92645571Y-36795765D01*
X92668671Y-36804030D01*
X92690849Y-36814520D01*
X92711893Y-36827133D01*
X92731598Y-36841747D01*
X92749777Y-36858223D01*
X92766253Y-36876402D01*
X92780867Y-36896107D01*
X92793480Y-36917151D01*
X92803970Y-36939329D01*
X92812235Y-36962429D01*
X92818196Y-36986227D01*
X92821796Y-37010496D01*
X92823000Y-37035000D01*
X92823000Y-37785000D01*
X92821796Y-37809504D01*
X92818196Y-37833773D01*
X92812235Y-37857571D01*
X92803970Y-37880671D01*
X92793480Y-37902849D01*
X92780867Y-37923893D01*
X92766253Y-37943598D01*
X92749777Y-37961777D01*
X92731598Y-37978253D01*
X92711893Y-37992867D01*
X92690849Y-38005480D01*
X92668671Y-38015970D01*
X92645571Y-38024235D01*
X92621773Y-38030196D01*
X92597504Y-38033796D01*
X92573000Y-38035000D01*
X91323000Y-38035000D01*
X91298496Y-38033796D01*
X91274227Y-38030196D01*
X91250429Y-38024235D01*
X91227329Y-38015970D01*
X91205151Y-38005480D01*
X91184107Y-37992867D01*
X91164402Y-37978253D01*
X91146223Y-37961777D01*
X91129747Y-37943598D01*
X91115133Y-37923893D01*
X91102520Y-37902849D01*
X91092030Y-37880671D01*
X91083765Y-37857571D01*
X91077804Y-37833773D01*
X91074204Y-37809504D01*
X91073000Y-37785000D01*
X91073000Y-37035000D01*
X91074204Y-37010496D01*
X91077804Y-36986227D01*
X91083765Y-36962429D01*
X91092030Y-36939329D01*
X91102520Y-36917151D01*
X91115133Y-36896107D01*
X91129747Y-36876402D01*
X91146223Y-36858223D01*
X91164402Y-36841747D01*
X91184107Y-36827133D01*
X91205151Y-36814520D01*
X91227329Y-36804030D01*
X91250429Y-36795765D01*
X91274227Y-36789804D01*
X91298496Y-36786204D01*
X91323000Y-36785000D01*
X92573000Y-36785000D01*
X92597504Y-36786204D01*
X92597504Y-36786204D01*
G37*
D16*
X91948000Y-37410000D03*
D10*
G36*
X92597504Y-39586204D02*
G01*
X92621773Y-39589804D01*
X92645571Y-39595765D01*
X92668671Y-39604030D01*
X92690849Y-39614520D01*
X92711893Y-39627133D01*
X92731598Y-39641747D01*
X92749777Y-39658223D01*
X92766253Y-39676402D01*
X92780867Y-39696107D01*
X92793480Y-39717151D01*
X92803970Y-39739329D01*
X92812235Y-39762429D01*
X92818196Y-39786227D01*
X92821796Y-39810496D01*
X92823000Y-39835000D01*
X92823000Y-40585000D01*
X92821796Y-40609504D01*
X92818196Y-40633773D01*
X92812235Y-40657571D01*
X92803970Y-40680671D01*
X92793480Y-40702849D01*
X92780867Y-40723893D01*
X92766253Y-40743598D01*
X92749777Y-40761777D01*
X92731598Y-40778253D01*
X92711893Y-40792867D01*
X92690849Y-40805480D01*
X92668671Y-40815970D01*
X92645571Y-40824235D01*
X92621773Y-40830196D01*
X92597504Y-40833796D01*
X92573000Y-40835000D01*
X91323000Y-40835000D01*
X91298496Y-40833796D01*
X91274227Y-40830196D01*
X91250429Y-40824235D01*
X91227329Y-40815970D01*
X91205151Y-40805480D01*
X91184107Y-40792867D01*
X91164402Y-40778253D01*
X91146223Y-40761777D01*
X91129747Y-40743598D01*
X91115133Y-40723893D01*
X91102520Y-40702849D01*
X91092030Y-40680671D01*
X91083765Y-40657571D01*
X91077804Y-40633773D01*
X91074204Y-40609504D01*
X91073000Y-40585000D01*
X91073000Y-39835000D01*
X91074204Y-39810496D01*
X91077804Y-39786227D01*
X91083765Y-39762429D01*
X91092030Y-39739329D01*
X91102520Y-39717151D01*
X91115133Y-39696107D01*
X91129747Y-39676402D01*
X91146223Y-39658223D01*
X91164402Y-39641747D01*
X91184107Y-39627133D01*
X91205151Y-39614520D01*
X91227329Y-39604030D01*
X91250429Y-39595765D01*
X91274227Y-39589804D01*
X91298496Y-39586204D01*
X91323000Y-39585000D01*
X92573000Y-39585000D01*
X92597504Y-39586204D01*
X92597504Y-39586204D01*
G37*
D16*
X91948000Y-40210000D03*
D10*
G36*
X74799504Y-45926204D02*
G01*
X74823773Y-45929804D01*
X74847571Y-45935765D01*
X74870671Y-45944030D01*
X74892849Y-45954520D01*
X74913893Y-45967133D01*
X74933598Y-45981747D01*
X74951777Y-45998223D01*
X74968253Y-46016402D01*
X74982867Y-46036107D01*
X74995480Y-46057151D01*
X75005970Y-46079329D01*
X75014235Y-46102429D01*
X75020196Y-46126227D01*
X75023796Y-46150496D01*
X75025000Y-46175000D01*
X75025000Y-47425000D01*
X75023796Y-47449504D01*
X75020196Y-47473773D01*
X75014235Y-47497571D01*
X75005970Y-47520671D01*
X74995480Y-47542849D01*
X74982867Y-47563893D01*
X74968253Y-47583598D01*
X74951777Y-47601777D01*
X74933598Y-47618253D01*
X74913893Y-47632867D01*
X74892849Y-47645480D01*
X74870671Y-47655970D01*
X74847571Y-47664235D01*
X74823773Y-47670196D01*
X74799504Y-47673796D01*
X74775000Y-47675000D01*
X74025000Y-47675000D01*
X74000496Y-47673796D01*
X73976227Y-47670196D01*
X73952429Y-47664235D01*
X73929329Y-47655970D01*
X73907151Y-47645480D01*
X73886107Y-47632867D01*
X73866402Y-47618253D01*
X73848223Y-47601777D01*
X73831747Y-47583598D01*
X73817133Y-47563893D01*
X73804520Y-47542849D01*
X73794030Y-47520671D01*
X73785765Y-47497571D01*
X73779804Y-47473773D01*
X73776204Y-47449504D01*
X73775000Y-47425000D01*
X73775000Y-46175000D01*
X73776204Y-46150496D01*
X73779804Y-46126227D01*
X73785765Y-46102429D01*
X73794030Y-46079329D01*
X73804520Y-46057151D01*
X73817133Y-46036107D01*
X73831747Y-46016402D01*
X73848223Y-45998223D01*
X73866402Y-45981747D01*
X73886107Y-45967133D01*
X73907151Y-45954520D01*
X73929329Y-45944030D01*
X73952429Y-45935765D01*
X73976227Y-45929804D01*
X74000496Y-45926204D01*
X74025000Y-45925000D01*
X74775000Y-45925000D01*
X74799504Y-45926204D01*
X74799504Y-45926204D01*
G37*
D16*
X74400000Y-46800000D03*
D10*
G36*
X71999504Y-45926204D02*
G01*
X72023773Y-45929804D01*
X72047571Y-45935765D01*
X72070671Y-45944030D01*
X72092849Y-45954520D01*
X72113893Y-45967133D01*
X72133598Y-45981747D01*
X72151777Y-45998223D01*
X72168253Y-46016402D01*
X72182867Y-46036107D01*
X72195480Y-46057151D01*
X72205970Y-46079329D01*
X72214235Y-46102429D01*
X72220196Y-46126227D01*
X72223796Y-46150496D01*
X72225000Y-46175000D01*
X72225000Y-47425000D01*
X72223796Y-47449504D01*
X72220196Y-47473773D01*
X72214235Y-47497571D01*
X72205970Y-47520671D01*
X72195480Y-47542849D01*
X72182867Y-47563893D01*
X72168253Y-47583598D01*
X72151777Y-47601777D01*
X72133598Y-47618253D01*
X72113893Y-47632867D01*
X72092849Y-47645480D01*
X72070671Y-47655970D01*
X72047571Y-47664235D01*
X72023773Y-47670196D01*
X71999504Y-47673796D01*
X71975000Y-47675000D01*
X71225000Y-47675000D01*
X71200496Y-47673796D01*
X71176227Y-47670196D01*
X71152429Y-47664235D01*
X71129329Y-47655970D01*
X71107151Y-47645480D01*
X71086107Y-47632867D01*
X71066402Y-47618253D01*
X71048223Y-47601777D01*
X71031747Y-47583598D01*
X71017133Y-47563893D01*
X71004520Y-47542849D01*
X70994030Y-47520671D01*
X70985765Y-47497571D01*
X70979804Y-47473773D01*
X70976204Y-47449504D01*
X70975000Y-47425000D01*
X70975000Y-46175000D01*
X70976204Y-46150496D01*
X70979804Y-46126227D01*
X70985765Y-46102429D01*
X70994030Y-46079329D01*
X71004520Y-46057151D01*
X71017133Y-46036107D01*
X71031747Y-46016402D01*
X71048223Y-45998223D01*
X71066402Y-45981747D01*
X71086107Y-45967133D01*
X71107151Y-45954520D01*
X71129329Y-45944030D01*
X71152429Y-45935765D01*
X71176227Y-45929804D01*
X71200496Y-45926204D01*
X71225000Y-45925000D01*
X71975000Y-45925000D01*
X71999504Y-45926204D01*
X71999504Y-45926204D01*
G37*
D16*
X71600000Y-46800000D03*
D10*
G36*
X68799504Y-45926204D02*
G01*
X68823773Y-45929804D01*
X68847571Y-45935765D01*
X68870671Y-45944030D01*
X68892849Y-45954520D01*
X68913893Y-45967133D01*
X68933598Y-45981747D01*
X68951777Y-45998223D01*
X68968253Y-46016402D01*
X68982867Y-46036107D01*
X68995480Y-46057151D01*
X69005970Y-46079329D01*
X69014235Y-46102429D01*
X69020196Y-46126227D01*
X69023796Y-46150496D01*
X69025000Y-46175000D01*
X69025000Y-47425000D01*
X69023796Y-47449504D01*
X69020196Y-47473773D01*
X69014235Y-47497571D01*
X69005970Y-47520671D01*
X68995480Y-47542849D01*
X68982867Y-47563893D01*
X68968253Y-47583598D01*
X68951777Y-47601777D01*
X68933598Y-47618253D01*
X68913893Y-47632867D01*
X68892849Y-47645480D01*
X68870671Y-47655970D01*
X68847571Y-47664235D01*
X68823773Y-47670196D01*
X68799504Y-47673796D01*
X68775000Y-47675000D01*
X68025000Y-47675000D01*
X68000496Y-47673796D01*
X67976227Y-47670196D01*
X67952429Y-47664235D01*
X67929329Y-47655970D01*
X67907151Y-47645480D01*
X67886107Y-47632867D01*
X67866402Y-47618253D01*
X67848223Y-47601777D01*
X67831747Y-47583598D01*
X67817133Y-47563893D01*
X67804520Y-47542849D01*
X67794030Y-47520671D01*
X67785765Y-47497571D01*
X67779804Y-47473773D01*
X67776204Y-47449504D01*
X67775000Y-47425000D01*
X67775000Y-46175000D01*
X67776204Y-46150496D01*
X67779804Y-46126227D01*
X67785765Y-46102429D01*
X67794030Y-46079329D01*
X67804520Y-46057151D01*
X67817133Y-46036107D01*
X67831747Y-46016402D01*
X67848223Y-45998223D01*
X67866402Y-45981747D01*
X67886107Y-45967133D01*
X67907151Y-45954520D01*
X67929329Y-45944030D01*
X67952429Y-45935765D01*
X67976227Y-45929804D01*
X68000496Y-45926204D01*
X68025000Y-45925000D01*
X68775000Y-45925000D01*
X68799504Y-45926204D01*
X68799504Y-45926204D01*
G37*
D16*
X68400000Y-46800000D03*
D10*
G36*
X65999504Y-45926204D02*
G01*
X66023773Y-45929804D01*
X66047571Y-45935765D01*
X66070671Y-45944030D01*
X66092849Y-45954520D01*
X66113893Y-45967133D01*
X66133598Y-45981747D01*
X66151777Y-45998223D01*
X66168253Y-46016402D01*
X66182867Y-46036107D01*
X66195480Y-46057151D01*
X66205970Y-46079329D01*
X66214235Y-46102429D01*
X66220196Y-46126227D01*
X66223796Y-46150496D01*
X66225000Y-46175000D01*
X66225000Y-47425000D01*
X66223796Y-47449504D01*
X66220196Y-47473773D01*
X66214235Y-47497571D01*
X66205970Y-47520671D01*
X66195480Y-47542849D01*
X66182867Y-47563893D01*
X66168253Y-47583598D01*
X66151777Y-47601777D01*
X66133598Y-47618253D01*
X66113893Y-47632867D01*
X66092849Y-47645480D01*
X66070671Y-47655970D01*
X66047571Y-47664235D01*
X66023773Y-47670196D01*
X65999504Y-47673796D01*
X65975000Y-47675000D01*
X65225000Y-47675000D01*
X65200496Y-47673796D01*
X65176227Y-47670196D01*
X65152429Y-47664235D01*
X65129329Y-47655970D01*
X65107151Y-47645480D01*
X65086107Y-47632867D01*
X65066402Y-47618253D01*
X65048223Y-47601777D01*
X65031747Y-47583598D01*
X65017133Y-47563893D01*
X65004520Y-47542849D01*
X64994030Y-47520671D01*
X64985765Y-47497571D01*
X64979804Y-47473773D01*
X64976204Y-47449504D01*
X64975000Y-47425000D01*
X64975000Y-46175000D01*
X64976204Y-46150496D01*
X64979804Y-46126227D01*
X64985765Y-46102429D01*
X64994030Y-46079329D01*
X65004520Y-46057151D01*
X65017133Y-46036107D01*
X65031747Y-46016402D01*
X65048223Y-45998223D01*
X65066402Y-45981747D01*
X65086107Y-45967133D01*
X65107151Y-45954520D01*
X65129329Y-45944030D01*
X65152429Y-45935765D01*
X65176227Y-45929804D01*
X65200496Y-45926204D01*
X65225000Y-45925000D01*
X65975000Y-45925000D01*
X65999504Y-45926204D01*
X65999504Y-45926204D01*
G37*
D16*
X65600000Y-46800000D03*
D10*
G36*
X30053504Y-45380204D02*
G01*
X30077773Y-45383804D01*
X30101571Y-45389765D01*
X30124671Y-45398030D01*
X30146849Y-45408520D01*
X30167893Y-45421133D01*
X30187598Y-45435747D01*
X30205777Y-45452223D01*
X30222253Y-45470402D01*
X30236867Y-45490107D01*
X30249480Y-45511151D01*
X30259970Y-45533329D01*
X30268235Y-45556429D01*
X30274196Y-45580227D01*
X30277796Y-45604496D01*
X30279000Y-45629000D01*
X30279000Y-46879000D01*
X30277796Y-46903504D01*
X30274196Y-46927773D01*
X30268235Y-46951571D01*
X30259970Y-46974671D01*
X30249480Y-46996849D01*
X30236867Y-47017893D01*
X30222253Y-47037598D01*
X30205777Y-47055777D01*
X30187598Y-47072253D01*
X30167893Y-47086867D01*
X30146849Y-47099480D01*
X30124671Y-47109970D01*
X30101571Y-47118235D01*
X30077773Y-47124196D01*
X30053504Y-47127796D01*
X30029000Y-47129000D01*
X29279000Y-47129000D01*
X29254496Y-47127796D01*
X29230227Y-47124196D01*
X29206429Y-47118235D01*
X29183329Y-47109970D01*
X29161151Y-47099480D01*
X29140107Y-47086867D01*
X29120402Y-47072253D01*
X29102223Y-47055777D01*
X29085747Y-47037598D01*
X29071133Y-47017893D01*
X29058520Y-46996849D01*
X29048030Y-46974671D01*
X29039765Y-46951571D01*
X29033804Y-46927773D01*
X29030204Y-46903504D01*
X29029000Y-46879000D01*
X29029000Y-45629000D01*
X29030204Y-45604496D01*
X29033804Y-45580227D01*
X29039765Y-45556429D01*
X29048030Y-45533329D01*
X29058520Y-45511151D01*
X29071133Y-45490107D01*
X29085747Y-45470402D01*
X29102223Y-45452223D01*
X29120402Y-45435747D01*
X29140107Y-45421133D01*
X29161151Y-45408520D01*
X29183329Y-45398030D01*
X29206429Y-45389765D01*
X29230227Y-45383804D01*
X29254496Y-45380204D01*
X29279000Y-45379000D01*
X30029000Y-45379000D01*
X30053504Y-45380204D01*
X30053504Y-45380204D01*
G37*
D16*
X29654000Y-46254000D03*
D10*
G36*
X27253504Y-45380204D02*
G01*
X27277773Y-45383804D01*
X27301571Y-45389765D01*
X27324671Y-45398030D01*
X27346849Y-45408520D01*
X27367893Y-45421133D01*
X27387598Y-45435747D01*
X27405777Y-45452223D01*
X27422253Y-45470402D01*
X27436867Y-45490107D01*
X27449480Y-45511151D01*
X27459970Y-45533329D01*
X27468235Y-45556429D01*
X27474196Y-45580227D01*
X27477796Y-45604496D01*
X27479000Y-45629000D01*
X27479000Y-46879000D01*
X27477796Y-46903504D01*
X27474196Y-46927773D01*
X27468235Y-46951571D01*
X27459970Y-46974671D01*
X27449480Y-46996849D01*
X27436867Y-47017893D01*
X27422253Y-47037598D01*
X27405777Y-47055777D01*
X27387598Y-47072253D01*
X27367893Y-47086867D01*
X27346849Y-47099480D01*
X27324671Y-47109970D01*
X27301571Y-47118235D01*
X27277773Y-47124196D01*
X27253504Y-47127796D01*
X27229000Y-47129000D01*
X26479000Y-47129000D01*
X26454496Y-47127796D01*
X26430227Y-47124196D01*
X26406429Y-47118235D01*
X26383329Y-47109970D01*
X26361151Y-47099480D01*
X26340107Y-47086867D01*
X26320402Y-47072253D01*
X26302223Y-47055777D01*
X26285747Y-47037598D01*
X26271133Y-47017893D01*
X26258520Y-46996849D01*
X26248030Y-46974671D01*
X26239765Y-46951571D01*
X26233804Y-46927773D01*
X26230204Y-46903504D01*
X26229000Y-46879000D01*
X26229000Y-45629000D01*
X26230204Y-45604496D01*
X26233804Y-45580227D01*
X26239765Y-45556429D01*
X26248030Y-45533329D01*
X26258520Y-45511151D01*
X26271133Y-45490107D01*
X26285747Y-45470402D01*
X26302223Y-45452223D01*
X26320402Y-45435747D01*
X26340107Y-45421133D01*
X26361151Y-45408520D01*
X26383329Y-45398030D01*
X26406429Y-45389765D01*
X26430227Y-45383804D01*
X26454496Y-45380204D01*
X26479000Y-45379000D01*
X27229000Y-45379000D01*
X27253504Y-45380204D01*
X27253504Y-45380204D01*
G37*
D16*
X26854000Y-46254000D03*
D10*
G36*
X23903504Y-46030204D02*
G01*
X23927773Y-46033804D01*
X23951571Y-46039765D01*
X23974671Y-46048030D01*
X23996849Y-46058520D01*
X24017893Y-46071133D01*
X24037598Y-46085747D01*
X24055777Y-46102223D01*
X24072253Y-46120402D01*
X24086867Y-46140107D01*
X24099480Y-46161151D01*
X24109970Y-46183329D01*
X24118235Y-46206429D01*
X24124196Y-46230227D01*
X24127796Y-46254496D01*
X24129000Y-46279000D01*
X24129000Y-47029000D01*
X24127796Y-47053504D01*
X24124196Y-47077773D01*
X24118235Y-47101571D01*
X24109970Y-47124671D01*
X24099480Y-47146849D01*
X24086867Y-47167893D01*
X24072253Y-47187598D01*
X24055777Y-47205777D01*
X24037598Y-47222253D01*
X24017893Y-47236867D01*
X23996849Y-47249480D01*
X23974671Y-47259970D01*
X23951571Y-47268235D01*
X23927773Y-47274196D01*
X23903504Y-47277796D01*
X23879000Y-47279000D01*
X22629000Y-47279000D01*
X22604496Y-47277796D01*
X22580227Y-47274196D01*
X22556429Y-47268235D01*
X22533329Y-47259970D01*
X22511151Y-47249480D01*
X22490107Y-47236867D01*
X22470402Y-47222253D01*
X22452223Y-47205777D01*
X22435747Y-47187598D01*
X22421133Y-47167893D01*
X22408520Y-47146849D01*
X22398030Y-47124671D01*
X22389765Y-47101571D01*
X22383804Y-47077773D01*
X22380204Y-47053504D01*
X22379000Y-47029000D01*
X22379000Y-46279000D01*
X22380204Y-46254496D01*
X22383804Y-46230227D01*
X22389765Y-46206429D01*
X22398030Y-46183329D01*
X22408520Y-46161151D01*
X22421133Y-46140107D01*
X22435747Y-46120402D01*
X22452223Y-46102223D01*
X22470402Y-46085747D01*
X22490107Y-46071133D01*
X22511151Y-46058520D01*
X22533329Y-46048030D01*
X22556429Y-46039765D01*
X22580227Y-46033804D01*
X22604496Y-46030204D01*
X22629000Y-46029000D01*
X23879000Y-46029000D01*
X23903504Y-46030204D01*
X23903504Y-46030204D01*
G37*
D16*
X23254000Y-46654000D03*
D10*
G36*
X23903504Y-43230204D02*
G01*
X23927773Y-43233804D01*
X23951571Y-43239765D01*
X23974671Y-43248030D01*
X23996849Y-43258520D01*
X24017893Y-43271133D01*
X24037598Y-43285747D01*
X24055777Y-43302223D01*
X24072253Y-43320402D01*
X24086867Y-43340107D01*
X24099480Y-43361151D01*
X24109970Y-43383329D01*
X24118235Y-43406429D01*
X24124196Y-43430227D01*
X24127796Y-43454496D01*
X24129000Y-43479000D01*
X24129000Y-44229000D01*
X24127796Y-44253504D01*
X24124196Y-44277773D01*
X24118235Y-44301571D01*
X24109970Y-44324671D01*
X24099480Y-44346849D01*
X24086867Y-44367893D01*
X24072253Y-44387598D01*
X24055777Y-44405777D01*
X24037598Y-44422253D01*
X24017893Y-44436867D01*
X23996849Y-44449480D01*
X23974671Y-44459970D01*
X23951571Y-44468235D01*
X23927773Y-44474196D01*
X23903504Y-44477796D01*
X23879000Y-44479000D01*
X22629000Y-44479000D01*
X22604496Y-44477796D01*
X22580227Y-44474196D01*
X22556429Y-44468235D01*
X22533329Y-44459970D01*
X22511151Y-44449480D01*
X22490107Y-44436867D01*
X22470402Y-44422253D01*
X22452223Y-44405777D01*
X22435747Y-44387598D01*
X22421133Y-44367893D01*
X22408520Y-44346849D01*
X22398030Y-44324671D01*
X22389765Y-44301571D01*
X22383804Y-44277773D01*
X22380204Y-44253504D01*
X22379000Y-44229000D01*
X22379000Y-43479000D01*
X22380204Y-43454496D01*
X22383804Y-43430227D01*
X22389765Y-43406429D01*
X22398030Y-43383329D01*
X22408520Y-43361151D01*
X22421133Y-43340107D01*
X22435747Y-43320402D01*
X22452223Y-43302223D01*
X22470402Y-43285747D01*
X22490107Y-43271133D01*
X22511151Y-43258520D01*
X22533329Y-43248030D01*
X22556429Y-43239765D01*
X22580227Y-43233804D01*
X22604496Y-43230204D01*
X22629000Y-43229000D01*
X23879000Y-43229000D01*
X23903504Y-43230204D01*
X23903504Y-43230204D01*
G37*
D16*
X23254000Y-43854000D03*
D17*
X54000000Y-33160000D03*
X54000000Y-30620000D03*
X54000000Y-28080000D03*
X54000000Y-25540000D03*
D18*
X54000000Y-23000000D03*
D17*
X24500000Y-30570000D03*
X24500000Y-28030000D03*
X24500000Y-25490000D03*
D18*
X24500000Y-22950000D03*
D17*
X110940000Y-23200000D03*
D18*
X108400000Y-23200000D03*
D17*
X91840000Y-23200000D03*
X94380000Y-23200000D03*
X96920000Y-23200000D03*
X99460000Y-23200000D03*
D18*
X102000000Y-23200000D03*
D19*
X54400000Y-37500000D03*
D20*
X54400000Y-40000000D03*
D19*
X44900000Y-37500000D03*
D20*
X44900000Y-40000000D03*
D10*
G36*
X26903504Y-40030204D02*
G01*
X26927773Y-40033804D01*
X26951571Y-40039765D01*
X26974671Y-40048030D01*
X26996849Y-40058520D01*
X27017893Y-40071133D01*
X27037598Y-40085747D01*
X27055777Y-40102223D01*
X27072253Y-40120402D01*
X27086867Y-40140107D01*
X27099480Y-40161151D01*
X27109970Y-40183329D01*
X27118235Y-40206429D01*
X27124196Y-40230227D01*
X27127796Y-40254496D01*
X27129000Y-40279000D01*
X27129000Y-41204000D01*
X27127796Y-41228504D01*
X27124196Y-41252773D01*
X27118235Y-41276571D01*
X27109970Y-41299671D01*
X27099480Y-41321849D01*
X27086867Y-41342893D01*
X27072253Y-41362598D01*
X27055777Y-41380777D01*
X27037598Y-41397253D01*
X27017893Y-41411867D01*
X26996849Y-41424480D01*
X26974671Y-41434970D01*
X26951571Y-41443235D01*
X26927773Y-41449196D01*
X26903504Y-41452796D01*
X26879000Y-41454000D01*
X25629000Y-41454000D01*
X25604496Y-41452796D01*
X25580227Y-41449196D01*
X25556429Y-41443235D01*
X25533329Y-41434970D01*
X25511151Y-41424480D01*
X25490107Y-41411867D01*
X25470402Y-41397253D01*
X25452223Y-41380777D01*
X25435747Y-41362598D01*
X25421133Y-41342893D01*
X25408520Y-41321849D01*
X25398030Y-41299671D01*
X25389765Y-41276571D01*
X25383804Y-41252773D01*
X25380204Y-41228504D01*
X25379000Y-41204000D01*
X25379000Y-40279000D01*
X25380204Y-40254496D01*
X25383804Y-40230227D01*
X25389765Y-40206429D01*
X25398030Y-40183329D01*
X25408520Y-40161151D01*
X25421133Y-40140107D01*
X25435747Y-40120402D01*
X25452223Y-40102223D01*
X25470402Y-40085747D01*
X25490107Y-40071133D01*
X25511151Y-40058520D01*
X25533329Y-40048030D01*
X25556429Y-40039765D01*
X25580227Y-40033804D01*
X25604496Y-40030204D01*
X25629000Y-40029000D01*
X26879000Y-40029000D01*
X26903504Y-40030204D01*
X26903504Y-40030204D01*
G37*
D13*
X26254000Y-40741500D03*
D10*
G36*
X26903504Y-37055204D02*
G01*
X26927773Y-37058804D01*
X26951571Y-37064765D01*
X26974671Y-37073030D01*
X26996849Y-37083520D01*
X27017893Y-37096133D01*
X27037598Y-37110747D01*
X27055777Y-37127223D01*
X27072253Y-37145402D01*
X27086867Y-37165107D01*
X27099480Y-37186151D01*
X27109970Y-37208329D01*
X27118235Y-37231429D01*
X27124196Y-37255227D01*
X27127796Y-37279496D01*
X27129000Y-37304000D01*
X27129000Y-38229000D01*
X27127796Y-38253504D01*
X27124196Y-38277773D01*
X27118235Y-38301571D01*
X27109970Y-38324671D01*
X27099480Y-38346849D01*
X27086867Y-38367893D01*
X27072253Y-38387598D01*
X27055777Y-38405777D01*
X27037598Y-38422253D01*
X27017893Y-38436867D01*
X26996849Y-38449480D01*
X26974671Y-38459970D01*
X26951571Y-38468235D01*
X26927773Y-38474196D01*
X26903504Y-38477796D01*
X26879000Y-38479000D01*
X25629000Y-38479000D01*
X25604496Y-38477796D01*
X25580227Y-38474196D01*
X25556429Y-38468235D01*
X25533329Y-38459970D01*
X25511151Y-38449480D01*
X25490107Y-38436867D01*
X25470402Y-38422253D01*
X25452223Y-38405777D01*
X25435747Y-38387598D01*
X25421133Y-38367893D01*
X25408520Y-38346849D01*
X25398030Y-38324671D01*
X25389765Y-38301571D01*
X25383804Y-38277773D01*
X25380204Y-38253504D01*
X25379000Y-38229000D01*
X25379000Y-37304000D01*
X25380204Y-37279496D01*
X25383804Y-37255227D01*
X25389765Y-37231429D01*
X25398030Y-37208329D01*
X25408520Y-37186151D01*
X25421133Y-37165107D01*
X25435747Y-37145402D01*
X25452223Y-37127223D01*
X25470402Y-37110747D01*
X25490107Y-37096133D01*
X25511151Y-37083520D01*
X25533329Y-37073030D01*
X25556429Y-37064765D01*
X25580227Y-37058804D01*
X25604496Y-37055204D01*
X25629000Y-37054000D01*
X26879000Y-37054000D01*
X26903504Y-37055204D01*
X26903504Y-37055204D01*
G37*
D13*
X26254000Y-37766500D03*
D21*
X90424000Y-26924000D03*
X61676000Y-26924000D03*
X83300000Y-48050000D03*
X87376000Y-22860000D03*
X42418000Y-36830000D03*
X42418000Y-34290000D03*
X47244000Y-36830000D03*
X47244000Y-34290000D03*
X56642000Y-36830000D03*
X58928000Y-38608000D03*
X52324000Y-36830000D03*
X50292000Y-38862000D03*
X60198000Y-33528000D03*
X62738000Y-34544000D03*
X78232000Y-43434000D03*
X78232000Y-39116000D03*
X60960000Y-44196000D03*
X60960000Y-41656000D03*
X66294000Y-38862000D03*
X64770000Y-41402000D03*
X90300000Y-29300000D03*
X85100000Y-29300000D03*
X77300000Y-29300000D03*
X73400000Y-29300000D03*
X65024000Y-29300000D03*
X60100000Y-29300000D03*
X87500000Y-29300000D03*
X73406000Y-32004000D03*
X28956000Y-36830000D03*
X27178000Y-34798000D03*
X33274000Y-36830000D03*
X33274000Y-34290000D03*
X33274000Y-40132000D03*
X93808000Y-42590000D03*
X93726000Y-35306000D03*
X108204000Y-44958000D03*
X104902000Y-44704000D03*
X33274000Y-31750000D03*
X33274000Y-26670000D03*
X42418000Y-31750000D03*
X42418000Y-26670000D03*
X47244000Y-31750000D03*
X47498000Y-26670000D03*
X86360000Y-35814000D03*
X103600000Y-39600000D03*
X86360000Y-31750000D03*
X109474000Y-39624000D03*
X111506000Y-39624000D03*
X89154000Y-35814000D03*
X89154000Y-32927000D03*
X105600000Y-39650000D03*
X107500000Y-39650000D03*
X44950000Y-42800000D03*
X106426000Y-44958000D03*
X99600000Y-39600000D03*
X26750000Y-43594000D03*
X28782000Y-39530000D03*
D22*
X109590000Y-28475002D02*
X97171002Y-40894000D01*
X109590000Y-27390000D02*
X109590000Y-28475002D01*
X76260010Y-42139990D02*
X71600000Y-46800000D01*
X91831200Y-42139990D02*
X76260010Y-42139990D01*
X93077190Y-40894000D02*
X91831200Y-42139990D01*
X97171002Y-40894000D02*
X93077190Y-40894000D01*
X71600000Y-46800000D02*
X68400000Y-46800000D01*
X26836500Y-38349000D02*
X26254000Y-37766500D01*
X30679000Y-38349000D02*
X26836500Y-38349000D01*
X23254000Y-43129000D02*
X23194000Y-43069000D01*
X23254000Y-43854000D02*
X23254000Y-43129000D01*
X23194000Y-40826500D02*
X26254000Y-37766500D01*
X23194000Y-43069000D02*
X23194000Y-40826500D01*
X93647500Y-27390000D02*
X93218000Y-26960500D01*
X97590000Y-27390000D02*
X93647500Y-27390000D01*
X90460500Y-26960500D02*
X90424000Y-26924000D01*
X93218000Y-26960500D02*
X90460500Y-26960500D01*
X55450000Y-40000000D02*
X54400000Y-40000000D01*
X61676000Y-26924000D02*
X61676000Y-33774000D01*
X27025347Y-36995153D02*
X27025347Y-36974653D01*
X26254000Y-37766500D02*
X27025347Y-36995153D01*
X27025347Y-36974653D02*
X28400000Y-35600000D01*
X53350000Y-40000000D02*
X54400000Y-40000000D01*
X48950000Y-35600000D02*
X53350000Y-40000000D01*
X28400000Y-35600000D02*
X48950000Y-35600000D01*
X60171000Y-35279000D02*
X55450000Y-40000000D01*
X61676000Y-33774000D02*
X60171000Y-35279000D01*
X86412000Y-40210000D02*
X86360000Y-40262000D01*
X91948000Y-40210000D02*
X86412000Y-40210000D01*
X60523000Y-35279000D02*
X60171000Y-35279000D01*
X86360000Y-40262000D02*
X65506000Y-40262000D01*
X65506000Y-40262000D02*
X60523000Y-35279000D01*
X35829000Y-39619000D02*
X35829000Y-40889000D01*
X88760000Y-42590000D02*
X83300000Y-48050000D01*
X97590000Y-42590000D02*
X93808000Y-42590000D01*
X93808000Y-42590000D02*
X88760000Y-42590000D01*
X103500000Y-42680000D02*
X103500000Y-43430000D01*
X103590000Y-39610000D02*
X103600000Y-39600000D01*
X103590000Y-42590000D02*
X103590000Y-39610000D01*
X86360000Y-36737000D02*
X86360000Y-37462000D01*
X91275999Y-22024999D02*
X86360000Y-26940998D01*
X93204999Y-22024999D02*
X91275999Y-22024999D01*
X94380000Y-23200000D02*
X93204999Y-22024999D01*
X86360000Y-26940998D02*
X86360000Y-31750000D01*
X86360000Y-35814000D02*
X86360000Y-37462000D01*
X63702000Y-21518000D02*
X69902000Y-21518000D01*
X85794315Y-31750000D02*
X86360000Y-31750000D01*
X77596998Y-31750000D02*
X85794315Y-31750000D01*
X71874999Y-26028001D02*
X77596998Y-31750000D01*
X71874999Y-23140999D02*
X71874999Y-26028001D01*
X70252000Y-21518000D02*
X71874999Y-23140999D01*
X69902000Y-21518000D02*
X70252000Y-21518000D01*
X109500000Y-42680000D02*
X109500000Y-43470000D01*
X109590000Y-39740000D02*
X109474000Y-39624000D01*
X109590000Y-42590000D02*
X109590000Y-39740000D01*
X111500000Y-42680000D02*
X111500000Y-43430000D01*
X111590000Y-39708000D02*
X111506000Y-39624000D01*
X111590000Y-42590000D02*
X111590000Y-39708000D01*
X111590000Y-23850000D02*
X110940000Y-23200000D01*
X111590000Y-27390000D02*
X111590000Y-23850000D01*
X103100000Y-23200000D02*
X102000000Y-23200000D01*
X105218000Y-21082000D02*
X103100000Y-23200000D01*
X108822000Y-21082000D02*
X105218000Y-21082000D01*
X110940000Y-23200000D02*
X108822000Y-21082000D01*
X89154000Y-36737000D02*
X89154000Y-37462000D01*
X89154000Y-27120998D02*
X89154000Y-32927000D01*
X100485001Y-25814999D02*
X90459999Y-25814999D01*
X90459999Y-25814999D02*
X89154000Y-27120998D01*
X102000000Y-24300000D02*
X100485001Y-25814999D01*
X102000000Y-23200000D02*
X102000000Y-24300000D01*
X101474989Y-21574989D02*
X102000000Y-22100000D01*
X89154000Y-35814000D02*
X89154000Y-37462000D01*
X73100000Y-21518000D02*
X79300000Y-21518000D01*
X102000000Y-22100000D02*
X102000000Y-23200000D01*
X101418000Y-21518000D02*
X102000000Y-22100000D01*
X79300000Y-21518000D02*
X101418000Y-21518000D01*
X68752000Y-25218000D02*
X63702000Y-25218000D01*
X69902000Y-25218000D02*
X68752000Y-25218000D01*
X63624000Y-31029000D02*
X63702000Y-30951000D01*
X63702000Y-30044000D02*
X63702000Y-29770000D01*
X63702000Y-30951000D02*
X63702000Y-29770000D01*
X63624000Y-32004000D02*
X63624000Y-31029000D01*
X63702000Y-29770000D02*
X63702000Y-25218000D01*
X79358000Y-25276000D02*
X79300000Y-25218000D01*
X79300000Y-25218000D02*
X73100000Y-25218000D01*
X82492000Y-25218000D02*
X83058000Y-25784000D01*
X79300000Y-25218000D02*
X82492000Y-25218000D01*
X105500000Y-39750000D02*
X105600000Y-39650000D01*
X105500000Y-42680000D02*
X105500000Y-39750000D01*
X107500000Y-42680000D02*
X107500000Y-39650000D01*
X36804000Y-38349000D02*
X37029010Y-38574010D01*
X35829000Y-38349000D02*
X36199710Y-38719710D01*
X37029010Y-41235758D02*
X36476478Y-41788290D01*
X36230000Y-38750000D02*
X35829000Y-38349000D01*
X36476478Y-41788290D02*
X36199710Y-41788290D01*
X36199710Y-41788290D02*
X35829000Y-42159000D01*
X35829000Y-38349000D02*
X36804000Y-38349000D01*
X61600000Y-42800000D02*
X65600000Y-46800000D01*
X44950000Y-42800000D02*
X61600000Y-42800000D01*
X44950000Y-40050000D02*
X44900000Y-40000000D01*
X44950000Y-42800000D02*
X44950000Y-40050000D01*
X37458020Y-40000000D02*
X37029010Y-40429010D01*
X44900000Y-40000000D02*
X37458020Y-40000000D01*
X37029010Y-38574010D02*
X37029010Y-40429010D01*
X37029010Y-40429010D02*
X37029010Y-41235758D01*
X108400000Y-23830000D02*
X108400000Y-23200000D01*
X105590000Y-26640000D02*
X108400000Y-23830000D01*
X105590000Y-27390000D02*
X105590000Y-26640000D01*
X107500000Y-28230000D02*
X107500000Y-27480000D01*
X107590000Y-27725002D02*
X107590000Y-27390000D01*
X92923000Y-37410000D02*
X91948000Y-37410000D01*
X93517999Y-36815001D02*
X92923000Y-37410000D01*
X98914999Y-36815001D02*
X93517999Y-36815001D01*
X107590000Y-28140000D02*
X98914999Y-36815001D01*
X107590000Y-27390000D02*
X107590000Y-28140000D01*
X99500000Y-43430000D02*
X99500000Y-42680000D01*
X99590000Y-39610000D02*
X99600000Y-39600000D01*
X99590000Y-42590000D02*
X99590000Y-39610000D01*
X106426000Y-46126000D02*
X107300000Y-47000000D01*
X106426000Y-44958000D02*
X106426000Y-46126000D01*
X30531500Y-40741500D02*
X30679000Y-40889000D01*
X27671500Y-42159000D02*
X30779000Y-42159000D01*
X26254000Y-40741500D02*
X27671500Y-42159000D01*
X28871000Y-39619000D02*
X28782000Y-39530000D01*
X30679000Y-39619000D02*
X28871000Y-39619000D01*
X26750000Y-46150000D02*
X26854000Y-46254000D01*
X26750000Y-43594000D02*
X26750000Y-46150000D01*
X23654000Y-46254000D02*
X23254000Y-46654000D01*
X26854000Y-46254000D02*
X23654000Y-46254000D01*
D23*
G36*
X62212498Y-20723820D02*
G01*
X62176188Y-20843518D01*
X62163928Y-20968000D01*
X62163928Y-22068000D01*
X62176188Y-22192482D01*
X62212498Y-22312180D01*
X62271463Y-22422494D01*
X62350815Y-22519185D01*
X62447506Y-22598537D01*
X62557820Y-22657502D01*
X62677518Y-22693812D01*
X62802000Y-22706072D01*
X64602000Y-22706072D01*
X64726482Y-22693812D01*
X64846180Y-22657502D01*
X64956494Y-22598537D01*
X65053185Y-22519185D01*
X65132537Y-22422494D01*
X65191502Y-22312180D01*
X65201870Y-22278000D01*
X68402130Y-22278000D01*
X68412498Y-22312180D01*
X68471463Y-22422494D01*
X68550815Y-22519185D01*
X68647506Y-22598537D01*
X68757820Y-22657502D01*
X68877518Y-22693812D01*
X69002000Y-22706072D01*
X70365271Y-22706072D01*
X71114999Y-23455801D01*
X71114999Y-24115283D01*
X71046180Y-24078498D01*
X70926482Y-24042188D01*
X70802000Y-24029928D01*
X69002000Y-24029928D01*
X68877518Y-24042188D01*
X68757820Y-24078498D01*
X68647506Y-24137463D01*
X68550815Y-24216815D01*
X68471463Y-24313506D01*
X68412498Y-24423820D01*
X68402130Y-24458000D01*
X65201870Y-24458000D01*
X65191502Y-24423820D01*
X65132537Y-24313506D01*
X65053185Y-24216815D01*
X64956494Y-24137463D01*
X64846180Y-24078498D01*
X64726482Y-24042188D01*
X64602000Y-24029928D01*
X62802000Y-24029928D01*
X62677518Y-24042188D01*
X62557820Y-24078498D01*
X62447506Y-24137463D01*
X62350815Y-24216815D01*
X62271463Y-24313506D01*
X62212498Y-24423820D01*
X62176188Y-24543518D01*
X62163928Y-24668000D01*
X62163928Y-25768000D01*
X62176188Y-25892482D01*
X62212498Y-26012180D01*
X62233712Y-26051867D01*
X62166256Y-26006795D01*
X61977898Y-25928774D01*
X61777939Y-25889000D01*
X61574061Y-25889000D01*
X61374102Y-25928774D01*
X61185744Y-26006795D01*
X61016226Y-26120063D01*
X60872063Y-26264226D01*
X60758795Y-26433744D01*
X60680774Y-26622102D01*
X60641000Y-26822061D01*
X60641000Y-27025939D01*
X60680774Y-27225898D01*
X60758795Y-27414256D01*
X60872063Y-27583774D01*
X60916000Y-27627711D01*
X60916001Y-33459196D01*
X59660002Y-34715197D01*
X59630999Y-34738999D01*
X59607201Y-34767997D01*
X55637563Y-38737636D01*
X55554494Y-38669463D01*
X55444180Y-38610498D01*
X55324482Y-38574188D01*
X55200000Y-38561928D01*
X55192785Y-38561928D01*
X55213097Y-38492702D01*
X54400000Y-37679605D01*
X53586903Y-38492702D01*
X53607215Y-38561928D01*
X53600000Y-38561928D01*
X53475518Y-38574188D01*
X53355820Y-38610498D01*
X53245506Y-38669463D01*
X53162437Y-38737635D01*
X51995314Y-37570512D01*
X52959783Y-37570512D01*
X53001213Y-37850130D01*
X53096397Y-38116292D01*
X53163329Y-38241514D01*
X53407298Y-38313097D01*
X54220395Y-37500000D01*
X54579605Y-37500000D01*
X55392702Y-38313097D01*
X55636671Y-38241514D01*
X55757571Y-37986004D01*
X55826300Y-37711816D01*
X55840217Y-37429488D01*
X55798787Y-37149870D01*
X55703603Y-36883708D01*
X55636671Y-36758486D01*
X55392702Y-36686903D01*
X54579605Y-37500000D01*
X54220395Y-37500000D01*
X53407298Y-36686903D01*
X53163329Y-36758486D01*
X53042429Y-37013996D01*
X52973700Y-37288184D01*
X52959783Y-37570512D01*
X51995314Y-37570512D01*
X50932100Y-36507298D01*
X53586903Y-36507298D01*
X54400000Y-37320395D01*
X55213097Y-36507298D01*
X55141514Y-36263329D01*
X54886004Y-36142429D01*
X54611816Y-36073700D01*
X54329488Y-36059783D01*
X54049870Y-36101213D01*
X53783708Y-36196397D01*
X53658486Y-36263329D01*
X53586903Y-36507298D01*
X50932100Y-36507298D01*
X49513804Y-35089003D01*
X49490001Y-35059999D01*
X49374276Y-34965026D01*
X49242247Y-34894454D01*
X49098986Y-34850997D01*
X48987333Y-34840000D01*
X48987322Y-34840000D01*
X48950000Y-34836324D01*
X48912678Y-34840000D01*
X28437323Y-34840000D01*
X28400000Y-34836324D01*
X28362677Y-34840000D01*
X28362667Y-34840000D01*
X28251014Y-34850997D01*
X28107753Y-34894454D01*
X27975723Y-34965026D01*
X27892083Y-35033668D01*
X27859999Y-35059999D01*
X27836201Y-35088997D01*
X26514348Y-36410851D01*
X26508161Y-36415928D01*
X25629000Y-36415928D01*
X25455746Y-36432992D01*
X25289150Y-36483528D01*
X25135614Y-36565595D01*
X25001038Y-36676038D01*
X24890595Y-36810614D01*
X24808528Y-36964150D01*
X24757992Y-37130746D01*
X24740928Y-37304000D01*
X24740928Y-38204770D01*
X22682998Y-40262701D01*
X22654000Y-40286499D01*
X22630202Y-40315497D01*
X22630201Y-40315498D01*
X22559026Y-40402224D01*
X22488454Y-40534254D01*
X22444998Y-40677515D01*
X22430324Y-40826500D01*
X22434001Y-40863832D01*
X22434000Y-42614588D01*
X22289150Y-42658528D01*
X22135614Y-42740595D01*
X22001038Y-42851038D01*
X21890595Y-42985614D01*
X21808528Y-43139150D01*
X21757992Y-43305746D01*
X21740928Y-43479000D01*
X21740928Y-44229000D01*
X21757992Y-44402254D01*
X21808528Y-44568850D01*
X21890595Y-44722386D01*
X22001038Y-44856962D01*
X22135614Y-44967405D01*
X22289150Y-45049472D01*
X22455746Y-45100008D01*
X22629000Y-45117072D01*
X23879000Y-45117072D01*
X24052254Y-45100008D01*
X24218850Y-45049472D01*
X24372386Y-44967405D01*
X24506962Y-44856962D01*
X24617405Y-44722386D01*
X24699472Y-44568850D01*
X24750008Y-44402254D01*
X24767072Y-44229000D01*
X24767072Y-43479000D01*
X24750008Y-43305746D01*
X24699472Y-43139150D01*
X24617405Y-42985614D01*
X24506962Y-42851038D01*
X24372386Y-42740595D01*
X24218850Y-42658528D01*
X24052254Y-42607992D01*
X23954000Y-42598315D01*
X23954000Y-41141301D01*
X24740928Y-40354373D01*
X24740928Y-41204000D01*
X24757992Y-41377254D01*
X24808528Y-41543850D01*
X24890595Y-41697386D01*
X25001038Y-41831962D01*
X25135614Y-41942405D01*
X25289150Y-42024472D01*
X25455746Y-42075008D01*
X25629000Y-42092072D01*
X26529770Y-42092072D01*
X27032642Y-42594944D01*
X26851939Y-42559000D01*
X26648061Y-42559000D01*
X26448102Y-42598774D01*
X26259744Y-42676795D01*
X26090226Y-42790063D01*
X25946063Y-42934226D01*
X25832795Y-43103744D01*
X25754774Y-43292102D01*
X25715000Y-43492061D01*
X25715000Y-43695939D01*
X25754774Y-43895898D01*
X25832795Y-44084256D01*
X25946063Y-44253774D01*
X25990000Y-44297711D01*
X25990001Y-44888250D01*
X25985614Y-44890595D01*
X25851038Y-45001038D01*
X25740595Y-45135614D01*
X25658528Y-45289150D01*
X25607992Y-45455746D01*
X25604224Y-45494000D01*
X24285213Y-45494000D01*
X24218850Y-45458528D01*
X24052254Y-45407992D01*
X23879000Y-45390928D01*
X22629000Y-45390928D01*
X22455746Y-45407992D01*
X22289150Y-45458528D01*
X22135614Y-45540595D01*
X22001038Y-45651038D01*
X21890595Y-45785614D01*
X21808528Y-45939150D01*
X21757992Y-46105746D01*
X21740928Y-46279000D01*
X21740928Y-47029000D01*
X21757992Y-47202254D01*
X21808528Y-47368850D01*
X21890595Y-47522386D01*
X22001038Y-47656962D01*
X22135614Y-47767405D01*
X22289150Y-47849472D01*
X22455746Y-47900008D01*
X22629000Y-47917072D01*
X23879000Y-47917072D01*
X24052254Y-47900008D01*
X24218850Y-47849472D01*
X24372386Y-47767405D01*
X24506962Y-47656962D01*
X24617405Y-47522386D01*
X24699472Y-47368850D01*
X24750008Y-47202254D01*
X24767072Y-47029000D01*
X24767072Y-47014000D01*
X25604224Y-47014000D01*
X25607992Y-47052254D01*
X25658528Y-47218850D01*
X25740595Y-47372386D01*
X25851038Y-47506962D01*
X25985614Y-47617405D01*
X26139150Y-47699472D01*
X26305746Y-47750008D01*
X26479000Y-47767072D01*
X27229000Y-47767072D01*
X27402254Y-47750008D01*
X27568850Y-47699472D01*
X27722386Y-47617405D01*
X27856962Y-47506962D01*
X27967405Y-47372386D01*
X28049472Y-47218850D01*
X28076727Y-47129000D01*
X28390928Y-47129000D01*
X28403188Y-47253482D01*
X28439498Y-47373180D01*
X28498463Y-47483494D01*
X28577815Y-47580185D01*
X28674506Y-47659537D01*
X28784820Y-47718502D01*
X28904518Y-47754812D01*
X29029000Y-47767072D01*
X29368250Y-47764000D01*
X29527000Y-47605250D01*
X29527000Y-46381000D01*
X29781000Y-46381000D01*
X29781000Y-47605250D01*
X29939750Y-47764000D01*
X30279000Y-47767072D01*
X30403482Y-47754812D01*
X30523180Y-47718502D01*
X30633494Y-47659537D01*
X30730185Y-47580185D01*
X30809537Y-47483494D01*
X30868502Y-47373180D01*
X30904812Y-47253482D01*
X30917072Y-47129000D01*
X30914000Y-46539750D01*
X30755250Y-46381000D01*
X29781000Y-46381000D01*
X29527000Y-46381000D01*
X28552750Y-46381000D01*
X28394000Y-46539750D01*
X28390928Y-47129000D01*
X28076727Y-47129000D01*
X28100008Y-47052254D01*
X28117072Y-46879000D01*
X28117072Y-45629000D01*
X28100008Y-45455746D01*
X28076728Y-45379000D01*
X28390928Y-45379000D01*
X28394000Y-45968250D01*
X28552750Y-46127000D01*
X29527000Y-46127000D01*
X29527000Y-44902750D01*
X29781000Y-44902750D01*
X29781000Y-46127000D01*
X30755250Y-46127000D01*
X30914000Y-45968250D01*
X30917072Y-45379000D01*
X30904812Y-45254518D01*
X30868502Y-45134820D01*
X30809537Y-45024506D01*
X30730185Y-44927815D01*
X30633494Y-44848463D01*
X30523180Y-44789498D01*
X30403482Y-44753188D01*
X30279000Y-44740928D01*
X29939750Y-44744000D01*
X29781000Y-44902750D01*
X29527000Y-44902750D01*
X29368250Y-44744000D01*
X29029000Y-44740928D01*
X28904518Y-44753188D01*
X28784820Y-44789498D01*
X28674506Y-44848463D01*
X28577815Y-44927815D01*
X28498463Y-45024506D01*
X28439498Y-45134820D01*
X28403188Y-45254518D01*
X28390928Y-45379000D01*
X28076728Y-45379000D01*
X28049472Y-45289150D01*
X27967405Y-45135614D01*
X27856962Y-45001038D01*
X27722386Y-44890595D01*
X27568850Y-44808528D01*
X27510000Y-44790676D01*
X27510000Y-44297711D01*
X27553937Y-44253774D01*
X27667205Y-44084256D01*
X27745226Y-43895898D01*
X27785000Y-43695939D01*
X27785000Y-43492061D01*
X27745226Y-43292102D01*
X27667205Y-43103744D01*
X27553937Y-42934226D01*
X27528282Y-42908571D01*
X27634167Y-42919000D01*
X27634175Y-42919000D01*
X27671500Y-42922676D01*
X27708825Y-42919000D01*
X29461024Y-42919000D01*
X29516171Y-42964258D01*
X29652418Y-43037084D01*
X29800255Y-43081929D01*
X29954000Y-43097072D01*
X31604000Y-43097072D01*
X31757745Y-43081929D01*
X31905582Y-43037084D01*
X32041829Y-42964258D01*
X32161251Y-42866251D01*
X32259258Y-42746829D01*
X32332084Y-42610582D01*
X32376929Y-42462745D01*
X32392072Y-42309000D01*
X32392072Y-42009000D01*
X32376929Y-41855255D01*
X32332084Y-41707418D01*
X32260270Y-41573064D01*
X32284537Y-41543494D01*
X32343502Y-41433180D01*
X32379812Y-41313482D01*
X32392072Y-41189000D01*
X32389000Y-41174750D01*
X32230250Y-41016000D01*
X30906000Y-41016000D01*
X30906000Y-41036000D01*
X30652000Y-41036000D01*
X30652000Y-41016000D01*
X29327750Y-41016000D01*
X29169000Y-41174750D01*
X29165928Y-41189000D01*
X29178188Y-41313482D01*
X29204130Y-41399000D01*
X27986302Y-41399000D01*
X27767072Y-41179770D01*
X27767072Y-40279000D01*
X27750008Y-40105746D01*
X27699472Y-39939150D01*
X27617405Y-39785614D01*
X27506962Y-39651038D01*
X27372386Y-39540595D01*
X27218850Y-39458528D01*
X27052254Y-39407992D01*
X26879000Y-39390928D01*
X25704374Y-39390928D01*
X25978230Y-39117072D01*
X26879000Y-39117072D01*
X26960957Y-39109000D01*
X27836108Y-39109000D01*
X27786774Y-39228102D01*
X27747000Y-39428061D01*
X27747000Y-39631939D01*
X27786774Y-39831898D01*
X27864795Y-40020256D01*
X27978063Y-40189774D01*
X28122226Y-40333937D01*
X28291744Y-40447205D01*
X28480102Y-40525226D01*
X28680061Y-40565000D01*
X28883939Y-40565000D01*
X29083898Y-40525226D01*
X29175965Y-40487090D01*
X29165928Y-40589000D01*
X29169000Y-40603250D01*
X29327750Y-40762000D01*
X30652000Y-40762000D01*
X30652000Y-40742000D01*
X30906000Y-40742000D01*
X30906000Y-40762000D01*
X32230250Y-40762000D01*
X32389000Y-40603250D01*
X32392072Y-40589000D01*
X32379812Y-40464518D01*
X32343502Y-40344820D01*
X32284537Y-40234506D01*
X32260270Y-40204936D01*
X32332084Y-40070582D01*
X32376929Y-39922745D01*
X32377297Y-39919000D01*
X34115928Y-39919000D01*
X34128188Y-40043482D01*
X34164498Y-40163180D01*
X34213043Y-40254000D01*
X34164498Y-40344820D01*
X34128188Y-40464518D01*
X34115928Y-40589000D01*
X34119000Y-40603250D01*
X34277750Y-40762000D01*
X35602000Y-40762000D01*
X35602000Y-39746000D01*
X34277750Y-39746000D01*
X34119000Y-39904750D01*
X34115928Y-39919000D01*
X32377297Y-39919000D01*
X32392072Y-39769000D01*
X32392072Y-39469000D01*
X32376929Y-39315255D01*
X32332084Y-39167418D01*
X32259258Y-39031171D01*
X32220546Y-38984000D01*
X32259258Y-38936829D01*
X32332084Y-38800582D01*
X32376929Y-38652745D01*
X32392072Y-38499000D01*
X32392072Y-38199000D01*
X34115928Y-38199000D01*
X34115928Y-38499000D01*
X34131071Y-38652745D01*
X34175916Y-38800582D01*
X34247730Y-38934936D01*
X34223463Y-38964506D01*
X34164498Y-39074820D01*
X34128188Y-39194518D01*
X34115928Y-39319000D01*
X34119000Y-39333250D01*
X34277750Y-39492000D01*
X35602000Y-39492000D01*
X35602000Y-39472000D01*
X35856000Y-39472000D01*
X35856000Y-39492000D01*
X35876000Y-39492000D01*
X35876000Y-39746000D01*
X35856000Y-39746000D01*
X35856000Y-40762000D01*
X35876000Y-40762000D01*
X35876000Y-41016000D01*
X35856000Y-41016000D01*
X35856000Y-41036000D01*
X35602000Y-41036000D01*
X35602000Y-41016000D01*
X34277750Y-41016000D01*
X34119000Y-41174750D01*
X34115928Y-41189000D01*
X34128188Y-41313482D01*
X34164498Y-41433180D01*
X34223463Y-41543494D01*
X34247730Y-41573064D01*
X34175916Y-41707418D01*
X34131071Y-41855255D01*
X34115928Y-42009000D01*
X34115928Y-42309000D01*
X34131071Y-42462745D01*
X34175916Y-42610582D01*
X34248742Y-42746829D01*
X34346749Y-42866251D01*
X34466171Y-42964258D01*
X34602418Y-43037084D01*
X34750255Y-43081929D01*
X34904000Y-43097072D01*
X36554000Y-43097072D01*
X36707745Y-43081929D01*
X36855582Y-43037084D01*
X36991829Y-42964258D01*
X37111251Y-42866251D01*
X37209258Y-42746829D01*
X37282084Y-42610582D01*
X37326929Y-42462745D01*
X37342072Y-42309000D01*
X37342072Y-42009000D01*
X37341041Y-41998529D01*
X37540012Y-41799558D01*
X37569011Y-41775759D01*
X37663984Y-41660034D01*
X37734556Y-41528005D01*
X37778013Y-41384744D01*
X37789010Y-41273091D01*
X37789010Y-41273082D01*
X37792686Y-41235759D01*
X37789010Y-41198436D01*
X37789010Y-40760000D01*
X43461928Y-40760000D01*
X43461928Y-40800000D01*
X43474188Y-40924482D01*
X43510498Y-41044180D01*
X43569463Y-41154494D01*
X43648815Y-41251185D01*
X43745506Y-41330537D01*
X43855820Y-41389502D01*
X43975518Y-41425812D01*
X44100000Y-41438072D01*
X44190000Y-41438072D01*
X44190000Y-42096289D01*
X44146063Y-42140226D01*
X44032795Y-42309744D01*
X43954774Y-42498102D01*
X43915000Y-42698061D01*
X43915000Y-42901939D01*
X43954774Y-43101898D01*
X44032795Y-43290256D01*
X44146063Y-43459774D01*
X44290226Y-43603937D01*
X44459744Y-43717205D01*
X44648102Y-43795226D01*
X44848061Y-43835000D01*
X45051939Y-43835000D01*
X45251898Y-43795226D01*
X45440256Y-43717205D01*
X45609774Y-43603937D01*
X45653711Y-43560000D01*
X61285199Y-43560000D01*
X64336928Y-46611730D01*
X64336928Y-47425000D01*
X64353992Y-47598254D01*
X64404528Y-47764850D01*
X64486595Y-47918386D01*
X64597038Y-48052962D01*
X64731614Y-48163405D01*
X64885150Y-48245472D01*
X65051746Y-48296008D01*
X65225000Y-48313072D01*
X65975000Y-48313072D01*
X66148254Y-48296008D01*
X66314850Y-48245472D01*
X66468386Y-48163405D01*
X66602962Y-48052962D01*
X66713405Y-47918386D01*
X66795472Y-47764850D01*
X66846008Y-47598254D01*
X66863072Y-47425000D01*
X66863072Y-46175000D01*
X66846008Y-46001746D01*
X66795472Y-45835150D01*
X66713405Y-45681614D01*
X66602962Y-45547038D01*
X66468386Y-45436595D01*
X66314850Y-45354528D01*
X66148254Y-45303992D01*
X65975000Y-45286928D01*
X65225000Y-45286928D01*
X65167403Y-45292601D01*
X62163804Y-42289003D01*
X62140001Y-42259999D01*
X62024276Y-42165026D01*
X61892247Y-42094454D01*
X61748986Y-42050997D01*
X61637333Y-42040000D01*
X61637322Y-42040000D01*
X61600000Y-42036324D01*
X61562678Y-42040000D01*
X45710000Y-42040000D01*
X45710000Y-41437087D01*
X45824482Y-41425812D01*
X45944180Y-41389502D01*
X46054494Y-41330537D01*
X46151185Y-41251185D01*
X46230537Y-41154494D01*
X46289502Y-41044180D01*
X46325812Y-40924482D01*
X46338072Y-40800000D01*
X46338072Y-39200000D01*
X46325812Y-39075518D01*
X46289502Y-38955820D01*
X46230537Y-38845506D01*
X46151185Y-38748815D01*
X46054494Y-38669463D01*
X45944180Y-38610498D01*
X45824482Y-38574188D01*
X45700000Y-38561928D01*
X45692785Y-38561928D01*
X45713097Y-38492702D01*
X44900000Y-37679605D01*
X44086903Y-38492702D01*
X44107215Y-38561928D01*
X44100000Y-38561928D01*
X43975518Y-38574188D01*
X43855820Y-38610498D01*
X43745506Y-38669463D01*
X43648815Y-38748815D01*
X43569463Y-38845506D01*
X43510498Y-38955820D01*
X43474188Y-39075518D01*
X43461928Y-39200000D01*
X43461928Y-39240000D01*
X37789010Y-39240000D01*
X37789010Y-38611332D01*
X37792686Y-38574009D01*
X37789010Y-38536686D01*
X37789010Y-38536677D01*
X37778013Y-38425024D01*
X37734556Y-38281763D01*
X37663984Y-38149734D01*
X37569011Y-38034009D01*
X37540008Y-38010207D01*
X37367804Y-37838003D01*
X37344001Y-37808999D01*
X37228276Y-37714026D01*
X37125469Y-37659074D01*
X37111251Y-37641749D01*
X37024449Y-37570512D01*
X43459783Y-37570512D01*
X43501213Y-37850130D01*
X43596397Y-38116292D01*
X43663329Y-38241514D01*
X43907298Y-38313097D01*
X44720395Y-37500000D01*
X45079605Y-37500000D01*
X45892702Y-38313097D01*
X46136671Y-38241514D01*
X46257571Y-37986004D01*
X46326300Y-37711816D01*
X46340217Y-37429488D01*
X46298787Y-37149870D01*
X46203603Y-36883708D01*
X46136671Y-36758486D01*
X45892702Y-36686903D01*
X45079605Y-37500000D01*
X44720395Y-37500000D01*
X43907298Y-36686903D01*
X43663329Y-36758486D01*
X43542429Y-37013996D01*
X43473700Y-37288184D01*
X43459783Y-37570512D01*
X37024449Y-37570512D01*
X36991829Y-37543742D01*
X36855582Y-37470916D01*
X36707745Y-37426071D01*
X36554000Y-37410928D01*
X34904000Y-37410928D01*
X34750255Y-37426071D01*
X34602418Y-37470916D01*
X34466171Y-37543742D01*
X34346749Y-37641749D01*
X34248742Y-37761171D01*
X34175916Y-37897418D01*
X34131071Y-38045255D01*
X34115928Y-38199000D01*
X32392072Y-38199000D01*
X32376929Y-38045255D01*
X32332084Y-37897418D01*
X32259258Y-37761171D01*
X32161251Y-37641749D01*
X32041829Y-37543742D01*
X31905582Y-37470916D01*
X31757745Y-37426071D01*
X31604000Y-37410928D01*
X29954000Y-37410928D01*
X29800255Y-37426071D01*
X29652418Y-37470916D01*
X29516171Y-37543742D01*
X29461024Y-37589000D01*
X27767072Y-37589000D01*
X27767072Y-37307729D01*
X28714802Y-36360000D01*
X44130122Y-36360000D01*
X44086903Y-36507298D01*
X44900000Y-37320395D01*
X45713097Y-36507298D01*
X45669878Y-36360000D01*
X48635199Y-36360000D01*
X52786200Y-40511002D01*
X52809999Y-40540001D01*
X52925724Y-40634974D01*
X52961928Y-40654326D01*
X52961928Y-40800000D01*
X52974188Y-40924482D01*
X53010498Y-41044180D01*
X53069463Y-41154494D01*
X53148815Y-41251185D01*
X53245506Y-41330537D01*
X53355820Y-41389502D01*
X53475518Y-41425812D01*
X53600000Y-41438072D01*
X55200000Y-41438072D01*
X55324482Y-41425812D01*
X55444180Y-41389502D01*
X55554494Y-41330537D01*
X55651185Y-41251185D01*
X55730537Y-41154494D01*
X55789502Y-41044180D01*
X55825812Y-40924482D01*
X55838072Y-40800000D01*
X55838072Y-40654326D01*
X55874276Y-40634974D01*
X55990001Y-40540001D01*
X56013804Y-40510997D01*
X60347000Y-36177801D01*
X64942201Y-40773003D01*
X64965999Y-40802001D01*
X65081724Y-40896974D01*
X65213753Y-40967546D01*
X65357014Y-41011003D01*
X65468667Y-41022000D01*
X65468676Y-41022000D01*
X65505999Y-41025676D01*
X65543322Y-41022000D01*
X84938661Y-41022000D01*
X84996595Y-41130386D01*
X85107038Y-41264962D01*
X85241614Y-41375405D01*
X85250192Y-41379990D01*
X76297332Y-41379990D01*
X76260009Y-41376314D01*
X76222686Y-41379990D01*
X76222677Y-41379990D01*
X76111024Y-41390987D01*
X75967763Y-41434444D01*
X75835734Y-41505016D01*
X75720009Y-41599989D01*
X75696211Y-41628987D01*
X72032598Y-45292601D01*
X71975000Y-45286928D01*
X71225000Y-45286928D01*
X71051746Y-45303992D01*
X70885150Y-45354528D01*
X70731614Y-45436595D01*
X70597038Y-45547038D01*
X70486595Y-45681614D01*
X70404528Y-45835150D01*
X70353992Y-46001746D01*
X70350224Y-46040000D01*
X69649776Y-46040000D01*
X69646008Y-46001746D01*
X69595472Y-45835150D01*
X69513405Y-45681614D01*
X69402962Y-45547038D01*
X69268386Y-45436595D01*
X69114850Y-45354528D01*
X68948254Y-45303992D01*
X68775000Y-45286928D01*
X68025000Y-45286928D01*
X67851746Y-45303992D01*
X67685150Y-45354528D01*
X67531614Y-45436595D01*
X67397038Y-45547038D01*
X67286595Y-45681614D01*
X67204528Y-45835150D01*
X67153992Y-46001746D01*
X67136928Y-46175000D01*
X67136928Y-47425000D01*
X67153992Y-47598254D01*
X67204528Y-47764850D01*
X67286595Y-47918386D01*
X67397038Y-48052962D01*
X67531614Y-48163405D01*
X67685150Y-48245472D01*
X67851746Y-48296008D01*
X68025000Y-48313072D01*
X68775000Y-48313072D01*
X68948254Y-48296008D01*
X69114850Y-48245472D01*
X69268386Y-48163405D01*
X69402962Y-48052962D01*
X69513405Y-47918386D01*
X69595472Y-47764850D01*
X69646008Y-47598254D01*
X69649776Y-47560000D01*
X70350224Y-47560000D01*
X70353992Y-47598254D01*
X70404528Y-47764850D01*
X70486595Y-47918386D01*
X70597038Y-48052962D01*
X70731614Y-48163405D01*
X70885150Y-48245472D01*
X71051746Y-48296008D01*
X71225000Y-48313072D01*
X71975000Y-48313072D01*
X72148254Y-48296008D01*
X72314850Y-48245472D01*
X72468386Y-48163405D01*
X72602962Y-48052962D01*
X72713405Y-47918386D01*
X72795472Y-47764850D01*
X72822727Y-47675000D01*
X73136928Y-47675000D01*
X73149188Y-47799482D01*
X73185498Y-47919180D01*
X73244463Y-48029494D01*
X73323815Y-48126185D01*
X73420506Y-48205537D01*
X73530820Y-48264502D01*
X73650518Y-48300812D01*
X73775000Y-48313072D01*
X74114250Y-48310000D01*
X74273000Y-48151250D01*
X74273000Y-46927000D01*
X74527000Y-46927000D01*
X74527000Y-48151250D01*
X74685750Y-48310000D01*
X75025000Y-48313072D01*
X75149482Y-48300812D01*
X75269180Y-48264502D01*
X75379494Y-48205537D01*
X75476185Y-48126185D01*
X75555537Y-48029494D01*
X75614502Y-47919180D01*
X75650812Y-47799482D01*
X75663072Y-47675000D01*
X75660000Y-47085750D01*
X75501250Y-46927000D01*
X74527000Y-46927000D01*
X74273000Y-46927000D01*
X73298750Y-46927000D01*
X73140000Y-47085750D01*
X73136928Y-47675000D01*
X72822727Y-47675000D01*
X72846008Y-47598254D01*
X72863072Y-47425000D01*
X72863072Y-46611729D01*
X73139069Y-46335732D01*
X73140000Y-46514250D01*
X73298750Y-46673000D01*
X74273000Y-46673000D01*
X74273000Y-45448750D01*
X74527000Y-45448750D01*
X74527000Y-46673000D01*
X75501250Y-46673000D01*
X75660000Y-46514250D01*
X75663072Y-45925000D01*
X75650812Y-45800518D01*
X75614502Y-45680820D01*
X75555537Y-45570506D01*
X75476185Y-45473815D01*
X75379494Y-45394463D01*
X75269180Y-45335498D01*
X75149482Y-45299188D01*
X75025000Y-45286928D01*
X74685750Y-45290000D01*
X74527000Y-45448750D01*
X74273000Y-45448750D01*
X74149526Y-45325276D01*
X75634802Y-43840000D01*
X96451928Y-43840000D01*
X96464188Y-43964482D01*
X96500498Y-44084180D01*
X96559463Y-44194494D01*
X96638815Y-44291185D01*
X96735506Y-44370537D01*
X96845820Y-44429502D01*
X96965518Y-44465812D01*
X97090000Y-44478072D01*
X97304250Y-44475000D01*
X97463000Y-44316250D01*
X97463000Y-42717000D01*
X96613750Y-42717000D01*
X96455000Y-42875750D01*
X96451928Y-43840000D01*
X75634802Y-43840000D01*
X76574812Y-42899990D01*
X91793878Y-42899990D01*
X91831200Y-42903666D01*
X91868522Y-42899990D01*
X91868533Y-42899990D01*
X91980186Y-42888993D01*
X92123447Y-42845536D01*
X92255476Y-42774964D01*
X92371201Y-42679991D01*
X92395004Y-42650987D01*
X93391992Y-41654000D01*
X96452928Y-41654000D01*
X96455000Y-42304250D01*
X96613750Y-42463000D01*
X97463000Y-42463000D01*
X97463000Y-42443000D01*
X97717000Y-42443000D01*
X97717000Y-42463000D01*
X97737000Y-42463000D01*
X97737000Y-42717000D01*
X97717000Y-42717000D01*
X97717000Y-44316250D01*
X97875750Y-44475000D01*
X98090000Y-44478072D01*
X98214482Y-44465812D01*
X98334180Y-44429502D01*
X98444494Y-44370537D01*
X98541185Y-44291185D01*
X98590000Y-44231704D01*
X98638815Y-44291185D01*
X98735506Y-44370537D01*
X98845820Y-44429502D01*
X98965518Y-44465812D01*
X99090000Y-44478072D01*
X100090000Y-44478072D01*
X100214482Y-44465812D01*
X100334180Y-44429502D01*
X100444494Y-44370537D01*
X100541185Y-44291185D01*
X100590000Y-44231704D01*
X100638815Y-44291185D01*
X100735506Y-44370537D01*
X100845820Y-44429502D01*
X100965518Y-44465812D01*
X101090000Y-44478072D01*
X102090000Y-44478072D01*
X102214482Y-44465812D01*
X102334180Y-44429502D01*
X102444494Y-44370537D01*
X102541185Y-44291185D01*
X102590000Y-44231704D01*
X102638815Y-44291185D01*
X102735506Y-44370537D01*
X102845820Y-44429502D01*
X102965518Y-44465812D01*
X103090000Y-44478072D01*
X104090000Y-44478072D01*
X104214482Y-44465812D01*
X104334180Y-44429502D01*
X104444494Y-44370537D01*
X104541185Y-44291185D01*
X104590000Y-44231704D01*
X104638815Y-44291185D01*
X104735506Y-44370537D01*
X104845820Y-44429502D01*
X104965518Y-44465812D01*
X105090000Y-44478072D01*
X105504517Y-44478072D01*
X105430774Y-44656102D01*
X105391000Y-44856061D01*
X105391000Y-45059939D01*
X105430774Y-45259898D01*
X105508795Y-45448256D01*
X105622063Y-45617774D01*
X105666001Y-45661712D01*
X105666001Y-46088668D01*
X105662324Y-46126000D01*
X105666001Y-46163333D01*
X105676998Y-46274986D01*
X105684278Y-46298985D01*
X105720454Y-46418246D01*
X105791026Y-46550276D01*
X105862201Y-46637002D01*
X105886000Y-46666001D01*
X105914998Y-46689799D01*
X106036928Y-46811729D01*
X106036928Y-47625000D01*
X106053992Y-47798254D01*
X106104528Y-47964850D01*
X106186595Y-48118386D01*
X106297038Y-48252962D01*
X106431614Y-48363405D01*
X106585150Y-48445472D01*
X106751746Y-48496008D01*
X106925000Y-48513072D01*
X107675000Y-48513072D01*
X107848254Y-48496008D01*
X108014850Y-48445472D01*
X108168386Y-48363405D01*
X108302962Y-48252962D01*
X108413405Y-48118386D01*
X108495472Y-47964850D01*
X108522727Y-47875000D01*
X108836928Y-47875000D01*
X108849188Y-47999482D01*
X108885498Y-48119180D01*
X108944463Y-48229494D01*
X109023815Y-48326185D01*
X109120506Y-48405537D01*
X109230820Y-48464502D01*
X109350518Y-48500812D01*
X109475000Y-48513072D01*
X109814250Y-48510000D01*
X109973000Y-48351250D01*
X109973000Y-47127000D01*
X110227000Y-47127000D01*
X110227000Y-48351250D01*
X110385750Y-48510000D01*
X110725000Y-48513072D01*
X110849482Y-48500812D01*
X110969180Y-48464502D01*
X111079494Y-48405537D01*
X111176185Y-48326185D01*
X111255537Y-48229494D01*
X111314502Y-48119180D01*
X111350812Y-47999482D01*
X111363072Y-47875000D01*
X111360000Y-47285750D01*
X111201250Y-47127000D01*
X110227000Y-47127000D01*
X109973000Y-47127000D01*
X108998750Y-47127000D01*
X108840000Y-47285750D01*
X108836928Y-47875000D01*
X108522727Y-47875000D01*
X108546008Y-47798254D01*
X108563072Y-47625000D01*
X108563072Y-46375000D01*
X108546008Y-46201746D01*
X108522728Y-46125000D01*
X108836928Y-46125000D01*
X108840000Y-46714250D01*
X108998750Y-46873000D01*
X109973000Y-46873000D01*
X109973000Y-45648750D01*
X110227000Y-45648750D01*
X110227000Y-46873000D01*
X111201250Y-46873000D01*
X111360000Y-46714250D01*
X111363072Y-46125000D01*
X111350812Y-46000518D01*
X111314502Y-45880820D01*
X111255537Y-45770506D01*
X111176185Y-45673815D01*
X111079494Y-45594463D01*
X110969180Y-45535498D01*
X110849482Y-45499188D01*
X110725000Y-45486928D01*
X110385750Y-45490000D01*
X110227000Y-45648750D01*
X109973000Y-45648750D01*
X109814250Y-45490000D01*
X109475000Y-45486928D01*
X109350518Y-45499188D01*
X109230820Y-45535498D01*
X109120506Y-45594463D01*
X109023815Y-45673815D01*
X108944463Y-45770506D01*
X108885498Y-45880820D01*
X108849188Y-46000518D01*
X108836928Y-46125000D01*
X108522728Y-46125000D01*
X108495472Y-46035150D01*
X108413405Y-45881614D01*
X108302962Y-45747038D01*
X108168386Y-45636595D01*
X108014850Y-45554528D01*
X107848254Y-45503992D01*
X107675000Y-45486928D01*
X107317365Y-45486928D01*
X107343205Y-45448256D01*
X107421226Y-45259898D01*
X107461000Y-45059939D01*
X107461000Y-44856061D01*
X107421226Y-44656102D01*
X107347483Y-44478072D01*
X108090000Y-44478072D01*
X108214482Y-44465812D01*
X108334180Y-44429502D01*
X108444494Y-44370537D01*
X108541185Y-44291185D01*
X108590000Y-44231704D01*
X108638815Y-44291185D01*
X108735506Y-44370537D01*
X108845820Y-44429502D01*
X108965518Y-44465812D01*
X109090000Y-44478072D01*
X110090000Y-44478072D01*
X110214482Y-44465812D01*
X110334180Y-44429502D01*
X110444494Y-44370537D01*
X110541185Y-44291185D01*
X110590000Y-44231704D01*
X110638815Y-44291185D01*
X110735506Y-44370537D01*
X110845820Y-44429502D01*
X110965518Y-44465812D01*
X111090000Y-44478072D01*
X112090000Y-44478072D01*
X112214482Y-44465812D01*
X112334180Y-44429502D01*
X112444494Y-44370537D01*
X112493000Y-44330729D01*
X112493000Y-49179015D01*
X105691117Y-49179015D01*
X105691117Y-48150120D01*
X105694673Y-48114015D01*
X105680482Y-47969930D01*
X105638454Y-47831382D01*
X105570204Y-47703695D01*
X105478355Y-47591777D01*
X105366437Y-47499928D01*
X105238750Y-47431678D01*
X105100202Y-47389650D01*
X104992222Y-47379015D01*
X104956117Y-47375459D01*
X104920012Y-47379015D01*
X84992231Y-47379015D01*
X84956126Y-47375459D01*
X84920021Y-47379015D01*
X84812041Y-47389650D01*
X84673493Y-47431678D01*
X84545806Y-47499928D01*
X84433888Y-47591777D01*
X84342039Y-47703695D01*
X84273789Y-47831382D01*
X84231761Y-47969930D01*
X84217570Y-48114015D01*
X84221126Y-48150120D01*
X84221126Y-49179015D01*
X55691121Y-49179015D01*
X55691121Y-48150120D01*
X55694677Y-48114015D01*
X55680486Y-47969930D01*
X55638458Y-47831382D01*
X55570208Y-47703695D01*
X55478359Y-47591777D01*
X55366441Y-47499928D01*
X55238754Y-47431678D01*
X55100206Y-47389650D01*
X54992226Y-47379015D01*
X54956121Y-47375459D01*
X54920016Y-47379015D01*
X34992226Y-47379015D01*
X34956121Y-47375459D01*
X34920016Y-47379015D01*
X34812036Y-47389650D01*
X34673488Y-47431678D01*
X34545801Y-47499928D01*
X34433883Y-47591777D01*
X34342034Y-47703695D01*
X34273784Y-47831382D01*
X34231756Y-47969930D01*
X34217565Y-48114015D01*
X34221121Y-48150120D01*
X34221121Y-49179015D01*
X23992848Y-49179015D01*
X23294651Y-49109046D01*
X22716813Y-48930420D01*
X21654671Y-48215468D01*
X20939717Y-47153327D01*
X20761090Y-46575484D01*
X20691121Y-45877286D01*
X20691121Y-28030000D01*
X23007815Y-28030000D01*
X23036487Y-28321111D01*
X23121401Y-28601034D01*
X23259294Y-28859014D01*
X23444866Y-29085134D01*
X23670986Y-29270706D01*
X23725791Y-29300000D01*
X23670986Y-29329294D01*
X23444866Y-29514866D01*
X23259294Y-29740986D01*
X23121401Y-29998966D01*
X23036487Y-30278889D01*
X23007815Y-30570000D01*
X23036487Y-30861111D01*
X23121401Y-31141034D01*
X23259294Y-31399014D01*
X23444866Y-31625134D01*
X23670986Y-31810706D01*
X23928966Y-31948599D01*
X24208889Y-32033513D01*
X24427050Y-32055000D01*
X24572950Y-32055000D01*
X24791111Y-32033513D01*
X25071034Y-31948599D01*
X25329014Y-31810706D01*
X25555134Y-31625134D01*
X25740706Y-31399014D01*
X25878599Y-31141034D01*
X25963513Y-30861111D01*
X25992185Y-30570000D01*
X25963513Y-30278889D01*
X25878599Y-29998966D01*
X25740706Y-29740986D01*
X25555134Y-29514866D01*
X25329014Y-29329294D01*
X25274209Y-29300000D01*
X25329014Y-29270706D01*
X25555134Y-29085134D01*
X25740706Y-28859014D01*
X25878599Y-28601034D01*
X25963513Y-28321111D01*
X25987260Y-28080000D01*
X52507815Y-28080000D01*
X52536487Y-28371111D01*
X52621401Y-28651034D01*
X52759294Y-28909014D01*
X52944866Y-29135134D01*
X53170986Y-29320706D01*
X53225791Y-29350000D01*
X53170986Y-29379294D01*
X52944866Y-29564866D01*
X52759294Y-29790986D01*
X52621401Y-30048966D01*
X52536487Y-30328889D01*
X52507815Y-30620000D01*
X52536487Y-30911111D01*
X52621401Y-31191034D01*
X52759294Y-31449014D01*
X52944866Y-31675134D01*
X53170986Y-31860706D01*
X53225791Y-31890000D01*
X53170986Y-31919294D01*
X52944866Y-32104866D01*
X52759294Y-32330986D01*
X52621401Y-32588966D01*
X52536487Y-32868889D01*
X52507815Y-33160000D01*
X52536487Y-33451111D01*
X52621401Y-33731034D01*
X52759294Y-33989014D01*
X52944866Y-34215134D01*
X53170986Y-34400706D01*
X53428966Y-34538599D01*
X53708889Y-34623513D01*
X53927050Y-34645000D01*
X54072950Y-34645000D01*
X54291111Y-34623513D01*
X54571034Y-34538599D01*
X54829014Y-34400706D01*
X55055134Y-34215134D01*
X55240706Y-33989014D01*
X55378599Y-33731034D01*
X55463513Y-33451111D01*
X55492185Y-33160000D01*
X55463513Y-32868889D01*
X55378599Y-32588966D01*
X55240706Y-32330986D01*
X55055134Y-32104866D01*
X54829014Y-31919294D01*
X54774209Y-31890000D01*
X54829014Y-31860706D01*
X55055134Y-31675134D01*
X55240706Y-31449014D01*
X55378599Y-31191034D01*
X55463513Y-30911111D01*
X55492185Y-30620000D01*
X55463513Y-30328889D01*
X55378599Y-30048966D01*
X55240706Y-29790986D01*
X55055134Y-29564866D01*
X54829014Y-29379294D01*
X54774209Y-29350000D01*
X54829014Y-29320706D01*
X55055134Y-29135134D01*
X55240706Y-28909014D01*
X55378599Y-28651034D01*
X55463513Y-28371111D01*
X55492185Y-28080000D01*
X55463513Y-27788889D01*
X55378599Y-27508966D01*
X55240706Y-27250986D01*
X55055134Y-27024866D01*
X54829014Y-26839294D01*
X54764477Y-26804799D01*
X54881355Y-26735178D01*
X55097588Y-26540269D01*
X55271641Y-26306920D01*
X55396825Y-26044099D01*
X55441476Y-25896890D01*
X55320155Y-25667000D01*
X54127000Y-25667000D01*
X54127000Y-25687000D01*
X53873000Y-25687000D01*
X53873000Y-25667000D01*
X52679845Y-25667000D01*
X52558524Y-25896890D01*
X52603175Y-26044099D01*
X52728359Y-26306920D01*
X52902412Y-26540269D01*
X53118645Y-26735178D01*
X53235523Y-26804799D01*
X53170986Y-26839294D01*
X52944866Y-27024866D01*
X52759294Y-27250986D01*
X52621401Y-27508966D01*
X52536487Y-27788889D01*
X52507815Y-28080000D01*
X25987260Y-28080000D01*
X25992185Y-28030000D01*
X25963513Y-27738889D01*
X25878599Y-27458966D01*
X25740706Y-27200986D01*
X25555134Y-26974866D01*
X25329014Y-26789294D01*
X25264477Y-26754799D01*
X25381355Y-26685178D01*
X25597588Y-26490269D01*
X25771641Y-26256920D01*
X25896825Y-25994099D01*
X25941476Y-25846890D01*
X25820155Y-25617000D01*
X24627000Y-25617000D01*
X24627000Y-25637000D01*
X24373000Y-25637000D01*
X24373000Y-25617000D01*
X23179845Y-25617000D01*
X23058524Y-25846890D01*
X23103175Y-25994099D01*
X23228359Y-26256920D01*
X23402412Y-26490269D01*
X23618645Y-26685178D01*
X23735523Y-26754799D01*
X23670986Y-26789294D01*
X23444866Y-26974866D01*
X23259294Y-27200986D01*
X23121401Y-27458966D01*
X23036487Y-27738889D01*
X23007815Y-28030000D01*
X20691121Y-28030000D01*
X20691121Y-23973354D01*
X20761090Y-23275156D01*
X20939717Y-22697313D01*
X21341783Y-22100000D01*
X23011928Y-22100000D01*
X23011928Y-23800000D01*
X23024188Y-23924482D01*
X23060498Y-24044180D01*
X23119463Y-24154494D01*
X23198815Y-24251185D01*
X23295506Y-24330537D01*
X23405820Y-24389502D01*
X23486466Y-24413966D01*
X23402412Y-24489731D01*
X23228359Y-24723080D01*
X23103175Y-24985901D01*
X23058524Y-25133110D01*
X23179845Y-25363000D01*
X24373000Y-25363000D01*
X24373000Y-25343000D01*
X24627000Y-25343000D01*
X24627000Y-25363000D01*
X25820155Y-25363000D01*
X25941476Y-25133110D01*
X25896825Y-24985901D01*
X25771641Y-24723080D01*
X25597588Y-24489731D01*
X25513534Y-24413966D01*
X25594180Y-24389502D01*
X25704494Y-24330537D01*
X25801185Y-24251185D01*
X25880537Y-24154494D01*
X25939502Y-24044180D01*
X25975812Y-23924482D01*
X25988072Y-23800000D01*
X25988072Y-22150000D01*
X52511928Y-22150000D01*
X52511928Y-23850000D01*
X52524188Y-23974482D01*
X52560498Y-24094180D01*
X52619463Y-24204494D01*
X52698815Y-24301185D01*
X52795506Y-24380537D01*
X52905820Y-24439502D01*
X52986466Y-24463966D01*
X52902412Y-24539731D01*
X52728359Y-24773080D01*
X52603175Y-25035901D01*
X52558524Y-25183110D01*
X52679845Y-25413000D01*
X53873000Y-25413000D01*
X53873000Y-25393000D01*
X54127000Y-25393000D01*
X54127000Y-25413000D01*
X55320155Y-25413000D01*
X55441476Y-25183110D01*
X55396825Y-25035901D01*
X55271641Y-24773080D01*
X55097588Y-24539731D01*
X55013534Y-24463966D01*
X55094180Y-24439502D01*
X55204494Y-24380537D01*
X55301185Y-24301185D01*
X55380537Y-24204494D01*
X55439502Y-24094180D01*
X55475812Y-23974482D01*
X55488072Y-23850000D01*
X55488072Y-22150000D01*
X55475812Y-22025518D01*
X55439502Y-21905820D01*
X55380537Y-21795506D01*
X55301185Y-21698815D01*
X55204494Y-21619463D01*
X55094180Y-21560498D01*
X54974482Y-21524188D01*
X54850000Y-21511928D01*
X53150000Y-21511928D01*
X53025518Y-21524188D01*
X52905820Y-21560498D01*
X52795506Y-21619463D01*
X52698815Y-21698815D01*
X52619463Y-21795506D01*
X52560498Y-21905820D01*
X52524188Y-22025518D01*
X52511928Y-22150000D01*
X25988072Y-22150000D01*
X25988072Y-22100000D01*
X25975812Y-21975518D01*
X25939502Y-21855820D01*
X25880537Y-21745506D01*
X25801185Y-21648815D01*
X25704494Y-21569463D01*
X25594180Y-21510498D01*
X25474482Y-21474188D01*
X25350000Y-21461928D01*
X23650000Y-21461928D01*
X23525518Y-21474188D01*
X23405820Y-21510498D01*
X23295506Y-21569463D01*
X23198815Y-21648815D01*
X23119463Y-21745506D01*
X23060498Y-21855820D01*
X23024188Y-21975518D01*
X23011928Y-22100000D01*
X21341783Y-22100000D01*
X21654671Y-21635172D01*
X22716814Y-20920219D01*
X23294650Y-20741595D01*
X23992850Y-20671625D01*
X62240397Y-20671625D01*
X62212498Y-20723820D01*
X62212498Y-20723820D01*
G37*
X62212498Y-20723820D02*
X62176188Y-20843518D01*
X62163928Y-20968000D01*
X62163928Y-22068000D01*
X62176188Y-22192482D01*
X62212498Y-22312180D01*
X62271463Y-22422494D01*
X62350815Y-22519185D01*
X62447506Y-22598537D01*
X62557820Y-22657502D01*
X62677518Y-22693812D01*
X62802000Y-22706072D01*
X64602000Y-22706072D01*
X64726482Y-22693812D01*
X64846180Y-22657502D01*
X64956494Y-22598537D01*
X65053185Y-22519185D01*
X65132537Y-22422494D01*
X65191502Y-22312180D01*
X65201870Y-22278000D01*
X68402130Y-22278000D01*
X68412498Y-22312180D01*
X68471463Y-22422494D01*
X68550815Y-22519185D01*
X68647506Y-22598537D01*
X68757820Y-22657502D01*
X68877518Y-22693812D01*
X69002000Y-22706072D01*
X70365271Y-22706072D01*
X71114999Y-23455801D01*
X71114999Y-24115283D01*
X71046180Y-24078498D01*
X70926482Y-24042188D01*
X70802000Y-24029928D01*
X69002000Y-24029928D01*
X68877518Y-24042188D01*
X68757820Y-24078498D01*
X68647506Y-24137463D01*
X68550815Y-24216815D01*
X68471463Y-24313506D01*
X68412498Y-24423820D01*
X68402130Y-24458000D01*
X65201870Y-24458000D01*
X65191502Y-24423820D01*
X65132537Y-24313506D01*
X65053185Y-24216815D01*
X64956494Y-24137463D01*
X64846180Y-24078498D01*
X64726482Y-24042188D01*
X64602000Y-24029928D01*
X62802000Y-24029928D01*
X62677518Y-24042188D01*
X62557820Y-24078498D01*
X62447506Y-24137463D01*
X62350815Y-24216815D01*
X62271463Y-24313506D01*
X62212498Y-24423820D01*
X62176188Y-24543518D01*
X62163928Y-24668000D01*
X62163928Y-25768000D01*
X62176188Y-25892482D01*
X62212498Y-26012180D01*
X62233712Y-26051867D01*
X62166256Y-26006795D01*
X61977898Y-25928774D01*
X61777939Y-25889000D01*
X61574061Y-25889000D01*
X61374102Y-25928774D01*
X61185744Y-26006795D01*
X61016226Y-26120063D01*
X60872063Y-26264226D01*
X60758795Y-26433744D01*
X60680774Y-26622102D01*
X60641000Y-26822061D01*
X60641000Y-27025939D01*
X60680774Y-27225898D01*
X60758795Y-27414256D01*
X60872063Y-27583774D01*
X60916000Y-27627711D01*
X60916001Y-33459196D01*
X59660002Y-34715197D01*
X59630999Y-34738999D01*
X59607201Y-34767997D01*
X55637563Y-38737636D01*
X55554494Y-38669463D01*
X55444180Y-38610498D01*
X55324482Y-38574188D01*
X55200000Y-38561928D01*
X55192785Y-38561928D01*
X55213097Y-38492702D01*
X54400000Y-37679605D01*
X53586903Y-38492702D01*
X53607215Y-38561928D01*
X53600000Y-38561928D01*
X53475518Y-38574188D01*
X53355820Y-38610498D01*
X53245506Y-38669463D01*
X53162437Y-38737635D01*
X51995314Y-37570512D01*
X52959783Y-37570512D01*
X53001213Y-37850130D01*
X53096397Y-38116292D01*
X53163329Y-38241514D01*
X53407298Y-38313097D01*
X54220395Y-37500000D01*
X54579605Y-37500000D01*
X55392702Y-38313097D01*
X55636671Y-38241514D01*
X55757571Y-37986004D01*
X55826300Y-37711816D01*
X55840217Y-37429488D01*
X55798787Y-37149870D01*
X55703603Y-36883708D01*
X55636671Y-36758486D01*
X55392702Y-36686903D01*
X54579605Y-37500000D01*
X54220395Y-37500000D01*
X53407298Y-36686903D01*
X53163329Y-36758486D01*
X53042429Y-37013996D01*
X52973700Y-37288184D01*
X52959783Y-37570512D01*
X51995314Y-37570512D01*
X50932100Y-36507298D01*
X53586903Y-36507298D01*
X54400000Y-37320395D01*
X55213097Y-36507298D01*
X55141514Y-36263329D01*
X54886004Y-36142429D01*
X54611816Y-36073700D01*
X54329488Y-36059783D01*
X54049870Y-36101213D01*
X53783708Y-36196397D01*
X53658486Y-36263329D01*
X53586903Y-36507298D01*
X50932100Y-36507298D01*
X49513804Y-35089003D01*
X49490001Y-35059999D01*
X49374276Y-34965026D01*
X49242247Y-34894454D01*
X49098986Y-34850997D01*
X48987333Y-34840000D01*
X48987322Y-34840000D01*
X48950000Y-34836324D01*
X48912678Y-34840000D01*
X28437323Y-34840000D01*
X28400000Y-34836324D01*
X28362677Y-34840000D01*
X28362667Y-34840000D01*
X28251014Y-34850997D01*
X28107753Y-34894454D01*
X27975723Y-34965026D01*
X27892083Y-35033668D01*
X27859999Y-35059999D01*
X27836201Y-35088997D01*
X26514348Y-36410851D01*
X26508161Y-36415928D01*
X25629000Y-36415928D01*
X25455746Y-36432992D01*
X25289150Y-36483528D01*
X25135614Y-36565595D01*
X25001038Y-36676038D01*
X24890595Y-36810614D01*
X24808528Y-36964150D01*
X24757992Y-37130746D01*
X24740928Y-37304000D01*
X24740928Y-38204770D01*
X22682998Y-40262701D01*
X22654000Y-40286499D01*
X22630202Y-40315497D01*
X22630201Y-40315498D01*
X22559026Y-40402224D01*
X22488454Y-40534254D01*
X22444998Y-40677515D01*
X22430324Y-40826500D01*
X22434001Y-40863832D01*
X22434000Y-42614588D01*
X22289150Y-42658528D01*
X22135614Y-42740595D01*
X22001038Y-42851038D01*
X21890595Y-42985614D01*
X21808528Y-43139150D01*
X21757992Y-43305746D01*
X21740928Y-43479000D01*
X21740928Y-44229000D01*
X21757992Y-44402254D01*
X21808528Y-44568850D01*
X21890595Y-44722386D01*
X22001038Y-44856962D01*
X22135614Y-44967405D01*
X22289150Y-45049472D01*
X22455746Y-45100008D01*
X22629000Y-45117072D01*
X23879000Y-45117072D01*
X24052254Y-45100008D01*
X24218850Y-45049472D01*
X24372386Y-44967405D01*
X24506962Y-44856962D01*
X24617405Y-44722386D01*
X24699472Y-44568850D01*
X24750008Y-44402254D01*
X24767072Y-44229000D01*
X24767072Y-43479000D01*
X24750008Y-43305746D01*
X24699472Y-43139150D01*
X24617405Y-42985614D01*
X24506962Y-42851038D01*
X24372386Y-42740595D01*
X24218850Y-42658528D01*
X24052254Y-42607992D01*
X23954000Y-42598315D01*
X23954000Y-41141301D01*
X24740928Y-40354373D01*
X24740928Y-41204000D01*
X24757992Y-41377254D01*
X24808528Y-41543850D01*
X24890595Y-41697386D01*
X25001038Y-41831962D01*
X25135614Y-41942405D01*
X25289150Y-42024472D01*
X25455746Y-42075008D01*
X25629000Y-42092072D01*
X26529770Y-42092072D01*
X27032642Y-42594944D01*
X26851939Y-42559000D01*
X26648061Y-42559000D01*
X26448102Y-42598774D01*
X26259744Y-42676795D01*
X26090226Y-42790063D01*
X25946063Y-42934226D01*
X25832795Y-43103744D01*
X25754774Y-43292102D01*
X25715000Y-43492061D01*
X25715000Y-43695939D01*
X25754774Y-43895898D01*
X25832795Y-44084256D01*
X25946063Y-44253774D01*
X25990000Y-44297711D01*
X25990001Y-44888250D01*
X25985614Y-44890595D01*
X25851038Y-45001038D01*
X25740595Y-45135614D01*
X25658528Y-45289150D01*
X25607992Y-45455746D01*
X25604224Y-45494000D01*
X24285213Y-45494000D01*
X24218850Y-45458528D01*
X24052254Y-45407992D01*
X23879000Y-45390928D01*
X22629000Y-45390928D01*
X22455746Y-45407992D01*
X22289150Y-45458528D01*
X22135614Y-45540595D01*
X22001038Y-45651038D01*
X21890595Y-45785614D01*
X21808528Y-45939150D01*
X21757992Y-46105746D01*
X21740928Y-46279000D01*
X21740928Y-47029000D01*
X21757992Y-47202254D01*
X21808528Y-47368850D01*
X21890595Y-47522386D01*
X22001038Y-47656962D01*
X22135614Y-47767405D01*
X22289150Y-47849472D01*
X22455746Y-47900008D01*
X22629000Y-47917072D01*
X23879000Y-47917072D01*
X24052254Y-47900008D01*
X24218850Y-47849472D01*
X24372386Y-47767405D01*
X24506962Y-47656962D01*
X24617405Y-47522386D01*
X24699472Y-47368850D01*
X24750008Y-47202254D01*
X24767072Y-47029000D01*
X24767072Y-47014000D01*
X25604224Y-47014000D01*
X25607992Y-47052254D01*
X25658528Y-47218850D01*
X25740595Y-47372386D01*
X25851038Y-47506962D01*
X25985614Y-47617405D01*
X26139150Y-47699472D01*
X26305746Y-47750008D01*
X26479000Y-47767072D01*
X27229000Y-47767072D01*
X27402254Y-47750008D01*
X27568850Y-47699472D01*
X27722386Y-47617405D01*
X27856962Y-47506962D01*
X27967405Y-47372386D01*
X28049472Y-47218850D01*
X28076727Y-47129000D01*
X28390928Y-47129000D01*
X28403188Y-47253482D01*
X28439498Y-47373180D01*
X28498463Y-47483494D01*
X28577815Y-47580185D01*
X28674506Y-47659537D01*
X28784820Y-47718502D01*
X28904518Y-47754812D01*
X29029000Y-47767072D01*
X29368250Y-47764000D01*
X29527000Y-47605250D01*
X29527000Y-46381000D01*
X29781000Y-46381000D01*
X29781000Y-47605250D01*
X29939750Y-47764000D01*
X30279000Y-47767072D01*
X30403482Y-47754812D01*
X30523180Y-47718502D01*
X30633494Y-47659537D01*
X30730185Y-47580185D01*
X30809537Y-47483494D01*
X30868502Y-47373180D01*
X30904812Y-47253482D01*
X30917072Y-47129000D01*
X30914000Y-46539750D01*
X30755250Y-46381000D01*
X29781000Y-46381000D01*
X29527000Y-46381000D01*
X28552750Y-46381000D01*
X28394000Y-46539750D01*
X28390928Y-47129000D01*
X28076727Y-47129000D01*
X28100008Y-47052254D01*
X28117072Y-46879000D01*
X28117072Y-45629000D01*
X28100008Y-45455746D01*
X28076728Y-45379000D01*
X28390928Y-45379000D01*
X28394000Y-45968250D01*
X28552750Y-46127000D01*
X29527000Y-46127000D01*
X29527000Y-44902750D01*
X29781000Y-44902750D01*
X29781000Y-46127000D01*
X30755250Y-46127000D01*
X30914000Y-45968250D01*
X30917072Y-45379000D01*
X30904812Y-45254518D01*
X30868502Y-45134820D01*
X30809537Y-45024506D01*
X30730185Y-44927815D01*
X30633494Y-44848463D01*
X30523180Y-44789498D01*
X30403482Y-44753188D01*
X30279000Y-44740928D01*
X29939750Y-44744000D01*
X29781000Y-44902750D01*
X29527000Y-44902750D01*
X29368250Y-44744000D01*
X29029000Y-44740928D01*
X28904518Y-44753188D01*
X28784820Y-44789498D01*
X28674506Y-44848463D01*
X28577815Y-44927815D01*
X28498463Y-45024506D01*
X28439498Y-45134820D01*
X28403188Y-45254518D01*
X28390928Y-45379000D01*
X28076728Y-45379000D01*
X28049472Y-45289150D01*
X27967405Y-45135614D01*
X27856962Y-45001038D01*
X27722386Y-44890595D01*
X27568850Y-44808528D01*
X27510000Y-44790676D01*
X27510000Y-44297711D01*
X27553937Y-44253774D01*
X27667205Y-44084256D01*
X27745226Y-43895898D01*
X27785000Y-43695939D01*
X27785000Y-43492061D01*
X27745226Y-43292102D01*
X27667205Y-43103744D01*
X27553937Y-42934226D01*
X27528282Y-42908571D01*
X27634167Y-42919000D01*
X27634175Y-42919000D01*
X27671500Y-42922676D01*
X27708825Y-42919000D01*
X29461024Y-42919000D01*
X29516171Y-42964258D01*
X29652418Y-43037084D01*
X29800255Y-43081929D01*
X29954000Y-43097072D01*
X31604000Y-43097072D01*
X31757745Y-43081929D01*
X31905582Y-43037084D01*
X32041829Y-42964258D01*
X32161251Y-42866251D01*
X32259258Y-42746829D01*
X32332084Y-42610582D01*
X32376929Y-42462745D01*
X32392072Y-42309000D01*
X32392072Y-42009000D01*
X32376929Y-41855255D01*
X32332084Y-41707418D01*
X32260270Y-41573064D01*
X32284537Y-41543494D01*
X32343502Y-41433180D01*
X32379812Y-41313482D01*
X32392072Y-41189000D01*
X32389000Y-41174750D01*
X32230250Y-41016000D01*
X30906000Y-41016000D01*
X30906000Y-41036000D01*
X30652000Y-41036000D01*
X30652000Y-41016000D01*
X29327750Y-41016000D01*
X29169000Y-41174750D01*
X29165928Y-41189000D01*
X29178188Y-41313482D01*
X29204130Y-41399000D01*
X27986302Y-41399000D01*
X27767072Y-41179770D01*
X27767072Y-40279000D01*
X27750008Y-40105746D01*
X27699472Y-39939150D01*
X27617405Y-39785614D01*
X27506962Y-39651038D01*
X27372386Y-39540595D01*
X27218850Y-39458528D01*
X27052254Y-39407992D01*
X26879000Y-39390928D01*
X25704374Y-39390928D01*
X25978230Y-39117072D01*
X26879000Y-39117072D01*
X26960957Y-39109000D01*
X27836108Y-39109000D01*
X27786774Y-39228102D01*
X27747000Y-39428061D01*
X27747000Y-39631939D01*
X27786774Y-39831898D01*
X27864795Y-40020256D01*
X27978063Y-40189774D01*
X28122226Y-40333937D01*
X28291744Y-40447205D01*
X28480102Y-40525226D01*
X28680061Y-40565000D01*
X28883939Y-40565000D01*
X29083898Y-40525226D01*
X29175965Y-40487090D01*
X29165928Y-40589000D01*
X29169000Y-40603250D01*
X29327750Y-40762000D01*
X30652000Y-40762000D01*
X30652000Y-40742000D01*
X30906000Y-40742000D01*
X30906000Y-40762000D01*
X32230250Y-40762000D01*
X32389000Y-40603250D01*
X32392072Y-40589000D01*
X32379812Y-40464518D01*
X32343502Y-40344820D01*
X32284537Y-40234506D01*
X32260270Y-40204936D01*
X32332084Y-40070582D01*
X32376929Y-39922745D01*
X32377297Y-39919000D01*
X34115928Y-39919000D01*
X34128188Y-40043482D01*
X34164498Y-40163180D01*
X34213043Y-40254000D01*
X34164498Y-40344820D01*
X34128188Y-40464518D01*
X34115928Y-40589000D01*
X34119000Y-40603250D01*
X34277750Y-40762000D01*
X35602000Y-40762000D01*
X35602000Y-39746000D01*
X34277750Y-39746000D01*
X34119000Y-39904750D01*
X34115928Y-39919000D01*
X32377297Y-39919000D01*
X32392072Y-39769000D01*
X32392072Y-39469000D01*
X32376929Y-39315255D01*
X32332084Y-39167418D01*
X32259258Y-39031171D01*
X32220546Y-38984000D01*
X32259258Y-38936829D01*
X32332084Y-38800582D01*
X32376929Y-38652745D01*
X32392072Y-38499000D01*
X32392072Y-38199000D01*
X34115928Y-38199000D01*
X34115928Y-38499000D01*
X34131071Y-38652745D01*
X34175916Y-38800582D01*
X34247730Y-38934936D01*
X34223463Y-38964506D01*
X34164498Y-39074820D01*
X34128188Y-39194518D01*
X34115928Y-39319000D01*
X34119000Y-39333250D01*
X34277750Y-39492000D01*
X35602000Y-39492000D01*
X35602000Y-39472000D01*
X35856000Y-39472000D01*
X35856000Y-39492000D01*
X35876000Y-39492000D01*
X35876000Y-39746000D01*
X35856000Y-39746000D01*
X35856000Y-40762000D01*
X35876000Y-40762000D01*
X35876000Y-41016000D01*
X35856000Y-41016000D01*
X35856000Y-41036000D01*
X35602000Y-41036000D01*
X35602000Y-41016000D01*
X34277750Y-41016000D01*
X34119000Y-41174750D01*
X34115928Y-41189000D01*
X34128188Y-41313482D01*
X34164498Y-41433180D01*
X34223463Y-41543494D01*
X34247730Y-41573064D01*
X34175916Y-41707418D01*
X34131071Y-41855255D01*
X34115928Y-42009000D01*
X34115928Y-42309000D01*
X34131071Y-42462745D01*
X34175916Y-42610582D01*
X34248742Y-42746829D01*
X34346749Y-42866251D01*
X34466171Y-42964258D01*
X34602418Y-43037084D01*
X34750255Y-43081929D01*
X34904000Y-43097072D01*
X36554000Y-43097072D01*
X36707745Y-43081929D01*
X36855582Y-43037084D01*
X36991829Y-42964258D01*
X37111251Y-42866251D01*
X37209258Y-42746829D01*
X37282084Y-42610582D01*
X37326929Y-42462745D01*
X37342072Y-42309000D01*
X37342072Y-42009000D01*
X37341041Y-41998529D01*
X37540012Y-41799558D01*
X37569011Y-41775759D01*
X37663984Y-41660034D01*
X37734556Y-41528005D01*
X37778013Y-41384744D01*
X37789010Y-41273091D01*
X37789010Y-41273082D01*
X37792686Y-41235759D01*
X37789010Y-41198436D01*
X37789010Y-40760000D01*
X43461928Y-40760000D01*
X43461928Y-40800000D01*
X43474188Y-40924482D01*
X43510498Y-41044180D01*
X43569463Y-41154494D01*
X43648815Y-41251185D01*
X43745506Y-41330537D01*
X43855820Y-41389502D01*
X43975518Y-41425812D01*
X44100000Y-41438072D01*
X44190000Y-41438072D01*
X44190000Y-42096289D01*
X44146063Y-42140226D01*
X44032795Y-42309744D01*
X43954774Y-42498102D01*
X43915000Y-42698061D01*
X43915000Y-42901939D01*
X43954774Y-43101898D01*
X44032795Y-43290256D01*
X44146063Y-43459774D01*
X44290226Y-43603937D01*
X44459744Y-43717205D01*
X44648102Y-43795226D01*
X44848061Y-43835000D01*
X45051939Y-43835000D01*
X45251898Y-43795226D01*
X45440256Y-43717205D01*
X45609774Y-43603937D01*
X45653711Y-43560000D01*
X61285199Y-43560000D01*
X64336928Y-46611730D01*
X64336928Y-47425000D01*
X64353992Y-47598254D01*
X64404528Y-47764850D01*
X64486595Y-47918386D01*
X64597038Y-48052962D01*
X64731614Y-48163405D01*
X64885150Y-48245472D01*
X65051746Y-48296008D01*
X65225000Y-48313072D01*
X65975000Y-48313072D01*
X66148254Y-48296008D01*
X66314850Y-48245472D01*
X66468386Y-48163405D01*
X66602962Y-48052962D01*
X66713405Y-47918386D01*
X66795472Y-47764850D01*
X66846008Y-47598254D01*
X66863072Y-47425000D01*
X66863072Y-46175000D01*
X66846008Y-46001746D01*
X66795472Y-45835150D01*
X66713405Y-45681614D01*
X66602962Y-45547038D01*
X66468386Y-45436595D01*
X66314850Y-45354528D01*
X66148254Y-45303992D01*
X65975000Y-45286928D01*
X65225000Y-45286928D01*
X65167403Y-45292601D01*
X62163804Y-42289003D01*
X62140001Y-42259999D01*
X62024276Y-42165026D01*
X61892247Y-42094454D01*
X61748986Y-42050997D01*
X61637333Y-42040000D01*
X61637322Y-42040000D01*
X61600000Y-42036324D01*
X61562678Y-42040000D01*
X45710000Y-42040000D01*
X45710000Y-41437087D01*
X45824482Y-41425812D01*
X45944180Y-41389502D01*
X46054494Y-41330537D01*
X46151185Y-41251185D01*
X46230537Y-41154494D01*
X46289502Y-41044180D01*
X46325812Y-40924482D01*
X46338072Y-40800000D01*
X46338072Y-39200000D01*
X46325812Y-39075518D01*
X46289502Y-38955820D01*
X46230537Y-38845506D01*
X46151185Y-38748815D01*
X46054494Y-38669463D01*
X45944180Y-38610498D01*
X45824482Y-38574188D01*
X45700000Y-38561928D01*
X45692785Y-38561928D01*
X45713097Y-38492702D01*
X44900000Y-37679605D01*
X44086903Y-38492702D01*
X44107215Y-38561928D01*
X44100000Y-38561928D01*
X43975518Y-38574188D01*
X43855820Y-38610498D01*
X43745506Y-38669463D01*
X43648815Y-38748815D01*
X43569463Y-38845506D01*
X43510498Y-38955820D01*
X43474188Y-39075518D01*
X43461928Y-39200000D01*
X43461928Y-39240000D01*
X37789010Y-39240000D01*
X37789010Y-38611332D01*
X37792686Y-38574009D01*
X37789010Y-38536686D01*
X37789010Y-38536677D01*
X37778013Y-38425024D01*
X37734556Y-38281763D01*
X37663984Y-38149734D01*
X37569011Y-38034009D01*
X37540008Y-38010207D01*
X37367804Y-37838003D01*
X37344001Y-37808999D01*
X37228276Y-37714026D01*
X37125469Y-37659074D01*
X37111251Y-37641749D01*
X37024449Y-37570512D01*
X43459783Y-37570512D01*
X43501213Y-37850130D01*
X43596397Y-38116292D01*
X43663329Y-38241514D01*
X43907298Y-38313097D01*
X44720395Y-37500000D01*
X45079605Y-37500000D01*
X45892702Y-38313097D01*
X46136671Y-38241514D01*
X46257571Y-37986004D01*
X46326300Y-37711816D01*
X46340217Y-37429488D01*
X46298787Y-37149870D01*
X46203603Y-36883708D01*
X46136671Y-36758486D01*
X45892702Y-36686903D01*
X45079605Y-37500000D01*
X44720395Y-37500000D01*
X43907298Y-36686903D01*
X43663329Y-36758486D01*
X43542429Y-37013996D01*
X43473700Y-37288184D01*
X43459783Y-37570512D01*
X37024449Y-37570512D01*
X36991829Y-37543742D01*
X36855582Y-37470916D01*
X36707745Y-37426071D01*
X36554000Y-37410928D01*
X34904000Y-37410928D01*
X34750255Y-37426071D01*
X34602418Y-37470916D01*
X34466171Y-37543742D01*
X34346749Y-37641749D01*
X34248742Y-37761171D01*
X34175916Y-37897418D01*
X34131071Y-38045255D01*
X34115928Y-38199000D01*
X32392072Y-38199000D01*
X32376929Y-38045255D01*
X32332084Y-37897418D01*
X32259258Y-37761171D01*
X32161251Y-37641749D01*
X32041829Y-37543742D01*
X31905582Y-37470916D01*
X31757745Y-37426071D01*
X31604000Y-37410928D01*
X29954000Y-37410928D01*
X29800255Y-37426071D01*
X29652418Y-37470916D01*
X29516171Y-37543742D01*
X29461024Y-37589000D01*
X27767072Y-37589000D01*
X27767072Y-37307729D01*
X28714802Y-36360000D01*
X44130122Y-36360000D01*
X44086903Y-36507298D01*
X44900000Y-37320395D01*
X45713097Y-36507298D01*
X45669878Y-36360000D01*
X48635199Y-36360000D01*
X52786200Y-40511002D01*
X52809999Y-40540001D01*
X52925724Y-40634974D01*
X52961928Y-40654326D01*
X52961928Y-40800000D01*
X52974188Y-40924482D01*
X53010498Y-41044180D01*
X53069463Y-41154494D01*
X53148815Y-41251185D01*
X53245506Y-41330537D01*
X53355820Y-41389502D01*
X53475518Y-41425812D01*
X53600000Y-41438072D01*
X55200000Y-41438072D01*
X55324482Y-41425812D01*
X55444180Y-41389502D01*
X55554494Y-41330537D01*
X55651185Y-41251185D01*
X55730537Y-41154494D01*
X55789502Y-41044180D01*
X55825812Y-40924482D01*
X55838072Y-40800000D01*
X55838072Y-40654326D01*
X55874276Y-40634974D01*
X55990001Y-40540001D01*
X56013804Y-40510997D01*
X60347000Y-36177801D01*
X64942201Y-40773003D01*
X64965999Y-40802001D01*
X65081724Y-40896974D01*
X65213753Y-40967546D01*
X65357014Y-41011003D01*
X65468667Y-41022000D01*
X65468676Y-41022000D01*
X65505999Y-41025676D01*
X65543322Y-41022000D01*
X84938661Y-41022000D01*
X84996595Y-41130386D01*
X85107038Y-41264962D01*
X85241614Y-41375405D01*
X85250192Y-41379990D01*
X76297332Y-41379990D01*
X76260009Y-41376314D01*
X76222686Y-41379990D01*
X76222677Y-41379990D01*
X76111024Y-41390987D01*
X75967763Y-41434444D01*
X75835734Y-41505016D01*
X75720009Y-41599989D01*
X75696211Y-41628987D01*
X72032598Y-45292601D01*
X71975000Y-45286928D01*
X71225000Y-45286928D01*
X71051746Y-45303992D01*
X70885150Y-45354528D01*
X70731614Y-45436595D01*
X70597038Y-45547038D01*
X70486595Y-45681614D01*
X70404528Y-45835150D01*
X70353992Y-46001746D01*
X70350224Y-46040000D01*
X69649776Y-46040000D01*
X69646008Y-46001746D01*
X69595472Y-45835150D01*
X69513405Y-45681614D01*
X69402962Y-45547038D01*
X69268386Y-45436595D01*
X69114850Y-45354528D01*
X68948254Y-45303992D01*
X68775000Y-45286928D01*
X68025000Y-45286928D01*
X67851746Y-45303992D01*
X67685150Y-45354528D01*
X67531614Y-45436595D01*
X67397038Y-45547038D01*
X67286595Y-45681614D01*
X67204528Y-45835150D01*
X67153992Y-46001746D01*
X67136928Y-46175000D01*
X67136928Y-47425000D01*
X67153992Y-47598254D01*
X67204528Y-47764850D01*
X67286595Y-47918386D01*
X67397038Y-48052962D01*
X67531614Y-48163405D01*
X67685150Y-48245472D01*
X67851746Y-48296008D01*
X68025000Y-48313072D01*
X68775000Y-48313072D01*
X68948254Y-48296008D01*
X69114850Y-48245472D01*
X69268386Y-48163405D01*
X69402962Y-48052962D01*
X69513405Y-47918386D01*
X69595472Y-47764850D01*
X69646008Y-47598254D01*
X69649776Y-47560000D01*
X70350224Y-47560000D01*
X70353992Y-47598254D01*
X70404528Y-47764850D01*
X70486595Y-47918386D01*
X70597038Y-48052962D01*
X70731614Y-48163405D01*
X70885150Y-48245472D01*
X71051746Y-48296008D01*
X71225000Y-48313072D01*
X71975000Y-48313072D01*
X72148254Y-48296008D01*
X72314850Y-48245472D01*
X72468386Y-48163405D01*
X72602962Y-48052962D01*
X72713405Y-47918386D01*
X72795472Y-47764850D01*
X72822727Y-47675000D01*
X73136928Y-47675000D01*
X73149188Y-47799482D01*
X73185498Y-47919180D01*
X73244463Y-48029494D01*
X73323815Y-48126185D01*
X73420506Y-48205537D01*
X73530820Y-48264502D01*
X73650518Y-48300812D01*
X73775000Y-48313072D01*
X74114250Y-48310000D01*
X74273000Y-48151250D01*
X74273000Y-46927000D01*
X74527000Y-46927000D01*
X74527000Y-48151250D01*
X74685750Y-48310000D01*
X75025000Y-48313072D01*
X75149482Y-48300812D01*
X75269180Y-48264502D01*
X75379494Y-48205537D01*
X75476185Y-48126185D01*
X75555537Y-48029494D01*
X75614502Y-47919180D01*
X75650812Y-47799482D01*
X75663072Y-47675000D01*
X75660000Y-47085750D01*
X75501250Y-46927000D01*
X74527000Y-46927000D01*
X74273000Y-46927000D01*
X73298750Y-46927000D01*
X73140000Y-47085750D01*
X73136928Y-47675000D01*
X72822727Y-47675000D01*
X72846008Y-47598254D01*
X72863072Y-47425000D01*
X72863072Y-46611729D01*
X73139069Y-46335732D01*
X73140000Y-46514250D01*
X73298750Y-46673000D01*
X74273000Y-46673000D01*
X74273000Y-45448750D01*
X74527000Y-45448750D01*
X74527000Y-46673000D01*
X75501250Y-46673000D01*
X75660000Y-46514250D01*
X75663072Y-45925000D01*
X75650812Y-45800518D01*
X75614502Y-45680820D01*
X75555537Y-45570506D01*
X75476185Y-45473815D01*
X75379494Y-45394463D01*
X75269180Y-45335498D01*
X75149482Y-45299188D01*
X75025000Y-45286928D01*
X74685750Y-45290000D01*
X74527000Y-45448750D01*
X74273000Y-45448750D01*
X74149526Y-45325276D01*
X75634802Y-43840000D01*
X96451928Y-43840000D01*
X96464188Y-43964482D01*
X96500498Y-44084180D01*
X96559463Y-44194494D01*
X96638815Y-44291185D01*
X96735506Y-44370537D01*
X96845820Y-44429502D01*
X96965518Y-44465812D01*
X97090000Y-44478072D01*
X97304250Y-44475000D01*
X97463000Y-44316250D01*
X97463000Y-42717000D01*
X96613750Y-42717000D01*
X96455000Y-42875750D01*
X96451928Y-43840000D01*
X75634802Y-43840000D01*
X76574812Y-42899990D01*
X91793878Y-42899990D01*
X91831200Y-42903666D01*
X91868522Y-42899990D01*
X91868533Y-42899990D01*
X91980186Y-42888993D01*
X92123447Y-42845536D01*
X92255476Y-42774964D01*
X92371201Y-42679991D01*
X92395004Y-42650987D01*
X93391992Y-41654000D01*
X96452928Y-41654000D01*
X96455000Y-42304250D01*
X96613750Y-42463000D01*
X97463000Y-42463000D01*
X97463000Y-42443000D01*
X97717000Y-42443000D01*
X97717000Y-42463000D01*
X97737000Y-42463000D01*
X97737000Y-42717000D01*
X97717000Y-42717000D01*
X97717000Y-44316250D01*
X97875750Y-44475000D01*
X98090000Y-44478072D01*
X98214482Y-44465812D01*
X98334180Y-44429502D01*
X98444494Y-44370537D01*
X98541185Y-44291185D01*
X98590000Y-44231704D01*
X98638815Y-44291185D01*
X98735506Y-44370537D01*
X98845820Y-44429502D01*
X98965518Y-44465812D01*
X99090000Y-44478072D01*
X100090000Y-44478072D01*
X100214482Y-44465812D01*
X100334180Y-44429502D01*
X100444494Y-44370537D01*
X100541185Y-44291185D01*
X100590000Y-44231704D01*
X100638815Y-44291185D01*
X100735506Y-44370537D01*
X100845820Y-44429502D01*
X100965518Y-44465812D01*
X101090000Y-44478072D01*
X102090000Y-44478072D01*
X102214482Y-44465812D01*
X102334180Y-44429502D01*
X102444494Y-44370537D01*
X102541185Y-44291185D01*
X102590000Y-44231704D01*
X102638815Y-44291185D01*
X102735506Y-44370537D01*
X102845820Y-44429502D01*
X102965518Y-44465812D01*
X103090000Y-44478072D01*
X104090000Y-44478072D01*
X104214482Y-44465812D01*
X104334180Y-44429502D01*
X104444494Y-44370537D01*
X104541185Y-44291185D01*
X104590000Y-44231704D01*
X104638815Y-44291185D01*
X104735506Y-44370537D01*
X104845820Y-44429502D01*
X104965518Y-44465812D01*
X105090000Y-44478072D01*
X105504517Y-44478072D01*
X105430774Y-44656102D01*
X105391000Y-44856061D01*
X105391000Y-45059939D01*
X105430774Y-45259898D01*
X105508795Y-45448256D01*
X105622063Y-45617774D01*
X105666001Y-45661712D01*
X105666001Y-46088668D01*
X105662324Y-46126000D01*
X105666001Y-46163333D01*
X105676998Y-46274986D01*
X105684278Y-46298985D01*
X105720454Y-46418246D01*
X105791026Y-46550276D01*
X105862201Y-46637002D01*
X105886000Y-46666001D01*
X105914998Y-46689799D01*
X106036928Y-46811729D01*
X106036928Y-47625000D01*
X106053992Y-47798254D01*
X106104528Y-47964850D01*
X106186595Y-48118386D01*
X106297038Y-48252962D01*
X106431614Y-48363405D01*
X106585150Y-48445472D01*
X106751746Y-48496008D01*
X106925000Y-48513072D01*
X107675000Y-48513072D01*
X107848254Y-48496008D01*
X108014850Y-48445472D01*
X108168386Y-48363405D01*
X108302962Y-48252962D01*
X108413405Y-48118386D01*
X108495472Y-47964850D01*
X108522727Y-47875000D01*
X108836928Y-47875000D01*
X108849188Y-47999482D01*
X108885498Y-48119180D01*
X108944463Y-48229494D01*
X109023815Y-48326185D01*
X109120506Y-48405537D01*
X109230820Y-48464502D01*
X109350518Y-48500812D01*
X109475000Y-48513072D01*
X109814250Y-48510000D01*
X109973000Y-48351250D01*
X109973000Y-47127000D01*
X110227000Y-47127000D01*
X110227000Y-48351250D01*
X110385750Y-48510000D01*
X110725000Y-48513072D01*
X110849482Y-48500812D01*
X110969180Y-48464502D01*
X111079494Y-48405537D01*
X111176185Y-48326185D01*
X111255537Y-48229494D01*
X111314502Y-48119180D01*
X111350812Y-47999482D01*
X111363072Y-47875000D01*
X111360000Y-47285750D01*
X111201250Y-47127000D01*
X110227000Y-47127000D01*
X109973000Y-47127000D01*
X108998750Y-47127000D01*
X108840000Y-47285750D01*
X108836928Y-47875000D01*
X108522727Y-47875000D01*
X108546008Y-47798254D01*
X108563072Y-47625000D01*
X108563072Y-46375000D01*
X108546008Y-46201746D01*
X108522728Y-46125000D01*
X108836928Y-46125000D01*
X108840000Y-46714250D01*
X108998750Y-46873000D01*
X109973000Y-46873000D01*
X109973000Y-45648750D01*
X110227000Y-45648750D01*
X110227000Y-46873000D01*
X111201250Y-46873000D01*
X111360000Y-46714250D01*
X111363072Y-46125000D01*
X111350812Y-46000518D01*
X111314502Y-45880820D01*
X111255537Y-45770506D01*
X111176185Y-45673815D01*
X111079494Y-45594463D01*
X110969180Y-45535498D01*
X110849482Y-45499188D01*
X110725000Y-45486928D01*
X110385750Y-45490000D01*
X110227000Y-45648750D01*
X109973000Y-45648750D01*
X109814250Y-45490000D01*
X109475000Y-45486928D01*
X109350518Y-45499188D01*
X109230820Y-45535498D01*
X109120506Y-45594463D01*
X109023815Y-45673815D01*
X108944463Y-45770506D01*
X108885498Y-45880820D01*
X108849188Y-46000518D01*
X108836928Y-46125000D01*
X108522728Y-46125000D01*
X108495472Y-46035150D01*
X108413405Y-45881614D01*
X108302962Y-45747038D01*
X108168386Y-45636595D01*
X108014850Y-45554528D01*
X107848254Y-45503992D01*
X107675000Y-45486928D01*
X107317365Y-45486928D01*
X107343205Y-45448256D01*
X107421226Y-45259898D01*
X107461000Y-45059939D01*
X107461000Y-44856061D01*
X107421226Y-44656102D01*
X107347483Y-44478072D01*
X108090000Y-44478072D01*
X108214482Y-44465812D01*
X108334180Y-44429502D01*
X108444494Y-44370537D01*
X108541185Y-44291185D01*
X108590000Y-44231704D01*
X108638815Y-44291185D01*
X108735506Y-44370537D01*
X108845820Y-44429502D01*
X108965518Y-44465812D01*
X109090000Y-44478072D01*
X110090000Y-44478072D01*
X110214482Y-44465812D01*
X110334180Y-44429502D01*
X110444494Y-44370537D01*
X110541185Y-44291185D01*
X110590000Y-44231704D01*
X110638815Y-44291185D01*
X110735506Y-44370537D01*
X110845820Y-44429502D01*
X110965518Y-44465812D01*
X111090000Y-44478072D01*
X112090000Y-44478072D01*
X112214482Y-44465812D01*
X112334180Y-44429502D01*
X112444494Y-44370537D01*
X112493000Y-44330729D01*
X112493000Y-49179015D01*
X105691117Y-49179015D01*
X105691117Y-48150120D01*
X105694673Y-48114015D01*
X105680482Y-47969930D01*
X105638454Y-47831382D01*
X105570204Y-47703695D01*
X105478355Y-47591777D01*
X105366437Y-47499928D01*
X105238750Y-47431678D01*
X105100202Y-47389650D01*
X104992222Y-47379015D01*
X104956117Y-47375459D01*
X104920012Y-47379015D01*
X84992231Y-47379015D01*
X84956126Y-47375459D01*
X84920021Y-47379015D01*
X84812041Y-47389650D01*
X84673493Y-47431678D01*
X84545806Y-47499928D01*
X84433888Y-47591777D01*
X84342039Y-47703695D01*
X84273789Y-47831382D01*
X84231761Y-47969930D01*
X84217570Y-48114015D01*
X84221126Y-48150120D01*
X84221126Y-49179015D01*
X55691121Y-49179015D01*
X55691121Y-48150120D01*
X55694677Y-48114015D01*
X55680486Y-47969930D01*
X55638458Y-47831382D01*
X55570208Y-47703695D01*
X55478359Y-47591777D01*
X55366441Y-47499928D01*
X55238754Y-47431678D01*
X55100206Y-47389650D01*
X54992226Y-47379015D01*
X54956121Y-47375459D01*
X54920016Y-47379015D01*
X34992226Y-47379015D01*
X34956121Y-47375459D01*
X34920016Y-47379015D01*
X34812036Y-47389650D01*
X34673488Y-47431678D01*
X34545801Y-47499928D01*
X34433883Y-47591777D01*
X34342034Y-47703695D01*
X34273784Y-47831382D01*
X34231756Y-47969930D01*
X34217565Y-48114015D01*
X34221121Y-48150120D01*
X34221121Y-49179015D01*
X23992848Y-49179015D01*
X23294651Y-49109046D01*
X22716813Y-48930420D01*
X21654671Y-48215468D01*
X20939717Y-47153327D01*
X20761090Y-46575484D01*
X20691121Y-45877286D01*
X20691121Y-28030000D01*
X23007815Y-28030000D01*
X23036487Y-28321111D01*
X23121401Y-28601034D01*
X23259294Y-28859014D01*
X23444866Y-29085134D01*
X23670986Y-29270706D01*
X23725791Y-29300000D01*
X23670986Y-29329294D01*
X23444866Y-29514866D01*
X23259294Y-29740986D01*
X23121401Y-29998966D01*
X23036487Y-30278889D01*
X23007815Y-30570000D01*
X23036487Y-30861111D01*
X23121401Y-31141034D01*
X23259294Y-31399014D01*
X23444866Y-31625134D01*
X23670986Y-31810706D01*
X23928966Y-31948599D01*
X24208889Y-32033513D01*
X24427050Y-32055000D01*
X24572950Y-32055000D01*
X24791111Y-32033513D01*
X25071034Y-31948599D01*
X25329014Y-31810706D01*
X25555134Y-31625134D01*
X25740706Y-31399014D01*
X25878599Y-31141034D01*
X25963513Y-30861111D01*
X25992185Y-30570000D01*
X25963513Y-30278889D01*
X25878599Y-29998966D01*
X25740706Y-29740986D01*
X25555134Y-29514866D01*
X25329014Y-29329294D01*
X25274209Y-29300000D01*
X25329014Y-29270706D01*
X25555134Y-29085134D01*
X25740706Y-28859014D01*
X25878599Y-28601034D01*
X25963513Y-28321111D01*
X25987260Y-28080000D01*
X52507815Y-28080000D01*
X52536487Y-28371111D01*
X52621401Y-28651034D01*
X52759294Y-28909014D01*
X52944866Y-29135134D01*
X53170986Y-29320706D01*
X53225791Y-29350000D01*
X53170986Y-29379294D01*
X52944866Y-29564866D01*
X52759294Y-29790986D01*
X52621401Y-30048966D01*
X52536487Y-30328889D01*
X52507815Y-30620000D01*
X52536487Y-30911111D01*
X52621401Y-31191034D01*
X52759294Y-31449014D01*
X52944866Y-31675134D01*
X53170986Y-31860706D01*
X53225791Y-31890000D01*
X53170986Y-31919294D01*
X52944866Y-32104866D01*
X52759294Y-32330986D01*
X52621401Y-32588966D01*
X52536487Y-32868889D01*
X52507815Y-33160000D01*
X52536487Y-33451111D01*
X52621401Y-33731034D01*
X52759294Y-33989014D01*
X52944866Y-34215134D01*
X53170986Y-34400706D01*
X53428966Y-34538599D01*
X53708889Y-34623513D01*
X53927050Y-34645000D01*
X54072950Y-34645000D01*
X54291111Y-34623513D01*
X54571034Y-34538599D01*
X54829014Y-34400706D01*
X55055134Y-34215134D01*
X55240706Y-33989014D01*
X55378599Y-33731034D01*
X55463513Y-33451111D01*
X55492185Y-33160000D01*
X55463513Y-32868889D01*
X55378599Y-32588966D01*
X55240706Y-32330986D01*
X55055134Y-32104866D01*
X54829014Y-31919294D01*
X54774209Y-31890000D01*
X54829014Y-31860706D01*
X55055134Y-31675134D01*
X55240706Y-31449014D01*
X55378599Y-31191034D01*
X55463513Y-30911111D01*
X55492185Y-30620000D01*
X55463513Y-30328889D01*
X55378599Y-30048966D01*
X55240706Y-29790986D01*
X55055134Y-29564866D01*
X54829014Y-29379294D01*
X54774209Y-29350000D01*
X54829014Y-29320706D01*
X55055134Y-29135134D01*
X55240706Y-28909014D01*
X55378599Y-28651034D01*
X55463513Y-28371111D01*
X55492185Y-28080000D01*
X55463513Y-27788889D01*
X55378599Y-27508966D01*
X55240706Y-27250986D01*
X55055134Y-27024866D01*
X54829014Y-26839294D01*
X54764477Y-26804799D01*
X54881355Y-26735178D01*
X55097588Y-26540269D01*
X55271641Y-26306920D01*
X55396825Y-26044099D01*
X55441476Y-25896890D01*
X55320155Y-25667000D01*
X54127000Y-25667000D01*
X54127000Y-25687000D01*
X53873000Y-25687000D01*
X53873000Y-25667000D01*
X52679845Y-25667000D01*
X52558524Y-25896890D01*
X52603175Y-26044099D01*
X52728359Y-26306920D01*
X52902412Y-26540269D01*
X53118645Y-26735178D01*
X53235523Y-26804799D01*
X53170986Y-26839294D01*
X52944866Y-27024866D01*
X52759294Y-27250986D01*
X52621401Y-27508966D01*
X52536487Y-27788889D01*
X52507815Y-28080000D01*
X25987260Y-28080000D01*
X25992185Y-28030000D01*
X25963513Y-27738889D01*
X25878599Y-27458966D01*
X25740706Y-27200986D01*
X25555134Y-26974866D01*
X25329014Y-26789294D01*
X25264477Y-26754799D01*
X25381355Y-26685178D01*
X25597588Y-26490269D01*
X25771641Y-26256920D01*
X25896825Y-25994099D01*
X25941476Y-25846890D01*
X25820155Y-25617000D01*
X24627000Y-25617000D01*
X24627000Y-25637000D01*
X24373000Y-25637000D01*
X24373000Y-25617000D01*
X23179845Y-25617000D01*
X23058524Y-25846890D01*
X23103175Y-25994099D01*
X23228359Y-26256920D01*
X23402412Y-26490269D01*
X23618645Y-26685178D01*
X23735523Y-26754799D01*
X23670986Y-26789294D01*
X23444866Y-26974866D01*
X23259294Y-27200986D01*
X23121401Y-27458966D01*
X23036487Y-27738889D01*
X23007815Y-28030000D01*
X20691121Y-28030000D01*
X20691121Y-23973354D01*
X20761090Y-23275156D01*
X20939717Y-22697313D01*
X21341783Y-22100000D01*
X23011928Y-22100000D01*
X23011928Y-23800000D01*
X23024188Y-23924482D01*
X23060498Y-24044180D01*
X23119463Y-24154494D01*
X23198815Y-24251185D01*
X23295506Y-24330537D01*
X23405820Y-24389502D01*
X23486466Y-24413966D01*
X23402412Y-24489731D01*
X23228359Y-24723080D01*
X23103175Y-24985901D01*
X23058524Y-25133110D01*
X23179845Y-25363000D01*
X24373000Y-25363000D01*
X24373000Y-25343000D01*
X24627000Y-25343000D01*
X24627000Y-25363000D01*
X25820155Y-25363000D01*
X25941476Y-25133110D01*
X25896825Y-24985901D01*
X25771641Y-24723080D01*
X25597588Y-24489731D01*
X25513534Y-24413966D01*
X25594180Y-24389502D01*
X25704494Y-24330537D01*
X25801185Y-24251185D01*
X25880537Y-24154494D01*
X25939502Y-24044180D01*
X25975812Y-23924482D01*
X25988072Y-23800000D01*
X25988072Y-22150000D01*
X52511928Y-22150000D01*
X52511928Y-23850000D01*
X52524188Y-23974482D01*
X52560498Y-24094180D01*
X52619463Y-24204494D01*
X52698815Y-24301185D01*
X52795506Y-24380537D01*
X52905820Y-24439502D01*
X52986466Y-24463966D01*
X52902412Y-24539731D01*
X52728359Y-24773080D01*
X52603175Y-25035901D01*
X52558524Y-25183110D01*
X52679845Y-25413000D01*
X53873000Y-25413000D01*
X53873000Y-25393000D01*
X54127000Y-25393000D01*
X54127000Y-25413000D01*
X55320155Y-25413000D01*
X55441476Y-25183110D01*
X55396825Y-25035901D01*
X55271641Y-24773080D01*
X55097588Y-24539731D01*
X55013534Y-24463966D01*
X55094180Y-24439502D01*
X55204494Y-24380537D01*
X55301185Y-24301185D01*
X55380537Y-24204494D01*
X55439502Y-24094180D01*
X55475812Y-23974482D01*
X55488072Y-23850000D01*
X55488072Y-22150000D01*
X55475812Y-22025518D01*
X55439502Y-21905820D01*
X55380537Y-21795506D01*
X55301185Y-21698815D01*
X55204494Y-21619463D01*
X55094180Y-21560498D01*
X54974482Y-21524188D01*
X54850000Y-21511928D01*
X53150000Y-21511928D01*
X53025518Y-21524188D01*
X52905820Y-21560498D01*
X52795506Y-21619463D01*
X52698815Y-21698815D01*
X52619463Y-21795506D01*
X52560498Y-21905820D01*
X52524188Y-22025518D01*
X52511928Y-22150000D01*
X25988072Y-22150000D01*
X25988072Y-22100000D01*
X25975812Y-21975518D01*
X25939502Y-21855820D01*
X25880537Y-21745506D01*
X25801185Y-21648815D01*
X25704494Y-21569463D01*
X25594180Y-21510498D01*
X25474482Y-21474188D01*
X25350000Y-21461928D01*
X23650000Y-21461928D01*
X23525518Y-21474188D01*
X23405820Y-21510498D01*
X23295506Y-21569463D01*
X23198815Y-21648815D01*
X23119463Y-21745506D01*
X23060498Y-21855820D01*
X23024188Y-21975518D01*
X23011928Y-22100000D01*
X21341783Y-22100000D01*
X21654671Y-21635172D01*
X22716814Y-20920219D01*
X23294650Y-20741595D01*
X23992850Y-20671625D01*
X62240397Y-20671625D01*
X62212498Y-20723820D01*
G36*
X91967000Y-23073000D02*
G01*
X91987000Y-23073000D01*
X91987000Y-23327000D01*
X91967000Y-23327000D01*
X91967000Y-24520155D01*
X92196890Y-24641476D01*
X92344099Y-24596825D01*
X92606920Y-24471641D01*
X92840269Y-24297588D01*
X93035178Y-24081355D01*
X93104799Y-23964477D01*
X93139294Y-24029014D01*
X93324866Y-24255134D01*
X93550986Y-24440706D01*
X93808966Y-24578599D01*
X94088889Y-24663513D01*
X94307050Y-24685000D01*
X94452950Y-24685000D01*
X94671111Y-24663513D01*
X94951034Y-24578599D01*
X95209014Y-24440706D01*
X95435134Y-24255134D01*
X95620706Y-24029014D01*
X95650000Y-23974209D01*
X95679294Y-24029014D01*
X95864866Y-24255134D01*
X96090986Y-24440706D01*
X96348966Y-24578599D01*
X96628889Y-24663513D01*
X96847050Y-24685000D01*
X96992950Y-24685000D01*
X97211111Y-24663513D01*
X97491034Y-24578599D01*
X97749014Y-24440706D01*
X97975134Y-24255134D01*
X98160706Y-24029014D01*
X98190000Y-23974209D01*
X98219294Y-24029014D01*
X98404866Y-24255134D01*
X98630986Y-24440706D01*
X98888966Y-24578599D01*
X99168889Y-24663513D01*
X99387050Y-24685000D01*
X99532950Y-24685000D01*
X99751111Y-24663513D01*
X100031034Y-24578599D01*
X100289014Y-24440706D01*
X100515134Y-24255134D01*
X100539607Y-24225313D01*
X100560498Y-24294180D01*
X100619463Y-24404494D01*
X100698815Y-24501185D01*
X100712655Y-24512543D01*
X100170200Y-25054999D01*
X90497321Y-25054999D01*
X90459998Y-25051323D01*
X90422675Y-25054999D01*
X90422666Y-25054999D01*
X90311013Y-25065996D01*
X90167752Y-25109453D01*
X90035723Y-25180025D01*
X90035721Y-25180026D01*
X90035722Y-25180026D01*
X89948995Y-25251200D01*
X89948991Y-25251204D01*
X89919998Y-25274998D01*
X89896204Y-25303991D01*
X88643002Y-26557195D01*
X88613999Y-26580997D01*
X88573784Y-26630000D01*
X88519026Y-26696722D01*
X88452030Y-26822061D01*
X88448454Y-26828752D01*
X88404997Y-26972013D01*
X88394000Y-27083666D01*
X88394000Y-27083676D01*
X88390324Y-27120998D01*
X88394000Y-27158321D01*
X88394001Y-32223288D01*
X88350063Y-32267226D01*
X88236795Y-32436744D01*
X88158774Y-32625102D01*
X88119000Y-32825061D01*
X88119000Y-33028939D01*
X88158774Y-33228898D01*
X88236795Y-33417256D01*
X88350063Y-33586774D01*
X88494226Y-33730937D01*
X88663744Y-33844205D01*
X88852102Y-33922226D01*
X89052061Y-33962000D01*
X89255939Y-33962000D01*
X89455898Y-33922226D01*
X89644256Y-33844205D01*
X89813774Y-33730937D01*
X89957937Y-33586774D01*
X90071205Y-33417256D01*
X90149226Y-33228898D01*
X90189000Y-33028939D01*
X90189000Y-32825061D01*
X90149226Y-32625102D01*
X90071205Y-32436744D01*
X89957937Y-32267226D01*
X89914000Y-32223289D01*
X89914000Y-30648000D01*
X91704928Y-30648000D01*
X91717188Y-30772482D01*
X91753498Y-30892180D01*
X91812463Y-31002494D01*
X91891815Y-31099185D01*
X91988506Y-31178537D01*
X92098820Y-31237502D01*
X92218518Y-31273812D01*
X92343000Y-31286072D01*
X92932250Y-31283000D01*
X93091000Y-31124250D01*
X93091000Y-30062500D01*
X91866750Y-30062500D01*
X91708000Y-30221250D01*
X91704928Y-30648000D01*
X89914000Y-30648000D01*
X89914000Y-29223000D01*
X91704928Y-29223000D01*
X91708000Y-29649750D01*
X91866750Y-29808500D01*
X93091000Y-29808500D01*
X93091000Y-28746750D01*
X92932250Y-28588000D01*
X92343000Y-28584928D01*
X92218518Y-28597188D01*
X92098820Y-28633498D01*
X91988506Y-28692463D01*
X91891815Y-28771815D01*
X91812463Y-28868506D01*
X91753498Y-28978820D01*
X91717188Y-29098518D01*
X91704928Y-29223000D01*
X89914000Y-29223000D01*
X89914000Y-27828013D01*
X89933744Y-27841205D01*
X90122102Y-27919226D01*
X90322061Y-27959000D01*
X90525939Y-27959000D01*
X90725898Y-27919226D01*
X90914256Y-27841205D01*
X91083774Y-27727937D01*
X91091211Y-27720500D01*
X91759681Y-27720500D01*
X91772528Y-27762850D01*
X91854595Y-27916386D01*
X91965038Y-28050962D01*
X92099614Y-28161405D01*
X92253150Y-28243472D01*
X92419746Y-28294008D01*
X92593000Y-28311072D01*
X93843000Y-28311072D01*
X94016254Y-28294008D01*
X94182850Y-28243472D01*
X94336386Y-28161405D01*
X94350283Y-28150000D01*
X96451928Y-28150000D01*
X96451928Y-28640000D01*
X96464188Y-28764482D01*
X96490714Y-28851928D01*
X95190000Y-28851928D01*
X95065518Y-28864188D01*
X94945820Y-28900498D01*
X94835506Y-28959463D01*
X94738815Y-29038815D01*
X94710987Y-29072723D01*
X94682502Y-28978820D01*
X94623537Y-28868506D01*
X94544185Y-28771815D01*
X94447494Y-28692463D01*
X94337180Y-28633498D01*
X94217482Y-28597188D01*
X94093000Y-28584928D01*
X93503750Y-28588000D01*
X93345000Y-28746750D01*
X93345000Y-29808500D01*
X93365000Y-29808500D01*
X93365000Y-30062500D01*
X93345000Y-30062500D01*
X93345000Y-31124250D01*
X93503750Y-31283000D01*
X94093000Y-31286072D01*
X94217482Y-31273812D01*
X94337180Y-31237502D01*
X94447494Y-31178537D01*
X94544185Y-31099185D01*
X94623537Y-31002494D01*
X94682502Y-30892180D01*
X94686846Y-30877860D01*
X94738815Y-30941185D01*
X94798296Y-30990000D01*
X94738815Y-31038815D01*
X94659463Y-31135506D01*
X94600498Y-31245820D01*
X94564188Y-31365518D01*
X94551928Y-31490000D01*
X94551928Y-32490000D01*
X94564188Y-32614482D01*
X94600498Y-32734180D01*
X94659463Y-32844494D01*
X94738815Y-32941185D01*
X94798296Y-32990000D01*
X94738815Y-33038815D01*
X94659463Y-33135506D01*
X94600498Y-33245820D01*
X94564188Y-33365518D01*
X94551928Y-33490000D01*
X94551928Y-34490000D01*
X94564188Y-34614482D01*
X94600498Y-34734180D01*
X94659463Y-34844494D01*
X94738815Y-34941185D01*
X94798296Y-34990000D01*
X94738815Y-35038815D01*
X94659463Y-35135506D01*
X94600498Y-35245820D01*
X94564188Y-35365518D01*
X94551928Y-35490000D01*
X94551928Y-36055001D01*
X93555324Y-36055001D01*
X93517999Y-36051325D01*
X93480674Y-36055001D01*
X93480666Y-36055001D01*
X93369013Y-36065998D01*
X93225752Y-36109455D01*
X93093723Y-36180027D01*
X92996925Y-36259467D01*
X92912850Y-36214528D01*
X92746254Y-36163992D01*
X92573000Y-36146928D01*
X91323000Y-36146928D01*
X91149746Y-36163992D01*
X90983150Y-36214528D01*
X90829614Y-36296595D01*
X90695038Y-36407038D01*
X90584595Y-36541614D01*
X90537103Y-36630466D01*
X90517405Y-36593614D01*
X90406962Y-36459038D01*
X90272386Y-36348595D01*
X90118850Y-36266528D01*
X90090406Y-36257900D01*
X90149226Y-36115898D01*
X90189000Y-35915939D01*
X90189000Y-35712061D01*
X90149226Y-35512102D01*
X90071205Y-35323744D01*
X89957937Y-35154226D01*
X89813774Y-35010063D01*
X89644256Y-34896795D01*
X89455898Y-34818774D01*
X89255939Y-34779000D01*
X89052061Y-34779000D01*
X88852102Y-34818774D01*
X88663744Y-34896795D01*
X88494226Y-35010063D01*
X88350063Y-35154226D01*
X88236795Y-35323744D01*
X88158774Y-35512102D01*
X88119000Y-35712061D01*
X88119000Y-35915939D01*
X88158774Y-36115898D01*
X88217594Y-36257900D01*
X88189150Y-36266528D01*
X88035614Y-36348595D01*
X87901038Y-36459038D01*
X87790595Y-36593614D01*
X87757000Y-36656466D01*
X87723405Y-36593614D01*
X87612962Y-36459038D01*
X87478386Y-36348595D01*
X87324850Y-36266528D01*
X87296406Y-36257900D01*
X87355226Y-36115898D01*
X87395000Y-35915939D01*
X87395000Y-35712061D01*
X87355226Y-35512102D01*
X87277205Y-35323744D01*
X87163937Y-35154226D01*
X87019774Y-35010063D01*
X86850256Y-34896795D01*
X86661898Y-34818774D01*
X86461939Y-34779000D01*
X86258061Y-34779000D01*
X86058102Y-34818774D01*
X85869744Y-34896795D01*
X85700226Y-35010063D01*
X85556063Y-35154226D01*
X85442795Y-35323744D01*
X85364774Y-35512102D01*
X85325000Y-35712061D01*
X85325000Y-35915939D01*
X85364774Y-36115898D01*
X85423594Y-36257900D01*
X85395150Y-36266528D01*
X85241614Y-36348595D01*
X85107038Y-36459038D01*
X84996595Y-36593614D01*
X84914528Y-36747150D01*
X84863992Y-36913746D01*
X84846928Y-37087000D01*
X84846928Y-37837000D01*
X84863992Y-38010254D01*
X84914528Y-38176850D01*
X84996595Y-38330386D01*
X85107038Y-38464962D01*
X85241614Y-38575405D01*
X85395150Y-38657472D01*
X85561746Y-38708008D01*
X85735000Y-38725072D01*
X86985000Y-38725072D01*
X87158254Y-38708008D01*
X87324850Y-38657472D01*
X87478386Y-38575405D01*
X87612962Y-38464962D01*
X87723405Y-38330386D01*
X87757000Y-38267534D01*
X87790595Y-38330386D01*
X87901038Y-38464962D01*
X88035614Y-38575405D01*
X88189150Y-38657472D01*
X88355746Y-38708008D01*
X88529000Y-38725072D01*
X89779000Y-38725072D01*
X89952254Y-38708008D01*
X90118850Y-38657472D01*
X90272386Y-38575405D01*
X90406962Y-38464962D01*
X90517405Y-38330386D01*
X90564897Y-38241534D01*
X90584595Y-38278386D01*
X90695038Y-38412962D01*
X90829614Y-38523405D01*
X90983150Y-38605472D01*
X91149746Y-38656008D01*
X91323000Y-38673072D01*
X92573000Y-38673072D01*
X92746254Y-38656008D01*
X92912850Y-38605472D01*
X93066386Y-38523405D01*
X93200962Y-38412962D01*
X93311405Y-38278386D01*
X93393472Y-38124850D01*
X93441046Y-37968019D01*
X93463001Y-37950001D01*
X93486803Y-37920998D01*
X93832801Y-37575001D01*
X94551928Y-37575001D01*
X94551928Y-38490000D01*
X94564188Y-38614482D01*
X94600498Y-38734180D01*
X94659463Y-38844494D01*
X94738815Y-38941185D01*
X94798296Y-38990000D01*
X94738815Y-39038815D01*
X94659463Y-39135506D01*
X94600498Y-39245820D01*
X94564188Y-39365518D01*
X94551928Y-39490000D01*
X94551928Y-40134000D01*
X93461072Y-40134000D01*
X93461072Y-39835000D01*
X93444008Y-39661746D01*
X93393472Y-39495150D01*
X93311405Y-39341614D01*
X93200962Y-39207038D01*
X93066386Y-39096595D01*
X92912850Y-39014528D01*
X92746254Y-38963992D01*
X92573000Y-38946928D01*
X91323000Y-38946928D01*
X91149746Y-38963992D01*
X90983150Y-39014528D01*
X90829614Y-39096595D01*
X90695038Y-39207038D01*
X90584595Y-39341614D01*
X90537103Y-39430466D01*
X90517405Y-39393614D01*
X90406962Y-39259038D01*
X90272386Y-39148595D01*
X90118850Y-39066528D01*
X89952254Y-39015992D01*
X89779000Y-38998928D01*
X88529000Y-38998928D01*
X88355746Y-39015992D01*
X88189150Y-39066528D01*
X88035614Y-39148595D01*
X87901038Y-39259038D01*
X87790595Y-39393614D01*
X87760456Y-39450000D01*
X87753544Y-39450000D01*
X87723405Y-39393614D01*
X87612962Y-39259038D01*
X87478386Y-39148595D01*
X87324850Y-39066528D01*
X87158254Y-39015992D01*
X86985000Y-38998928D01*
X85735000Y-38998928D01*
X85561746Y-39015992D01*
X85395150Y-39066528D01*
X85241614Y-39148595D01*
X85107038Y-39259038D01*
X84996595Y-39393614D01*
X84938661Y-39502000D01*
X65820802Y-39502000D01*
X61421802Y-35103000D01*
X62187008Y-34337795D01*
X62216001Y-34314001D01*
X62239795Y-34285008D01*
X62239799Y-34285004D01*
X62310973Y-34198277D01*
X62310974Y-34198276D01*
X62381546Y-34066247D01*
X62425003Y-33922986D01*
X62436000Y-33811333D01*
X62436000Y-33811324D01*
X62439676Y-33774001D01*
X62436000Y-33736678D01*
X62436000Y-32982829D01*
X62510595Y-33122386D01*
X62621038Y-33256962D01*
X62755614Y-33367405D01*
X62909150Y-33449472D01*
X63075746Y-33500008D01*
X63249000Y-33517072D01*
X63999000Y-33517072D01*
X64172254Y-33500008D01*
X64338850Y-33449472D01*
X64492386Y-33367405D01*
X64626962Y-33256962D01*
X64737405Y-33122386D01*
X64819472Y-32968850D01*
X64846727Y-32879000D01*
X65160928Y-32879000D01*
X65173188Y-33003482D01*
X65209498Y-33123180D01*
X65268463Y-33233494D01*
X65347815Y-33330185D01*
X65444506Y-33409537D01*
X65554820Y-33468502D01*
X65674518Y-33504812D01*
X65799000Y-33517072D01*
X66138250Y-33514000D01*
X66297000Y-33355250D01*
X66297000Y-32131000D01*
X66551000Y-32131000D01*
X66551000Y-33355250D01*
X66709750Y-33514000D01*
X67049000Y-33517072D01*
X67173482Y-33504812D01*
X67293180Y-33468502D01*
X67403494Y-33409537D01*
X67500185Y-33330185D01*
X67579537Y-33233494D01*
X67638502Y-33123180D01*
X67674812Y-33003482D01*
X67687072Y-32879000D01*
X67684000Y-32289750D01*
X67525250Y-32131000D01*
X66551000Y-32131000D01*
X66297000Y-32131000D01*
X65322750Y-32131000D01*
X65164000Y-32289750D01*
X65160928Y-32879000D01*
X64846727Y-32879000D01*
X64870008Y-32802254D01*
X64887072Y-32629000D01*
X64887072Y-31379000D01*
X64870008Y-31205746D01*
X64846728Y-31129000D01*
X65160928Y-31129000D01*
X65164000Y-31718250D01*
X65322750Y-31877000D01*
X66297000Y-31877000D01*
X66297000Y-30652750D01*
X66551000Y-30652750D01*
X66551000Y-31877000D01*
X67525250Y-31877000D01*
X67684000Y-31718250D01*
X67687072Y-31129000D01*
X67674812Y-31004518D01*
X67638502Y-30884820D01*
X67579537Y-30774506D01*
X67500185Y-30677815D01*
X67403494Y-30598463D01*
X67293180Y-30539498D01*
X67173482Y-30503188D01*
X67049000Y-30490928D01*
X66709750Y-30494000D01*
X66551000Y-30652750D01*
X66297000Y-30652750D01*
X66138250Y-30494000D01*
X65799000Y-30490928D01*
X65674518Y-30503188D01*
X65554820Y-30539498D01*
X65444506Y-30598463D01*
X65347815Y-30677815D01*
X65268463Y-30774506D01*
X65209498Y-30884820D01*
X65173188Y-31004518D01*
X65160928Y-31129000D01*
X64846728Y-31129000D01*
X64819472Y-31039150D01*
X64737405Y-30885614D01*
X64626962Y-30751038D01*
X64492386Y-30640595D01*
X64462000Y-30624353D01*
X64462000Y-26406072D01*
X64602000Y-26406072D01*
X64726482Y-26393812D01*
X64846180Y-26357502D01*
X64956494Y-26298537D01*
X65053185Y-26219185D01*
X65132537Y-26122494D01*
X65191502Y-26012180D01*
X65201870Y-25978000D01*
X68402130Y-25978000D01*
X68412498Y-26012180D01*
X68471463Y-26122494D01*
X68550815Y-26219185D01*
X68647506Y-26298537D01*
X68757820Y-26357502D01*
X68877518Y-26393812D01*
X69002000Y-26406072D01*
X70802000Y-26406072D01*
X70926482Y-26393812D01*
X71046180Y-26357502D01*
X71156494Y-26298537D01*
X71161597Y-26294349D01*
X71169453Y-26320247D01*
X71240025Y-26452277D01*
X71292915Y-26516723D01*
X71334999Y-26568002D01*
X71363997Y-26591800D01*
X77033199Y-32261003D01*
X77056997Y-32290001D01*
X77085995Y-32313799D01*
X77172722Y-32384974D01*
X77304751Y-32455546D01*
X77448012Y-32499003D01*
X77596998Y-32513677D01*
X77634331Y-32510000D01*
X85656289Y-32510000D01*
X85700226Y-32553937D01*
X85869744Y-32667205D01*
X86058102Y-32745226D01*
X86258061Y-32785000D01*
X86461939Y-32785000D01*
X86661898Y-32745226D01*
X86850256Y-32667205D01*
X87019774Y-32553937D01*
X87163937Y-32409774D01*
X87277205Y-32240256D01*
X87355226Y-32051898D01*
X87395000Y-31851939D01*
X87395000Y-31648061D01*
X87355226Y-31448102D01*
X87277205Y-31259744D01*
X87163937Y-31090226D01*
X87120000Y-31046289D01*
X87120000Y-27255799D01*
X90514025Y-23861776D01*
X90644822Y-24081355D01*
X90839731Y-24297588D01*
X91073080Y-24471641D01*
X91335901Y-24596825D01*
X91483110Y-24641476D01*
X91713000Y-24520155D01*
X91713000Y-23327000D01*
X91693000Y-23327000D01*
X91693000Y-23073000D01*
X91713000Y-23073000D01*
X91713000Y-23053000D01*
X91967000Y-23053000D01*
X91967000Y-23073000D01*
X91967000Y-23073000D01*
G37*
X91967000Y-23073000D02*
X91987000Y-23073000D01*
X91987000Y-23327000D01*
X91967000Y-23327000D01*
X91967000Y-24520155D01*
X92196890Y-24641476D01*
X92344099Y-24596825D01*
X92606920Y-24471641D01*
X92840269Y-24297588D01*
X93035178Y-24081355D01*
X93104799Y-23964477D01*
X93139294Y-24029014D01*
X93324866Y-24255134D01*
X93550986Y-24440706D01*
X93808966Y-24578599D01*
X94088889Y-24663513D01*
X94307050Y-24685000D01*
X94452950Y-24685000D01*
X94671111Y-24663513D01*
X94951034Y-24578599D01*
X95209014Y-24440706D01*
X95435134Y-24255134D01*
X95620706Y-24029014D01*
X95650000Y-23974209D01*
X95679294Y-24029014D01*
X95864866Y-24255134D01*
X96090986Y-24440706D01*
X96348966Y-24578599D01*
X96628889Y-24663513D01*
X96847050Y-24685000D01*
X96992950Y-24685000D01*
X97211111Y-24663513D01*
X97491034Y-24578599D01*
X97749014Y-24440706D01*
X97975134Y-24255134D01*
X98160706Y-24029014D01*
X98190000Y-23974209D01*
X98219294Y-24029014D01*
X98404866Y-24255134D01*
X98630986Y-24440706D01*
X98888966Y-24578599D01*
X99168889Y-24663513D01*
X99387050Y-24685000D01*
X99532950Y-24685000D01*
X99751111Y-24663513D01*
X100031034Y-24578599D01*
X100289014Y-24440706D01*
X100515134Y-24255134D01*
X100539607Y-24225313D01*
X100560498Y-24294180D01*
X100619463Y-24404494D01*
X100698815Y-24501185D01*
X100712655Y-24512543D01*
X100170200Y-25054999D01*
X90497321Y-25054999D01*
X90459998Y-25051323D01*
X90422675Y-25054999D01*
X90422666Y-25054999D01*
X90311013Y-25065996D01*
X90167752Y-25109453D01*
X90035723Y-25180025D01*
X90035721Y-25180026D01*
X90035722Y-25180026D01*
X89948995Y-25251200D01*
X89948991Y-25251204D01*
X89919998Y-25274998D01*
X89896204Y-25303991D01*
X88643002Y-26557195D01*
X88613999Y-26580997D01*
X88573784Y-26630000D01*
X88519026Y-26696722D01*
X88452030Y-26822061D01*
X88448454Y-26828752D01*
X88404997Y-26972013D01*
X88394000Y-27083666D01*
X88394000Y-27083676D01*
X88390324Y-27120998D01*
X88394000Y-27158321D01*
X88394001Y-32223288D01*
X88350063Y-32267226D01*
X88236795Y-32436744D01*
X88158774Y-32625102D01*
X88119000Y-32825061D01*
X88119000Y-33028939D01*
X88158774Y-33228898D01*
X88236795Y-33417256D01*
X88350063Y-33586774D01*
X88494226Y-33730937D01*
X88663744Y-33844205D01*
X88852102Y-33922226D01*
X89052061Y-33962000D01*
X89255939Y-33962000D01*
X89455898Y-33922226D01*
X89644256Y-33844205D01*
X89813774Y-33730937D01*
X89957937Y-33586774D01*
X90071205Y-33417256D01*
X90149226Y-33228898D01*
X90189000Y-33028939D01*
X90189000Y-32825061D01*
X90149226Y-32625102D01*
X90071205Y-32436744D01*
X89957937Y-32267226D01*
X89914000Y-32223289D01*
X89914000Y-30648000D01*
X91704928Y-30648000D01*
X91717188Y-30772482D01*
X91753498Y-30892180D01*
X91812463Y-31002494D01*
X91891815Y-31099185D01*
X91988506Y-31178537D01*
X92098820Y-31237502D01*
X92218518Y-31273812D01*
X92343000Y-31286072D01*
X92932250Y-31283000D01*
X93091000Y-31124250D01*
X93091000Y-30062500D01*
X91866750Y-30062500D01*
X91708000Y-30221250D01*
X91704928Y-30648000D01*
X89914000Y-30648000D01*
X89914000Y-29223000D01*
X91704928Y-29223000D01*
X91708000Y-29649750D01*
X91866750Y-29808500D01*
X93091000Y-29808500D01*
X93091000Y-28746750D01*
X92932250Y-28588000D01*
X92343000Y-28584928D01*
X92218518Y-28597188D01*
X92098820Y-28633498D01*
X91988506Y-28692463D01*
X91891815Y-28771815D01*
X91812463Y-28868506D01*
X91753498Y-28978820D01*
X91717188Y-29098518D01*
X91704928Y-29223000D01*
X89914000Y-29223000D01*
X89914000Y-27828013D01*
X89933744Y-27841205D01*
X90122102Y-27919226D01*
X90322061Y-27959000D01*
X90525939Y-27959000D01*
X90725898Y-27919226D01*
X90914256Y-27841205D01*
X91083774Y-27727937D01*
X91091211Y-27720500D01*
X91759681Y-27720500D01*
X91772528Y-27762850D01*
X91854595Y-27916386D01*
X91965038Y-28050962D01*
X92099614Y-28161405D01*
X92253150Y-28243472D01*
X92419746Y-28294008D01*
X92593000Y-28311072D01*
X93843000Y-28311072D01*
X94016254Y-28294008D01*
X94182850Y-28243472D01*
X94336386Y-28161405D01*
X94350283Y-28150000D01*
X96451928Y-28150000D01*
X96451928Y-28640000D01*
X96464188Y-28764482D01*
X96490714Y-28851928D01*
X95190000Y-28851928D01*
X95065518Y-28864188D01*
X94945820Y-28900498D01*
X94835506Y-28959463D01*
X94738815Y-29038815D01*
X94710987Y-29072723D01*
X94682502Y-28978820D01*
X94623537Y-28868506D01*
X94544185Y-28771815D01*
X94447494Y-28692463D01*
X94337180Y-28633498D01*
X94217482Y-28597188D01*
X94093000Y-28584928D01*
X93503750Y-28588000D01*
X93345000Y-28746750D01*
X93345000Y-29808500D01*
X93365000Y-29808500D01*
X93365000Y-30062500D01*
X93345000Y-30062500D01*
X93345000Y-31124250D01*
X93503750Y-31283000D01*
X94093000Y-31286072D01*
X94217482Y-31273812D01*
X94337180Y-31237502D01*
X94447494Y-31178537D01*
X94544185Y-31099185D01*
X94623537Y-31002494D01*
X94682502Y-30892180D01*
X94686846Y-30877860D01*
X94738815Y-30941185D01*
X94798296Y-30990000D01*
X94738815Y-31038815D01*
X94659463Y-31135506D01*
X94600498Y-31245820D01*
X94564188Y-31365518D01*
X94551928Y-31490000D01*
X94551928Y-32490000D01*
X94564188Y-32614482D01*
X94600498Y-32734180D01*
X94659463Y-32844494D01*
X94738815Y-32941185D01*
X94798296Y-32990000D01*
X94738815Y-33038815D01*
X94659463Y-33135506D01*
X94600498Y-33245820D01*
X94564188Y-33365518D01*
X94551928Y-33490000D01*
X94551928Y-34490000D01*
X94564188Y-34614482D01*
X94600498Y-34734180D01*
X94659463Y-34844494D01*
X94738815Y-34941185D01*
X94798296Y-34990000D01*
X94738815Y-35038815D01*
X94659463Y-35135506D01*
X94600498Y-35245820D01*
X94564188Y-35365518D01*
X94551928Y-35490000D01*
X94551928Y-36055001D01*
X93555324Y-36055001D01*
X93517999Y-36051325D01*
X93480674Y-36055001D01*
X93480666Y-36055001D01*
X93369013Y-36065998D01*
X93225752Y-36109455D01*
X93093723Y-36180027D01*
X92996925Y-36259467D01*
X92912850Y-36214528D01*
X92746254Y-36163992D01*
X92573000Y-36146928D01*
X91323000Y-36146928D01*
X91149746Y-36163992D01*
X90983150Y-36214528D01*
X90829614Y-36296595D01*
X90695038Y-36407038D01*
X90584595Y-36541614D01*
X90537103Y-36630466D01*
X90517405Y-36593614D01*
X90406962Y-36459038D01*
X90272386Y-36348595D01*
X90118850Y-36266528D01*
X90090406Y-36257900D01*
X90149226Y-36115898D01*
X90189000Y-35915939D01*
X90189000Y-35712061D01*
X90149226Y-35512102D01*
X90071205Y-35323744D01*
X89957937Y-35154226D01*
X89813774Y-35010063D01*
X89644256Y-34896795D01*
X89455898Y-34818774D01*
X89255939Y-34779000D01*
X89052061Y-34779000D01*
X88852102Y-34818774D01*
X88663744Y-34896795D01*
X88494226Y-35010063D01*
X88350063Y-35154226D01*
X88236795Y-35323744D01*
X88158774Y-35512102D01*
X88119000Y-35712061D01*
X88119000Y-35915939D01*
X88158774Y-36115898D01*
X88217594Y-36257900D01*
X88189150Y-36266528D01*
X88035614Y-36348595D01*
X87901038Y-36459038D01*
X87790595Y-36593614D01*
X87757000Y-36656466D01*
X87723405Y-36593614D01*
X87612962Y-36459038D01*
X87478386Y-36348595D01*
X87324850Y-36266528D01*
X87296406Y-36257900D01*
X87355226Y-36115898D01*
X87395000Y-35915939D01*
X87395000Y-35712061D01*
X87355226Y-35512102D01*
X87277205Y-35323744D01*
X87163937Y-35154226D01*
X87019774Y-35010063D01*
X86850256Y-34896795D01*
X86661898Y-34818774D01*
X86461939Y-34779000D01*
X86258061Y-34779000D01*
X86058102Y-34818774D01*
X85869744Y-34896795D01*
X85700226Y-35010063D01*
X85556063Y-35154226D01*
X85442795Y-35323744D01*
X85364774Y-35512102D01*
X85325000Y-35712061D01*
X85325000Y-35915939D01*
X85364774Y-36115898D01*
X85423594Y-36257900D01*
X85395150Y-36266528D01*
X85241614Y-36348595D01*
X85107038Y-36459038D01*
X84996595Y-36593614D01*
X84914528Y-36747150D01*
X84863992Y-36913746D01*
X84846928Y-37087000D01*
X84846928Y-37837000D01*
X84863992Y-38010254D01*
X84914528Y-38176850D01*
X84996595Y-38330386D01*
X85107038Y-38464962D01*
X85241614Y-38575405D01*
X85395150Y-38657472D01*
X85561746Y-38708008D01*
X85735000Y-38725072D01*
X86985000Y-38725072D01*
X87158254Y-38708008D01*
X87324850Y-38657472D01*
X87478386Y-38575405D01*
X87612962Y-38464962D01*
X87723405Y-38330386D01*
X87757000Y-38267534D01*
X87790595Y-38330386D01*
X87901038Y-38464962D01*
X88035614Y-38575405D01*
X88189150Y-38657472D01*
X88355746Y-38708008D01*
X88529000Y-38725072D01*
X89779000Y-38725072D01*
X89952254Y-38708008D01*
X90118850Y-38657472D01*
X90272386Y-38575405D01*
X90406962Y-38464962D01*
X90517405Y-38330386D01*
X90564897Y-38241534D01*
X90584595Y-38278386D01*
X90695038Y-38412962D01*
X90829614Y-38523405D01*
X90983150Y-38605472D01*
X91149746Y-38656008D01*
X91323000Y-38673072D01*
X92573000Y-38673072D01*
X92746254Y-38656008D01*
X92912850Y-38605472D01*
X93066386Y-38523405D01*
X93200962Y-38412962D01*
X93311405Y-38278386D01*
X93393472Y-38124850D01*
X93441046Y-37968019D01*
X93463001Y-37950001D01*
X93486803Y-37920998D01*
X93832801Y-37575001D01*
X94551928Y-37575001D01*
X94551928Y-38490000D01*
X94564188Y-38614482D01*
X94600498Y-38734180D01*
X94659463Y-38844494D01*
X94738815Y-38941185D01*
X94798296Y-38990000D01*
X94738815Y-39038815D01*
X94659463Y-39135506D01*
X94600498Y-39245820D01*
X94564188Y-39365518D01*
X94551928Y-39490000D01*
X94551928Y-40134000D01*
X93461072Y-40134000D01*
X93461072Y-39835000D01*
X93444008Y-39661746D01*
X93393472Y-39495150D01*
X93311405Y-39341614D01*
X93200962Y-39207038D01*
X93066386Y-39096595D01*
X92912850Y-39014528D01*
X92746254Y-38963992D01*
X92573000Y-38946928D01*
X91323000Y-38946928D01*
X91149746Y-38963992D01*
X90983150Y-39014528D01*
X90829614Y-39096595D01*
X90695038Y-39207038D01*
X90584595Y-39341614D01*
X90537103Y-39430466D01*
X90517405Y-39393614D01*
X90406962Y-39259038D01*
X90272386Y-39148595D01*
X90118850Y-39066528D01*
X89952254Y-39015992D01*
X89779000Y-38998928D01*
X88529000Y-38998928D01*
X88355746Y-39015992D01*
X88189150Y-39066528D01*
X88035614Y-39148595D01*
X87901038Y-39259038D01*
X87790595Y-39393614D01*
X87760456Y-39450000D01*
X87753544Y-39450000D01*
X87723405Y-39393614D01*
X87612962Y-39259038D01*
X87478386Y-39148595D01*
X87324850Y-39066528D01*
X87158254Y-39015992D01*
X86985000Y-38998928D01*
X85735000Y-38998928D01*
X85561746Y-39015992D01*
X85395150Y-39066528D01*
X85241614Y-39148595D01*
X85107038Y-39259038D01*
X84996595Y-39393614D01*
X84938661Y-39502000D01*
X65820802Y-39502000D01*
X61421802Y-35103000D01*
X62187008Y-34337795D01*
X62216001Y-34314001D01*
X62239795Y-34285008D01*
X62239799Y-34285004D01*
X62310973Y-34198277D01*
X62310974Y-34198276D01*
X62381546Y-34066247D01*
X62425003Y-33922986D01*
X62436000Y-33811333D01*
X62436000Y-33811324D01*
X62439676Y-33774001D01*
X62436000Y-33736678D01*
X62436000Y-32982829D01*
X62510595Y-33122386D01*
X62621038Y-33256962D01*
X62755614Y-33367405D01*
X62909150Y-33449472D01*
X63075746Y-33500008D01*
X63249000Y-33517072D01*
X63999000Y-33517072D01*
X64172254Y-33500008D01*
X64338850Y-33449472D01*
X64492386Y-33367405D01*
X64626962Y-33256962D01*
X64737405Y-33122386D01*
X64819472Y-32968850D01*
X64846727Y-32879000D01*
X65160928Y-32879000D01*
X65173188Y-33003482D01*
X65209498Y-33123180D01*
X65268463Y-33233494D01*
X65347815Y-33330185D01*
X65444506Y-33409537D01*
X65554820Y-33468502D01*
X65674518Y-33504812D01*
X65799000Y-33517072D01*
X66138250Y-33514000D01*
X66297000Y-33355250D01*
X66297000Y-32131000D01*
X66551000Y-32131000D01*
X66551000Y-33355250D01*
X66709750Y-33514000D01*
X67049000Y-33517072D01*
X67173482Y-33504812D01*
X67293180Y-33468502D01*
X67403494Y-33409537D01*
X67500185Y-33330185D01*
X67579537Y-33233494D01*
X67638502Y-33123180D01*
X67674812Y-33003482D01*
X67687072Y-32879000D01*
X67684000Y-32289750D01*
X67525250Y-32131000D01*
X66551000Y-32131000D01*
X66297000Y-32131000D01*
X65322750Y-32131000D01*
X65164000Y-32289750D01*
X65160928Y-32879000D01*
X64846727Y-32879000D01*
X64870008Y-32802254D01*
X64887072Y-32629000D01*
X64887072Y-31379000D01*
X64870008Y-31205746D01*
X64846728Y-31129000D01*
X65160928Y-31129000D01*
X65164000Y-31718250D01*
X65322750Y-31877000D01*
X66297000Y-31877000D01*
X66297000Y-30652750D01*
X66551000Y-30652750D01*
X66551000Y-31877000D01*
X67525250Y-31877000D01*
X67684000Y-31718250D01*
X67687072Y-31129000D01*
X67674812Y-31004518D01*
X67638502Y-30884820D01*
X67579537Y-30774506D01*
X67500185Y-30677815D01*
X67403494Y-30598463D01*
X67293180Y-30539498D01*
X67173482Y-30503188D01*
X67049000Y-30490928D01*
X66709750Y-30494000D01*
X66551000Y-30652750D01*
X66297000Y-30652750D01*
X66138250Y-30494000D01*
X65799000Y-30490928D01*
X65674518Y-30503188D01*
X65554820Y-30539498D01*
X65444506Y-30598463D01*
X65347815Y-30677815D01*
X65268463Y-30774506D01*
X65209498Y-30884820D01*
X65173188Y-31004518D01*
X65160928Y-31129000D01*
X64846728Y-31129000D01*
X64819472Y-31039150D01*
X64737405Y-30885614D01*
X64626962Y-30751038D01*
X64492386Y-30640595D01*
X64462000Y-30624353D01*
X64462000Y-26406072D01*
X64602000Y-26406072D01*
X64726482Y-26393812D01*
X64846180Y-26357502D01*
X64956494Y-26298537D01*
X65053185Y-26219185D01*
X65132537Y-26122494D01*
X65191502Y-26012180D01*
X65201870Y-25978000D01*
X68402130Y-25978000D01*
X68412498Y-26012180D01*
X68471463Y-26122494D01*
X68550815Y-26219185D01*
X68647506Y-26298537D01*
X68757820Y-26357502D01*
X68877518Y-26393812D01*
X69002000Y-26406072D01*
X70802000Y-26406072D01*
X70926482Y-26393812D01*
X71046180Y-26357502D01*
X71156494Y-26298537D01*
X71161597Y-26294349D01*
X71169453Y-26320247D01*
X71240025Y-26452277D01*
X71292915Y-26516723D01*
X71334999Y-26568002D01*
X71363997Y-26591800D01*
X77033199Y-32261003D01*
X77056997Y-32290001D01*
X77085995Y-32313799D01*
X77172722Y-32384974D01*
X77304751Y-32455546D01*
X77448012Y-32499003D01*
X77596998Y-32513677D01*
X77634331Y-32510000D01*
X85656289Y-32510000D01*
X85700226Y-32553937D01*
X85869744Y-32667205D01*
X86058102Y-32745226D01*
X86258061Y-32785000D01*
X86461939Y-32785000D01*
X86661898Y-32745226D01*
X86850256Y-32667205D01*
X87019774Y-32553937D01*
X87163937Y-32409774D01*
X87277205Y-32240256D01*
X87355226Y-32051898D01*
X87395000Y-31851939D01*
X87395000Y-31648061D01*
X87355226Y-31448102D01*
X87277205Y-31259744D01*
X87163937Y-31090226D01*
X87120000Y-31046289D01*
X87120000Y-27255799D01*
X90514025Y-23861776D01*
X90644822Y-24081355D01*
X90839731Y-24297588D01*
X91073080Y-24471641D01*
X91335901Y-24596825D01*
X91483110Y-24641476D01*
X91713000Y-24520155D01*
X91713000Y-23327000D01*
X91693000Y-23327000D01*
X91693000Y-23073000D01*
X91713000Y-23073000D01*
X91713000Y-23053000D01*
X91967000Y-23053000D01*
X91967000Y-23073000D01*
G36*
X77810498Y-22312180D02*
G01*
X77869463Y-22422494D01*
X77948815Y-22519185D01*
X78045506Y-22598537D01*
X78155820Y-22657502D01*
X78275518Y-22693812D01*
X78400000Y-22706072D01*
X80200000Y-22706072D01*
X80324482Y-22693812D01*
X80444180Y-22657502D01*
X80554494Y-22598537D01*
X80651185Y-22519185D01*
X80730537Y-22422494D01*
X80789502Y-22312180D01*
X80799870Y-22278000D01*
X81552906Y-22278000D01*
X81544928Y-22359000D01*
X81548000Y-22698250D01*
X81706750Y-22857000D01*
X82931000Y-22857000D01*
X82931000Y-22837000D01*
X83185000Y-22837000D01*
X83185000Y-22857000D01*
X84409250Y-22857000D01*
X84568000Y-22698250D01*
X84571072Y-22359000D01*
X84563094Y-22278000D01*
X89948195Y-22278000D01*
X85849003Y-26377194D01*
X85819999Y-26400997D01*
X85780196Y-26449498D01*
X85725026Y-26516722D01*
X85712440Y-26540269D01*
X85654454Y-26648752D01*
X85610997Y-26792013D01*
X85600000Y-26903666D01*
X85600000Y-26903676D01*
X85596324Y-26940998D01*
X85600000Y-26978321D01*
X85600001Y-30990000D01*
X77911800Y-30990000D01*
X73327871Y-26406072D01*
X74000000Y-26406072D01*
X74124482Y-26393812D01*
X74244180Y-26357502D01*
X74354494Y-26298537D01*
X74451185Y-26219185D01*
X74530537Y-26122494D01*
X74589502Y-26012180D01*
X74599870Y-25978000D01*
X77800130Y-25978000D01*
X77810498Y-26012180D01*
X77869463Y-26122494D01*
X77948815Y-26219185D01*
X78045506Y-26298537D01*
X78155820Y-26357502D01*
X78275518Y-26393812D01*
X78400000Y-26406072D01*
X80200000Y-26406072D01*
X80324482Y-26393812D01*
X80444180Y-26357502D01*
X80554494Y-26298537D01*
X80651185Y-26219185D01*
X80730537Y-26122494D01*
X80789502Y-26012180D01*
X80799870Y-25978000D01*
X81544928Y-25978000D01*
X81544928Y-26159000D01*
X81561992Y-26332254D01*
X81612528Y-26498850D01*
X81694595Y-26652386D01*
X81805038Y-26786962D01*
X81939614Y-26897405D01*
X82093150Y-26979472D01*
X82259746Y-27030008D01*
X82433000Y-27047072D01*
X83683000Y-27047072D01*
X83856254Y-27030008D01*
X84022850Y-26979472D01*
X84176386Y-26897405D01*
X84310962Y-26786962D01*
X84421405Y-26652386D01*
X84503472Y-26498850D01*
X84554008Y-26332254D01*
X84571072Y-26159000D01*
X84571072Y-25409000D01*
X84554008Y-25235746D01*
X84503472Y-25069150D01*
X84421405Y-24915614D01*
X84310962Y-24781038D01*
X84176386Y-24670595D01*
X84022850Y-24588528D01*
X83856254Y-24537992D01*
X83683000Y-24520928D01*
X82800101Y-24520928D01*
X82784247Y-24512454D01*
X82640986Y-24468997D01*
X82529333Y-24458000D01*
X82529322Y-24458000D01*
X82492000Y-24454324D01*
X82454678Y-24458000D01*
X80799870Y-24458000D01*
X80789502Y-24423820D01*
X80730537Y-24313506D01*
X80651185Y-24216815D01*
X80554494Y-24137463D01*
X80444180Y-24078498D01*
X80324482Y-24042188D01*
X80200000Y-24029928D01*
X78400000Y-24029928D01*
X78275518Y-24042188D01*
X78155820Y-24078498D01*
X78045506Y-24137463D01*
X77948815Y-24216815D01*
X77869463Y-24313506D01*
X77810498Y-24423820D01*
X77800130Y-24458000D01*
X74599870Y-24458000D01*
X74589502Y-24423820D01*
X74530537Y-24313506D01*
X74451185Y-24216815D01*
X74354494Y-24137463D01*
X74244180Y-24078498D01*
X74124482Y-24042188D01*
X74000000Y-24029928D01*
X72634999Y-24029928D01*
X72634999Y-23609000D01*
X81544928Y-23609000D01*
X81557188Y-23733482D01*
X81593498Y-23853180D01*
X81652463Y-23963494D01*
X81731815Y-24060185D01*
X81828506Y-24139537D01*
X81938820Y-24198502D01*
X82058518Y-24234812D01*
X82183000Y-24247072D01*
X82772250Y-24244000D01*
X82931000Y-24085250D01*
X82931000Y-23111000D01*
X83185000Y-23111000D01*
X83185000Y-24085250D01*
X83343750Y-24244000D01*
X83933000Y-24247072D01*
X84057482Y-24234812D01*
X84177180Y-24198502D01*
X84287494Y-24139537D01*
X84384185Y-24060185D01*
X84463537Y-23963494D01*
X84522502Y-23853180D01*
X84558812Y-23733482D01*
X84571072Y-23609000D01*
X84568000Y-23269750D01*
X84409250Y-23111000D01*
X83185000Y-23111000D01*
X82931000Y-23111000D01*
X81706750Y-23111000D01*
X81548000Y-23269750D01*
X81544928Y-23609000D01*
X72634999Y-23609000D01*
X72634999Y-23178321D01*
X72638675Y-23140998D01*
X72634999Y-23103675D01*
X72634999Y-23103666D01*
X72624002Y-22992013D01*
X72580545Y-22848752D01*
X72509973Y-22716723D01*
X72501232Y-22706072D01*
X74000000Y-22706072D01*
X74124482Y-22693812D01*
X74244180Y-22657502D01*
X74354494Y-22598537D01*
X74451185Y-22519185D01*
X74530537Y-22422494D01*
X74589502Y-22312180D01*
X74599870Y-22278000D01*
X77800130Y-22278000D01*
X77810498Y-22312180D01*
X77810498Y-22312180D01*
G37*
X77810498Y-22312180D02*
X77869463Y-22422494D01*
X77948815Y-22519185D01*
X78045506Y-22598537D01*
X78155820Y-22657502D01*
X78275518Y-22693812D01*
X78400000Y-22706072D01*
X80200000Y-22706072D01*
X80324482Y-22693812D01*
X80444180Y-22657502D01*
X80554494Y-22598537D01*
X80651185Y-22519185D01*
X80730537Y-22422494D01*
X80789502Y-22312180D01*
X80799870Y-22278000D01*
X81552906Y-22278000D01*
X81544928Y-22359000D01*
X81548000Y-22698250D01*
X81706750Y-22857000D01*
X82931000Y-22857000D01*
X82931000Y-22837000D01*
X83185000Y-22837000D01*
X83185000Y-22857000D01*
X84409250Y-22857000D01*
X84568000Y-22698250D01*
X84571072Y-22359000D01*
X84563094Y-22278000D01*
X89948195Y-22278000D01*
X85849003Y-26377194D01*
X85819999Y-26400997D01*
X85780196Y-26449498D01*
X85725026Y-26516722D01*
X85712440Y-26540269D01*
X85654454Y-26648752D01*
X85610997Y-26792013D01*
X85600000Y-26903666D01*
X85600000Y-26903676D01*
X85596324Y-26940998D01*
X85600000Y-26978321D01*
X85600001Y-30990000D01*
X77911800Y-30990000D01*
X73327871Y-26406072D01*
X74000000Y-26406072D01*
X74124482Y-26393812D01*
X74244180Y-26357502D01*
X74354494Y-26298537D01*
X74451185Y-26219185D01*
X74530537Y-26122494D01*
X74589502Y-26012180D01*
X74599870Y-25978000D01*
X77800130Y-25978000D01*
X77810498Y-26012180D01*
X77869463Y-26122494D01*
X77948815Y-26219185D01*
X78045506Y-26298537D01*
X78155820Y-26357502D01*
X78275518Y-26393812D01*
X78400000Y-26406072D01*
X80200000Y-26406072D01*
X80324482Y-26393812D01*
X80444180Y-26357502D01*
X80554494Y-26298537D01*
X80651185Y-26219185D01*
X80730537Y-26122494D01*
X80789502Y-26012180D01*
X80799870Y-25978000D01*
X81544928Y-25978000D01*
X81544928Y-26159000D01*
X81561992Y-26332254D01*
X81612528Y-26498850D01*
X81694595Y-26652386D01*
X81805038Y-26786962D01*
X81939614Y-26897405D01*
X82093150Y-26979472D01*
X82259746Y-27030008D01*
X82433000Y-27047072D01*
X83683000Y-27047072D01*
X83856254Y-27030008D01*
X84022850Y-26979472D01*
X84176386Y-26897405D01*
X84310962Y-26786962D01*
X84421405Y-26652386D01*
X84503472Y-26498850D01*
X84554008Y-26332254D01*
X84571072Y-26159000D01*
X84571072Y-25409000D01*
X84554008Y-25235746D01*
X84503472Y-25069150D01*
X84421405Y-24915614D01*
X84310962Y-24781038D01*
X84176386Y-24670595D01*
X84022850Y-24588528D01*
X83856254Y-24537992D01*
X83683000Y-24520928D01*
X82800101Y-24520928D01*
X82784247Y-24512454D01*
X82640986Y-24468997D01*
X82529333Y-24458000D01*
X82529322Y-24458000D01*
X82492000Y-24454324D01*
X82454678Y-24458000D01*
X80799870Y-24458000D01*
X80789502Y-24423820D01*
X80730537Y-24313506D01*
X80651185Y-24216815D01*
X80554494Y-24137463D01*
X80444180Y-24078498D01*
X80324482Y-24042188D01*
X80200000Y-24029928D01*
X78400000Y-24029928D01*
X78275518Y-24042188D01*
X78155820Y-24078498D01*
X78045506Y-24137463D01*
X77948815Y-24216815D01*
X77869463Y-24313506D01*
X77810498Y-24423820D01*
X77800130Y-24458000D01*
X74599870Y-24458000D01*
X74589502Y-24423820D01*
X74530537Y-24313506D01*
X74451185Y-24216815D01*
X74354494Y-24137463D01*
X74244180Y-24078498D01*
X74124482Y-24042188D01*
X74000000Y-24029928D01*
X72634999Y-24029928D01*
X72634999Y-23609000D01*
X81544928Y-23609000D01*
X81557188Y-23733482D01*
X81593498Y-23853180D01*
X81652463Y-23963494D01*
X81731815Y-24060185D01*
X81828506Y-24139537D01*
X81938820Y-24198502D01*
X82058518Y-24234812D01*
X82183000Y-24247072D01*
X82772250Y-24244000D01*
X82931000Y-24085250D01*
X82931000Y-23111000D01*
X83185000Y-23111000D01*
X83185000Y-24085250D01*
X83343750Y-24244000D01*
X83933000Y-24247072D01*
X84057482Y-24234812D01*
X84177180Y-24198502D01*
X84287494Y-24139537D01*
X84384185Y-24060185D01*
X84463537Y-23963494D01*
X84522502Y-23853180D01*
X84558812Y-23733482D01*
X84571072Y-23609000D01*
X84568000Y-23269750D01*
X84409250Y-23111000D01*
X83185000Y-23111000D01*
X82931000Y-23111000D01*
X81706750Y-23111000D01*
X81548000Y-23269750D01*
X81544928Y-23609000D01*
X72634999Y-23609000D01*
X72634999Y-23178321D01*
X72638675Y-23140998D01*
X72634999Y-23103675D01*
X72634999Y-23103666D01*
X72624002Y-22992013D01*
X72580545Y-22848752D01*
X72509973Y-22716723D01*
X72501232Y-22706072D01*
X74000000Y-22706072D01*
X74124482Y-22693812D01*
X74244180Y-22657502D01*
X74354494Y-22598537D01*
X74451185Y-22519185D01*
X74530537Y-22422494D01*
X74589502Y-22312180D01*
X74599870Y-22278000D01*
X77800130Y-22278000D01*
X77810498Y-22312180D01*
M02*
