G04 #@! TF.GenerationSoftware,KiCad,Pcbnew,5.1.4-e60b266~84~ubuntu19.04.1*
G04 #@! TF.CreationDate,2019-09-15T17:37:26+02:00*
G04 #@! TF.ProjectId,kicad,6b696361-642e-46b6-9963-61645f706362,rev?*
G04 #@! TF.SameCoordinates,Original*
G04 #@! TF.FileFunction,Soldermask,Top*
G04 #@! TF.FilePolarity,Negative*
%FSLAX46Y46*%
G04 Gerber Fmt 4.6, Leading zero omitted, Abs format (unit mm)*
G04 Created by KiCad (PCBNEW 5.1.4-e60b266~84~ubuntu19.04.1) date 2019-09-15 17:37:26*
%MOMM*%
%LPD*%
G04 APERTURE LIST*
%ADD10C,0.100000*%
G04 APERTURE END LIST*
D10*
G36*
X110618604Y-46078347D02*
G01*
X110655144Y-46089432D01*
X110688821Y-46107433D01*
X110718341Y-46131659D01*
X110742567Y-46161179D01*
X110760568Y-46194856D01*
X110771653Y-46231396D01*
X110776000Y-46275538D01*
X110776000Y-47724462D01*
X110771653Y-47768604D01*
X110760568Y-47805144D01*
X110742567Y-47838821D01*
X110718341Y-47868341D01*
X110688821Y-47892567D01*
X110655144Y-47910568D01*
X110618604Y-47921653D01*
X110574462Y-47926000D01*
X109625538Y-47926000D01*
X109581396Y-47921653D01*
X109544856Y-47910568D01*
X109511179Y-47892567D01*
X109481659Y-47868341D01*
X109457433Y-47838821D01*
X109439432Y-47805144D01*
X109428347Y-47768604D01*
X109424000Y-47724462D01*
X109424000Y-46275538D01*
X109428347Y-46231396D01*
X109439432Y-46194856D01*
X109457433Y-46161179D01*
X109481659Y-46131659D01*
X109511179Y-46107433D01*
X109544856Y-46089432D01*
X109581396Y-46078347D01*
X109625538Y-46074000D01*
X110574462Y-46074000D01*
X110618604Y-46078347D01*
X110618604Y-46078347D01*
G37*
G36*
X107818604Y-46078347D02*
G01*
X107855144Y-46089432D01*
X107888821Y-46107433D01*
X107918341Y-46131659D01*
X107942567Y-46161179D01*
X107960568Y-46194856D01*
X107971653Y-46231396D01*
X107976000Y-46275538D01*
X107976000Y-47724462D01*
X107971653Y-47768604D01*
X107960568Y-47805144D01*
X107942567Y-47838821D01*
X107918341Y-47868341D01*
X107888821Y-47892567D01*
X107855144Y-47910568D01*
X107818604Y-47921653D01*
X107774462Y-47926000D01*
X106825538Y-47926000D01*
X106781396Y-47921653D01*
X106744856Y-47910568D01*
X106711179Y-47892567D01*
X106681659Y-47868341D01*
X106657433Y-47838821D01*
X106639432Y-47805144D01*
X106628347Y-47768604D01*
X106624000Y-47724462D01*
X106624000Y-46275538D01*
X106628347Y-46231396D01*
X106639432Y-46194856D01*
X106657433Y-46161179D01*
X106681659Y-46131659D01*
X106711179Y-46107433D01*
X106744856Y-46089432D01*
X106781396Y-46078347D01*
X106825538Y-46074000D01*
X107774462Y-46074000D01*
X107818604Y-46078347D01*
X107818604Y-46078347D01*
G37*
G36*
X74918604Y-45878347D02*
G01*
X74955144Y-45889432D01*
X74988821Y-45907433D01*
X75018341Y-45931659D01*
X75042567Y-45961179D01*
X75060568Y-45994856D01*
X75071653Y-46031396D01*
X75076000Y-46075538D01*
X75076000Y-47524462D01*
X75071653Y-47568604D01*
X75060568Y-47605144D01*
X75042567Y-47638821D01*
X75018341Y-47668341D01*
X74988821Y-47692567D01*
X74955144Y-47710568D01*
X74918604Y-47721653D01*
X74874462Y-47726000D01*
X73925538Y-47726000D01*
X73881396Y-47721653D01*
X73844856Y-47710568D01*
X73811179Y-47692567D01*
X73781659Y-47668341D01*
X73757433Y-47638821D01*
X73739432Y-47605144D01*
X73728347Y-47568604D01*
X73724000Y-47524462D01*
X73724000Y-46075538D01*
X73728347Y-46031396D01*
X73739432Y-45994856D01*
X73757433Y-45961179D01*
X73781659Y-45931659D01*
X73811179Y-45907433D01*
X73844856Y-45889432D01*
X73881396Y-45878347D01*
X73925538Y-45874000D01*
X74874462Y-45874000D01*
X74918604Y-45878347D01*
X74918604Y-45878347D01*
G37*
G36*
X66118604Y-45878347D02*
G01*
X66155144Y-45889432D01*
X66188821Y-45907433D01*
X66218341Y-45931659D01*
X66242567Y-45961179D01*
X66260568Y-45994856D01*
X66271653Y-46031396D01*
X66276000Y-46075538D01*
X66276000Y-47524462D01*
X66271653Y-47568604D01*
X66260568Y-47605144D01*
X66242567Y-47638821D01*
X66218341Y-47668341D01*
X66188821Y-47692567D01*
X66155144Y-47710568D01*
X66118604Y-47721653D01*
X66074462Y-47726000D01*
X65125538Y-47726000D01*
X65081396Y-47721653D01*
X65044856Y-47710568D01*
X65011179Y-47692567D01*
X64981659Y-47668341D01*
X64957433Y-47638821D01*
X64939432Y-47605144D01*
X64928347Y-47568604D01*
X64924000Y-47524462D01*
X64924000Y-46075538D01*
X64928347Y-46031396D01*
X64939432Y-45994856D01*
X64957433Y-45961179D01*
X64981659Y-45931659D01*
X65011179Y-45907433D01*
X65044856Y-45889432D01*
X65081396Y-45878347D01*
X65125538Y-45874000D01*
X66074462Y-45874000D01*
X66118604Y-45878347D01*
X66118604Y-45878347D01*
G37*
G36*
X68918604Y-45878347D02*
G01*
X68955144Y-45889432D01*
X68988821Y-45907433D01*
X69018341Y-45931659D01*
X69042567Y-45961179D01*
X69060568Y-45994856D01*
X69071653Y-46031396D01*
X69076000Y-46075538D01*
X69076000Y-47524462D01*
X69071653Y-47568604D01*
X69060568Y-47605144D01*
X69042567Y-47638821D01*
X69018341Y-47668341D01*
X68988821Y-47692567D01*
X68955144Y-47710568D01*
X68918604Y-47721653D01*
X68874462Y-47726000D01*
X67925538Y-47726000D01*
X67881396Y-47721653D01*
X67844856Y-47710568D01*
X67811179Y-47692567D01*
X67781659Y-47668341D01*
X67757433Y-47638821D01*
X67739432Y-47605144D01*
X67728347Y-47568604D01*
X67724000Y-47524462D01*
X67724000Y-46075538D01*
X67728347Y-46031396D01*
X67739432Y-45994856D01*
X67757433Y-45961179D01*
X67781659Y-45931659D01*
X67811179Y-45907433D01*
X67844856Y-45889432D01*
X67881396Y-45878347D01*
X67925538Y-45874000D01*
X68874462Y-45874000D01*
X68918604Y-45878347D01*
X68918604Y-45878347D01*
G37*
G36*
X72118604Y-45878347D02*
G01*
X72155144Y-45889432D01*
X72188821Y-45907433D01*
X72218341Y-45931659D01*
X72242567Y-45961179D01*
X72260568Y-45994856D01*
X72271653Y-46031396D01*
X72276000Y-46075538D01*
X72276000Y-47524462D01*
X72271653Y-47568604D01*
X72260568Y-47605144D01*
X72242567Y-47638821D01*
X72218341Y-47668341D01*
X72188821Y-47692567D01*
X72155144Y-47710568D01*
X72118604Y-47721653D01*
X72074462Y-47726000D01*
X71125538Y-47726000D01*
X71081396Y-47721653D01*
X71044856Y-47710568D01*
X71011179Y-47692567D01*
X70981659Y-47668341D01*
X70957433Y-47638821D01*
X70939432Y-47605144D01*
X70928347Y-47568604D01*
X70924000Y-47524462D01*
X70924000Y-46075538D01*
X70928347Y-46031396D01*
X70939432Y-45994856D01*
X70957433Y-45961179D01*
X70981659Y-45931659D01*
X71011179Y-45907433D01*
X71044856Y-45889432D01*
X71081396Y-45878347D01*
X71125538Y-45874000D01*
X72074462Y-45874000D01*
X72118604Y-45878347D01*
X72118604Y-45878347D01*
G37*
G36*
X24022604Y-45982347D02*
G01*
X24059144Y-45993432D01*
X24092821Y-46011433D01*
X24122341Y-46035659D01*
X24146567Y-46065179D01*
X24164568Y-46098856D01*
X24175653Y-46135396D01*
X24180000Y-46179538D01*
X24180000Y-47128462D01*
X24175653Y-47172604D01*
X24164568Y-47209144D01*
X24146567Y-47242821D01*
X24122341Y-47272341D01*
X24092821Y-47296567D01*
X24059144Y-47314568D01*
X24022604Y-47325653D01*
X23978462Y-47330000D01*
X22529538Y-47330000D01*
X22485396Y-47325653D01*
X22448856Y-47314568D01*
X22415179Y-47296567D01*
X22385659Y-47272341D01*
X22361433Y-47242821D01*
X22343432Y-47209144D01*
X22332347Y-47172604D01*
X22328000Y-47128462D01*
X22328000Y-46179538D01*
X22332347Y-46135396D01*
X22343432Y-46098856D01*
X22361433Y-46065179D01*
X22385659Y-46035659D01*
X22415179Y-46011433D01*
X22448856Y-45993432D01*
X22485396Y-45982347D01*
X22529538Y-45978000D01*
X23978462Y-45978000D01*
X24022604Y-45982347D01*
X24022604Y-45982347D01*
G37*
G36*
X30172604Y-45332347D02*
G01*
X30209144Y-45343432D01*
X30242821Y-45361433D01*
X30272341Y-45385659D01*
X30296567Y-45415179D01*
X30314568Y-45448856D01*
X30325653Y-45485396D01*
X30330000Y-45529538D01*
X30330000Y-46978462D01*
X30325653Y-47022604D01*
X30314568Y-47059144D01*
X30296567Y-47092821D01*
X30272341Y-47122341D01*
X30242821Y-47146567D01*
X30209144Y-47164568D01*
X30172604Y-47175653D01*
X30128462Y-47180000D01*
X29179538Y-47180000D01*
X29135396Y-47175653D01*
X29098856Y-47164568D01*
X29065179Y-47146567D01*
X29035659Y-47122341D01*
X29011433Y-47092821D01*
X28993432Y-47059144D01*
X28982347Y-47022604D01*
X28978000Y-46978462D01*
X28978000Y-45529538D01*
X28982347Y-45485396D01*
X28993432Y-45448856D01*
X29011433Y-45415179D01*
X29035659Y-45385659D01*
X29065179Y-45361433D01*
X29098856Y-45343432D01*
X29135396Y-45332347D01*
X29179538Y-45328000D01*
X30128462Y-45328000D01*
X30172604Y-45332347D01*
X30172604Y-45332347D01*
G37*
G36*
X27372604Y-45332347D02*
G01*
X27409144Y-45343432D01*
X27442821Y-45361433D01*
X27472341Y-45385659D01*
X27496567Y-45415179D01*
X27514568Y-45448856D01*
X27525653Y-45485396D01*
X27530000Y-45529538D01*
X27530000Y-46978462D01*
X27525653Y-47022604D01*
X27514568Y-47059144D01*
X27496567Y-47092821D01*
X27472341Y-47122341D01*
X27442821Y-47146567D01*
X27409144Y-47164568D01*
X27372604Y-47175653D01*
X27328462Y-47180000D01*
X26379538Y-47180000D01*
X26335396Y-47175653D01*
X26298856Y-47164568D01*
X26265179Y-47146567D01*
X26235659Y-47122341D01*
X26211433Y-47092821D01*
X26193432Y-47059144D01*
X26182347Y-47022604D01*
X26178000Y-46978462D01*
X26178000Y-45529538D01*
X26182347Y-45485396D01*
X26193432Y-45448856D01*
X26211433Y-45415179D01*
X26235659Y-45385659D01*
X26265179Y-45361433D01*
X26298856Y-45343432D01*
X26335396Y-45332347D01*
X26379538Y-45328000D01*
X27328462Y-45328000D01*
X27372604Y-45332347D01*
X27372604Y-45332347D01*
G37*
G36*
X24022604Y-43182347D02*
G01*
X24059144Y-43193432D01*
X24092821Y-43211433D01*
X24122341Y-43235659D01*
X24146567Y-43265179D01*
X24164568Y-43298856D01*
X24175653Y-43335396D01*
X24180000Y-43379538D01*
X24180000Y-44328462D01*
X24175653Y-44372604D01*
X24164568Y-44409144D01*
X24146567Y-44442821D01*
X24122341Y-44472341D01*
X24092821Y-44496567D01*
X24059144Y-44514568D01*
X24022604Y-44525653D01*
X23978462Y-44530000D01*
X22529538Y-44530000D01*
X22485396Y-44525653D01*
X22448856Y-44514568D01*
X22415179Y-44496567D01*
X22385659Y-44472341D01*
X22361433Y-44442821D01*
X22343432Y-44409144D01*
X22332347Y-44372604D01*
X22328000Y-44328462D01*
X22328000Y-43379538D01*
X22332347Y-43335396D01*
X22343432Y-43298856D01*
X22361433Y-43265179D01*
X22385659Y-43235659D01*
X22415179Y-43211433D01*
X22448856Y-43193432D01*
X22485396Y-43182347D01*
X22529538Y-43178000D01*
X23978462Y-43178000D01*
X24022604Y-43182347D01*
X24022604Y-43182347D01*
G37*
G36*
X104141000Y-43891000D02*
G01*
X103039000Y-43891000D01*
X103039000Y-41289000D01*
X104141000Y-41289000D01*
X104141000Y-43891000D01*
X104141000Y-43891000D01*
G37*
G36*
X112141000Y-43891000D02*
G01*
X111039000Y-43891000D01*
X111039000Y-41289000D01*
X112141000Y-41289000D01*
X112141000Y-43891000D01*
X112141000Y-43891000D01*
G37*
G36*
X110141000Y-43891000D02*
G01*
X109039000Y-43891000D01*
X109039000Y-41289000D01*
X110141000Y-41289000D01*
X110141000Y-43891000D01*
X110141000Y-43891000D01*
G37*
G36*
X100141000Y-43891000D02*
G01*
X99039000Y-43891000D01*
X99039000Y-41289000D01*
X100141000Y-41289000D01*
X100141000Y-43891000D01*
X100141000Y-43891000D01*
G37*
G36*
X102141000Y-43891000D02*
G01*
X101039000Y-43891000D01*
X101039000Y-41289000D01*
X102141000Y-41289000D01*
X102141000Y-43891000D01*
X102141000Y-43891000D01*
G37*
G36*
X106141000Y-43891000D02*
G01*
X105039000Y-43891000D01*
X105039000Y-41289000D01*
X106141000Y-41289000D01*
X106141000Y-43891000D01*
X106141000Y-43891000D01*
G37*
G36*
X108141000Y-43891000D02*
G01*
X107039000Y-43891000D01*
X107039000Y-41289000D01*
X108141000Y-41289000D01*
X108141000Y-43891000D01*
X108141000Y-43891000D01*
G37*
G36*
X98141000Y-43891000D02*
G01*
X97039000Y-43891000D01*
X97039000Y-41289000D01*
X98141000Y-41289000D01*
X98141000Y-43891000D01*
X98141000Y-43891000D01*
G37*
G36*
X36663928Y-41810764D02*
G01*
X36685009Y-41817160D01*
X36704445Y-41827548D01*
X36721476Y-41841524D01*
X36735452Y-41858555D01*
X36745840Y-41877991D01*
X36752236Y-41899072D01*
X36755000Y-41927140D01*
X36755000Y-42390860D01*
X36752236Y-42418928D01*
X36745840Y-42440009D01*
X36735452Y-42459445D01*
X36721476Y-42476476D01*
X36704445Y-42490452D01*
X36685009Y-42500840D01*
X36663928Y-42507236D01*
X36635860Y-42510000D01*
X34822140Y-42510000D01*
X34794072Y-42507236D01*
X34772991Y-42500840D01*
X34753555Y-42490452D01*
X34736524Y-42476476D01*
X34722548Y-42459445D01*
X34712160Y-42440009D01*
X34705764Y-42418928D01*
X34703000Y-42390860D01*
X34703000Y-41927140D01*
X34705764Y-41899072D01*
X34712160Y-41877991D01*
X34722548Y-41858555D01*
X34736524Y-41841524D01*
X34753555Y-41827548D01*
X34772991Y-41817160D01*
X34794072Y-41810764D01*
X34822140Y-41808000D01*
X36635860Y-41808000D01*
X36663928Y-41810764D01*
X36663928Y-41810764D01*
G37*
G36*
X31713928Y-41810764D02*
G01*
X31735009Y-41817160D01*
X31754445Y-41827548D01*
X31771476Y-41841524D01*
X31785452Y-41858555D01*
X31795840Y-41877991D01*
X31802236Y-41899072D01*
X31805000Y-41927140D01*
X31805000Y-42390860D01*
X31802236Y-42418928D01*
X31795840Y-42440009D01*
X31785452Y-42459445D01*
X31771476Y-42476476D01*
X31754445Y-42490452D01*
X31735009Y-42500840D01*
X31713928Y-42507236D01*
X31685860Y-42510000D01*
X29872140Y-42510000D01*
X29844072Y-42507236D01*
X29822991Y-42500840D01*
X29803555Y-42490452D01*
X29786524Y-42476476D01*
X29772548Y-42459445D01*
X29762160Y-42440009D01*
X29755764Y-42418928D01*
X29753000Y-42390860D01*
X29753000Y-41927140D01*
X29755764Y-41899072D01*
X29762160Y-41877991D01*
X29772548Y-41858555D01*
X29786524Y-41841524D01*
X29803555Y-41827548D01*
X29822991Y-41817160D01*
X29844072Y-41810764D01*
X29872140Y-41808000D01*
X31685860Y-41808000D01*
X31713928Y-41810764D01*
X31713928Y-41810764D01*
G37*
G36*
X27029562Y-39982181D02*
G01*
X27064481Y-39992774D01*
X27096663Y-40009976D01*
X27124873Y-40033127D01*
X27148024Y-40061337D01*
X27165226Y-40093519D01*
X27175819Y-40128438D01*
X27180000Y-40170895D01*
X27180000Y-41312105D01*
X27175819Y-41354562D01*
X27165226Y-41389481D01*
X27148024Y-41421663D01*
X27124873Y-41449873D01*
X27096663Y-41473024D01*
X27064481Y-41490226D01*
X27029562Y-41500819D01*
X26987105Y-41505000D01*
X25520895Y-41505000D01*
X25478438Y-41500819D01*
X25443519Y-41490226D01*
X25411337Y-41473024D01*
X25383127Y-41449873D01*
X25359976Y-41421663D01*
X25342774Y-41389481D01*
X25332181Y-41354562D01*
X25328000Y-41312105D01*
X25328000Y-40170895D01*
X25332181Y-40128438D01*
X25342774Y-40093519D01*
X25359976Y-40061337D01*
X25383127Y-40033127D01*
X25411337Y-40009976D01*
X25443519Y-39992774D01*
X25478438Y-39982181D01*
X25520895Y-39978000D01*
X26987105Y-39978000D01*
X27029562Y-39982181D01*
X27029562Y-39982181D01*
G37*
G36*
X31713928Y-40540764D02*
G01*
X31735009Y-40547160D01*
X31754445Y-40557548D01*
X31771476Y-40571524D01*
X31785452Y-40588555D01*
X31795840Y-40607991D01*
X31802236Y-40629072D01*
X31805000Y-40657140D01*
X31805000Y-41120860D01*
X31802236Y-41148928D01*
X31795840Y-41170009D01*
X31785452Y-41189445D01*
X31771476Y-41206476D01*
X31754445Y-41220452D01*
X31735009Y-41230840D01*
X31713928Y-41237236D01*
X31685860Y-41240000D01*
X29872140Y-41240000D01*
X29844072Y-41237236D01*
X29822991Y-41230840D01*
X29803555Y-41220452D01*
X29786524Y-41206476D01*
X29772548Y-41189445D01*
X29762160Y-41170009D01*
X29755764Y-41148928D01*
X29753000Y-41120860D01*
X29753000Y-40657140D01*
X29755764Y-40629072D01*
X29762160Y-40607991D01*
X29772548Y-40588555D01*
X29786524Y-40571524D01*
X29803555Y-40557548D01*
X29822991Y-40547160D01*
X29844072Y-40540764D01*
X29872140Y-40538000D01*
X31685860Y-40538000D01*
X31713928Y-40540764D01*
X31713928Y-40540764D01*
G37*
G36*
X36663928Y-40540764D02*
G01*
X36685009Y-40547160D01*
X36704445Y-40557548D01*
X36721476Y-40571524D01*
X36735452Y-40588555D01*
X36745840Y-40607991D01*
X36752236Y-40629072D01*
X36755000Y-40657140D01*
X36755000Y-41120860D01*
X36752236Y-41148928D01*
X36745840Y-41170009D01*
X36735452Y-41189445D01*
X36721476Y-41206476D01*
X36704445Y-41220452D01*
X36685009Y-41230840D01*
X36663928Y-41237236D01*
X36635860Y-41240000D01*
X34822140Y-41240000D01*
X34794072Y-41237236D01*
X34772991Y-41230840D01*
X34753555Y-41220452D01*
X34736524Y-41206476D01*
X34722548Y-41189445D01*
X34712160Y-41170009D01*
X34705764Y-41148928D01*
X34703000Y-41120860D01*
X34703000Y-40657140D01*
X34705764Y-40629072D01*
X34712160Y-40607991D01*
X34722548Y-40588555D01*
X34736524Y-40571524D01*
X34753555Y-40557548D01*
X34772991Y-40547160D01*
X34794072Y-40540764D01*
X34822140Y-40538000D01*
X36635860Y-40538000D01*
X36663928Y-40540764D01*
X36663928Y-40540764D01*
G37*
G36*
X89922604Y-39590347D02*
G01*
X89959144Y-39601432D01*
X89992821Y-39619433D01*
X90022341Y-39643659D01*
X90046567Y-39673179D01*
X90064568Y-39706856D01*
X90075653Y-39743396D01*
X90080000Y-39787538D01*
X90080000Y-40736462D01*
X90075653Y-40780604D01*
X90064568Y-40817144D01*
X90046567Y-40850821D01*
X90022341Y-40880341D01*
X89992821Y-40904567D01*
X89959144Y-40922568D01*
X89922604Y-40933653D01*
X89878462Y-40938000D01*
X88429538Y-40938000D01*
X88385396Y-40933653D01*
X88348856Y-40922568D01*
X88315179Y-40904567D01*
X88285659Y-40880341D01*
X88261433Y-40850821D01*
X88243432Y-40817144D01*
X88232347Y-40780604D01*
X88228000Y-40736462D01*
X88228000Y-39787538D01*
X88232347Y-39743396D01*
X88243432Y-39706856D01*
X88261433Y-39673179D01*
X88285659Y-39643659D01*
X88315179Y-39619433D01*
X88348856Y-39601432D01*
X88385396Y-39590347D01*
X88429538Y-39586000D01*
X89878462Y-39586000D01*
X89922604Y-39590347D01*
X89922604Y-39590347D01*
G37*
G36*
X87128604Y-39590347D02*
G01*
X87165144Y-39601432D01*
X87198821Y-39619433D01*
X87228341Y-39643659D01*
X87252567Y-39673179D01*
X87270568Y-39706856D01*
X87281653Y-39743396D01*
X87286000Y-39787538D01*
X87286000Y-40736462D01*
X87281653Y-40780604D01*
X87270568Y-40817144D01*
X87252567Y-40850821D01*
X87228341Y-40880341D01*
X87198821Y-40904567D01*
X87165144Y-40922568D01*
X87128604Y-40933653D01*
X87084462Y-40938000D01*
X85635538Y-40938000D01*
X85591396Y-40933653D01*
X85554856Y-40922568D01*
X85521179Y-40904567D01*
X85491659Y-40880341D01*
X85467433Y-40850821D01*
X85449432Y-40817144D01*
X85438347Y-40780604D01*
X85434000Y-40736462D01*
X85434000Y-39787538D01*
X85438347Y-39743396D01*
X85449432Y-39706856D01*
X85467433Y-39673179D01*
X85491659Y-39643659D01*
X85521179Y-39619433D01*
X85554856Y-39601432D01*
X85591396Y-39590347D01*
X85635538Y-39586000D01*
X87084462Y-39586000D01*
X87128604Y-39590347D01*
X87128604Y-39590347D01*
G37*
G36*
X92716604Y-39538347D02*
G01*
X92753144Y-39549432D01*
X92786821Y-39567433D01*
X92816341Y-39591659D01*
X92840567Y-39621179D01*
X92858568Y-39654856D01*
X92869653Y-39691396D01*
X92874000Y-39735538D01*
X92874000Y-40684462D01*
X92869653Y-40728604D01*
X92858568Y-40765144D01*
X92840567Y-40798821D01*
X92816341Y-40828341D01*
X92786821Y-40852567D01*
X92753144Y-40870568D01*
X92716604Y-40881653D01*
X92672462Y-40886000D01*
X91223538Y-40886000D01*
X91179396Y-40881653D01*
X91142856Y-40870568D01*
X91109179Y-40852567D01*
X91079659Y-40828341D01*
X91055433Y-40798821D01*
X91037432Y-40765144D01*
X91026347Y-40728604D01*
X91022000Y-40684462D01*
X91022000Y-39735538D01*
X91026347Y-39691396D01*
X91037432Y-39654856D01*
X91055433Y-39621179D01*
X91079659Y-39591659D01*
X91109179Y-39567433D01*
X91142856Y-39549432D01*
X91179396Y-39538347D01*
X91223538Y-39534000D01*
X92672462Y-39534000D01*
X92716604Y-39538347D01*
X92716604Y-39538347D01*
G37*
G36*
X55251000Y-40851000D02*
G01*
X53549000Y-40851000D01*
X53549000Y-39149000D01*
X55251000Y-39149000D01*
X55251000Y-40851000D01*
X55251000Y-40851000D01*
G37*
G36*
X45751000Y-40851000D02*
G01*
X44049000Y-40851000D01*
X44049000Y-39149000D01*
X45751000Y-39149000D01*
X45751000Y-40851000D01*
X45751000Y-40851000D01*
G37*
G36*
X97041000Y-40541000D02*
G01*
X95139000Y-40541000D01*
X95139000Y-39439000D01*
X97041000Y-39439000D01*
X97041000Y-40541000D01*
X97041000Y-40541000D01*
G37*
G36*
X31713928Y-39270764D02*
G01*
X31735009Y-39277160D01*
X31754445Y-39287548D01*
X31771476Y-39301524D01*
X31785452Y-39318555D01*
X31795840Y-39337991D01*
X31802236Y-39359072D01*
X31805000Y-39387140D01*
X31805000Y-39850860D01*
X31802236Y-39878928D01*
X31795840Y-39900009D01*
X31785452Y-39919445D01*
X31771476Y-39936476D01*
X31754445Y-39950452D01*
X31735009Y-39960840D01*
X31713928Y-39967236D01*
X31685860Y-39970000D01*
X29872140Y-39970000D01*
X29844072Y-39967236D01*
X29822991Y-39960840D01*
X29803555Y-39950452D01*
X29786524Y-39936476D01*
X29772548Y-39919445D01*
X29762160Y-39900009D01*
X29755764Y-39878928D01*
X29753000Y-39850860D01*
X29753000Y-39387140D01*
X29755764Y-39359072D01*
X29762160Y-39337991D01*
X29772548Y-39318555D01*
X29786524Y-39301524D01*
X29803555Y-39287548D01*
X29822991Y-39277160D01*
X29844072Y-39270764D01*
X29872140Y-39268000D01*
X31685860Y-39268000D01*
X31713928Y-39270764D01*
X31713928Y-39270764D01*
G37*
G36*
X36663928Y-39270764D02*
G01*
X36685009Y-39277160D01*
X36704445Y-39287548D01*
X36721476Y-39301524D01*
X36735452Y-39318555D01*
X36745840Y-39337991D01*
X36752236Y-39359072D01*
X36755000Y-39387140D01*
X36755000Y-39850860D01*
X36752236Y-39878928D01*
X36745840Y-39900009D01*
X36735452Y-39919445D01*
X36721476Y-39936476D01*
X36704445Y-39950452D01*
X36685009Y-39960840D01*
X36663928Y-39967236D01*
X36635860Y-39970000D01*
X34822140Y-39970000D01*
X34794072Y-39967236D01*
X34772991Y-39960840D01*
X34753555Y-39950452D01*
X34736524Y-39936476D01*
X34722548Y-39919445D01*
X34712160Y-39900009D01*
X34705764Y-39878928D01*
X34703000Y-39850860D01*
X34703000Y-39387140D01*
X34705764Y-39359072D01*
X34712160Y-39337991D01*
X34722548Y-39318555D01*
X34736524Y-39301524D01*
X34753555Y-39287548D01*
X34772991Y-39277160D01*
X34794072Y-39270764D01*
X34822140Y-39268000D01*
X36635860Y-39268000D01*
X36663928Y-39270764D01*
X36663928Y-39270764D01*
G37*
G36*
X36663928Y-38000764D02*
G01*
X36685009Y-38007160D01*
X36704445Y-38017548D01*
X36721476Y-38031524D01*
X36735452Y-38048555D01*
X36745840Y-38067991D01*
X36752236Y-38089072D01*
X36755000Y-38117140D01*
X36755000Y-38580860D01*
X36752236Y-38608928D01*
X36745840Y-38630009D01*
X36735452Y-38649445D01*
X36721476Y-38666476D01*
X36704445Y-38680452D01*
X36685009Y-38690840D01*
X36663928Y-38697236D01*
X36635860Y-38700000D01*
X34822140Y-38700000D01*
X34794072Y-38697236D01*
X34772991Y-38690840D01*
X34753555Y-38680452D01*
X34736524Y-38666476D01*
X34722548Y-38649445D01*
X34712160Y-38630009D01*
X34705764Y-38608928D01*
X34703000Y-38580860D01*
X34703000Y-38117140D01*
X34705764Y-38089072D01*
X34712160Y-38067991D01*
X34722548Y-38048555D01*
X34736524Y-38031524D01*
X34753555Y-38017548D01*
X34772991Y-38007160D01*
X34794072Y-38000764D01*
X34822140Y-37998000D01*
X36635860Y-37998000D01*
X36663928Y-38000764D01*
X36663928Y-38000764D01*
G37*
G36*
X31713928Y-38000764D02*
G01*
X31735009Y-38007160D01*
X31754445Y-38017548D01*
X31771476Y-38031524D01*
X31785452Y-38048555D01*
X31795840Y-38067991D01*
X31802236Y-38089072D01*
X31805000Y-38117140D01*
X31805000Y-38580860D01*
X31802236Y-38608928D01*
X31795840Y-38630009D01*
X31785452Y-38649445D01*
X31771476Y-38666476D01*
X31754445Y-38680452D01*
X31735009Y-38690840D01*
X31713928Y-38697236D01*
X31685860Y-38700000D01*
X29872140Y-38700000D01*
X29844072Y-38697236D01*
X29822991Y-38690840D01*
X29803555Y-38680452D01*
X29786524Y-38666476D01*
X29772548Y-38649445D01*
X29762160Y-38630009D01*
X29755764Y-38608928D01*
X29753000Y-38580860D01*
X29753000Y-38117140D01*
X29755764Y-38089072D01*
X29762160Y-38067991D01*
X29772548Y-38048555D01*
X29786524Y-38031524D01*
X29803555Y-38017548D01*
X29822991Y-38007160D01*
X29844072Y-38000764D01*
X29872140Y-37998000D01*
X31685860Y-37998000D01*
X31713928Y-38000764D01*
X31713928Y-38000764D01*
G37*
G36*
X97041000Y-38541000D02*
G01*
X95139000Y-38541000D01*
X95139000Y-37439000D01*
X97041000Y-37439000D01*
X97041000Y-38541000D01*
X97041000Y-38541000D01*
G37*
G36*
X27029562Y-37007181D02*
G01*
X27064481Y-37017774D01*
X27096663Y-37034976D01*
X27124873Y-37058127D01*
X27148024Y-37086337D01*
X27165226Y-37118519D01*
X27175819Y-37153438D01*
X27180000Y-37195895D01*
X27180000Y-38337105D01*
X27175819Y-38379562D01*
X27165226Y-38414481D01*
X27148024Y-38446663D01*
X27124873Y-38474873D01*
X27096663Y-38498024D01*
X27064481Y-38515226D01*
X27029562Y-38525819D01*
X26987105Y-38530000D01*
X25520895Y-38530000D01*
X25478438Y-38525819D01*
X25443519Y-38515226D01*
X25411337Y-38498024D01*
X25383127Y-38474873D01*
X25359976Y-38446663D01*
X25342774Y-38414481D01*
X25332181Y-38379562D01*
X25328000Y-38337105D01*
X25328000Y-37195895D01*
X25332181Y-37153438D01*
X25342774Y-37118519D01*
X25359976Y-37086337D01*
X25383127Y-37058127D01*
X25411337Y-37034976D01*
X25443519Y-37017774D01*
X25478438Y-37007181D01*
X25520895Y-37003000D01*
X26987105Y-37003000D01*
X27029562Y-37007181D01*
X27029562Y-37007181D01*
G37*
G36*
X45148228Y-36681703D02*
G01*
X45303100Y-36745853D01*
X45442481Y-36838985D01*
X45561015Y-36957519D01*
X45654147Y-37096900D01*
X45718297Y-37251772D01*
X45751000Y-37416184D01*
X45751000Y-37583816D01*
X45718297Y-37748228D01*
X45654147Y-37903100D01*
X45561015Y-38042481D01*
X45442481Y-38161015D01*
X45303100Y-38254147D01*
X45148228Y-38318297D01*
X44983816Y-38351000D01*
X44816184Y-38351000D01*
X44651772Y-38318297D01*
X44496900Y-38254147D01*
X44357519Y-38161015D01*
X44238985Y-38042481D01*
X44145853Y-37903100D01*
X44081703Y-37748228D01*
X44049000Y-37583816D01*
X44049000Y-37416184D01*
X44081703Y-37251772D01*
X44145853Y-37096900D01*
X44238985Y-36957519D01*
X44357519Y-36838985D01*
X44496900Y-36745853D01*
X44651772Y-36681703D01*
X44816184Y-36649000D01*
X44983816Y-36649000D01*
X45148228Y-36681703D01*
X45148228Y-36681703D01*
G37*
G36*
X54648228Y-36681703D02*
G01*
X54803100Y-36745853D01*
X54942481Y-36838985D01*
X55061015Y-36957519D01*
X55154147Y-37096900D01*
X55218297Y-37251772D01*
X55251000Y-37416184D01*
X55251000Y-37583816D01*
X55218297Y-37748228D01*
X55154147Y-37903100D01*
X55061015Y-38042481D01*
X54942481Y-38161015D01*
X54803100Y-38254147D01*
X54648228Y-38318297D01*
X54483816Y-38351000D01*
X54316184Y-38351000D01*
X54151772Y-38318297D01*
X53996900Y-38254147D01*
X53857519Y-38161015D01*
X53738985Y-38042481D01*
X53645853Y-37903100D01*
X53581703Y-37748228D01*
X53549000Y-37583816D01*
X53549000Y-37416184D01*
X53581703Y-37251772D01*
X53645853Y-37096900D01*
X53738985Y-36957519D01*
X53857519Y-36838985D01*
X53996900Y-36745853D01*
X54151772Y-36681703D01*
X54316184Y-36649000D01*
X54483816Y-36649000D01*
X54648228Y-36681703D01*
X54648228Y-36681703D01*
G37*
G36*
X87128604Y-36790347D02*
G01*
X87165144Y-36801432D01*
X87198821Y-36819433D01*
X87228341Y-36843659D01*
X87252567Y-36873179D01*
X87270568Y-36906856D01*
X87281653Y-36943396D01*
X87286000Y-36987538D01*
X87286000Y-37936462D01*
X87281653Y-37980604D01*
X87270568Y-38017144D01*
X87252567Y-38050821D01*
X87228341Y-38080341D01*
X87198821Y-38104567D01*
X87165144Y-38122568D01*
X87128604Y-38133653D01*
X87084462Y-38138000D01*
X85635538Y-38138000D01*
X85591396Y-38133653D01*
X85554856Y-38122568D01*
X85521179Y-38104567D01*
X85491659Y-38080341D01*
X85467433Y-38050821D01*
X85449432Y-38017144D01*
X85438347Y-37980604D01*
X85434000Y-37936462D01*
X85434000Y-36987538D01*
X85438347Y-36943396D01*
X85449432Y-36906856D01*
X85467433Y-36873179D01*
X85491659Y-36843659D01*
X85521179Y-36819433D01*
X85554856Y-36801432D01*
X85591396Y-36790347D01*
X85635538Y-36786000D01*
X87084462Y-36786000D01*
X87128604Y-36790347D01*
X87128604Y-36790347D01*
G37*
G36*
X89922604Y-36790347D02*
G01*
X89959144Y-36801432D01*
X89992821Y-36819433D01*
X90022341Y-36843659D01*
X90046567Y-36873179D01*
X90064568Y-36906856D01*
X90075653Y-36943396D01*
X90080000Y-36987538D01*
X90080000Y-37936462D01*
X90075653Y-37980604D01*
X90064568Y-38017144D01*
X90046567Y-38050821D01*
X90022341Y-38080341D01*
X89992821Y-38104567D01*
X89959144Y-38122568D01*
X89922604Y-38133653D01*
X89878462Y-38138000D01*
X88429538Y-38138000D01*
X88385396Y-38133653D01*
X88348856Y-38122568D01*
X88315179Y-38104567D01*
X88285659Y-38080341D01*
X88261433Y-38050821D01*
X88243432Y-38017144D01*
X88232347Y-37980604D01*
X88228000Y-37936462D01*
X88228000Y-36987538D01*
X88232347Y-36943396D01*
X88243432Y-36906856D01*
X88261433Y-36873179D01*
X88285659Y-36843659D01*
X88315179Y-36819433D01*
X88348856Y-36801432D01*
X88385396Y-36790347D01*
X88429538Y-36786000D01*
X89878462Y-36786000D01*
X89922604Y-36790347D01*
X89922604Y-36790347D01*
G37*
G36*
X92716604Y-36738347D02*
G01*
X92753144Y-36749432D01*
X92786821Y-36767433D01*
X92816341Y-36791659D01*
X92840567Y-36821179D01*
X92858568Y-36854856D01*
X92869653Y-36891396D01*
X92874000Y-36935538D01*
X92874000Y-37884462D01*
X92869653Y-37928604D01*
X92858568Y-37965144D01*
X92840567Y-37998821D01*
X92816341Y-38028341D01*
X92786821Y-38052567D01*
X92753144Y-38070568D01*
X92716604Y-38081653D01*
X92672462Y-38086000D01*
X91223538Y-38086000D01*
X91179396Y-38081653D01*
X91142856Y-38070568D01*
X91109179Y-38052567D01*
X91079659Y-38028341D01*
X91055433Y-37998821D01*
X91037432Y-37965144D01*
X91026347Y-37928604D01*
X91022000Y-37884462D01*
X91022000Y-36935538D01*
X91026347Y-36891396D01*
X91037432Y-36854856D01*
X91055433Y-36821179D01*
X91079659Y-36791659D01*
X91109179Y-36767433D01*
X91142856Y-36749432D01*
X91179396Y-36738347D01*
X91223538Y-36734000D01*
X92672462Y-36734000D01*
X92716604Y-36738347D01*
X92716604Y-36738347D01*
G37*
G36*
X97041000Y-36541000D02*
G01*
X95139000Y-36541000D01*
X95139000Y-35439000D01*
X97041000Y-35439000D01*
X97041000Y-36541000D01*
X97041000Y-36541000D01*
G37*
G36*
X97041000Y-34541000D02*
G01*
X95139000Y-34541000D01*
X95139000Y-33439000D01*
X97041000Y-33439000D01*
X97041000Y-34541000D01*
X97041000Y-34541000D01*
G37*
G36*
X54110443Y-32265519D02*
G01*
X54176627Y-32272037D01*
X54346466Y-32323557D01*
X54502991Y-32407222D01*
X54538729Y-32436552D01*
X54640186Y-32519814D01*
X54723448Y-32621271D01*
X54752778Y-32657009D01*
X54752779Y-32657011D01*
X54834097Y-32809144D01*
X54836443Y-32813534D01*
X54887963Y-32983373D01*
X54905359Y-33160000D01*
X54887963Y-33336627D01*
X54836443Y-33506466D01*
X54752778Y-33662991D01*
X54723448Y-33698729D01*
X54640186Y-33800186D01*
X54538729Y-33883448D01*
X54502991Y-33912778D01*
X54346466Y-33996443D01*
X54176627Y-34047963D01*
X54110443Y-34054481D01*
X54044260Y-34061000D01*
X53955740Y-34061000D01*
X53889557Y-34054481D01*
X53823373Y-34047963D01*
X53653534Y-33996443D01*
X53497009Y-33912778D01*
X53461271Y-33883448D01*
X53359814Y-33800186D01*
X53276552Y-33698729D01*
X53247222Y-33662991D01*
X53163557Y-33506466D01*
X53112037Y-33336627D01*
X53094641Y-33160000D01*
X53112037Y-32983373D01*
X53163557Y-32813534D01*
X53165904Y-32809144D01*
X53247221Y-32657011D01*
X53247222Y-32657009D01*
X53276552Y-32621271D01*
X53359814Y-32519814D01*
X53461271Y-32436552D01*
X53497009Y-32407222D01*
X53653534Y-32323557D01*
X53823373Y-32272037D01*
X53889557Y-32265519D01*
X53955740Y-32259000D01*
X54044260Y-32259000D01*
X54110443Y-32265519D01*
X54110443Y-32265519D01*
G37*
G36*
X66942604Y-31082347D02*
G01*
X66979144Y-31093432D01*
X67012821Y-31111433D01*
X67042341Y-31135659D01*
X67066567Y-31165179D01*
X67084568Y-31198856D01*
X67095653Y-31235396D01*
X67100000Y-31279538D01*
X67100000Y-32728462D01*
X67095653Y-32772604D01*
X67084568Y-32809144D01*
X67066567Y-32842821D01*
X67042341Y-32872341D01*
X67012821Y-32896567D01*
X66979144Y-32914568D01*
X66942604Y-32925653D01*
X66898462Y-32930000D01*
X65949538Y-32930000D01*
X65905396Y-32925653D01*
X65868856Y-32914568D01*
X65835179Y-32896567D01*
X65805659Y-32872341D01*
X65781433Y-32842821D01*
X65763432Y-32809144D01*
X65752347Y-32772604D01*
X65748000Y-32728462D01*
X65748000Y-31279538D01*
X65752347Y-31235396D01*
X65763432Y-31198856D01*
X65781433Y-31165179D01*
X65805659Y-31135659D01*
X65835179Y-31111433D01*
X65868856Y-31093432D01*
X65905396Y-31082347D01*
X65949538Y-31078000D01*
X66898462Y-31078000D01*
X66942604Y-31082347D01*
X66942604Y-31082347D01*
G37*
G36*
X64142604Y-31082347D02*
G01*
X64179144Y-31093432D01*
X64212821Y-31111433D01*
X64242341Y-31135659D01*
X64266567Y-31165179D01*
X64284568Y-31198856D01*
X64295653Y-31235396D01*
X64300000Y-31279538D01*
X64300000Y-32728462D01*
X64295653Y-32772604D01*
X64284568Y-32809144D01*
X64266567Y-32842821D01*
X64242341Y-32872341D01*
X64212821Y-32896567D01*
X64179144Y-32914568D01*
X64142604Y-32925653D01*
X64098462Y-32930000D01*
X63149538Y-32930000D01*
X63105396Y-32925653D01*
X63068856Y-32914568D01*
X63035179Y-32896567D01*
X63005659Y-32872341D01*
X62981433Y-32842821D01*
X62963432Y-32809144D01*
X62952347Y-32772604D01*
X62948000Y-32728462D01*
X62948000Y-31279538D01*
X62952347Y-31235396D01*
X62963432Y-31198856D01*
X62981433Y-31165179D01*
X63005659Y-31135659D01*
X63035179Y-31111433D01*
X63068856Y-31093432D01*
X63105396Y-31082347D01*
X63149538Y-31078000D01*
X64098462Y-31078000D01*
X64142604Y-31082347D01*
X64142604Y-31082347D01*
G37*
G36*
X97041000Y-32541000D02*
G01*
X95139000Y-32541000D01*
X95139000Y-31439000D01*
X97041000Y-31439000D01*
X97041000Y-32541000D01*
X97041000Y-32541000D01*
G37*
G36*
X54110443Y-29725519D02*
G01*
X54176627Y-29732037D01*
X54346466Y-29783557D01*
X54502991Y-29867222D01*
X54538729Y-29896552D01*
X54640186Y-29979814D01*
X54723448Y-30081271D01*
X54752778Y-30117009D01*
X54836443Y-30273534D01*
X54887963Y-30443373D01*
X54905359Y-30620000D01*
X54887963Y-30796627D01*
X54836443Y-30966466D01*
X54752778Y-31122991D01*
X54724705Y-31157198D01*
X54640186Y-31260186D01*
X54563916Y-31322778D01*
X54502991Y-31372778D01*
X54346466Y-31456443D01*
X54176627Y-31507963D01*
X54110443Y-31514481D01*
X54044260Y-31521000D01*
X53955740Y-31521000D01*
X53889557Y-31514481D01*
X53823373Y-31507963D01*
X53653534Y-31456443D01*
X53497009Y-31372778D01*
X53436084Y-31322778D01*
X53359814Y-31260186D01*
X53275295Y-31157198D01*
X53247222Y-31122991D01*
X53163557Y-30966466D01*
X53112037Y-30796627D01*
X53094641Y-30620000D01*
X53112037Y-30443373D01*
X53163557Y-30273534D01*
X53247222Y-30117009D01*
X53276552Y-30081271D01*
X53359814Y-29979814D01*
X53461271Y-29896552D01*
X53497009Y-29867222D01*
X53653534Y-29783557D01*
X53823373Y-29732037D01*
X53889557Y-29725519D01*
X53955740Y-29719000D01*
X54044260Y-29719000D01*
X54110443Y-29725519D01*
X54110443Y-29725519D01*
G37*
G36*
X24610443Y-29675519D02*
G01*
X24676627Y-29682037D01*
X24846466Y-29733557D01*
X25002991Y-29817222D01*
X25038729Y-29846552D01*
X25140186Y-29929814D01*
X25223448Y-30031271D01*
X25252778Y-30067009D01*
X25336443Y-30223534D01*
X25387963Y-30393373D01*
X25405359Y-30570000D01*
X25387963Y-30746627D01*
X25336443Y-30916466D01*
X25252778Y-31072991D01*
X25236002Y-31093432D01*
X25140186Y-31210186D01*
X25055679Y-31279538D01*
X25002991Y-31322778D01*
X24846466Y-31406443D01*
X24676627Y-31457963D01*
X24610443Y-31464481D01*
X24544260Y-31471000D01*
X24455740Y-31471000D01*
X24389557Y-31464481D01*
X24323373Y-31457963D01*
X24153534Y-31406443D01*
X23997009Y-31322778D01*
X23944321Y-31279538D01*
X23859814Y-31210186D01*
X23763998Y-31093432D01*
X23747222Y-31072991D01*
X23663557Y-30916466D01*
X23612037Y-30746627D01*
X23594641Y-30570000D01*
X23612037Y-30393373D01*
X23663557Y-30223534D01*
X23747222Y-30067009D01*
X23776552Y-30031271D01*
X23859814Y-29929814D01*
X23961271Y-29846552D01*
X23997009Y-29817222D01*
X24153534Y-29733557D01*
X24323373Y-29682037D01*
X24389557Y-29675519D01*
X24455740Y-29669000D01*
X24544260Y-29669000D01*
X24610443Y-29675519D01*
X24610443Y-29675519D01*
G37*
G36*
X93993562Y-29176181D02*
G01*
X94028481Y-29186774D01*
X94060663Y-29203976D01*
X94088873Y-29227127D01*
X94112024Y-29255337D01*
X94129226Y-29287519D01*
X94139819Y-29322438D01*
X94144000Y-29364895D01*
X94144000Y-30506105D01*
X94139819Y-30548562D01*
X94129226Y-30583481D01*
X94112024Y-30615663D01*
X94088873Y-30643873D01*
X94060663Y-30667024D01*
X94028481Y-30684226D01*
X93993562Y-30694819D01*
X93951105Y-30699000D01*
X92484895Y-30699000D01*
X92442438Y-30694819D01*
X92407519Y-30684226D01*
X92375337Y-30667024D01*
X92347127Y-30643873D01*
X92323976Y-30615663D01*
X92306774Y-30583481D01*
X92296181Y-30548562D01*
X92292000Y-30506105D01*
X92292000Y-29364895D01*
X92296181Y-29322438D01*
X92306774Y-29287519D01*
X92323976Y-29255337D01*
X92347127Y-29227127D01*
X92375337Y-29203976D01*
X92407519Y-29186774D01*
X92442438Y-29176181D01*
X92484895Y-29172000D01*
X93951105Y-29172000D01*
X93993562Y-29176181D01*
X93993562Y-29176181D01*
G37*
G36*
X97041000Y-30541000D02*
G01*
X95139000Y-30541000D01*
X95139000Y-29439000D01*
X97041000Y-29439000D01*
X97041000Y-30541000D01*
X97041000Y-30541000D01*
G37*
G36*
X54110442Y-27185518D02*
G01*
X54176627Y-27192037D01*
X54346466Y-27243557D01*
X54502991Y-27327222D01*
X54538729Y-27356552D01*
X54640186Y-27439814D01*
X54715105Y-27531105D01*
X54752778Y-27577009D01*
X54836443Y-27733534D01*
X54887963Y-27903373D01*
X54905359Y-28080000D01*
X54887963Y-28256627D01*
X54836443Y-28426466D01*
X54752778Y-28582991D01*
X54723448Y-28618729D01*
X54640186Y-28720186D01*
X54563916Y-28782778D01*
X54502991Y-28832778D01*
X54346466Y-28916443D01*
X54176627Y-28967963D01*
X54110443Y-28974481D01*
X54044260Y-28981000D01*
X53955740Y-28981000D01*
X53889557Y-28974481D01*
X53823373Y-28967963D01*
X53653534Y-28916443D01*
X53497009Y-28832778D01*
X53436084Y-28782778D01*
X53359814Y-28720186D01*
X53276552Y-28618729D01*
X53247222Y-28582991D01*
X53163557Y-28426466D01*
X53112037Y-28256627D01*
X53094641Y-28080000D01*
X53112037Y-27903373D01*
X53163557Y-27733534D01*
X53247222Y-27577009D01*
X53284895Y-27531105D01*
X53359814Y-27439814D01*
X53461271Y-27356552D01*
X53497009Y-27327222D01*
X53653534Y-27243557D01*
X53823373Y-27192037D01*
X53889558Y-27185518D01*
X53955740Y-27179000D01*
X54044260Y-27179000D01*
X54110442Y-27185518D01*
X54110442Y-27185518D01*
G37*
G36*
X24610442Y-27135518D02*
G01*
X24676627Y-27142037D01*
X24846466Y-27193557D01*
X25002991Y-27277222D01*
X25038729Y-27306552D01*
X25140186Y-27389814D01*
X25223448Y-27491271D01*
X25252778Y-27527009D01*
X25252779Y-27527011D01*
X25328607Y-27668873D01*
X25336443Y-27683534D01*
X25387963Y-27853373D01*
X25405359Y-28030000D01*
X25387963Y-28206627D01*
X25336443Y-28376466D01*
X25252778Y-28532991D01*
X25223448Y-28568729D01*
X25140186Y-28670186D01*
X25038729Y-28753448D01*
X25002991Y-28782778D01*
X24846466Y-28866443D01*
X24676627Y-28917963D01*
X24610442Y-28924482D01*
X24544260Y-28931000D01*
X24455740Y-28931000D01*
X24389558Y-28924482D01*
X24323373Y-28917963D01*
X24153534Y-28866443D01*
X23997009Y-28782778D01*
X23961271Y-28753448D01*
X23859814Y-28670186D01*
X23776552Y-28568729D01*
X23747222Y-28532991D01*
X23663557Y-28376466D01*
X23612037Y-28206627D01*
X23594641Y-28030000D01*
X23612037Y-27853373D01*
X23663557Y-27683534D01*
X23671394Y-27668873D01*
X23747221Y-27527011D01*
X23747222Y-27527009D01*
X23776552Y-27491271D01*
X23859814Y-27389814D01*
X23961271Y-27306552D01*
X23997009Y-27277222D01*
X24153534Y-27193557D01*
X24323373Y-27142037D01*
X24389558Y-27135518D01*
X24455740Y-27129000D01*
X24544260Y-27129000D01*
X24610442Y-27135518D01*
X24610442Y-27135518D01*
G37*
G36*
X100141000Y-28691000D02*
G01*
X99039000Y-28691000D01*
X99039000Y-26089000D01*
X100141000Y-26089000D01*
X100141000Y-28691000D01*
X100141000Y-28691000D01*
G37*
G36*
X112141000Y-28691000D02*
G01*
X111039000Y-28691000D01*
X111039000Y-26089000D01*
X112141000Y-26089000D01*
X112141000Y-28691000D01*
X112141000Y-28691000D01*
G37*
G36*
X110141000Y-28691000D02*
G01*
X109039000Y-28691000D01*
X109039000Y-26089000D01*
X110141000Y-26089000D01*
X110141000Y-28691000D01*
X110141000Y-28691000D01*
G37*
G36*
X108141000Y-28691000D02*
G01*
X107039000Y-28691000D01*
X107039000Y-26089000D01*
X108141000Y-26089000D01*
X108141000Y-28691000D01*
X108141000Y-28691000D01*
G37*
G36*
X106141000Y-28691000D02*
G01*
X105039000Y-28691000D01*
X105039000Y-26089000D01*
X106141000Y-26089000D01*
X106141000Y-28691000D01*
X106141000Y-28691000D01*
G37*
G36*
X104141000Y-28691000D02*
G01*
X103039000Y-28691000D01*
X103039000Y-26089000D01*
X104141000Y-26089000D01*
X104141000Y-28691000D01*
X104141000Y-28691000D01*
G37*
G36*
X102141000Y-28691000D02*
G01*
X101039000Y-28691000D01*
X101039000Y-26089000D01*
X102141000Y-26089000D01*
X102141000Y-28691000D01*
X102141000Y-28691000D01*
G37*
G36*
X98141000Y-28691000D02*
G01*
X97039000Y-28691000D01*
X97039000Y-26089000D01*
X98141000Y-26089000D01*
X98141000Y-28691000D01*
X98141000Y-28691000D01*
G37*
G36*
X93993562Y-26201181D02*
G01*
X94028481Y-26211774D01*
X94060663Y-26228976D01*
X94088873Y-26252127D01*
X94112024Y-26280337D01*
X94129226Y-26312519D01*
X94139819Y-26347438D01*
X94144000Y-26389895D01*
X94144000Y-27531105D01*
X94139819Y-27573562D01*
X94129226Y-27608481D01*
X94112024Y-27640663D01*
X94088873Y-27668873D01*
X94060663Y-27692024D01*
X94028481Y-27709226D01*
X93993562Y-27719819D01*
X93951105Y-27724000D01*
X92484895Y-27724000D01*
X92442438Y-27719819D01*
X92407519Y-27709226D01*
X92375337Y-27692024D01*
X92347127Y-27668873D01*
X92323976Y-27640663D01*
X92306774Y-27608481D01*
X92296181Y-27573562D01*
X92292000Y-27531105D01*
X92292000Y-26389895D01*
X92296181Y-26347438D01*
X92306774Y-26312519D01*
X92323976Y-26280337D01*
X92347127Y-26252127D01*
X92375337Y-26228976D01*
X92407519Y-26211774D01*
X92442438Y-26201181D01*
X92484895Y-26197000D01*
X93951105Y-26197000D01*
X93993562Y-26201181D01*
X93993562Y-26201181D01*
G37*
G36*
X83826604Y-25112347D02*
G01*
X83863144Y-25123432D01*
X83896821Y-25141433D01*
X83926341Y-25165659D01*
X83950567Y-25195179D01*
X83968568Y-25228856D01*
X83979653Y-25265396D01*
X83984000Y-25309538D01*
X83984000Y-26258462D01*
X83979653Y-26302604D01*
X83968568Y-26339144D01*
X83950567Y-26372821D01*
X83926341Y-26402341D01*
X83896821Y-26426567D01*
X83863144Y-26444568D01*
X83826604Y-26455653D01*
X83782462Y-26460000D01*
X82333538Y-26460000D01*
X82289396Y-26455653D01*
X82252856Y-26444568D01*
X82219179Y-26426567D01*
X82189659Y-26402341D01*
X82165433Y-26372821D01*
X82147432Y-26339144D01*
X82136347Y-26302604D01*
X82132000Y-26258462D01*
X82132000Y-25309538D01*
X82136347Y-25265396D01*
X82147432Y-25228856D01*
X82165433Y-25195179D01*
X82189659Y-25165659D01*
X82219179Y-25141433D01*
X82252856Y-25123432D01*
X82289396Y-25112347D01*
X82333538Y-25108000D01*
X83782462Y-25108000D01*
X83826604Y-25112347D01*
X83826604Y-25112347D01*
G37*
G36*
X54110443Y-24645519D02*
G01*
X54176627Y-24652037D01*
X54346466Y-24703557D01*
X54502991Y-24787222D01*
X54538729Y-24816552D01*
X54640186Y-24899814D01*
X54723448Y-25001271D01*
X54752778Y-25037009D01*
X54836443Y-25193534D01*
X54887963Y-25363373D01*
X54905359Y-25540000D01*
X54887963Y-25716627D01*
X54836443Y-25886466D01*
X54752778Y-26042991D01*
X54723448Y-26078729D01*
X54640186Y-26180186D01*
X54564435Y-26242352D01*
X54502991Y-26292778D01*
X54346466Y-26376443D01*
X54176627Y-26427963D01*
X54110442Y-26434482D01*
X54044260Y-26441000D01*
X53955740Y-26441000D01*
X53889558Y-26434482D01*
X53823373Y-26427963D01*
X53653534Y-26376443D01*
X53497009Y-26292778D01*
X53435565Y-26242352D01*
X53359814Y-26180186D01*
X53276552Y-26078729D01*
X53247222Y-26042991D01*
X53163557Y-25886466D01*
X53112037Y-25716627D01*
X53094641Y-25540000D01*
X53112037Y-25363373D01*
X53163557Y-25193534D01*
X53247222Y-25037009D01*
X53276552Y-25001271D01*
X53359814Y-24899814D01*
X53461271Y-24816552D01*
X53497009Y-24787222D01*
X53653534Y-24703557D01*
X53823373Y-24652037D01*
X53889557Y-24645519D01*
X53955740Y-24639000D01*
X54044260Y-24639000D01*
X54110443Y-24645519D01*
X54110443Y-24645519D01*
G37*
G36*
X24610442Y-24595518D02*
G01*
X24676627Y-24602037D01*
X24846466Y-24653557D01*
X25002991Y-24737222D01*
X25038729Y-24766552D01*
X25140186Y-24849814D01*
X25223448Y-24951271D01*
X25252778Y-24987009D01*
X25252779Y-24987011D01*
X25328452Y-25128583D01*
X25336443Y-25143534D01*
X25387963Y-25313373D01*
X25405359Y-25490000D01*
X25387963Y-25666627D01*
X25336443Y-25836466D01*
X25252778Y-25992991D01*
X25223448Y-26028729D01*
X25140186Y-26130186D01*
X25040769Y-26211774D01*
X25002991Y-26242778D01*
X24846466Y-26326443D01*
X24676627Y-26377963D01*
X24610442Y-26384482D01*
X24544260Y-26391000D01*
X24455740Y-26391000D01*
X24389558Y-26384482D01*
X24323373Y-26377963D01*
X24153534Y-26326443D01*
X23997009Y-26242778D01*
X23959231Y-26211774D01*
X23859814Y-26130186D01*
X23776552Y-26028729D01*
X23747222Y-25992991D01*
X23663557Y-25836466D01*
X23612037Y-25666627D01*
X23594641Y-25490000D01*
X23612037Y-25313373D01*
X23663557Y-25143534D01*
X23671549Y-25128583D01*
X23747221Y-24987011D01*
X23747222Y-24987009D01*
X23776552Y-24951271D01*
X23859814Y-24849814D01*
X23961271Y-24766552D01*
X23997009Y-24737222D01*
X24153534Y-24653557D01*
X24323373Y-24602037D01*
X24389558Y-24595518D01*
X24455740Y-24589000D01*
X24544260Y-24589000D01*
X24610442Y-24595518D01*
X24610442Y-24595518D01*
G37*
G36*
X70853000Y-25819000D02*
G01*
X68951000Y-25819000D01*
X68951000Y-24617000D01*
X70853000Y-24617000D01*
X70853000Y-25819000D01*
X70853000Y-25819000D01*
G37*
G36*
X64653000Y-25819000D02*
G01*
X62751000Y-25819000D01*
X62751000Y-24617000D01*
X64653000Y-24617000D01*
X64653000Y-25819000D01*
X64653000Y-25819000D01*
G37*
G36*
X74051000Y-25819000D02*
G01*
X72149000Y-25819000D01*
X72149000Y-24617000D01*
X74051000Y-24617000D01*
X74051000Y-25819000D01*
X74051000Y-25819000D01*
G37*
G36*
X80251000Y-25819000D02*
G01*
X78349000Y-25819000D01*
X78349000Y-24617000D01*
X80251000Y-24617000D01*
X80251000Y-25819000D01*
X80251000Y-25819000D01*
G37*
G36*
X91950443Y-22305519D02*
G01*
X92016627Y-22312037D01*
X92186466Y-22363557D01*
X92342991Y-22447222D01*
X92365136Y-22465396D01*
X92480186Y-22559814D01*
X92563448Y-22661271D01*
X92592778Y-22697009D01*
X92676443Y-22853534D01*
X92727963Y-23023373D01*
X92745359Y-23200000D01*
X92727963Y-23376627D01*
X92676443Y-23546466D01*
X92592778Y-23702991D01*
X92563448Y-23738729D01*
X92480186Y-23840186D01*
X92378729Y-23923448D01*
X92342991Y-23952778D01*
X92186466Y-24036443D01*
X92016627Y-24087963D01*
X91950442Y-24094482D01*
X91884260Y-24101000D01*
X91795740Y-24101000D01*
X91729557Y-24094481D01*
X91663373Y-24087963D01*
X91493534Y-24036443D01*
X91337009Y-23952778D01*
X91301271Y-23923448D01*
X91199814Y-23840186D01*
X91116552Y-23738729D01*
X91087222Y-23702991D01*
X91003557Y-23546466D01*
X90952037Y-23376627D01*
X90934641Y-23200000D01*
X90952037Y-23023373D01*
X91003557Y-22853534D01*
X91087222Y-22697009D01*
X91116552Y-22661271D01*
X91199814Y-22559814D01*
X91314864Y-22465396D01*
X91337009Y-22447222D01*
X91493534Y-22363557D01*
X91663373Y-22312037D01*
X91729557Y-22305519D01*
X91795740Y-22299000D01*
X91884260Y-22299000D01*
X91950443Y-22305519D01*
X91950443Y-22305519D01*
G37*
G36*
X111050443Y-22305519D02*
G01*
X111116627Y-22312037D01*
X111286466Y-22363557D01*
X111442991Y-22447222D01*
X111465136Y-22465396D01*
X111580186Y-22559814D01*
X111663448Y-22661271D01*
X111692778Y-22697009D01*
X111776443Y-22853534D01*
X111827963Y-23023373D01*
X111845359Y-23200000D01*
X111827963Y-23376627D01*
X111776443Y-23546466D01*
X111692778Y-23702991D01*
X111663448Y-23738729D01*
X111580186Y-23840186D01*
X111478729Y-23923448D01*
X111442991Y-23952778D01*
X111286466Y-24036443D01*
X111116627Y-24087963D01*
X111050442Y-24094482D01*
X110984260Y-24101000D01*
X110895740Y-24101000D01*
X110829557Y-24094481D01*
X110763373Y-24087963D01*
X110593534Y-24036443D01*
X110437009Y-23952778D01*
X110401271Y-23923448D01*
X110299814Y-23840186D01*
X110216552Y-23738729D01*
X110187222Y-23702991D01*
X110103557Y-23546466D01*
X110052037Y-23376627D01*
X110034641Y-23200000D01*
X110052037Y-23023373D01*
X110103557Y-22853534D01*
X110187222Y-22697009D01*
X110216552Y-22661271D01*
X110299814Y-22559814D01*
X110414864Y-22465396D01*
X110437009Y-22447222D01*
X110593534Y-22363557D01*
X110763373Y-22312037D01*
X110829557Y-22305519D01*
X110895740Y-22299000D01*
X110984260Y-22299000D01*
X111050443Y-22305519D01*
X111050443Y-22305519D01*
G37*
G36*
X109301000Y-24101000D02*
G01*
X107499000Y-24101000D01*
X107499000Y-22299000D01*
X109301000Y-22299000D01*
X109301000Y-24101000D01*
X109301000Y-24101000D01*
G37*
G36*
X94490443Y-22305519D02*
G01*
X94556627Y-22312037D01*
X94726466Y-22363557D01*
X94882991Y-22447222D01*
X94905136Y-22465396D01*
X95020186Y-22559814D01*
X95103448Y-22661271D01*
X95132778Y-22697009D01*
X95216443Y-22853534D01*
X95267963Y-23023373D01*
X95285359Y-23200000D01*
X95267963Y-23376627D01*
X95216443Y-23546466D01*
X95132778Y-23702991D01*
X95103448Y-23738729D01*
X95020186Y-23840186D01*
X94918729Y-23923448D01*
X94882991Y-23952778D01*
X94726466Y-24036443D01*
X94556627Y-24087963D01*
X94490442Y-24094482D01*
X94424260Y-24101000D01*
X94335740Y-24101000D01*
X94269557Y-24094481D01*
X94203373Y-24087963D01*
X94033534Y-24036443D01*
X93877009Y-23952778D01*
X93841271Y-23923448D01*
X93739814Y-23840186D01*
X93656552Y-23738729D01*
X93627222Y-23702991D01*
X93543557Y-23546466D01*
X93492037Y-23376627D01*
X93474641Y-23200000D01*
X93492037Y-23023373D01*
X93543557Y-22853534D01*
X93627222Y-22697009D01*
X93656552Y-22661271D01*
X93739814Y-22559814D01*
X93854864Y-22465396D01*
X93877009Y-22447222D01*
X94033534Y-22363557D01*
X94203373Y-22312037D01*
X94269557Y-22305519D01*
X94335740Y-22299000D01*
X94424260Y-22299000D01*
X94490443Y-22305519D01*
X94490443Y-22305519D01*
G37*
G36*
X97030443Y-22305519D02*
G01*
X97096627Y-22312037D01*
X97266466Y-22363557D01*
X97422991Y-22447222D01*
X97445136Y-22465396D01*
X97560186Y-22559814D01*
X97643448Y-22661271D01*
X97672778Y-22697009D01*
X97756443Y-22853534D01*
X97807963Y-23023373D01*
X97825359Y-23200000D01*
X97807963Y-23376627D01*
X97756443Y-23546466D01*
X97672778Y-23702991D01*
X97643448Y-23738729D01*
X97560186Y-23840186D01*
X97458729Y-23923448D01*
X97422991Y-23952778D01*
X97266466Y-24036443D01*
X97096627Y-24087963D01*
X97030442Y-24094482D01*
X96964260Y-24101000D01*
X96875740Y-24101000D01*
X96809557Y-24094481D01*
X96743373Y-24087963D01*
X96573534Y-24036443D01*
X96417009Y-23952778D01*
X96381271Y-23923448D01*
X96279814Y-23840186D01*
X96196552Y-23738729D01*
X96167222Y-23702991D01*
X96083557Y-23546466D01*
X96032037Y-23376627D01*
X96014641Y-23200000D01*
X96032037Y-23023373D01*
X96083557Y-22853534D01*
X96167222Y-22697009D01*
X96196552Y-22661271D01*
X96279814Y-22559814D01*
X96394864Y-22465396D01*
X96417009Y-22447222D01*
X96573534Y-22363557D01*
X96743373Y-22312037D01*
X96809557Y-22305519D01*
X96875740Y-22299000D01*
X96964260Y-22299000D01*
X97030443Y-22305519D01*
X97030443Y-22305519D01*
G37*
G36*
X99570443Y-22305519D02*
G01*
X99636627Y-22312037D01*
X99806466Y-22363557D01*
X99962991Y-22447222D01*
X99985136Y-22465396D01*
X100100186Y-22559814D01*
X100183448Y-22661271D01*
X100212778Y-22697009D01*
X100296443Y-22853534D01*
X100347963Y-23023373D01*
X100365359Y-23200000D01*
X100347963Y-23376627D01*
X100296443Y-23546466D01*
X100212778Y-23702991D01*
X100183448Y-23738729D01*
X100100186Y-23840186D01*
X99998729Y-23923448D01*
X99962991Y-23952778D01*
X99806466Y-24036443D01*
X99636627Y-24087963D01*
X99570442Y-24094482D01*
X99504260Y-24101000D01*
X99415740Y-24101000D01*
X99349557Y-24094481D01*
X99283373Y-24087963D01*
X99113534Y-24036443D01*
X98957009Y-23952778D01*
X98921271Y-23923448D01*
X98819814Y-23840186D01*
X98736552Y-23738729D01*
X98707222Y-23702991D01*
X98623557Y-23546466D01*
X98572037Y-23376627D01*
X98554641Y-23200000D01*
X98572037Y-23023373D01*
X98623557Y-22853534D01*
X98707222Y-22697009D01*
X98736552Y-22661271D01*
X98819814Y-22559814D01*
X98934864Y-22465396D01*
X98957009Y-22447222D01*
X99113534Y-22363557D01*
X99283373Y-22312037D01*
X99349557Y-22305519D01*
X99415740Y-22299000D01*
X99504260Y-22299000D01*
X99570443Y-22305519D01*
X99570443Y-22305519D01*
G37*
G36*
X102901000Y-24101000D02*
G01*
X101099000Y-24101000D01*
X101099000Y-22299000D01*
X102901000Y-22299000D01*
X102901000Y-24101000D01*
X102901000Y-24101000D01*
G37*
G36*
X54901000Y-23901000D02*
G01*
X53099000Y-23901000D01*
X53099000Y-22099000D01*
X54901000Y-22099000D01*
X54901000Y-23901000D01*
X54901000Y-23901000D01*
G37*
G36*
X25401000Y-23851000D02*
G01*
X23599000Y-23851000D01*
X23599000Y-22049000D01*
X25401000Y-22049000D01*
X25401000Y-23851000D01*
X25401000Y-23851000D01*
G37*
G36*
X83826604Y-22312347D02*
G01*
X83863144Y-22323432D01*
X83896821Y-22341433D01*
X83926341Y-22365659D01*
X83950567Y-22395179D01*
X83968568Y-22428856D01*
X83979653Y-22465396D01*
X83984000Y-22509538D01*
X83984000Y-23458462D01*
X83979653Y-23502604D01*
X83968568Y-23539144D01*
X83950567Y-23572821D01*
X83926341Y-23602341D01*
X83896821Y-23626567D01*
X83863144Y-23644568D01*
X83826604Y-23655653D01*
X83782462Y-23660000D01*
X82333538Y-23660000D01*
X82289396Y-23655653D01*
X82252856Y-23644568D01*
X82219179Y-23626567D01*
X82189659Y-23602341D01*
X82165433Y-23572821D01*
X82147432Y-23539144D01*
X82136347Y-23502604D01*
X82132000Y-23458462D01*
X82132000Y-22509538D01*
X82136347Y-22465396D01*
X82147432Y-22428856D01*
X82165433Y-22395179D01*
X82189659Y-22365659D01*
X82219179Y-22341433D01*
X82252856Y-22323432D01*
X82289396Y-22312347D01*
X82333538Y-22308000D01*
X83782462Y-22308000D01*
X83826604Y-22312347D01*
X83826604Y-22312347D01*
G37*
G36*
X80251000Y-22119000D02*
G01*
X78349000Y-22119000D01*
X78349000Y-20917000D01*
X80251000Y-20917000D01*
X80251000Y-22119000D01*
X80251000Y-22119000D01*
G37*
G36*
X74051000Y-22119000D02*
G01*
X72149000Y-22119000D01*
X72149000Y-20917000D01*
X74051000Y-20917000D01*
X74051000Y-22119000D01*
X74051000Y-22119000D01*
G37*
G36*
X70853000Y-22119000D02*
G01*
X68951000Y-22119000D01*
X68951000Y-20917000D01*
X70853000Y-20917000D01*
X70853000Y-22119000D01*
X70853000Y-22119000D01*
G37*
G36*
X64653000Y-22119000D02*
G01*
X62751000Y-22119000D01*
X62751000Y-20917000D01*
X64653000Y-20917000D01*
X64653000Y-22119000D01*
X64653000Y-22119000D01*
G37*
M02*
