G04 #@! TF.GenerationSoftware,KiCad,Pcbnew,5.1.4-e60b266~84~ubuntu19.04.1*
G04 #@! TF.CreationDate,2019-09-15T17:37:26+02:00*
G04 #@! TF.ProjectId,kicad,6b696361-642e-46b6-9963-61645f706362,rev?*
G04 #@! TF.SameCoordinates,Original*
G04 #@! TF.FileFunction,Copper,L2,Bot*
G04 #@! TF.FilePolarity,Positive*
%FSLAX46Y46*%
G04 Gerber Fmt 4.6, Leading zero omitted, Abs format (unit mm)*
G04 Created by KiCad (PCBNEW 5.1.4-e60b266~84~ubuntu19.04.1) date 2019-09-15 17:37:26*
%MOMM*%
%LPD*%
G04 APERTURE LIST*
%ADD10C,0.010000*%
%ADD11O,20.000000X2.500000*%
%ADD12O,1.700000X1.700000*%
%ADD13R,1.700000X1.700000*%
%ADD14C,1.600000*%
%ADD15R,1.600000X1.600000*%
%ADD16C,0.800000*%
%ADD17C,0.250000*%
%ADD18C,0.254000*%
G04 APERTURE END LIST*
D10*
G36*
X73050400Y-43209054D02*
G01*
X73039535Y-43322993D01*
X73007918Y-43430616D01*
X72957015Y-43529615D01*
X72888293Y-43617684D01*
X72803219Y-43692516D01*
X72706232Y-43750384D01*
X72599964Y-43790005D01*
X72492950Y-43808573D01*
X72387300Y-43807434D01*
X72285125Y-43787930D01*
X72188534Y-43751406D01*
X72099638Y-43699205D01*
X72020546Y-43632673D01*
X71953369Y-43553152D01*
X71900217Y-43461987D01*
X71863199Y-43360523D01*
X71844427Y-43250102D01*
X71842489Y-43200206D01*
X71842489Y-43112267D01*
X71790560Y-43112267D01*
X71754253Y-43115111D01*
X71727355Y-43126911D01*
X71700249Y-43150649D01*
X71661867Y-43189031D01*
X71661867Y-45380602D01*
X71661876Y-45642739D01*
X71661908Y-45883241D01*
X71661972Y-46103048D01*
X71662076Y-46303101D01*
X71662227Y-46484344D01*
X71662434Y-46647716D01*
X71662706Y-46794160D01*
X71663050Y-46924617D01*
X71663474Y-47040029D01*
X71663987Y-47141338D01*
X71664597Y-47229484D01*
X71665312Y-47305410D01*
X71666140Y-47370057D01*
X71667089Y-47424367D01*
X71668167Y-47469280D01*
X71669383Y-47505740D01*
X71670745Y-47534687D01*
X71672261Y-47557063D01*
X71673938Y-47573809D01*
X71675786Y-47585868D01*
X71677813Y-47594180D01*
X71680025Y-47599687D01*
X71681108Y-47601537D01*
X71685271Y-47608549D01*
X71688805Y-47614996D01*
X71692635Y-47620900D01*
X71697682Y-47626286D01*
X71704871Y-47631178D01*
X71715123Y-47635598D01*
X71729364Y-47639572D01*
X71748514Y-47643121D01*
X71773499Y-47646270D01*
X71805240Y-47649042D01*
X71844662Y-47651461D01*
X71892686Y-47653551D01*
X71950237Y-47655335D01*
X72018237Y-47656837D01*
X72097610Y-47658080D01*
X72189279Y-47659089D01*
X72294166Y-47659885D01*
X72413196Y-47660494D01*
X72547290Y-47660939D01*
X72697373Y-47661243D01*
X72864367Y-47661430D01*
X73049196Y-47661524D01*
X73252783Y-47661548D01*
X73476050Y-47661525D01*
X73719922Y-47661480D01*
X73985321Y-47661437D01*
X74023704Y-47661432D01*
X74290682Y-47661389D01*
X74536002Y-47661318D01*
X74760583Y-47661213D01*
X74965345Y-47661066D01*
X75151206Y-47660869D01*
X75319088Y-47660616D01*
X75469908Y-47660300D01*
X75604587Y-47659913D01*
X75724044Y-47659447D01*
X75829199Y-47658897D01*
X75920971Y-47658253D01*
X76000279Y-47657511D01*
X76068043Y-47656661D01*
X76125182Y-47655697D01*
X76172617Y-47654611D01*
X76211266Y-47653397D01*
X76242049Y-47652047D01*
X76265885Y-47650555D01*
X76283694Y-47648911D01*
X76296395Y-47647111D01*
X76304908Y-47645145D01*
X76309266Y-47643477D01*
X76317728Y-47639906D01*
X76325497Y-47637270D01*
X76332602Y-47634634D01*
X76339073Y-47631062D01*
X76344939Y-47625621D01*
X76350229Y-47617375D01*
X76354974Y-47605390D01*
X76359202Y-47588731D01*
X76362943Y-47566463D01*
X76366227Y-47537652D01*
X76369083Y-47501363D01*
X76371540Y-47456661D01*
X76373629Y-47402611D01*
X76375378Y-47338279D01*
X76376817Y-47262730D01*
X76377976Y-47175030D01*
X76378883Y-47074243D01*
X76379569Y-46959434D01*
X76380063Y-46829670D01*
X76380395Y-46684015D01*
X76380593Y-46521535D01*
X76380687Y-46341295D01*
X76380708Y-46142360D01*
X76380685Y-45923796D01*
X76380646Y-45684668D01*
X76380622Y-45424040D01*
X76380622Y-45381889D01*
X76380636Y-45118992D01*
X76380661Y-44877732D01*
X76380671Y-44657165D01*
X76380642Y-44456352D01*
X76380548Y-44274349D01*
X76380362Y-44110216D01*
X76380059Y-43963011D01*
X76379614Y-43831792D01*
X76379034Y-43721867D01*
X76076197Y-43721867D01*
X76036407Y-43779711D01*
X76025236Y-43795479D01*
X76015166Y-43809441D01*
X76006138Y-43822784D01*
X75998097Y-43836693D01*
X75990986Y-43852356D01*
X75984747Y-43870958D01*
X75979325Y-43893686D01*
X75974662Y-43921727D01*
X75970701Y-43956267D01*
X75967385Y-43998492D01*
X75964659Y-44049589D01*
X75962464Y-44110744D01*
X75960745Y-44183144D01*
X75959444Y-44267975D01*
X75958505Y-44366422D01*
X75957870Y-44479674D01*
X75957484Y-44608916D01*
X75957288Y-44755334D01*
X75957227Y-44920116D01*
X75957243Y-45104447D01*
X75957280Y-45309513D01*
X75957289Y-45432133D01*
X75957265Y-45649082D01*
X75957231Y-45844642D01*
X75957243Y-46019999D01*
X75957358Y-46176341D01*
X75957630Y-46314857D01*
X75958118Y-46436734D01*
X75958876Y-46543160D01*
X75959962Y-46635322D01*
X75961431Y-46714409D01*
X75963340Y-46781608D01*
X75965744Y-46838107D01*
X75968701Y-46885093D01*
X75972266Y-46923755D01*
X75976495Y-46955280D01*
X75981446Y-46980855D01*
X75987173Y-47001670D01*
X75993733Y-47018911D01*
X76001183Y-47033765D01*
X76009579Y-47047422D01*
X76018976Y-47061069D01*
X76029432Y-47075893D01*
X76035523Y-47084783D01*
X76074296Y-47142400D01*
X75542732Y-47142400D01*
X75419483Y-47142365D01*
X75316987Y-47142215D01*
X75233420Y-47141878D01*
X75166956Y-47141286D01*
X75115771Y-47140367D01*
X75078041Y-47139051D01*
X75051940Y-47137269D01*
X75035644Y-47134951D01*
X75027328Y-47132026D01*
X75025168Y-47128424D01*
X75027339Y-47124075D01*
X75028535Y-47122645D01*
X75053685Y-47085573D01*
X75079583Y-47032772D01*
X75103192Y-46970770D01*
X75111461Y-46944357D01*
X75116078Y-46926416D01*
X75119979Y-46905355D01*
X75123248Y-46879089D01*
X75125966Y-46845532D01*
X75128215Y-46802599D01*
X75130077Y-46748204D01*
X75131636Y-46680262D01*
X75132972Y-46596688D01*
X75134169Y-46495395D01*
X75135308Y-46374300D01*
X75135685Y-46329600D01*
X75136702Y-46204449D01*
X75137460Y-46100082D01*
X75137903Y-46014707D01*
X75137970Y-45946533D01*
X75137605Y-45893765D01*
X75136748Y-45854614D01*
X75135341Y-45827285D01*
X75133325Y-45809986D01*
X75130643Y-45800926D01*
X75127236Y-45798312D01*
X75123044Y-45800351D01*
X75118571Y-45804667D01*
X75108216Y-45817602D01*
X75086158Y-45846676D01*
X75053957Y-45889759D01*
X75013174Y-45944718D01*
X74965370Y-46009423D01*
X74912105Y-46081742D01*
X74854940Y-46159544D01*
X74795437Y-46240698D01*
X74735155Y-46323072D01*
X74675655Y-46404536D01*
X74618498Y-46482957D01*
X74565245Y-46556204D01*
X74517457Y-46622147D01*
X74476693Y-46678654D01*
X74444516Y-46723593D01*
X74422485Y-46754834D01*
X74417917Y-46761466D01*
X74394996Y-46798369D01*
X74368188Y-46846359D01*
X74342789Y-46895897D01*
X74339568Y-46902577D01*
X74317890Y-46950772D01*
X74305304Y-46988334D01*
X74299574Y-47024160D01*
X74298456Y-47066200D01*
X74299090Y-47142400D01*
X73144651Y-47142400D01*
X73235815Y-47048669D01*
X73282612Y-46998775D01*
X73332899Y-46942295D01*
X73378944Y-46888026D01*
X73399369Y-46862673D01*
X73429807Y-46823128D01*
X73469862Y-46769916D01*
X73518361Y-46704667D01*
X73574135Y-46629011D01*
X73636011Y-46544577D01*
X73702819Y-46452994D01*
X73773387Y-46355892D01*
X73846545Y-46254901D01*
X73921121Y-46151650D01*
X73995944Y-46047768D01*
X74069843Y-45944885D01*
X74141646Y-45844631D01*
X74210184Y-45748636D01*
X74274284Y-45658527D01*
X74332775Y-45575936D01*
X74384486Y-45502492D01*
X74428247Y-45439824D01*
X74462885Y-45389561D01*
X74487230Y-45353334D01*
X74500111Y-45332771D01*
X74501869Y-45328668D01*
X74493910Y-45317342D01*
X74473115Y-45290162D01*
X74440847Y-45248829D01*
X74398470Y-45195044D01*
X74347347Y-45130506D01*
X74288841Y-45056918D01*
X74224314Y-44975978D01*
X74155131Y-44889388D01*
X74082653Y-44798848D01*
X74008246Y-44706060D01*
X73948517Y-44631702D01*
X72937511Y-44631702D01*
X72931602Y-44644659D01*
X72917272Y-44666908D01*
X72916225Y-44668391D01*
X72897438Y-44698544D01*
X72877791Y-44735375D01*
X72873892Y-44743511D01*
X72870356Y-44751940D01*
X72867230Y-44762059D01*
X72864486Y-44775260D01*
X72862092Y-44792938D01*
X72860019Y-44816484D01*
X72858235Y-44847293D01*
X72856712Y-44886757D01*
X72855419Y-44936269D01*
X72854326Y-44997223D01*
X72853403Y-45071011D01*
X72852619Y-45159028D01*
X72851945Y-45262665D01*
X72851350Y-45383316D01*
X72850805Y-45522374D01*
X72850279Y-45681232D01*
X72849745Y-45860089D01*
X72849206Y-46045207D01*
X72848772Y-46209145D01*
X72848509Y-46353303D01*
X72848484Y-46479079D01*
X72848765Y-46587871D01*
X72849419Y-46681077D01*
X72850514Y-46760097D01*
X72852118Y-46826328D01*
X72854297Y-46881170D01*
X72857119Y-46926021D01*
X72860651Y-46962278D01*
X72864961Y-46991341D01*
X72870117Y-47014609D01*
X72876185Y-47033479D01*
X72883233Y-47049351D01*
X72891329Y-47063622D01*
X72900540Y-47077691D01*
X72909040Y-47090158D01*
X72926176Y-47116452D01*
X72936322Y-47134037D01*
X72937511Y-47137257D01*
X72926604Y-47138334D01*
X72895411Y-47139335D01*
X72846223Y-47140235D01*
X72781333Y-47141010D01*
X72703030Y-47141637D01*
X72613607Y-47142091D01*
X72515356Y-47142349D01*
X72446445Y-47142400D01*
X72341452Y-47142180D01*
X72244610Y-47141548D01*
X72158107Y-47140549D01*
X72084132Y-47139227D01*
X72024874Y-47137626D01*
X71982520Y-47135791D01*
X71959260Y-47133765D01*
X71955378Y-47132493D01*
X71963076Y-47117591D01*
X71971074Y-47109560D01*
X71984246Y-47092434D01*
X72001485Y-47062183D01*
X72013407Y-47037622D01*
X72040045Y-46978711D01*
X72043120Y-45801845D01*
X72046195Y-44624978D01*
X72491853Y-44624978D01*
X72589670Y-44625142D01*
X72680064Y-44625611D01*
X72760630Y-44626347D01*
X72828962Y-44627316D01*
X72882656Y-44628480D01*
X72919305Y-44629803D01*
X72936504Y-44631249D01*
X72937511Y-44631702D01*
X73948517Y-44631702D01*
X73933270Y-44612722D01*
X73859090Y-44520537D01*
X73787069Y-44431204D01*
X73718569Y-44346424D01*
X73654955Y-44267898D01*
X73597588Y-44197326D01*
X73547833Y-44136409D01*
X73507052Y-44086847D01*
X73489888Y-44066178D01*
X73403596Y-43965516D01*
X73326997Y-43882259D01*
X73258183Y-43814438D01*
X73195248Y-43760089D01*
X73185867Y-43752722D01*
X73146356Y-43722117D01*
X74278116Y-43721867D01*
X74272827Y-43769844D01*
X74276130Y-43827188D01*
X74297661Y-43895463D01*
X74337635Y-43975212D01*
X74382943Y-44047495D01*
X74399161Y-44070140D01*
X74427214Y-44107696D01*
X74465430Y-44158021D01*
X74512137Y-44218973D01*
X74565661Y-44288411D01*
X74624331Y-44364194D01*
X74686475Y-44444180D01*
X74750421Y-44526228D01*
X74814495Y-44608196D01*
X74877027Y-44687943D01*
X74936343Y-44763327D01*
X74990771Y-44832207D01*
X75038639Y-44892442D01*
X75078275Y-44941889D01*
X75108006Y-44978408D01*
X75126161Y-44999858D01*
X75129220Y-45003156D01*
X75132079Y-44995149D01*
X75134293Y-44964855D01*
X75135857Y-44912556D01*
X75136767Y-44838531D01*
X75137020Y-44743063D01*
X75136613Y-44626434D01*
X75135704Y-44506445D01*
X75134382Y-44374333D01*
X75132857Y-44262594D01*
X75130881Y-44169025D01*
X75128206Y-44091419D01*
X75124582Y-44027574D01*
X75119761Y-43975283D01*
X75113494Y-43932344D01*
X75105532Y-43896551D01*
X75095627Y-43865700D01*
X75083531Y-43837586D01*
X75068993Y-43810005D01*
X75054311Y-43784966D01*
X75016314Y-43721867D01*
X76076197Y-43721867D01*
X76379034Y-43721867D01*
X76379001Y-43715617D01*
X76378195Y-43613544D01*
X76377170Y-43524633D01*
X76375900Y-43447941D01*
X76374360Y-43382527D01*
X76372524Y-43327449D01*
X76370367Y-43281765D01*
X76367863Y-43244534D01*
X76364987Y-43214813D01*
X76361713Y-43191662D01*
X76358015Y-43174139D01*
X76353869Y-43161301D01*
X76349247Y-43152208D01*
X76344126Y-43145918D01*
X76338478Y-43141488D01*
X76332279Y-43137978D01*
X76325504Y-43134445D01*
X76319508Y-43130876D01*
X76314275Y-43128300D01*
X76306099Y-43125972D01*
X76293886Y-43123878D01*
X76276541Y-43122007D01*
X76252969Y-43120347D01*
X76222077Y-43118884D01*
X76182768Y-43117608D01*
X76133950Y-43116504D01*
X76074527Y-43115561D01*
X76003404Y-43114767D01*
X75919488Y-43114109D01*
X75821683Y-43113575D01*
X75708894Y-43113153D01*
X75580029Y-43112829D01*
X75433991Y-43112592D01*
X75269686Y-43112430D01*
X75086020Y-43112330D01*
X74881897Y-43112280D01*
X74670753Y-43112267D01*
X73050400Y-43112267D01*
X73050400Y-43209054D01*
X73050400Y-43209054D01*
G37*
X73050400Y-43209054D02*
X73039535Y-43322993D01*
X73007918Y-43430616D01*
X72957015Y-43529615D01*
X72888293Y-43617684D01*
X72803219Y-43692516D01*
X72706232Y-43750384D01*
X72599964Y-43790005D01*
X72492950Y-43808573D01*
X72387300Y-43807434D01*
X72285125Y-43787930D01*
X72188534Y-43751406D01*
X72099638Y-43699205D01*
X72020546Y-43632673D01*
X71953369Y-43553152D01*
X71900217Y-43461987D01*
X71863199Y-43360523D01*
X71844427Y-43250102D01*
X71842489Y-43200206D01*
X71842489Y-43112267D01*
X71790560Y-43112267D01*
X71754253Y-43115111D01*
X71727355Y-43126911D01*
X71700249Y-43150649D01*
X71661867Y-43189031D01*
X71661867Y-45380602D01*
X71661876Y-45642739D01*
X71661908Y-45883241D01*
X71661972Y-46103048D01*
X71662076Y-46303101D01*
X71662227Y-46484344D01*
X71662434Y-46647716D01*
X71662706Y-46794160D01*
X71663050Y-46924617D01*
X71663474Y-47040029D01*
X71663987Y-47141338D01*
X71664597Y-47229484D01*
X71665312Y-47305410D01*
X71666140Y-47370057D01*
X71667089Y-47424367D01*
X71668167Y-47469280D01*
X71669383Y-47505740D01*
X71670745Y-47534687D01*
X71672261Y-47557063D01*
X71673938Y-47573809D01*
X71675786Y-47585868D01*
X71677813Y-47594180D01*
X71680025Y-47599687D01*
X71681108Y-47601537D01*
X71685271Y-47608549D01*
X71688805Y-47614996D01*
X71692635Y-47620900D01*
X71697682Y-47626286D01*
X71704871Y-47631178D01*
X71715123Y-47635598D01*
X71729364Y-47639572D01*
X71748514Y-47643121D01*
X71773499Y-47646270D01*
X71805240Y-47649042D01*
X71844662Y-47651461D01*
X71892686Y-47653551D01*
X71950237Y-47655335D01*
X72018237Y-47656837D01*
X72097610Y-47658080D01*
X72189279Y-47659089D01*
X72294166Y-47659885D01*
X72413196Y-47660494D01*
X72547290Y-47660939D01*
X72697373Y-47661243D01*
X72864367Y-47661430D01*
X73049196Y-47661524D01*
X73252783Y-47661548D01*
X73476050Y-47661525D01*
X73719922Y-47661480D01*
X73985321Y-47661437D01*
X74023704Y-47661432D01*
X74290682Y-47661389D01*
X74536002Y-47661318D01*
X74760583Y-47661213D01*
X74965345Y-47661066D01*
X75151206Y-47660869D01*
X75319088Y-47660616D01*
X75469908Y-47660300D01*
X75604587Y-47659913D01*
X75724044Y-47659447D01*
X75829199Y-47658897D01*
X75920971Y-47658253D01*
X76000279Y-47657511D01*
X76068043Y-47656661D01*
X76125182Y-47655697D01*
X76172617Y-47654611D01*
X76211266Y-47653397D01*
X76242049Y-47652047D01*
X76265885Y-47650555D01*
X76283694Y-47648911D01*
X76296395Y-47647111D01*
X76304908Y-47645145D01*
X76309266Y-47643477D01*
X76317728Y-47639906D01*
X76325497Y-47637270D01*
X76332602Y-47634634D01*
X76339073Y-47631062D01*
X76344939Y-47625621D01*
X76350229Y-47617375D01*
X76354974Y-47605390D01*
X76359202Y-47588731D01*
X76362943Y-47566463D01*
X76366227Y-47537652D01*
X76369083Y-47501363D01*
X76371540Y-47456661D01*
X76373629Y-47402611D01*
X76375378Y-47338279D01*
X76376817Y-47262730D01*
X76377976Y-47175030D01*
X76378883Y-47074243D01*
X76379569Y-46959434D01*
X76380063Y-46829670D01*
X76380395Y-46684015D01*
X76380593Y-46521535D01*
X76380687Y-46341295D01*
X76380708Y-46142360D01*
X76380685Y-45923796D01*
X76380646Y-45684668D01*
X76380622Y-45424040D01*
X76380622Y-45381889D01*
X76380636Y-45118992D01*
X76380661Y-44877732D01*
X76380671Y-44657165D01*
X76380642Y-44456352D01*
X76380548Y-44274349D01*
X76380362Y-44110216D01*
X76380059Y-43963011D01*
X76379614Y-43831792D01*
X76379034Y-43721867D01*
X76076197Y-43721867D01*
X76036407Y-43779711D01*
X76025236Y-43795479D01*
X76015166Y-43809441D01*
X76006138Y-43822784D01*
X75998097Y-43836693D01*
X75990986Y-43852356D01*
X75984747Y-43870958D01*
X75979325Y-43893686D01*
X75974662Y-43921727D01*
X75970701Y-43956267D01*
X75967385Y-43998492D01*
X75964659Y-44049589D01*
X75962464Y-44110744D01*
X75960745Y-44183144D01*
X75959444Y-44267975D01*
X75958505Y-44366422D01*
X75957870Y-44479674D01*
X75957484Y-44608916D01*
X75957288Y-44755334D01*
X75957227Y-44920116D01*
X75957243Y-45104447D01*
X75957280Y-45309513D01*
X75957289Y-45432133D01*
X75957265Y-45649082D01*
X75957231Y-45844642D01*
X75957243Y-46019999D01*
X75957358Y-46176341D01*
X75957630Y-46314857D01*
X75958118Y-46436734D01*
X75958876Y-46543160D01*
X75959962Y-46635322D01*
X75961431Y-46714409D01*
X75963340Y-46781608D01*
X75965744Y-46838107D01*
X75968701Y-46885093D01*
X75972266Y-46923755D01*
X75976495Y-46955280D01*
X75981446Y-46980855D01*
X75987173Y-47001670D01*
X75993733Y-47018911D01*
X76001183Y-47033765D01*
X76009579Y-47047422D01*
X76018976Y-47061069D01*
X76029432Y-47075893D01*
X76035523Y-47084783D01*
X76074296Y-47142400D01*
X75542732Y-47142400D01*
X75419483Y-47142365D01*
X75316987Y-47142215D01*
X75233420Y-47141878D01*
X75166956Y-47141286D01*
X75115771Y-47140367D01*
X75078041Y-47139051D01*
X75051940Y-47137269D01*
X75035644Y-47134951D01*
X75027328Y-47132026D01*
X75025168Y-47128424D01*
X75027339Y-47124075D01*
X75028535Y-47122645D01*
X75053685Y-47085573D01*
X75079583Y-47032772D01*
X75103192Y-46970770D01*
X75111461Y-46944357D01*
X75116078Y-46926416D01*
X75119979Y-46905355D01*
X75123248Y-46879089D01*
X75125966Y-46845532D01*
X75128215Y-46802599D01*
X75130077Y-46748204D01*
X75131636Y-46680262D01*
X75132972Y-46596688D01*
X75134169Y-46495395D01*
X75135308Y-46374300D01*
X75135685Y-46329600D01*
X75136702Y-46204449D01*
X75137460Y-46100082D01*
X75137903Y-46014707D01*
X75137970Y-45946533D01*
X75137605Y-45893765D01*
X75136748Y-45854614D01*
X75135341Y-45827285D01*
X75133325Y-45809986D01*
X75130643Y-45800926D01*
X75127236Y-45798312D01*
X75123044Y-45800351D01*
X75118571Y-45804667D01*
X75108216Y-45817602D01*
X75086158Y-45846676D01*
X75053957Y-45889759D01*
X75013174Y-45944718D01*
X74965370Y-46009423D01*
X74912105Y-46081742D01*
X74854940Y-46159544D01*
X74795437Y-46240698D01*
X74735155Y-46323072D01*
X74675655Y-46404536D01*
X74618498Y-46482957D01*
X74565245Y-46556204D01*
X74517457Y-46622147D01*
X74476693Y-46678654D01*
X74444516Y-46723593D01*
X74422485Y-46754834D01*
X74417917Y-46761466D01*
X74394996Y-46798369D01*
X74368188Y-46846359D01*
X74342789Y-46895897D01*
X74339568Y-46902577D01*
X74317890Y-46950772D01*
X74305304Y-46988334D01*
X74299574Y-47024160D01*
X74298456Y-47066200D01*
X74299090Y-47142400D01*
X73144651Y-47142400D01*
X73235815Y-47048669D01*
X73282612Y-46998775D01*
X73332899Y-46942295D01*
X73378944Y-46888026D01*
X73399369Y-46862673D01*
X73429807Y-46823128D01*
X73469862Y-46769916D01*
X73518361Y-46704667D01*
X73574135Y-46629011D01*
X73636011Y-46544577D01*
X73702819Y-46452994D01*
X73773387Y-46355892D01*
X73846545Y-46254901D01*
X73921121Y-46151650D01*
X73995944Y-46047768D01*
X74069843Y-45944885D01*
X74141646Y-45844631D01*
X74210184Y-45748636D01*
X74274284Y-45658527D01*
X74332775Y-45575936D01*
X74384486Y-45502492D01*
X74428247Y-45439824D01*
X74462885Y-45389561D01*
X74487230Y-45353334D01*
X74500111Y-45332771D01*
X74501869Y-45328668D01*
X74493910Y-45317342D01*
X74473115Y-45290162D01*
X74440847Y-45248829D01*
X74398470Y-45195044D01*
X74347347Y-45130506D01*
X74288841Y-45056918D01*
X74224314Y-44975978D01*
X74155131Y-44889388D01*
X74082653Y-44798848D01*
X74008246Y-44706060D01*
X73948517Y-44631702D01*
X72937511Y-44631702D01*
X72931602Y-44644659D01*
X72917272Y-44666908D01*
X72916225Y-44668391D01*
X72897438Y-44698544D01*
X72877791Y-44735375D01*
X72873892Y-44743511D01*
X72870356Y-44751940D01*
X72867230Y-44762059D01*
X72864486Y-44775260D01*
X72862092Y-44792938D01*
X72860019Y-44816484D01*
X72858235Y-44847293D01*
X72856712Y-44886757D01*
X72855419Y-44936269D01*
X72854326Y-44997223D01*
X72853403Y-45071011D01*
X72852619Y-45159028D01*
X72851945Y-45262665D01*
X72851350Y-45383316D01*
X72850805Y-45522374D01*
X72850279Y-45681232D01*
X72849745Y-45860089D01*
X72849206Y-46045207D01*
X72848772Y-46209145D01*
X72848509Y-46353303D01*
X72848484Y-46479079D01*
X72848765Y-46587871D01*
X72849419Y-46681077D01*
X72850514Y-46760097D01*
X72852118Y-46826328D01*
X72854297Y-46881170D01*
X72857119Y-46926021D01*
X72860651Y-46962278D01*
X72864961Y-46991341D01*
X72870117Y-47014609D01*
X72876185Y-47033479D01*
X72883233Y-47049351D01*
X72891329Y-47063622D01*
X72900540Y-47077691D01*
X72909040Y-47090158D01*
X72926176Y-47116452D01*
X72936322Y-47134037D01*
X72937511Y-47137257D01*
X72926604Y-47138334D01*
X72895411Y-47139335D01*
X72846223Y-47140235D01*
X72781333Y-47141010D01*
X72703030Y-47141637D01*
X72613607Y-47142091D01*
X72515356Y-47142349D01*
X72446445Y-47142400D01*
X72341452Y-47142180D01*
X72244610Y-47141548D01*
X72158107Y-47140549D01*
X72084132Y-47139227D01*
X72024874Y-47137626D01*
X71982520Y-47135791D01*
X71959260Y-47133765D01*
X71955378Y-47132493D01*
X71963076Y-47117591D01*
X71971074Y-47109560D01*
X71984246Y-47092434D01*
X72001485Y-47062183D01*
X72013407Y-47037622D01*
X72040045Y-46978711D01*
X72043120Y-45801845D01*
X72046195Y-44624978D01*
X72491853Y-44624978D01*
X72589670Y-44625142D01*
X72680064Y-44625611D01*
X72760630Y-44626347D01*
X72828962Y-44627316D01*
X72882656Y-44628480D01*
X72919305Y-44629803D01*
X72936504Y-44631249D01*
X72937511Y-44631702D01*
X73948517Y-44631702D01*
X73933270Y-44612722D01*
X73859090Y-44520537D01*
X73787069Y-44431204D01*
X73718569Y-44346424D01*
X73654955Y-44267898D01*
X73597588Y-44197326D01*
X73547833Y-44136409D01*
X73507052Y-44086847D01*
X73489888Y-44066178D01*
X73403596Y-43965516D01*
X73326997Y-43882259D01*
X73258183Y-43814438D01*
X73195248Y-43760089D01*
X73185867Y-43752722D01*
X73146356Y-43722117D01*
X74278116Y-43721867D01*
X74272827Y-43769844D01*
X74276130Y-43827188D01*
X74297661Y-43895463D01*
X74337635Y-43975212D01*
X74382943Y-44047495D01*
X74399161Y-44070140D01*
X74427214Y-44107696D01*
X74465430Y-44158021D01*
X74512137Y-44218973D01*
X74565661Y-44288411D01*
X74624331Y-44364194D01*
X74686475Y-44444180D01*
X74750421Y-44526228D01*
X74814495Y-44608196D01*
X74877027Y-44687943D01*
X74936343Y-44763327D01*
X74990771Y-44832207D01*
X75038639Y-44892442D01*
X75078275Y-44941889D01*
X75108006Y-44978408D01*
X75126161Y-44999858D01*
X75129220Y-45003156D01*
X75132079Y-44995149D01*
X75134293Y-44964855D01*
X75135857Y-44912556D01*
X75136767Y-44838531D01*
X75137020Y-44743063D01*
X75136613Y-44626434D01*
X75135704Y-44506445D01*
X75134382Y-44374333D01*
X75132857Y-44262594D01*
X75130881Y-44169025D01*
X75128206Y-44091419D01*
X75124582Y-44027574D01*
X75119761Y-43975283D01*
X75113494Y-43932344D01*
X75105532Y-43896551D01*
X75095627Y-43865700D01*
X75083531Y-43837586D01*
X75068993Y-43810005D01*
X75054311Y-43784966D01*
X75016314Y-43721867D01*
X76076197Y-43721867D01*
X76379034Y-43721867D01*
X76379001Y-43715617D01*
X76378195Y-43613544D01*
X76377170Y-43524633D01*
X76375900Y-43447941D01*
X76374360Y-43382527D01*
X76372524Y-43327449D01*
X76370367Y-43281765D01*
X76367863Y-43244534D01*
X76364987Y-43214813D01*
X76361713Y-43191662D01*
X76358015Y-43174139D01*
X76353869Y-43161301D01*
X76349247Y-43152208D01*
X76344126Y-43145918D01*
X76338478Y-43141488D01*
X76332279Y-43137978D01*
X76325504Y-43134445D01*
X76319508Y-43130876D01*
X76314275Y-43128300D01*
X76306099Y-43125972D01*
X76293886Y-43123878D01*
X76276541Y-43122007D01*
X76252969Y-43120347D01*
X76222077Y-43118884D01*
X76182768Y-43117608D01*
X76133950Y-43116504D01*
X76074527Y-43115561D01*
X76003404Y-43114767D01*
X75919488Y-43114109D01*
X75821683Y-43113575D01*
X75708894Y-43113153D01*
X75580029Y-43112829D01*
X75433991Y-43112592D01*
X75269686Y-43112430D01*
X75086020Y-43112330D01*
X74881897Y-43112280D01*
X74670753Y-43112267D01*
X73050400Y-43112267D01*
X73050400Y-43209054D01*
G36*
X69775571Y-43669071D02*
G01*
X69615430Y-43690245D01*
X69451490Y-43730385D01*
X69281687Y-43789889D01*
X69103957Y-43869154D01*
X69092690Y-43874699D01*
X69034995Y-43902725D01*
X68983448Y-43926802D01*
X68941809Y-43945249D01*
X68913838Y-43956386D01*
X68904267Y-43958933D01*
X68885050Y-43963941D01*
X68880439Y-43968147D01*
X68885542Y-43978580D01*
X68901582Y-44004868D01*
X68926712Y-44044257D01*
X68959086Y-44093991D01*
X68996857Y-44151315D01*
X69038178Y-44213476D01*
X69081202Y-44277718D01*
X69124083Y-44341285D01*
X69164974Y-44401425D01*
X69202029Y-44455380D01*
X69233400Y-44500397D01*
X69257241Y-44533721D01*
X69271706Y-44552597D01*
X69273691Y-44554787D01*
X69283809Y-44550138D01*
X69306150Y-44532962D01*
X69336720Y-44506440D01*
X69352464Y-44491964D01*
X69448953Y-44416682D01*
X69555664Y-44361241D01*
X69671168Y-44326141D01*
X69794038Y-44311880D01*
X69863439Y-44313051D01*
X69984577Y-44330212D01*
X70093795Y-44366094D01*
X70191418Y-44420959D01*
X70277772Y-44495070D01*
X70353185Y-44588688D01*
X70417982Y-44702076D01*
X70455399Y-44788667D01*
X70499252Y-44924366D01*
X70531572Y-45071850D01*
X70552443Y-45227314D01*
X70561949Y-45386956D01*
X70560173Y-45546973D01*
X70547197Y-45703561D01*
X70523106Y-45852918D01*
X70487982Y-45991240D01*
X70441908Y-46114724D01*
X70425627Y-46148978D01*
X70357380Y-46263064D01*
X70276921Y-46359557D01*
X70185430Y-46437670D01*
X70084089Y-46496617D01*
X69974080Y-46535612D01*
X69856585Y-46553868D01*
X69815117Y-46555211D01*
X69693559Y-46544290D01*
X69573122Y-46511474D01*
X69455334Y-46457439D01*
X69341723Y-46382865D01*
X69250315Y-46304539D01*
X69203785Y-46260008D01*
X69022517Y-46557271D01*
X68977420Y-46631433D01*
X68936181Y-46699646D01*
X68900265Y-46759459D01*
X68871134Y-46808420D01*
X68850250Y-46844079D01*
X68839076Y-46863984D01*
X68837625Y-46867079D01*
X68845854Y-46876718D01*
X68871433Y-46893999D01*
X68911127Y-46917283D01*
X68961703Y-46944934D01*
X69019926Y-46975315D01*
X69082563Y-47006790D01*
X69146379Y-47037722D01*
X69208140Y-47066473D01*
X69264612Y-47091408D01*
X69312562Y-47110889D01*
X69336014Y-47119318D01*
X69469779Y-47157133D01*
X69607673Y-47182136D01*
X69755378Y-47195140D01*
X69882167Y-47197468D01*
X69950122Y-47196373D01*
X70015723Y-47194275D01*
X70073153Y-47191434D01*
X70116597Y-47188106D01*
X70130702Y-47186422D01*
X70269716Y-47157587D01*
X70411243Y-47112468D01*
X70548725Y-47053750D01*
X70675606Y-46984120D01*
X70753111Y-46931441D01*
X70880519Y-46823239D01*
X70998822Y-46696671D01*
X71105828Y-46554866D01*
X71199348Y-46400951D01*
X71277190Y-46238053D01*
X71321044Y-46120756D01*
X71371292Y-45937128D01*
X71404791Y-45742581D01*
X71421551Y-45541325D01*
X71421584Y-45337568D01*
X71404899Y-45135521D01*
X71371507Y-44939392D01*
X71321420Y-44753391D01*
X71317603Y-44741803D01*
X71254719Y-44579750D01*
X71177972Y-44431832D01*
X71084758Y-44293865D01*
X70972473Y-44161661D01*
X70928608Y-44116399D01*
X70792466Y-43992457D01*
X70652509Y-43889915D01*
X70506589Y-43807656D01*
X70352558Y-43744564D01*
X70188268Y-43699523D01*
X70092711Y-43682033D01*
X69933977Y-43666466D01*
X69775571Y-43669071D01*
X69775571Y-43669071D01*
G37*
X69775571Y-43669071D02*
X69615430Y-43690245D01*
X69451490Y-43730385D01*
X69281687Y-43789889D01*
X69103957Y-43869154D01*
X69092690Y-43874699D01*
X69034995Y-43902725D01*
X68983448Y-43926802D01*
X68941809Y-43945249D01*
X68913838Y-43956386D01*
X68904267Y-43958933D01*
X68885050Y-43963941D01*
X68880439Y-43968147D01*
X68885542Y-43978580D01*
X68901582Y-44004868D01*
X68926712Y-44044257D01*
X68959086Y-44093991D01*
X68996857Y-44151315D01*
X69038178Y-44213476D01*
X69081202Y-44277718D01*
X69124083Y-44341285D01*
X69164974Y-44401425D01*
X69202029Y-44455380D01*
X69233400Y-44500397D01*
X69257241Y-44533721D01*
X69271706Y-44552597D01*
X69273691Y-44554787D01*
X69283809Y-44550138D01*
X69306150Y-44532962D01*
X69336720Y-44506440D01*
X69352464Y-44491964D01*
X69448953Y-44416682D01*
X69555664Y-44361241D01*
X69671168Y-44326141D01*
X69794038Y-44311880D01*
X69863439Y-44313051D01*
X69984577Y-44330212D01*
X70093795Y-44366094D01*
X70191418Y-44420959D01*
X70277772Y-44495070D01*
X70353185Y-44588688D01*
X70417982Y-44702076D01*
X70455399Y-44788667D01*
X70499252Y-44924366D01*
X70531572Y-45071850D01*
X70552443Y-45227314D01*
X70561949Y-45386956D01*
X70560173Y-45546973D01*
X70547197Y-45703561D01*
X70523106Y-45852918D01*
X70487982Y-45991240D01*
X70441908Y-46114724D01*
X70425627Y-46148978D01*
X70357380Y-46263064D01*
X70276921Y-46359557D01*
X70185430Y-46437670D01*
X70084089Y-46496617D01*
X69974080Y-46535612D01*
X69856585Y-46553868D01*
X69815117Y-46555211D01*
X69693559Y-46544290D01*
X69573122Y-46511474D01*
X69455334Y-46457439D01*
X69341723Y-46382865D01*
X69250315Y-46304539D01*
X69203785Y-46260008D01*
X69022517Y-46557271D01*
X68977420Y-46631433D01*
X68936181Y-46699646D01*
X68900265Y-46759459D01*
X68871134Y-46808420D01*
X68850250Y-46844079D01*
X68839076Y-46863984D01*
X68837625Y-46867079D01*
X68845854Y-46876718D01*
X68871433Y-46893999D01*
X68911127Y-46917283D01*
X68961703Y-46944934D01*
X69019926Y-46975315D01*
X69082563Y-47006790D01*
X69146379Y-47037722D01*
X69208140Y-47066473D01*
X69264612Y-47091408D01*
X69312562Y-47110889D01*
X69336014Y-47119318D01*
X69469779Y-47157133D01*
X69607673Y-47182136D01*
X69755378Y-47195140D01*
X69882167Y-47197468D01*
X69950122Y-47196373D01*
X70015723Y-47194275D01*
X70073153Y-47191434D01*
X70116597Y-47188106D01*
X70130702Y-47186422D01*
X70269716Y-47157587D01*
X70411243Y-47112468D01*
X70548725Y-47053750D01*
X70675606Y-46984120D01*
X70753111Y-46931441D01*
X70880519Y-46823239D01*
X70998822Y-46696671D01*
X71105828Y-46554866D01*
X71199348Y-46400951D01*
X71277190Y-46238053D01*
X71321044Y-46120756D01*
X71371292Y-45937128D01*
X71404791Y-45742581D01*
X71421551Y-45541325D01*
X71421584Y-45337568D01*
X71404899Y-45135521D01*
X71371507Y-44939392D01*
X71321420Y-44753391D01*
X71317603Y-44741803D01*
X71254719Y-44579750D01*
X71177972Y-44431832D01*
X71084758Y-44293865D01*
X70972473Y-44161661D01*
X70928608Y-44116399D01*
X70792466Y-43992457D01*
X70652509Y-43889915D01*
X70506589Y-43807656D01*
X70352558Y-43744564D01*
X70188268Y-43699523D01*
X70092711Y-43682033D01*
X69933977Y-43666466D01*
X69775571Y-43669071D01*
G36*
X67430426Y-44586552D02*
G01*
X67278508Y-44606567D01*
X67143244Y-44640202D01*
X67023761Y-44687725D01*
X66919185Y-44749405D01*
X66841576Y-44812965D01*
X66772735Y-44887099D01*
X66718994Y-44966871D01*
X66676090Y-45059091D01*
X66660616Y-45102161D01*
X66647756Y-45141142D01*
X66636554Y-45177289D01*
X66626880Y-45212434D01*
X66618604Y-45248410D01*
X66611597Y-45287050D01*
X66605728Y-45330185D01*
X66600869Y-45379649D01*
X66596890Y-45437273D01*
X66593660Y-45504891D01*
X66591051Y-45584334D01*
X66588933Y-45677436D01*
X66587176Y-45786027D01*
X66585651Y-45911942D01*
X66584228Y-46057012D01*
X66582975Y-46199778D01*
X66581649Y-46355968D01*
X66580444Y-46491239D01*
X66579234Y-46607246D01*
X66577894Y-46705645D01*
X66576300Y-46788093D01*
X66574325Y-46856246D01*
X66571844Y-46911760D01*
X66568731Y-46956292D01*
X66564862Y-46991498D01*
X66560111Y-47019034D01*
X66554352Y-47040556D01*
X66547461Y-47057722D01*
X66539311Y-47072186D01*
X66529777Y-47085606D01*
X66518734Y-47099638D01*
X66514434Y-47105071D01*
X66498614Y-47127910D01*
X66491578Y-47143463D01*
X66491556Y-47143922D01*
X66502433Y-47146121D01*
X66533418Y-47148147D01*
X66582043Y-47149942D01*
X66645837Y-47151451D01*
X66722331Y-47152616D01*
X66809056Y-47153380D01*
X66903543Y-47153686D01*
X66914450Y-47153689D01*
X67337343Y-47153689D01*
X67340605Y-47057622D01*
X67343867Y-46961556D01*
X67405956Y-47012543D01*
X67503286Y-47080057D01*
X67613187Y-47134749D01*
X67699651Y-47164978D01*
X67768722Y-47179666D01*
X67852075Y-47189659D01*
X67941841Y-47194646D01*
X68030155Y-47194313D01*
X68109149Y-47188351D01*
X68145378Y-47182638D01*
X68285397Y-47144776D01*
X68411822Y-47089932D01*
X68523740Y-47018924D01*
X68620238Y-46932568D01*
X68700400Y-46831679D01*
X68763313Y-46717076D01*
X68807688Y-46590984D01*
X68820022Y-46534401D01*
X68827632Y-46472202D01*
X68831261Y-46397363D01*
X68831755Y-46363467D01*
X68831690Y-46360282D01*
X68071752Y-46360282D01*
X68062459Y-46435333D01*
X68034272Y-46499160D01*
X67985803Y-46554798D01*
X67980746Y-46559211D01*
X67932452Y-46594037D01*
X67880743Y-46616620D01*
X67820011Y-46628540D01*
X67744648Y-46631383D01*
X67726541Y-46630978D01*
X67672722Y-46628325D01*
X67632692Y-46622909D01*
X67597676Y-46612745D01*
X67558897Y-46595850D01*
X67548255Y-46590672D01*
X67487604Y-46554844D01*
X67440785Y-46512212D01*
X67428048Y-46496973D01*
X67383378Y-46440462D01*
X67383378Y-46244586D01*
X67383914Y-46165939D01*
X67385604Y-46107988D01*
X67388572Y-46068875D01*
X67392943Y-46046741D01*
X67397028Y-46040274D01*
X67412953Y-46037111D01*
X67446736Y-46034488D01*
X67493660Y-46032655D01*
X67549007Y-46031857D01*
X67557894Y-46031842D01*
X67678670Y-46037096D01*
X67781340Y-46053263D01*
X67867894Y-46080961D01*
X67940319Y-46120808D01*
X67995249Y-46167758D01*
X68039796Y-46225645D01*
X68064520Y-46288693D01*
X68071752Y-46360282D01*
X68831690Y-46360282D01*
X68829822Y-46269712D01*
X68821478Y-46190812D01*
X68805232Y-46119590D01*
X68779595Y-46048864D01*
X68755599Y-45996493D01*
X68696980Y-45901196D01*
X68618883Y-45813170D01*
X68523685Y-45734017D01*
X68413762Y-45665340D01*
X68291490Y-45608741D01*
X68159245Y-45565821D01*
X68094578Y-45550882D01*
X67958396Y-45528777D01*
X67809951Y-45514194D01*
X67658495Y-45507813D01*
X67531936Y-45509445D01*
X67370050Y-45516224D01*
X67377470Y-45457245D01*
X67396762Y-45358092D01*
X67427896Y-45277372D01*
X67471731Y-45214466D01*
X67529129Y-45168756D01*
X67600952Y-45139622D01*
X67688059Y-45126447D01*
X67791314Y-45128611D01*
X67829289Y-45132612D01*
X67970480Y-45157780D01*
X68107293Y-45198814D01*
X68201822Y-45236815D01*
X68246982Y-45256190D01*
X68285415Y-45271760D01*
X68311766Y-45281405D01*
X68319454Y-45283452D01*
X68329198Y-45274374D01*
X68345917Y-45245405D01*
X68369768Y-45196217D01*
X68400907Y-45126484D01*
X68439493Y-45035879D01*
X68446090Y-45020089D01*
X68476147Y-44947772D01*
X68503126Y-44882425D01*
X68525864Y-44826906D01*
X68543194Y-44784072D01*
X68553952Y-44756781D01*
X68557059Y-44747942D01*
X68547060Y-44743187D01*
X68520783Y-44737910D01*
X68492511Y-44734231D01*
X68462354Y-44729474D01*
X68414567Y-44720028D01*
X68353388Y-44706820D01*
X68283054Y-44690776D01*
X68207806Y-44672820D01*
X68179245Y-44665797D01*
X68074184Y-44640209D01*
X67986520Y-44620147D01*
X67911932Y-44604969D01*
X67846097Y-44594035D01*
X67784693Y-44586704D01*
X67723398Y-44582335D01*
X67657890Y-44580287D01*
X67599872Y-44579889D01*
X67430426Y-44586552D01*
X67430426Y-44586552D01*
G37*
X67430426Y-44586552D02*
X67278508Y-44606567D01*
X67143244Y-44640202D01*
X67023761Y-44687725D01*
X66919185Y-44749405D01*
X66841576Y-44812965D01*
X66772735Y-44887099D01*
X66718994Y-44966871D01*
X66676090Y-45059091D01*
X66660616Y-45102161D01*
X66647756Y-45141142D01*
X66636554Y-45177289D01*
X66626880Y-45212434D01*
X66618604Y-45248410D01*
X66611597Y-45287050D01*
X66605728Y-45330185D01*
X66600869Y-45379649D01*
X66596890Y-45437273D01*
X66593660Y-45504891D01*
X66591051Y-45584334D01*
X66588933Y-45677436D01*
X66587176Y-45786027D01*
X66585651Y-45911942D01*
X66584228Y-46057012D01*
X66582975Y-46199778D01*
X66581649Y-46355968D01*
X66580444Y-46491239D01*
X66579234Y-46607246D01*
X66577894Y-46705645D01*
X66576300Y-46788093D01*
X66574325Y-46856246D01*
X66571844Y-46911760D01*
X66568731Y-46956292D01*
X66564862Y-46991498D01*
X66560111Y-47019034D01*
X66554352Y-47040556D01*
X66547461Y-47057722D01*
X66539311Y-47072186D01*
X66529777Y-47085606D01*
X66518734Y-47099638D01*
X66514434Y-47105071D01*
X66498614Y-47127910D01*
X66491578Y-47143463D01*
X66491556Y-47143922D01*
X66502433Y-47146121D01*
X66533418Y-47148147D01*
X66582043Y-47149942D01*
X66645837Y-47151451D01*
X66722331Y-47152616D01*
X66809056Y-47153380D01*
X66903543Y-47153686D01*
X66914450Y-47153689D01*
X67337343Y-47153689D01*
X67340605Y-47057622D01*
X67343867Y-46961556D01*
X67405956Y-47012543D01*
X67503286Y-47080057D01*
X67613187Y-47134749D01*
X67699651Y-47164978D01*
X67768722Y-47179666D01*
X67852075Y-47189659D01*
X67941841Y-47194646D01*
X68030155Y-47194313D01*
X68109149Y-47188351D01*
X68145378Y-47182638D01*
X68285397Y-47144776D01*
X68411822Y-47089932D01*
X68523740Y-47018924D01*
X68620238Y-46932568D01*
X68700400Y-46831679D01*
X68763313Y-46717076D01*
X68807688Y-46590984D01*
X68820022Y-46534401D01*
X68827632Y-46472202D01*
X68831261Y-46397363D01*
X68831755Y-46363467D01*
X68831690Y-46360282D01*
X68071752Y-46360282D01*
X68062459Y-46435333D01*
X68034272Y-46499160D01*
X67985803Y-46554798D01*
X67980746Y-46559211D01*
X67932452Y-46594037D01*
X67880743Y-46616620D01*
X67820011Y-46628540D01*
X67744648Y-46631383D01*
X67726541Y-46630978D01*
X67672722Y-46628325D01*
X67632692Y-46622909D01*
X67597676Y-46612745D01*
X67558897Y-46595850D01*
X67548255Y-46590672D01*
X67487604Y-46554844D01*
X67440785Y-46512212D01*
X67428048Y-46496973D01*
X67383378Y-46440462D01*
X67383378Y-46244586D01*
X67383914Y-46165939D01*
X67385604Y-46107988D01*
X67388572Y-46068875D01*
X67392943Y-46046741D01*
X67397028Y-46040274D01*
X67412953Y-46037111D01*
X67446736Y-46034488D01*
X67493660Y-46032655D01*
X67549007Y-46031857D01*
X67557894Y-46031842D01*
X67678670Y-46037096D01*
X67781340Y-46053263D01*
X67867894Y-46080961D01*
X67940319Y-46120808D01*
X67995249Y-46167758D01*
X68039796Y-46225645D01*
X68064520Y-46288693D01*
X68071752Y-46360282D01*
X68831690Y-46360282D01*
X68829822Y-46269712D01*
X68821478Y-46190812D01*
X68805232Y-46119590D01*
X68779595Y-46048864D01*
X68755599Y-45996493D01*
X68696980Y-45901196D01*
X68618883Y-45813170D01*
X68523685Y-45734017D01*
X68413762Y-45665340D01*
X68291490Y-45608741D01*
X68159245Y-45565821D01*
X68094578Y-45550882D01*
X67958396Y-45528777D01*
X67809951Y-45514194D01*
X67658495Y-45507813D01*
X67531936Y-45509445D01*
X67370050Y-45516224D01*
X67377470Y-45457245D01*
X67396762Y-45358092D01*
X67427896Y-45277372D01*
X67471731Y-45214466D01*
X67529129Y-45168756D01*
X67600952Y-45139622D01*
X67688059Y-45126447D01*
X67791314Y-45128611D01*
X67829289Y-45132612D01*
X67970480Y-45157780D01*
X68107293Y-45198814D01*
X68201822Y-45236815D01*
X68246982Y-45256190D01*
X68285415Y-45271760D01*
X68311766Y-45281405D01*
X68319454Y-45283452D01*
X68329198Y-45274374D01*
X68345917Y-45245405D01*
X68369768Y-45196217D01*
X68400907Y-45126484D01*
X68439493Y-45035879D01*
X68446090Y-45020089D01*
X68476147Y-44947772D01*
X68503126Y-44882425D01*
X68525864Y-44826906D01*
X68543194Y-44784072D01*
X68553952Y-44756781D01*
X68557059Y-44747942D01*
X68547060Y-44743187D01*
X68520783Y-44737910D01*
X68492511Y-44734231D01*
X68462354Y-44729474D01*
X68414567Y-44720028D01*
X68353388Y-44706820D01*
X68283054Y-44690776D01*
X68207806Y-44672820D01*
X68179245Y-44665797D01*
X68074184Y-44640209D01*
X67986520Y-44620147D01*
X67911932Y-44604969D01*
X67846097Y-44594035D01*
X67784693Y-44586704D01*
X67723398Y-44582335D01*
X67657890Y-44580287D01*
X67599872Y-44579889D01*
X67430426Y-44586552D01*
G36*
X63917493Y-45192245D02*
G01*
X63917474Y-45426662D01*
X63917448Y-45639603D01*
X63917375Y-45832168D01*
X63917218Y-46005459D01*
X63916936Y-46160576D01*
X63916491Y-46298620D01*
X63915844Y-46420692D01*
X63914955Y-46527894D01*
X63913787Y-46621326D01*
X63912299Y-46702090D01*
X63910454Y-46771286D01*
X63908211Y-46830015D01*
X63905531Y-46879379D01*
X63902377Y-46920478D01*
X63898708Y-46954413D01*
X63894487Y-46982286D01*
X63889673Y-47005198D01*
X63884227Y-47024249D01*
X63878112Y-47040540D01*
X63871288Y-47055173D01*
X63863715Y-47069249D01*
X63855355Y-47083868D01*
X63850161Y-47092974D01*
X63815896Y-47153689D01*
X64674045Y-47153689D01*
X64674045Y-47057733D01*
X64674776Y-47014370D01*
X64676728Y-46981205D01*
X64679537Y-46963424D01*
X64680779Y-46961778D01*
X64692201Y-46968662D01*
X64714916Y-46986505D01*
X64737615Y-47005879D01*
X64792200Y-47046614D01*
X64861679Y-47087617D01*
X64938730Y-47125123D01*
X65016035Y-47155364D01*
X65046887Y-47165012D01*
X65115384Y-47179578D01*
X65198236Y-47189539D01*
X65287629Y-47194583D01*
X65375752Y-47194396D01*
X65454793Y-47188666D01*
X65492489Y-47182858D01*
X65630586Y-47144797D01*
X65757887Y-47087073D01*
X65873708Y-47010211D01*
X65977363Y-46914739D01*
X66068167Y-46801179D01*
X66134969Y-46690381D01*
X66189836Y-46573625D01*
X66231837Y-46454276D01*
X66261833Y-46328283D01*
X66280689Y-46191594D01*
X66289268Y-46040158D01*
X66289994Y-45962711D01*
X66287900Y-45905934D01*
X65458783Y-45905934D01*
X65458576Y-45999002D01*
X65455663Y-46086692D01*
X65450000Y-46163772D01*
X65441545Y-46225009D01*
X65438962Y-46237350D01*
X65407160Y-46344633D01*
X65365502Y-46431658D01*
X65313637Y-46498642D01*
X65251219Y-46545805D01*
X65177900Y-46573365D01*
X65093331Y-46581541D01*
X64997165Y-46570551D01*
X64933689Y-46554829D01*
X64884546Y-46536639D01*
X64830417Y-46510791D01*
X64789756Y-46487089D01*
X64719200Y-46440721D01*
X64719200Y-45290530D01*
X64786608Y-45246962D01*
X64865133Y-45206040D01*
X64949319Y-45179389D01*
X65034443Y-45167465D01*
X65115784Y-45170722D01*
X65188620Y-45189615D01*
X65220574Y-45205184D01*
X65278499Y-45248181D01*
X65327456Y-45304953D01*
X65368610Y-45377575D01*
X65403126Y-45468121D01*
X65432167Y-45578666D01*
X65433448Y-45584533D01*
X65443619Y-45646788D01*
X65451261Y-45724594D01*
X65456330Y-45812720D01*
X65458783Y-45905934D01*
X66287900Y-45905934D01*
X66282143Y-45749895D01*
X66260198Y-45554059D01*
X66224214Y-45375332D01*
X66174241Y-45213845D01*
X66110332Y-45069726D01*
X66032538Y-44943106D01*
X65940911Y-44834115D01*
X65835503Y-44742883D01*
X65790338Y-44711932D01*
X65689389Y-44655785D01*
X65586099Y-44616174D01*
X65476011Y-44592014D01*
X65354670Y-44582219D01*
X65262164Y-44583265D01*
X65132510Y-44594231D01*
X65019916Y-44616046D01*
X64921125Y-44649714D01*
X64832879Y-44696236D01*
X64784014Y-44730448D01*
X64754647Y-44752362D01*
X64732957Y-44767333D01*
X64724747Y-44771733D01*
X64723132Y-44760904D01*
X64721841Y-44730251D01*
X64720862Y-44682526D01*
X64720183Y-44620479D01*
X64719790Y-44546862D01*
X64719670Y-44464427D01*
X64719812Y-44375925D01*
X64720203Y-44284107D01*
X64720829Y-44191724D01*
X64721680Y-44101528D01*
X64722740Y-44016271D01*
X64723999Y-43938703D01*
X64725444Y-43871576D01*
X64727062Y-43817641D01*
X64728839Y-43779650D01*
X64729331Y-43772667D01*
X64736908Y-43702251D01*
X64748469Y-43647102D01*
X64766208Y-43599981D01*
X64792318Y-43553647D01*
X64798585Y-43544067D01*
X64823017Y-43507378D01*
X63917689Y-43507378D01*
X63917493Y-45192245D01*
X63917493Y-45192245D01*
G37*
X63917493Y-45192245D02*
X63917474Y-45426662D01*
X63917448Y-45639603D01*
X63917375Y-45832168D01*
X63917218Y-46005459D01*
X63916936Y-46160576D01*
X63916491Y-46298620D01*
X63915844Y-46420692D01*
X63914955Y-46527894D01*
X63913787Y-46621326D01*
X63912299Y-46702090D01*
X63910454Y-46771286D01*
X63908211Y-46830015D01*
X63905531Y-46879379D01*
X63902377Y-46920478D01*
X63898708Y-46954413D01*
X63894487Y-46982286D01*
X63889673Y-47005198D01*
X63884227Y-47024249D01*
X63878112Y-47040540D01*
X63871288Y-47055173D01*
X63863715Y-47069249D01*
X63855355Y-47083868D01*
X63850161Y-47092974D01*
X63815896Y-47153689D01*
X64674045Y-47153689D01*
X64674045Y-47057733D01*
X64674776Y-47014370D01*
X64676728Y-46981205D01*
X64679537Y-46963424D01*
X64680779Y-46961778D01*
X64692201Y-46968662D01*
X64714916Y-46986505D01*
X64737615Y-47005879D01*
X64792200Y-47046614D01*
X64861679Y-47087617D01*
X64938730Y-47125123D01*
X65016035Y-47155364D01*
X65046887Y-47165012D01*
X65115384Y-47179578D01*
X65198236Y-47189539D01*
X65287629Y-47194583D01*
X65375752Y-47194396D01*
X65454793Y-47188666D01*
X65492489Y-47182858D01*
X65630586Y-47144797D01*
X65757887Y-47087073D01*
X65873708Y-47010211D01*
X65977363Y-46914739D01*
X66068167Y-46801179D01*
X66134969Y-46690381D01*
X66189836Y-46573625D01*
X66231837Y-46454276D01*
X66261833Y-46328283D01*
X66280689Y-46191594D01*
X66289268Y-46040158D01*
X66289994Y-45962711D01*
X66287900Y-45905934D01*
X65458783Y-45905934D01*
X65458576Y-45999002D01*
X65455663Y-46086692D01*
X65450000Y-46163772D01*
X65441545Y-46225009D01*
X65438962Y-46237350D01*
X65407160Y-46344633D01*
X65365502Y-46431658D01*
X65313637Y-46498642D01*
X65251219Y-46545805D01*
X65177900Y-46573365D01*
X65093331Y-46581541D01*
X64997165Y-46570551D01*
X64933689Y-46554829D01*
X64884546Y-46536639D01*
X64830417Y-46510791D01*
X64789756Y-46487089D01*
X64719200Y-46440721D01*
X64719200Y-45290530D01*
X64786608Y-45246962D01*
X64865133Y-45206040D01*
X64949319Y-45179389D01*
X65034443Y-45167465D01*
X65115784Y-45170722D01*
X65188620Y-45189615D01*
X65220574Y-45205184D01*
X65278499Y-45248181D01*
X65327456Y-45304953D01*
X65368610Y-45377575D01*
X65403126Y-45468121D01*
X65432167Y-45578666D01*
X65433448Y-45584533D01*
X65443619Y-45646788D01*
X65451261Y-45724594D01*
X65456330Y-45812720D01*
X65458783Y-45905934D01*
X66287900Y-45905934D01*
X66282143Y-45749895D01*
X66260198Y-45554059D01*
X66224214Y-45375332D01*
X66174241Y-45213845D01*
X66110332Y-45069726D01*
X66032538Y-44943106D01*
X65940911Y-44834115D01*
X65835503Y-44742883D01*
X65790338Y-44711932D01*
X65689389Y-44655785D01*
X65586099Y-44616174D01*
X65476011Y-44592014D01*
X65354670Y-44582219D01*
X65262164Y-44583265D01*
X65132510Y-44594231D01*
X65019916Y-44616046D01*
X64921125Y-44649714D01*
X64832879Y-44696236D01*
X64784014Y-44730448D01*
X64754647Y-44752362D01*
X64732957Y-44767333D01*
X64724747Y-44771733D01*
X64723132Y-44760904D01*
X64721841Y-44730251D01*
X64720862Y-44682526D01*
X64720183Y-44620479D01*
X64719790Y-44546862D01*
X64719670Y-44464427D01*
X64719812Y-44375925D01*
X64720203Y-44284107D01*
X64720829Y-44191724D01*
X64721680Y-44101528D01*
X64722740Y-44016271D01*
X64723999Y-43938703D01*
X64725444Y-43871576D01*
X64727062Y-43817641D01*
X64728839Y-43779650D01*
X64729331Y-43772667D01*
X64736908Y-43702251D01*
X64748469Y-43647102D01*
X64766208Y-43599981D01*
X64792318Y-43553647D01*
X64798585Y-43544067D01*
X64823017Y-43507378D01*
X63917689Y-43507378D01*
X63917493Y-45192245D01*
G36*
X72377043Y-42746571D02*
G01*
X72280768Y-42770809D01*
X72194184Y-42813641D01*
X72119373Y-42873419D01*
X72058418Y-42948494D01*
X72013399Y-43037220D01*
X71987136Y-43133530D01*
X71981286Y-43230795D01*
X71996140Y-43324654D01*
X72029840Y-43412511D01*
X72080528Y-43491770D01*
X72146345Y-43559836D01*
X72225434Y-43614112D01*
X72315934Y-43652002D01*
X72367200Y-43664426D01*
X72411698Y-43671947D01*
X72445999Y-43674919D01*
X72478960Y-43673094D01*
X72519434Y-43666225D01*
X72552531Y-43659250D01*
X72645947Y-43627741D01*
X72729619Y-43576617D01*
X72801665Y-43507429D01*
X72860200Y-43421728D01*
X72874148Y-43394489D01*
X72890586Y-43358122D01*
X72900894Y-43327582D01*
X72906460Y-43295450D01*
X72908669Y-43254307D01*
X72908948Y-43208222D01*
X72904861Y-43123865D01*
X72891446Y-43054586D01*
X72866256Y-42993961D01*
X72826846Y-42935567D01*
X72788298Y-42891302D01*
X72716406Y-42825484D01*
X72641313Y-42780053D01*
X72558562Y-42752850D01*
X72480928Y-42742576D01*
X72377043Y-42746571D01*
X72377043Y-42746571D01*
G37*
X72377043Y-42746571D02*
X72280768Y-42770809D01*
X72194184Y-42813641D01*
X72119373Y-42873419D01*
X72058418Y-42948494D01*
X72013399Y-43037220D01*
X71987136Y-43133530D01*
X71981286Y-43230795D01*
X71996140Y-43324654D01*
X72029840Y-43412511D01*
X72080528Y-43491770D01*
X72146345Y-43559836D01*
X72225434Y-43614112D01*
X72315934Y-43652002D01*
X72367200Y-43664426D01*
X72411698Y-43671947D01*
X72445999Y-43674919D01*
X72478960Y-43673094D01*
X72519434Y-43666225D01*
X72552531Y-43659250D01*
X72645947Y-43627741D01*
X72729619Y-43576617D01*
X72801665Y-43507429D01*
X72860200Y-43421728D01*
X72874148Y-43394489D01*
X72890586Y-43358122D01*
X72900894Y-43327582D01*
X72906460Y-43295450D01*
X72908669Y-43254307D01*
X72908948Y-43208222D01*
X72904861Y-43123865D01*
X72891446Y-43054586D01*
X72866256Y-42993961D01*
X72826846Y-42935567D01*
X72788298Y-42891302D01*
X72716406Y-42825484D01*
X72641313Y-42780053D01*
X72558562Y-42752850D01*
X72480928Y-42742576D01*
X72377043Y-42746571D01*
G36*
X76225371Y-47989066D02*
G01*
X76185889Y-47989467D01*
X76070200Y-47992259D01*
X75973311Y-48000550D01*
X75891919Y-48015232D01*
X75822723Y-48037193D01*
X75762420Y-48067322D01*
X75707708Y-48106510D01*
X75688167Y-48123532D01*
X75655750Y-48163363D01*
X75626520Y-48217413D01*
X75603991Y-48277323D01*
X75591679Y-48334739D01*
X75590400Y-48355956D01*
X75598417Y-48414769D01*
X75619899Y-48479013D01*
X75650999Y-48539821D01*
X75687866Y-48588330D01*
X75693854Y-48594182D01*
X75744579Y-48635321D01*
X75800125Y-48667435D01*
X75863696Y-48691365D01*
X75938494Y-48707953D01*
X76027722Y-48718041D01*
X76134582Y-48722469D01*
X76183528Y-48722845D01*
X76245762Y-48722545D01*
X76289528Y-48721292D01*
X76318931Y-48718554D01*
X76338079Y-48713801D01*
X76351077Y-48706501D01*
X76358045Y-48700267D01*
X76364626Y-48692694D01*
X76369788Y-48682924D01*
X76373703Y-48668340D01*
X76376543Y-48646326D01*
X76378480Y-48614264D01*
X76379684Y-48569536D01*
X76380328Y-48509526D01*
X76380583Y-48431617D01*
X76380622Y-48355956D01*
X76380870Y-48255041D01*
X76380817Y-48174427D01*
X76379857Y-48135822D01*
X76233867Y-48135822D01*
X76233867Y-48576089D01*
X76140734Y-48576004D01*
X76084693Y-48574396D01*
X76025999Y-48570256D01*
X75977028Y-48564464D01*
X75975538Y-48564226D01*
X75896392Y-48545090D01*
X75835002Y-48515287D01*
X75788305Y-48472878D01*
X75758635Y-48426961D01*
X75740353Y-48376026D01*
X75741771Y-48328200D01*
X75762988Y-48276933D01*
X75804489Y-48223899D01*
X75861998Y-48184600D01*
X75936750Y-48158331D01*
X75986708Y-48149035D01*
X76043416Y-48142507D01*
X76103519Y-48137782D01*
X76154639Y-48135817D01*
X76157667Y-48135808D01*
X76233867Y-48135822D01*
X76379857Y-48135822D01*
X76379260Y-48111851D01*
X76374998Y-48065055D01*
X76366830Y-48031778D01*
X76353556Y-48009759D01*
X76333974Y-47996739D01*
X76306883Y-47990457D01*
X76271082Y-47988653D01*
X76225371Y-47989066D01*
X76225371Y-47989066D01*
G37*
X76225371Y-47989066D02*
X76185889Y-47989467D01*
X76070200Y-47992259D01*
X75973311Y-48000550D01*
X75891919Y-48015232D01*
X75822723Y-48037193D01*
X75762420Y-48067322D01*
X75707708Y-48106510D01*
X75688167Y-48123532D01*
X75655750Y-48163363D01*
X75626520Y-48217413D01*
X75603991Y-48277323D01*
X75591679Y-48334739D01*
X75590400Y-48355956D01*
X75598417Y-48414769D01*
X75619899Y-48479013D01*
X75650999Y-48539821D01*
X75687866Y-48588330D01*
X75693854Y-48594182D01*
X75744579Y-48635321D01*
X75800125Y-48667435D01*
X75863696Y-48691365D01*
X75938494Y-48707953D01*
X76027722Y-48718041D01*
X76134582Y-48722469D01*
X76183528Y-48722845D01*
X76245762Y-48722545D01*
X76289528Y-48721292D01*
X76318931Y-48718554D01*
X76338079Y-48713801D01*
X76351077Y-48706501D01*
X76358045Y-48700267D01*
X76364626Y-48692694D01*
X76369788Y-48682924D01*
X76373703Y-48668340D01*
X76376543Y-48646326D01*
X76378480Y-48614264D01*
X76379684Y-48569536D01*
X76380328Y-48509526D01*
X76380583Y-48431617D01*
X76380622Y-48355956D01*
X76380870Y-48255041D01*
X76380817Y-48174427D01*
X76379857Y-48135822D01*
X76233867Y-48135822D01*
X76233867Y-48576089D01*
X76140734Y-48576004D01*
X76084693Y-48574396D01*
X76025999Y-48570256D01*
X75977028Y-48564464D01*
X75975538Y-48564226D01*
X75896392Y-48545090D01*
X75835002Y-48515287D01*
X75788305Y-48472878D01*
X75758635Y-48426961D01*
X75740353Y-48376026D01*
X75741771Y-48328200D01*
X75762988Y-48276933D01*
X75804489Y-48223899D01*
X75861998Y-48184600D01*
X75936750Y-48158331D01*
X75986708Y-48149035D01*
X76043416Y-48142507D01*
X76103519Y-48137782D01*
X76154639Y-48135817D01*
X76157667Y-48135808D01*
X76233867Y-48135822D01*
X76379857Y-48135822D01*
X76379260Y-48111851D01*
X76374998Y-48065055D01*
X76366830Y-48031778D01*
X76353556Y-48009759D01*
X76333974Y-47996739D01*
X76306883Y-47990457D01*
X76271082Y-47988653D01*
X76225371Y-47989066D01*
G36*
X74816794Y-47989146D02*
G01*
X74747386Y-47989518D01*
X74694997Y-47990385D01*
X74656847Y-47991946D01*
X74630159Y-47994403D01*
X74612153Y-47997957D01*
X74600049Y-48002810D01*
X74591069Y-48009161D01*
X74587818Y-48012084D01*
X74568043Y-48043142D01*
X74564482Y-48078828D01*
X74577491Y-48110510D01*
X74583506Y-48116913D01*
X74593235Y-48123121D01*
X74608901Y-48127910D01*
X74633408Y-48131514D01*
X74669661Y-48134164D01*
X74720565Y-48136095D01*
X74789026Y-48137539D01*
X74851617Y-48138418D01*
X75099334Y-48141467D01*
X75102719Y-48206378D01*
X75106105Y-48271289D01*
X74937958Y-48271289D01*
X74864959Y-48271919D01*
X74811517Y-48274553D01*
X74774628Y-48280309D01*
X74751288Y-48290304D01*
X74738494Y-48305656D01*
X74733242Y-48327482D01*
X74732445Y-48347738D01*
X74734923Y-48372592D01*
X74744277Y-48390906D01*
X74763383Y-48403637D01*
X74795118Y-48411741D01*
X74842359Y-48416176D01*
X74907983Y-48417899D01*
X74943801Y-48418045D01*
X75104978Y-48418045D01*
X75104978Y-48576089D01*
X74856622Y-48576089D01*
X74775213Y-48576202D01*
X74713342Y-48576712D01*
X74667968Y-48577870D01*
X74636054Y-48579930D01*
X74614559Y-48583146D01*
X74600443Y-48587772D01*
X74590668Y-48594059D01*
X74585689Y-48598667D01*
X74568610Y-48625560D01*
X74563111Y-48649467D01*
X74570963Y-48678667D01*
X74585689Y-48700267D01*
X74593546Y-48707066D01*
X74603688Y-48712346D01*
X74618844Y-48716298D01*
X74641741Y-48719113D01*
X74675109Y-48720982D01*
X74721675Y-48722098D01*
X74784167Y-48722651D01*
X74865314Y-48722833D01*
X74907422Y-48722845D01*
X74997598Y-48722765D01*
X75067924Y-48722398D01*
X75121129Y-48721552D01*
X75159940Y-48720036D01*
X75187087Y-48717659D01*
X75205298Y-48714229D01*
X75217300Y-48709554D01*
X75225822Y-48703444D01*
X75229156Y-48700267D01*
X75235755Y-48692670D01*
X75240927Y-48682870D01*
X75244846Y-48668239D01*
X75247684Y-48646152D01*
X75249615Y-48613982D01*
X75250812Y-48569103D01*
X75251448Y-48508889D01*
X75251697Y-48430713D01*
X75251734Y-48357923D01*
X75251700Y-48264707D01*
X75251465Y-48191431D01*
X75250830Y-48135458D01*
X75249594Y-48094151D01*
X75247556Y-48064872D01*
X75244517Y-48044984D01*
X75240277Y-48031850D01*
X75234635Y-48022832D01*
X75227391Y-48015293D01*
X75225606Y-48013612D01*
X75216945Y-48006172D01*
X75206882Y-48000409D01*
X75192625Y-47996112D01*
X75171383Y-47993064D01*
X75140364Y-47991051D01*
X75096777Y-47989860D01*
X75037831Y-47989275D01*
X74960734Y-47989083D01*
X74906001Y-47989067D01*
X74816794Y-47989146D01*
X74816794Y-47989146D01*
G37*
X74816794Y-47989146D02*
X74747386Y-47989518D01*
X74694997Y-47990385D01*
X74656847Y-47991946D01*
X74630159Y-47994403D01*
X74612153Y-47997957D01*
X74600049Y-48002810D01*
X74591069Y-48009161D01*
X74587818Y-48012084D01*
X74568043Y-48043142D01*
X74564482Y-48078828D01*
X74577491Y-48110510D01*
X74583506Y-48116913D01*
X74593235Y-48123121D01*
X74608901Y-48127910D01*
X74633408Y-48131514D01*
X74669661Y-48134164D01*
X74720565Y-48136095D01*
X74789026Y-48137539D01*
X74851617Y-48138418D01*
X75099334Y-48141467D01*
X75102719Y-48206378D01*
X75106105Y-48271289D01*
X74937958Y-48271289D01*
X74864959Y-48271919D01*
X74811517Y-48274553D01*
X74774628Y-48280309D01*
X74751288Y-48290304D01*
X74738494Y-48305656D01*
X74733242Y-48327482D01*
X74732445Y-48347738D01*
X74734923Y-48372592D01*
X74744277Y-48390906D01*
X74763383Y-48403637D01*
X74795118Y-48411741D01*
X74842359Y-48416176D01*
X74907983Y-48417899D01*
X74943801Y-48418045D01*
X75104978Y-48418045D01*
X75104978Y-48576089D01*
X74856622Y-48576089D01*
X74775213Y-48576202D01*
X74713342Y-48576712D01*
X74667968Y-48577870D01*
X74636054Y-48579930D01*
X74614559Y-48583146D01*
X74600443Y-48587772D01*
X74590668Y-48594059D01*
X74585689Y-48598667D01*
X74568610Y-48625560D01*
X74563111Y-48649467D01*
X74570963Y-48678667D01*
X74585689Y-48700267D01*
X74593546Y-48707066D01*
X74603688Y-48712346D01*
X74618844Y-48716298D01*
X74641741Y-48719113D01*
X74675109Y-48720982D01*
X74721675Y-48722098D01*
X74784167Y-48722651D01*
X74865314Y-48722833D01*
X74907422Y-48722845D01*
X74997598Y-48722765D01*
X75067924Y-48722398D01*
X75121129Y-48721552D01*
X75159940Y-48720036D01*
X75187087Y-48717659D01*
X75205298Y-48714229D01*
X75217300Y-48709554D01*
X75225822Y-48703444D01*
X75229156Y-48700267D01*
X75235755Y-48692670D01*
X75240927Y-48682870D01*
X75244846Y-48668239D01*
X75247684Y-48646152D01*
X75249615Y-48613982D01*
X75250812Y-48569103D01*
X75251448Y-48508889D01*
X75251697Y-48430713D01*
X75251734Y-48357923D01*
X75251700Y-48264707D01*
X75251465Y-48191431D01*
X75250830Y-48135458D01*
X75249594Y-48094151D01*
X75247556Y-48064872D01*
X75244517Y-48044984D01*
X75240277Y-48031850D01*
X75234635Y-48022832D01*
X75227391Y-48015293D01*
X75225606Y-48013612D01*
X75216945Y-48006172D01*
X75206882Y-48000409D01*
X75192625Y-47996112D01*
X75171383Y-47993064D01*
X75140364Y-47991051D01*
X75096777Y-47989860D01*
X75037831Y-47989275D01*
X74960734Y-47989083D01*
X74906001Y-47989067D01*
X74816794Y-47989146D01*
G36*
X73795703Y-47990351D02*
G01*
X73720888Y-47995581D01*
X73651306Y-48003750D01*
X73591002Y-48014550D01*
X73544020Y-48027673D01*
X73514406Y-48042813D01*
X73509860Y-48047269D01*
X73494054Y-48081850D01*
X73498847Y-48117351D01*
X73523364Y-48147725D01*
X73524534Y-48148596D01*
X73538954Y-48157954D01*
X73554008Y-48162876D01*
X73575005Y-48163473D01*
X73607257Y-48159861D01*
X73656073Y-48152154D01*
X73660000Y-48151505D01*
X73732739Y-48142569D01*
X73811217Y-48138161D01*
X73889927Y-48138119D01*
X73963361Y-48142279D01*
X74026011Y-48150479D01*
X74072370Y-48162557D01*
X74075416Y-48163771D01*
X74109048Y-48182615D01*
X74120864Y-48201685D01*
X74111614Y-48220439D01*
X74082047Y-48238337D01*
X74032911Y-48254837D01*
X73964957Y-48269396D01*
X73919645Y-48276406D01*
X73825456Y-48289889D01*
X73750544Y-48302214D01*
X73691717Y-48314449D01*
X73645785Y-48327661D01*
X73609555Y-48342917D01*
X73579838Y-48361285D01*
X73553442Y-48383831D01*
X73532230Y-48405971D01*
X73507065Y-48436819D01*
X73494681Y-48463345D01*
X73490808Y-48496026D01*
X73490667Y-48507995D01*
X73493576Y-48547712D01*
X73505202Y-48577259D01*
X73525323Y-48603486D01*
X73566216Y-48643576D01*
X73611817Y-48674149D01*
X73665513Y-48696203D01*
X73730692Y-48710735D01*
X73810744Y-48718741D01*
X73909057Y-48721218D01*
X73925289Y-48721177D01*
X73990849Y-48719818D01*
X74055866Y-48716730D01*
X74113252Y-48712356D01*
X74155922Y-48707140D01*
X74159372Y-48706541D01*
X74201796Y-48696491D01*
X74237780Y-48683796D01*
X74258150Y-48672190D01*
X74277107Y-48641572D01*
X74278427Y-48605918D01*
X74262085Y-48574144D01*
X74258429Y-48570551D01*
X74243315Y-48559876D01*
X74224415Y-48555276D01*
X74195162Y-48556059D01*
X74159651Y-48560127D01*
X74119970Y-48563762D01*
X74064345Y-48566828D01*
X73999406Y-48569053D01*
X73931785Y-48570164D01*
X73914000Y-48570237D01*
X73846128Y-48569964D01*
X73796454Y-48568646D01*
X73760610Y-48565827D01*
X73734224Y-48561050D01*
X73712926Y-48553857D01*
X73700126Y-48547867D01*
X73672000Y-48531233D01*
X73654068Y-48516168D01*
X73651447Y-48511897D01*
X73656976Y-48494263D01*
X73683260Y-48477192D01*
X73728478Y-48461458D01*
X73790808Y-48447838D01*
X73809171Y-48444804D01*
X73905090Y-48429738D01*
X73981641Y-48417146D01*
X74041780Y-48406111D01*
X74088460Y-48395720D01*
X74124637Y-48385056D01*
X74153265Y-48373205D01*
X74177298Y-48359251D01*
X74199692Y-48342281D01*
X74223402Y-48321378D01*
X74231380Y-48314049D01*
X74259353Y-48286699D01*
X74274160Y-48265029D01*
X74279952Y-48240232D01*
X74280889Y-48208983D01*
X74270575Y-48147705D01*
X74239752Y-48095640D01*
X74188595Y-48052958D01*
X74117283Y-48019825D01*
X74066400Y-48004964D01*
X74011100Y-47995366D01*
X73944853Y-47989936D01*
X73871706Y-47988367D01*
X73795703Y-47990351D01*
X73795703Y-47990351D01*
G37*
X73795703Y-47990351D02*
X73720888Y-47995581D01*
X73651306Y-48003750D01*
X73591002Y-48014550D01*
X73544020Y-48027673D01*
X73514406Y-48042813D01*
X73509860Y-48047269D01*
X73494054Y-48081850D01*
X73498847Y-48117351D01*
X73523364Y-48147725D01*
X73524534Y-48148596D01*
X73538954Y-48157954D01*
X73554008Y-48162876D01*
X73575005Y-48163473D01*
X73607257Y-48159861D01*
X73656073Y-48152154D01*
X73660000Y-48151505D01*
X73732739Y-48142569D01*
X73811217Y-48138161D01*
X73889927Y-48138119D01*
X73963361Y-48142279D01*
X74026011Y-48150479D01*
X74072370Y-48162557D01*
X74075416Y-48163771D01*
X74109048Y-48182615D01*
X74120864Y-48201685D01*
X74111614Y-48220439D01*
X74082047Y-48238337D01*
X74032911Y-48254837D01*
X73964957Y-48269396D01*
X73919645Y-48276406D01*
X73825456Y-48289889D01*
X73750544Y-48302214D01*
X73691717Y-48314449D01*
X73645785Y-48327661D01*
X73609555Y-48342917D01*
X73579838Y-48361285D01*
X73553442Y-48383831D01*
X73532230Y-48405971D01*
X73507065Y-48436819D01*
X73494681Y-48463345D01*
X73490808Y-48496026D01*
X73490667Y-48507995D01*
X73493576Y-48547712D01*
X73505202Y-48577259D01*
X73525323Y-48603486D01*
X73566216Y-48643576D01*
X73611817Y-48674149D01*
X73665513Y-48696203D01*
X73730692Y-48710735D01*
X73810744Y-48718741D01*
X73909057Y-48721218D01*
X73925289Y-48721177D01*
X73990849Y-48719818D01*
X74055866Y-48716730D01*
X74113252Y-48712356D01*
X74155922Y-48707140D01*
X74159372Y-48706541D01*
X74201796Y-48696491D01*
X74237780Y-48683796D01*
X74258150Y-48672190D01*
X74277107Y-48641572D01*
X74278427Y-48605918D01*
X74262085Y-48574144D01*
X74258429Y-48570551D01*
X74243315Y-48559876D01*
X74224415Y-48555276D01*
X74195162Y-48556059D01*
X74159651Y-48560127D01*
X74119970Y-48563762D01*
X74064345Y-48566828D01*
X73999406Y-48569053D01*
X73931785Y-48570164D01*
X73914000Y-48570237D01*
X73846128Y-48569964D01*
X73796454Y-48568646D01*
X73760610Y-48565827D01*
X73734224Y-48561050D01*
X73712926Y-48553857D01*
X73700126Y-48547867D01*
X73672000Y-48531233D01*
X73654068Y-48516168D01*
X73651447Y-48511897D01*
X73656976Y-48494263D01*
X73683260Y-48477192D01*
X73728478Y-48461458D01*
X73790808Y-48447838D01*
X73809171Y-48444804D01*
X73905090Y-48429738D01*
X73981641Y-48417146D01*
X74041780Y-48406111D01*
X74088460Y-48395720D01*
X74124637Y-48385056D01*
X74153265Y-48373205D01*
X74177298Y-48359251D01*
X74199692Y-48342281D01*
X74223402Y-48321378D01*
X74231380Y-48314049D01*
X74259353Y-48286699D01*
X74274160Y-48265029D01*
X74279952Y-48240232D01*
X74280889Y-48208983D01*
X74270575Y-48147705D01*
X74239752Y-48095640D01*
X74188595Y-48052958D01*
X74117283Y-48019825D01*
X74066400Y-48004964D01*
X74011100Y-47995366D01*
X73944853Y-47989936D01*
X73871706Y-47988367D01*
X73795703Y-47990351D01*
G36*
X73027822Y-48011645D02*
G01*
X73021242Y-48019218D01*
X73016079Y-48028987D01*
X73012164Y-48043571D01*
X73009324Y-48065585D01*
X73007387Y-48097648D01*
X73006183Y-48142375D01*
X73005539Y-48202385D01*
X73005284Y-48280294D01*
X73005245Y-48355956D01*
X73005314Y-48449802D01*
X73005638Y-48523689D01*
X73006386Y-48580232D01*
X73007732Y-48622049D01*
X73009846Y-48651757D01*
X73012900Y-48671973D01*
X73017066Y-48685314D01*
X73022516Y-48694398D01*
X73027822Y-48700267D01*
X73060826Y-48719947D01*
X73095991Y-48718181D01*
X73127455Y-48696717D01*
X73134684Y-48688337D01*
X73140334Y-48678614D01*
X73144599Y-48664861D01*
X73147673Y-48644389D01*
X73149752Y-48614512D01*
X73151030Y-48572541D01*
X73151701Y-48515789D01*
X73151959Y-48441567D01*
X73152000Y-48357537D01*
X73152000Y-48044485D01*
X73124291Y-48016776D01*
X73090137Y-47993463D01*
X73057006Y-47992623D01*
X73027822Y-48011645D01*
X73027822Y-48011645D01*
G37*
X73027822Y-48011645D02*
X73021242Y-48019218D01*
X73016079Y-48028987D01*
X73012164Y-48043571D01*
X73009324Y-48065585D01*
X73007387Y-48097648D01*
X73006183Y-48142375D01*
X73005539Y-48202385D01*
X73005284Y-48280294D01*
X73005245Y-48355956D01*
X73005314Y-48449802D01*
X73005638Y-48523689D01*
X73006386Y-48580232D01*
X73007732Y-48622049D01*
X73009846Y-48651757D01*
X73012900Y-48671973D01*
X73017066Y-48685314D01*
X73022516Y-48694398D01*
X73027822Y-48700267D01*
X73060826Y-48719947D01*
X73095991Y-48718181D01*
X73127455Y-48696717D01*
X73134684Y-48688337D01*
X73140334Y-48678614D01*
X73144599Y-48664861D01*
X73147673Y-48644389D01*
X73149752Y-48614512D01*
X73151030Y-48572541D01*
X73151701Y-48515789D01*
X73151959Y-48441567D01*
X73152000Y-48357537D01*
X73152000Y-48044485D01*
X73124291Y-48016776D01*
X73090137Y-47993463D01*
X73057006Y-47992623D01*
X73027822Y-48011645D01*
G36*
X72054081Y-47994599D02*
G01*
X71985565Y-48006095D01*
X71932943Y-48023967D01*
X71898708Y-48047499D01*
X71889379Y-48060924D01*
X71879893Y-48092148D01*
X71886277Y-48120395D01*
X71906430Y-48147182D01*
X71937745Y-48159713D01*
X71983183Y-48158696D01*
X72018326Y-48151906D01*
X72096419Y-48138971D01*
X72176226Y-48137742D01*
X72265555Y-48148241D01*
X72290229Y-48152690D01*
X72373291Y-48176108D01*
X72438273Y-48210945D01*
X72484461Y-48256604D01*
X72511145Y-48312494D01*
X72516663Y-48341388D01*
X72513051Y-48400012D01*
X72489729Y-48451879D01*
X72448824Y-48495978D01*
X72392459Y-48531299D01*
X72322760Y-48556829D01*
X72241852Y-48571559D01*
X72151860Y-48574478D01*
X72054910Y-48564575D01*
X72049436Y-48563641D01*
X72010875Y-48556459D01*
X71989494Y-48549521D01*
X71980227Y-48539227D01*
X71978006Y-48521976D01*
X71977956Y-48512841D01*
X71977956Y-48474489D01*
X72046431Y-48474489D01*
X72106900Y-48470347D01*
X72148165Y-48457147D01*
X72172175Y-48433730D01*
X72180877Y-48398936D01*
X72180983Y-48394394D01*
X72175892Y-48364654D01*
X72158433Y-48343419D01*
X72125939Y-48329366D01*
X72075743Y-48321173D01*
X72027123Y-48318161D01*
X71956456Y-48316433D01*
X71905198Y-48319070D01*
X71870239Y-48328800D01*
X71848470Y-48348353D01*
X71836780Y-48380456D01*
X71832060Y-48427838D01*
X71831200Y-48490071D01*
X71832609Y-48559535D01*
X71836848Y-48606786D01*
X71843936Y-48632012D01*
X71845311Y-48633988D01*
X71884228Y-48665508D01*
X71941286Y-48690470D01*
X72012869Y-48708340D01*
X72095358Y-48718586D01*
X72185139Y-48720673D01*
X72278592Y-48714068D01*
X72333556Y-48705956D01*
X72419766Y-48681554D01*
X72499892Y-48641662D01*
X72566977Y-48589887D01*
X72577173Y-48579539D01*
X72610302Y-48536035D01*
X72640194Y-48482118D01*
X72663357Y-48425592D01*
X72676298Y-48374259D01*
X72677858Y-48354544D01*
X72671218Y-48313419D01*
X72653568Y-48262252D01*
X72628297Y-48208394D01*
X72598789Y-48159195D01*
X72572719Y-48126334D01*
X72511765Y-48077452D01*
X72432969Y-48038545D01*
X72339157Y-48010494D01*
X72233150Y-47994179D01*
X72136000Y-47990192D01*
X72054081Y-47994599D01*
X72054081Y-47994599D01*
G37*
X72054081Y-47994599D02*
X71985565Y-48006095D01*
X71932943Y-48023967D01*
X71898708Y-48047499D01*
X71889379Y-48060924D01*
X71879893Y-48092148D01*
X71886277Y-48120395D01*
X71906430Y-48147182D01*
X71937745Y-48159713D01*
X71983183Y-48158696D01*
X72018326Y-48151906D01*
X72096419Y-48138971D01*
X72176226Y-48137742D01*
X72265555Y-48148241D01*
X72290229Y-48152690D01*
X72373291Y-48176108D01*
X72438273Y-48210945D01*
X72484461Y-48256604D01*
X72511145Y-48312494D01*
X72516663Y-48341388D01*
X72513051Y-48400012D01*
X72489729Y-48451879D01*
X72448824Y-48495978D01*
X72392459Y-48531299D01*
X72322760Y-48556829D01*
X72241852Y-48571559D01*
X72151860Y-48574478D01*
X72054910Y-48564575D01*
X72049436Y-48563641D01*
X72010875Y-48556459D01*
X71989494Y-48549521D01*
X71980227Y-48539227D01*
X71978006Y-48521976D01*
X71977956Y-48512841D01*
X71977956Y-48474489D01*
X72046431Y-48474489D01*
X72106900Y-48470347D01*
X72148165Y-48457147D01*
X72172175Y-48433730D01*
X72180877Y-48398936D01*
X72180983Y-48394394D01*
X72175892Y-48364654D01*
X72158433Y-48343419D01*
X72125939Y-48329366D01*
X72075743Y-48321173D01*
X72027123Y-48318161D01*
X71956456Y-48316433D01*
X71905198Y-48319070D01*
X71870239Y-48328800D01*
X71848470Y-48348353D01*
X71836780Y-48380456D01*
X71832060Y-48427838D01*
X71831200Y-48490071D01*
X71832609Y-48559535D01*
X71836848Y-48606786D01*
X71843936Y-48632012D01*
X71845311Y-48633988D01*
X71884228Y-48665508D01*
X71941286Y-48690470D01*
X72012869Y-48708340D01*
X72095358Y-48718586D01*
X72185139Y-48720673D01*
X72278592Y-48714068D01*
X72333556Y-48705956D01*
X72419766Y-48681554D01*
X72499892Y-48641662D01*
X72566977Y-48589887D01*
X72577173Y-48579539D01*
X72610302Y-48536035D01*
X72640194Y-48482118D01*
X72663357Y-48425592D01*
X72676298Y-48374259D01*
X72677858Y-48354544D01*
X72671218Y-48313419D01*
X72653568Y-48262252D01*
X72628297Y-48208394D01*
X72598789Y-48159195D01*
X72572719Y-48126334D01*
X72511765Y-48077452D01*
X72432969Y-48038545D01*
X72339157Y-48010494D01*
X72233150Y-47994179D01*
X72136000Y-47990192D01*
X72054081Y-47994599D01*
G36*
X71404114Y-47993448D02*
G01*
X71380548Y-48007273D01*
X71349735Y-48029881D01*
X71310078Y-48062338D01*
X71259980Y-48105708D01*
X71197843Y-48161058D01*
X71122072Y-48229451D01*
X71035334Y-48308084D01*
X70854711Y-48471878D01*
X70849067Y-48252029D01*
X70847029Y-48176351D01*
X70845063Y-48119994D01*
X70842734Y-48079706D01*
X70839606Y-48052235D01*
X70835245Y-48034329D01*
X70829216Y-48022737D01*
X70821084Y-48014208D01*
X70816772Y-48010623D01*
X70782241Y-47991670D01*
X70749383Y-47994441D01*
X70723318Y-48010633D01*
X70696667Y-48032199D01*
X70693352Y-48347151D01*
X70692435Y-48439779D01*
X70691968Y-48512544D01*
X70692113Y-48568161D01*
X70693032Y-48609342D01*
X70694887Y-48638803D01*
X70697839Y-48659255D01*
X70702050Y-48673413D01*
X70707682Y-48683991D01*
X70713927Y-48692474D01*
X70727439Y-48708207D01*
X70740883Y-48718636D01*
X70756124Y-48722639D01*
X70775026Y-48719094D01*
X70799455Y-48706879D01*
X70831273Y-48684871D01*
X70872348Y-48651949D01*
X70924542Y-48606991D01*
X70989722Y-48548875D01*
X71063556Y-48482099D01*
X71328845Y-48241458D01*
X71334489Y-48460589D01*
X71336531Y-48536128D01*
X71338502Y-48592354D01*
X71340839Y-48632524D01*
X71343981Y-48659896D01*
X71348364Y-48677728D01*
X71354424Y-48689279D01*
X71362600Y-48697807D01*
X71366784Y-48701282D01*
X71403765Y-48720372D01*
X71438708Y-48717493D01*
X71469136Y-48693100D01*
X71476097Y-48683286D01*
X71481523Y-48671826D01*
X71485603Y-48655968D01*
X71488529Y-48632963D01*
X71490492Y-48600062D01*
X71491683Y-48554516D01*
X71492292Y-48493573D01*
X71492511Y-48414486D01*
X71492534Y-48355956D01*
X71492460Y-48264407D01*
X71492113Y-48192687D01*
X71491301Y-48138045D01*
X71489833Y-48097732D01*
X71487519Y-48068998D01*
X71484167Y-48049093D01*
X71479588Y-48035268D01*
X71473589Y-48024772D01*
X71469136Y-48018811D01*
X71457850Y-48004691D01*
X71447301Y-47994029D01*
X71435893Y-47987892D01*
X71422030Y-47987343D01*
X71404114Y-47993448D01*
X71404114Y-47993448D01*
G37*
X71404114Y-47993448D02*
X71380548Y-48007273D01*
X71349735Y-48029881D01*
X71310078Y-48062338D01*
X71259980Y-48105708D01*
X71197843Y-48161058D01*
X71122072Y-48229451D01*
X71035334Y-48308084D01*
X70854711Y-48471878D01*
X70849067Y-48252029D01*
X70847029Y-48176351D01*
X70845063Y-48119994D01*
X70842734Y-48079706D01*
X70839606Y-48052235D01*
X70835245Y-48034329D01*
X70829216Y-48022737D01*
X70821084Y-48014208D01*
X70816772Y-48010623D01*
X70782241Y-47991670D01*
X70749383Y-47994441D01*
X70723318Y-48010633D01*
X70696667Y-48032199D01*
X70693352Y-48347151D01*
X70692435Y-48439779D01*
X70691968Y-48512544D01*
X70692113Y-48568161D01*
X70693032Y-48609342D01*
X70694887Y-48638803D01*
X70697839Y-48659255D01*
X70702050Y-48673413D01*
X70707682Y-48683991D01*
X70713927Y-48692474D01*
X70727439Y-48708207D01*
X70740883Y-48718636D01*
X70756124Y-48722639D01*
X70775026Y-48719094D01*
X70799455Y-48706879D01*
X70831273Y-48684871D01*
X70872348Y-48651949D01*
X70924542Y-48606991D01*
X70989722Y-48548875D01*
X71063556Y-48482099D01*
X71328845Y-48241458D01*
X71334489Y-48460589D01*
X71336531Y-48536128D01*
X71338502Y-48592354D01*
X71340839Y-48632524D01*
X71343981Y-48659896D01*
X71348364Y-48677728D01*
X71354424Y-48689279D01*
X71362600Y-48697807D01*
X71366784Y-48701282D01*
X71403765Y-48720372D01*
X71438708Y-48717493D01*
X71469136Y-48693100D01*
X71476097Y-48683286D01*
X71481523Y-48671826D01*
X71485603Y-48655968D01*
X71488529Y-48632963D01*
X71490492Y-48600062D01*
X71491683Y-48554516D01*
X71492292Y-48493573D01*
X71492511Y-48414486D01*
X71492534Y-48355956D01*
X71492460Y-48264407D01*
X71492113Y-48192687D01*
X71491301Y-48138045D01*
X71489833Y-48097732D01*
X71487519Y-48068998D01*
X71484167Y-48049093D01*
X71479588Y-48035268D01*
X71473589Y-48024772D01*
X71469136Y-48018811D01*
X71457850Y-48004691D01*
X71447301Y-47994029D01*
X71435893Y-47987892D01*
X71422030Y-47987343D01*
X71404114Y-47993448D01*
G36*
X69873657Y-47989260D02*
G01*
X69797299Y-47990174D01*
X69738783Y-47992311D01*
X69695745Y-47996175D01*
X69665817Y-48002267D01*
X69646632Y-48011090D01*
X69635824Y-48023146D01*
X69631027Y-48038939D01*
X69629873Y-48058970D01*
X69629867Y-48061335D01*
X69630869Y-48083992D01*
X69635604Y-48101503D01*
X69646667Y-48114574D01*
X69666652Y-48123913D01*
X69698154Y-48130227D01*
X69743768Y-48134222D01*
X69806087Y-48136606D01*
X69887707Y-48138086D01*
X69912723Y-48138414D01*
X70154800Y-48141467D01*
X70158186Y-48206378D01*
X70161571Y-48271289D01*
X69993424Y-48271289D01*
X69927734Y-48271531D01*
X69880828Y-48272556D01*
X69848917Y-48274811D01*
X69828209Y-48278742D01*
X69814916Y-48284798D01*
X69805245Y-48293424D01*
X69805183Y-48293493D01*
X69787644Y-48327112D01*
X69788278Y-48363448D01*
X69806686Y-48394423D01*
X69810329Y-48397607D01*
X69823259Y-48405812D01*
X69840976Y-48411521D01*
X69867430Y-48415162D01*
X69906568Y-48417167D01*
X69962338Y-48417964D01*
X69998006Y-48418045D01*
X70160445Y-48418045D01*
X70160445Y-48576089D01*
X69913839Y-48576089D01*
X69832420Y-48576231D01*
X69770590Y-48576814D01*
X69725363Y-48578068D01*
X69693752Y-48580227D01*
X69672769Y-48583523D01*
X69659427Y-48588189D01*
X69650739Y-48594457D01*
X69648550Y-48596733D01*
X69632386Y-48628280D01*
X69631203Y-48664168D01*
X69644464Y-48695285D01*
X69654957Y-48705271D01*
X69665871Y-48710769D01*
X69682783Y-48715022D01*
X69708367Y-48718180D01*
X69745299Y-48720392D01*
X69796254Y-48721806D01*
X69863906Y-48722572D01*
X69950931Y-48722838D01*
X69970606Y-48722845D01*
X70059089Y-48722787D01*
X70127773Y-48722467D01*
X70179436Y-48721667D01*
X70216855Y-48720167D01*
X70242810Y-48717749D01*
X70260078Y-48714194D01*
X70271438Y-48709282D01*
X70279668Y-48702795D01*
X70284183Y-48698138D01*
X70290979Y-48689889D01*
X70296288Y-48679669D01*
X70300294Y-48664800D01*
X70303179Y-48642602D01*
X70305126Y-48610393D01*
X70306319Y-48565496D01*
X70306939Y-48505228D01*
X70307171Y-48426911D01*
X70307200Y-48360994D01*
X70307129Y-48268628D01*
X70306792Y-48196117D01*
X70306002Y-48140737D01*
X70304574Y-48099765D01*
X70302321Y-48070478D01*
X70299057Y-48050153D01*
X70294596Y-48036066D01*
X70288752Y-48025495D01*
X70283803Y-48018811D01*
X70260406Y-47989067D01*
X69970226Y-47989067D01*
X69873657Y-47989260D01*
X69873657Y-47989260D01*
G37*
X69873657Y-47989260D02*
X69797299Y-47990174D01*
X69738783Y-47992311D01*
X69695745Y-47996175D01*
X69665817Y-48002267D01*
X69646632Y-48011090D01*
X69635824Y-48023146D01*
X69631027Y-48038939D01*
X69629873Y-48058970D01*
X69629867Y-48061335D01*
X69630869Y-48083992D01*
X69635604Y-48101503D01*
X69646667Y-48114574D01*
X69666652Y-48123913D01*
X69698154Y-48130227D01*
X69743768Y-48134222D01*
X69806087Y-48136606D01*
X69887707Y-48138086D01*
X69912723Y-48138414D01*
X70154800Y-48141467D01*
X70158186Y-48206378D01*
X70161571Y-48271289D01*
X69993424Y-48271289D01*
X69927734Y-48271531D01*
X69880828Y-48272556D01*
X69848917Y-48274811D01*
X69828209Y-48278742D01*
X69814916Y-48284798D01*
X69805245Y-48293424D01*
X69805183Y-48293493D01*
X69787644Y-48327112D01*
X69788278Y-48363448D01*
X69806686Y-48394423D01*
X69810329Y-48397607D01*
X69823259Y-48405812D01*
X69840976Y-48411521D01*
X69867430Y-48415162D01*
X69906568Y-48417167D01*
X69962338Y-48417964D01*
X69998006Y-48418045D01*
X70160445Y-48418045D01*
X70160445Y-48576089D01*
X69913839Y-48576089D01*
X69832420Y-48576231D01*
X69770590Y-48576814D01*
X69725363Y-48578068D01*
X69693752Y-48580227D01*
X69672769Y-48583523D01*
X69659427Y-48588189D01*
X69650739Y-48594457D01*
X69648550Y-48596733D01*
X69632386Y-48628280D01*
X69631203Y-48664168D01*
X69644464Y-48695285D01*
X69654957Y-48705271D01*
X69665871Y-48710769D01*
X69682783Y-48715022D01*
X69708367Y-48718180D01*
X69745299Y-48720392D01*
X69796254Y-48721806D01*
X69863906Y-48722572D01*
X69950931Y-48722838D01*
X69970606Y-48722845D01*
X70059089Y-48722787D01*
X70127773Y-48722467D01*
X70179436Y-48721667D01*
X70216855Y-48720167D01*
X70242810Y-48717749D01*
X70260078Y-48714194D01*
X70271438Y-48709282D01*
X70279668Y-48702795D01*
X70284183Y-48698138D01*
X70290979Y-48689889D01*
X70296288Y-48679669D01*
X70300294Y-48664800D01*
X70303179Y-48642602D01*
X70305126Y-48610393D01*
X70306319Y-48565496D01*
X70306939Y-48505228D01*
X70307171Y-48426911D01*
X70307200Y-48360994D01*
X70307129Y-48268628D01*
X70306792Y-48196117D01*
X70306002Y-48140737D01*
X70304574Y-48099765D01*
X70302321Y-48070478D01*
X70299057Y-48050153D01*
X70294596Y-48036066D01*
X70288752Y-48025495D01*
X70283803Y-48018811D01*
X70260406Y-47989067D01*
X69970226Y-47989067D01*
X69873657Y-47989260D01*
G36*
X69085691Y-47989275D02*
G01*
X68956712Y-47993636D01*
X68847009Y-48006861D01*
X68754774Y-48029741D01*
X68678198Y-48063070D01*
X68615473Y-48107638D01*
X68564788Y-48164236D01*
X68524337Y-48233658D01*
X68523541Y-48235351D01*
X68499399Y-48297483D01*
X68490797Y-48352509D01*
X68497769Y-48407887D01*
X68520346Y-48471073D01*
X68524628Y-48480689D01*
X68553828Y-48536966D01*
X68586644Y-48580451D01*
X68628998Y-48617417D01*
X68686810Y-48654135D01*
X68690169Y-48656052D01*
X68740496Y-48680227D01*
X68797379Y-48698282D01*
X68864473Y-48710839D01*
X68945435Y-48718522D01*
X69043918Y-48721953D01*
X69078714Y-48722251D01*
X69244406Y-48722845D01*
X69267803Y-48693100D01*
X69274743Y-48683319D01*
X69280158Y-48671897D01*
X69284235Y-48656095D01*
X69287163Y-48633175D01*
X69289133Y-48600396D01*
X69289775Y-48576089D01*
X69133156Y-48576089D01*
X69039274Y-48576089D01*
X68984336Y-48574483D01*
X68927940Y-48570255D01*
X68881655Y-48564292D01*
X68878861Y-48563790D01*
X68796652Y-48541736D01*
X68732886Y-48508600D01*
X68685548Y-48462847D01*
X68652618Y-48402939D01*
X68646892Y-48387061D01*
X68641279Y-48362333D01*
X68643709Y-48337902D01*
X68655533Y-48305400D01*
X68662660Y-48289434D01*
X68686000Y-48247006D01*
X68714120Y-48217240D01*
X68745060Y-48196511D01*
X68807034Y-48169537D01*
X68886349Y-48149998D01*
X68978747Y-48138746D01*
X69045667Y-48136270D01*
X69133156Y-48135822D01*
X69133156Y-48576089D01*
X69289775Y-48576089D01*
X69290332Y-48555021D01*
X69290950Y-48494311D01*
X69291175Y-48415526D01*
X69291200Y-48353920D01*
X69291200Y-48044485D01*
X69263491Y-48016776D01*
X69251194Y-48005544D01*
X69237897Y-47997853D01*
X69219328Y-47993040D01*
X69191214Y-47990446D01*
X69149283Y-47989410D01*
X69089263Y-47989270D01*
X69085691Y-47989275D01*
X69085691Y-47989275D01*
G37*
X69085691Y-47989275D02*
X68956712Y-47993636D01*
X68847009Y-48006861D01*
X68754774Y-48029741D01*
X68678198Y-48063070D01*
X68615473Y-48107638D01*
X68564788Y-48164236D01*
X68524337Y-48233658D01*
X68523541Y-48235351D01*
X68499399Y-48297483D01*
X68490797Y-48352509D01*
X68497769Y-48407887D01*
X68520346Y-48471073D01*
X68524628Y-48480689D01*
X68553828Y-48536966D01*
X68586644Y-48580451D01*
X68628998Y-48617417D01*
X68686810Y-48654135D01*
X68690169Y-48656052D01*
X68740496Y-48680227D01*
X68797379Y-48698282D01*
X68864473Y-48710839D01*
X68945435Y-48718522D01*
X69043918Y-48721953D01*
X69078714Y-48722251D01*
X69244406Y-48722845D01*
X69267803Y-48693100D01*
X69274743Y-48683319D01*
X69280158Y-48671897D01*
X69284235Y-48656095D01*
X69287163Y-48633175D01*
X69289133Y-48600396D01*
X69289775Y-48576089D01*
X69133156Y-48576089D01*
X69039274Y-48576089D01*
X68984336Y-48574483D01*
X68927940Y-48570255D01*
X68881655Y-48564292D01*
X68878861Y-48563790D01*
X68796652Y-48541736D01*
X68732886Y-48508600D01*
X68685548Y-48462847D01*
X68652618Y-48402939D01*
X68646892Y-48387061D01*
X68641279Y-48362333D01*
X68643709Y-48337902D01*
X68655533Y-48305400D01*
X68662660Y-48289434D01*
X68686000Y-48247006D01*
X68714120Y-48217240D01*
X68745060Y-48196511D01*
X68807034Y-48169537D01*
X68886349Y-48149998D01*
X68978747Y-48138746D01*
X69045667Y-48136270D01*
X69133156Y-48135822D01*
X69133156Y-48576089D01*
X69289775Y-48576089D01*
X69290332Y-48555021D01*
X69290950Y-48494311D01*
X69291175Y-48415526D01*
X69291200Y-48353920D01*
X69291200Y-48044485D01*
X69263491Y-48016776D01*
X69251194Y-48005544D01*
X69237897Y-47997853D01*
X69219328Y-47993040D01*
X69191214Y-47990446D01*
X69149283Y-47989410D01*
X69089263Y-47989270D01*
X69085691Y-47989275D01*
G36*
X66359335Y-47991034D02*
G01*
X66339745Y-47998035D01*
X66338990Y-47998377D01*
X66312387Y-48018678D01*
X66297730Y-48039561D01*
X66294862Y-48049352D01*
X66295004Y-48062361D01*
X66299039Y-48080895D01*
X66307854Y-48107257D01*
X66322331Y-48143752D01*
X66343355Y-48192687D01*
X66371812Y-48256365D01*
X66408585Y-48337093D01*
X66428825Y-48381216D01*
X66465375Y-48459985D01*
X66499685Y-48532423D01*
X66530448Y-48595880D01*
X66556352Y-48647708D01*
X66576090Y-48685259D01*
X66588350Y-48705884D01*
X66590776Y-48708733D01*
X66621817Y-48721302D01*
X66656879Y-48719619D01*
X66685000Y-48704332D01*
X66686146Y-48703089D01*
X66697332Y-48686154D01*
X66716096Y-48653170D01*
X66740125Y-48608380D01*
X66767103Y-48556032D01*
X66776799Y-48536742D01*
X66849986Y-48390150D01*
X66929760Y-48549393D01*
X66958233Y-48604415D01*
X66984650Y-48652132D01*
X67006852Y-48688893D01*
X67022681Y-48711044D01*
X67028046Y-48715741D01*
X67069743Y-48722102D01*
X67104151Y-48708733D01*
X67114272Y-48694446D01*
X67131786Y-48662692D01*
X67155265Y-48616597D01*
X67183280Y-48559285D01*
X67214401Y-48493880D01*
X67247201Y-48423507D01*
X67280250Y-48351291D01*
X67312119Y-48280355D01*
X67341381Y-48213825D01*
X67366605Y-48154826D01*
X67386364Y-48106481D01*
X67399228Y-48071915D01*
X67403769Y-48054253D01*
X67403723Y-48053613D01*
X67392674Y-48031388D01*
X67370590Y-48008753D01*
X67369290Y-48007768D01*
X67342147Y-47992425D01*
X67317042Y-47992574D01*
X67307632Y-47995466D01*
X67296166Y-48001718D01*
X67283990Y-48014014D01*
X67269643Y-48034908D01*
X67251664Y-48066949D01*
X67228593Y-48112688D01*
X67198970Y-48174677D01*
X67172255Y-48231898D01*
X67141520Y-48298226D01*
X67113979Y-48357874D01*
X67091062Y-48407725D01*
X67074202Y-48444664D01*
X67064827Y-48465573D01*
X67063460Y-48468845D01*
X67057311Y-48463497D01*
X67043178Y-48441109D01*
X67022943Y-48404946D01*
X66998485Y-48358277D01*
X66988752Y-48339022D01*
X66955783Y-48274004D01*
X66930357Y-48226654D01*
X66910388Y-48194219D01*
X66893790Y-48173946D01*
X66878476Y-48163082D01*
X66862360Y-48158875D01*
X66851857Y-48158400D01*
X66833330Y-48160042D01*
X66817096Y-48166831D01*
X66800965Y-48181566D01*
X66782749Y-48207044D01*
X66760261Y-48246061D01*
X66731311Y-48301414D01*
X66715338Y-48332903D01*
X66689430Y-48383087D01*
X66666833Y-48424704D01*
X66649542Y-48454242D01*
X66639550Y-48468189D01*
X66638191Y-48468770D01*
X66631739Y-48457793D01*
X66617292Y-48429290D01*
X66596297Y-48386244D01*
X66570203Y-48331638D01*
X66540454Y-48268454D01*
X66525820Y-48237071D01*
X66487750Y-48156078D01*
X66457095Y-48093756D01*
X66432263Y-48048071D01*
X66411663Y-48016989D01*
X66393702Y-47998478D01*
X66376790Y-47990504D01*
X66359335Y-47991034D01*
X66359335Y-47991034D01*
G37*
X66359335Y-47991034D02*
X66339745Y-47998035D01*
X66338990Y-47998377D01*
X66312387Y-48018678D01*
X66297730Y-48039561D01*
X66294862Y-48049352D01*
X66295004Y-48062361D01*
X66299039Y-48080895D01*
X66307854Y-48107257D01*
X66322331Y-48143752D01*
X66343355Y-48192687D01*
X66371812Y-48256365D01*
X66408585Y-48337093D01*
X66428825Y-48381216D01*
X66465375Y-48459985D01*
X66499685Y-48532423D01*
X66530448Y-48595880D01*
X66556352Y-48647708D01*
X66576090Y-48685259D01*
X66588350Y-48705884D01*
X66590776Y-48708733D01*
X66621817Y-48721302D01*
X66656879Y-48719619D01*
X66685000Y-48704332D01*
X66686146Y-48703089D01*
X66697332Y-48686154D01*
X66716096Y-48653170D01*
X66740125Y-48608380D01*
X66767103Y-48556032D01*
X66776799Y-48536742D01*
X66849986Y-48390150D01*
X66929760Y-48549393D01*
X66958233Y-48604415D01*
X66984650Y-48652132D01*
X67006852Y-48688893D01*
X67022681Y-48711044D01*
X67028046Y-48715741D01*
X67069743Y-48722102D01*
X67104151Y-48708733D01*
X67114272Y-48694446D01*
X67131786Y-48662692D01*
X67155265Y-48616597D01*
X67183280Y-48559285D01*
X67214401Y-48493880D01*
X67247201Y-48423507D01*
X67280250Y-48351291D01*
X67312119Y-48280355D01*
X67341381Y-48213825D01*
X67366605Y-48154826D01*
X67386364Y-48106481D01*
X67399228Y-48071915D01*
X67403769Y-48054253D01*
X67403723Y-48053613D01*
X67392674Y-48031388D01*
X67370590Y-48008753D01*
X67369290Y-48007768D01*
X67342147Y-47992425D01*
X67317042Y-47992574D01*
X67307632Y-47995466D01*
X67296166Y-48001718D01*
X67283990Y-48014014D01*
X67269643Y-48034908D01*
X67251664Y-48066949D01*
X67228593Y-48112688D01*
X67198970Y-48174677D01*
X67172255Y-48231898D01*
X67141520Y-48298226D01*
X67113979Y-48357874D01*
X67091062Y-48407725D01*
X67074202Y-48444664D01*
X67064827Y-48465573D01*
X67063460Y-48468845D01*
X67057311Y-48463497D01*
X67043178Y-48441109D01*
X67022943Y-48404946D01*
X66998485Y-48358277D01*
X66988752Y-48339022D01*
X66955783Y-48274004D01*
X66930357Y-48226654D01*
X66910388Y-48194219D01*
X66893790Y-48173946D01*
X66878476Y-48163082D01*
X66862360Y-48158875D01*
X66851857Y-48158400D01*
X66833330Y-48160042D01*
X66817096Y-48166831D01*
X66800965Y-48181566D01*
X66782749Y-48207044D01*
X66760261Y-48246061D01*
X66731311Y-48301414D01*
X66715338Y-48332903D01*
X66689430Y-48383087D01*
X66666833Y-48424704D01*
X66649542Y-48454242D01*
X66639550Y-48468189D01*
X66638191Y-48468770D01*
X66631739Y-48457793D01*
X66617292Y-48429290D01*
X66596297Y-48386244D01*
X66570203Y-48331638D01*
X66540454Y-48268454D01*
X66525820Y-48237071D01*
X66487750Y-48156078D01*
X66457095Y-48093756D01*
X66432263Y-48048071D01*
X66411663Y-48016989D01*
X66393702Y-47998478D01*
X66376790Y-47990504D01*
X66359335Y-47991034D01*
G36*
X65915386Y-47995877D02*
G01*
X65891673Y-48010647D01*
X65865022Y-48032227D01*
X65865022Y-48353773D01*
X65865107Y-48447830D01*
X65865471Y-48521932D01*
X65866276Y-48578704D01*
X65867687Y-48620768D01*
X65869867Y-48650748D01*
X65872979Y-48671267D01*
X65877186Y-48684949D01*
X65882652Y-48694416D01*
X65886528Y-48699082D01*
X65917966Y-48719575D01*
X65953767Y-48718739D01*
X65985127Y-48701264D01*
X66011778Y-48679684D01*
X66011778Y-48032227D01*
X65985127Y-48010647D01*
X65959406Y-47994949D01*
X65938400Y-47989067D01*
X65915386Y-47995877D01*
X65915386Y-47995877D01*
G37*
X65915386Y-47995877D02*
X65891673Y-48010647D01*
X65865022Y-48032227D01*
X65865022Y-48353773D01*
X65865107Y-48447830D01*
X65865471Y-48521932D01*
X65866276Y-48578704D01*
X65867687Y-48620768D01*
X65869867Y-48650748D01*
X65872979Y-48671267D01*
X65877186Y-48684949D01*
X65882652Y-48694416D01*
X65886528Y-48699082D01*
X65917966Y-48719575D01*
X65953767Y-48718739D01*
X65985127Y-48701264D01*
X66011778Y-48679684D01*
X66011778Y-48032227D01*
X65985127Y-48010647D01*
X65959406Y-47994949D01*
X65938400Y-47989067D01*
X65915386Y-47995877D01*
G36*
X65140935Y-47989163D02*
G01*
X65062228Y-47989542D01*
X65001137Y-47990333D01*
X64955183Y-47991670D01*
X64921886Y-47993683D01*
X64898764Y-47996506D01*
X64883338Y-48000269D01*
X64873129Y-48005105D01*
X64868187Y-48008822D01*
X64842543Y-48041358D01*
X64839441Y-48075138D01*
X64855289Y-48105826D01*
X64865652Y-48118089D01*
X64876804Y-48126450D01*
X64892965Y-48131657D01*
X64918358Y-48134457D01*
X64957202Y-48135596D01*
X65013720Y-48135821D01*
X65024820Y-48135822D01*
X65170756Y-48135822D01*
X65170756Y-48406756D01*
X65170852Y-48492154D01*
X65171289Y-48557864D01*
X65172288Y-48606774D01*
X65174072Y-48641773D01*
X65176863Y-48665749D01*
X65180883Y-48681593D01*
X65186355Y-48692191D01*
X65193334Y-48700267D01*
X65226266Y-48720112D01*
X65260646Y-48718548D01*
X65291824Y-48695906D01*
X65294114Y-48693100D01*
X65301571Y-48682492D01*
X65307253Y-48670081D01*
X65311399Y-48652850D01*
X65314250Y-48627784D01*
X65316046Y-48591867D01*
X65317028Y-48542083D01*
X65317436Y-48475417D01*
X65317511Y-48399589D01*
X65317511Y-48135822D01*
X65456873Y-48135822D01*
X65516678Y-48135418D01*
X65558082Y-48133840D01*
X65585252Y-48130547D01*
X65602354Y-48124992D01*
X65613557Y-48116631D01*
X65614917Y-48115178D01*
X65631275Y-48081939D01*
X65629828Y-48044362D01*
X65611022Y-48011645D01*
X65603750Y-48005298D01*
X65594373Y-48000266D01*
X65580391Y-47996396D01*
X65559304Y-47993537D01*
X65528611Y-47991535D01*
X65485811Y-47990239D01*
X65428405Y-47989498D01*
X65353890Y-47989158D01*
X65259767Y-47989068D01*
X65239740Y-47989067D01*
X65140935Y-47989163D01*
X65140935Y-47989163D01*
G37*
X65140935Y-47989163D02*
X65062228Y-47989542D01*
X65001137Y-47990333D01*
X64955183Y-47991670D01*
X64921886Y-47993683D01*
X64898764Y-47996506D01*
X64883338Y-48000269D01*
X64873129Y-48005105D01*
X64868187Y-48008822D01*
X64842543Y-48041358D01*
X64839441Y-48075138D01*
X64855289Y-48105826D01*
X64865652Y-48118089D01*
X64876804Y-48126450D01*
X64892965Y-48131657D01*
X64918358Y-48134457D01*
X64957202Y-48135596D01*
X65013720Y-48135821D01*
X65024820Y-48135822D01*
X65170756Y-48135822D01*
X65170756Y-48406756D01*
X65170852Y-48492154D01*
X65171289Y-48557864D01*
X65172288Y-48606774D01*
X65174072Y-48641773D01*
X65176863Y-48665749D01*
X65180883Y-48681593D01*
X65186355Y-48692191D01*
X65193334Y-48700267D01*
X65226266Y-48720112D01*
X65260646Y-48718548D01*
X65291824Y-48695906D01*
X65294114Y-48693100D01*
X65301571Y-48682492D01*
X65307253Y-48670081D01*
X65311399Y-48652850D01*
X65314250Y-48627784D01*
X65316046Y-48591867D01*
X65317028Y-48542083D01*
X65317436Y-48475417D01*
X65317511Y-48399589D01*
X65317511Y-48135822D01*
X65456873Y-48135822D01*
X65516678Y-48135418D01*
X65558082Y-48133840D01*
X65585252Y-48130547D01*
X65602354Y-48124992D01*
X65613557Y-48116631D01*
X65614917Y-48115178D01*
X65631275Y-48081939D01*
X65629828Y-48044362D01*
X65611022Y-48011645D01*
X65603750Y-48005298D01*
X65594373Y-48000266D01*
X65580391Y-47996396D01*
X65559304Y-47993537D01*
X65528611Y-47991535D01*
X65485811Y-47990239D01*
X65428405Y-47989498D01*
X65353890Y-47989158D01*
X65259767Y-47989068D01*
X65239740Y-47989067D01*
X65140935Y-47989163D01*
G36*
X63875177Y-47994533D02*
G01*
X63843798Y-48016776D01*
X63816089Y-48044485D01*
X63816089Y-48353920D01*
X63816162Y-48445799D01*
X63816505Y-48517840D01*
X63817308Y-48572780D01*
X63818759Y-48613360D01*
X63821048Y-48642317D01*
X63824364Y-48662391D01*
X63828895Y-48676321D01*
X63834831Y-48686845D01*
X63839486Y-48693100D01*
X63870217Y-48717673D01*
X63905504Y-48720341D01*
X63937755Y-48705271D01*
X63948412Y-48696374D01*
X63955536Y-48684557D01*
X63959833Y-48665526D01*
X63962009Y-48634992D01*
X63962772Y-48588662D01*
X63962845Y-48552871D01*
X63962845Y-48418045D01*
X64459556Y-48418045D01*
X64459556Y-48540700D01*
X64460069Y-48596787D01*
X64462124Y-48635333D01*
X64466492Y-48661361D01*
X64473944Y-48679897D01*
X64482953Y-48693100D01*
X64513856Y-48717604D01*
X64548804Y-48720506D01*
X64582262Y-48703089D01*
X64591396Y-48693959D01*
X64597848Y-48681855D01*
X64602103Y-48663001D01*
X64604648Y-48633620D01*
X64605971Y-48589937D01*
X64606557Y-48528175D01*
X64606625Y-48514000D01*
X64607109Y-48397631D01*
X64607359Y-48301727D01*
X64607277Y-48224177D01*
X64606769Y-48162869D01*
X64605738Y-48115690D01*
X64604087Y-48080530D01*
X64601721Y-48055276D01*
X64598543Y-48037817D01*
X64594456Y-48026041D01*
X64589366Y-48017835D01*
X64583734Y-48011645D01*
X64551872Y-47991844D01*
X64518643Y-47994533D01*
X64487265Y-48016776D01*
X64474567Y-48031126D01*
X64466474Y-48046978D01*
X64461958Y-48069554D01*
X64459994Y-48104078D01*
X64459556Y-48155776D01*
X64459556Y-48271289D01*
X63962845Y-48271289D01*
X63962845Y-48152756D01*
X63962338Y-48098148D01*
X63960302Y-48061275D01*
X63955965Y-48037307D01*
X63948553Y-48021415D01*
X63940267Y-48011645D01*
X63908406Y-47991844D01*
X63875177Y-47994533D01*
X63875177Y-47994533D01*
G37*
X63875177Y-47994533D02*
X63843798Y-48016776D01*
X63816089Y-48044485D01*
X63816089Y-48353920D01*
X63816162Y-48445799D01*
X63816505Y-48517840D01*
X63817308Y-48572780D01*
X63818759Y-48613360D01*
X63821048Y-48642317D01*
X63824364Y-48662391D01*
X63828895Y-48676321D01*
X63834831Y-48686845D01*
X63839486Y-48693100D01*
X63870217Y-48717673D01*
X63905504Y-48720341D01*
X63937755Y-48705271D01*
X63948412Y-48696374D01*
X63955536Y-48684557D01*
X63959833Y-48665526D01*
X63962009Y-48634992D01*
X63962772Y-48588662D01*
X63962845Y-48552871D01*
X63962845Y-48418045D01*
X64459556Y-48418045D01*
X64459556Y-48540700D01*
X64460069Y-48596787D01*
X64462124Y-48635333D01*
X64466492Y-48661361D01*
X64473944Y-48679897D01*
X64482953Y-48693100D01*
X64513856Y-48717604D01*
X64548804Y-48720506D01*
X64582262Y-48703089D01*
X64591396Y-48693959D01*
X64597848Y-48681855D01*
X64602103Y-48663001D01*
X64604648Y-48633620D01*
X64605971Y-48589937D01*
X64606557Y-48528175D01*
X64606625Y-48514000D01*
X64607109Y-48397631D01*
X64607359Y-48301727D01*
X64607277Y-48224177D01*
X64606769Y-48162869D01*
X64605738Y-48115690D01*
X64604087Y-48080530D01*
X64601721Y-48055276D01*
X64598543Y-48037817D01*
X64594456Y-48026041D01*
X64589366Y-48017835D01*
X64583734Y-48011645D01*
X64551872Y-47991844D01*
X64518643Y-47994533D01*
X64487265Y-48016776D01*
X64474567Y-48031126D01*
X64466474Y-48046978D01*
X64461958Y-48069554D01*
X64459994Y-48104078D01*
X64459556Y-48155776D01*
X64459556Y-48271289D01*
X63962845Y-48271289D01*
X63962845Y-48152756D01*
X63962338Y-48098148D01*
X63960302Y-48061275D01*
X63955965Y-48037307D01*
X63948553Y-48021415D01*
X63940267Y-48011645D01*
X63908406Y-47991844D01*
X63875177Y-47994533D01*
D11*
X94950000Y-46600000D03*
X44900000Y-46600000D03*
D12*
X54000000Y-33160000D03*
X54000000Y-30620000D03*
X54000000Y-28080000D03*
X54000000Y-25540000D03*
D13*
X54000000Y-23000000D03*
D12*
X24500000Y-30570000D03*
X24500000Y-28030000D03*
X24500000Y-25490000D03*
D13*
X24500000Y-22950000D03*
D12*
X110940000Y-23200000D03*
D13*
X108400000Y-23200000D03*
D12*
X91840000Y-23200000D03*
X94380000Y-23200000D03*
X96920000Y-23200000D03*
X99460000Y-23200000D03*
D13*
X102000000Y-23200000D03*
D14*
X54400000Y-37500000D03*
D15*
X54400000Y-40000000D03*
D14*
X44900000Y-37500000D03*
D15*
X44900000Y-40000000D03*
D16*
X90424000Y-26924000D03*
X61676000Y-26924000D03*
X83300000Y-48050000D03*
X87376000Y-22860000D03*
X42418000Y-36830000D03*
X42418000Y-34290000D03*
X47244000Y-36830000D03*
X47244000Y-34290000D03*
X56642000Y-36830000D03*
X58928000Y-38608000D03*
X52324000Y-36830000D03*
X50292000Y-38862000D03*
X60198000Y-33528000D03*
X62738000Y-34544000D03*
X78232000Y-43434000D03*
X78232000Y-39116000D03*
X60960000Y-44196000D03*
X60960000Y-41656000D03*
X66294000Y-38862000D03*
X64770000Y-41402000D03*
X90300000Y-29300000D03*
X85100000Y-29300000D03*
X77300000Y-29300000D03*
X73400000Y-29300000D03*
X65024000Y-29300000D03*
X60100000Y-29300000D03*
X87500000Y-29300000D03*
X73406000Y-32004000D03*
X28956000Y-36830000D03*
X27178000Y-34798000D03*
X33274000Y-36830000D03*
X33274000Y-34290000D03*
X33274000Y-40132000D03*
X93808000Y-42590000D03*
X93726000Y-35306000D03*
X108204000Y-44958000D03*
X104902000Y-44704000D03*
X33274000Y-31750000D03*
X33274000Y-26670000D03*
X42418000Y-31750000D03*
X42418000Y-26670000D03*
X47244000Y-31750000D03*
X47498000Y-26670000D03*
X86360000Y-35814000D03*
X103600000Y-39600000D03*
X86360000Y-31750000D03*
X109474000Y-39624000D03*
X111506000Y-39624000D03*
X89154000Y-35814000D03*
X89154000Y-32927000D03*
X105600000Y-39650000D03*
X107500000Y-39650000D03*
X44950000Y-42800000D03*
X106426000Y-44958000D03*
X99600000Y-39600000D03*
X26750000Y-43594000D03*
X28782000Y-39530000D03*
D17*
X57924000Y-26924000D02*
X54000000Y-23000000D01*
X90424000Y-26924000D02*
X61676000Y-26924000D01*
X24550000Y-23000000D02*
X24500000Y-22950000D01*
X54000000Y-23000000D02*
X24550000Y-23000000D01*
X61676000Y-26924000D02*
X57924000Y-26924000D01*
X95410000Y-46140000D02*
X94950000Y-46600000D01*
X83300000Y-48000000D02*
X83300000Y-48050000D01*
X84700000Y-46600000D02*
X83300000Y-48000000D01*
X94950000Y-46600000D02*
X84700000Y-46600000D01*
X87716000Y-23200000D02*
X87376000Y-22860000D01*
X91840000Y-23200000D02*
X87716000Y-23200000D01*
X44900000Y-37500000D02*
X54400000Y-37500000D01*
X53950000Y-25490000D02*
X54000000Y-25540000D01*
X24500000Y-25490000D02*
X53950000Y-25490000D01*
X95750000Y-31750000D02*
X86360000Y-31750000D01*
X103600000Y-39600000D02*
X95750000Y-31750000D01*
X86360000Y-35814000D02*
X86360000Y-31750000D01*
X109474000Y-35754000D02*
X96920000Y-23200000D01*
X109474000Y-39624000D02*
X109474000Y-35754000D01*
X111506000Y-35246000D02*
X99460000Y-23200000D01*
X111506000Y-39624000D02*
X111506000Y-35246000D01*
X89154000Y-35814000D02*
X89154000Y-32927000D01*
X53950000Y-30570000D02*
X54000000Y-30620000D01*
X24500000Y-30570000D02*
X53950000Y-30570000D01*
X96570000Y-30620000D02*
X54000000Y-30620000D01*
X105600000Y-39650000D02*
X96570000Y-30620000D01*
X53950000Y-28030000D02*
X54000000Y-28080000D01*
X24500000Y-28030000D02*
X53950000Y-28030000D01*
X95930000Y-28080000D02*
X54000000Y-28080000D01*
X107500000Y-39650000D02*
X95930000Y-28080000D01*
X45000000Y-42850000D02*
X44950000Y-42800000D01*
X45000000Y-46300000D02*
X45000000Y-42850000D01*
X101068000Y-39600000D02*
X106426000Y-44958000D01*
X99600000Y-39600000D02*
X101068000Y-39600000D01*
X26750000Y-41562000D02*
X26750000Y-43594000D01*
X28782000Y-39530000D02*
X26750000Y-41562000D01*
D18*
G36*
X112493000Y-39302243D02*
G01*
X112423205Y-39133744D01*
X112309937Y-38964226D01*
X112266000Y-38920289D01*
X112266000Y-35283333D01*
X112269677Y-35246000D01*
X112255003Y-35097014D01*
X112211546Y-34953753D01*
X112140974Y-34821724D01*
X112069799Y-34734997D01*
X112046001Y-34705999D01*
X112017003Y-34682201D01*
X102022873Y-24688072D01*
X102850000Y-24688072D01*
X102974482Y-24675812D01*
X103094180Y-24639502D01*
X103204494Y-24580537D01*
X103301185Y-24501185D01*
X103380537Y-24404494D01*
X103439502Y-24294180D01*
X103475812Y-24174482D01*
X103488072Y-24050000D01*
X103488072Y-22350000D01*
X106911928Y-22350000D01*
X106911928Y-24050000D01*
X106924188Y-24174482D01*
X106960498Y-24294180D01*
X107019463Y-24404494D01*
X107098815Y-24501185D01*
X107195506Y-24580537D01*
X107305820Y-24639502D01*
X107425518Y-24675812D01*
X107550000Y-24688072D01*
X109250000Y-24688072D01*
X109374482Y-24675812D01*
X109494180Y-24639502D01*
X109604494Y-24580537D01*
X109701185Y-24501185D01*
X109780537Y-24404494D01*
X109839502Y-24294180D01*
X109860393Y-24225313D01*
X109884866Y-24255134D01*
X110110986Y-24440706D01*
X110368966Y-24578599D01*
X110648889Y-24663513D01*
X110867050Y-24685000D01*
X111012950Y-24685000D01*
X111231111Y-24663513D01*
X111511034Y-24578599D01*
X111769014Y-24440706D01*
X111995134Y-24255134D01*
X112180706Y-24029014D01*
X112318599Y-23771034D01*
X112403513Y-23491111D01*
X112432185Y-23200000D01*
X112403513Y-22908889D01*
X112318599Y-22628966D01*
X112180706Y-22370986D01*
X111995134Y-22144866D01*
X111769014Y-21959294D01*
X111511034Y-21821401D01*
X111231111Y-21736487D01*
X111012950Y-21715000D01*
X110867050Y-21715000D01*
X110648889Y-21736487D01*
X110368966Y-21821401D01*
X110110986Y-21959294D01*
X109884866Y-22144866D01*
X109860393Y-22174687D01*
X109839502Y-22105820D01*
X109780537Y-21995506D01*
X109701185Y-21898815D01*
X109604494Y-21819463D01*
X109494180Y-21760498D01*
X109374482Y-21724188D01*
X109250000Y-21711928D01*
X107550000Y-21711928D01*
X107425518Y-21724188D01*
X107305820Y-21760498D01*
X107195506Y-21819463D01*
X107098815Y-21898815D01*
X107019463Y-21995506D01*
X106960498Y-22105820D01*
X106924188Y-22225518D01*
X106911928Y-22350000D01*
X103488072Y-22350000D01*
X103475812Y-22225518D01*
X103439502Y-22105820D01*
X103380537Y-21995506D01*
X103301185Y-21898815D01*
X103204494Y-21819463D01*
X103094180Y-21760498D01*
X102974482Y-21724188D01*
X102850000Y-21711928D01*
X101150000Y-21711928D01*
X101025518Y-21724188D01*
X100905820Y-21760498D01*
X100795506Y-21819463D01*
X100698815Y-21898815D01*
X100619463Y-21995506D01*
X100560498Y-22105820D01*
X100539607Y-22174687D01*
X100515134Y-22144866D01*
X100289014Y-21959294D01*
X100031034Y-21821401D01*
X99751111Y-21736487D01*
X99532950Y-21715000D01*
X99387050Y-21715000D01*
X99168889Y-21736487D01*
X98888966Y-21821401D01*
X98630986Y-21959294D01*
X98404866Y-22144866D01*
X98219294Y-22370986D01*
X98190000Y-22425791D01*
X98160706Y-22370986D01*
X97975134Y-22144866D01*
X97749014Y-21959294D01*
X97491034Y-21821401D01*
X97211111Y-21736487D01*
X96992950Y-21715000D01*
X96847050Y-21715000D01*
X96628889Y-21736487D01*
X96348966Y-21821401D01*
X96090986Y-21959294D01*
X95864866Y-22144866D01*
X95679294Y-22370986D01*
X95650000Y-22425791D01*
X95620706Y-22370986D01*
X95435134Y-22144866D01*
X95209014Y-21959294D01*
X94951034Y-21821401D01*
X94671111Y-21736487D01*
X94452950Y-21715000D01*
X94307050Y-21715000D01*
X94088889Y-21736487D01*
X93808966Y-21821401D01*
X93550986Y-21959294D01*
X93324866Y-22144866D01*
X93139294Y-22370986D01*
X93104799Y-22435523D01*
X93035178Y-22318645D01*
X92840269Y-22102412D01*
X92606920Y-21928359D01*
X92344099Y-21803175D01*
X92196890Y-21758524D01*
X91967000Y-21879845D01*
X91967000Y-23073000D01*
X91987000Y-23073000D01*
X91987000Y-23327000D01*
X91967000Y-23327000D01*
X91967000Y-24520155D01*
X92196890Y-24641476D01*
X92344099Y-24596825D01*
X92606920Y-24471641D01*
X92840269Y-24297588D01*
X93035178Y-24081355D01*
X93104799Y-23964477D01*
X93139294Y-24029014D01*
X93324866Y-24255134D01*
X93550986Y-24440706D01*
X93808966Y-24578599D01*
X94088889Y-24663513D01*
X94307050Y-24685000D01*
X94452950Y-24685000D01*
X94671111Y-24663513D01*
X94951034Y-24578599D01*
X95209014Y-24440706D01*
X95435134Y-24255134D01*
X95620706Y-24029014D01*
X95650000Y-23974209D01*
X95679294Y-24029014D01*
X95864866Y-24255134D01*
X96090986Y-24440706D01*
X96348966Y-24578599D01*
X96628889Y-24663513D01*
X96847050Y-24685000D01*
X96992950Y-24685000D01*
X97211111Y-24663513D01*
X97285996Y-24640797D01*
X108714001Y-36068803D01*
X108714000Y-38920289D01*
X108670063Y-38964226D01*
X108556795Y-39133744D01*
X108481615Y-39315243D01*
X108417205Y-39159744D01*
X108303937Y-38990226D01*
X108159774Y-38846063D01*
X107990256Y-38732795D01*
X107801898Y-38654774D01*
X107601939Y-38615000D01*
X107539802Y-38615000D01*
X96493804Y-27569003D01*
X96470001Y-27539999D01*
X96354276Y-27445026D01*
X96222247Y-27374454D01*
X96078986Y-27330997D01*
X95967333Y-27320000D01*
X95967322Y-27320000D01*
X95930000Y-27316324D01*
X95892678Y-27320000D01*
X91380247Y-27320000D01*
X91419226Y-27225898D01*
X91459000Y-27025939D01*
X91459000Y-26822061D01*
X91419226Y-26622102D01*
X91341205Y-26433744D01*
X91227937Y-26264226D01*
X91083774Y-26120063D01*
X90914256Y-26006795D01*
X90725898Y-25928774D01*
X90525939Y-25889000D01*
X90322061Y-25889000D01*
X90122102Y-25928774D01*
X89933744Y-26006795D01*
X89764226Y-26120063D01*
X89720289Y-26164000D01*
X62379711Y-26164000D01*
X62335774Y-26120063D01*
X62166256Y-26006795D01*
X61977898Y-25928774D01*
X61777939Y-25889000D01*
X61574061Y-25889000D01*
X61374102Y-25928774D01*
X61185744Y-26006795D01*
X61016226Y-26120063D01*
X60972289Y-26164000D01*
X58238802Y-26164000D01*
X55631693Y-23556891D01*
X90398519Y-23556891D01*
X90495843Y-23831252D01*
X90644822Y-24081355D01*
X90839731Y-24297588D01*
X91073080Y-24471641D01*
X91335901Y-24596825D01*
X91483110Y-24641476D01*
X91713000Y-24520155D01*
X91713000Y-23327000D01*
X90519186Y-23327000D01*
X90398519Y-23556891D01*
X55631693Y-23556891D01*
X55488072Y-23413271D01*
X55488072Y-22843109D01*
X90398519Y-22843109D01*
X90519186Y-23073000D01*
X91713000Y-23073000D01*
X91713000Y-21879845D01*
X91483110Y-21758524D01*
X91335901Y-21803175D01*
X91073080Y-21928359D01*
X90839731Y-22102412D01*
X90644822Y-22318645D01*
X90495843Y-22568748D01*
X90398519Y-22843109D01*
X55488072Y-22843109D01*
X55488072Y-22150000D01*
X55475812Y-22025518D01*
X55439502Y-21905820D01*
X55380537Y-21795506D01*
X55301185Y-21698815D01*
X55204494Y-21619463D01*
X55094180Y-21560498D01*
X54974482Y-21524188D01*
X54850000Y-21511928D01*
X53150000Y-21511928D01*
X53025518Y-21524188D01*
X52905820Y-21560498D01*
X52795506Y-21619463D01*
X52698815Y-21698815D01*
X52619463Y-21795506D01*
X52560498Y-21905820D01*
X52524188Y-22025518D01*
X52511928Y-22150000D01*
X52511928Y-22240000D01*
X25988072Y-22240000D01*
X25988072Y-22100000D01*
X25975812Y-21975518D01*
X25939502Y-21855820D01*
X25880537Y-21745506D01*
X25801185Y-21648815D01*
X25704494Y-21569463D01*
X25594180Y-21510498D01*
X25474482Y-21474188D01*
X25350000Y-21461928D01*
X23650000Y-21461928D01*
X23525518Y-21474188D01*
X23405820Y-21510498D01*
X23295506Y-21569463D01*
X23198815Y-21648815D01*
X23119463Y-21745506D01*
X23060498Y-21855820D01*
X23024188Y-21975518D01*
X23011928Y-22100000D01*
X23011928Y-23800000D01*
X23024188Y-23924482D01*
X23060498Y-24044180D01*
X23119463Y-24154494D01*
X23198815Y-24251185D01*
X23295506Y-24330537D01*
X23405820Y-24389502D01*
X23486466Y-24413966D01*
X23402412Y-24489731D01*
X23228359Y-24723080D01*
X23103175Y-24985901D01*
X23058524Y-25133110D01*
X23179845Y-25363000D01*
X24373000Y-25363000D01*
X24373000Y-25343000D01*
X24627000Y-25343000D01*
X24627000Y-25363000D01*
X25820155Y-25363000D01*
X25941476Y-25133110D01*
X25896825Y-24985901D01*
X25771641Y-24723080D01*
X25597588Y-24489731D01*
X25513534Y-24413966D01*
X25594180Y-24389502D01*
X25704494Y-24330537D01*
X25801185Y-24251185D01*
X25880537Y-24154494D01*
X25939502Y-24044180D01*
X25975812Y-23924482D01*
X25988072Y-23800000D01*
X25988072Y-23760000D01*
X52511928Y-23760000D01*
X52511928Y-23850000D01*
X52524188Y-23974482D01*
X52560498Y-24094180D01*
X52619463Y-24204494D01*
X52698815Y-24301185D01*
X52795506Y-24380537D01*
X52905820Y-24439502D01*
X52986466Y-24463966D01*
X52902412Y-24539731D01*
X52728359Y-24773080D01*
X52603175Y-25035901D01*
X52558524Y-25183110D01*
X52679845Y-25413000D01*
X53873000Y-25413000D01*
X53873000Y-25393000D01*
X54127000Y-25393000D01*
X54127000Y-25413000D01*
X54147000Y-25413000D01*
X54147000Y-25667000D01*
X54127000Y-25667000D01*
X54127000Y-25687000D01*
X53873000Y-25687000D01*
X53873000Y-25667000D01*
X52679845Y-25667000D01*
X52558524Y-25896890D01*
X52603175Y-26044099D01*
X52728359Y-26306920D01*
X52902412Y-26540269D01*
X53118645Y-26735178D01*
X53235523Y-26804799D01*
X53170986Y-26839294D01*
X52944866Y-27024866D01*
X52759294Y-27250986D01*
X52749131Y-27270000D01*
X25777595Y-27270000D01*
X25740706Y-27200986D01*
X25555134Y-26974866D01*
X25329014Y-26789294D01*
X25264477Y-26754799D01*
X25381355Y-26685178D01*
X25597588Y-26490269D01*
X25771641Y-26256920D01*
X25896825Y-25994099D01*
X25941476Y-25846890D01*
X25820155Y-25617000D01*
X24627000Y-25617000D01*
X24627000Y-25637000D01*
X24373000Y-25637000D01*
X24373000Y-25617000D01*
X23179845Y-25617000D01*
X23058524Y-25846890D01*
X23103175Y-25994099D01*
X23228359Y-26256920D01*
X23402412Y-26490269D01*
X23618645Y-26685178D01*
X23735523Y-26754799D01*
X23670986Y-26789294D01*
X23444866Y-26974866D01*
X23259294Y-27200986D01*
X23121401Y-27458966D01*
X23036487Y-27738889D01*
X23007815Y-28030000D01*
X23036487Y-28321111D01*
X23121401Y-28601034D01*
X23259294Y-28859014D01*
X23444866Y-29085134D01*
X23670986Y-29270706D01*
X23725791Y-29300000D01*
X23670986Y-29329294D01*
X23444866Y-29514866D01*
X23259294Y-29740986D01*
X23121401Y-29998966D01*
X23036487Y-30278889D01*
X23007815Y-30570000D01*
X23036487Y-30861111D01*
X23121401Y-31141034D01*
X23259294Y-31399014D01*
X23444866Y-31625134D01*
X23670986Y-31810706D01*
X23928966Y-31948599D01*
X24208889Y-32033513D01*
X24427050Y-32055000D01*
X24572950Y-32055000D01*
X24791111Y-32033513D01*
X25071034Y-31948599D01*
X25329014Y-31810706D01*
X25555134Y-31625134D01*
X25740706Y-31399014D01*
X25777595Y-31330000D01*
X52695680Y-31330000D01*
X52759294Y-31449014D01*
X52944866Y-31675134D01*
X53170986Y-31860706D01*
X53225791Y-31890000D01*
X53170986Y-31919294D01*
X52944866Y-32104866D01*
X52759294Y-32330986D01*
X52621401Y-32588966D01*
X52536487Y-32868889D01*
X52507815Y-33160000D01*
X52536487Y-33451111D01*
X52621401Y-33731034D01*
X52759294Y-33989014D01*
X52944866Y-34215134D01*
X53170986Y-34400706D01*
X53428966Y-34538599D01*
X53708889Y-34623513D01*
X53927050Y-34645000D01*
X54072950Y-34645000D01*
X54291111Y-34623513D01*
X54571034Y-34538599D01*
X54829014Y-34400706D01*
X55055134Y-34215134D01*
X55240706Y-33989014D01*
X55378599Y-33731034D01*
X55463513Y-33451111D01*
X55492185Y-33160000D01*
X55463513Y-32868889D01*
X55378599Y-32588966D01*
X55240706Y-32330986D01*
X55055134Y-32104866D01*
X54829014Y-31919294D01*
X54774209Y-31890000D01*
X54829014Y-31860706D01*
X55055134Y-31675134D01*
X55240706Y-31449014D01*
X55277595Y-31380000D01*
X85392983Y-31380000D01*
X85364774Y-31448102D01*
X85325000Y-31648061D01*
X85325000Y-31851939D01*
X85364774Y-32051898D01*
X85442795Y-32240256D01*
X85556063Y-32409774D01*
X85600001Y-32453712D01*
X85600000Y-35110289D01*
X85556063Y-35154226D01*
X85442795Y-35323744D01*
X85364774Y-35512102D01*
X85325000Y-35712061D01*
X85325000Y-35915939D01*
X85364774Y-36115898D01*
X85442795Y-36304256D01*
X85556063Y-36473774D01*
X85700226Y-36617937D01*
X85869744Y-36731205D01*
X86058102Y-36809226D01*
X86258061Y-36849000D01*
X86461939Y-36849000D01*
X86661898Y-36809226D01*
X86850256Y-36731205D01*
X87019774Y-36617937D01*
X87163937Y-36473774D01*
X87277205Y-36304256D01*
X87355226Y-36115898D01*
X87395000Y-35915939D01*
X87395000Y-35712061D01*
X87355226Y-35512102D01*
X87277205Y-35323744D01*
X87163937Y-35154226D01*
X87120000Y-35110289D01*
X87120000Y-32510000D01*
X88206451Y-32510000D01*
X88158774Y-32625102D01*
X88119000Y-32825061D01*
X88119000Y-33028939D01*
X88158774Y-33228898D01*
X88236795Y-33417256D01*
X88350063Y-33586774D01*
X88394001Y-33630712D01*
X88394000Y-35110289D01*
X88350063Y-35154226D01*
X88236795Y-35323744D01*
X88158774Y-35512102D01*
X88119000Y-35712061D01*
X88119000Y-35915939D01*
X88158774Y-36115898D01*
X88236795Y-36304256D01*
X88350063Y-36473774D01*
X88494226Y-36617937D01*
X88663744Y-36731205D01*
X88852102Y-36809226D01*
X89052061Y-36849000D01*
X89255939Y-36849000D01*
X89455898Y-36809226D01*
X89644256Y-36731205D01*
X89813774Y-36617937D01*
X89957937Y-36473774D01*
X90071205Y-36304256D01*
X90149226Y-36115898D01*
X90189000Y-35915939D01*
X90189000Y-35712061D01*
X90149226Y-35512102D01*
X90071205Y-35323744D01*
X89957937Y-35154226D01*
X89914000Y-35110289D01*
X89914000Y-33630711D01*
X89957937Y-33586774D01*
X90071205Y-33417256D01*
X90149226Y-33228898D01*
X90189000Y-33028939D01*
X90189000Y-32825061D01*
X90149226Y-32625102D01*
X90101549Y-32510000D01*
X95435199Y-32510000D01*
X102565000Y-39639803D01*
X102565000Y-39701939D01*
X102604774Y-39901898D01*
X102682795Y-40090256D01*
X102782950Y-40240148D01*
X101631804Y-39089003D01*
X101608001Y-39059999D01*
X101492276Y-38965026D01*
X101360247Y-38894454D01*
X101216986Y-38850997D01*
X101105333Y-38840000D01*
X101105322Y-38840000D01*
X101068000Y-38836324D01*
X101030678Y-38840000D01*
X100303711Y-38840000D01*
X100259774Y-38796063D01*
X100090256Y-38682795D01*
X99901898Y-38604774D01*
X99701939Y-38565000D01*
X99498061Y-38565000D01*
X99298102Y-38604774D01*
X99109744Y-38682795D01*
X98940226Y-38796063D01*
X98796063Y-38940226D01*
X98682795Y-39109744D01*
X98604774Y-39298102D01*
X98565000Y-39498061D01*
X98565000Y-39701939D01*
X98604774Y-39901898D01*
X98682795Y-40090256D01*
X98796063Y-40259774D01*
X98940226Y-40403937D01*
X99109744Y-40517205D01*
X99298102Y-40595226D01*
X99498061Y-40635000D01*
X99701939Y-40635000D01*
X99901898Y-40595226D01*
X100090256Y-40517205D01*
X100259774Y-40403937D01*
X100303711Y-40360000D01*
X100753199Y-40360000D01*
X105391000Y-44997802D01*
X105391000Y-45059939D01*
X105430774Y-45259898D01*
X105508795Y-45448256D01*
X105622063Y-45617774D01*
X105766226Y-45761937D01*
X105935744Y-45875205D01*
X106124102Y-45953226D01*
X106324061Y-45993000D01*
X106527939Y-45993000D01*
X106727898Y-45953226D01*
X106916256Y-45875205D01*
X107085774Y-45761937D01*
X107229937Y-45617774D01*
X107343205Y-45448256D01*
X107421226Y-45259898D01*
X107461000Y-45059939D01*
X107461000Y-44856061D01*
X107421226Y-44656102D01*
X107343205Y-44467744D01*
X107229937Y-44298226D01*
X107085774Y-44154063D01*
X106916256Y-44040795D01*
X106727898Y-43962774D01*
X106527939Y-43923000D01*
X106465802Y-43923000D01*
X102959852Y-40417050D01*
X103109744Y-40517205D01*
X103298102Y-40595226D01*
X103498061Y-40635000D01*
X103701939Y-40635000D01*
X103901898Y-40595226D01*
X104090256Y-40517205D01*
X104259774Y-40403937D01*
X104403937Y-40259774D01*
X104517205Y-40090256D01*
X104594957Y-39902546D01*
X104604774Y-39951898D01*
X104682795Y-40140256D01*
X104796063Y-40309774D01*
X104940226Y-40453937D01*
X105109744Y-40567205D01*
X105298102Y-40645226D01*
X105498061Y-40685000D01*
X105701939Y-40685000D01*
X105901898Y-40645226D01*
X106090256Y-40567205D01*
X106259774Y-40453937D01*
X106403937Y-40309774D01*
X106517205Y-40140256D01*
X106550000Y-40061082D01*
X106582795Y-40140256D01*
X106696063Y-40309774D01*
X106840226Y-40453937D01*
X107009744Y-40567205D01*
X107198102Y-40645226D01*
X107398061Y-40685000D01*
X107601939Y-40685000D01*
X107801898Y-40645226D01*
X107990256Y-40567205D01*
X108159774Y-40453937D01*
X108303937Y-40309774D01*
X108417205Y-40140256D01*
X108492385Y-39958757D01*
X108556795Y-40114256D01*
X108670063Y-40283774D01*
X108814226Y-40427937D01*
X108983744Y-40541205D01*
X109172102Y-40619226D01*
X109372061Y-40659000D01*
X109575939Y-40659000D01*
X109775898Y-40619226D01*
X109964256Y-40541205D01*
X110133774Y-40427937D01*
X110277937Y-40283774D01*
X110391205Y-40114256D01*
X110469226Y-39925898D01*
X110490000Y-39821459D01*
X110510774Y-39925898D01*
X110588795Y-40114256D01*
X110702063Y-40283774D01*
X110846226Y-40427937D01*
X111015744Y-40541205D01*
X111204102Y-40619226D01*
X111404061Y-40659000D01*
X111607939Y-40659000D01*
X111807898Y-40619226D01*
X111996256Y-40541205D01*
X112165774Y-40427937D01*
X112309937Y-40283774D01*
X112423205Y-40114256D01*
X112493000Y-39945757D01*
X112493000Y-49179015D01*
X105691117Y-49179015D01*
X105691117Y-48150120D01*
X105694673Y-48114015D01*
X105680482Y-47969930D01*
X105638454Y-47831382D01*
X105570204Y-47703695D01*
X105478355Y-47591777D01*
X105366437Y-47499928D01*
X105358584Y-47495731D01*
X105490114Y-47204025D01*
X105537695Y-47019645D01*
X105421572Y-46727000D01*
X95077000Y-46727000D01*
X95077000Y-46747000D01*
X94823000Y-46747000D01*
X94823000Y-46727000D01*
X84478428Y-46727000D01*
X84362305Y-47019645D01*
X84409886Y-47204025D01*
X84543983Y-47501424D01*
X84433888Y-47591777D01*
X84342039Y-47703695D01*
X84273789Y-47831382D01*
X84231761Y-47969930D01*
X84217570Y-48114015D01*
X84221126Y-48150120D01*
X84221126Y-49179015D01*
X76782789Y-49179015D01*
X76784774Y-49177239D01*
X76808933Y-49150949D01*
X76835217Y-49126773D01*
X76841126Y-49120068D01*
X76847707Y-49112495D01*
X76851414Y-49107277D01*
X76855971Y-49102791D01*
X76863925Y-49091109D01*
X76869291Y-49085270D01*
X76881250Y-49065665D01*
X76887559Y-49056398D01*
X76920046Y-49010669D01*
X76922665Y-49004839D01*
X76926269Y-48999546D01*
X76930498Y-48991674D01*
X76935660Y-48981904D01*
X76937410Y-48977625D01*
X76939897Y-48973741D01*
X76961029Y-48919892D01*
X76963109Y-48914808D01*
X76971230Y-48896731D01*
X76972168Y-48892665D01*
X76974538Y-48886873D01*
X76977546Y-48880407D01*
X76978087Y-48878198D01*
X76982955Y-48866298D01*
X76983840Y-48861767D01*
X76985527Y-48857468D01*
X76987904Y-48848854D01*
X76991819Y-48834270D01*
X76998110Y-48796380D01*
X77007238Y-48759082D01*
X77008443Y-48750227D01*
X77011283Y-48728213D01*
X77011702Y-48714509D01*
X77012276Y-48711051D01*
X77012202Y-48708657D01*
X77014777Y-48693837D01*
X77015378Y-48684921D01*
X77017315Y-48652859D01*
X77017081Y-48646614D01*
X77017946Y-48640417D01*
X77018248Y-48631485D01*
X77019452Y-48586758D01*
X77019402Y-48586049D01*
X77019489Y-48585339D01*
X77019647Y-48576404D01*
X77020291Y-48516394D01*
X77020277Y-48516239D01*
X77020325Y-48511621D01*
X77020580Y-48433712D01*
X77020571Y-48433612D01*
X77020583Y-48431947D01*
X77020622Y-48356513D01*
X77020868Y-48256614D01*
X77020858Y-48256511D01*
X77020870Y-48254620D01*
X77020817Y-48174006D01*
X77020494Y-48170730D01*
X77020779Y-48167452D01*
X77020619Y-48158517D01*
X77019659Y-48119912D01*
X77019659Y-48119887D01*
X77019062Y-48095917D01*
X77017023Y-48079375D01*
X77017371Y-48062708D01*
X77016622Y-48053803D01*
X77012360Y-48007007D01*
X77004211Y-47964305D01*
X76998618Y-47921186D01*
X76996548Y-47912493D01*
X76988380Y-47879216D01*
X76978558Y-47851310D01*
X76971658Y-47822534D01*
X76961852Y-47801198D01*
X76973049Y-47771475D01*
X76975307Y-47762829D01*
X76979535Y-47746170D01*
X76982147Y-47728985D01*
X76984461Y-47720913D01*
X76984711Y-47717941D01*
X76988816Y-47703567D01*
X76990357Y-47694764D01*
X76994098Y-47672496D01*
X76994957Y-47660017D01*
X76997752Y-47647815D01*
X76998826Y-47638944D01*
X77002110Y-47610132D01*
X77002216Y-47603389D01*
X77003491Y-47596769D01*
X77004254Y-47587866D01*
X77007110Y-47551577D01*
X77007050Y-47548472D01*
X77007566Y-47545406D01*
X77008118Y-47536487D01*
X77010575Y-47491785D01*
X77010543Y-47491043D01*
X77010655Y-47490305D01*
X77011063Y-47481378D01*
X77013152Y-47427329D01*
X77013146Y-47427231D01*
X77013393Y-47420004D01*
X77015142Y-47355672D01*
X77015131Y-47355515D01*
X77015262Y-47350467D01*
X77016701Y-47274918D01*
X77016689Y-47274765D01*
X77016761Y-47271187D01*
X77017920Y-47183487D01*
X77017909Y-47183359D01*
X77017950Y-47180789D01*
X77018857Y-47080002D01*
X77018848Y-47079903D01*
X77018872Y-47078067D01*
X77019558Y-46963258D01*
X77019550Y-46963171D01*
X77019564Y-46961870D01*
X77020058Y-46832106D01*
X77020053Y-46832048D01*
X77020061Y-46831129D01*
X77020393Y-46685474D01*
X77020390Y-46685440D01*
X77020395Y-46684795D01*
X77020593Y-46522315D01*
X77020590Y-46522283D01*
X77020593Y-46521869D01*
X77020687Y-46341629D01*
X77020685Y-46341611D01*
X77020687Y-46341363D01*
X77020703Y-46180355D01*
X84362305Y-46180355D01*
X84478428Y-46473000D01*
X94823000Y-46473000D01*
X94823000Y-44715000D01*
X95077000Y-44715000D01*
X95077000Y-46473000D01*
X105421572Y-46473000D01*
X105537695Y-46180355D01*
X105490114Y-45995975D01*
X105337878Y-45658347D01*
X105122699Y-45356906D01*
X104852847Y-45103237D01*
X104538691Y-44907088D01*
X104192305Y-44775996D01*
X103827000Y-44715000D01*
X95077000Y-44715000D01*
X94823000Y-44715000D01*
X86073000Y-44715000D01*
X85707695Y-44775996D01*
X85361309Y-44907088D01*
X85047153Y-45103237D01*
X84777301Y-45356906D01*
X84562122Y-45658347D01*
X84409886Y-45995975D01*
X84362305Y-46180355D01*
X77020703Y-46180355D01*
X77020708Y-46142428D01*
X77020707Y-46142419D01*
X77020708Y-46142293D01*
X77020685Y-45923729D01*
X77020685Y-45923692D01*
X77020646Y-45684564D01*
X77020622Y-45423981D01*
X77020622Y-45381889D01*
X77020636Y-45119026D01*
X77020661Y-44877798D01*
X77020661Y-44877761D01*
X77020671Y-44657194D01*
X77020670Y-44657186D01*
X77020671Y-44657073D01*
X77020642Y-44456260D01*
X77020641Y-44456245D01*
X77020642Y-44456021D01*
X77020548Y-44274018D01*
X77020546Y-44273996D01*
X77020548Y-44273624D01*
X77020362Y-44109491D01*
X77020358Y-44109453D01*
X77020361Y-44108898D01*
X77020058Y-43961694D01*
X77020052Y-43961636D01*
X77020055Y-43960841D01*
X77019610Y-43829622D01*
X77019603Y-43829554D01*
X77019605Y-43828416D01*
X77019025Y-43718490D01*
X77019025Y-43718488D01*
X77018992Y-43712238D01*
X77018983Y-43712147D01*
X77018981Y-43710563D01*
X77018175Y-43608491D01*
X77018162Y-43608369D01*
X77018152Y-43606166D01*
X77017127Y-43517255D01*
X77017112Y-43517115D01*
X77017082Y-43514037D01*
X77015812Y-43437344D01*
X77015794Y-43437191D01*
X77015723Y-43432878D01*
X77014183Y-43367464D01*
X77014166Y-43367324D01*
X77014005Y-43361205D01*
X77012169Y-43306127D01*
X77012168Y-43306119D01*
X77011812Y-43297265D01*
X77009655Y-43251581D01*
X77009376Y-43249669D01*
X77009462Y-43247738D01*
X77008924Y-43238818D01*
X77006420Y-43201587D01*
X77005611Y-43196724D01*
X77005686Y-43191792D01*
X77004887Y-43182891D01*
X77002011Y-43153170D01*
X77000149Y-43143702D01*
X76999871Y-43134053D01*
X76998682Y-43125196D01*
X76995408Y-43102045D01*
X76991356Y-43085359D01*
X76989705Y-43068265D01*
X76987920Y-43059509D01*
X76984222Y-43041986D01*
X76975504Y-43014365D01*
X76973916Y-43006558D01*
X76972221Y-42996257D01*
X76971346Y-42993922D01*
X76969730Y-42985978D01*
X76967043Y-42977455D01*
X76962897Y-42964617D01*
X76951606Y-42938646D01*
X76946627Y-42922872D01*
X76940590Y-42911854D01*
X76928389Y-42879295D01*
X76924395Y-42871301D01*
X76919773Y-42862208D01*
X76919148Y-42861229D01*
X76918724Y-42860155D01*
X76914886Y-42854188D01*
X76913095Y-42850069D01*
X76906109Y-42839979D01*
X76905547Y-42838661D01*
X76894124Y-42821910D01*
X76885560Y-42808595D01*
X76852579Y-42756915D01*
X76851781Y-42756081D01*
X76851153Y-42755105D01*
X76845559Y-42748136D01*
X76840438Y-42741846D01*
X76837512Y-42738894D01*
X76835174Y-42735466D01*
X76793570Y-42694568D01*
X76779544Y-42680420D01*
X76762717Y-42662300D01*
X76758686Y-42659380D01*
X76752501Y-42653141D01*
X76749063Y-42650818D01*
X76746099Y-42647904D01*
X76739106Y-42642340D01*
X76733458Y-42637910D01*
X76696790Y-42614542D01*
X76661564Y-42589024D01*
X76653818Y-42584567D01*
X76647619Y-42581057D01*
X76641582Y-42578380D01*
X76636099Y-42574689D01*
X76628204Y-42570503D01*
X76621429Y-42566969D01*
X76618294Y-42565706D01*
X76613686Y-42562657D01*
X76612464Y-42562156D01*
X76610154Y-42560678D01*
X76602164Y-42556676D01*
X76596931Y-42554100D01*
X76560913Y-42540555D01*
X76558155Y-42539260D01*
X76543039Y-42531448D01*
X76539103Y-42530310D01*
X76533801Y-42527819D01*
X76520883Y-42524607D01*
X76498117Y-42515273D01*
X76489540Y-42512766D01*
X76481364Y-42510438D01*
X76480324Y-42510249D01*
X76480018Y-42510134D01*
X76476274Y-42509514D01*
X76451859Y-42505079D01*
X76423050Y-42496748D01*
X76414253Y-42495177D01*
X76402040Y-42493083D01*
X76386562Y-42491966D01*
X76371403Y-42488589D01*
X76362525Y-42487569D01*
X76345179Y-42485698D01*
X76337731Y-42485626D01*
X76330409Y-42484278D01*
X76321500Y-42483588D01*
X76297928Y-42481928D01*
X76295033Y-42482007D01*
X76292168Y-42481548D01*
X76283245Y-42481064D01*
X76252353Y-42479601D01*
X76252064Y-42479616D01*
X76251771Y-42479573D01*
X76242841Y-42479221D01*
X76203532Y-42477945D01*
X76203394Y-42477954D01*
X76197237Y-42477772D01*
X76148420Y-42476668D01*
X76148266Y-42476680D01*
X76144105Y-42476585D01*
X76084682Y-42475642D01*
X76084546Y-42475653D01*
X76081671Y-42475601D01*
X76010548Y-42474807D01*
X76010436Y-42474817D01*
X76008423Y-42474787D01*
X75924506Y-42474129D01*
X75924420Y-42474137D01*
X75922982Y-42474119D01*
X75825177Y-42473585D01*
X75825121Y-42473590D01*
X75824078Y-42473579D01*
X75711289Y-42473157D01*
X75711237Y-42473162D01*
X75710503Y-42473155D01*
X75581638Y-42472831D01*
X75581601Y-42472835D01*
X75581067Y-42472830D01*
X75435030Y-42472593D01*
X75435009Y-42472595D01*
X75434622Y-42472592D01*
X75270317Y-42472430D01*
X75270297Y-42472432D01*
X75270034Y-42472430D01*
X75086368Y-42472330D01*
X75086355Y-42472331D01*
X75086177Y-42472330D01*
X74882054Y-42472280D01*
X74882046Y-42472281D01*
X74881936Y-42472280D01*
X74670792Y-42472267D01*
X73272046Y-42472267D01*
X73270939Y-42470996D01*
X73247875Y-42449224D01*
X73227014Y-42425332D01*
X73220465Y-42419252D01*
X73148574Y-42353434D01*
X73101726Y-42318293D01*
X73055306Y-42282578D01*
X73048703Y-42278520D01*
X73048654Y-42278483D01*
X73048604Y-42278459D01*
X73047693Y-42277899D01*
X72972600Y-42232468D01*
X72967659Y-42230104D01*
X72963221Y-42226903D01*
X72911379Y-42203171D01*
X72859931Y-42178550D01*
X72854629Y-42177191D01*
X72849650Y-42174912D01*
X72841180Y-42172062D01*
X72758429Y-42144859D01*
X72704755Y-42132864D01*
X72651378Y-42119616D01*
X72642527Y-42118382D01*
X72564893Y-42108108D01*
X72515043Y-42106421D01*
X72465266Y-42102767D01*
X72456335Y-42103049D01*
X72352449Y-42107044D01*
X72291361Y-42115415D01*
X72229474Y-42123816D01*
X72228738Y-42123996D01*
X72228700Y-42124001D01*
X72228659Y-42124015D01*
X72220793Y-42125937D01*
X72124519Y-42150175D01*
X72123509Y-42150537D01*
X72122461Y-42150698D01*
X72064722Y-42171622D01*
X72006946Y-42192345D01*
X72006037Y-42192890D01*
X72005029Y-42193255D01*
X71996992Y-42197162D01*
X71910408Y-42239994D01*
X71908954Y-42240900D01*
X71907351Y-42241516D01*
X71855851Y-42273981D01*
X71804391Y-42306038D01*
X71803143Y-42307207D01*
X71801688Y-42308124D01*
X71794668Y-42313654D01*
X71719857Y-42373432D01*
X71718651Y-42374606D01*
X71717250Y-42375527D01*
X71673888Y-42418177D01*
X71630351Y-42460554D01*
X71629400Y-42461933D01*
X71628200Y-42463114D01*
X71622520Y-42470013D01*
X71602039Y-42495238D01*
X71581295Y-42498925D01*
X71543791Y-42513531D01*
X71505349Y-42525495D01*
X71497141Y-42529028D01*
X71470244Y-42540828D01*
X71443318Y-42555930D01*
X71415026Y-42568297D01*
X71388975Y-42586409D01*
X71361303Y-42601930D01*
X71337825Y-42621973D01*
X71312472Y-42639600D01*
X71305708Y-42645440D01*
X71278602Y-42669178D01*
X71267145Y-42681383D01*
X71254063Y-42691826D01*
X71247700Y-42698101D01*
X71209319Y-42736483D01*
X71171845Y-42782104D01*
X71133794Y-42827452D01*
X71132171Y-42830404D01*
X71130037Y-42833002D01*
X71102138Y-42885034D01*
X71073620Y-42936908D01*
X71072601Y-42940120D01*
X71071013Y-42943082D01*
X71053726Y-42999624D01*
X71035853Y-43055968D01*
X71035478Y-43059307D01*
X71034493Y-43062530D01*
X71028517Y-43121368D01*
X71021929Y-43180095D01*
X71021883Y-43186675D01*
X71021871Y-43186797D01*
X71021882Y-43186910D01*
X71021867Y-43189031D01*
X71021867Y-43368388D01*
X71001828Y-43356523D01*
X70974550Y-43336841D01*
X70966796Y-43332399D01*
X70820876Y-43250140D01*
X70788480Y-43235844D01*
X70757421Y-43218858D01*
X70749176Y-43215413D01*
X70595144Y-43152321D01*
X70562266Y-43142473D01*
X70530375Y-43129762D01*
X70521773Y-43127339D01*
X70357483Y-43082298D01*
X70334551Y-43078365D01*
X70312273Y-43071651D01*
X70303494Y-43069981D01*
X70207937Y-43052491D01*
X70185800Y-43050643D01*
X70164063Y-43046022D01*
X70155175Y-43045089D01*
X69996442Y-43029522D01*
X69964345Y-43029521D01*
X69932389Y-43026468D01*
X69923453Y-43026553D01*
X69765048Y-43029158D01*
X69732909Y-43032844D01*
X69700547Y-43033483D01*
X69691680Y-43034593D01*
X69531539Y-43055767D01*
X69502003Y-43062658D01*
X69471919Y-43066542D01*
X69463225Y-43068607D01*
X69299285Y-43108747D01*
X69274203Y-43117559D01*
X69248288Y-43123500D01*
X69239834Y-43126397D01*
X69070032Y-43185901D01*
X69050127Y-43195146D01*
X69029192Y-43201801D01*
X69021006Y-43205385D01*
X68843276Y-43284649D01*
X68836613Y-43288440D01*
X68829400Y-43291037D01*
X68821355Y-43294928D01*
X68811615Y-43299721D01*
X68759736Y-43324922D01*
X68718419Y-43344222D01*
X68695101Y-43354552D01*
X68674891Y-43359430D01*
X68641227Y-43374964D01*
X68606436Y-43387769D01*
X68584649Y-43401072D01*
X68561477Y-43411764D01*
X68531472Y-43433539D01*
X68499830Y-43452859D01*
X68481047Y-43470135D01*
X68460387Y-43485128D01*
X68453744Y-43491104D01*
X68449133Y-43495310D01*
X68427828Y-43518946D01*
X68404347Y-43540436D01*
X68386108Y-43565233D01*
X68365506Y-43588090D01*
X68349198Y-43615415D01*
X68330338Y-43641056D01*
X68317262Y-43668925D01*
X68301493Y-43695346D01*
X68290804Y-43725312D01*
X68277281Y-43754134D01*
X68269868Y-43784008D01*
X68259530Y-43812992D01*
X68254864Y-43844475D01*
X68247200Y-43875364D01*
X68245731Y-43906110D01*
X68241220Y-43936549D01*
X68242758Y-43968329D01*
X68241238Y-44000127D01*
X68244644Y-44023017D01*
X68225660Y-44018393D01*
X68225654Y-44018391D01*
X68216957Y-44016337D01*
X68129294Y-43996275D01*
X68126019Y-43995856D01*
X68122883Y-43994843D01*
X68114139Y-43993000D01*
X68039551Y-43977822D01*
X68032459Y-43977089D01*
X68025593Y-43975142D01*
X68016788Y-43973617D01*
X67950953Y-43962683D01*
X67940770Y-43962001D01*
X67930833Y-43959669D01*
X67921967Y-43958548D01*
X67860564Y-43951217D01*
X67849746Y-43950989D01*
X67839105Y-43949021D01*
X67830196Y-43948324D01*
X67768901Y-43943955D01*
X67760575Y-43944176D01*
X67752326Y-43942989D01*
X67743397Y-43942648D01*
X67677889Y-43940600D01*
X67674550Y-43940822D01*
X67671215Y-43940425D01*
X67662280Y-43940302D01*
X67604262Y-43939904D01*
X67593969Y-43940842D01*
X67583657Y-43940094D01*
X67574725Y-43940383D01*
X67405279Y-43947046D01*
X67380605Y-43950449D01*
X67355697Y-43950929D01*
X67346829Y-43952035D01*
X67194911Y-43972050D01*
X67164103Y-43979222D01*
X67132754Y-43983385D01*
X67124067Y-43985481D01*
X66988804Y-44019116D01*
X66952362Y-44032066D01*
X66915040Y-44042269D01*
X66906714Y-44045514D01*
X66787231Y-44093037D01*
X66747336Y-44113619D01*
X66706352Y-44131980D01*
X66698624Y-44136467D01*
X66594047Y-44198147D01*
X66558050Y-44224428D01*
X66520630Y-44248651D01*
X66513677Y-44254265D01*
X66436068Y-44317825D01*
X66408369Y-44345444D01*
X66379544Y-44370255D01*
X66366464Y-44356092D01*
X66359747Y-44350198D01*
X66254340Y-44258966D01*
X66228542Y-44240716D01*
X66204624Y-44220054D01*
X66197288Y-44214952D01*
X66152123Y-44184000D01*
X66129878Y-44171760D01*
X66109201Y-44157020D01*
X66101422Y-44152623D01*
X66000472Y-44096475D01*
X65963081Y-44080231D01*
X65926873Y-44061477D01*
X65918551Y-44058219D01*
X65815261Y-44018608D01*
X65773253Y-44007052D01*
X65732004Y-43993027D01*
X65723289Y-43991051D01*
X65613201Y-43966891D01*
X65574589Y-43962302D01*
X65536409Y-43954870D01*
X65527506Y-43954089D01*
X65406165Y-43944294D01*
X65381206Y-43944723D01*
X65364055Y-43942995D01*
X65365239Y-43888009D01*
X65366614Y-43842180D01*
X65366640Y-43841611D01*
X65384252Y-43808573D01*
X65413009Y-43755388D01*
X65413572Y-43753570D01*
X65414469Y-43751887D01*
X65432060Y-43693844D01*
X65449945Y-43636068D01*
X65450144Y-43634175D01*
X65450697Y-43632350D01*
X65456680Y-43571991D01*
X65463001Y-43511846D01*
X65462829Y-43509953D01*
X65463017Y-43508053D01*
X65457166Y-43447723D01*
X65451681Y-43387454D01*
X65451143Y-43385625D01*
X65450959Y-43383730D01*
X65433509Y-43325711D01*
X65416415Y-43267630D01*
X65415533Y-43265944D01*
X65414984Y-43264117D01*
X65386588Y-43210577D01*
X65358546Y-43156938D01*
X65357352Y-43155453D01*
X65356460Y-43153771D01*
X65318196Y-43106752D01*
X65280280Y-43059593D01*
X65278820Y-43058368D01*
X65277619Y-43056892D01*
X65231004Y-43018245D01*
X65184596Y-42979305D01*
X65182927Y-42978388D01*
X65181461Y-42977172D01*
X65128190Y-42948295D01*
X65075140Y-42919131D01*
X65073326Y-42918556D01*
X65071650Y-42917647D01*
X65013718Y-42899647D01*
X64956080Y-42881364D01*
X64954191Y-42881152D01*
X64952369Y-42880586D01*
X64892151Y-42874193D01*
X64831953Y-42867440D01*
X64828309Y-42867415D01*
X64828161Y-42867399D01*
X64828009Y-42867413D01*
X64823017Y-42867378D01*
X63917689Y-42867378D01*
X63857763Y-42873254D01*
X63797838Y-42878700D01*
X63795647Y-42879345D01*
X63793379Y-42879567D01*
X63735846Y-42896937D01*
X63678010Y-42913952D01*
X63675984Y-42915011D01*
X63673804Y-42915669D01*
X63620670Y-42943921D01*
X63567311Y-42971808D01*
X63565535Y-42973236D01*
X63563518Y-42974308D01*
X63516895Y-43012333D01*
X63469957Y-43050063D01*
X63468487Y-43051814D01*
X63466723Y-43053253D01*
X63428412Y-43099563D01*
X63389658Y-43145738D01*
X63388559Y-43147737D01*
X63387105Y-43149495D01*
X63358521Y-43202359D01*
X63329471Y-43255187D01*
X63328780Y-43257366D01*
X63327697Y-43259368D01*
X63309919Y-43316800D01*
X63291690Y-43374242D01*
X63291435Y-43376509D01*
X63290761Y-43378688D01*
X63284476Y-43438485D01*
X63277752Y-43498368D01*
X63277721Y-43502757D01*
X63277705Y-43502910D01*
X63277719Y-43503063D01*
X63277689Y-43507304D01*
X63277493Y-45192171D01*
X63277493Y-45192193D01*
X63277474Y-45426533D01*
X63277474Y-45426584D01*
X63277448Y-45639357D01*
X63277448Y-45639360D01*
X63277375Y-45831568D01*
X63277375Y-45831588D01*
X63277218Y-46004602D01*
X63276938Y-46158773D01*
X63276496Y-46295956D01*
X63275859Y-46416229D01*
X63274988Y-46521241D01*
X63273861Y-46611420D01*
X63272458Y-46687568D01*
X63270779Y-46750556D01*
X63268873Y-46800461D01*
X63267651Y-46822976D01*
X63258531Y-46839135D01*
X63243543Y-46873057D01*
X63225904Y-46905679D01*
X63218359Y-46930051D01*
X63208049Y-46953386D01*
X63199936Y-46989567D01*
X63188968Y-47024999D01*
X63186301Y-47050376D01*
X63180720Y-47075265D01*
X63179789Y-47112336D01*
X63175912Y-47149221D01*
X63178224Y-47174625D01*
X63177583Y-47200132D01*
X63183871Y-47236683D01*
X63187232Y-47273613D01*
X63194436Y-47298089D01*
X63198761Y-47323230D01*
X63212026Y-47357856D01*
X63222498Y-47393437D01*
X63234319Y-47416049D01*
X63243445Y-47439870D01*
X63263186Y-47471265D01*
X63280367Y-47504129D01*
X63296353Y-47524011D01*
X63309933Y-47545609D01*
X63335388Y-47572563D01*
X63357186Y-47599674D01*
X63326068Y-47637557D01*
X63288016Y-47682906D01*
X63286393Y-47685858D01*
X63284259Y-47688456D01*
X63256357Y-47740494D01*
X63227842Y-47792362D01*
X63226823Y-47795574D01*
X63225235Y-47798536D01*
X63207948Y-47855078D01*
X63190075Y-47911422D01*
X63189700Y-47914761D01*
X63188715Y-47917984D01*
X63182739Y-47976822D01*
X63176151Y-48035549D01*
X63176105Y-48042129D01*
X63176093Y-48042251D01*
X63176104Y-48042364D01*
X63176089Y-48044485D01*
X63176089Y-48353920D01*
X63176092Y-48353950D01*
X63176089Y-48354428D01*
X63176162Y-48446307D01*
X63176174Y-48446432D01*
X63176169Y-48448846D01*
X63176512Y-48520887D01*
X63176526Y-48521024D01*
X63176573Y-48527193D01*
X63177376Y-48582133D01*
X63177634Y-48584419D01*
X63177459Y-48586717D01*
X63177717Y-48595650D01*
X63179168Y-48636230D01*
X63180415Y-48645513D01*
X63180107Y-48654880D01*
X63180749Y-48663794D01*
X63183038Y-48692750D01*
X63187029Y-48715112D01*
X63188210Y-48737798D01*
X63189605Y-48746624D01*
X63192921Y-48766698D01*
X63202879Y-48803914D01*
X63204985Y-48815713D01*
X63206323Y-48819142D01*
X63213045Y-48851837D01*
X63215750Y-48860354D01*
X63220281Y-48874284D01*
X63223959Y-48882694D01*
X63225207Y-48887360D01*
X63232368Y-48901927D01*
X63243973Y-48928464D01*
X63246355Y-48934069D01*
X63253185Y-48953841D01*
X63258978Y-48963772D01*
X63267119Y-48982928D01*
X63270276Y-48988618D01*
X63270324Y-48988727D01*
X63270388Y-48988819D01*
X63271455Y-48990742D01*
X63277391Y-49001266D01*
X63298014Y-49030692D01*
X63316121Y-49061732D01*
X63321406Y-49068938D01*
X63326061Y-49075193D01*
X63336218Y-49086372D01*
X63344608Y-49098927D01*
X63348734Y-49103060D01*
X63349079Y-49103552D01*
X63352452Y-49106783D01*
X63378140Y-49132513D01*
X63410055Y-49167641D01*
X63422186Y-49176631D01*
X63424566Y-49179015D01*
X55691121Y-49179015D01*
X55691121Y-48150120D01*
X55694677Y-48114015D01*
X55680486Y-47969930D01*
X55638458Y-47831382D01*
X55570208Y-47703695D01*
X55478359Y-47591777D01*
X55366441Y-47499928D01*
X55319708Y-47474949D01*
X55399939Y-47324848D01*
X55507725Y-46969524D01*
X55544120Y-46600000D01*
X55507725Y-46230476D01*
X55399939Y-45875152D01*
X55224903Y-45547683D01*
X54989345Y-45260655D01*
X54702317Y-45025097D01*
X54374848Y-44850061D01*
X54019524Y-44742275D01*
X53742597Y-44715000D01*
X45760000Y-44715000D01*
X45760000Y-43450700D01*
X45867205Y-43290256D01*
X45945226Y-43101898D01*
X45985000Y-42901939D01*
X45985000Y-42698061D01*
X45945226Y-42498102D01*
X45867205Y-42309744D01*
X45753937Y-42140226D01*
X45609774Y-41996063D01*
X45440256Y-41882795D01*
X45251898Y-41804774D01*
X45051939Y-41765000D01*
X44848061Y-41765000D01*
X44648102Y-41804774D01*
X44459744Y-41882795D01*
X44290226Y-41996063D01*
X44146063Y-42140226D01*
X44032795Y-42309744D01*
X43954774Y-42498102D01*
X43915000Y-42698061D01*
X43915000Y-42901939D01*
X43954774Y-43101898D01*
X44032795Y-43290256D01*
X44146063Y-43459774D01*
X44240001Y-43553712D01*
X44240000Y-44715000D01*
X36057403Y-44715000D01*
X35780476Y-44742275D01*
X35425152Y-44850061D01*
X35097683Y-45025097D01*
X34810655Y-45260655D01*
X34575097Y-45547683D01*
X34400061Y-45875152D01*
X34292275Y-46230476D01*
X34255880Y-46600000D01*
X34292275Y-46969524D01*
X34400061Y-47324848D01*
X34509547Y-47529681D01*
X34433883Y-47591777D01*
X34342034Y-47703695D01*
X34273784Y-47831382D01*
X34231756Y-47969930D01*
X34217565Y-48114015D01*
X34221121Y-48150120D01*
X34221121Y-49179015D01*
X23992848Y-49179015D01*
X23294651Y-49109046D01*
X22716813Y-48930420D01*
X21654671Y-48215468D01*
X20939717Y-47153327D01*
X20761090Y-46575484D01*
X20691121Y-45877286D01*
X20691121Y-43492061D01*
X25715000Y-43492061D01*
X25715000Y-43695939D01*
X25754774Y-43895898D01*
X25832795Y-44084256D01*
X25946063Y-44253774D01*
X26090226Y-44397937D01*
X26259744Y-44511205D01*
X26448102Y-44589226D01*
X26648061Y-44629000D01*
X26851939Y-44629000D01*
X27051898Y-44589226D01*
X27240256Y-44511205D01*
X27409774Y-44397937D01*
X27553937Y-44253774D01*
X27667205Y-44084256D01*
X27745226Y-43895898D01*
X27785000Y-43695939D01*
X27785000Y-43492061D01*
X27745226Y-43292102D01*
X27667205Y-43103744D01*
X27553937Y-42934226D01*
X27510000Y-42890289D01*
X27510000Y-41876801D01*
X28821802Y-40565000D01*
X28883939Y-40565000D01*
X29083898Y-40525226D01*
X29272256Y-40447205D01*
X29441774Y-40333937D01*
X29585937Y-40189774D01*
X29699205Y-40020256D01*
X29777226Y-39831898D01*
X29817000Y-39631939D01*
X29817000Y-39428061D01*
X29777226Y-39228102D01*
X29765586Y-39200000D01*
X43461928Y-39200000D01*
X43461928Y-40800000D01*
X43474188Y-40924482D01*
X43510498Y-41044180D01*
X43569463Y-41154494D01*
X43648815Y-41251185D01*
X43745506Y-41330537D01*
X43855820Y-41389502D01*
X43975518Y-41425812D01*
X44100000Y-41438072D01*
X45700000Y-41438072D01*
X45824482Y-41425812D01*
X45944180Y-41389502D01*
X46054494Y-41330537D01*
X46151185Y-41251185D01*
X46230537Y-41154494D01*
X46289502Y-41044180D01*
X46325812Y-40924482D01*
X46338072Y-40800000D01*
X46338072Y-39200000D01*
X52961928Y-39200000D01*
X52961928Y-40800000D01*
X52974188Y-40924482D01*
X53010498Y-41044180D01*
X53069463Y-41154494D01*
X53148815Y-41251185D01*
X53245506Y-41330537D01*
X53355820Y-41389502D01*
X53475518Y-41425812D01*
X53600000Y-41438072D01*
X55200000Y-41438072D01*
X55324482Y-41425812D01*
X55444180Y-41389502D01*
X55554494Y-41330537D01*
X55651185Y-41251185D01*
X55730537Y-41154494D01*
X55789502Y-41044180D01*
X55825812Y-40924482D01*
X55838072Y-40800000D01*
X55838072Y-39200000D01*
X55825812Y-39075518D01*
X55789502Y-38955820D01*
X55730537Y-38845506D01*
X55651185Y-38748815D01*
X55554494Y-38669463D01*
X55444180Y-38610498D01*
X55324482Y-38574188D01*
X55200000Y-38561928D01*
X55192785Y-38561928D01*
X55213097Y-38492702D01*
X54400000Y-37679605D01*
X53586903Y-38492702D01*
X53607215Y-38561928D01*
X53600000Y-38561928D01*
X53475518Y-38574188D01*
X53355820Y-38610498D01*
X53245506Y-38669463D01*
X53148815Y-38748815D01*
X53069463Y-38845506D01*
X53010498Y-38955820D01*
X52974188Y-39075518D01*
X52961928Y-39200000D01*
X46338072Y-39200000D01*
X46325812Y-39075518D01*
X46289502Y-38955820D01*
X46230537Y-38845506D01*
X46151185Y-38748815D01*
X46054494Y-38669463D01*
X45944180Y-38610498D01*
X45824482Y-38574188D01*
X45700000Y-38561928D01*
X45692785Y-38561928D01*
X45713097Y-38492702D01*
X44900000Y-37679605D01*
X44086903Y-38492702D01*
X44107215Y-38561928D01*
X44100000Y-38561928D01*
X43975518Y-38574188D01*
X43855820Y-38610498D01*
X43745506Y-38669463D01*
X43648815Y-38748815D01*
X43569463Y-38845506D01*
X43510498Y-38955820D01*
X43474188Y-39075518D01*
X43461928Y-39200000D01*
X29765586Y-39200000D01*
X29699205Y-39039744D01*
X29585937Y-38870226D01*
X29441774Y-38726063D01*
X29272256Y-38612795D01*
X29083898Y-38534774D01*
X28883939Y-38495000D01*
X28680061Y-38495000D01*
X28480102Y-38534774D01*
X28291744Y-38612795D01*
X28122226Y-38726063D01*
X27978063Y-38870226D01*
X27864795Y-39039744D01*
X27786774Y-39228102D01*
X27747000Y-39428061D01*
X27747000Y-39490198D01*
X26239003Y-40998196D01*
X26209999Y-41021999D01*
X26154871Y-41089174D01*
X26115026Y-41137724D01*
X26054379Y-41251185D01*
X26044454Y-41269754D01*
X26000997Y-41413015D01*
X25990000Y-41524668D01*
X25990000Y-41524678D01*
X25986324Y-41562000D01*
X25990000Y-41599323D01*
X25990001Y-42890288D01*
X25946063Y-42934226D01*
X25832795Y-43103744D01*
X25754774Y-43292102D01*
X25715000Y-43492061D01*
X20691121Y-43492061D01*
X20691121Y-37570512D01*
X43459783Y-37570512D01*
X43501213Y-37850130D01*
X43596397Y-38116292D01*
X43663329Y-38241514D01*
X43907298Y-38313097D01*
X44720395Y-37500000D01*
X45079605Y-37500000D01*
X45892702Y-38313097D01*
X46136671Y-38241514D01*
X46257571Y-37986004D01*
X46326300Y-37711816D01*
X46333265Y-37570512D01*
X52959783Y-37570512D01*
X53001213Y-37850130D01*
X53096397Y-38116292D01*
X53163329Y-38241514D01*
X53407298Y-38313097D01*
X54220395Y-37500000D01*
X54579605Y-37500000D01*
X55392702Y-38313097D01*
X55636671Y-38241514D01*
X55757571Y-37986004D01*
X55826300Y-37711816D01*
X55840217Y-37429488D01*
X55798787Y-37149870D01*
X55703603Y-36883708D01*
X55636671Y-36758486D01*
X55392702Y-36686903D01*
X54579605Y-37500000D01*
X54220395Y-37500000D01*
X53407298Y-36686903D01*
X53163329Y-36758486D01*
X53042429Y-37013996D01*
X52973700Y-37288184D01*
X52959783Y-37570512D01*
X46333265Y-37570512D01*
X46340217Y-37429488D01*
X46298787Y-37149870D01*
X46203603Y-36883708D01*
X46136671Y-36758486D01*
X45892702Y-36686903D01*
X45079605Y-37500000D01*
X44720395Y-37500000D01*
X43907298Y-36686903D01*
X43663329Y-36758486D01*
X43542429Y-37013996D01*
X43473700Y-37288184D01*
X43459783Y-37570512D01*
X20691121Y-37570512D01*
X20691121Y-36507298D01*
X44086903Y-36507298D01*
X44900000Y-37320395D01*
X45713097Y-36507298D01*
X53586903Y-36507298D01*
X54400000Y-37320395D01*
X55213097Y-36507298D01*
X55141514Y-36263329D01*
X54886004Y-36142429D01*
X54611816Y-36073700D01*
X54329488Y-36059783D01*
X54049870Y-36101213D01*
X53783708Y-36196397D01*
X53658486Y-36263329D01*
X53586903Y-36507298D01*
X45713097Y-36507298D01*
X45641514Y-36263329D01*
X45386004Y-36142429D01*
X45111816Y-36073700D01*
X44829488Y-36059783D01*
X44549870Y-36101213D01*
X44283708Y-36196397D01*
X44158486Y-36263329D01*
X44086903Y-36507298D01*
X20691121Y-36507298D01*
X20691121Y-23973354D01*
X20761090Y-23275156D01*
X20939717Y-22697313D01*
X21654671Y-21635172D01*
X22716814Y-20920219D01*
X23294650Y-20741595D01*
X23992850Y-20671625D01*
X112493000Y-20671625D01*
X112493000Y-39302243D01*
X112493000Y-39302243D01*
G37*
X112493000Y-39302243D02*
X112423205Y-39133744D01*
X112309937Y-38964226D01*
X112266000Y-38920289D01*
X112266000Y-35283333D01*
X112269677Y-35246000D01*
X112255003Y-35097014D01*
X112211546Y-34953753D01*
X112140974Y-34821724D01*
X112069799Y-34734997D01*
X112046001Y-34705999D01*
X112017003Y-34682201D01*
X102022873Y-24688072D01*
X102850000Y-24688072D01*
X102974482Y-24675812D01*
X103094180Y-24639502D01*
X103204494Y-24580537D01*
X103301185Y-24501185D01*
X103380537Y-24404494D01*
X103439502Y-24294180D01*
X103475812Y-24174482D01*
X103488072Y-24050000D01*
X103488072Y-22350000D01*
X106911928Y-22350000D01*
X106911928Y-24050000D01*
X106924188Y-24174482D01*
X106960498Y-24294180D01*
X107019463Y-24404494D01*
X107098815Y-24501185D01*
X107195506Y-24580537D01*
X107305820Y-24639502D01*
X107425518Y-24675812D01*
X107550000Y-24688072D01*
X109250000Y-24688072D01*
X109374482Y-24675812D01*
X109494180Y-24639502D01*
X109604494Y-24580537D01*
X109701185Y-24501185D01*
X109780537Y-24404494D01*
X109839502Y-24294180D01*
X109860393Y-24225313D01*
X109884866Y-24255134D01*
X110110986Y-24440706D01*
X110368966Y-24578599D01*
X110648889Y-24663513D01*
X110867050Y-24685000D01*
X111012950Y-24685000D01*
X111231111Y-24663513D01*
X111511034Y-24578599D01*
X111769014Y-24440706D01*
X111995134Y-24255134D01*
X112180706Y-24029014D01*
X112318599Y-23771034D01*
X112403513Y-23491111D01*
X112432185Y-23200000D01*
X112403513Y-22908889D01*
X112318599Y-22628966D01*
X112180706Y-22370986D01*
X111995134Y-22144866D01*
X111769014Y-21959294D01*
X111511034Y-21821401D01*
X111231111Y-21736487D01*
X111012950Y-21715000D01*
X110867050Y-21715000D01*
X110648889Y-21736487D01*
X110368966Y-21821401D01*
X110110986Y-21959294D01*
X109884866Y-22144866D01*
X109860393Y-22174687D01*
X109839502Y-22105820D01*
X109780537Y-21995506D01*
X109701185Y-21898815D01*
X109604494Y-21819463D01*
X109494180Y-21760498D01*
X109374482Y-21724188D01*
X109250000Y-21711928D01*
X107550000Y-21711928D01*
X107425518Y-21724188D01*
X107305820Y-21760498D01*
X107195506Y-21819463D01*
X107098815Y-21898815D01*
X107019463Y-21995506D01*
X106960498Y-22105820D01*
X106924188Y-22225518D01*
X106911928Y-22350000D01*
X103488072Y-22350000D01*
X103475812Y-22225518D01*
X103439502Y-22105820D01*
X103380537Y-21995506D01*
X103301185Y-21898815D01*
X103204494Y-21819463D01*
X103094180Y-21760498D01*
X102974482Y-21724188D01*
X102850000Y-21711928D01*
X101150000Y-21711928D01*
X101025518Y-21724188D01*
X100905820Y-21760498D01*
X100795506Y-21819463D01*
X100698815Y-21898815D01*
X100619463Y-21995506D01*
X100560498Y-22105820D01*
X100539607Y-22174687D01*
X100515134Y-22144866D01*
X100289014Y-21959294D01*
X100031034Y-21821401D01*
X99751111Y-21736487D01*
X99532950Y-21715000D01*
X99387050Y-21715000D01*
X99168889Y-21736487D01*
X98888966Y-21821401D01*
X98630986Y-21959294D01*
X98404866Y-22144866D01*
X98219294Y-22370986D01*
X98190000Y-22425791D01*
X98160706Y-22370986D01*
X97975134Y-22144866D01*
X97749014Y-21959294D01*
X97491034Y-21821401D01*
X97211111Y-21736487D01*
X96992950Y-21715000D01*
X96847050Y-21715000D01*
X96628889Y-21736487D01*
X96348966Y-21821401D01*
X96090986Y-21959294D01*
X95864866Y-22144866D01*
X95679294Y-22370986D01*
X95650000Y-22425791D01*
X95620706Y-22370986D01*
X95435134Y-22144866D01*
X95209014Y-21959294D01*
X94951034Y-21821401D01*
X94671111Y-21736487D01*
X94452950Y-21715000D01*
X94307050Y-21715000D01*
X94088889Y-21736487D01*
X93808966Y-21821401D01*
X93550986Y-21959294D01*
X93324866Y-22144866D01*
X93139294Y-22370986D01*
X93104799Y-22435523D01*
X93035178Y-22318645D01*
X92840269Y-22102412D01*
X92606920Y-21928359D01*
X92344099Y-21803175D01*
X92196890Y-21758524D01*
X91967000Y-21879845D01*
X91967000Y-23073000D01*
X91987000Y-23073000D01*
X91987000Y-23327000D01*
X91967000Y-23327000D01*
X91967000Y-24520155D01*
X92196890Y-24641476D01*
X92344099Y-24596825D01*
X92606920Y-24471641D01*
X92840269Y-24297588D01*
X93035178Y-24081355D01*
X93104799Y-23964477D01*
X93139294Y-24029014D01*
X93324866Y-24255134D01*
X93550986Y-24440706D01*
X93808966Y-24578599D01*
X94088889Y-24663513D01*
X94307050Y-24685000D01*
X94452950Y-24685000D01*
X94671111Y-24663513D01*
X94951034Y-24578599D01*
X95209014Y-24440706D01*
X95435134Y-24255134D01*
X95620706Y-24029014D01*
X95650000Y-23974209D01*
X95679294Y-24029014D01*
X95864866Y-24255134D01*
X96090986Y-24440706D01*
X96348966Y-24578599D01*
X96628889Y-24663513D01*
X96847050Y-24685000D01*
X96992950Y-24685000D01*
X97211111Y-24663513D01*
X97285996Y-24640797D01*
X108714001Y-36068803D01*
X108714000Y-38920289D01*
X108670063Y-38964226D01*
X108556795Y-39133744D01*
X108481615Y-39315243D01*
X108417205Y-39159744D01*
X108303937Y-38990226D01*
X108159774Y-38846063D01*
X107990256Y-38732795D01*
X107801898Y-38654774D01*
X107601939Y-38615000D01*
X107539802Y-38615000D01*
X96493804Y-27569003D01*
X96470001Y-27539999D01*
X96354276Y-27445026D01*
X96222247Y-27374454D01*
X96078986Y-27330997D01*
X95967333Y-27320000D01*
X95967322Y-27320000D01*
X95930000Y-27316324D01*
X95892678Y-27320000D01*
X91380247Y-27320000D01*
X91419226Y-27225898D01*
X91459000Y-27025939D01*
X91459000Y-26822061D01*
X91419226Y-26622102D01*
X91341205Y-26433744D01*
X91227937Y-26264226D01*
X91083774Y-26120063D01*
X90914256Y-26006795D01*
X90725898Y-25928774D01*
X90525939Y-25889000D01*
X90322061Y-25889000D01*
X90122102Y-25928774D01*
X89933744Y-26006795D01*
X89764226Y-26120063D01*
X89720289Y-26164000D01*
X62379711Y-26164000D01*
X62335774Y-26120063D01*
X62166256Y-26006795D01*
X61977898Y-25928774D01*
X61777939Y-25889000D01*
X61574061Y-25889000D01*
X61374102Y-25928774D01*
X61185744Y-26006795D01*
X61016226Y-26120063D01*
X60972289Y-26164000D01*
X58238802Y-26164000D01*
X55631693Y-23556891D01*
X90398519Y-23556891D01*
X90495843Y-23831252D01*
X90644822Y-24081355D01*
X90839731Y-24297588D01*
X91073080Y-24471641D01*
X91335901Y-24596825D01*
X91483110Y-24641476D01*
X91713000Y-24520155D01*
X91713000Y-23327000D01*
X90519186Y-23327000D01*
X90398519Y-23556891D01*
X55631693Y-23556891D01*
X55488072Y-23413271D01*
X55488072Y-22843109D01*
X90398519Y-22843109D01*
X90519186Y-23073000D01*
X91713000Y-23073000D01*
X91713000Y-21879845D01*
X91483110Y-21758524D01*
X91335901Y-21803175D01*
X91073080Y-21928359D01*
X90839731Y-22102412D01*
X90644822Y-22318645D01*
X90495843Y-22568748D01*
X90398519Y-22843109D01*
X55488072Y-22843109D01*
X55488072Y-22150000D01*
X55475812Y-22025518D01*
X55439502Y-21905820D01*
X55380537Y-21795506D01*
X55301185Y-21698815D01*
X55204494Y-21619463D01*
X55094180Y-21560498D01*
X54974482Y-21524188D01*
X54850000Y-21511928D01*
X53150000Y-21511928D01*
X53025518Y-21524188D01*
X52905820Y-21560498D01*
X52795506Y-21619463D01*
X52698815Y-21698815D01*
X52619463Y-21795506D01*
X52560498Y-21905820D01*
X52524188Y-22025518D01*
X52511928Y-22150000D01*
X52511928Y-22240000D01*
X25988072Y-22240000D01*
X25988072Y-22100000D01*
X25975812Y-21975518D01*
X25939502Y-21855820D01*
X25880537Y-21745506D01*
X25801185Y-21648815D01*
X25704494Y-21569463D01*
X25594180Y-21510498D01*
X25474482Y-21474188D01*
X25350000Y-21461928D01*
X23650000Y-21461928D01*
X23525518Y-21474188D01*
X23405820Y-21510498D01*
X23295506Y-21569463D01*
X23198815Y-21648815D01*
X23119463Y-21745506D01*
X23060498Y-21855820D01*
X23024188Y-21975518D01*
X23011928Y-22100000D01*
X23011928Y-23800000D01*
X23024188Y-23924482D01*
X23060498Y-24044180D01*
X23119463Y-24154494D01*
X23198815Y-24251185D01*
X23295506Y-24330537D01*
X23405820Y-24389502D01*
X23486466Y-24413966D01*
X23402412Y-24489731D01*
X23228359Y-24723080D01*
X23103175Y-24985901D01*
X23058524Y-25133110D01*
X23179845Y-25363000D01*
X24373000Y-25363000D01*
X24373000Y-25343000D01*
X24627000Y-25343000D01*
X24627000Y-25363000D01*
X25820155Y-25363000D01*
X25941476Y-25133110D01*
X25896825Y-24985901D01*
X25771641Y-24723080D01*
X25597588Y-24489731D01*
X25513534Y-24413966D01*
X25594180Y-24389502D01*
X25704494Y-24330537D01*
X25801185Y-24251185D01*
X25880537Y-24154494D01*
X25939502Y-24044180D01*
X25975812Y-23924482D01*
X25988072Y-23800000D01*
X25988072Y-23760000D01*
X52511928Y-23760000D01*
X52511928Y-23850000D01*
X52524188Y-23974482D01*
X52560498Y-24094180D01*
X52619463Y-24204494D01*
X52698815Y-24301185D01*
X52795506Y-24380537D01*
X52905820Y-24439502D01*
X52986466Y-24463966D01*
X52902412Y-24539731D01*
X52728359Y-24773080D01*
X52603175Y-25035901D01*
X52558524Y-25183110D01*
X52679845Y-25413000D01*
X53873000Y-25413000D01*
X53873000Y-25393000D01*
X54127000Y-25393000D01*
X54127000Y-25413000D01*
X54147000Y-25413000D01*
X54147000Y-25667000D01*
X54127000Y-25667000D01*
X54127000Y-25687000D01*
X53873000Y-25687000D01*
X53873000Y-25667000D01*
X52679845Y-25667000D01*
X52558524Y-25896890D01*
X52603175Y-26044099D01*
X52728359Y-26306920D01*
X52902412Y-26540269D01*
X53118645Y-26735178D01*
X53235523Y-26804799D01*
X53170986Y-26839294D01*
X52944866Y-27024866D01*
X52759294Y-27250986D01*
X52749131Y-27270000D01*
X25777595Y-27270000D01*
X25740706Y-27200986D01*
X25555134Y-26974866D01*
X25329014Y-26789294D01*
X25264477Y-26754799D01*
X25381355Y-26685178D01*
X25597588Y-26490269D01*
X25771641Y-26256920D01*
X25896825Y-25994099D01*
X25941476Y-25846890D01*
X25820155Y-25617000D01*
X24627000Y-25617000D01*
X24627000Y-25637000D01*
X24373000Y-25637000D01*
X24373000Y-25617000D01*
X23179845Y-25617000D01*
X23058524Y-25846890D01*
X23103175Y-25994099D01*
X23228359Y-26256920D01*
X23402412Y-26490269D01*
X23618645Y-26685178D01*
X23735523Y-26754799D01*
X23670986Y-26789294D01*
X23444866Y-26974866D01*
X23259294Y-27200986D01*
X23121401Y-27458966D01*
X23036487Y-27738889D01*
X23007815Y-28030000D01*
X23036487Y-28321111D01*
X23121401Y-28601034D01*
X23259294Y-28859014D01*
X23444866Y-29085134D01*
X23670986Y-29270706D01*
X23725791Y-29300000D01*
X23670986Y-29329294D01*
X23444866Y-29514866D01*
X23259294Y-29740986D01*
X23121401Y-29998966D01*
X23036487Y-30278889D01*
X23007815Y-30570000D01*
X23036487Y-30861111D01*
X23121401Y-31141034D01*
X23259294Y-31399014D01*
X23444866Y-31625134D01*
X23670986Y-31810706D01*
X23928966Y-31948599D01*
X24208889Y-32033513D01*
X24427050Y-32055000D01*
X24572950Y-32055000D01*
X24791111Y-32033513D01*
X25071034Y-31948599D01*
X25329014Y-31810706D01*
X25555134Y-31625134D01*
X25740706Y-31399014D01*
X25777595Y-31330000D01*
X52695680Y-31330000D01*
X52759294Y-31449014D01*
X52944866Y-31675134D01*
X53170986Y-31860706D01*
X53225791Y-31890000D01*
X53170986Y-31919294D01*
X52944866Y-32104866D01*
X52759294Y-32330986D01*
X52621401Y-32588966D01*
X52536487Y-32868889D01*
X52507815Y-33160000D01*
X52536487Y-33451111D01*
X52621401Y-33731034D01*
X52759294Y-33989014D01*
X52944866Y-34215134D01*
X53170986Y-34400706D01*
X53428966Y-34538599D01*
X53708889Y-34623513D01*
X53927050Y-34645000D01*
X54072950Y-34645000D01*
X54291111Y-34623513D01*
X54571034Y-34538599D01*
X54829014Y-34400706D01*
X55055134Y-34215134D01*
X55240706Y-33989014D01*
X55378599Y-33731034D01*
X55463513Y-33451111D01*
X55492185Y-33160000D01*
X55463513Y-32868889D01*
X55378599Y-32588966D01*
X55240706Y-32330986D01*
X55055134Y-32104866D01*
X54829014Y-31919294D01*
X54774209Y-31890000D01*
X54829014Y-31860706D01*
X55055134Y-31675134D01*
X55240706Y-31449014D01*
X55277595Y-31380000D01*
X85392983Y-31380000D01*
X85364774Y-31448102D01*
X85325000Y-31648061D01*
X85325000Y-31851939D01*
X85364774Y-32051898D01*
X85442795Y-32240256D01*
X85556063Y-32409774D01*
X85600001Y-32453712D01*
X85600000Y-35110289D01*
X85556063Y-35154226D01*
X85442795Y-35323744D01*
X85364774Y-35512102D01*
X85325000Y-35712061D01*
X85325000Y-35915939D01*
X85364774Y-36115898D01*
X85442795Y-36304256D01*
X85556063Y-36473774D01*
X85700226Y-36617937D01*
X85869744Y-36731205D01*
X86058102Y-36809226D01*
X86258061Y-36849000D01*
X86461939Y-36849000D01*
X86661898Y-36809226D01*
X86850256Y-36731205D01*
X87019774Y-36617937D01*
X87163937Y-36473774D01*
X87277205Y-36304256D01*
X87355226Y-36115898D01*
X87395000Y-35915939D01*
X87395000Y-35712061D01*
X87355226Y-35512102D01*
X87277205Y-35323744D01*
X87163937Y-35154226D01*
X87120000Y-35110289D01*
X87120000Y-32510000D01*
X88206451Y-32510000D01*
X88158774Y-32625102D01*
X88119000Y-32825061D01*
X88119000Y-33028939D01*
X88158774Y-33228898D01*
X88236795Y-33417256D01*
X88350063Y-33586774D01*
X88394001Y-33630712D01*
X88394000Y-35110289D01*
X88350063Y-35154226D01*
X88236795Y-35323744D01*
X88158774Y-35512102D01*
X88119000Y-35712061D01*
X88119000Y-35915939D01*
X88158774Y-36115898D01*
X88236795Y-36304256D01*
X88350063Y-36473774D01*
X88494226Y-36617937D01*
X88663744Y-36731205D01*
X88852102Y-36809226D01*
X89052061Y-36849000D01*
X89255939Y-36849000D01*
X89455898Y-36809226D01*
X89644256Y-36731205D01*
X89813774Y-36617937D01*
X89957937Y-36473774D01*
X90071205Y-36304256D01*
X90149226Y-36115898D01*
X90189000Y-35915939D01*
X90189000Y-35712061D01*
X90149226Y-35512102D01*
X90071205Y-35323744D01*
X89957937Y-35154226D01*
X89914000Y-35110289D01*
X89914000Y-33630711D01*
X89957937Y-33586774D01*
X90071205Y-33417256D01*
X90149226Y-33228898D01*
X90189000Y-33028939D01*
X90189000Y-32825061D01*
X90149226Y-32625102D01*
X90101549Y-32510000D01*
X95435199Y-32510000D01*
X102565000Y-39639803D01*
X102565000Y-39701939D01*
X102604774Y-39901898D01*
X102682795Y-40090256D01*
X102782950Y-40240148D01*
X101631804Y-39089003D01*
X101608001Y-39059999D01*
X101492276Y-38965026D01*
X101360247Y-38894454D01*
X101216986Y-38850997D01*
X101105333Y-38840000D01*
X101105322Y-38840000D01*
X101068000Y-38836324D01*
X101030678Y-38840000D01*
X100303711Y-38840000D01*
X100259774Y-38796063D01*
X100090256Y-38682795D01*
X99901898Y-38604774D01*
X99701939Y-38565000D01*
X99498061Y-38565000D01*
X99298102Y-38604774D01*
X99109744Y-38682795D01*
X98940226Y-38796063D01*
X98796063Y-38940226D01*
X98682795Y-39109744D01*
X98604774Y-39298102D01*
X98565000Y-39498061D01*
X98565000Y-39701939D01*
X98604774Y-39901898D01*
X98682795Y-40090256D01*
X98796063Y-40259774D01*
X98940226Y-40403937D01*
X99109744Y-40517205D01*
X99298102Y-40595226D01*
X99498061Y-40635000D01*
X99701939Y-40635000D01*
X99901898Y-40595226D01*
X100090256Y-40517205D01*
X100259774Y-40403937D01*
X100303711Y-40360000D01*
X100753199Y-40360000D01*
X105391000Y-44997802D01*
X105391000Y-45059939D01*
X105430774Y-45259898D01*
X105508795Y-45448256D01*
X105622063Y-45617774D01*
X105766226Y-45761937D01*
X105935744Y-45875205D01*
X106124102Y-45953226D01*
X106324061Y-45993000D01*
X106527939Y-45993000D01*
X106727898Y-45953226D01*
X106916256Y-45875205D01*
X107085774Y-45761937D01*
X107229937Y-45617774D01*
X107343205Y-45448256D01*
X107421226Y-45259898D01*
X107461000Y-45059939D01*
X107461000Y-44856061D01*
X107421226Y-44656102D01*
X107343205Y-44467744D01*
X107229937Y-44298226D01*
X107085774Y-44154063D01*
X106916256Y-44040795D01*
X106727898Y-43962774D01*
X106527939Y-43923000D01*
X106465802Y-43923000D01*
X102959852Y-40417050D01*
X103109744Y-40517205D01*
X103298102Y-40595226D01*
X103498061Y-40635000D01*
X103701939Y-40635000D01*
X103901898Y-40595226D01*
X104090256Y-40517205D01*
X104259774Y-40403937D01*
X104403937Y-40259774D01*
X104517205Y-40090256D01*
X104594957Y-39902546D01*
X104604774Y-39951898D01*
X104682795Y-40140256D01*
X104796063Y-40309774D01*
X104940226Y-40453937D01*
X105109744Y-40567205D01*
X105298102Y-40645226D01*
X105498061Y-40685000D01*
X105701939Y-40685000D01*
X105901898Y-40645226D01*
X106090256Y-40567205D01*
X106259774Y-40453937D01*
X106403937Y-40309774D01*
X106517205Y-40140256D01*
X106550000Y-40061082D01*
X106582795Y-40140256D01*
X106696063Y-40309774D01*
X106840226Y-40453937D01*
X107009744Y-40567205D01*
X107198102Y-40645226D01*
X107398061Y-40685000D01*
X107601939Y-40685000D01*
X107801898Y-40645226D01*
X107990256Y-40567205D01*
X108159774Y-40453937D01*
X108303937Y-40309774D01*
X108417205Y-40140256D01*
X108492385Y-39958757D01*
X108556795Y-40114256D01*
X108670063Y-40283774D01*
X108814226Y-40427937D01*
X108983744Y-40541205D01*
X109172102Y-40619226D01*
X109372061Y-40659000D01*
X109575939Y-40659000D01*
X109775898Y-40619226D01*
X109964256Y-40541205D01*
X110133774Y-40427937D01*
X110277937Y-40283774D01*
X110391205Y-40114256D01*
X110469226Y-39925898D01*
X110490000Y-39821459D01*
X110510774Y-39925898D01*
X110588795Y-40114256D01*
X110702063Y-40283774D01*
X110846226Y-40427937D01*
X111015744Y-40541205D01*
X111204102Y-40619226D01*
X111404061Y-40659000D01*
X111607939Y-40659000D01*
X111807898Y-40619226D01*
X111996256Y-40541205D01*
X112165774Y-40427937D01*
X112309937Y-40283774D01*
X112423205Y-40114256D01*
X112493000Y-39945757D01*
X112493000Y-49179015D01*
X105691117Y-49179015D01*
X105691117Y-48150120D01*
X105694673Y-48114015D01*
X105680482Y-47969930D01*
X105638454Y-47831382D01*
X105570204Y-47703695D01*
X105478355Y-47591777D01*
X105366437Y-47499928D01*
X105358584Y-47495731D01*
X105490114Y-47204025D01*
X105537695Y-47019645D01*
X105421572Y-46727000D01*
X95077000Y-46727000D01*
X95077000Y-46747000D01*
X94823000Y-46747000D01*
X94823000Y-46727000D01*
X84478428Y-46727000D01*
X84362305Y-47019645D01*
X84409886Y-47204025D01*
X84543983Y-47501424D01*
X84433888Y-47591777D01*
X84342039Y-47703695D01*
X84273789Y-47831382D01*
X84231761Y-47969930D01*
X84217570Y-48114015D01*
X84221126Y-48150120D01*
X84221126Y-49179015D01*
X76782789Y-49179015D01*
X76784774Y-49177239D01*
X76808933Y-49150949D01*
X76835217Y-49126773D01*
X76841126Y-49120068D01*
X76847707Y-49112495D01*
X76851414Y-49107277D01*
X76855971Y-49102791D01*
X76863925Y-49091109D01*
X76869291Y-49085270D01*
X76881250Y-49065665D01*
X76887559Y-49056398D01*
X76920046Y-49010669D01*
X76922665Y-49004839D01*
X76926269Y-48999546D01*
X76930498Y-48991674D01*
X76935660Y-48981904D01*
X76937410Y-48977625D01*
X76939897Y-48973741D01*
X76961029Y-48919892D01*
X76963109Y-48914808D01*
X76971230Y-48896731D01*
X76972168Y-48892665D01*
X76974538Y-48886873D01*
X76977546Y-48880407D01*
X76978087Y-48878198D01*
X76982955Y-48866298D01*
X76983840Y-48861767D01*
X76985527Y-48857468D01*
X76987904Y-48848854D01*
X76991819Y-48834270D01*
X76998110Y-48796380D01*
X77007238Y-48759082D01*
X77008443Y-48750227D01*
X77011283Y-48728213D01*
X77011702Y-48714509D01*
X77012276Y-48711051D01*
X77012202Y-48708657D01*
X77014777Y-48693837D01*
X77015378Y-48684921D01*
X77017315Y-48652859D01*
X77017081Y-48646614D01*
X77017946Y-48640417D01*
X77018248Y-48631485D01*
X77019452Y-48586758D01*
X77019402Y-48586049D01*
X77019489Y-48585339D01*
X77019647Y-48576404D01*
X77020291Y-48516394D01*
X77020277Y-48516239D01*
X77020325Y-48511621D01*
X77020580Y-48433712D01*
X77020571Y-48433612D01*
X77020583Y-48431947D01*
X77020622Y-48356513D01*
X77020868Y-48256614D01*
X77020858Y-48256511D01*
X77020870Y-48254620D01*
X77020817Y-48174006D01*
X77020494Y-48170730D01*
X77020779Y-48167452D01*
X77020619Y-48158517D01*
X77019659Y-48119912D01*
X77019659Y-48119887D01*
X77019062Y-48095917D01*
X77017023Y-48079375D01*
X77017371Y-48062708D01*
X77016622Y-48053803D01*
X77012360Y-48007007D01*
X77004211Y-47964305D01*
X76998618Y-47921186D01*
X76996548Y-47912493D01*
X76988380Y-47879216D01*
X76978558Y-47851310D01*
X76971658Y-47822534D01*
X76961852Y-47801198D01*
X76973049Y-47771475D01*
X76975307Y-47762829D01*
X76979535Y-47746170D01*
X76982147Y-47728985D01*
X76984461Y-47720913D01*
X76984711Y-47717941D01*
X76988816Y-47703567D01*
X76990357Y-47694764D01*
X76994098Y-47672496D01*
X76994957Y-47660017D01*
X76997752Y-47647815D01*
X76998826Y-47638944D01*
X77002110Y-47610132D01*
X77002216Y-47603389D01*
X77003491Y-47596769D01*
X77004254Y-47587866D01*
X77007110Y-47551577D01*
X77007050Y-47548472D01*
X77007566Y-47545406D01*
X77008118Y-47536487D01*
X77010575Y-47491785D01*
X77010543Y-47491043D01*
X77010655Y-47490305D01*
X77011063Y-47481378D01*
X77013152Y-47427329D01*
X77013146Y-47427231D01*
X77013393Y-47420004D01*
X77015142Y-47355672D01*
X77015131Y-47355515D01*
X77015262Y-47350467D01*
X77016701Y-47274918D01*
X77016689Y-47274765D01*
X77016761Y-47271187D01*
X77017920Y-47183487D01*
X77017909Y-47183359D01*
X77017950Y-47180789D01*
X77018857Y-47080002D01*
X77018848Y-47079903D01*
X77018872Y-47078067D01*
X77019558Y-46963258D01*
X77019550Y-46963171D01*
X77019564Y-46961870D01*
X77020058Y-46832106D01*
X77020053Y-46832048D01*
X77020061Y-46831129D01*
X77020393Y-46685474D01*
X77020390Y-46685440D01*
X77020395Y-46684795D01*
X77020593Y-46522315D01*
X77020590Y-46522283D01*
X77020593Y-46521869D01*
X77020687Y-46341629D01*
X77020685Y-46341611D01*
X77020687Y-46341363D01*
X77020703Y-46180355D01*
X84362305Y-46180355D01*
X84478428Y-46473000D01*
X94823000Y-46473000D01*
X94823000Y-44715000D01*
X95077000Y-44715000D01*
X95077000Y-46473000D01*
X105421572Y-46473000D01*
X105537695Y-46180355D01*
X105490114Y-45995975D01*
X105337878Y-45658347D01*
X105122699Y-45356906D01*
X104852847Y-45103237D01*
X104538691Y-44907088D01*
X104192305Y-44775996D01*
X103827000Y-44715000D01*
X95077000Y-44715000D01*
X94823000Y-44715000D01*
X86073000Y-44715000D01*
X85707695Y-44775996D01*
X85361309Y-44907088D01*
X85047153Y-45103237D01*
X84777301Y-45356906D01*
X84562122Y-45658347D01*
X84409886Y-45995975D01*
X84362305Y-46180355D01*
X77020703Y-46180355D01*
X77020708Y-46142428D01*
X77020707Y-46142419D01*
X77020708Y-46142293D01*
X77020685Y-45923729D01*
X77020685Y-45923692D01*
X77020646Y-45684564D01*
X77020622Y-45423981D01*
X77020622Y-45381889D01*
X77020636Y-45119026D01*
X77020661Y-44877798D01*
X77020661Y-44877761D01*
X77020671Y-44657194D01*
X77020670Y-44657186D01*
X77020671Y-44657073D01*
X77020642Y-44456260D01*
X77020641Y-44456245D01*
X77020642Y-44456021D01*
X77020548Y-44274018D01*
X77020546Y-44273996D01*
X77020548Y-44273624D01*
X77020362Y-44109491D01*
X77020358Y-44109453D01*
X77020361Y-44108898D01*
X77020058Y-43961694D01*
X77020052Y-43961636D01*
X77020055Y-43960841D01*
X77019610Y-43829622D01*
X77019603Y-43829554D01*
X77019605Y-43828416D01*
X77019025Y-43718490D01*
X77019025Y-43718488D01*
X77018992Y-43712238D01*
X77018983Y-43712147D01*
X77018981Y-43710563D01*
X77018175Y-43608491D01*
X77018162Y-43608369D01*
X77018152Y-43606166D01*
X77017127Y-43517255D01*
X77017112Y-43517115D01*
X77017082Y-43514037D01*
X77015812Y-43437344D01*
X77015794Y-43437191D01*
X77015723Y-43432878D01*
X77014183Y-43367464D01*
X77014166Y-43367324D01*
X77014005Y-43361205D01*
X77012169Y-43306127D01*
X77012168Y-43306119D01*
X77011812Y-43297265D01*
X77009655Y-43251581D01*
X77009376Y-43249669D01*
X77009462Y-43247738D01*
X77008924Y-43238818D01*
X77006420Y-43201587D01*
X77005611Y-43196724D01*
X77005686Y-43191792D01*
X77004887Y-43182891D01*
X77002011Y-43153170D01*
X77000149Y-43143702D01*
X76999871Y-43134053D01*
X76998682Y-43125196D01*
X76995408Y-43102045D01*
X76991356Y-43085359D01*
X76989705Y-43068265D01*
X76987920Y-43059509D01*
X76984222Y-43041986D01*
X76975504Y-43014365D01*
X76973916Y-43006558D01*
X76972221Y-42996257D01*
X76971346Y-42993922D01*
X76969730Y-42985978D01*
X76967043Y-42977455D01*
X76962897Y-42964617D01*
X76951606Y-42938646D01*
X76946627Y-42922872D01*
X76940590Y-42911854D01*
X76928389Y-42879295D01*
X76924395Y-42871301D01*
X76919773Y-42862208D01*
X76919148Y-42861229D01*
X76918724Y-42860155D01*
X76914886Y-42854188D01*
X76913095Y-42850069D01*
X76906109Y-42839979D01*
X76905547Y-42838661D01*
X76894124Y-42821910D01*
X76885560Y-42808595D01*
X76852579Y-42756915D01*
X76851781Y-42756081D01*
X76851153Y-42755105D01*
X76845559Y-42748136D01*
X76840438Y-42741846D01*
X76837512Y-42738894D01*
X76835174Y-42735466D01*
X76793570Y-42694568D01*
X76779544Y-42680420D01*
X76762717Y-42662300D01*
X76758686Y-42659380D01*
X76752501Y-42653141D01*
X76749063Y-42650818D01*
X76746099Y-42647904D01*
X76739106Y-42642340D01*
X76733458Y-42637910D01*
X76696790Y-42614542D01*
X76661564Y-42589024D01*
X76653818Y-42584567D01*
X76647619Y-42581057D01*
X76641582Y-42578380D01*
X76636099Y-42574689D01*
X76628204Y-42570503D01*
X76621429Y-42566969D01*
X76618294Y-42565706D01*
X76613686Y-42562657D01*
X76612464Y-42562156D01*
X76610154Y-42560678D01*
X76602164Y-42556676D01*
X76596931Y-42554100D01*
X76560913Y-42540555D01*
X76558155Y-42539260D01*
X76543039Y-42531448D01*
X76539103Y-42530310D01*
X76533801Y-42527819D01*
X76520883Y-42524607D01*
X76498117Y-42515273D01*
X76489540Y-42512766D01*
X76481364Y-42510438D01*
X76480324Y-42510249D01*
X76480018Y-42510134D01*
X76476274Y-42509514D01*
X76451859Y-42505079D01*
X76423050Y-42496748D01*
X76414253Y-42495177D01*
X76402040Y-42493083D01*
X76386562Y-42491966D01*
X76371403Y-42488589D01*
X76362525Y-42487569D01*
X76345179Y-42485698D01*
X76337731Y-42485626D01*
X76330409Y-42484278D01*
X76321500Y-42483588D01*
X76297928Y-42481928D01*
X76295033Y-42482007D01*
X76292168Y-42481548D01*
X76283245Y-42481064D01*
X76252353Y-42479601D01*
X76252064Y-42479616D01*
X76251771Y-42479573D01*
X76242841Y-42479221D01*
X76203532Y-42477945D01*
X76203394Y-42477954D01*
X76197237Y-42477772D01*
X76148420Y-42476668D01*
X76148266Y-42476680D01*
X76144105Y-42476585D01*
X76084682Y-42475642D01*
X76084546Y-42475653D01*
X76081671Y-42475601D01*
X76010548Y-42474807D01*
X76010436Y-42474817D01*
X76008423Y-42474787D01*
X75924506Y-42474129D01*
X75924420Y-42474137D01*
X75922982Y-42474119D01*
X75825177Y-42473585D01*
X75825121Y-42473590D01*
X75824078Y-42473579D01*
X75711289Y-42473157D01*
X75711237Y-42473162D01*
X75710503Y-42473155D01*
X75581638Y-42472831D01*
X75581601Y-42472835D01*
X75581067Y-42472830D01*
X75435030Y-42472593D01*
X75435009Y-42472595D01*
X75434622Y-42472592D01*
X75270317Y-42472430D01*
X75270297Y-42472432D01*
X75270034Y-42472430D01*
X75086368Y-42472330D01*
X75086355Y-42472331D01*
X75086177Y-42472330D01*
X74882054Y-42472280D01*
X74882046Y-42472281D01*
X74881936Y-42472280D01*
X74670792Y-42472267D01*
X73272046Y-42472267D01*
X73270939Y-42470996D01*
X73247875Y-42449224D01*
X73227014Y-42425332D01*
X73220465Y-42419252D01*
X73148574Y-42353434D01*
X73101726Y-42318293D01*
X73055306Y-42282578D01*
X73048703Y-42278520D01*
X73048654Y-42278483D01*
X73048604Y-42278459D01*
X73047693Y-42277899D01*
X72972600Y-42232468D01*
X72967659Y-42230104D01*
X72963221Y-42226903D01*
X72911379Y-42203171D01*
X72859931Y-42178550D01*
X72854629Y-42177191D01*
X72849650Y-42174912D01*
X72841180Y-42172062D01*
X72758429Y-42144859D01*
X72704755Y-42132864D01*
X72651378Y-42119616D01*
X72642527Y-42118382D01*
X72564893Y-42108108D01*
X72515043Y-42106421D01*
X72465266Y-42102767D01*
X72456335Y-42103049D01*
X72352449Y-42107044D01*
X72291361Y-42115415D01*
X72229474Y-42123816D01*
X72228738Y-42123996D01*
X72228700Y-42124001D01*
X72228659Y-42124015D01*
X72220793Y-42125937D01*
X72124519Y-42150175D01*
X72123509Y-42150537D01*
X72122461Y-42150698D01*
X72064722Y-42171622D01*
X72006946Y-42192345D01*
X72006037Y-42192890D01*
X72005029Y-42193255D01*
X71996992Y-42197162D01*
X71910408Y-42239994D01*
X71908954Y-42240900D01*
X71907351Y-42241516D01*
X71855851Y-42273981D01*
X71804391Y-42306038D01*
X71803143Y-42307207D01*
X71801688Y-42308124D01*
X71794668Y-42313654D01*
X71719857Y-42373432D01*
X71718651Y-42374606D01*
X71717250Y-42375527D01*
X71673888Y-42418177D01*
X71630351Y-42460554D01*
X71629400Y-42461933D01*
X71628200Y-42463114D01*
X71622520Y-42470013D01*
X71602039Y-42495238D01*
X71581295Y-42498925D01*
X71543791Y-42513531D01*
X71505349Y-42525495D01*
X71497141Y-42529028D01*
X71470244Y-42540828D01*
X71443318Y-42555930D01*
X71415026Y-42568297D01*
X71388975Y-42586409D01*
X71361303Y-42601930D01*
X71337825Y-42621973D01*
X71312472Y-42639600D01*
X71305708Y-42645440D01*
X71278602Y-42669178D01*
X71267145Y-42681383D01*
X71254063Y-42691826D01*
X71247700Y-42698101D01*
X71209319Y-42736483D01*
X71171845Y-42782104D01*
X71133794Y-42827452D01*
X71132171Y-42830404D01*
X71130037Y-42833002D01*
X71102138Y-42885034D01*
X71073620Y-42936908D01*
X71072601Y-42940120D01*
X71071013Y-42943082D01*
X71053726Y-42999624D01*
X71035853Y-43055968D01*
X71035478Y-43059307D01*
X71034493Y-43062530D01*
X71028517Y-43121368D01*
X71021929Y-43180095D01*
X71021883Y-43186675D01*
X71021871Y-43186797D01*
X71021882Y-43186910D01*
X71021867Y-43189031D01*
X71021867Y-43368388D01*
X71001828Y-43356523D01*
X70974550Y-43336841D01*
X70966796Y-43332399D01*
X70820876Y-43250140D01*
X70788480Y-43235844D01*
X70757421Y-43218858D01*
X70749176Y-43215413D01*
X70595144Y-43152321D01*
X70562266Y-43142473D01*
X70530375Y-43129762D01*
X70521773Y-43127339D01*
X70357483Y-43082298D01*
X70334551Y-43078365D01*
X70312273Y-43071651D01*
X70303494Y-43069981D01*
X70207937Y-43052491D01*
X70185800Y-43050643D01*
X70164063Y-43046022D01*
X70155175Y-43045089D01*
X69996442Y-43029522D01*
X69964345Y-43029521D01*
X69932389Y-43026468D01*
X69923453Y-43026553D01*
X69765048Y-43029158D01*
X69732909Y-43032844D01*
X69700547Y-43033483D01*
X69691680Y-43034593D01*
X69531539Y-43055767D01*
X69502003Y-43062658D01*
X69471919Y-43066542D01*
X69463225Y-43068607D01*
X69299285Y-43108747D01*
X69274203Y-43117559D01*
X69248288Y-43123500D01*
X69239834Y-43126397D01*
X69070032Y-43185901D01*
X69050127Y-43195146D01*
X69029192Y-43201801D01*
X69021006Y-43205385D01*
X68843276Y-43284649D01*
X68836613Y-43288440D01*
X68829400Y-43291037D01*
X68821355Y-43294928D01*
X68811615Y-43299721D01*
X68759736Y-43324922D01*
X68718419Y-43344222D01*
X68695101Y-43354552D01*
X68674891Y-43359430D01*
X68641227Y-43374964D01*
X68606436Y-43387769D01*
X68584649Y-43401072D01*
X68561477Y-43411764D01*
X68531472Y-43433539D01*
X68499830Y-43452859D01*
X68481047Y-43470135D01*
X68460387Y-43485128D01*
X68453744Y-43491104D01*
X68449133Y-43495310D01*
X68427828Y-43518946D01*
X68404347Y-43540436D01*
X68386108Y-43565233D01*
X68365506Y-43588090D01*
X68349198Y-43615415D01*
X68330338Y-43641056D01*
X68317262Y-43668925D01*
X68301493Y-43695346D01*
X68290804Y-43725312D01*
X68277281Y-43754134D01*
X68269868Y-43784008D01*
X68259530Y-43812992D01*
X68254864Y-43844475D01*
X68247200Y-43875364D01*
X68245731Y-43906110D01*
X68241220Y-43936549D01*
X68242758Y-43968329D01*
X68241238Y-44000127D01*
X68244644Y-44023017D01*
X68225660Y-44018393D01*
X68225654Y-44018391D01*
X68216957Y-44016337D01*
X68129294Y-43996275D01*
X68126019Y-43995856D01*
X68122883Y-43994843D01*
X68114139Y-43993000D01*
X68039551Y-43977822D01*
X68032459Y-43977089D01*
X68025593Y-43975142D01*
X68016788Y-43973617D01*
X67950953Y-43962683D01*
X67940770Y-43962001D01*
X67930833Y-43959669D01*
X67921967Y-43958548D01*
X67860564Y-43951217D01*
X67849746Y-43950989D01*
X67839105Y-43949021D01*
X67830196Y-43948324D01*
X67768901Y-43943955D01*
X67760575Y-43944176D01*
X67752326Y-43942989D01*
X67743397Y-43942648D01*
X67677889Y-43940600D01*
X67674550Y-43940822D01*
X67671215Y-43940425D01*
X67662280Y-43940302D01*
X67604262Y-43939904D01*
X67593969Y-43940842D01*
X67583657Y-43940094D01*
X67574725Y-43940383D01*
X67405279Y-43947046D01*
X67380605Y-43950449D01*
X67355697Y-43950929D01*
X67346829Y-43952035D01*
X67194911Y-43972050D01*
X67164103Y-43979222D01*
X67132754Y-43983385D01*
X67124067Y-43985481D01*
X66988804Y-44019116D01*
X66952362Y-44032066D01*
X66915040Y-44042269D01*
X66906714Y-44045514D01*
X66787231Y-44093037D01*
X66747336Y-44113619D01*
X66706352Y-44131980D01*
X66698624Y-44136467D01*
X66594047Y-44198147D01*
X66558050Y-44224428D01*
X66520630Y-44248651D01*
X66513677Y-44254265D01*
X66436068Y-44317825D01*
X66408369Y-44345444D01*
X66379544Y-44370255D01*
X66366464Y-44356092D01*
X66359747Y-44350198D01*
X66254340Y-44258966D01*
X66228542Y-44240716D01*
X66204624Y-44220054D01*
X66197288Y-44214952D01*
X66152123Y-44184000D01*
X66129878Y-44171760D01*
X66109201Y-44157020D01*
X66101422Y-44152623D01*
X66000472Y-44096475D01*
X65963081Y-44080231D01*
X65926873Y-44061477D01*
X65918551Y-44058219D01*
X65815261Y-44018608D01*
X65773253Y-44007052D01*
X65732004Y-43993027D01*
X65723289Y-43991051D01*
X65613201Y-43966891D01*
X65574589Y-43962302D01*
X65536409Y-43954870D01*
X65527506Y-43954089D01*
X65406165Y-43944294D01*
X65381206Y-43944723D01*
X65364055Y-43942995D01*
X65365239Y-43888009D01*
X65366614Y-43842180D01*
X65366640Y-43841611D01*
X65384252Y-43808573D01*
X65413009Y-43755388D01*
X65413572Y-43753570D01*
X65414469Y-43751887D01*
X65432060Y-43693844D01*
X65449945Y-43636068D01*
X65450144Y-43634175D01*
X65450697Y-43632350D01*
X65456680Y-43571991D01*
X65463001Y-43511846D01*
X65462829Y-43509953D01*
X65463017Y-43508053D01*
X65457166Y-43447723D01*
X65451681Y-43387454D01*
X65451143Y-43385625D01*
X65450959Y-43383730D01*
X65433509Y-43325711D01*
X65416415Y-43267630D01*
X65415533Y-43265944D01*
X65414984Y-43264117D01*
X65386588Y-43210577D01*
X65358546Y-43156938D01*
X65357352Y-43155453D01*
X65356460Y-43153771D01*
X65318196Y-43106752D01*
X65280280Y-43059593D01*
X65278820Y-43058368D01*
X65277619Y-43056892D01*
X65231004Y-43018245D01*
X65184596Y-42979305D01*
X65182927Y-42978388D01*
X65181461Y-42977172D01*
X65128190Y-42948295D01*
X65075140Y-42919131D01*
X65073326Y-42918556D01*
X65071650Y-42917647D01*
X65013718Y-42899647D01*
X64956080Y-42881364D01*
X64954191Y-42881152D01*
X64952369Y-42880586D01*
X64892151Y-42874193D01*
X64831953Y-42867440D01*
X64828309Y-42867415D01*
X64828161Y-42867399D01*
X64828009Y-42867413D01*
X64823017Y-42867378D01*
X63917689Y-42867378D01*
X63857763Y-42873254D01*
X63797838Y-42878700D01*
X63795647Y-42879345D01*
X63793379Y-42879567D01*
X63735846Y-42896937D01*
X63678010Y-42913952D01*
X63675984Y-42915011D01*
X63673804Y-42915669D01*
X63620670Y-42943921D01*
X63567311Y-42971808D01*
X63565535Y-42973236D01*
X63563518Y-42974308D01*
X63516895Y-43012333D01*
X63469957Y-43050063D01*
X63468487Y-43051814D01*
X63466723Y-43053253D01*
X63428412Y-43099563D01*
X63389658Y-43145738D01*
X63388559Y-43147737D01*
X63387105Y-43149495D01*
X63358521Y-43202359D01*
X63329471Y-43255187D01*
X63328780Y-43257366D01*
X63327697Y-43259368D01*
X63309919Y-43316800D01*
X63291690Y-43374242D01*
X63291435Y-43376509D01*
X63290761Y-43378688D01*
X63284476Y-43438485D01*
X63277752Y-43498368D01*
X63277721Y-43502757D01*
X63277705Y-43502910D01*
X63277719Y-43503063D01*
X63277689Y-43507304D01*
X63277493Y-45192171D01*
X63277493Y-45192193D01*
X63277474Y-45426533D01*
X63277474Y-45426584D01*
X63277448Y-45639357D01*
X63277448Y-45639360D01*
X63277375Y-45831568D01*
X63277375Y-45831588D01*
X63277218Y-46004602D01*
X63276938Y-46158773D01*
X63276496Y-46295956D01*
X63275859Y-46416229D01*
X63274988Y-46521241D01*
X63273861Y-46611420D01*
X63272458Y-46687568D01*
X63270779Y-46750556D01*
X63268873Y-46800461D01*
X63267651Y-46822976D01*
X63258531Y-46839135D01*
X63243543Y-46873057D01*
X63225904Y-46905679D01*
X63218359Y-46930051D01*
X63208049Y-46953386D01*
X63199936Y-46989567D01*
X63188968Y-47024999D01*
X63186301Y-47050376D01*
X63180720Y-47075265D01*
X63179789Y-47112336D01*
X63175912Y-47149221D01*
X63178224Y-47174625D01*
X63177583Y-47200132D01*
X63183871Y-47236683D01*
X63187232Y-47273613D01*
X63194436Y-47298089D01*
X63198761Y-47323230D01*
X63212026Y-47357856D01*
X63222498Y-47393437D01*
X63234319Y-47416049D01*
X63243445Y-47439870D01*
X63263186Y-47471265D01*
X63280367Y-47504129D01*
X63296353Y-47524011D01*
X63309933Y-47545609D01*
X63335388Y-47572563D01*
X63357186Y-47599674D01*
X63326068Y-47637557D01*
X63288016Y-47682906D01*
X63286393Y-47685858D01*
X63284259Y-47688456D01*
X63256357Y-47740494D01*
X63227842Y-47792362D01*
X63226823Y-47795574D01*
X63225235Y-47798536D01*
X63207948Y-47855078D01*
X63190075Y-47911422D01*
X63189700Y-47914761D01*
X63188715Y-47917984D01*
X63182739Y-47976822D01*
X63176151Y-48035549D01*
X63176105Y-48042129D01*
X63176093Y-48042251D01*
X63176104Y-48042364D01*
X63176089Y-48044485D01*
X63176089Y-48353920D01*
X63176092Y-48353950D01*
X63176089Y-48354428D01*
X63176162Y-48446307D01*
X63176174Y-48446432D01*
X63176169Y-48448846D01*
X63176512Y-48520887D01*
X63176526Y-48521024D01*
X63176573Y-48527193D01*
X63177376Y-48582133D01*
X63177634Y-48584419D01*
X63177459Y-48586717D01*
X63177717Y-48595650D01*
X63179168Y-48636230D01*
X63180415Y-48645513D01*
X63180107Y-48654880D01*
X63180749Y-48663794D01*
X63183038Y-48692750D01*
X63187029Y-48715112D01*
X63188210Y-48737798D01*
X63189605Y-48746624D01*
X63192921Y-48766698D01*
X63202879Y-48803914D01*
X63204985Y-48815713D01*
X63206323Y-48819142D01*
X63213045Y-48851837D01*
X63215750Y-48860354D01*
X63220281Y-48874284D01*
X63223959Y-48882694D01*
X63225207Y-48887360D01*
X63232368Y-48901927D01*
X63243973Y-48928464D01*
X63246355Y-48934069D01*
X63253185Y-48953841D01*
X63258978Y-48963772D01*
X63267119Y-48982928D01*
X63270276Y-48988618D01*
X63270324Y-48988727D01*
X63270388Y-48988819D01*
X63271455Y-48990742D01*
X63277391Y-49001266D01*
X63298014Y-49030692D01*
X63316121Y-49061732D01*
X63321406Y-49068938D01*
X63326061Y-49075193D01*
X63336218Y-49086372D01*
X63344608Y-49098927D01*
X63348734Y-49103060D01*
X63349079Y-49103552D01*
X63352452Y-49106783D01*
X63378140Y-49132513D01*
X63410055Y-49167641D01*
X63422186Y-49176631D01*
X63424566Y-49179015D01*
X55691121Y-49179015D01*
X55691121Y-48150120D01*
X55694677Y-48114015D01*
X55680486Y-47969930D01*
X55638458Y-47831382D01*
X55570208Y-47703695D01*
X55478359Y-47591777D01*
X55366441Y-47499928D01*
X55319708Y-47474949D01*
X55399939Y-47324848D01*
X55507725Y-46969524D01*
X55544120Y-46600000D01*
X55507725Y-46230476D01*
X55399939Y-45875152D01*
X55224903Y-45547683D01*
X54989345Y-45260655D01*
X54702317Y-45025097D01*
X54374848Y-44850061D01*
X54019524Y-44742275D01*
X53742597Y-44715000D01*
X45760000Y-44715000D01*
X45760000Y-43450700D01*
X45867205Y-43290256D01*
X45945226Y-43101898D01*
X45985000Y-42901939D01*
X45985000Y-42698061D01*
X45945226Y-42498102D01*
X45867205Y-42309744D01*
X45753937Y-42140226D01*
X45609774Y-41996063D01*
X45440256Y-41882795D01*
X45251898Y-41804774D01*
X45051939Y-41765000D01*
X44848061Y-41765000D01*
X44648102Y-41804774D01*
X44459744Y-41882795D01*
X44290226Y-41996063D01*
X44146063Y-42140226D01*
X44032795Y-42309744D01*
X43954774Y-42498102D01*
X43915000Y-42698061D01*
X43915000Y-42901939D01*
X43954774Y-43101898D01*
X44032795Y-43290256D01*
X44146063Y-43459774D01*
X44240001Y-43553712D01*
X44240000Y-44715000D01*
X36057403Y-44715000D01*
X35780476Y-44742275D01*
X35425152Y-44850061D01*
X35097683Y-45025097D01*
X34810655Y-45260655D01*
X34575097Y-45547683D01*
X34400061Y-45875152D01*
X34292275Y-46230476D01*
X34255880Y-46600000D01*
X34292275Y-46969524D01*
X34400061Y-47324848D01*
X34509547Y-47529681D01*
X34433883Y-47591777D01*
X34342034Y-47703695D01*
X34273784Y-47831382D01*
X34231756Y-47969930D01*
X34217565Y-48114015D01*
X34221121Y-48150120D01*
X34221121Y-49179015D01*
X23992848Y-49179015D01*
X23294651Y-49109046D01*
X22716813Y-48930420D01*
X21654671Y-48215468D01*
X20939717Y-47153327D01*
X20761090Y-46575484D01*
X20691121Y-45877286D01*
X20691121Y-43492061D01*
X25715000Y-43492061D01*
X25715000Y-43695939D01*
X25754774Y-43895898D01*
X25832795Y-44084256D01*
X25946063Y-44253774D01*
X26090226Y-44397937D01*
X26259744Y-44511205D01*
X26448102Y-44589226D01*
X26648061Y-44629000D01*
X26851939Y-44629000D01*
X27051898Y-44589226D01*
X27240256Y-44511205D01*
X27409774Y-44397937D01*
X27553937Y-44253774D01*
X27667205Y-44084256D01*
X27745226Y-43895898D01*
X27785000Y-43695939D01*
X27785000Y-43492061D01*
X27745226Y-43292102D01*
X27667205Y-43103744D01*
X27553937Y-42934226D01*
X27510000Y-42890289D01*
X27510000Y-41876801D01*
X28821802Y-40565000D01*
X28883939Y-40565000D01*
X29083898Y-40525226D01*
X29272256Y-40447205D01*
X29441774Y-40333937D01*
X29585937Y-40189774D01*
X29699205Y-40020256D01*
X29777226Y-39831898D01*
X29817000Y-39631939D01*
X29817000Y-39428061D01*
X29777226Y-39228102D01*
X29765586Y-39200000D01*
X43461928Y-39200000D01*
X43461928Y-40800000D01*
X43474188Y-40924482D01*
X43510498Y-41044180D01*
X43569463Y-41154494D01*
X43648815Y-41251185D01*
X43745506Y-41330537D01*
X43855820Y-41389502D01*
X43975518Y-41425812D01*
X44100000Y-41438072D01*
X45700000Y-41438072D01*
X45824482Y-41425812D01*
X45944180Y-41389502D01*
X46054494Y-41330537D01*
X46151185Y-41251185D01*
X46230537Y-41154494D01*
X46289502Y-41044180D01*
X46325812Y-40924482D01*
X46338072Y-40800000D01*
X46338072Y-39200000D01*
X52961928Y-39200000D01*
X52961928Y-40800000D01*
X52974188Y-40924482D01*
X53010498Y-41044180D01*
X53069463Y-41154494D01*
X53148815Y-41251185D01*
X53245506Y-41330537D01*
X53355820Y-41389502D01*
X53475518Y-41425812D01*
X53600000Y-41438072D01*
X55200000Y-41438072D01*
X55324482Y-41425812D01*
X55444180Y-41389502D01*
X55554494Y-41330537D01*
X55651185Y-41251185D01*
X55730537Y-41154494D01*
X55789502Y-41044180D01*
X55825812Y-40924482D01*
X55838072Y-40800000D01*
X55838072Y-39200000D01*
X55825812Y-39075518D01*
X55789502Y-38955820D01*
X55730537Y-38845506D01*
X55651185Y-38748815D01*
X55554494Y-38669463D01*
X55444180Y-38610498D01*
X55324482Y-38574188D01*
X55200000Y-38561928D01*
X55192785Y-38561928D01*
X55213097Y-38492702D01*
X54400000Y-37679605D01*
X53586903Y-38492702D01*
X53607215Y-38561928D01*
X53600000Y-38561928D01*
X53475518Y-38574188D01*
X53355820Y-38610498D01*
X53245506Y-38669463D01*
X53148815Y-38748815D01*
X53069463Y-38845506D01*
X53010498Y-38955820D01*
X52974188Y-39075518D01*
X52961928Y-39200000D01*
X46338072Y-39200000D01*
X46325812Y-39075518D01*
X46289502Y-38955820D01*
X46230537Y-38845506D01*
X46151185Y-38748815D01*
X46054494Y-38669463D01*
X45944180Y-38610498D01*
X45824482Y-38574188D01*
X45700000Y-38561928D01*
X45692785Y-38561928D01*
X45713097Y-38492702D01*
X44900000Y-37679605D01*
X44086903Y-38492702D01*
X44107215Y-38561928D01*
X44100000Y-38561928D01*
X43975518Y-38574188D01*
X43855820Y-38610498D01*
X43745506Y-38669463D01*
X43648815Y-38748815D01*
X43569463Y-38845506D01*
X43510498Y-38955820D01*
X43474188Y-39075518D01*
X43461928Y-39200000D01*
X29765586Y-39200000D01*
X29699205Y-39039744D01*
X29585937Y-38870226D01*
X29441774Y-38726063D01*
X29272256Y-38612795D01*
X29083898Y-38534774D01*
X28883939Y-38495000D01*
X28680061Y-38495000D01*
X28480102Y-38534774D01*
X28291744Y-38612795D01*
X28122226Y-38726063D01*
X27978063Y-38870226D01*
X27864795Y-39039744D01*
X27786774Y-39228102D01*
X27747000Y-39428061D01*
X27747000Y-39490198D01*
X26239003Y-40998196D01*
X26209999Y-41021999D01*
X26154871Y-41089174D01*
X26115026Y-41137724D01*
X26054379Y-41251185D01*
X26044454Y-41269754D01*
X26000997Y-41413015D01*
X25990000Y-41524668D01*
X25990000Y-41524678D01*
X25986324Y-41562000D01*
X25990000Y-41599323D01*
X25990001Y-42890288D01*
X25946063Y-42934226D01*
X25832795Y-43103744D01*
X25754774Y-43292102D01*
X25715000Y-43492061D01*
X20691121Y-43492061D01*
X20691121Y-37570512D01*
X43459783Y-37570512D01*
X43501213Y-37850130D01*
X43596397Y-38116292D01*
X43663329Y-38241514D01*
X43907298Y-38313097D01*
X44720395Y-37500000D01*
X45079605Y-37500000D01*
X45892702Y-38313097D01*
X46136671Y-38241514D01*
X46257571Y-37986004D01*
X46326300Y-37711816D01*
X46333265Y-37570512D01*
X52959783Y-37570512D01*
X53001213Y-37850130D01*
X53096397Y-38116292D01*
X53163329Y-38241514D01*
X53407298Y-38313097D01*
X54220395Y-37500000D01*
X54579605Y-37500000D01*
X55392702Y-38313097D01*
X55636671Y-38241514D01*
X55757571Y-37986004D01*
X55826300Y-37711816D01*
X55840217Y-37429488D01*
X55798787Y-37149870D01*
X55703603Y-36883708D01*
X55636671Y-36758486D01*
X55392702Y-36686903D01*
X54579605Y-37500000D01*
X54220395Y-37500000D01*
X53407298Y-36686903D01*
X53163329Y-36758486D01*
X53042429Y-37013996D01*
X52973700Y-37288184D01*
X52959783Y-37570512D01*
X46333265Y-37570512D01*
X46340217Y-37429488D01*
X46298787Y-37149870D01*
X46203603Y-36883708D01*
X46136671Y-36758486D01*
X45892702Y-36686903D01*
X45079605Y-37500000D01*
X44720395Y-37500000D01*
X43907298Y-36686903D01*
X43663329Y-36758486D01*
X43542429Y-37013996D01*
X43473700Y-37288184D01*
X43459783Y-37570512D01*
X20691121Y-37570512D01*
X20691121Y-36507298D01*
X44086903Y-36507298D01*
X44900000Y-37320395D01*
X45713097Y-36507298D01*
X53586903Y-36507298D01*
X54400000Y-37320395D01*
X55213097Y-36507298D01*
X55141514Y-36263329D01*
X54886004Y-36142429D01*
X54611816Y-36073700D01*
X54329488Y-36059783D01*
X54049870Y-36101213D01*
X53783708Y-36196397D01*
X53658486Y-36263329D01*
X53586903Y-36507298D01*
X45713097Y-36507298D01*
X45641514Y-36263329D01*
X45386004Y-36142429D01*
X45111816Y-36073700D01*
X44829488Y-36059783D01*
X44549870Y-36101213D01*
X44283708Y-36196397D01*
X44158486Y-36263329D01*
X44086903Y-36507298D01*
X20691121Y-36507298D01*
X20691121Y-23973354D01*
X20761090Y-23275156D01*
X20939717Y-22697313D01*
X21654671Y-21635172D01*
X22716814Y-20920219D01*
X23294650Y-20741595D01*
X23992850Y-20671625D01*
X112493000Y-20671625D01*
X112493000Y-39302243D01*
G36*
X96638243Y-29863044D02*
G01*
X96607333Y-29860000D01*
X96607322Y-29860000D01*
X96570000Y-29856324D01*
X96532678Y-29860000D01*
X55277595Y-29860000D01*
X55240706Y-29790986D01*
X55055134Y-29564866D01*
X54829014Y-29379294D01*
X54774209Y-29350000D01*
X54829014Y-29320706D01*
X55055134Y-29135134D01*
X55240706Y-28909014D01*
X55277595Y-28840000D01*
X95615199Y-28840000D01*
X96638243Y-29863044D01*
X96638243Y-29863044D01*
G37*
X96638243Y-29863044D02*
X96607333Y-29860000D01*
X96607322Y-29860000D01*
X96570000Y-29856324D01*
X96532678Y-29860000D01*
X55277595Y-29860000D01*
X55240706Y-29790986D01*
X55055134Y-29564866D01*
X54829014Y-29379294D01*
X54774209Y-29350000D01*
X54829014Y-29320706D01*
X55055134Y-29135134D01*
X55240706Y-28909014D01*
X55277595Y-28840000D01*
X95615199Y-28840000D01*
X96638243Y-29863044D01*
M02*
