G04 #@! TF.GenerationSoftware,KiCad,Pcbnew,5.1.4-e60b266~84~ubuntu19.04.1*
G04 #@! TF.CreationDate,2019-09-15T17:37:26+02:00*
G04 #@! TF.ProjectId,kicad,6b696361-642e-46b6-9963-61645f706362,rev?*
G04 #@! TF.SameCoordinates,Original*
G04 #@! TF.FileFunction,Paste,Top*
G04 #@! TF.FilePolarity,Positive*
%FSLAX46Y46*%
G04 Gerber Fmt 4.6, Leading zero omitted, Abs format (unit mm)*
G04 Created by KiCad (PCBNEW 5.1.4-e60b266~84~ubuntu19.04.1) date 2019-09-15 17:37:26*
%MOMM*%
%LPD*%
G04 APERTURE LIST*
%ADD10C,0.100000*%
%ADD11C,0.600000*%
%ADD12R,1.800000X1.100000*%
%ADD13C,1.425000*%
%ADD14R,1.000000X2.500000*%
%ADD15R,1.800000X1.000000*%
%ADD16C,1.250000*%
G04 APERTURE END LIST*
D10*
G36*
X36568703Y-38049722D02*
G01*
X36583264Y-38051882D01*
X36597543Y-38055459D01*
X36611403Y-38060418D01*
X36624710Y-38066712D01*
X36637336Y-38074280D01*
X36649159Y-38083048D01*
X36660066Y-38092934D01*
X36669952Y-38103841D01*
X36678720Y-38115664D01*
X36686288Y-38128290D01*
X36692582Y-38141597D01*
X36697541Y-38155457D01*
X36701118Y-38169736D01*
X36703278Y-38184297D01*
X36704000Y-38199000D01*
X36704000Y-38499000D01*
X36703278Y-38513703D01*
X36701118Y-38528264D01*
X36697541Y-38542543D01*
X36692582Y-38556403D01*
X36686288Y-38569710D01*
X36678720Y-38582336D01*
X36669952Y-38594159D01*
X36660066Y-38605066D01*
X36649159Y-38614952D01*
X36637336Y-38623720D01*
X36624710Y-38631288D01*
X36611403Y-38637582D01*
X36597543Y-38642541D01*
X36583264Y-38646118D01*
X36568703Y-38648278D01*
X36554000Y-38649000D01*
X34904000Y-38649000D01*
X34889297Y-38648278D01*
X34874736Y-38646118D01*
X34860457Y-38642541D01*
X34846597Y-38637582D01*
X34833290Y-38631288D01*
X34820664Y-38623720D01*
X34808841Y-38614952D01*
X34797934Y-38605066D01*
X34788048Y-38594159D01*
X34779280Y-38582336D01*
X34771712Y-38569710D01*
X34765418Y-38556403D01*
X34760459Y-38542543D01*
X34756882Y-38528264D01*
X34754722Y-38513703D01*
X34754000Y-38499000D01*
X34754000Y-38199000D01*
X34754722Y-38184297D01*
X34756882Y-38169736D01*
X34760459Y-38155457D01*
X34765418Y-38141597D01*
X34771712Y-38128290D01*
X34779280Y-38115664D01*
X34788048Y-38103841D01*
X34797934Y-38092934D01*
X34808841Y-38083048D01*
X34820664Y-38074280D01*
X34833290Y-38066712D01*
X34846597Y-38060418D01*
X34860457Y-38055459D01*
X34874736Y-38051882D01*
X34889297Y-38049722D01*
X34904000Y-38049000D01*
X36554000Y-38049000D01*
X36568703Y-38049722D01*
X36568703Y-38049722D01*
G37*
D11*
X35729000Y-38349000D03*
D10*
G36*
X36568703Y-39319722D02*
G01*
X36583264Y-39321882D01*
X36597543Y-39325459D01*
X36611403Y-39330418D01*
X36624710Y-39336712D01*
X36637336Y-39344280D01*
X36649159Y-39353048D01*
X36660066Y-39362934D01*
X36669952Y-39373841D01*
X36678720Y-39385664D01*
X36686288Y-39398290D01*
X36692582Y-39411597D01*
X36697541Y-39425457D01*
X36701118Y-39439736D01*
X36703278Y-39454297D01*
X36704000Y-39469000D01*
X36704000Y-39769000D01*
X36703278Y-39783703D01*
X36701118Y-39798264D01*
X36697541Y-39812543D01*
X36692582Y-39826403D01*
X36686288Y-39839710D01*
X36678720Y-39852336D01*
X36669952Y-39864159D01*
X36660066Y-39875066D01*
X36649159Y-39884952D01*
X36637336Y-39893720D01*
X36624710Y-39901288D01*
X36611403Y-39907582D01*
X36597543Y-39912541D01*
X36583264Y-39916118D01*
X36568703Y-39918278D01*
X36554000Y-39919000D01*
X34904000Y-39919000D01*
X34889297Y-39918278D01*
X34874736Y-39916118D01*
X34860457Y-39912541D01*
X34846597Y-39907582D01*
X34833290Y-39901288D01*
X34820664Y-39893720D01*
X34808841Y-39884952D01*
X34797934Y-39875066D01*
X34788048Y-39864159D01*
X34779280Y-39852336D01*
X34771712Y-39839710D01*
X34765418Y-39826403D01*
X34760459Y-39812543D01*
X34756882Y-39798264D01*
X34754722Y-39783703D01*
X34754000Y-39769000D01*
X34754000Y-39469000D01*
X34754722Y-39454297D01*
X34756882Y-39439736D01*
X34760459Y-39425457D01*
X34765418Y-39411597D01*
X34771712Y-39398290D01*
X34779280Y-39385664D01*
X34788048Y-39373841D01*
X34797934Y-39362934D01*
X34808841Y-39353048D01*
X34820664Y-39344280D01*
X34833290Y-39336712D01*
X34846597Y-39330418D01*
X34860457Y-39325459D01*
X34874736Y-39321882D01*
X34889297Y-39319722D01*
X34904000Y-39319000D01*
X36554000Y-39319000D01*
X36568703Y-39319722D01*
X36568703Y-39319722D01*
G37*
D11*
X35729000Y-39619000D03*
D10*
G36*
X36568703Y-40589722D02*
G01*
X36583264Y-40591882D01*
X36597543Y-40595459D01*
X36611403Y-40600418D01*
X36624710Y-40606712D01*
X36637336Y-40614280D01*
X36649159Y-40623048D01*
X36660066Y-40632934D01*
X36669952Y-40643841D01*
X36678720Y-40655664D01*
X36686288Y-40668290D01*
X36692582Y-40681597D01*
X36697541Y-40695457D01*
X36701118Y-40709736D01*
X36703278Y-40724297D01*
X36704000Y-40739000D01*
X36704000Y-41039000D01*
X36703278Y-41053703D01*
X36701118Y-41068264D01*
X36697541Y-41082543D01*
X36692582Y-41096403D01*
X36686288Y-41109710D01*
X36678720Y-41122336D01*
X36669952Y-41134159D01*
X36660066Y-41145066D01*
X36649159Y-41154952D01*
X36637336Y-41163720D01*
X36624710Y-41171288D01*
X36611403Y-41177582D01*
X36597543Y-41182541D01*
X36583264Y-41186118D01*
X36568703Y-41188278D01*
X36554000Y-41189000D01*
X34904000Y-41189000D01*
X34889297Y-41188278D01*
X34874736Y-41186118D01*
X34860457Y-41182541D01*
X34846597Y-41177582D01*
X34833290Y-41171288D01*
X34820664Y-41163720D01*
X34808841Y-41154952D01*
X34797934Y-41145066D01*
X34788048Y-41134159D01*
X34779280Y-41122336D01*
X34771712Y-41109710D01*
X34765418Y-41096403D01*
X34760459Y-41082543D01*
X34756882Y-41068264D01*
X34754722Y-41053703D01*
X34754000Y-41039000D01*
X34754000Y-40739000D01*
X34754722Y-40724297D01*
X34756882Y-40709736D01*
X34760459Y-40695457D01*
X34765418Y-40681597D01*
X34771712Y-40668290D01*
X34779280Y-40655664D01*
X34788048Y-40643841D01*
X34797934Y-40632934D01*
X34808841Y-40623048D01*
X34820664Y-40614280D01*
X34833290Y-40606712D01*
X34846597Y-40600418D01*
X34860457Y-40595459D01*
X34874736Y-40591882D01*
X34889297Y-40589722D01*
X34904000Y-40589000D01*
X36554000Y-40589000D01*
X36568703Y-40589722D01*
X36568703Y-40589722D01*
G37*
D11*
X35729000Y-40889000D03*
D10*
G36*
X36568703Y-41859722D02*
G01*
X36583264Y-41861882D01*
X36597543Y-41865459D01*
X36611403Y-41870418D01*
X36624710Y-41876712D01*
X36637336Y-41884280D01*
X36649159Y-41893048D01*
X36660066Y-41902934D01*
X36669952Y-41913841D01*
X36678720Y-41925664D01*
X36686288Y-41938290D01*
X36692582Y-41951597D01*
X36697541Y-41965457D01*
X36701118Y-41979736D01*
X36703278Y-41994297D01*
X36704000Y-42009000D01*
X36704000Y-42309000D01*
X36703278Y-42323703D01*
X36701118Y-42338264D01*
X36697541Y-42352543D01*
X36692582Y-42366403D01*
X36686288Y-42379710D01*
X36678720Y-42392336D01*
X36669952Y-42404159D01*
X36660066Y-42415066D01*
X36649159Y-42424952D01*
X36637336Y-42433720D01*
X36624710Y-42441288D01*
X36611403Y-42447582D01*
X36597543Y-42452541D01*
X36583264Y-42456118D01*
X36568703Y-42458278D01*
X36554000Y-42459000D01*
X34904000Y-42459000D01*
X34889297Y-42458278D01*
X34874736Y-42456118D01*
X34860457Y-42452541D01*
X34846597Y-42447582D01*
X34833290Y-42441288D01*
X34820664Y-42433720D01*
X34808841Y-42424952D01*
X34797934Y-42415066D01*
X34788048Y-42404159D01*
X34779280Y-42392336D01*
X34771712Y-42379710D01*
X34765418Y-42366403D01*
X34760459Y-42352543D01*
X34756882Y-42338264D01*
X34754722Y-42323703D01*
X34754000Y-42309000D01*
X34754000Y-42009000D01*
X34754722Y-41994297D01*
X34756882Y-41979736D01*
X34760459Y-41965457D01*
X34765418Y-41951597D01*
X34771712Y-41938290D01*
X34779280Y-41925664D01*
X34788048Y-41913841D01*
X34797934Y-41902934D01*
X34808841Y-41893048D01*
X34820664Y-41884280D01*
X34833290Y-41876712D01*
X34846597Y-41870418D01*
X34860457Y-41865459D01*
X34874736Y-41861882D01*
X34889297Y-41859722D01*
X34904000Y-41859000D01*
X36554000Y-41859000D01*
X36568703Y-41859722D01*
X36568703Y-41859722D01*
G37*
D11*
X35729000Y-42159000D03*
D10*
G36*
X31618703Y-41859722D02*
G01*
X31633264Y-41861882D01*
X31647543Y-41865459D01*
X31661403Y-41870418D01*
X31674710Y-41876712D01*
X31687336Y-41884280D01*
X31699159Y-41893048D01*
X31710066Y-41902934D01*
X31719952Y-41913841D01*
X31728720Y-41925664D01*
X31736288Y-41938290D01*
X31742582Y-41951597D01*
X31747541Y-41965457D01*
X31751118Y-41979736D01*
X31753278Y-41994297D01*
X31754000Y-42009000D01*
X31754000Y-42309000D01*
X31753278Y-42323703D01*
X31751118Y-42338264D01*
X31747541Y-42352543D01*
X31742582Y-42366403D01*
X31736288Y-42379710D01*
X31728720Y-42392336D01*
X31719952Y-42404159D01*
X31710066Y-42415066D01*
X31699159Y-42424952D01*
X31687336Y-42433720D01*
X31674710Y-42441288D01*
X31661403Y-42447582D01*
X31647543Y-42452541D01*
X31633264Y-42456118D01*
X31618703Y-42458278D01*
X31604000Y-42459000D01*
X29954000Y-42459000D01*
X29939297Y-42458278D01*
X29924736Y-42456118D01*
X29910457Y-42452541D01*
X29896597Y-42447582D01*
X29883290Y-42441288D01*
X29870664Y-42433720D01*
X29858841Y-42424952D01*
X29847934Y-42415066D01*
X29838048Y-42404159D01*
X29829280Y-42392336D01*
X29821712Y-42379710D01*
X29815418Y-42366403D01*
X29810459Y-42352543D01*
X29806882Y-42338264D01*
X29804722Y-42323703D01*
X29804000Y-42309000D01*
X29804000Y-42009000D01*
X29804722Y-41994297D01*
X29806882Y-41979736D01*
X29810459Y-41965457D01*
X29815418Y-41951597D01*
X29821712Y-41938290D01*
X29829280Y-41925664D01*
X29838048Y-41913841D01*
X29847934Y-41902934D01*
X29858841Y-41893048D01*
X29870664Y-41884280D01*
X29883290Y-41876712D01*
X29896597Y-41870418D01*
X29910457Y-41865459D01*
X29924736Y-41861882D01*
X29939297Y-41859722D01*
X29954000Y-41859000D01*
X31604000Y-41859000D01*
X31618703Y-41859722D01*
X31618703Y-41859722D01*
G37*
D11*
X30779000Y-42159000D03*
D10*
G36*
X31618703Y-40589722D02*
G01*
X31633264Y-40591882D01*
X31647543Y-40595459D01*
X31661403Y-40600418D01*
X31674710Y-40606712D01*
X31687336Y-40614280D01*
X31699159Y-40623048D01*
X31710066Y-40632934D01*
X31719952Y-40643841D01*
X31728720Y-40655664D01*
X31736288Y-40668290D01*
X31742582Y-40681597D01*
X31747541Y-40695457D01*
X31751118Y-40709736D01*
X31753278Y-40724297D01*
X31754000Y-40739000D01*
X31754000Y-41039000D01*
X31753278Y-41053703D01*
X31751118Y-41068264D01*
X31747541Y-41082543D01*
X31742582Y-41096403D01*
X31736288Y-41109710D01*
X31728720Y-41122336D01*
X31719952Y-41134159D01*
X31710066Y-41145066D01*
X31699159Y-41154952D01*
X31687336Y-41163720D01*
X31674710Y-41171288D01*
X31661403Y-41177582D01*
X31647543Y-41182541D01*
X31633264Y-41186118D01*
X31618703Y-41188278D01*
X31604000Y-41189000D01*
X29954000Y-41189000D01*
X29939297Y-41188278D01*
X29924736Y-41186118D01*
X29910457Y-41182541D01*
X29896597Y-41177582D01*
X29883290Y-41171288D01*
X29870664Y-41163720D01*
X29858841Y-41154952D01*
X29847934Y-41145066D01*
X29838048Y-41134159D01*
X29829280Y-41122336D01*
X29821712Y-41109710D01*
X29815418Y-41096403D01*
X29810459Y-41082543D01*
X29806882Y-41068264D01*
X29804722Y-41053703D01*
X29804000Y-41039000D01*
X29804000Y-40739000D01*
X29804722Y-40724297D01*
X29806882Y-40709736D01*
X29810459Y-40695457D01*
X29815418Y-40681597D01*
X29821712Y-40668290D01*
X29829280Y-40655664D01*
X29838048Y-40643841D01*
X29847934Y-40632934D01*
X29858841Y-40623048D01*
X29870664Y-40614280D01*
X29883290Y-40606712D01*
X29896597Y-40600418D01*
X29910457Y-40595459D01*
X29924736Y-40591882D01*
X29939297Y-40589722D01*
X29954000Y-40589000D01*
X31604000Y-40589000D01*
X31618703Y-40589722D01*
X31618703Y-40589722D01*
G37*
D11*
X30779000Y-40889000D03*
D10*
G36*
X31618703Y-39319722D02*
G01*
X31633264Y-39321882D01*
X31647543Y-39325459D01*
X31661403Y-39330418D01*
X31674710Y-39336712D01*
X31687336Y-39344280D01*
X31699159Y-39353048D01*
X31710066Y-39362934D01*
X31719952Y-39373841D01*
X31728720Y-39385664D01*
X31736288Y-39398290D01*
X31742582Y-39411597D01*
X31747541Y-39425457D01*
X31751118Y-39439736D01*
X31753278Y-39454297D01*
X31754000Y-39469000D01*
X31754000Y-39769000D01*
X31753278Y-39783703D01*
X31751118Y-39798264D01*
X31747541Y-39812543D01*
X31742582Y-39826403D01*
X31736288Y-39839710D01*
X31728720Y-39852336D01*
X31719952Y-39864159D01*
X31710066Y-39875066D01*
X31699159Y-39884952D01*
X31687336Y-39893720D01*
X31674710Y-39901288D01*
X31661403Y-39907582D01*
X31647543Y-39912541D01*
X31633264Y-39916118D01*
X31618703Y-39918278D01*
X31604000Y-39919000D01*
X29954000Y-39919000D01*
X29939297Y-39918278D01*
X29924736Y-39916118D01*
X29910457Y-39912541D01*
X29896597Y-39907582D01*
X29883290Y-39901288D01*
X29870664Y-39893720D01*
X29858841Y-39884952D01*
X29847934Y-39875066D01*
X29838048Y-39864159D01*
X29829280Y-39852336D01*
X29821712Y-39839710D01*
X29815418Y-39826403D01*
X29810459Y-39812543D01*
X29806882Y-39798264D01*
X29804722Y-39783703D01*
X29804000Y-39769000D01*
X29804000Y-39469000D01*
X29804722Y-39454297D01*
X29806882Y-39439736D01*
X29810459Y-39425457D01*
X29815418Y-39411597D01*
X29821712Y-39398290D01*
X29829280Y-39385664D01*
X29838048Y-39373841D01*
X29847934Y-39362934D01*
X29858841Y-39353048D01*
X29870664Y-39344280D01*
X29883290Y-39336712D01*
X29896597Y-39330418D01*
X29910457Y-39325459D01*
X29924736Y-39321882D01*
X29939297Y-39319722D01*
X29954000Y-39319000D01*
X31604000Y-39319000D01*
X31618703Y-39319722D01*
X31618703Y-39319722D01*
G37*
D11*
X30779000Y-39619000D03*
D10*
G36*
X31618703Y-38049722D02*
G01*
X31633264Y-38051882D01*
X31647543Y-38055459D01*
X31661403Y-38060418D01*
X31674710Y-38066712D01*
X31687336Y-38074280D01*
X31699159Y-38083048D01*
X31710066Y-38092934D01*
X31719952Y-38103841D01*
X31728720Y-38115664D01*
X31736288Y-38128290D01*
X31742582Y-38141597D01*
X31747541Y-38155457D01*
X31751118Y-38169736D01*
X31753278Y-38184297D01*
X31754000Y-38199000D01*
X31754000Y-38499000D01*
X31753278Y-38513703D01*
X31751118Y-38528264D01*
X31747541Y-38542543D01*
X31742582Y-38556403D01*
X31736288Y-38569710D01*
X31728720Y-38582336D01*
X31719952Y-38594159D01*
X31710066Y-38605066D01*
X31699159Y-38614952D01*
X31687336Y-38623720D01*
X31674710Y-38631288D01*
X31661403Y-38637582D01*
X31647543Y-38642541D01*
X31633264Y-38646118D01*
X31618703Y-38648278D01*
X31604000Y-38649000D01*
X29954000Y-38649000D01*
X29939297Y-38648278D01*
X29924736Y-38646118D01*
X29910457Y-38642541D01*
X29896597Y-38637582D01*
X29883290Y-38631288D01*
X29870664Y-38623720D01*
X29858841Y-38614952D01*
X29847934Y-38605066D01*
X29838048Y-38594159D01*
X29829280Y-38582336D01*
X29821712Y-38569710D01*
X29815418Y-38556403D01*
X29810459Y-38542543D01*
X29806882Y-38528264D01*
X29804722Y-38513703D01*
X29804000Y-38499000D01*
X29804000Y-38199000D01*
X29804722Y-38184297D01*
X29806882Y-38169736D01*
X29810459Y-38155457D01*
X29815418Y-38141597D01*
X29821712Y-38128290D01*
X29829280Y-38115664D01*
X29838048Y-38103841D01*
X29847934Y-38092934D01*
X29858841Y-38083048D01*
X29870664Y-38074280D01*
X29883290Y-38066712D01*
X29896597Y-38060418D01*
X29910457Y-38055459D01*
X29924736Y-38051882D01*
X29939297Y-38049722D01*
X29954000Y-38049000D01*
X31604000Y-38049000D01*
X31618703Y-38049722D01*
X31618703Y-38049722D01*
G37*
D11*
X30779000Y-38349000D03*
D12*
X69902000Y-25218000D03*
X63702000Y-25218000D03*
X69902000Y-21518000D03*
X63702000Y-21518000D03*
X79300000Y-25218000D03*
X73100000Y-25218000D03*
X79300000Y-21518000D03*
X73100000Y-21518000D03*
D10*
G36*
X93867504Y-29224204D02*
G01*
X93891773Y-29227804D01*
X93915571Y-29233765D01*
X93938671Y-29242030D01*
X93960849Y-29252520D01*
X93981893Y-29265133D01*
X94001598Y-29279747D01*
X94019777Y-29296223D01*
X94036253Y-29314402D01*
X94050867Y-29334107D01*
X94063480Y-29355151D01*
X94073970Y-29377329D01*
X94082235Y-29400429D01*
X94088196Y-29424227D01*
X94091796Y-29448496D01*
X94093000Y-29473000D01*
X94093000Y-30398000D01*
X94091796Y-30422504D01*
X94088196Y-30446773D01*
X94082235Y-30470571D01*
X94073970Y-30493671D01*
X94063480Y-30515849D01*
X94050867Y-30536893D01*
X94036253Y-30556598D01*
X94019777Y-30574777D01*
X94001598Y-30591253D01*
X93981893Y-30605867D01*
X93960849Y-30618480D01*
X93938671Y-30628970D01*
X93915571Y-30637235D01*
X93891773Y-30643196D01*
X93867504Y-30646796D01*
X93843000Y-30648000D01*
X92593000Y-30648000D01*
X92568496Y-30646796D01*
X92544227Y-30643196D01*
X92520429Y-30637235D01*
X92497329Y-30628970D01*
X92475151Y-30618480D01*
X92454107Y-30605867D01*
X92434402Y-30591253D01*
X92416223Y-30574777D01*
X92399747Y-30556598D01*
X92385133Y-30536893D01*
X92372520Y-30515849D01*
X92362030Y-30493671D01*
X92353765Y-30470571D01*
X92347804Y-30446773D01*
X92344204Y-30422504D01*
X92343000Y-30398000D01*
X92343000Y-29473000D01*
X92344204Y-29448496D01*
X92347804Y-29424227D01*
X92353765Y-29400429D01*
X92362030Y-29377329D01*
X92372520Y-29355151D01*
X92385133Y-29334107D01*
X92399747Y-29314402D01*
X92416223Y-29296223D01*
X92434402Y-29279747D01*
X92454107Y-29265133D01*
X92475151Y-29252520D01*
X92497329Y-29242030D01*
X92520429Y-29233765D01*
X92544227Y-29227804D01*
X92568496Y-29224204D01*
X92593000Y-29223000D01*
X93843000Y-29223000D01*
X93867504Y-29224204D01*
X93867504Y-29224204D01*
G37*
D13*
X93218000Y-29935500D03*
D10*
G36*
X93867504Y-26249204D02*
G01*
X93891773Y-26252804D01*
X93915571Y-26258765D01*
X93938671Y-26267030D01*
X93960849Y-26277520D01*
X93981893Y-26290133D01*
X94001598Y-26304747D01*
X94019777Y-26321223D01*
X94036253Y-26339402D01*
X94050867Y-26359107D01*
X94063480Y-26380151D01*
X94073970Y-26402329D01*
X94082235Y-26425429D01*
X94088196Y-26449227D01*
X94091796Y-26473496D01*
X94093000Y-26498000D01*
X94093000Y-27423000D01*
X94091796Y-27447504D01*
X94088196Y-27471773D01*
X94082235Y-27495571D01*
X94073970Y-27518671D01*
X94063480Y-27540849D01*
X94050867Y-27561893D01*
X94036253Y-27581598D01*
X94019777Y-27599777D01*
X94001598Y-27616253D01*
X93981893Y-27630867D01*
X93960849Y-27643480D01*
X93938671Y-27653970D01*
X93915571Y-27662235D01*
X93891773Y-27668196D01*
X93867504Y-27671796D01*
X93843000Y-27673000D01*
X92593000Y-27673000D01*
X92568496Y-27671796D01*
X92544227Y-27668196D01*
X92520429Y-27662235D01*
X92497329Y-27653970D01*
X92475151Y-27643480D01*
X92454107Y-27630867D01*
X92434402Y-27616253D01*
X92416223Y-27599777D01*
X92399747Y-27581598D01*
X92385133Y-27561893D01*
X92372520Y-27540849D01*
X92362030Y-27518671D01*
X92353765Y-27495571D01*
X92347804Y-27471773D01*
X92344204Y-27447504D01*
X92343000Y-27423000D01*
X92343000Y-26498000D01*
X92344204Y-26473496D01*
X92347804Y-26449227D01*
X92353765Y-26425429D01*
X92362030Y-26402329D01*
X92372520Y-26380151D01*
X92385133Y-26359107D01*
X92399747Y-26339402D01*
X92416223Y-26321223D01*
X92434402Y-26304747D01*
X92454107Y-26290133D01*
X92475151Y-26277520D01*
X92497329Y-26267030D01*
X92520429Y-26258765D01*
X92544227Y-26252804D01*
X92568496Y-26249204D01*
X92593000Y-26248000D01*
X93843000Y-26248000D01*
X93867504Y-26249204D01*
X93867504Y-26249204D01*
G37*
D13*
X93218000Y-26960500D03*
D14*
X111590000Y-42590000D03*
X109590000Y-42590000D03*
X107590000Y-42590000D03*
X105590000Y-42590000D03*
X103590000Y-42590000D03*
X101590000Y-42590000D03*
X99590000Y-42590000D03*
X97590000Y-42590000D03*
D15*
X96090000Y-39990000D03*
X96090000Y-37990000D03*
X96090000Y-35990000D03*
X96090000Y-33990000D03*
X96090000Y-31990000D03*
X96090000Y-29990000D03*
D14*
X97590000Y-27390000D03*
X99590000Y-27390000D03*
X101590000Y-27390000D03*
X103590000Y-27390000D03*
X105590000Y-27390000D03*
X107590000Y-27390000D03*
X109590000Y-27390000D03*
X111590000Y-27390000D03*
D10*
G36*
X83707504Y-22360204D02*
G01*
X83731773Y-22363804D01*
X83755571Y-22369765D01*
X83778671Y-22378030D01*
X83800849Y-22388520D01*
X83821893Y-22401133D01*
X83841598Y-22415747D01*
X83859777Y-22432223D01*
X83876253Y-22450402D01*
X83890867Y-22470107D01*
X83903480Y-22491151D01*
X83913970Y-22513329D01*
X83922235Y-22536429D01*
X83928196Y-22560227D01*
X83931796Y-22584496D01*
X83933000Y-22609000D01*
X83933000Y-23359000D01*
X83931796Y-23383504D01*
X83928196Y-23407773D01*
X83922235Y-23431571D01*
X83913970Y-23454671D01*
X83903480Y-23476849D01*
X83890867Y-23497893D01*
X83876253Y-23517598D01*
X83859777Y-23535777D01*
X83841598Y-23552253D01*
X83821893Y-23566867D01*
X83800849Y-23579480D01*
X83778671Y-23589970D01*
X83755571Y-23598235D01*
X83731773Y-23604196D01*
X83707504Y-23607796D01*
X83683000Y-23609000D01*
X82433000Y-23609000D01*
X82408496Y-23607796D01*
X82384227Y-23604196D01*
X82360429Y-23598235D01*
X82337329Y-23589970D01*
X82315151Y-23579480D01*
X82294107Y-23566867D01*
X82274402Y-23552253D01*
X82256223Y-23535777D01*
X82239747Y-23517598D01*
X82225133Y-23497893D01*
X82212520Y-23476849D01*
X82202030Y-23454671D01*
X82193765Y-23431571D01*
X82187804Y-23407773D01*
X82184204Y-23383504D01*
X82183000Y-23359000D01*
X82183000Y-22609000D01*
X82184204Y-22584496D01*
X82187804Y-22560227D01*
X82193765Y-22536429D01*
X82202030Y-22513329D01*
X82212520Y-22491151D01*
X82225133Y-22470107D01*
X82239747Y-22450402D01*
X82256223Y-22432223D01*
X82274402Y-22415747D01*
X82294107Y-22401133D01*
X82315151Y-22388520D01*
X82337329Y-22378030D01*
X82360429Y-22369765D01*
X82384227Y-22363804D01*
X82408496Y-22360204D01*
X82433000Y-22359000D01*
X83683000Y-22359000D01*
X83707504Y-22360204D01*
X83707504Y-22360204D01*
G37*
D16*
X83058000Y-22984000D03*
D10*
G36*
X83707504Y-25160204D02*
G01*
X83731773Y-25163804D01*
X83755571Y-25169765D01*
X83778671Y-25178030D01*
X83800849Y-25188520D01*
X83821893Y-25201133D01*
X83841598Y-25215747D01*
X83859777Y-25232223D01*
X83876253Y-25250402D01*
X83890867Y-25270107D01*
X83903480Y-25291151D01*
X83913970Y-25313329D01*
X83922235Y-25336429D01*
X83928196Y-25360227D01*
X83931796Y-25384496D01*
X83933000Y-25409000D01*
X83933000Y-26159000D01*
X83931796Y-26183504D01*
X83928196Y-26207773D01*
X83922235Y-26231571D01*
X83913970Y-26254671D01*
X83903480Y-26276849D01*
X83890867Y-26297893D01*
X83876253Y-26317598D01*
X83859777Y-26335777D01*
X83841598Y-26352253D01*
X83821893Y-26366867D01*
X83800849Y-26379480D01*
X83778671Y-26389970D01*
X83755571Y-26398235D01*
X83731773Y-26404196D01*
X83707504Y-26407796D01*
X83683000Y-26409000D01*
X82433000Y-26409000D01*
X82408496Y-26407796D01*
X82384227Y-26404196D01*
X82360429Y-26398235D01*
X82337329Y-26389970D01*
X82315151Y-26379480D01*
X82294107Y-26366867D01*
X82274402Y-26352253D01*
X82256223Y-26335777D01*
X82239747Y-26317598D01*
X82225133Y-26297893D01*
X82212520Y-26276849D01*
X82202030Y-26254671D01*
X82193765Y-26231571D01*
X82187804Y-26207773D01*
X82184204Y-26183504D01*
X82183000Y-26159000D01*
X82183000Y-25409000D01*
X82184204Y-25384496D01*
X82187804Y-25360227D01*
X82193765Y-25336429D01*
X82202030Y-25313329D01*
X82212520Y-25291151D01*
X82225133Y-25270107D01*
X82239747Y-25250402D01*
X82256223Y-25232223D01*
X82274402Y-25215747D01*
X82294107Y-25201133D01*
X82315151Y-25188520D01*
X82337329Y-25178030D01*
X82360429Y-25169765D01*
X82384227Y-25163804D01*
X82408496Y-25160204D01*
X82433000Y-25159000D01*
X83683000Y-25159000D01*
X83707504Y-25160204D01*
X83707504Y-25160204D01*
G37*
D16*
X83058000Y-25784000D03*
D10*
G36*
X66823504Y-31130204D02*
G01*
X66847773Y-31133804D01*
X66871571Y-31139765D01*
X66894671Y-31148030D01*
X66916849Y-31158520D01*
X66937893Y-31171133D01*
X66957598Y-31185747D01*
X66975777Y-31202223D01*
X66992253Y-31220402D01*
X67006867Y-31240107D01*
X67019480Y-31261151D01*
X67029970Y-31283329D01*
X67038235Y-31306429D01*
X67044196Y-31330227D01*
X67047796Y-31354496D01*
X67049000Y-31379000D01*
X67049000Y-32629000D01*
X67047796Y-32653504D01*
X67044196Y-32677773D01*
X67038235Y-32701571D01*
X67029970Y-32724671D01*
X67019480Y-32746849D01*
X67006867Y-32767893D01*
X66992253Y-32787598D01*
X66975777Y-32805777D01*
X66957598Y-32822253D01*
X66937893Y-32836867D01*
X66916849Y-32849480D01*
X66894671Y-32859970D01*
X66871571Y-32868235D01*
X66847773Y-32874196D01*
X66823504Y-32877796D01*
X66799000Y-32879000D01*
X66049000Y-32879000D01*
X66024496Y-32877796D01*
X66000227Y-32874196D01*
X65976429Y-32868235D01*
X65953329Y-32859970D01*
X65931151Y-32849480D01*
X65910107Y-32836867D01*
X65890402Y-32822253D01*
X65872223Y-32805777D01*
X65855747Y-32787598D01*
X65841133Y-32767893D01*
X65828520Y-32746849D01*
X65818030Y-32724671D01*
X65809765Y-32701571D01*
X65803804Y-32677773D01*
X65800204Y-32653504D01*
X65799000Y-32629000D01*
X65799000Y-31379000D01*
X65800204Y-31354496D01*
X65803804Y-31330227D01*
X65809765Y-31306429D01*
X65818030Y-31283329D01*
X65828520Y-31261151D01*
X65841133Y-31240107D01*
X65855747Y-31220402D01*
X65872223Y-31202223D01*
X65890402Y-31185747D01*
X65910107Y-31171133D01*
X65931151Y-31158520D01*
X65953329Y-31148030D01*
X65976429Y-31139765D01*
X66000227Y-31133804D01*
X66024496Y-31130204D01*
X66049000Y-31129000D01*
X66799000Y-31129000D01*
X66823504Y-31130204D01*
X66823504Y-31130204D01*
G37*
D16*
X66424000Y-32004000D03*
D10*
G36*
X64023504Y-31130204D02*
G01*
X64047773Y-31133804D01*
X64071571Y-31139765D01*
X64094671Y-31148030D01*
X64116849Y-31158520D01*
X64137893Y-31171133D01*
X64157598Y-31185747D01*
X64175777Y-31202223D01*
X64192253Y-31220402D01*
X64206867Y-31240107D01*
X64219480Y-31261151D01*
X64229970Y-31283329D01*
X64238235Y-31306429D01*
X64244196Y-31330227D01*
X64247796Y-31354496D01*
X64249000Y-31379000D01*
X64249000Y-32629000D01*
X64247796Y-32653504D01*
X64244196Y-32677773D01*
X64238235Y-32701571D01*
X64229970Y-32724671D01*
X64219480Y-32746849D01*
X64206867Y-32767893D01*
X64192253Y-32787598D01*
X64175777Y-32805777D01*
X64157598Y-32822253D01*
X64137893Y-32836867D01*
X64116849Y-32849480D01*
X64094671Y-32859970D01*
X64071571Y-32868235D01*
X64047773Y-32874196D01*
X64023504Y-32877796D01*
X63999000Y-32879000D01*
X63249000Y-32879000D01*
X63224496Y-32877796D01*
X63200227Y-32874196D01*
X63176429Y-32868235D01*
X63153329Y-32859970D01*
X63131151Y-32849480D01*
X63110107Y-32836867D01*
X63090402Y-32822253D01*
X63072223Y-32805777D01*
X63055747Y-32787598D01*
X63041133Y-32767893D01*
X63028520Y-32746849D01*
X63018030Y-32724671D01*
X63009765Y-32701571D01*
X63003804Y-32677773D01*
X63000204Y-32653504D01*
X62999000Y-32629000D01*
X62999000Y-31379000D01*
X63000204Y-31354496D01*
X63003804Y-31330227D01*
X63009765Y-31306429D01*
X63018030Y-31283329D01*
X63028520Y-31261151D01*
X63041133Y-31240107D01*
X63055747Y-31220402D01*
X63072223Y-31202223D01*
X63090402Y-31185747D01*
X63110107Y-31171133D01*
X63131151Y-31158520D01*
X63153329Y-31148030D01*
X63176429Y-31139765D01*
X63200227Y-31133804D01*
X63224496Y-31130204D01*
X63249000Y-31129000D01*
X63999000Y-31129000D01*
X64023504Y-31130204D01*
X64023504Y-31130204D01*
G37*
D16*
X63624000Y-32004000D03*
D10*
G36*
X110499504Y-46126204D02*
G01*
X110523773Y-46129804D01*
X110547571Y-46135765D01*
X110570671Y-46144030D01*
X110592849Y-46154520D01*
X110613893Y-46167133D01*
X110633598Y-46181747D01*
X110651777Y-46198223D01*
X110668253Y-46216402D01*
X110682867Y-46236107D01*
X110695480Y-46257151D01*
X110705970Y-46279329D01*
X110714235Y-46302429D01*
X110720196Y-46326227D01*
X110723796Y-46350496D01*
X110725000Y-46375000D01*
X110725000Y-47625000D01*
X110723796Y-47649504D01*
X110720196Y-47673773D01*
X110714235Y-47697571D01*
X110705970Y-47720671D01*
X110695480Y-47742849D01*
X110682867Y-47763893D01*
X110668253Y-47783598D01*
X110651777Y-47801777D01*
X110633598Y-47818253D01*
X110613893Y-47832867D01*
X110592849Y-47845480D01*
X110570671Y-47855970D01*
X110547571Y-47864235D01*
X110523773Y-47870196D01*
X110499504Y-47873796D01*
X110475000Y-47875000D01*
X109725000Y-47875000D01*
X109700496Y-47873796D01*
X109676227Y-47870196D01*
X109652429Y-47864235D01*
X109629329Y-47855970D01*
X109607151Y-47845480D01*
X109586107Y-47832867D01*
X109566402Y-47818253D01*
X109548223Y-47801777D01*
X109531747Y-47783598D01*
X109517133Y-47763893D01*
X109504520Y-47742849D01*
X109494030Y-47720671D01*
X109485765Y-47697571D01*
X109479804Y-47673773D01*
X109476204Y-47649504D01*
X109475000Y-47625000D01*
X109475000Y-46375000D01*
X109476204Y-46350496D01*
X109479804Y-46326227D01*
X109485765Y-46302429D01*
X109494030Y-46279329D01*
X109504520Y-46257151D01*
X109517133Y-46236107D01*
X109531747Y-46216402D01*
X109548223Y-46198223D01*
X109566402Y-46181747D01*
X109586107Y-46167133D01*
X109607151Y-46154520D01*
X109629329Y-46144030D01*
X109652429Y-46135765D01*
X109676227Y-46129804D01*
X109700496Y-46126204D01*
X109725000Y-46125000D01*
X110475000Y-46125000D01*
X110499504Y-46126204D01*
X110499504Y-46126204D01*
G37*
D16*
X110100000Y-47000000D03*
D10*
G36*
X107699504Y-46126204D02*
G01*
X107723773Y-46129804D01*
X107747571Y-46135765D01*
X107770671Y-46144030D01*
X107792849Y-46154520D01*
X107813893Y-46167133D01*
X107833598Y-46181747D01*
X107851777Y-46198223D01*
X107868253Y-46216402D01*
X107882867Y-46236107D01*
X107895480Y-46257151D01*
X107905970Y-46279329D01*
X107914235Y-46302429D01*
X107920196Y-46326227D01*
X107923796Y-46350496D01*
X107925000Y-46375000D01*
X107925000Y-47625000D01*
X107923796Y-47649504D01*
X107920196Y-47673773D01*
X107914235Y-47697571D01*
X107905970Y-47720671D01*
X107895480Y-47742849D01*
X107882867Y-47763893D01*
X107868253Y-47783598D01*
X107851777Y-47801777D01*
X107833598Y-47818253D01*
X107813893Y-47832867D01*
X107792849Y-47845480D01*
X107770671Y-47855970D01*
X107747571Y-47864235D01*
X107723773Y-47870196D01*
X107699504Y-47873796D01*
X107675000Y-47875000D01*
X106925000Y-47875000D01*
X106900496Y-47873796D01*
X106876227Y-47870196D01*
X106852429Y-47864235D01*
X106829329Y-47855970D01*
X106807151Y-47845480D01*
X106786107Y-47832867D01*
X106766402Y-47818253D01*
X106748223Y-47801777D01*
X106731747Y-47783598D01*
X106717133Y-47763893D01*
X106704520Y-47742849D01*
X106694030Y-47720671D01*
X106685765Y-47697571D01*
X106679804Y-47673773D01*
X106676204Y-47649504D01*
X106675000Y-47625000D01*
X106675000Y-46375000D01*
X106676204Y-46350496D01*
X106679804Y-46326227D01*
X106685765Y-46302429D01*
X106694030Y-46279329D01*
X106704520Y-46257151D01*
X106717133Y-46236107D01*
X106731747Y-46216402D01*
X106748223Y-46198223D01*
X106766402Y-46181747D01*
X106786107Y-46167133D01*
X106807151Y-46154520D01*
X106829329Y-46144030D01*
X106852429Y-46135765D01*
X106876227Y-46129804D01*
X106900496Y-46126204D01*
X106925000Y-46125000D01*
X107675000Y-46125000D01*
X107699504Y-46126204D01*
X107699504Y-46126204D01*
G37*
D16*
X107300000Y-47000000D03*
D10*
G36*
X87009504Y-36838204D02*
G01*
X87033773Y-36841804D01*
X87057571Y-36847765D01*
X87080671Y-36856030D01*
X87102849Y-36866520D01*
X87123893Y-36879133D01*
X87143598Y-36893747D01*
X87161777Y-36910223D01*
X87178253Y-36928402D01*
X87192867Y-36948107D01*
X87205480Y-36969151D01*
X87215970Y-36991329D01*
X87224235Y-37014429D01*
X87230196Y-37038227D01*
X87233796Y-37062496D01*
X87235000Y-37087000D01*
X87235000Y-37837000D01*
X87233796Y-37861504D01*
X87230196Y-37885773D01*
X87224235Y-37909571D01*
X87215970Y-37932671D01*
X87205480Y-37954849D01*
X87192867Y-37975893D01*
X87178253Y-37995598D01*
X87161777Y-38013777D01*
X87143598Y-38030253D01*
X87123893Y-38044867D01*
X87102849Y-38057480D01*
X87080671Y-38067970D01*
X87057571Y-38076235D01*
X87033773Y-38082196D01*
X87009504Y-38085796D01*
X86985000Y-38087000D01*
X85735000Y-38087000D01*
X85710496Y-38085796D01*
X85686227Y-38082196D01*
X85662429Y-38076235D01*
X85639329Y-38067970D01*
X85617151Y-38057480D01*
X85596107Y-38044867D01*
X85576402Y-38030253D01*
X85558223Y-38013777D01*
X85541747Y-37995598D01*
X85527133Y-37975893D01*
X85514520Y-37954849D01*
X85504030Y-37932671D01*
X85495765Y-37909571D01*
X85489804Y-37885773D01*
X85486204Y-37861504D01*
X85485000Y-37837000D01*
X85485000Y-37087000D01*
X85486204Y-37062496D01*
X85489804Y-37038227D01*
X85495765Y-37014429D01*
X85504030Y-36991329D01*
X85514520Y-36969151D01*
X85527133Y-36948107D01*
X85541747Y-36928402D01*
X85558223Y-36910223D01*
X85576402Y-36893747D01*
X85596107Y-36879133D01*
X85617151Y-36866520D01*
X85639329Y-36856030D01*
X85662429Y-36847765D01*
X85686227Y-36841804D01*
X85710496Y-36838204D01*
X85735000Y-36837000D01*
X86985000Y-36837000D01*
X87009504Y-36838204D01*
X87009504Y-36838204D01*
G37*
D16*
X86360000Y-37462000D03*
D10*
G36*
X87009504Y-39638204D02*
G01*
X87033773Y-39641804D01*
X87057571Y-39647765D01*
X87080671Y-39656030D01*
X87102849Y-39666520D01*
X87123893Y-39679133D01*
X87143598Y-39693747D01*
X87161777Y-39710223D01*
X87178253Y-39728402D01*
X87192867Y-39748107D01*
X87205480Y-39769151D01*
X87215970Y-39791329D01*
X87224235Y-39814429D01*
X87230196Y-39838227D01*
X87233796Y-39862496D01*
X87235000Y-39887000D01*
X87235000Y-40637000D01*
X87233796Y-40661504D01*
X87230196Y-40685773D01*
X87224235Y-40709571D01*
X87215970Y-40732671D01*
X87205480Y-40754849D01*
X87192867Y-40775893D01*
X87178253Y-40795598D01*
X87161777Y-40813777D01*
X87143598Y-40830253D01*
X87123893Y-40844867D01*
X87102849Y-40857480D01*
X87080671Y-40867970D01*
X87057571Y-40876235D01*
X87033773Y-40882196D01*
X87009504Y-40885796D01*
X86985000Y-40887000D01*
X85735000Y-40887000D01*
X85710496Y-40885796D01*
X85686227Y-40882196D01*
X85662429Y-40876235D01*
X85639329Y-40867970D01*
X85617151Y-40857480D01*
X85596107Y-40844867D01*
X85576402Y-40830253D01*
X85558223Y-40813777D01*
X85541747Y-40795598D01*
X85527133Y-40775893D01*
X85514520Y-40754849D01*
X85504030Y-40732671D01*
X85495765Y-40709571D01*
X85489804Y-40685773D01*
X85486204Y-40661504D01*
X85485000Y-40637000D01*
X85485000Y-39887000D01*
X85486204Y-39862496D01*
X85489804Y-39838227D01*
X85495765Y-39814429D01*
X85504030Y-39791329D01*
X85514520Y-39769151D01*
X85527133Y-39748107D01*
X85541747Y-39728402D01*
X85558223Y-39710223D01*
X85576402Y-39693747D01*
X85596107Y-39679133D01*
X85617151Y-39666520D01*
X85639329Y-39656030D01*
X85662429Y-39647765D01*
X85686227Y-39641804D01*
X85710496Y-39638204D01*
X85735000Y-39637000D01*
X86985000Y-39637000D01*
X87009504Y-39638204D01*
X87009504Y-39638204D01*
G37*
D16*
X86360000Y-40262000D03*
D10*
G36*
X89803504Y-36838204D02*
G01*
X89827773Y-36841804D01*
X89851571Y-36847765D01*
X89874671Y-36856030D01*
X89896849Y-36866520D01*
X89917893Y-36879133D01*
X89937598Y-36893747D01*
X89955777Y-36910223D01*
X89972253Y-36928402D01*
X89986867Y-36948107D01*
X89999480Y-36969151D01*
X90009970Y-36991329D01*
X90018235Y-37014429D01*
X90024196Y-37038227D01*
X90027796Y-37062496D01*
X90029000Y-37087000D01*
X90029000Y-37837000D01*
X90027796Y-37861504D01*
X90024196Y-37885773D01*
X90018235Y-37909571D01*
X90009970Y-37932671D01*
X89999480Y-37954849D01*
X89986867Y-37975893D01*
X89972253Y-37995598D01*
X89955777Y-38013777D01*
X89937598Y-38030253D01*
X89917893Y-38044867D01*
X89896849Y-38057480D01*
X89874671Y-38067970D01*
X89851571Y-38076235D01*
X89827773Y-38082196D01*
X89803504Y-38085796D01*
X89779000Y-38087000D01*
X88529000Y-38087000D01*
X88504496Y-38085796D01*
X88480227Y-38082196D01*
X88456429Y-38076235D01*
X88433329Y-38067970D01*
X88411151Y-38057480D01*
X88390107Y-38044867D01*
X88370402Y-38030253D01*
X88352223Y-38013777D01*
X88335747Y-37995598D01*
X88321133Y-37975893D01*
X88308520Y-37954849D01*
X88298030Y-37932671D01*
X88289765Y-37909571D01*
X88283804Y-37885773D01*
X88280204Y-37861504D01*
X88279000Y-37837000D01*
X88279000Y-37087000D01*
X88280204Y-37062496D01*
X88283804Y-37038227D01*
X88289765Y-37014429D01*
X88298030Y-36991329D01*
X88308520Y-36969151D01*
X88321133Y-36948107D01*
X88335747Y-36928402D01*
X88352223Y-36910223D01*
X88370402Y-36893747D01*
X88390107Y-36879133D01*
X88411151Y-36866520D01*
X88433329Y-36856030D01*
X88456429Y-36847765D01*
X88480227Y-36841804D01*
X88504496Y-36838204D01*
X88529000Y-36837000D01*
X89779000Y-36837000D01*
X89803504Y-36838204D01*
X89803504Y-36838204D01*
G37*
D16*
X89154000Y-37462000D03*
D10*
G36*
X89803504Y-39638204D02*
G01*
X89827773Y-39641804D01*
X89851571Y-39647765D01*
X89874671Y-39656030D01*
X89896849Y-39666520D01*
X89917893Y-39679133D01*
X89937598Y-39693747D01*
X89955777Y-39710223D01*
X89972253Y-39728402D01*
X89986867Y-39748107D01*
X89999480Y-39769151D01*
X90009970Y-39791329D01*
X90018235Y-39814429D01*
X90024196Y-39838227D01*
X90027796Y-39862496D01*
X90029000Y-39887000D01*
X90029000Y-40637000D01*
X90027796Y-40661504D01*
X90024196Y-40685773D01*
X90018235Y-40709571D01*
X90009970Y-40732671D01*
X89999480Y-40754849D01*
X89986867Y-40775893D01*
X89972253Y-40795598D01*
X89955777Y-40813777D01*
X89937598Y-40830253D01*
X89917893Y-40844867D01*
X89896849Y-40857480D01*
X89874671Y-40867970D01*
X89851571Y-40876235D01*
X89827773Y-40882196D01*
X89803504Y-40885796D01*
X89779000Y-40887000D01*
X88529000Y-40887000D01*
X88504496Y-40885796D01*
X88480227Y-40882196D01*
X88456429Y-40876235D01*
X88433329Y-40867970D01*
X88411151Y-40857480D01*
X88390107Y-40844867D01*
X88370402Y-40830253D01*
X88352223Y-40813777D01*
X88335747Y-40795598D01*
X88321133Y-40775893D01*
X88308520Y-40754849D01*
X88298030Y-40732671D01*
X88289765Y-40709571D01*
X88283804Y-40685773D01*
X88280204Y-40661504D01*
X88279000Y-40637000D01*
X88279000Y-39887000D01*
X88280204Y-39862496D01*
X88283804Y-39838227D01*
X88289765Y-39814429D01*
X88298030Y-39791329D01*
X88308520Y-39769151D01*
X88321133Y-39748107D01*
X88335747Y-39728402D01*
X88352223Y-39710223D01*
X88370402Y-39693747D01*
X88390107Y-39679133D01*
X88411151Y-39666520D01*
X88433329Y-39656030D01*
X88456429Y-39647765D01*
X88480227Y-39641804D01*
X88504496Y-39638204D01*
X88529000Y-39637000D01*
X89779000Y-39637000D01*
X89803504Y-39638204D01*
X89803504Y-39638204D01*
G37*
D16*
X89154000Y-40262000D03*
D10*
G36*
X92597504Y-36786204D02*
G01*
X92621773Y-36789804D01*
X92645571Y-36795765D01*
X92668671Y-36804030D01*
X92690849Y-36814520D01*
X92711893Y-36827133D01*
X92731598Y-36841747D01*
X92749777Y-36858223D01*
X92766253Y-36876402D01*
X92780867Y-36896107D01*
X92793480Y-36917151D01*
X92803970Y-36939329D01*
X92812235Y-36962429D01*
X92818196Y-36986227D01*
X92821796Y-37010496D01*
X92823000Y-37035000D01*
X92823000Y-37785000D01*
X92821796Y-37809504D01*
X92818196Y-37833773D01*
X92812235Y-37857571D01*
X92803970Y-37880671D01*
X92793480Y-37902849D01*
X92780867Y-37923893D01*
X92766253Y-37943598D01*
X92749777Y-37961777D01*
X92731598Y-37978253D01*
X92711893Y-37992867D01*
X92690849Y-38005480D01*
X92668671Y-38015970D01*
X92645571Y-38024235D01*
X92621773Y-38030196D01*
X92597504Y-38033796D01*
X92573000Y-38035000D01*
X91323000Y-38035000D01*
X91298496Y-38033796D01*
X91274227Y-38030196D01*
X91250429Y-38024235D01*
X91227329Y-38015970D01*
X91205151Y-38005480D01*
X91184107Y-37992867D01*
X91164402Y-37978253D01*
X91146223Y-37961777D01*
X91129747Y-37943598D01*
X91115133Y-37923893D01*
X91102520Y-37902849D01*
X91092030Y-37880671D01*
X91083765Y-37857571D01*
X91077804Y-37833773D01*
X91074204Y-37809504D01*
X91073000Y-37785000D01*
X91073000Y-37035000D01*
X91074204Y-37010496D01*
X91077804Y-36986227D01*
X91083765Y-36962429D01*
X91092030Y-36939329D01*
X91102520Y-36917151D01*
X91115133Y-36896107D01*
X91129747Y-36876402D01*
X91146223Y-36858223D01*
X91164402Y-36841747D01*
X91184107Y-36827133D01*
X91205151Y-36814520D01*
X91227329Y-36804030D01*
X91250429Y-36795765D01*
X91274227Y-36789804D01*
X91298496Y-36786204D01*
X91323000Y-36785000D01*
X92573000Y-36785000D01*
X92597504Y-36786204D01*
X92597504Y-36786204D01*
G37*
D16*
X91948000Y-37410000D03*
D10*
G36*
X92597504Y-39586204D02*
G01*
X92621773Y-39589804D01*
X92645571Y-39595765D01*
X92668671Y-39604030D01*
X92690849Y-39614520D01*
X92711893Y-39627133D01*
X92731598Y-39641747D01*
X92749777Y-39658223D01*
X92766253Y-39676402D01*
X92780867Y-39696107D01*
X92793480Y-39717151D01*
X92803970Y-39739329D01*
X92812235Y-39762429D01*
X92818196Y-39786227D01*
X92821796Y-39810496D01*
X92823000Y-39835000D01*
X92823000Y-40585000D01*
X92821796Y-40609504D01*
X92818196Y-40633773D01*
X92812235Y-40657571D01*
X92803970Y-40680671D01*
X92793480Y-40702849D01*
X92780867Y-40723893D01*
X92766253Y-40743598D01*
X92749777Y-40761777D01*
X92731598Y-40778253D01*
X92711893Y-40792867D01*
X92690849Y-40805480D01*
X92668671Y-40815970D01*
X92645571Y-40824235D01*
X92621773Y-40830196D01*
X92597504Y-40833796D01*
X92573000Y-40835000D01*
X91323000Y-40835000D01*
X91298496Y-40833796D01*
X91274227Y-40830196D01*
X91250429Y-40824235D01*
X91227329Y-40815970D01*
X91205151Y-40805480D01*
X91184107Y-40792867D01*
X91164402Y-40778253D01*
X91146223Y-40761777D01*
X91129747Y-40743598D01*
X91115133Y-40723893D01*
X91102520Y-40702849D01*
X91092030Y-40680671D01*
X91083765Y-40657571D01*
X91077804Y-40633773D01*
X91074204Y-40609504D01*
X91073000Y-40585000D01*
X91073000Y-39835000D01*
X91074204Y-39810496D01*
X91077804Y-39786227D01*
X91083765Y-39762429D01*
X91092030Y-39739329D01*
X91102520Y-39717151D01*
X91115133Y-39696107D01*
X91129747Y-39676402D01*
X91146223Y-39658223D01*
X91164402Y-39641747D01*
X91184107Y-39627133D01*
X91205151Y-39614520D01*
X91227329Y-39604030D01*
X91250429Y-39595765D01*
X91274227Y-39589804D01*
X91298496Y-39586204D01*
X91323000Y-39585000D01*
X92573000Y-39585000D01*
X92597504Y-39586204D01*
X92597504Y-39586204D01*
G37*
D16*
X91948000Y-40210000D03*
D10*
G36*
X74799504Y-45926204D02*
G01*
X74823773Y-45929804D01*
X74847571Y-45935765D01*
X74870671Y-45944030D01*
X74892849Y-45954520D01*
X74913893Y-45967133D01*
X74933598Y-45981747D01*
X74951777Y-45998223D01*
X74968253Y-46016402D01*
X74982867Y-46036107D01*
X74995480Y-46057151D01*
X75005970Y-46079329D01*
X75014235Y-46102429D01*
X75020196Y-46126227D01*
X75023796Y-46150496D01*
X75025000Y-46175000D01*
X75025000Y-47425000D01*
X75023796Y-47449504D01*
X75020196Y-47473773D01*
X75014235Y-47497571D01*
X75005970Y-47520671D01*
X74995480Y-47542849D01*
X74982867Y-47563893D01*
X74968253Y-47583598D01*
X74951777Y-47601777D01*
X74933598Y-47618253D01*
X74913893Y-47632867D01*
X74892849Y-47645480D01*
X74870671Y-47655970D01*
X74847571Y-47664235D01*
X74823773Y-47670196D01*
X74799504Y-47673796D01*
X74775000Y-47675000D01*
X74025000Y-47675000D01*
X74000496Y-47673796D01*
X73976227Y-47670196D01*
X73952429Y-47664235D01*
X73929329Y-47655970D01*
X73907151Y-47645480D01*
X73886107Y-47632867D01*
X73866402Y-47618253D01*
X73848223Y-47601777D01*
X73831747Y-47583598D01*
X73817133Y-47563893D01*
X73804520Y-47542849D01*
X73794030Y-47520671D01*
X73785765Y-47497571D01*
X73779804Y-47473773D01*
X73776204Y-47449504D01*
X73775000Y-47425000D01*
X73775000Y-46175000D01*
X73776204Y-46150496D01*
X73779804Y-46126227D01*
X73785765Y-46102429D01*
X73794030Y-46079329D01*
X73804520Y-46057151D01*
X73817133Y-46036107D01*
X73831747Y-46016402D01*
X73848223Y-45998223D01*
X73866402Y-45981747D01*
X73886107Y-45967133D01*
X73907151Y-45954520D01*
X73929329Y-45944030D01*
X73952429Y-45935765D01*
X73976227Y-45929804D01*
X74000496Y-45926204D01*
X74025000Y-45925000D01*
X74775000Y-45925000D01*
X74799504Y-45926204D01*
X74799504Y-45926204D01*
G37*
D16*
X74400000Y-46800000D03*
D10*
G36*
X71999504Y-45926204D02*
G01*
X72023773Y-45929804D01*
X72047571Y-45935765D01*
X72070671Y-45944030D01*
X72092849Y-45954520D01*
X72113893Y-45967133D01*
X72133598Y-45981747D01*
X72151777Y-45998223D01*
X72168253Y-46016402D01*
X72182867Y-46036107D01*
X72195480Y-46057151D01*
X72205970Y-46079329D01*
X72214235Y-46102429D01*
X72220196Y-46126227D01*
X72223796Y-46150496D01*
X72225000Y-46175000D01*
X72225000Y-47425000D01*
X72223796Y-47449504D01*
X72220196Y-47473773D01*
X72214235Y-47497571D01*
X72205970Y-47520671D01*
X72195480Y-47542849D01*
X72182867Y-47563893D01*
X72168253Y-47583598D01*
X72151777Y-47601777D01*
X72133598Y-47618253D01*
X72113893Y-47632867D01*
X72092849Y-47645480D01*
X72070671Y-47655970D01*
X72047571Y-47664235D01*
X72023773Y-47670196D01*
X71999504Y-47673796D01*
X71975000Y-47675000D01*
X71225000Y-47675000D01*
X71200496Y-47673796D01*
X71176227Y-47670196D01*
X71152429Y-47664235D01*
X71129329Y-47655970D01*
X71107151Y-47645480D01*
X71086107Y-47632867D01*
X71066402Y-47618253D01*
X71048223Y-47601777D01*
X71031747Y-47583598D01*
X71017133Y-47563893D01*
X71004520Y-47542849D01*
X70994030Y-47520671D01*
X70985765Y-47497571D01*
X70979804Y-47473773D01*
X70976204Y-47449504D01*
X70975000Y-47425000D01*
X70975000Y-46175000D01*
X70976204Y-46150496D01*
X70979804Y-46126227D01*
X70985765Y-46102429D01*
X70994030Y-46079329D01*
X71004520Y-46057151D01*
X71017133Y-46036107D01*
X71031747Y-46016402D01*
X71048223Y-45998223D01*
X71066402Y-45981747D01*
X71086107Y-45967133D01*
X71107151Y-45954520D01*
X71129329Y-45944030D01*
X71152429Y-45935765D01*
X71176227Y-45929804D01*
X71200496Y-45926204D01*
X71225000Y-45925000D01*
X71975000Y-45925000D01*
X71999504Y-45926204D01*
X71999504Y-45926204D01*
G37*
D16*
X71600000Y-46800000D03*
D10*
G36*
X68799504Y-45926204D02*
G01*
X68823773Y-45929804D01*
X68847571Y-45935765D01*
X68870671Y-45944030D01*
X68892849Y-45954520D01*
X68913893Y-45967133D01*
X68933598Y-45981747D01*
X68951777Y-45998223D01*
X68968253Y-46016402D01*
X68982867Y-46036107D01*
X68995480Y-46057151D01*
X69005970Y-46079329D01*
X69014235Y-46102429D01*
X69020196Y-46126227D01*
X69023796Y-46150496D01*
X69025000Y-46175000D01*
X69025000Y-47425000D01*
X69023796Y-47449504D01*
X69020196Y-47473773D01*
X69014235Y-47497571D01*
X69005970Y-47520671D01*
X68995480Y-47542849D01*
X68982867Y-47563893D01*
X68968253Y-47583598D01*
X68951777Y-47601777D01*
X68933598Y-47618253D01*
X68913893Y-47632867D01*
X68892849Y-47645480D01*
X68870671Y-47655970D01*
X68847571Y-47664235D01*
X68823773Y-47670196D01*
X68799504Y-47673796D01*
X68775000Y-47675000D01*
X68025000Y-47675000D01*
X68000496Y-47673796D01*
X67976227Y-47670196D01*
X67952429Y-47664235D01*
X67929329Y-47655970D01*
X67907151Y-47645480D01*
X67886107Y-47632867D01*
X67866402Y-47618253D01*
X67848223Y-47601777D01*
X67831747Y-47583598D01*
X67817133Y-47563893D01*
X67804520Y-47542849D01*
X67794030Y-47520671D01*
X67785765Y-47497571D01*
X67779804Y-47473773D01*
X67776204Y-47449504D01*
X67775000Y-47425000D01*
X67775000Y-46175000D01*
X67776204Y-46150496D01*
X67779804Y-46126227D01*
X67785765Y-46102429D01*
X67794030Y-46079329D01*
X67804520Y-46057151D01*
X67817133Y-46036107D01*
X67831747Y-46016402D01*
X67848223Y-45998223D01*
X67866402Y-45981747D01*
X67886107Y-45967133D01*
X67907151Y-45954520D01*
X67929329Y-45944030D01*
X67952429Y-45935765D01*
X67976227Y-45929804D01*
X68000496Y-45926204D01*
X68025000Y-45925000D01*
X68775000Y-45925000D01*
X68799504Y-45926204D01*
X68799504Y-45926204D01*
G37*
D16*
X68400000Y-46800000D03*
D10*
G36*
X65999504Y-45926204D02*
G01*
X66023773Y-45929804D01*
X66047571Y-45935765D01*
X66070671Y-45944030D01*
X66092849Y-45954520D01*
X66113893Y-45967133D01*
X66133598Y-45981747D01*
X66151777Y-45998223D01*
X66168253Y-46016402D01*
X66182867Y-46036107D01*
X66195480Y-46057151D01*
X66205970Y-46079329D01*
X66214235Y-46102429D01*
X66220196Y-46126227D01*
X66223796Y-46150496D01*
X66225000Y-46175000D01*
X66225000Y-47425000D01*
X66223796Y-47449504D01*
X66220196Y-47473773D01*
X66214235Y-47497571D01*
X66205970Y-47520671D01*
X66195480Y-47542849D01*
X66182867Y-47563893D01*
X66168253Y-47583598D01*
X66151777Y-47601777D01*
X66133598Y-47618253D01*
X66113893Y-47632867D01*
X66092849Y-47645480D01*
X66070671Y-47655970D01*
X66047571Y-47664235D01*
X66023773Y-47670196D01*
X65999504Y-47673796D01*
X65975000Y-47675000D01*
X65225000Y-47675000D01*
X65200496Y-47673796D01*
X65176227Y-47670196D01*
X65152429Y-47664235D01*
X65129329Y-47655970D01*
X65107151Y-47645480D01*
X65086107Y-47632867D01*
X65066402Y-47618253D01*
X65048223Y-47601777D01*
X65031747Y-47583598D01*
X65017133Y-47563893D01*
X65004520Y-47542849D01*
X64994030Y-47520671D01*
X64985765Y-47497571D01*
X64979804Y-47473773D01*
X64976204Y-47449504D01*
X64975000Y-47425000D01*
X64975000Y-46175000D01*
X64976204Y-46150496D01*
X64979804Y-46126227D01*
X64985765Y-46102429D01*
X64994030Y-46079329D01*
X65004520Y-46057151D01*
X65017133Y-46036107D01*
X65031747Y-46016402D01*
X65048223Y-45998223D01*
X65066402Y-45981747D01*
X65086107Y-45967133D01*
X65107151Y-45954520D01*
X65129329Y-45944030D01*
X65152429Y-45935765D01*
X65176227Y-45929804D01*
X65200496Y-45926204D01*
X65225000Y-45925000D01*
X65975000Y-45925000D01*
X65999504Y-45926204D01*
X65999504Y-45926204D01*
G37*
D16*
X65600000Y-46800000D03*
D10*
G36*
X30053504Y-45380204D02*
G01*
X30077773Y-45383804D01*
X30101571Y-45389765D01*
X30124671Y-45398030D01*
X30146849Y-45408520D01*
X30167893Y-45421133D01*
X30187598Y-45435747D01*
X30205777Y-45452223D01*
X30222253Y-45470402D01*
X30236867Y-45490107D01*
X30249480Y-45511151D01*
X30259970Y-45533329D01*
X30268235Y-45556429D01*
X30274196Y-45580227D01*
X30277796Y-45604496D01*
X30279000Y-45629000D01*
X30279000Y-46879000D01*
X30277796Y-46903504D01*
X30274196Y-46927773D01*
X30268235Y-46951571D01*
X30259970Y-46974671D01*
X30249480Y-46996849D01*
X30236867Y-47017893D01*
X30222253Y-47037598D01*
X30205777Y-47055777D01*
X30187598Y-47072253D01*
X30167893Y-47086867D01*
X30146849Y-47099480D01*
X30124671Y-47109970D01*
X30101571Y-47118235D01*
X30077773Y-47124196D01*
X30053504Y-47127796D01*
X30029000Y-47129000D01*
X29279000Y-47129000D01*
X29254496Y-47127796D01*
X29230227Y-47124196D01*
X29206429Y-47118235D01*
X29183329Y-47109970D01*
X29161151Y-47099480D01*
X29140107Y-47086867D01*
X29120402Y-47072253D01*
X29102223Y-47055777D01*
X29085747Y-47037598D01*
X29071133Y-47017893D01*
X29058520Y-46996849D01*
X29048030Y-46974671D01*
X29039765Y-46951571D01*
X29033804Y-46927773D01*
X29030204Y-46903504D01*
X29029000Y-46879000D01*
X29029000Y-45629000D01*
X29030204Y-45604496D01*
X29033804Y-45580227D01*
X29039765Y-45556429D01*
X29048030Y-45533329D01*
X29058520Y-45511151D01*
X29071133Y-45490107D01*
X29085747Y-45470402D01*
X29102223Y-45452223D01*
X29120402Y-45435747D01*
X29140107Y-45421133D01*
X29161151Y-45408520D01*
X29183329Y-45398030D01*
X29206429Y-45389765D01*
X29230227Y-45383804D01*
X29254496Y-45380204D01*
X29279000Y-45379000D01*
X30029000Y-45379000D01*
X30053504Y-45380204D01*
X30053504Y-45380204D01*
G37*
D16*
X29654000Y-46254000D03*
D10*
G36*
X27253504Y-45380204D02*
G01*
X27277773Y-45383804D01*
X27301571Y-45389765D01*
X27324671Y-45398030D01*
X27346849Y-45408520D01*
X27367893Y-45421133D01*
X27387598Y-45435747D01*
X27405777Y-45452223D01*
X27422253Y-45470402D01*
X27436867Y-45490107D01*
X27449480Y-45511151D01*
X27459970Y-45533329D01*
X27468235Y-45556429D01*
X27474196Y-45580227D01*
X27477796Y-45604496D01*
X27479000Y-45629000D01*
X27479000Y-46879000D01*
X27477796Y-46903504D01*
X27474196Y-46927773D01*
X27468235Y-46951571D01*
X27459970Y-46974671D01*
X27449480Y-46996849D01*
X27436867Y-47017893D01*
X27422253Y-47037598D01*
X27405777Y-47055777D01*
X27387598Y-47072253D01*
X27367893Y-47086867D01*
X27346849Y-47099480D01*
X27324671Y-47109970D01*
X27301571Y-47118235D01*
X27277773Y-47124196D01*
X27253504Y-47127796D01*
X27229000Y-47129000D01*
X26479000Y-47129000D01*
X26454496Y-47127796D01*
X26430227Y-47124196D01*
X26406429Y-47118235D01*
X26383329Y-47109970D01*
X26361151Y-47099480D01*
X26340107Y-47086867D01*
X26320402Y-47072253D01*
X26302223Y-47055777D01*
X26285747Y-47037598D01*
X26271133Y-47017893D01*
X26258520Y-46996849D01*
X26248030Y-46974671D01*
X26239765Y-46951571D01*
X26233804Y-46927773D01*
X26230204Y-46903504D01*
X26229000Y-46879000D01*
X26229000Y-45629000D01*
X26230204Y-45604496D01*
X26233804Y-45580227D01*
X26239765Y-45556429D01*
X26248030Y-45533329D01*
X26258520Y-45511151D01*
X26271133Y-45490107D01*
X26285747Y-45470402D01*
X26302223Y-45452223D01*
X26320402Y-45435747D01*
X26340107Y-45421133D01*
X26361151Y-45408520D01*
X26383329Y-45398030D01*
X26406429Y-45389765D01*
X26430227Y-45383804D01*
X26454496Y-45380204D01*
X26479000Y-45379000D01*
X27229000Y-45379000D01*
X27253504Y-45380204D01*
X27253504Y-45380204D01*
G37*
D16*
X26854000Y-46254000D03*
D10*
G36*
X23903504Y-46030204D02*
G01*
X23927773Y-46033804D01*
X23951571Y-46039765D01*
X23974671Y-46048030D01*
X23996849Y-46058520D01*
X24017893Y-46071133D01*
X24037598Y-46085747D01*
X24055777Y-46102223D01*
X24072253Y-46120402D01*
X24086867Y-46140107D01*
X24099480Y-46161151D01*
X24109970Y-46183329D01*
X24118235Y-46206429D01*
X24124196Y-46230227D01*
X24127796Y-46254496D01*
X24129000Y-46279000D01*
X24129000Y-47029000D01*
X24127796Y-47053504D01*
X24124196Y-47077773D01*
X24118235Y-47101571D01*
X24109970Y-47124671D01*
X24099480Y-47146849D01*
X24086867Y-47167893D01*
X24072253Y-47187598D01*
X24055777Y-47205777D01*
X24037598Y-47222253D01*
X24017893Y-47236867D01*
X23996849Y-47249480D01*
X23974671Y-47259970D01*
X23951571Y-47268235D01*
X23927773Y-47274196D01*
X23903504Y-47277796D01*
X23879000Y-47279000D01*
X22629000Y-47279000D01*
X22604496Y-47277796D01*
X22580227Y-47274196D01*
X22556429Y-47268235D01*
X22533329Y-47259970D01*
X22511151Y-47249480D01*
X22490107Y-47236867D01*
X22470402Y-47222253D01*
X22452223Y-47205777D01*
X22435747Y-47187598D01*
X22421133Y-47167893D01*
X22408520Y-47146849D01*
X22398030Y-47124671D01*
X22389765Y-47101571D01*
X22383804Y-47077773D01*
X22380204Y-47053504D01*
X22379000Y-47029000D01*
X22379000Y-46279000D01*
X22380204Y-46254496D01*
X22383804Y-46230227D01*
X22389765Y-46206429D01*
X22398030Y-46183329D01*
X22408520Y-46161151D01*
X22421133Y-46140107D01*
X22435747Y-46120402D01*
X22452223Y-46102223D01*
X22470402Y-46085747D01*
X22490107Y-46071133D01*
X22511151Y-46058520D01*
X22533329Y-46048030D01*
X22556429Y-46039765D01*
X22580227Y-46033804D01*
X22604496Y-46030204D01*
X22629000Y-46029000D01*
X23879000Y-46029000D01*
X23903504Y-46030204D01*
X23903504Y-46030204D01*
G37*
D16*
X23254000Y-46654000D03*
D10*
G36*
X23903504Y-43230204D02*
G01*
X23927773Y-43233804D01*
X23951571Y-43239765D01*
X23974671Y-43248030D01*
X23996849Y-43258520D01*
X24017893Y-43271133D01*
X24037598Y-43285747D01*
X24055777Y-43302223D01*
X24072253Y-43320402D01*
X24086867Y-43340107D01*
X24099480Y-43361151D01*
X24109970Y-43383329D01*
X24118235Y-43406429D01*
X24124196Y-43430227D01*
X24127796Y-43454496D01*
X24129000Y-43479000D01*
X24129000Y-44229000D01*
X24127796Y-44253504D01*
X24124196Y-44277773D01*
X24118235Y-44301571D01*
X24109970Y-44324671D01*
X24099480Y-44346849D01*
X24086867Y-44367893D01*
X24072253Y-44387598D01*
X24055777Y-44405777D01*
X24037598Y-44422253D01*
X24017893Y-44436867D01*
X23996849Y-44449480D01*
X23974671Y-44459970D01*
X23951571Y-44468235D01*
X23927773Y-44474196D01*
X23903504Y-44477796D01*
X23879000Y-44479000D01*
X22629000Y-44479000D01*
X22604496Y-44477796D01*
X22580227Y-44474196D01*
X22556429Y-44468235D01*
X22533329Y-44459970D01*
X22511151Y-44449480D01*
X22490107Y-44436867D01*
X22470402Y-44422253D01*
X22452223Y-44405777D01*
X22435747Y-44387598D01*
X22421133Y-44367893D01*
X22408520Y-44346849D01*
X22398030Y-44324671D01*
X22389765Y-44301571D01*
X22383804Y-44277773D01*
X22380204Y-44253504D01*
X22379000Y-44229000D01*
X22379000Y-43479000D01*
X22380204Y-43454496D01*
X22383804Y-43430227D01*
X22389765Y-43406429D01*
X22398030Y-43383329D01*
X22408520Y-43361151D01*
X22421133Y-43340107D01*
X22435747Y-43320402D01*
X22452223Y-43302223D01*
X22470402Y-43285747D01*
X22490107Y-43271133D01*
X22511151Y-43258520D01*
X22533329Y-43248030D01*
X22556429Y-43239765D01*
X22580227Y-43233804D01*
X22604496Y-43230204D01*
X22629000Y-43229000D01*
X23879000Y-43229000D01*
X23903504Y-43230204D01*
X23903504Y-43230204D01*
G37*
D16*
X23254000Y-43854000D03*
D10*
G36*
X26903504Y-40030204D02*
G01*
X26927773Y-40033804D01*
X26951571Y-40039765D01*
X26974671Y-40048030D01*
X26996849Y-40058520D01*
X27017893Y-40071133D01*
X27037598Y-40085747D01*
X27055777Y-40102223D01*
X27072253Y-40120402D01*
X27086867Y-40140107D01*
X27099480Y-40161151D01*
X27109970Y-40183329D01*
X27118235Y-40206429D01*
X27124196Y-40230227D01*
X27127796Y-40254496D01*
X27129000Y-40279000D01*
X27129000Y-41204000D01*
X27127796Y-41228504D01*
X27124196Y-41252773D01*
X27118235Y-41276571D01*
X27109970Y-41299671D01*
X27099480Y-41321849D01*
X27086867Y-41342893D01*
X27072253Y-41362598D01*
X27055777Y-41380777D01*
X27037598Y-41397253D01*
X27017893Y-41411867D01*
X26996849Y-41424480D01*
X26974671Y-41434970D01*
X26951571Y-41443235D01*
X26927773Y-41449196D01*
X26903504Y-41452796D01*
X26879000Y-41454000D01*
X25629000Y-41454000D01*
X25604496Y-41452796D01*
X25580227Y-41449196D01*
X25556429Y-41443235D01*
X25533329Y-41434970D01*
X25511151Y-41424480D01*
X25490107Y-41411867D01*
X25470402Y-41397253D01*
X25452223Y-41380777D01*
X25435747Y-41362598D01*
X25421133Y-41342893D01*
X25408520Y-41321849D01*
X25398030Y-41299671D01*
X25389765Y-41276571D01*
X25383804Y-41252773D01*
X25380204Y-41228504D01*
X25379000Y-41204000D01*
X25379000Y-40279000D01*
X25380204Y-40254496D01*
X25383804Y-40230227D01*
X25389765Y-40206429D01*
X25398030Y-40183329D01*
X25408520Y-40161151D01*
X25421133Y-40140107D01*
X25435747Y-40120402D01*
X25452223Y-40102223D01*
X25470402Y-40085747D01*
X25490107Y-40071133D01*
X25511151Y-40058520D01*
X25533329Y-40048030D01*
X25556429Y-40039765D01*
X25580227Y-40033804D01*
X25604496Y-40030204D01*
X25629000Y-40029000D01*
X26879000Y-40029000D01*
X26903504Y-40030204D01*
X26903504Y-40030204D01*
G37*
D13*
X26254000Y-40741500D03*
D10*
G36*
X26903504Y-37055204D02*
G01*
X26927773Y-37058804D01*
X26951571Y-37064765D01*
X26974671Y-37073030D01*
X26996849Y-37083520D01*
X27017893Y-37096133D01*
X27037598Y-37110747D01*
X27055777Y-37127223D01*
X27072253Y-37145402D01*
X27086867Y-37165107D01*
X27099480Y-37186151D01*
X27109970Y-37208329D01*
X27118235Y-37231429D01*
X27124196Y-37255227D01*
X27127796Y-37279496D01*
X27129000Y-37304000D01*
X27129000Y-38229000D01*
X27127796Y-38253504D01*
X27124196Y-38277773D01*
X27118235Y-38301571D01*
X27109970Y-38324671D01*
X27099480Y-38346849D01*
X27086867Y-38367893D01*
X27072253Y-38387598D01*
X27055777Y-38405777D01*
X27037598Y-38422253D01*
X27017893Y-38436867D01*
X26996849Y-38449480D01*
X26974671Y-38459970D01*
X26951571Y-38468235D01*
X26927773Y-38474196D01*
X26903504Y-38477796D01*
X26879000Y-38479000D01*
X25629000Y-38479000D01*
X25604496Y-38477796D01*
X25580227Y-38474196D01*
X25556429Y-38468235D01*
X25533329Y-38459970D01*
X25511151Y-38449480D01*
X25490107Y-38436867D01*
X25470402Y-38422253D01*
X25452223Y-38405777D01*
X25435747Y-38387598D01*
X25421133Y-38367893D01*
X25408520Y-38346849D01*
X25398030Y-38324671D01*
X25389765Y-38301571D01*
X25383804Y-38277773D01*
X25380204Y-38253504D01*
X25379000Y-38229000D01*
X25379000Y-37304000D01*
X25380204Y-37279496D01*
X25383804Y-37255227D01*
X25389765Y-37231429D01*
X25398030Y-37208329D01*
X25408520Y-37186151D01*
X25421133Y-37165107D01*
X25435747Y-37145402D01*
X25452223Y-37127223D01*
X25470402Y-37110747D01*
X25490107Y-37096133D01*
X25511151Y-37083520D01*
X25533329Y-37073030D01*
X25556429Y-37064765D01*
X25580227Y-37058804D01*
X25604496Y-37055204D01*
X25629000Y-37054000D01*
X26879000Y-37054000D01*
X26903504Y-37055204D01*
X26903504Y-37055204D01*
G37*
D13*
X26254000Y-37766500D03*
M02*
