G04 #@! TF.GenerationSoftware,KiCad,Pcbnew,5.1.4-e60b266~84~ubuntu19.04.1*
G04 #@! TF.CreationDate,2019-09-15T17:37:26+02:00*
G04 #@! TF.ProjectId,kicad,6b696361-642e-46b6-9963-61645f706362,rev?*
G04 #@! TF.SameCoordinates,Original*
G04 #@! TF.FileFunction,Legend,Bot*
G04 #@! TF.FilePolarity,Positive*
%FSLAX46Y46*%
G04 Gerber Fmt 4.6, Leading zero omitted, Abs format (unit mm)*
G04 Created by KiCad (PCBNEW 5.1.4-e60b266~84~ubuntu19.04.1) date 2019-09-15 17:37:26*
%MOMM*%
%LPD*%
G04 APERTURE LIST*
%ADD10C,0.150000*%
G04 APERTURE END LIST*
D10*
X104183333Y-43552380D02*
X104183333Y-44266666D01*
X104230952Y-44409523D01*
X104326190Y-44504761D01*
X104469047Y-44552380D01*
X104564285Y-44552380D01*
X103278571Y-43552380D02*
X103469047Y-43552380D01*
X103564285Y-43600000D01*
X103611904Y-43647619D01*
X103707142Y-43790476D01*
X103754761Y-43980952D01*
X103754761Y-44361904D01*
X103707142Y-44457142D01*
X103659523Y-44504761D01*
X103564285Y-44552380D01*
X103373809Y-44552380D01*
X103278571Y-44504761D01*
X103230952Y-44457142D01*
X103183333Y-44361904D01*
X103183333Y-44123809D01*
X103230952Y-44028571D01*
X103278571Y-43980952D01*
X103373809Y-43933333D01*
X103564285Y-43933333D01*
X103659523Y-43980952D01*
X103707142Y-44028571D01*
X103754761Y-44123809D01*
X83361904Y-46050000D02*
X83457142Y-46002380D01*
X83600000Y-46002380D01*
X83742857Y-46050000D01*
X83838095Y-46145238D01*
X83885714Y-46240476D01*
X83933333Y-46430952D01*
X83933333Y-46573809D01*
X83885714Y-46764285D01*
X83838095Y-46859523D01*
X83742857Y-46954761D01*
X83600000Y-47002380D01*
X83504761Y-47002380D01*
X83361904Y-46954761D01*
X83314285Y-46907142D01*
X83314285Y-46573809D01*
X83504761Y-46573809D01*
X82885714Y-47002380D02*
X82885714Y-46002380D01*
X82314285Y-47002380D01*
X82314285Y-46002380D01*
X81838095Y-47002380D02*
X81838095Y-46002380D01*
X81600000Y-46002380D01*
X81457142Y-46050000D01*
X81361904Y-46145238D01*
X81314285Y-46240476D01*
X81266666Y-46430952D01*
X81266666Y-46573809D01*
X81314285Y-46764285D01*
X81361904Y-46859523D01*
X81457142Y-46954761D01*
X81600000Y-47002380D01*
X81838095Y-47002380D01*
X33783333Y-46102380D02*
X33783333Y-46816666D01*
X33830952Y-46959523D01*
X33926190Y-47054761D01*
X34069047Y-47102380D01*
X34164285Y-47102380D01*
X32830952Y-46102380D02*
X33307142Y-46102380D01*
X33354761Y-46578571D01*
X33307142Y-46530952D01*
X33211904Y-46483333D01*
X32973809Y-46483333D01*
X32878571Y-46530952D01*
X32830952Y-46578571D01*
X32783333Y-46673809D01*
X32783333Y-46911904D01*
X32830952Y-47007142D01*
X32878571Y-47054761D01*
X32973809Y-47102380D01*
X33211904Y-47102380D01*
X33307142Y-47054761D01*
X33354761Y-47007142D01*
X58445238Y-47052380D02*
X58445238Y-46052380D01*
X58064285Y-46052380D01*
X57969047Y-46100000D01*
X57921428Y-46147619D01*
X57873809Y-46242857D01*
X57873809Y-46385714D01*
X57921428Y-46480952D01*
X57969047Y-46528571D01*
X58064285Y-46576190D01*
X58445238Y-46576190D01*
X57540476Y-46052380D02*
X57302380Y-47052380D01*
X57111904Y-46338095D01*
X56921428Y-47052380D01*
X56683333Y-46052380D01*
X55730952Y-47052380D02*
X56064285Y-46576190D01*
X56302380Y-47052380D02*
X56302380Y-46052380D01*
X55921428Y-46052380D01*
X55826190Y-46100000D01*
X55778571Y-46147619D01*
X55730952Y-46242857D01*
X55730952Y-46385714D01*
X55778571Y-46480952D01*
X55826190Y-46528571D01*
X55921428Y-46576190D01*
X56302380Y-46576190D01*
X55302380Y-47052380D02*
X55302380Y-46052380D01*
X54826190Y-47052380D02*
X54826190Y-46052380D01*
X54254761Y-47052380D01*
X54254761Y-46052380D01*
M02*
