G04 #@! TF.GenerationSoftware,KiCad,Pcbnew,5.1.4-e60b266~84~ubuntu19.04.1*
G04 #@! TF.CreationDate,2019-09-08T19:21:52+02:00*
G04 #@! TF.ProjectId,middle,6d696464-6c65-42e6-9b69-6361645f7063,rev?*
G04 #@! TF.SameCoordinates,Original*
G04 #@! TF.FileFunction,Profile,NP*
%FSLAX46Y46*%
G04 Gerber Fmt 4.6, Leading zero omitted, Abs format (unit mm)*
G04 Created by KiCad (PCBNEW 5.1.4-e60b266~84~ubuntu19.04.1) date 2019-09-08 19:21:52*
%MOMM*%
%LPD*%
G04 APERTURE LIST*
%ADD10C,0.100000*%
G04 APERTURE END LIST*
D10*
X-45966593Y42995930D02*
X-45000002Y43000000D01*
X-45000002Y43000000D02*
X-41000002Y42999999D01*
X-41000002Y42999999D02*
X-35000001Y42999999D01*
X-35000001Y42999999D02*
X-35000001Y44600000D01*
X-35000001Y44600000D02*
X-15000001Y44600000D01*
X-15000001Y44600000D02*
X-15000001Y42999999D01*
X-15000001Y42999999D02*
X14999999Y42999999D01*
X14999999Y42999999D02*
X14999999Y44600000D01*
X14999999Y44600000D02*
X34999999Y44600000D01*
X34999999Y44600000D02*
X34999999Y43000000D01*
X34999999Y43000000D02*
X39999999Y43000000D01*
X39999999Y43000000D02*
X42999999Y43000000D01*
X42999999Y43000000D02*
X46066819Y43029340D01*
X46066819Y43029340D02*
X46476160Y43013758D01*
X46476160Y43013758D02*
X46872028Y42960184D01*
X46872028Y42960184D02*
X47252641Y42870300D01*
X47252641Y42870300D02*
X47616211Y42745788D01*
X47616211Y42745788D02*
X47960955Y42588331D01*
X47960955Y42588331D02*
X48285086Y42399610D01*
X48285086Y42399610D02*
X48586820Y42181308D01*
X48586820Y42181308D02*
X48864372Y41935107D01*
X48864372Y41935107D02*
X49115955Y41662688D01*
X49115955Y41662688D02*
X49339787Y41365734D01*
X49339787Y41365734D02*
X49534080Y41045928D01*
X49534080Y41045928D02*
X49697051Y40704951D01*
X49697051Y40704951D02*
X49826913Y40344485D01*
X49826913Y40344485D02*
X49921882Y39966212D01*
X49921882Y39966212D02*
X49980172Y39571815D01*
X49980172Y39571815D02*
X49999999Y39162976D01*
X49999999Y39162976D02*
X49999999Y20523496D01*
X49999999Y20523496D02*
X49979555Y20112237D01*
X49979555Y20112237D02*
X49919522Y19710975D01*
X49919522Y19710975D02*
X49821845Y19321987D01*
X49821845Y19321987D02*
X49688469Y18947547D01*
X49688469Y18947547D02*
X49521342Y18589930D01*
X49521342Y18589930D02*
X49322408Y18251412D01*
X49322408Y18251412D02*
X49093613Y17934268D01*
X49093613Y17934268D02*
X48836904Y17640772D01*
X48836904Y17640772D02*
X48554226Y17373201D01*
X48554226Y17373201D02*
X48247525Y17133829D01*
X48247525Y17133829D02*
X47918748Y16924932D01*
X47918748Y16924932D02*
X47569839Y16748784D01*
X47569839Y16748784D02*
X47202745Y16607661D01*
X47202745Y16607661D02*
X46819411Y16503838D01*
X46819411Y16503838D02*
X46421784Y16439590D01*
X46421784Y16439590D02*
X46011809Y16417193D01*
X46011809Y16417193D02*
X35999999Y16399993D01*
X35999999Y16399993D02*
X34999999Y16399993D01*
X34999999Y16399993D02*
X34999999Y14799991D01*
X34999999Y14799991D02*
X33999999Y14799991D01*
X33999999Y14799991D02*
X32999999Y14799991D01*
X32999999Y14799991D02*
X20999999Y14799991D01*
X20999999Y14799991D02*
X19999999Y14799991D01*
X19999999Y14799991D02*
X19999999Y15500888D01*
X19999999Y15500888D02*
X19999999Y16399995D01*
X19999999Y16399995D02*
X-20000001Y16399995D01*
X-20000001Y16399995D02*
X-20000001Y14700885D01*
X-20000001Y14700885D02*
X-21000001Y14700885D01*
X-21000001Y14700885D02*
X-26000001Y14700885D01*
X-26000001Y14700885D02*
X-34000001Y14700885D01*
X-34000001Y14700885D02*
X-35000001Y14700885D01*
X-35000001Y14700885D02*
X-35000001Y15500888D01*
X-35000001Y15500888D02*
X-35000001Y16399995D01*
X-35000001Y16399995D02*
X-36000001Y16399995D01*
X-36000001Y16399995D02*
X-46000001Y16423255D01*
X-46000001Y16423255D02*
X-46410212Y16443563D01*
X-46410212Y16443563D02*
X-46808508Y16501426D01*
X-46808508Y16501426D02*
X-47192879Y16595182D01*
X-47192879Y16595182D02*
X-47561317Y16723166D01*
X-47561317Y16723166D02*
X-47911812Y16883713D01*
X-47911812Y16883713D02*
X-48242355Y17075161D01*
X-48242355Y17075161D02*
X-48550936Y17295844D01*
X-48550936Y17295844D02*
X-48835546Y17544099D01*
X-48835546Y17544099D02*
X-49094176Y17818262D01*
X-49094176Y17818262D02*
X-49324816Y18116669D01*
X-49324816Y18116669D02*
X-49525457Y18437656D01*
X-49525457Y18437656D02*
X-49694090Y18779558D01*
X-49694090Y18779558D02*
X-49828705Y19140712D01*
X-49828705Y19140712D02*
X-49927293Y19519453D01*
X-49927293Y19519453D02*
X-49987845Y19914118D01*
X-49987845Y19914118D02*
X-50008352Y20323043D01*
X-50008352Y20323043D02*
X-49999952Y38983077D01*
X-49999952Y38983077D02*
X-49978837Y39393227D01*
X-49978837Y39393227D02*
X-49917246Y39791357D01*
X-49917246Y39791357D02*
X-49817255Y40175490D01*
X-49817255Y40175490D02*
X-49680936Y40543650D01*
X-49680936Y40543650D02*
X-49510364Y40893859D01*
X-49510364Y40893859D02*
X-49307612Y41224139D01*
X-49307612Y41224139D02*
X-49074756Y41532515D01*
X-49074756Y41532515D02*
X-48813869Y41817008D01*
X-48813869Y41817008D02*
X-48527024Y42075641D01*
X-48527024Y42075641D02*
X-48216298Y42306439D01*
X-48216298Y42306439D02*
X-47883762Y42507422D01*
X-47883762Y42507422D02*
X-47531491Y42676614D01*
X-47531491Y42676614D02*
X-47161561Y42812039D01*
X-47161561Y42812039D02*
X-46776043Y42911718D01*
X-46776043Y42911718D02*
X-46377013Y42973675D01*
X-46377013Y42973675D02*
X-45966545Y42995933D01*
X-45966545Y42995933D02*
X-45966593Y42995930D01*
X-45966593Y42995930D02*
X-45966593Y42995930D01*
M02*
