G04 #@! TF.GenerationSoftware,KiCad,Pcbnew,5.1.4-e60b266~84~ubuntu19.04.1*
G04 #@! TF.CreationDate,2019-09-15T17:49:51+02:00*
G04 #@! TF.ProjectId,middle,6d696464-6c65-42e6-9b69-6361645f7063,rev?*
G04 #@! TF.SameCoordinates,Original*
G04 #@! TF.FileFunction,Legend,Bot*
G04 #@! TF.FilePolarity,Positive*
%FSLAX46Y46*%
G04 Gerber Fmt 4.6, Leading zero omitted, Abs format (unit mm)*
G04 Created by KiCad (PCBNEW 5.1.4-e60b266~84~ubuntu19.04.1) date 2019-09-15 17:49:51*
%MOMM*%
%LPD*%
G04 APERTURE LIST*
%ADD10C,0.450000*%
%ADD11C,0.120000*%
%ADD12C,0.150000*%
%ADD13C,0.300000*%
G04 APERTURE END LIST*
D10*
X-21757142Y29185714D02*
X-24042857Y29185714D01*
X-22900000Y28042857D02*
X-22900000Y30328571D01*
D11*
X-39350000Y19350000D02*
X38650000Y19350000D01*
X38650000Y19350000D02*
X38650000Y39450000D01*
X38650000Y39450000D02*
X-39350000Y39450000D01*
X-39350000Y39450000D02*
X-39350000Y19350000D01*
D12*
X19333333Y18547619D02*
X19333333Y17833333D01*
X19380952Y17690476D01*
X19476190Y17595238D01*
X19619047Y17547619D01*
X19714285Y17547619D01*
X18428571Y18547619D02*
X18619047Y18547619D01*
X18714285Y18500000D01*
X18761904Y18452380D01*
X18857142Y18309523D01*
X18904761Y18119047D01*
X18904761Y17738095D01*
X18857142Y17642857D01*
X18809523Y17595238D01*
X18714285Y17547619D01*
X18523809Y17547619D01*
X18428571Y17595238D01*
X18380952Y17642857D01*
X18333333Y17738095D01*
X18333333Y17976190D01*
X18380952Y18071428D01*
X18428571Y18119047D01*
X18523809Y18166666D01*
X18714285Y18166666D01*
X18809523Y18119047D01*
X18857142Y18071428D01*
X18904761Y17976190D01*
X11452380Y21071428D02*
X11309523Y21023809D01*
X11261904Y20976190D01*
X11214285Y20880952D01*
X11214285Y20738095D01*
X11261904Y20642857D01*
X11309523Y20595238D01*
X11404761Y20547619D01*
X11785714Y20547619D01*
X11785714Y21547619D01*
X11452380Y21547619D01*
X11357142Y21500000D01*
X11309523Y21452380D01*
X11261904Y21357142D01*
X11261904Y21261904D01*
X11309523Y21166666D01*
X11357142Y21119047D01*
X11452380Y21071428D01*
X11785714Y21071428D01*
X10595238Y21547619D02*
X10404761Y21547619D01*
X10309523Y21500000D01*
X10214285Y21404761D01*
X10166666Y21214285D01*
X10166666Y20880952D01*
X10214285Y20690476D01*
X10309523Y20595238D01*
X10404761Y20547619D01*
X10595238Y20547619D01*
X10690476Y20595238D01*
X10785714Y20690476D01*
X10833333Y20880952D01*
X10833333Y21214285D01*
X10785714Y21404761D01*
X10690476Y21500000D01*
X10595238Y21547619D01*
X9880952Y21547619D02*
X9309523Y21547619D01*
X9595238Y20547619D02*
X9595238Y21547619D01*
X8976190Y20928571D02*
X8214285Y20928571D01*
X25083333Y40557619D02*
X25083333Y39843333D01*
X25130952Y39700476D01*
X25226190Y39605238D01*
X25369047Y39557619D01*
X25464285Y39557619D01*
X24130952Y40557619D02*
X24607142Y40557619D01*
X24654761Y40081428D01*
X24607142Y40129047D01*
X24511904Y40176666D01*
X24273809Y40176666D01*
X24178571Y40129047D01*
X24130952Y40081428D01*
X24083333Y39986190D01*
X24083333Y39748095D01*
X24130952Y39652857D01*
X24178571Y39605238D01*
X24273809Y39557619D01*
X24511904Y39557619D01*
X24607142Y39605238D01*
X24654761Y39652857D01*
X13928571Y42047619D02*
X13357142Y42047619D01*
X13642857Y41047619D02*
X13642857Y42047619D01*
X12833333Y42047619D02*
X12642857Y42047619D01*
X12547619Y42000000D01*
X12452380Y41904761D01*
X12404761Y41714285D01*
X12404761Y41380952D01*
X12452380Y41190476D01*
X12547619Y41095238D01*
X12642857Y41047619D01*
X12833333Y41047619D01*
X12928571Y41095238D01*
X13023809Y41190476D01*
X13071428Y41380952D01*
X13071428Y41714285D01*
X13023809Y41904761D01*
X12928571Y42000000D01*
X12833333Y42047619D01*
X11976190Y41047619D02*
X11976190Y42047619D01*
X11595238Y42047619D01*
X11500000Y42000000D01*
X11452380Y41952380D01*
X11404761Y41857142D01*
X11404761Y41714285D01*
X11452380Y41619047D01*
X11500000Y41571428D01*
X11595238Y41523809D01*
X11976190Y41523809D01*
X10976190Y41428571D02*
X10214285Y41428571D01*
X-18666666Y18547619D02*
X-18666666Y17833333D01*
X-18619047Y17690476D01*
X-18523809Y17595238D01*
X-18380952Y17547619D01*
X-18285714Y17547619D01*
X-19571428Y18214285D02*
X-19571428Y17547619D01*
X-19333333Y18595238D02*
X-19095238Y17880952D01*
X-19714285Y17880952D01*
X-8547619Y21071428D02*
X-8690476Y21023809D01*
X-8738095Y20976190D01*
X-8785714Y20880952D01*
X-8785714Y20738095D01*
X-8738095Y20642857D01*
X-8690476Y20595238D01*
X-8595238Y20547619D01*
X-8214285Y20547619D01*
X-8214285Y21547619D01*
X-8547619Y21547619D01*
X-8642857Y21500000D01*
X-8690476Y21452380D01*
X-8738095Y21357142D01*
X-8738095Y21261904D01*
X-8690476Y21166666D01*
X-8642857Y21119047D01*
X-8547619Y21071428D01*
X-8214285Y21071428D01*
X-9404761Y21547619D02*
X-9595238Y21547619D01*
X-9690476Y21500000D01*
X-9785714Y21404761D01*
X-9833333Y21214285D01*
X-9833333Y20880952D01*
X-9785714Y20690476D01*
X-9690476Y20595238D01*
X-9595238Y20547619D01*
X-9404761Y20547619D01*
X-9309523Y20595238D01*
X-9214285Y20690476D01*
X-9166666Y20880952D01*
X-9166666Y21214285D01*
X-9214285Y21404761D01*
X-9309523Y21500000D01*
X-9404761Y21547619D01*
X-10119047Y21547619D02*
X-10690476Y21547619D01*
X-10404761Y20547619D02*
X-10404761Y21547619D01*
X-11023809Y20928571D02*
X-11785714Y20928571D01*
X-11404761Y20547619D02*
X-11404761Y21309523D01*
X-24816666Y40557619D02*
X-24816666Y39843333D01*
X-24769047Y39700476D01*
X-24673809Y39605238D01*
X-24530952Y39557619D01*
X-24435714Y39557619D01*
X-25197619Y40557619D02*
X-25816666Y40557619D01*
X-25483333Y40176666D01*
X-25626190Y40176666D01*
X-25721428Y40129047D01*
X-25769047Y40081428D01*
X-25816666Y39986190D01*
X-25816666Y39748095D01*
X-25769047Y39652857D01*
X-25721428Y39605238D01*
X-25626190Y39557619D01*
X-25340476Y39557619D01*
X-25245238Y39605238D01*
X-25197619Y39652857D01*
X-36071428Y41547619D02*
X-36642857Y41547619D01*
X-36357142Y40547619D02*
X-36357142Y41547619D01*
X-37166666Y41547619D02*
X-37357142Y41547619D01*
X-37452380Y41500000D01*
X-37547619Y41404761D01*
X-37595238Y41214285D01*
X-37595238Y40880952D01*
X-37547619Y40690476D01*
X-37452380Y40595238D01*
X-37357142Y40547619D01*
X-37166666Y40547619D01*
X-37071428Y40595238D01*
X-36976190Y40690476D01*
X-36928571Y40880952D01*
X-36928571Y41214285D01*
X-36976190Y41404761D01*
X-37071428Y41500000D01*
X-37166666Y41547619D01*
X-38023809Y40547619D02*
X-38023809Y41547619D01*
X-38404761Y41547619D01*
X-38500000Y41500000D01*
X-38547619Y41452380D01*
X-38595238Y41357142D01*
X-38595238Y41214285D01*
X-38547619Y41119047D01*
X-38500000Y41071428D01*
X-38404761Y41023809D01*
X-38023809Y41023809D01*
X-39023809Y40928571D02*
X-39785714Y40928571D01*
X-39404761Y40547619D02*
X-39404761Y41309523D01*
X36333333Y18047619D02*
X36333333Y17333333D01*
X36380952Y17190476D01*
X36476190Y17095238D01*
X36619047Y17047619D01*
X36714285Y17047619D01*
X35904761Y17952380D02*
X35857142Y18000000D01*
X35761904Y18047619D01*
X35523809Y18047619D01*
X35428571Y18000000D01*
X35380952Y17952380D01*
X35333333Y17857142D01*
X35333333Y17761904D01*
X35380952Y17619047D01*
X35952380Y17047619D01*
X35333333Y17047619D01*
X40357142Y17571428D02*
X40214285Y17523809D01*
X40166666Y17476190D01*
X40119047Y17380952D01*
X40119047Y17238095D01*
X40166666Y17142857D01*
X40214285Y17095238D01*
X40309523Y17047619D01*
X40690476Y17047619D01*
X40690476Y18047619D01*
X40357142Y18047619D01*
X40261904Y18000000D01*
X40214285Y17952380D01*
X40166666Y17857142D01*
X40166666Y17761904D01*
X40214285Y17666666D01*
X40261904Y17619047D01*
X40357142Y17571428D01*
X40690476Y17571428D01*
X39738095Y17333333D02*
X39261904Y17333333D01*
X39833333Y17047619D02*
X39500000Y18047619D01*
X39166666Y17047619D01*
X38976190Y18047619D02*
X38404761Y18047619D01*
X38690476Y17047619D02*
X38690476Y18047619D01*
X38071428Y17428571D02*
X37309523Y17428571D01*
X-35666666Y18047619D02*
X-35666666Y17333333D01*
X-35619047Y17190476D01*
X-35523809Y17095238D01*
X-35380952Y17047619D01*
X-35285714Y17047619D01*
X-36666666Y17047619D02*
X-36095238Y17047619D01*
X-36380952Y17047619D02*
X-36380952Y18047619D01*
X-36285714Y17904761D01*
X-36190476Y17809523D01*
X-36095238Y17761904D01*
X-38142857Y17571428D02*
X-38285714Y17523809D01*
X-38333333Y17476190D01*
X-38380952Y17380952D01*
X-38380952Y17238095D01*
X-38333333Y17142857D01*
X-38285714Y17095238D01*
X-38190476Y17047619D01*
X-37809523Y17047619D01*
X-37809523Y18047619D01*
X-38142857Y18047619D01*
X-38238095Y18000000D01*
X-38285714Y17952380D01*
X-38333333Y17857142D01*
X-38333333Y17761904D01*
X-38285714Y17666666D01*
X-38238095Y17619047D01*
X-38142857Y17571428D01*
X-37809523Y17571428D01*
X-38761904Y17333333D02*
X-39238095Y17333333D01*
X-38666666Y17047619D02*
X-39000000Y18047619D01*
X-39333333Y17047619D01*
X-39523809Y18047619D02*
X-40095238Y18047619D01*
X-39809523Y17047619D02*
X-39809523Y18047619D01*
X-40428571Y17428571D02*
X-41190476Y17428571D01*
X-40809523Y17047619D02*
X-40809523Y17809523D01*
X1185714Y32021428D02*
X1042857Y31973809D01*
X995238Y31926190D01*
X947619Y31830952D01*
X947619Y31688095D01*
X995238Y31592857D01*
X1042857Y31545238D01*
X1138095Y31497619D01*
X1519047Y31497619D01*
X1519047Y32497619D01*
X1185714Y32497619D01*
X1090476Y32450000D01*
X1042857Y32402380D01*
X995238Y32307142D01*
X995238Y32211904D01*
X1042857Y32116666D01*
X1090476Y32069047D01*
X1185714Y32021428D01*
X1519047Y32021428D01*
X661904Y32497619D02*
X90476Y32497619D01*
X376190Y31497619D02*
X376190Y32497619D01*
X-766666Y31497619D02*
X-195238Y31497619D01*
X-480952Y31497619D02*
X-480952Y32497619D01*
X-385714Y32354761D01*
X-290476Y32259523D01*
X-195238Y32211904D01*
D13*
X2888095Y27695238D02*
X4030952Y27695238D01*
X3459523Y27695238D02*
X3459523Y29695238D01*
X3650000Y29409523D01*
X3840476Y29219047D01*
X4030952Y29123809D01*
X1745238Y28838095D02*
X1935714Y28933333D01*
X2030952Y29028571D01*
X2126190Y29219047D01*
X2126190Y29314285D01*
X2030952Y29504761D01*
X1935714Y29600000D01*
X1745238Y29695238D01*
X1364285Y29695238D01*
X1173809Y29600000D01*
X1078571Y29504761D01*
X983333Y29314285D01*
X983333Y29219047D01*
X1078571Y29028571D01*
X1173809Y28933333D01*
X1364285Y28838095D01*
X1745238Y28838095D01*
X1935714Y28742857D01*
X2030952Y28647619D01*
X2126190Y28457142D01*
X2126190Y28076190D01*
X2030952Y27885714D01*
X1935714Y27790476D01*
X1745238Y27695238D01*
X1364285Y27695238D01*
X1173809Y27790476D01*
X1078571Y27885714D01*
X983333Y28076190D01*
X983333Y28457142D01*
X1078571Y28647619D01*
X1173809Y28742857D01*
X1364285Y28838095D01*
X-730952Y29695238D02*
X-350000Y29695238D01*
X-159523Y29600000D01*
X-64285Y29504761D01*
X126190Y29219047D01*
X221428Y28838095D01*
X221428Y28076190D01*
X126190Y27885714D01*
X30952Y27790476D01*
X-159523Y27695238D01*
X-540476Y27695238D01*
X-730952Y27790476D01*
X-826190Y27885714D01*
X-921428Y28076190D01*
X-921428Y28552380D01*
X-826190Y28742857D01*
X-730952Y28838095D01*
X-540476Y28933333D01*
X-159523Y28933333D01*
X30952Y28838095D01*
X126190Y28742857D01*
X221428Y28552380D01*
X-2730952Y29695238D02*
X-1778571Y29695238D01*
X-1683333Y28742857D01*
X-1778571Y28838095D01*
X-1969047Y28933333D01*
X-2445238Y28933333D01*
X-2635714Y28838095D01*
X-2730952Y28742857D01*
X-2826190Y28552380D01*
X-2826190Y28076190D01*
X-2730952Y27885714D01*
X-2635714Y27790476D01*
X-2445238Y27695238D01*
X-1969047Y27695238D01*
X-1778571Y27790476D01*
X-1683333Y27885714D01*
X-4064285Y29695238D02*
X-4254761Y29695238D01*
X-4445238Y29600000D01*
X-4540476Y29504761D01*
X-4635714Y29314285D01*
X-4730952Y28933333D01*
X-4730952Y28457142D01*
X-4635714Y28076190D01*
X-4540476Y27885714D01*
X-4445238Y27790476D01*
X-4254761Y27695238D01*
X-4064285Y27695238D01*
X-3873809Y27790476D01*
X-3778571Y27885714D01*
X-3683333Y28076190D01*
X-3588095Y28457142D01*
X-3588095Y28933333D01*
X-3683333Y29314285D01*
X-3778571Y29504761D01*
X-3873809Y29600000D01*
X-4064285Y29695238D01*
M02*
