G04 #@! TF.GenerationSoftware,KiCad,Pcbnew,5.1.4-e60b266~84~ubuntu19.04.1*
G04 #@! TF.CreationDate,2019-09-15T17:49:51+02:00*
G04 #@! TF.ProjectId,middle,6d696464-6c65-42e6-9b69-6361645f7063,rev?*
G04 #@! TF.SameCoordinates,Original*
G04 #@! TF.FileFunction,Soldermask,Top*
G04 #@! TF.FilePolarity,Negative*
%FSLAX46Y46*%
G04 Gerber Fmt 4.6, Leading zero omitted, Abs format (unit mm)*
G04 Created by KiCad (PCBNEW 5.1.4-e60b266~84~ubuntu19.04.1) date 2019-09-15 17:49:51*
%MOMM*%
%LPD*%
G04 APERTURE LIST*
%ADD10C,0.010000*%
%ADD11C,3.600000*%
%ADD12R,3.900000X3.900000*%
%ADD13C,3.900000*%
G04 APERTURE END LIST*
D10*
G36*
X-3594667Y25646000D02*
G01*
X-3848667Y25646000D01*
X-3989519Y25648354D01*
X-4065574Y25660748D01*
X-4096675Y25691181D01*
X-4102667Y25747649D01*
X-4102667Y25748371D01*
X-4112346Y25880750D01*
X-4145091Y25933022D01*
X-4206463Y25907918D01*
X-4279028Y25834964D01*
X-4397845Y25728415D01*
X-4543985Y25658002D01*
X-4734919Y25618380D01*
X-4988120Y25604200D01*
X-5034000Y25603936D01*
X-5248329Y25613084D01*
X-5410940Y25644555D01*
X-5530165Y25692171D01*
X-5653229Y25769711D01*
X-5746350Y25876214D01*
X-5822542Y26013030D01*
X-5871966Y26123116D01*
X-5906190Y26229400D01*
X-5928973Y26353258D01*
X-5944073Y26516065D01*
X-5955247Y26739197D01*
X-5956699Y26776126D01*
X-5960421Y27135619D01*
X-5409415Y27135619D01*
X-5408569Y26850042D01*
X-5399408Y26708236D01*
X-5363857Y26466138D01*
X-5301251Y26296704D01*
X-5207035Y26190977D01*
X-5114851Y26148644D01*
X-4938415Y26120779D01*
X-4736538Y26120124D01*
X-4550424Y26145224D01*
X-4464433Y26171631D01*
X-4350204Y26230643D01*
X-4268726Y26306542D01*
X-4214802Y26413498D01*
X-4183237Y26565687D01*
X-4168834Y26777282D01*
X-4166167Y26985117D01*
X-4171470Y27251270D01*
X-4191296Y27447130D01*
X-4231517Y27586629D01*
X-4298004Y27683697D01*
X-4396631Y27752267D01*
X-4508877Y27798124D01*
X-4691641Y27835869D01*
X-4889207Y27837417D01*
X-5074505Y27806190D01*
X-5220470Y27745612D01*
X-5273857Y27701389D01*
X-5340213Y27575899D01*
X-5386015Y27382440D01*
X-5409415Y27135619D01*
X-5960421Y27135619D01*
X-5960842Y27176210D01*
X-5937875Y27504280D01*
X-5885448Y27769285D01*
X-5801210Y27980177D01*
X-5682812Y28145906D01*
X-5570892Y28245424D01*
X-5481183Y28295404D01*
X-5361233Y28326903D01*
X-5188030Y28345101D01*
X-5109379Y28349341D01*
X-4816451Y28346835D01*
X-4585693Y28306685D01*
X-4401540Y28224788D01*
X-4282583Y28131542D01*
X-4145000Y28000058D01*
X-4145000Y29583000D01*
X-3594667Y29583000D01*
X-3594667Y25646000D01*
X-3594667Y25646000D01*
G37*
X-3594667Y25646000D02*
X-3848667Y25646000D01*
X-3989519Y25648354D01*
X-4065574Y25660748D01*
X-4096675Y25691181D01*
X-4102667Y25747649D01*
X-4102667Y25748371D01*
X-4112346Y25880750D01*
X-4145091Y25933022D01*
X-4206463Y25907918D01*
X-4279028Y25834964D01*
X-4397845Y25728415D01*
X-4543985Y25658002D01*
X-4734919Y25618380D01*
X-4988120Y25604200D01*
X-5034000Y25603936D01*
X-5248329Y25613084D01*
X-5410940Y25644555D01*
X-5530165Y25692171D01*
X-5653229Y25769711D01*
X-5746350Y25876214D01*
X-5822542Y26013030D01*
X-5871966Y26123116D01*
X-5906190Y26229400D01*
X-5928973Y26353258D01*
X-5944073Y26516065D01*
X-5955247Y26739197D01*
X-5956699Y26776126D01*
X-5960421Y27135619D01*
X-5409415Y27135619D01*
X-5408569Y26850042D01*
X-5399408Y26708236D01*
X-5363857Y26466138D01*
X-5301251Y26296704D01*
X-5207035Y26190977D01*
X-5114851Y26148644D01*
X-4938415Y26120779D01*
X-4736538Y26120124D01*
X-4550424Y26145224D01*
X-4464433Y26171631D01*
X-4350204Y26230643D01*
X-4268726Y26306542D01*
X-4214802Y26413498D01*
X-4183237Y26565687D01*
X-4168834Y26777282D01*
X-4166167Y26985117D01*
X-4171470Y27251270D01*
X-4191296Y27447130D01*
X-4231517Y27586629D01*
X-4298004Y27683697D01*
X-4396631Y27752267D01*
X-4508877Y27798124D01*
X-4691641Y27835869D01*
X-4889207Y27837417D01*
X-5074505Y27806190D01*
X-5220470Y27745612D01*
X-5273857Y27701389D01*
X-5340213Y27575899D01*
X-5386015Y27382440D01*
X-5409415Y27135619D01*
X-5960421Y27135619D01*
X-5960842Y27176210D01*
X-5937875Y27504280D01*
X-5885448Y27769285D01*
X-5801210Y27980177D01*
X-5682812Y28145906D01*
X-5570892Y28245424D01*
X-5481183Y28295404D01*
X-5361233Y28326903D01*
X-5188030Y28345101D01*
X-5109379Y28349341D01*
X-4816451Y28346835D01*
X-4585693Y28306685D01*
X-4401540Y28224788D01*
X-4282583Y28131542D01*
X-4145000Y28000058D01*
X-4145000Y29583000D01*
X-3594667Y29583000D01*
X-3594667Y25646000D01*
G36*
X-1504068Y28344768D02*
G01*
X-1225568Y28313853D01*
X-1011485Y28255738D01*
X-852703Y28166009D01*
X-740106Y28040253D01*
X-664578Y27874057D01*
X-635106Y27761819D01*
X-621392Y27655269D01*
X-609329Y27479732D01*
X-599536Y27250881D01*
X-592634Y26984389D01*
X-589243Y26695928D01*
X-589000Y26596416D01*
X-589000Y25646000D01*
X-1089558Y25646000D01*
X-1117775Y25813015D01*
X-1145992Y25980029D01*
X-1267630Y25841491D01*
X-1387464Y25738943D01*
X-1528050Y25662586D01*
X-1554962Y25653310D01*
X-1740079Y25617716D01*
X-1963115Y25603864D01*
X-2193888Y25610845D01*
X-2402214Y25637752D01*
X-2557500Y25683484D01*
X-2706995Y25774931D01*
X-2807969Y25896987D01*
X-2867224Y26064337D01*
X-2891560Y26291668D01*
X-2892244Y26346663D01*
X-2356914Y26346663D01*
X-2347770Y26289818D01*
X-2308235Y26191369D01*
X-2232325Y26126827D01*
X-2107010Y26091469D01*
X-1919259Y26080573D01*
X-1778466Y26083531D01*
X-1601740Y26092307D01*
X-1486777Y26106746D01*
X-1410681Y26133768D01*
X-1350560Y26180291D01*
X-1307872Y26225754D01*
X-1236510Y26336799D01*
X-1182141Y26477710D01*
X-1151121Y26621176D01*
X-1149804Y26739886D01*
X-1174529Y26798796D01*
X-1237378Y26818266D01*
X-1363177Y26828608D01*
X-1530808Y26830722D01*
X-1719149Y26825505D01*
X-1907081Y26813856D01*
X-2073485Y26796673D01*
X-2197239Y26774854D01*
X-2253660Y26752897D01*
X-2317749Y26654772D01*
X-2354445Y26508149D01*
X-2356914Y26346663D01*
X-2892244Y26346663D01*
X-2893008Y26408000D01*
X-2878631Y26666753D01*
X-2835729Y26858346D01*
X-2758546Y26997166D01*
X-2641323Y27097600D01*
X-2609700Y27115913D01*
X-2538551Y27145955D01*
X-2442547Y27168183D01*
X-2307464Y27184164D01*
X-2119082Y27195469D01*
X-1863177Y27203666D01*
X-1801135Y27205104D01*
X-1129436Y27219949D01*
X-1157981Y27435131D01*
X-1191829Y27620855D01*
X-1239701Y27739735D01*
X-1310643Y27809447D01*
X-1361539Y27832802D01*
X-1436121Y27844073D01*
X-1577883Y27852721D01*
X-1769360Y27858132D01*
X-1993091Y27859693D01*
X-2104557Y27858920D01*
X-2752280Y27851503D01*
X-2739557Y28071131D01*
X-2726833Y28290760D01*
X-2557500Y28320607D01*
X-2448727Y28332470D01*
X-2278815Y28342532D01*
X-2071288Y28349710D01*
X-1856100Y28352894D01*
X-1504068Y28344768D01*
X-1504068Y28344768D01*
G37*
X-1504068Y28344768D02*
X-1225568Y28313853D01*
X-1011485Y28255738D01*
X-852703Y28166009D01*
X-740106Y28040253D01*
X-664578Y27874057D01*
X-635106Y27761819D01*
X-621392Y27655269D01*
X-609329Y27479732D01*
X-599536Y27250881D01*
X-592634Y26984389D01*
X-589243Y26695928D01*
X-589000Y26596416D01*
X-589000Y25646000D01*
X-1089558Y25646000D01*
X-1117775Y25813015D01*
X-1145992Y25980029D01*
X-1267630Y25841491D01*
X-1387464Y25738943D01*
X-1528050Y25662586D01*
X-1554962Y25653310D01*
X-1740079Y25617716D01*
X-1963115Y25603864D01*
X-2193888Y25610845D01*
X-2402214Y25637752D01*
X-2557500Y25683484D01*
X-2706995Y25774931D01*
X-2807969Y25896987D01*
X-2867224Y26064337D01*
X-2891560Y26291668D01*
X-2892244Y26346663D01*
X-2356914Y26346663D01*
X-2347770Y26289818D01*
X-2308235Y26191369D01*
X-2232325Y26126827D01*
X-2107010Y26091469D01*
X-1919259Y26080573D01*
X-1778466Y26083531D01*
X-1601740Y26092307D01*
X-1486777Y26106746D01*
X-1410681Y26133768D01*
X-1350560Y26180291D01*
X-1307872Y26225754D01*
X-1236510Y26336799D01*
X-1182141Y26477710D01*
X-1151121Y26621176D01*
X-1149804Y26739886D01*
X-1174529Y26798796D01*
X-1237378Y26818266D01*
X-1363177Y26828608D01*
X-1530808Y26830722D01*
X-1719149Y26825505D01*
X-1907081Y26813856D01*
X-2073485Y26796673D01*
X-2197239Y26774854D01*
X-2253660Y26752897D01*
X-2317749Y26654772D01*
X-2354445Y26508149D01*
X-2356914Y26346663D01*
X-2892244Y26346663D01*
X-2893008Y26408000D01*
X-2878631Y26666753D01*
X-2835729Y26858346D01*
X-2758546Y26997166D01*
X-2641323Y27097600D01*
X-2609700Y27115913D01*
X-2538551Y27145955D01*
X-2442547Y27168183D01*
X-2307464Y27184164D01*
X-2119082Y27195469D01*
X-1863177Y27203666D01*
X-1801135Y27205104D01*
X-1129436Y27219949D01*
X-1157981Y27435131D01*
X-1191829Y27620855D01*
X-1239701Y27739735D01*
X-1310643Y27809447D01*
X-1361539Y27832802D01*
X-1436121Y27844073D01*
X-1577883Y27852721D01*
X-1769360Y27858132D01*
X-1993091Y27859693D01*
X-2104557Y27858920D01*
X-2752280Y27851503D01*
X-2739557Y28071131D01*
X-2726833Y28290760D01*
X-2557500Y28320607D01*
X-2448727Y28332470D01*
X-2278815Y28342532D01*
X-2071288Y28349710D01*
X-1856100Y28352894D01*
X-1504068Y28344768D01*
G36*
X6168926Y28352334D02*
G01*
X6369704Y28342273D01*
X6491250Y28328162D01*
X6650000Y28301922D01*
X6650000Y27819013D01*
X6385417Y27856548D01*
X6184266Y27873020D01*
X5972303Y27870807D01*
X5777091Y27851867D01*
X5626193Y27818157D01*
X5581521Y27799462D01*
X5501015Y27736094D01*
X5443659Y27637314D01*
X5406405Y27491045D01*
X5386203Y27285207D01*
X5380002Y27007724D01*
X5380000Y27001409D01*
X5386429Y26710640D01*
X5407711Y26492033D01*
X5446834Y26333917D01*
X5506789Y26224624D01*
X5590564Y26152484D01*
X5598666Y26147810D01*
X5691147Y26119928D01*
X5851801Y26103805D01*
X6087291Y26098908D01*
X6197053Y26099868D01*
X6696605Y26107266D01*
X6683886Y25887450D01*
X6672585Y25757565D01*
X6649004Y25688113D01*
X6599430Y25654874D01*
X6544167Y25640659D01*
X6399603Y25621654D01*
X6204167Y25611532D01*
X5981642Y25609777D01*
X5755813Y25615876D01*
X5550466Y25629312D01*
X5389385Y25649571D01*
X5316500Y25667252D01*
X5114228Y25781895D01*
X4957171Y25959844D01*
X4865609Y26162926D01*
X4841794Y26295527D01*
X4825089Y26490956D01*
X4815466Y26727675D01*
X4812898Y26984144D01*
X4817360Y27238827D01*
X4828823Y27470185D01*
X4847262Y27656680D01*
X4867599Y27761132D01*
X4959716Y27955090D01*
X5106500Y28129372D01*
X5284021Y28259490D01*
X5402121Y28308116D01*
X5534543Y28330849D01*
X5724429Y28346127D01*
X5944862Y28353454D01*
X6168926Y28352334D01*
X6168926Y28352334D01*
G37*
X6168926Y28352334D02*
X6369704Y28342273D01*
X6491250Y28328162D01*
X6650000Y28301922D01*
X6650000Y27819013D01*
X6385417Y27856548D01*
X6184266Y27873020D01*
X5972303Y27870807D01*
X5777091Y27851867D01*
X5626193Y27818157D01*
X5581521Y27799462D01*
X5501015Y27736094D01*
X5443659Y27637314D01*
X5406405Y27491045D01*
X5386203Y27285207D01*
X5380002Y27007724D01*
X5380000Y27001409D01*
X5386429Y26710640D01*
X5407711Y26492033D01*
X5446834Y26333917D01*
X5506789Y26224624D01*
X5590564Y26152484D01*
X5598666Y26147810D01*
X5691147Y26119928D01*
X5851801Y26103805D01*
X6087291Y26098908D01*
X6197053Y26099868D01*
X6696605Y26107266D01*
X6683886Y25887450D01*
X6672585Y25757565D01*
X6649004Y25688113D01*
X6599430Y25654874D01*
X6544167Y25640659D01*
X6399603Y25621654D01*
X6204167Y25611532D01*
X5981642Y25609777D01*
X5755813Y25615876D01*
X5550466Y25629312D01*
X5389385Y25649571D01*
X5316500Y25667252D01*
X5114228Y25781895D01*
X4957171Y25959844D01*
X4865609Y26162926D01*
X4841794Y26295527D01*
X4825089Y26490956D01*
X4815466Y26727675D01*
X4812898Y26984144D01*
X4817360Y27238827D01*
X4828823Y27470185D01*
X4847262Y27656680D01*
X4867599Y27761132D01*
X4959716Y27955090D01*
X5106500Y28129372D01*
X5284021Y28259490D01*
X5402121Y28308116D01*
X5534543Y28330849D01*
X5724429Y28346127D01*
X5944862Y28353454D01*
X6168926Y28352334D01*
G36*
X-7074836Y27495520D02*
G01*
X-6941919Y27125076D01*
X-6818262Y26779146D01*
X-6706739Y26465864D01*
X-6610224Y26193364D01*
X-6531590Y25969779D01*
X-6473711Y25803243D01*
X-6439462Y25701890D01*
X-6431000Y25673332D01*
X-6469727Y25659782D01*
X-6571824Y25652924D01*
X-6716168Y25654054D01*
X-6733889Y25654729D01*
X-7036778Y25667167D01*
X-7331536Y26492667D01*
X-8109982Y26492667D01*
X-8384167Y26492370D01*
X-8585588Y26490548D01*
X-8726150Y26485806D01*
X-8817757Y26476748D01*
X-8872312Y26461978D01*
X-8901720Y26440101D01*
X-8917883Y26409722D01*
X-8922402Y26397417D01*
X-8952477Y26313238D01*
X-9001606Y26175870D01*
X-9060304Y26011834D01*
X-9073816Y25974083D01*
X-9191257Y25646000D01*
X-9486399Y25646000D01*
X-9648067Y25650101D01*
X-9737941Y25664070D01*
X-9768569Y25690409D01*
X-9767854Y25702079D01*
X-9751084Y25752528D01*
X-9708616Y25874286D01*
X-9643420Y26058997D01*
X-9558467Y26298304D01*
X-9456728Y26583853D01*
X-9341173Y26907286D01*
X-9292573Y27043000D01*
X-8714905Y27043000D01*
X-7525961Y27043000D01*
X-7555597Y27138250D01*
X-7615503Y27322152D01*
X-7688477Y27532915D01*
X-7769303Y27756971D01*
X-7852766Y27980752D01*
X-7933650Y28190691D01*
X-8006739Y28373220D01*
X-8066817Y28514770D01*
X-8108669Y28601774D01*
X-8126190Y28622544D01*
X-8150669Y28572803D01*
X-8197550Y28457255D01*
X-8261392Y28290050D01*
X-8336752Y28085339D01*
X-8391775Y27932000D01*
X-8473643Y27702138D01*
X-8548723Y27492477D01*
X-8611081Y27319498D01*
X-8654788Y27199678D01*
X-8669877Y27159417D01*
X-8714905Y27043000D01*
X-9292573Y27043000D01*
X-9214774Y27260248D01*
X-9120715Y27522413D01*
X-8487264Y29286667D01*
X-7718672Y29286667D01*
X-7074836Y27495520D01*
X-7074836Y27495520D01*
G37*
X-7074836Y27495520D02*
X-6941919Y27125076D01*
X-6818262Y26779146D01*
X-6706739Y26465864D01*
X-6610224Y26193364D01*
X-6531590Y25969779D01*
X-6473711Y25803243D01*
X-6439462Y25701890D01*
X-6431000Y25673332D01*
X-6469727Y25659782D01*
X-6571824Y25652924D01*
X-6716168Y25654054D01*
X-6733889Y25654729D01*
X-7036778Y25667167D01*
X-7331536Y26492667D01*
X-8109982Y26492667D01*
X-8384167Y26492370D01*
X-8585588Y26490548D01*
X-8726150Y26485806D01*
X-8817757Y26476748D01*
X-8872312Y26461978D01*
X-8901720Y26440101D01*
X-8917883Y26409722D01*
X-8922402Y26397417D01*
X-8952477Y26313238D01*
X-9001606Y26175870D01*
X-9060304Y26011834D01*
X-9073816Y25974083D01*
X-9191257Y25646000D01*
X-9486399Y25646000D01*
X-9648067Y25650101D01*
X-9737941Y25664070D01*
X-9768569Y25690409D01*
X-9767854Y25702079D01*
X-9751084Y25752528D01*
X-9708616Y25874286D01*
X-9643420Y26058997D01*
X-9558467Y26298304D01*
X-9456728Y26583853D01*
X-9341173Y26907286D01*
X-9292573Y27043000D01*
X-8714905Y27043000D01*
X-7525961Y27043000D01*
X-7555597Y27138250D01*
X-7615503Y27322152D01*
X-7688477Y27532915D01*
X-7769303Y27756971D01*
X-7852766Y27980752D01*
X-7933650Y28190691D01*
X-8006739Y28373220D01*
X-8066817Y28514770D01*
X-8108669Y28601774D01*
X-8126190Y28622544D01*
X-8150669Y28572803D01*
X-8197550Y28457255D01*
X-8261392Y28290050D01*
X-8336752Y28085339D01*
X-8391775Y27932000D01*
X-8473643Y27702138D01*
X-8548723Y27492477D01*
X-8611081Y27319498D01*
X-8654788Y27199678D01*
X-8669877Y27159417D01*
X-8714905Y27043000D01*
X-9292573Y27043000D01*
X-9214774Y27260248D01*
X-9120715Y27522413D01*
X-8487264Y29286667D01*
X-7718672Y29286667D01*
X-7074836Y27495520D01*
G36*
X1865547Y28339170D02*
G01*
X2062773Y28286633D01*
X2214199Y28191656D01*
X2296779Y28103221D01*
X2402700Y27967879D01*
X2476483Y28080487D01*
X2613518Y28213797D01*
X2818711Y28304163D01*
X3085981Y28349348D01*
X3221000Y28354338D01*
X3470494Y28341128D01*
X3655883Y28294439D01*
X3793880Y28206021D01*
X3901197Y28067629D01*
X3937022Y28001006D01*
X3968499Y27934079D01*
X3993040Y27868013D01*
X4011760Y27791127D01*
X4025772Y27691742D01*
X4036192Y27558177D01*
X4044133Y27378753D01*
X4050711Y27141791D01*
X4057038Y26835609D01*
X4059205Y26720423D01*
X4079200Y25646000D01*
X3479277Y25646000D01*
X3466555Y26660568D01*
X3461622Y26989880D01*
X3455629Y27244453D01*
X3447864Y27434211D01*
X3437617Y27569082D01*
X3424179Y27658992D01*
X3406838Y27713866D01*
X3389324Y27739565D01*
X3286734Y27795389D01*
X3131370Y27828154D01*
X2952770Y27834630D01*
X2780474Y27811582D01*
X2765761Y27807808D01*
X2669785Y27777148D01*
X2594666Y27736257D01*
X2537635Y27675071D01*
X2495921Y27583524D01*
X2466752Y27451552D01*
X2447359Y27269088D01*
X2434971Y27026067D01*
X2426818Y26712425D01*
X2424153Y26566750D01*
X2408375Y25646000D01*
X1866333Y25646000D01*
X1866097Y26545583D01*
X1864462Y26897566D01*
X1858643Y27174577D01*
X1846955Y27386277D01*
X1827719Y27542324D01*
X1799251Y27652376D01*
X1759868Y27726094D01*
X1707890Y27773135D01*
X1647413Y27801185D01*
X1431720Y27845119D01*
X1226160Y27830995D01*
X1048677Y27764538D01*
X917216Y27651474D01*
X863306Y27551000D01*
X843346Y27444863D01*
X827827Y27259635D01*
X817032Y27000792D01*
X811242Y26673806D01*
X810389Y26524417D01*
X808000Y25646000D01*
X257667Y25646000D01*
X257667Y28313000D01*
X765667Y28313000D01*
X765667Y28143667D01*
X776447Y28022091D01*
X806281Y27978963D01*
X851409Y28016498D01*
X882499Y28074758D01*
X977679Y28188279D01*
X1139935Y28276876D01*
X1353823Y28334557D01*
X1603898Y28355332D01*
X1605892Y28355333D01*
X1865547Y28339170D01*
X1865547Y28339170D01*
G37*
X1865547Y28339170D02*
X2062773Y28286633D01*
X2214199Y28191656D01*
X2296779Y28103221D01*
X2402700Y27967879D01*
X2476483Y28080487D01*
X2613518Y28213797D01*
X2818711Y28304163D01*
X3085981Y28349348D01*
X3221000Y28354338D01*
X3470494Y28341128D01*
X3655883Y28294439D01*
X3793880Y28206021D01*
X3901197Y28067629D01*
X3937022Y28001006D01*
X3968499Y27934079D01*
X3993040Y27868013D01*
X4011760Y27791127D01*
X4025772Y27691742D01*
X4036192Y27558177D01*
X4044133Y27378753D01*
X4050711Y27141791D01*
X4057038Y26835609D01*
X4059205Y26720423D01*
X4079200Y25646000D01*
X3479277Y25646000D01*
X3466555Y26660568D01*
X3461622Y26989880D01*
X3455629Y27244453D01*
X3447864Y27434211D01*
X3437617Y27569082D01*
X3424179Y27658992D01*
X3406838Y27713866D01*
X3389324Y27739565D01*
X3286734Y27795389D01*
X3131370Y27828154D01*
X2952770Y27834630D01*
X2780474Y27811582D01*
X2765761Y27807808D01*
X2669785Y27777148D01*
X2594666Y27736257D01*
X2537635Y27675071D01*
X2495921Y27583524D01*
X2466752Y27451552D01*
X2447359Y27269088D01*
X2434971Y27026067D01*
X2426818Y26712425D01*
X2424153Y26566750D01*
X2408375Y25646000D01*
X1866333Y25646000D01*
X1866097Y26545583D01*
X1864462Y26897566D01*
X1858643Y27174577D01*
X1846955Y27386277D01*
X1827719Y27542324D01*
X1799251Y27652376D01*
X1759868Y27726094D01*
X1707890Y27773135D01*
X1647413Y27801185D01*
X1431720Y27845119D01*
X1226160Y27830995D01*
X1048677Y27764538D01*
X917216Y27651474D01*
X863306Y27551000D01*
X843346Y27444863D01*
X827827Y27259635D01*
X817032Y27000792D01*
X811242Y26673806D01*
X810389Y26524417D01*
X808000Y25646000D01*
X257667Y25646000D01*
X257667Y28313000D01*
X765667Y28313000D01*
X765667Y28143667D01*
X776447Y28022091D01*
X806281Y27978963D01*
X851409Y28016498D01*
X882499Y28074758D01*
X977679Y28188279D01*
X1139935Y28276876D01*
X1353823Y28334557D01*
X1603898Y28355332D01*
X1605892Y28355333D01*
X1865547Y28339170D01*
G36*
X7920000Y25646000D02*
G01*
X7327333Y25646000D01*
X7327333Y28313000D01*
X7920000Y28313000D01*
X7920000Y25646000D01*
X7920000Y25646000D01*
G37*
X7920000Y25646000D02*
X7327333Y25646000D01*
X7327333Y28313000D01*
X7920000Y28313000D01*
X7920000Y25646000D01*
G36*
X9031250Y29574437D02*
G01*
X9295833Y29561833D01*
X9318361Y27254667D01*
X9463453Y27254667D01*
X9521573Y27258910D01*
X9575645Y27278114D01*
X9635970Y27321993D01*
X9712853Y27400261D01*
X9816595Y27522632D01*
X9957499Y27698818D01*
X10023689Y27782865D01*
X10438833Y28311064D01*
X10748248Y28312032D01*
X10894445Y28308510D01*
X10997539Y28298315D01*
X11038336Y28283518D01*
X11037758Y28280792D01*
X11006113Y28238885D01*
X10930238Y28141952D01*
X10818855Y28001030D01*
X10680688Y27827156D01*
X10530982Y27639530D01*
X10044112Y27030474D01*
X10548389Y26360722D01*
X10702722Y26154663D01*
X10837968Y25972017D01*
X10946411Y25823373D01*
X11020337Y25719325D01*
X11052030Y25670462D01*
X11052667Y25668485D01*
X11013819Y25657649D01*
X10911195Y25649676D01*
X10765676Y25646071D01*
X10740888Y25646000D01*
X10429109Y25646000D01*
X10010640Y26196333D01*
X9853090Y26401947D01*
X9735996Y26549073D01*
X9649588Y26647380D01*
X9584095Y26706539D01*
X9529746Y26736221D01*
X9476770Y26746096D01*
X9454585Y26746667D01*
X9317000Y26746667D01*
X9317000Y25646000D01*
X8766667Y25646000D01*
X8766667Y29587040D01*
X9031250Y29574437D01*
X9031250Y29574437D01*
G37*
X9031250Y29574437D02*
X9295833Y29561833D01*
X9318361Y27254667D01*
X9463453Y27254667D01*
X9521573Y27258910D01*
X9575645Y27278114D01*
X9635970Y27321993D01*
X9712853Y27400261D01*
X9816595Y27522632D01*
X9957499Y27698818D01*
X10023689Y27782865D01*
X10438833Y28311064D01*
X10748248Y28312032D01*
X10894445Y28308510D01*
X10997539Y28298315D01*
X11038336Y28283518D01*
X11037758Y28280792D01*
X11006113Y28238885D01*
X10930238Y28141952D01*
X10818855Y28001030D01*
X10680688Y27827156D01*
X10530982Y27639530D01*
X10044112Y27030474D01*
X10548389Y26360722D01*
X10702722Y26154663D01*
X10837968Y25972017D01*
X10946411Y25823373D01*
X11020337Y25719325D01*
X11052030Y25670462D01*
X11052667Y25668485D01*
X11013819Y25657649D01*
X10911195Y25649676D01*
X10765676Y25646071D01*
X10740888Y25646000D01*
X10429109Y25646000D01*
X10010640Y26196333D01*
X9853090Y26401947D01*
X9735996Y26549073D01*
X9649588Y26647380D01*
X9584095Y26706539D01*
X9529746Y26736221D01*
X9476770Y26746096D01*
X9454585Y26746667D01*
X9317000Y26746667D01*
X9317000Y25646000D01*
X8766667Y25646000D01*
X8766667Y29587040D01*
X9031250Y29574437D01*
G36*
X6418133Y29576738D02*
G01*
X6486467Y29561290D01*
X6492111Y29557444D01*
X6479390Y29514971D01*
X6424930Y29420288D01*
X6338107Y29288686D01*
X6258479Y29176444D01*
X5999290Y28821000D01*
X5700228Y28822100D01*
X5401167Y28823200D01*
X5157750Y29159917D01*
X5053802Y29307869D01*
X4971987Y29432236D01*
X4923209Y29516003D01*
X4914333Y29539817D01*
X4951795Y29567269D01*
X5044986Y29582132D01*
X5077526Y29583000D01*
X5170326Y29575349D01*
X5249967Y29543362D01*
X5338757Y29473493D01*
X5459005Y29352193D01*
X5460922Y29350167D01*
X5568927Y29238805D01*
X5653905Y29156458D01*
X5700050Y29118328D01*
X5703014Y29117333D01*
X5740044Y29146314D01*
X5817779Y29222877D01*
X5920528Y29331456D01*
X5937699Y29350167D01*
X6055639Y29473191D01*
X6142922Y29543778D01*
X6221583Y29575765D01*
X6308525Y29583000D01*
X6418133Y29576738D01*
X6418133Y29576738D01*
G37*
X6418133Y29576738D02*
X6486467Y29561290D01*
X6492111Y29557444D01*
X6479390Y29514971D01*
X6424930Y29420288D01*
X6338107Y29288686D01*
X6258479Y29176444D01*
X5999290Y28821000D01*
X5700228Y28822100D01*
X5401167Y28823200D01*
X5157750Y29159917D01*
X5053802Y29307869D01*
X4971987Y29432236D01*
X4923209Y29516003D01*
X4914333Y29539817D01*
X4951795Y29567269D01*
X5044986Y29582132D01*
X5077526Y29583000D01*
X5170326Y29575349D01*
X5249967Y29543362D01*
X5338757Y29473493D01*
X5459005Y29352193D01*
X5460922Y29350167D01*
X5568927Y29238805D01*
X5653905Y29156458D01*
X5700050Y29118328D01*
X5703014Y29117333D01*
X5740044Y29146314D01*
X5817779Y29222877D01*
X5920528Y29331456D01*
X5937699Y29350167D01*
X6055639Y29473191D01*
X6142922Y29543778D01*
X6221583Y29575765D01*
X6308525Y29583000D01*
X6418133Y29576738D01*
G36*
X8295895Y29577474D02*
G01*
X8393657Y29563034D01*
X8428000Y29544180D01*
X8400585Y29499404D01*
X8326269Y29407783D01*
X8216946Y29283394D01*
X8106102Y29163180D01*
X7964470Y29014052D01*
X7863950Y28916099D01*
X7787913Y28858567D01*
X7719734Y28830705D01*
X7642786Y28821762D01*
X7576935Y28821000D01*
X7457601Y28824700D01*
X7382682Y28834139D01*
X7369667Y28841150D01*
X7392780Y28881774D01*
X7455246Y28975747D01*
X7546752Y29107848D01*
X7627780Y29222150D01*
X7885894Y29583000D01*
X8156947Y29583000D01*
X8295895Y29577474D01*
X8295895Y29577474D01*
G37*
X8295895Y29577474D02*
X8393657Y29563034D01*
X8428000Y29544180D01*
X8400585Y29499404D01*
X8326269Y29407783D01*
X8216946Y29283394D01*
X8106102Y29163180D01*
X7964470Y29014052D01*
X7863950Y28916099D01*
X7787913Y28858567D01*
X7719734Y28830705D01*
X7642786Y28821762D01*
X7576935Y28821000D01*
X7457601Y28824700D01*
X7382682Y28834139D01*
X7369667Y28841150D01*
X7392780Y28881774D01*
X7455246Y28975747D01*
X7546752Y29107848D01*
X7627780Y29222150D01*
X7885894Y29583000D01*
X8156947Y29583000D01*
X8295895Y29577474D01*
G36*
X-8123685Y30630750D02*
G01*
X-8119996Y30433287D01*
X-8110493Y30263608D01*
X-8096692Y30141743D01*
X-8082896Y30091000D01*
X-8009119Y30045755D01*
X-7859873Y30027891D01*
X-7826132Y30027500D01*
X-7695116Y30034063D01*
X-7603095Y30062099D01*
X-7543287Y30124130D01*
X-7508912Y30232678D01*
X-7493189Y30400263D01*
X-7489337Y30639407D01*
X-7489333Y30649425D01*
X-7489333Y31107000D01*
X-7277667Y31107000D01*
X-7277667Y30414817D01*
X-7280176Y30104248D01*
X-7289446Y29866915D01*
X-7308096Y29691490D01*
X-7338741Y29566644D01*
X-7383999Y29481050D01*
X-7446486Y29423378D01*
X-7514869Y29387946D01*
X-7618733Y29360315D01*
X-7763405Y29340636D01*
X-7922730Y29330043D01*
X-8070557Y29329673D01*
X-8180730Y29340658D01*
X-8223111Y29357222D01*
X-8246872Y29419064D01*
X-8251333Y29467862D01*
X-8242003Y29517386D01*
X-8199439Y29535213D01*
X-8101779Y29527640D01*
X-8063129Y29522057D01*
X-7899125Y29514331D01*
X-7737867Y29534334D01*
X-7604417Y29576201D01*
X-7523833Y29634063D01*
X-7514853Y29650422D01*
X-7495996Y29740871D01*
X-7489333Y29842863D01*
X-7493879Y29928070D01*
X-7521207Y29941743D01*
X-7583420Y29902901D01*
X-7710772Y29852832D01*
X-7877652Y29835959D01*
X-8048046Y29851424D01*
X-8185942Y29898372D01*
X-8214894Y29917902D01*
X-8255890Y29956013D01*
X-8284441Y30002779D01*
X-8303368Y30073810D01*
X-8315492Y30184714D01*
X-8323634Y30351100D01*
X-8329668Y30552902D01*
X-8344503Y31107000D01*
X-8124333Y31107000D01*
X-8123685Y30630750D01*
X-8123685Y30630750D01*
G37*
X-8123685Y30630750D02*
X-8119996Y30433287D01*
X-8110493Y30263608D01*
X-8096692Y30141743D01*
X-8082896Y30091000D01*
X-8009119Y30045755D01*
X-7859873Y30027891D01*
X-7826132Y30027500D01*
X-7695116Y30034063D01*
X-7603095Y30062099D01*
X-7543287Y30124130D01*
X-7508912Y30232678D01*
X-7493189Y30400263D01*
X-7489337Y30639407D01*
X-7489333Y30649425D01*
X-7489333Y31107000D01*
X-7277667Y31107000D01*
X-7277667Y30414817D01*
X-7280176Y30104248D01*
X-7289446Y29866915D01*
X-7308096Y29691490D01*
X-7338741Y29566644D01*
X-7383999Y29481050D01*
X-7446486Y29423378D01*
X-7514869Y29387946D01*
X-7618733Y29360315D01*
X-7763405Y29340636D01*
X-7922730Y29330043D01*
X-8070557Y29329673D01*
X-8180730Y29340658D01*
X-8223111Y29357222D01*
X-8246872Y29419064D01*
X-8251333Y29467862D01*
X-8242003Y29517386D01*
X-8199439Y29535213D01*
X-8101779Y29527640D01*
X-8063129Y29522057D01*
X-7899125Y29514331D01*
X-7737867Y29534334D01*
X-7604417Y29576201D01*
X-7523833Y29634063D01*
X-7514853Y29650422D01*
X-7495996Y29740871D01*
X-7489333Y29842863D01*
X-7493879Y29928070D01*
X-7521207Y29941743D01*
X-7583420Y29902901D01*
X-7710772Y29852832D01*
X-7877652Y29835959D01*
X-8048046Y29851424D01*
X-8185942Y29898372D01*
X-8214894Y29917902D01*
X-8255890Y29956013D01*
X-8284441Y30002779D01*
X-8303368Y30073810D01*
X-8315492Y30184714D01*
X-8323634Y30351100D01*
X-8329668Y30552902D01*
X-8344503Y31107000D01*
X-8124333Y31107000D01*
X-8123685Y30630750D01*
G36*
X-9648482Y31650263D02*
G01*
X-9623200Y31617698D01*
X-9610562Y31542607D01*
X-9606312Y31407959D01*
X-9606000Y31318667D01*
X-9602348Y31161609D01*
X-9592643Y31043607D01*
X-9578760Y30984586D01*
X-9574250Y30981347D01*
X-9519125Y31005451D01*
X-9460326Y31044847D01*
X-9361418Y31083779D01*
X-9215581Y31103664D01*
X-9058673Y31103207D01*
X-8926551Y31081107D01*
X-8888003Y31065560D01*
X-8802129Y30972883D01*
X-8745264Y30805048D01*
X-8718815Y30566935D01*
X-8717000Y30472000D01*
X-8732913Y30211368D01*
X-8779714Y30019373D01*
X-8855998Y29900896D01*
X-8888003Y29878440D01*
X-8972735Y29855114D01*
X-9106342Y29840083D01*
X-9201050Y29837000D01*
X-9361583Y29846405D01*
X-9465912Y29879352D01*
X-9521333Y29921667D01*
X-9582022Y29978929D01*
X-9603394Y29976324D01*
X-9606000Y29921667D01*
X-9635934Y29850915D01*
X-9690667Y29837000D01*
X-9718535Y29840154D01*
X-9739506Y29856632D01*
X-9754560Y29896959D01*
X-9764674Y29971661D01*
X-9770830Y30091262D01*
X-9774004Y30266289D01*
X-9774981Y30467033D01*
X-9584639Y30467033D01*
X-9581559Y30305398D01*
X-9567599Y30203901D01*
X-9536075Y30138121D01*
X-9480299Y30083632D01*
X-9479498Y30082982D01*
X-9381631Y30026371D01*
X-9261787Y30012742D01*
X-9188513Y30018521D01*
X-9066752Y30043583D01*
X-8981844Y30081624D01*
X-8966413Y30096974D01*
X-8948832Y30165031D01*
X-8935711Y30292290D01*
X-8929505Y30453309D01*
X-8929315Y30481608D01*
X-8931159Y30649212D01*
X-8941372Y30753887D01*
X-8965747Y30817329D01*
X-9010079Y30861235D01*
X-9035320Y30878597D01*
X-9175391Y30928654D01*
X-9296972Y30923326D01*
X-9432821Y30888471D01*
X-9518900Y30826206D01*
X-9565605Y30720040D01*
X-9583333Y30553482D01*
X-9584639Y30467033D01*
X-9774981Y30467033D01*
X-9775178Y30507266D01*
X-9775333Y30747167D01*
X-9775040Y31046748D01*
X-9773507Y31272189D01*
X-9769756Y31434013D01*
X-9762807Y31542748D01*
X-9751681Y31608916D01*
X-9735400Y31643045D01*
X-9712983Y31655659D01*
X-9690667Y31657333D01*
X-9648482Y31650263D01*
X-9648482Y31650263D01*
G37*
X-9648482Y31650263D02*
X-9623200Y31617698D01*
X-9610562Y31542607D01*
X-9606312Y31407959D01*
X-9606000Y31318667D01*
X-9602348Y31161609D01*
X-9592643Y31043607D01*
X-9578760Y30984586D01*
X-9574250Y30981347D01*
X-9519125Y31005451D01*
X-9460326Y31044847D01*
X-9361418Y31083779D01*
X-9215581Y31103664D01*
X-9058673Y31103207D01*
X-8926551Y31081107D01*
X-8888003Y31065560D01*
X-8802129Y30972883D01*
X-8745264Y30805048D01*
X-8718815Y30566935D01*
X-8717000Y30472000D01*
X-8732913Y30211368D01*
X-8779714Y30019373D01*
X-8855998Y29900896D01*
X-8888003Y29878440D01*
X-8972735Y29855114D01*
X-9106342Y29840083D01*
X-9201050Y29837000D01*
X-9361583Y29846405D01*
X-9465912Y29879352D01*
X-9521333Y29921667D01*
X-9582022Y29978929D01*
X-9603394Y29976324D01*
X-9606000Y29921667D01*
X-9635934Y29850915D01*
X-9690667Y29837000D01*
X-9718535Y29840154D01*
X-9739506Y29856632D01*
X-9754560Y29896959D01*
X-9764674Y29971661D01*
X-9770830Y30091262D01*
X-9774004Y30266289D01*
X-9774981Y30467033D01*
X-9584639Y30467033D01*
X-9581559Y30305398D01*
X-9567599Y30203901D01*
X-9536075Y30138121D01*
X-9480299Y30083632D01*
X-9479498Y30082982D01*
X-9381631Y30026371D01*
X-9261787Y30012742D01*
X-9188513Y30018521D01*
X-9066752Y30043583D01*
X-8981844Y30081624D01*
X-8966413Y30096974D01*
X-8948832Y30165031D01*
X-8935711Y30292290D01*
X-8929505Y30453309D01*
X-8929315Y30481608D01*
X-8931159Y30649212D01*
X-8941372Y30753887D01*
X-8965747Y30817329D01*
X-9010079Y30861235D01*
X-9035320Y30878597D01*
X-9175391Y30928654D01*
X-9296972Y30923326D01*
X-9432821Y30888471D01*
X-9518900Y30826206D01*
X-9565605Y30720040D01*
X-9583333Y30553482D01*
X-9584639Y30467033D01*
X-9774981Y30467033D01*
X-9775178Y30507266D01*
X-9775333Y30747167D01*
X-9775040Y31046748D01*
X-9773507Y31272189D01*
X-9769756Y31434013D01*
X-9762807Y31542748D01*
X-9751681Y31608916D01*
X-9735400Y31643045D01*
X-9712983Y31655659D01*
X-9690667Y31657333D01*
X-9648482Y31650263D01*
G36*
X3567720Y32562880D02*
G01*
X3806145Y32542926D01*
X3986600Y32498501D01*
X4117076Y32420466D01*
X4205566Y32299685D01*
X4260062Y32127019D01*
X4288556Y31893330D01*
X4299040Y31589479D01*
X4300021Y31382167D01*
X4297323Y31072736D01*
X4287177Y30835743D01*
X4265801Y30659040D01*
X4229415Y30530478D01*
X4174240Y30437908D01*
X4096495Y30369183D01*
X3992399Y30312152D01*
X3962919Y30298786D01*
X3803947Y30250858D01*
X3588567Y30215947D01*
X3344310Y30196007D01*
X3098708Y30192992D01*
X2879295Y30208854D01*
X2821536Y30217795D01*
X2599844Y30284079D01*
X2437319Y30398384D01*
X2316199Y30573369D01*
X2312582Y30580565D01*
X2280080Y30656332D01*
X2257201Y30742164D01*
X2242337Y30854013D01*
X2233882Y31007831D01*
X2230529Y31202168D01*
X2715874Y31202168D01*
X2716461Y31039788D01*
X2724076Y30929232D01*
X2740551Y30854114D01*
X2767717Y30798044D01*
X2795770Y30759193D01*
X2895745Y30672350D01*
X3035796Y30633122D01*
X3063454Y30630228D01*
X3188674Y30623271D01*
X3282251Y30625327D01*
X3298546Y30627852D01*
X3378043Y30637181D01*
X3493408Y30641321D01*
X3499629Y30641333D01*
X3646467Y30671704D01*
X3729000Y30726000D01*
X3763413Y30767924D01*
X3787070Y30823019D01*
X3801943Y30906620D01*
X3810006Y31034063D01*
X3813230Y31220681D01*
X3813667Y31384091D01*
X3813026Y31615065D01*
X3809422Y31777265D01*
X3800334Y31886584D01*
X3783239Y31958916D01*
X3755615Y32010151D01*
X3714942Y32056182D01*
X3705509Y32065673D01*
X3646659Y32118532D01*
X3585799Y32149462D01*
X3500477Y32162978D01*
X3368243Y32163593D01*
X3241337Y32158999D01*
X3056372Y32149090D01*
X2923011Y32128950D01*
X2832410Y32086249D01*
X2775726Y32008655D01*
X2744115Y31883839D01*
X2728733Y31699468D01*
X2720738Y31443213D01*
X2720483Y31432760D01*
X2715874Y31202168D01*
X2230529Y31202168D01*
X2230228Y31219568D01*
X2229665Y31403333D01*
X2230996Y31663389D01*
X2236063Y31854794D01*
X2246474Y31993538D01*
X2263836Y32095612D01*
X2289759Y32177004D01*
X2312582Y32227655D01*
X2385183Y32351437D01*
X2471998Y32441792D01*
X2586810Y32503645D01*
X2743404Y32541925D01*
X2955562Y32561559D01*
X3237070Y32567472D01*
X3263333Y32567500D01*
X3567720Y32562880D01*
X3567720Y32562880D01*
G37*
X3567720Y32562880D02*
X3806145Y32542926D01*
X3986600Y32498501D01*
X4117076Y32420466D01*
X4205566Y32299685D01*
X4260062Y32127019D01*
X4288556Y31893330D01*
X4299040Y31589479D01*
X4300021Y31382167D01*
X4297323Y31072736D01*
X4287177Y30835743D01*
X4265801Y30659040D01*
X4229415Y30530478D01*
X4174240Y30437908D01*
X4096495Y30369183D01*
X3992399Y30312152D01*
X3962919Y30298786D01*
X3803947Y30250858D01*
X3588567Y30215947D01*
X3344310Y30196007D01*
X3098708Y30192992D01*
X2879295Y30208854D01*
X2821536Y30217795D01*
X2599844Y30284079D01*
X2437319Y30398384D01*
X2316199Y30573369D01*
X2312582Y30580565D01*
X2280080Y30656332D01*
X2257201Y30742164D01*
X2242337Y30854013D01*
X2233882Y31007831D01*
X2230529Y31202168D01*
X2715874Y31202168D01*
X2716461Y31039788D01*
X2724076Y30929232D01*
X2740551Y30854114D01*
X2767717Y30798044D01*
X2795770Y30759193D01*
X2895745Y30672350D01*
X3035796Y30633122D01*
X3063454Y30630228D01*
X3188674Y30623271D01*
X3282251Y30625327D01*
X3298546Y30627852D01*
X3378043Y30637181D01*
X3493408Y30641321D01*
X3499629Y30641333D01*
X3646467Y30671704D01*
X3729000Y30726000D01*
X3763413Y30767924D01*
X3787070Y30823019D01*
X3801943Y30906620D01*
X3810006Y31034063D01*
X3813230Y31220681D01*
X3813667Y31384091D01*
X3813026Y31615065D01*
X3809422Y31777265D01*
X3800334Y31886584D01*
X3783239Y31958916D01*
X3755615Y32010151D01*
X3714942Y32056182D01*
X3705509Y32065673D01*
X3646659Y32118532D01*
X3585799Y32149462D01*
X3500477Y32162978D01*
X3368243Y32163593D01*
X3241337Y32158999D01*
X3056372Y32149090D01*
X2923011Y32128950D01*
X2832410Y32086249D01*
X2775726Y32008655D01*
X2744115Y31883839D01*
X2728733Y31699468D01*
X2720738Y31443213D01*
X2720483Y31432760D01*
X2715874Y31202168D01*
X2230529Y31202168D01*
X2230228Y31219568D01*
X2229665Y31403333D01*
X2230996Y31663389D01*
X2236063Y31854794D01*
X2246474Y31993538D01*
X2263836Y32095612D01*
X2289759Y32177004D01*
X2312582Y32227655D01*
X2385183Y32351437D01*
X2471998Y32441792D01*
X2586810Y32503645D01*
X2743404Y32541925D01*
X2955562Y32561559D01*
X3237070Y32567472D01*
X3263333Y32567500D01*
X3567720Y32562880D01*
G36*
X6127818Y32579357D02*
G01*
X6246242Y32569233D01*
X6523000Y32539595D01*
X6523000Y32135112D01*
X6016353Y32155978D01*
X5749296Y32162029D01*
X5555325Y32152254D01*
X5423700Y32122716D01*
X5343679Y32069478D01*
X5304521Y31988603D01*
X5295333Y31891689D01*
X5309217Y31784673D01*
X5343039Y31717937D01*
X5347000Y31715065D01*
X5407371Y31696840D01*
X5533096Y31671057D01*
X5705581Y31641195D01*
X5899030Y31611759D01*
X6145216Y31572911D01*
X6321617Y31532911D01*
X6442871Y31484200D01*
X6523617Y31419218D01*
X6578493Y31330406D01*
X6611377Y31243924D01*
X6638279Y31095468D01*
X6642076Y30909234D01*
X6625268Y30716792D01*
X6590356Y30549715D01*
X6548643Y30451725D01*
X6459416Y30355031D01*
X6356298Y30282861D01*
X6246065Y30248601D01*
X6073639Y30221127D01*
X5861345Y30202169D01*
X5631505Y30193457D01*
X5406443Y30196723D01*
X5316500Y30202255D01*
X5130274Y30218983D01*
X5012745Y30240054D01*
X4948120Y30275265D01*
X4920604Y30334410D01*
X4914405Y30427285D01*
X4914333Y30451689D01*
X4914333Y30641430D01*
X5494904Y30638536D01*
X5731530Y30638571D01*
X5897726Y30642501D01*
X6007698Y30651925D01*
X6075650Y30668445D01*
X6115789Y30693661D01*
X6129904Y30710079D01*
X6171135Y30811355D01*
X6182355Y30936274D01*
X6163416Y31046995D01*
X6131417Y31096369D01*
X6068749Y31119148D01*
X5942730Y31146520D01*
X5774226Y31174368D01*
X5655167Y31190362D01*
X5457779Y31218629D01*
X5277207Y31251667D01*
X5139934Y31284309D01*
X5092726Y31300119D01*
X4957300Y31401193D01*
X4870242Y31571480D01*
X4831729Y31810580D01*
X4829667Y31892993D01*
X4857273Y32143766D01*
X4937803Y32339827D01*
X5067823Y32473559D01*
X5099958Y32492417D01*
X5222928Y32532374D01*
X5408673Y32562485D01*
X5635719Y32581312D01*
X5882592Y32587415D01*
X6127818Y32579357D01*
X6127818Y32579357D01*
G37*
X6127818Y32579357D02*
X6246242Y32569233D01*
X6523000Y32539595D01*
X6523000Y32135112D01*
X6016353Y32155978D01*
X5749296Y32162029D01*
X5555325Y32152254D01*
X5423700Y32122716D01*
X5343679Y32069478D01*
X5304521Y31988603D01*
X5295333Y31891689D01*
X5309217Y31784673D01*
X5343039Y31717937D01*
X5347000Y31715065D01*
X5407371Y31696840D01*
X5533096Y31671057D01*
X5705581Y31641195D01*
X5899030Y31611759D01*
X6145216Y31572911D01*
X6321617Y31532911D01*
X6442871Y31484200D01*
X6523617Y31419218D01*
X6578493Y31330406D01*
X6611377Y31243924D01*
X6638279Y31095468D01*
X6642076Y30909234D01*
X6625268Y30716792D01*
X6590356Y30549715D01*
X6548643Y30451725D01*
X6459416Y30355031D01*
X6356298Y30282861D01*
X6246065Y30248601D01*
X6073639Y30221127D01*
X5861345Y30202169D01*
X5631505Y30193457D01*
X5406443Y30196723D01*
X5316500Y30202255D01*
X5130274Y30218983D01*
X5012745Y30240054D01*
X4948120Y30275265D01*
X4920604Y30334410D01*
X4914405Y30427285D01*
X4914333Y30451689D01*
X4914333Y30641430D01*
X5494904Y30638536D01*
X5731530Y30638571D01*
X5897726Y30642501D01*
X6007698Y30651925D01*
X6075650Y30668445D01*
X6115789Y30693661D01*
X6129904Y30710079D01*
X6171135Y30811355D01*
X6182355Y30936274D01*
X6163416Y31046995D01*
X6131417Y31096369D01*
X6068749Y31119148D01*
X5942730Y31146520D01*
X5774226Y31174368D01*
X5655167Y31190362D01*
X5457779Y31218629D01*
X5277207Y31251667D01*
X5139934Y31284309D01*
X5092726Y31300119D01*
X4957300Y31401193D01*
X4870242Y31571480D01*
X4831729Y31810580D01*
X4829667Y31892993D01*
X4857273Y32143766D01*
X4937803Y32339827D01*
X5067823Y32473559D01*
X5099958Y32492417D01*
X5222928Y32532374D01*
X5408673Y32562485D01*
X5635719Y32581312D01*
X5882592Y32587415D01*
X6127818Y32579357D01*
G36*
X8624029Y32555150D02*
G01*
X8801834Y32497652D01*
X8936279Y32406938D01*
X8951394Y32392394D01*
X9026042Y32299163D01*
X9080706Y32180937D01*
X9119682Y32021703D01*
X9147264Y31805445D01*
X9162485Y31605364D01*
X9185745Y31235894D01*
X8415405Y31224364D01*
X7645066Y31212833D01*
X7657944Y31043500D01*
X7671221Y30916378D01*
X7687633Y30817770D01*
X7690986Y30804636D01*
X7739091Y30732084D01*
X7840227Y30679966D01*
X8002096Y30646663D01*
X8232402Y30630558D01*
X8523250Y30629740D01*
X9063000Y30639314D01*
X9063000Y30454353D01*
X9050061Y30321147D01*
X9014205Y30251838D01*
X9006522Y30247719D01*
X8921626Y30231242D01*
X8773889Y30217650D01*
X8585105Y30207507D01*
X8377069Y30201374D01*
X8171574Y30199813D01*
X7990415Y30203388D01*
X7855385Y30212660D01*
X7823871Y30217207D01*
X7600441Y30273779D01*
X7432437Y30359450D01*
X7312350Y30485150D01*
X7232674Y30661803D01*
X7185902Y30900337D01*
X7165808Y31175008D01*
X7159671Y31531530D01*
X7163644Y31612327D01*
X7638546Y31612327D01*
X7666061Y31593541D01*
X7735110Y31581735D01*
X7857953Y31575371D01*
X8046851Y31572912D01*
X8174408Y31572667D01*
X8734208Y31572667D01*
X8708682Y31667917D01*
X8687063Y31791725D01*
X8682578Y31860341D01*
X8653159Y31956554D01*
X8582680Y32056742D01*
X8578091Y32061424D01*
X8511393Y32117328D01*
X8434670Y32148829D01*
X8321995Y32162596D01*
X8174000Y32165333D01*
X8008764Y32161597D01*
X7902107Y32145944D01*
X7828100Y32111706D01*
X7769909Y32061424D01*
X7686214Y31932825D01*
X7666000Y31832053D01*
X7657531Y31717098D01*
X7640304Y31639629D01*
X7638546Y31612327D01*
X7163644Y31612327D01*
X7173661Y31816011D01*
X7210890Y32039348D01*
X7274467Y32212439D01*
X7367502Y32346181D01*
X7493107Y32451472D01*
X7538103Y32479432D01*
X7641060Y32525673D01*
X7774309Y32556166D01*
X7959173Y32574864D01*
X8088293Y32581461D01*
X8390352Y32582173D01*
X8624029Y32555150D01*
X8624029Y32555150D01*
G37*
X8624029Y32555150D02*
X8801834Y32497652D01*
X8936279Y32406938D01*
X8951394Y32392394D01*
X9026042Y32299163D01*
X9080706Y32180937D01*
X9119682Y32021703D01*
X9147264Y31805445D01*
X9162485Y31605364D01*
X9185745Y31235894D01*
X8415405Y31224364D01*
X7645066Y31212833D01*
X7657944Y31043500D01*
X7671221Y30916378D01*
X7687633Y30817770D01*
X7690986Y30804636D01*
X7739091Y30732084D01*
X7840227Y30679966D01*
X8002096Y30646663D01*
X8232402Y30630558D01*
X8523250Y30629740D01*
X9063000Y30639314D01*
X9063000Y30454353D01*
X9050061Y30321147D01*
X9014205Y30251838D01*
X9006522Y30247719D01*
X8921626Y30231242D01*
X8773889Y30217650D01*
X8585105Y30207507D01*
X8377069Y30201374D01*
X8171574Y30199813D01*
X7990415Y30203388D01*
X7855385Y30212660D01*
X7823871Y30217207D01*
X7600441Y30273779D01*
X7432437Y30359450D01*
X7312350Y30485150D01*
X7232674Y30661803D01*
X7185902Y30900337D01*
X7165808Y31175008D01*
X7159671Y31531530D01*
X7163644Y31612327D01*
X7638546Y31612327D01*
X7666061Y31593541D01*
X7735110Y31581735D01*
X7857953Y31575371D01*
X8046851Y31572912D01*
X8174408Y31572667D01*
X8734208Y31572667D01*
X8708682Y31667917D01*
X8687063Y31791725D01*
X8682578Y31860341D01*
X8653159Y31956554D01*
X8582680Y32056742D01*
X8578091Y32061424D01*
X8511393Y32117328D01*
X8434670Y32148829D01*
X8321995Y32162596D01*
X8174000Y32165333D01*
X8008764Y32161597D01*
X7902107Y32145944D01*
X7828100Y32111706D01*
X7769909Y32061424D01*
X7686214Y31932825D01*
X7666000Y31832053D01*
X7657531Y31717098D01*
X7640304Y31639629D01*
X7638546Y31612327D01*
X7163644Y31612327D01*
X7173661Y31816011D01*
X7210890Y32039348D01*
X7274467Y32212439D01*
X7367502Y32346181D01*
X7493107Y32451472D01*
X7538103Y32479432D01*
X7641060Y32525673D01*
X7774309Y32556166D01*
X7959173Y32574864D01*
X8088293Y32581461D01*
X8390352Y32582173D01*
X8624029Y32555150D01*
G36*
X1560116Y32072228D02*
G01*
X1553299Y31658768D01*
X1545287Y31321408D01*
X1534667Y31051585D01*
X1520025Y30840731D01*
X1499946Y30680283D01*
X1473017Y30561675D01*
X1437824Y30476342D01*
X1392954Y30415718D01*
X1336993Y30371238D01*
X1273667Y30336810D01*
X1162010Y30300082D01*
X996561Y30265987D01*
X808127Y30240529D01*
X755083Y30235738D01*
X384667Y30206357D01*
X384667Y30683667D01*
X609409Y30683667D01*
X714641Y30683251D01*
X798952Y30687640D01*
X864813Y30705295D01*
X914694Y30744671D01*
X951067Y30814229D01*
X976404Y30922425D01*
X993175Y31077718D01*
X1003853Y31288567D01*
X1010908Y31563429D01*
X1016812Y31910763D01*
X1019667Y32087788D01*
X1040833Y33371833D01*
X1310231Y33384562D01*
X1579628Y33397290D01*
X1560116Y32072228D01*
X1560116Y32072228D01*
G37*
X1560116Y32072228D02*
X1553299Y31658768D01*
X1545287Y31321408D01*
X1534667Y31051585D01*
X1520025Y30840731D01*
X1499946Y30680283D01*
X1473017Y30561675D01*
X1437824Y30476342D01*
X1392954Y30415718D01*
X1336993Y30371238D01*
X1273667Y30336810D01*
X1162010Y30300082D01*
X996561Y30265987D01*
X808127Y30240529D01*
X755083Y30235738D01*
X384667Y30206357D01*
X384667Y30683667D01*
X609409Y30683667D01*
X714641Y30683251D01*
X798952Y30687640D01*
X864813Y30705295D01*
X914694Y30744671D01*
X951067Y30814229D01*
X976404Y30922425D01*
X993175Y31077718D01*
X1003853Y31288567D01*
X1010908Y31563429D01*
X1016812Y31910763D01*
X1019667Y32087788D01*
X1040833Y33371833D01*
X1310231Y33384562D01*
X1579628Y33397290D01*
X1560116Y32072228D01*
G36*
X11095000Y33223667D02*
G01*
X10883333Y33223667D01*
X10701235Y33205483D01*
X10584524Y33143886D01*
X10523710Y33028308D01*
X10509303Y32848181D01*
X10510865Y32808865D01*
X10523500Y32567500D01*
X10809250Y32554983D01*
X11095000Y32542465D01*
X11095000Y32123000D01*
X10502333Y32123000D01*
X10502333Y30218000D01*
X10036667Y30218000D01*
X10036667Y32123000D01*
X9571000Y32123000D01*
X9571000Y32541909D01*
X9793250Y32554705D01*
X10015500Y32567500D01*
X10037315Y32930184D01*
X10059574Y33164560D01*
X10102112Y33335903D01*
X10177233Y33455596D01*
X10297241Y33535027D01*
X10474442Y33585581D01*
X10721138Y33618642D01*
X10788083Y33624888D01*
X11095000Y33652127D01*
X11095000Y33223667D01*
X11095000Y33223667D01*
G37*
X11095000Y33223667D02*
X10883333Y33223667D01*
X10701235Y33205483D01*
X10584524Y33143886D01*
X10523710Y33028308D01*
X10509303Y32848181D01*
X10510865Y32808865D01*
X10523500Y32567500D01*
X10809250Y32554983D01*
X11095000Y32542465D01*
X11095000Y32123000D01*
X10502333Y32123000D01*
X10502333Y30218000D01*
X10036667Y30218000D01*
X10036667Y32123000D01*
X9571000Y32123000D01*
X9571000Y32541909D01*
X9793250Y32554705D01*
X10015500Y32567500D01*
X10037315Y32930184D01*
X10059574Y33164560D01*
X10102112Y33335903D01*
X10177233Y33455596D01*
X10297241Y33535027D01*
X10474442Y33585581D01*
X10721138Y33618642D01*
X10788083Y33624888D01*
X11095000Y33652127D01*
X11095000Y33223667D01*
G36*
X-3976677Y32853250D02*
G01*
X-3980296Y32515821D01*
X-3993181Y32253351D01*
X-4020205Y32056250D01*
X-4066243Y31914924D01*
X-4136170Y31819782D01*
X-4234860Y31761230D01*
X-4367188Y31729676D01*
X-4538027Y31715529D01*
X-4555196Y31714792D01*
X-4719273Y31711263D01*
X-4853127Y31714189D01*
X-4931984Y31722899D01*
X-4938750Y31725173D01*
X-4983540Y31782686D01*
X-4991667Y31828556D01*
X-4983232Y31868807D01*
X-4946474Y31892260D01*
X-4864209Y31902915D01*
X-4719255Y31904768D01*
X-4666251Y31904268D01*
X-4496339Y31905066D01*
X-4388719Y31915668D01*
X-4321155Y31941107D01*
X-4271407Y31986415D01*
X-4264085Y31995263D01*
X-4209805Y32106948D01*
X-4187980Y32243623D01*
X-4187982Y32244107D01*
X-4195489Y32331158D01*
X-4213380Y32357842D01*
X-4219732Y32351588D01*
X-4323799Y32264611D01*
X-4476276Y32216282D01*
X-4649437Y32208215D01*
X-4815552Y32242027D01*
X-4936390Y32309835D01*
X-4990462Y32360221D01*
X-5024996Y32411950D01*
X-5044366Y32484388D01*
X-5052947Y32596896D01*
X-5055114Y32768838D01*
X-5055167Y32835591D01*
X-5055074Y32846874D01*
X-4864667Y32846874D01*
X-4857362Y32645724D01*
X-4836076Y32516665D01*
X-4811750Y32471406D01*
X-4674975Y32408546D01*
X-4511764Y32400152D01*
X-4356386Y32443390D01*
X-4257199Y32517293D01*
X-4213905Y32585730D01*
X-4193362Y32677275D01*
X-4191423Y32817071D01*
X-4195039Y32894122D01*
X-4209773Y33046085D01*
X-4232635Y33166016D01*
X-4257631Y33226231D01*
X-4355612Y33276559D01*
X-4496583Y33298289D01*
X-4643247Y33289700D01*
X-4757940Y33249312D01*
X-4811795Y33207472D01*
X-4843687Y33155100D01*
X-4859306Y33070745D01*
X-4864339Y32932955D01*
X-4864667Y32846874D01*
X-5055074Y32846874D01*
X-5053539Y33032235D01*
X-5046098Y33164142D01*
X-5029010Y33251222D01*
X-4998441Y33313381D01*
X-4952538Y33368423D01*
X-4878977Y33432659D01*
X-4793875Y33465654D01*
X-4666504Y33477019D01*
X-4603288Y33477667D01*
X-4441617Y33469468D01*
X-4336989Y33440368D01*
X-4272000Y33393000D01*
X-4211312Y33335738D01*
X-4189940Y33338343D01*
X-4187333Y33393000D01*
X-4162529Y33459393D01*
X-4081500Y33477667D01*
X-3975667Y33477667D01*
X-3976677Y32853250D01*
X-3976677Y32853250D01*
G37*
X-3976677Y32853250D02*
X-3980296Y32515821D01*
X-3993181Y32253351D01*
X-4020205Y32056250D01*
X-4066243Y31914924D01*
X-4136170Y31819782D01*
X-4234860Y31761230D01*
X-4367188Y31729676D01*
X-4538027Y31715529D01*
X-4555196Y31714792D01*
X-4719273Y31711263D01*
X-4853127Y31714189D01*
X-4931984Y31722899D01*
X-4938750Y31725173D01*
X-4983540Y31782686D01*
X-4991667Y31828556D01*
X-4983232Y31868807D01*
X-4946474Y31892260D01*
X-4864209Y31902915D01*
X-4719255Y31904768D01*
X-4666251Y31904268D01*
X-4496339Y31905066D01*
X-4388719Y31915668D01*
X-4321155Y31941107D01*
X-4271407Y31986415D01*
X-4264085Y31995263D01*
X-4209805Y32106948D01*
X-4187980Y32243623D01*
X-4187982Y32244107D01*
X-4195489Y32331158D01*
X-4213380Y32357842D01*
X-4219732Y32351588D01*
X-4323799Y32264611D01*
X-4476276Y32216282D01*
X-4649437Y32208215D01*
X-4815552Y32242027D01*
X-4936390Y32309835D01*
X-4990462Y32360221D01*
X-5024996Y32411950D01*
X-5044366Y32484388D01*
X-5052947Y32596896D01*
X-5055114Y32768838D01*
X-5055167Y32835591D01*
X-5055074Y32846874D01*
X-4864667Y32846874D01*
X-4857362Y32645724D01*
X-4836076Y32516665D01*
X-4811750Y32471406D01*
X-4674975Y32408546D01*
X-4511764Y32400152D01*
X-4356386Y32443390D01*
X-4257199Y32517293D01*
X-4213905Y32585730D01*
X-4193362Y32677275D01*
X-4191423Y32817071D01*
X-4195039Y32894122D01*
X-4209773Y33046085D01*
X-4232635Y33166016D01*
X-4257631Y33226231D01*
X-4355612Y33276559D01*
X-4496583Y33298289D01*
X-4643247Y33289700D01*
X-4757940Y33249312D01*
X-4811795Y33207472D01*
X-4843687Y33155100D01*
X-4859306Y33070745D01*
X-4864339Y32932955D01*
X-4864667Y32846874D01*
X-5055074Y32846874D01*
X-5053539Y33032235D01*
X-5046098Y33164142D01*
X-5029010Y33251222D01*
X-4998441Y33313381D01*
X-4952538Y33368423D01*
X-4878977Y33432659D01*
X-4793875Y33465654D01*
X-4666504Y33477019D01*
X-4603288Y33477667D01*
X-4441617Y33469468D01*
X-4336989Y33440368D01*
X-4272000Y33393000D01*
X-4211312Y33335738D01*
X-4189940Y33338343D01*
X-4187333Y33393000D01*
X-4162529Y33459393D01*
X-4081500Y33477667D01*
X-3975667Y33477667D01*
X-3976677Y32853250D01*
G36*
X-8791083Y34062694D02*
G01*
X-8695833Y34049167D01*
X-8695833Y32228833D01*
X-8791083Y32215306D01*
X-8865655Y32223326D01*
X-8886332Y32288389D01*
X-8886333Y32289389D01*
X-8889759Y32348762D01*
X-8913737Y32346900D01*
X-8971000Y32292333D01*
X-9047422Y32239616D01*
X-9157293Y32214213D01*
X-9299083Y32209013D01*
X-9445925Y32219008D01*
X-9565662Y32243305D01*
X-9614919Y32265380D01*
X-9700737Y32371047D01*
X-9753117Y32536878D01*
X-9774529Y32771703D01*
X-9775333Y32839106D01*
X-9775119Y32842667D01*
X-9563667Y32842667D01*
X-9561102Y32671052D01*
X-9550092Y32562913D01*
X-9525668Y32497129D01*
X-9482858Y32452579D01*
X-9469581Y32442901D01*
X-9321244Y32385385D01*
X-9155637Y32389873D01*
X-9010962Y32455121D01*
X-9007440Y32457927D01*
X-8954392Y32510754D01*
X-8924167Y32577350D01*
X-8910594Y32681473D01*
X-8907500Y32842667D01*
X-8910747Y33006562D01*
X-8924603Y33109665D01*
X-8955239Y33175734D01*
X-9007440Y33227407D01*
X-9150929Y33294411D01*
X-9316467Y33300690D01*
X-9465849Y33245003D01*
X-9469581Y33242433D01*
X-9517437Y33199811D01*
X-9545738Y33140920D01*
X-9559456Y33044642D01*
X-9563560Y32889856D01*
X-9563667Y32842667D01*
X-9775119Y32842667D01*
X-9759495Y33101859D01*
X-9712808Y33294812D01*
X-9636511Y33413636D01*
X-9604330Y33436227D01*
X-9490825Y33467773D01*
X-9334235Y33477483D01*
X-9169835Y33466741D01*
X-9032900Y33436928D01*
X-8980420Y33411766D01*
X-8886333Y33345866D01*
X-8886333Y33711044D01*
X-8885269Y33886700D01*
X-8879192Y33993667D01*
X-8863775Y34047922D01*
X-8834690Y34065440D01*
X-8791083Y34062694D01*
X-8791083Y34062694D01*
G37*
X-8791083Y34062694D02*
X-8695833Y34049167D01*
X-8695833Y32228833D01*
X-8791083Y32215306D01*
X-8865655Y32223326D01*
X-8886332Y32288389D01*
X-8886333Y32289389D01*
X-8889759Y32348762D01*
X-8913737Y32346900D01*
X-8971000Y32292333D01*
X-9047422Y32239616D01*
X-9157293Y32214213D01*
X-9299083Y32209013D01*
X-9445925Y32219008D01*
X-9565662Y32243305D01*
X-9614919Y32265380D01*
X-9700737Y32371047D01*
X-9753117Y32536878D01*
X-9774529Y32771703D01*
X-9775333Y32839106D01*
X-9775119Y32842667D01*
X-9563667Y32842667D01*
X-9561102Y32671052D01*
X-9550092Y32562913D01*
X-9525668Y32497129D01*
X-9482858Y32452579D01*
X-9469581Y32442901D01*
X-9321244Y32385385D01*
X-9155637Y32389873D01*
X-9010962Y32455121D01*
X-9007440Y32457927D01*
X-8954392Y32510754D01*
X-8924167Y32577350D01*
X-8910594Y32681473D01*
X-8907500Y32842667D01*
X-8910747Y33006562D01*
X-8924603Y33109665D01*
X-8955239Y33175734D01*
X-9007440Y33227407D01*
X-9150929Y33294411D01*
X-9316467Y33300690D01*
X-9465849Y33245003D01*
X-9469581Y33242433D01*
X-9517437Y33199811D01*
X-9545738Y33140920D01*
X-9559456Y33044642D01*
X-9563560Y32889856D01*
X-9563667Y32842667D01*
X-9775119Y32842667D01*
X-9759495Y33101859D01*
X-9712808Y33294812D01*
X-9636511Y33413636D01*
X-9604330Y33436227D01*
X-9490825Y33467773D01*
X-9334235Y33477483D01*
X-9169835Y33466741D01*
X-9032900Y33436928D01*
X-8980420Y33411766D01*
X-8886333Y33345866D01*
X-8886333Y33711044D01*
X-8885269Y33886700D01*
X-8879192Y33993667D01*
X-8863775Y34047922D01*
X-8834690Y34065440D01*
X-8791083Y34062694D01*
G36*
X-7583020Y33466750D02*
G01*
X-7441122Y33426013D01*
X-7351184Y33343479D01*
X-7297803Y33207170D01*
X-7274127Y33074725D01*
X-7259354Y32935965D01*
X-7255734Y32831872D01*
X-7261543Y32792174D01*
X-7310198Y32777800D01*
X-7424448Y32766407D01*
X-7585233Y32759452D01*
X-7708790Y32758000D01*
X-8134917Y32758000D01*
X-8107888Y32620417D01*
X-8070065Y32502841D01*
X-8002043Y32429061D01*
X-7888301Y32391485D01*
X-7713316Y32382519D01*
X-7626818Y32385064D01*
X-7468584Y32390280D01*
X-7376834Y32385851D01*
X-7333523Y32366947D01*
X-7320606Y32328739D01*
X-7319902Y32302917D01*
X-7324696Y32256239D01*
X-7350273Y32228181D01*
X-7413600Y32214248D01*
X-7531645Y32209942D01*
X-7669250Y32210350D01*
X-7844588Y32216027D01*
X-7996427Y32228676D01*
X-8097440Y32245826D01*
X-8110983Y32250296D01*
X-8204790Y32313102D01*
X-8262152Y32420280D01*
X-8290664Y32588445D01*
X-8294676Y32652167D01*
X-8302804Y32902106D01*
X-8302214Y32927333D01*
X-8134917Y32927333D01*
X-7790958Y32927333D01*
X-7621248Y32928668D01*
X-7519101Y32935867D01*
X-7467422Y32953723D01*
X-7449115Y32987027D01*
X-7447000Y33023747D01*
X-7481137Y33172924D01*
X-7579602Y33269435D01*
X-7736476Y33307879D01*
X-7758809Y33308333D01*
X-7930956Y33287883D01*
X-8040535Y33220407D01*
X-8100716Y33096722D01*
X-8107888Y33064917D01*
X-8134917Y32927333D01*
X-8302214Y32927333D01*
X-8298553Y33083660D01*
X-8279645Y33212505D01*
X-8243801Y33304317D01*
X-8189758Y33373758D01*
X-8122023Y33430278D01*
X-8043832Y33461813D01*
X-7928752Y33475271D01*
X-7792281Y33477667D01*
X-7583020Y33466750D01*
X-7583020Y33466750D01*
G37*
X-7583020Y33466750D02*
X-7441122Y33426013D01*
X-7351184Y33343479D01*
X-7297803Y33207170D01*
X-7274127Y33074725D01*
X-7259354Y32935965D01*
X-7255734Y32831872D01*
X-7261543Y32792174D01*
X-7310198Y32777800D01*
X-7424448Y32766407D01*
X-7585233Y32759452D01*
X-7708790Y32758000D01*
X-8134917Y32758000D01*
X-8107888Y32620417D01*
X-8070065Y32502841D01*
X-8002043Y32429061D01*
X-7888301Y32391485D01*
X-7713316Y32382519D01*
X-7626818Y32385064D01*
X-7468584Y32390280D01*
X-7376834Y32385851D01*
X-7333523Y32366947D01*
X-7320606Y32328739D01*
X-7319902Y32302917D01*
X-7324696Y32256239D01*
X-7350273Y32228181D01*
X-7413600Y32214248D01*
X-7531645Y32209942D01*
X-7669250Y32210350D01*
X-7844588Y32216027D01*
X-7996427Y32228676D01*
X-8097440Y32245826D01*
X-8110983Y32250296D01*
X-8204790Y32313102D01*
X-8262152Y32420280D01*
X-8290664Y32588445D01*
X-8294676Y32652167D01*
X-8302804Y32902106D01*
X-8302214Y32927333D01*
X-8134917Y32927333D01*
X-7790958Y32927333D01*
X-7621248Y32928668D01*
X-7519101Y32935867D01*
X-7467422Y32953723D01*
X-7449115Y32987027D01*
X-7447000Y33023747D01*
X-7481137Y33172924D01*
X-7579602Y33269435D01*
X-7736476Y33307879D01*
X-7758809Y33308333D01*
X-7930956Y33287883D01*
X-8040535Y33220407D01*
X-8100716Y33096722D01*
X-8107888Y33064917D01*
X-8134917Y32927333D01*
X-8302214Y32927333D01*
X-8298553Y33083660D01*
X-8279645Y33212505D01*
X-8243801Y33304317D01*
X-8189758Y33373758D01*
X-8122023Y33430278D01*
X-8043832Y33461813D01*
X-7928752Y33475271D01*
X-7792281Y33477667D01*
X-7583020Y33466750D01*
G36*
X-6404296Y33468947D02*
G01*
X-6233048Y33459562D01*
X-6129474Y33444373D01*
X-6076597Y33419137D01*
X-6057939Y33382417D01*
X-6060152Y33344345D01*
X-6095731Y33321990D01*
X-6181010Y33311335D01*
X-6332319Y33308365D01*
X-6359213Y33308333D01*
X-6558021Y33299878D01*
X-6684637Y33270455D01*
X-6750217Y33213978D01*
X-6765918Y33124360D01*
X-6762333Y33088414D01*
X-6745850Y33036055D01*
X-6702090Y33000662D01*
X-6612528Y32973899D01*
X-6458639Y32947432D01*
X-6444180Y32945255D01*
X-6246651Y32909681D01*
X-6118969Y32865921D01*
X-6046409Y32801774D01*
X-6014246Y32705034D01*
X-6007667Y32583483D01*
X-6019171Y32425557D01*
X-6062128Y32318015D01*
X-6149200Y32251865D01*
X-6293052Y32218112D01*
X-6506346Y32207763D01*
X-6536833Y32207667D01*
X-6711257Y32208911D01*
X-6817739Y32215593D01*
X-6872999Y32232138D01*
X-6893757Y32262970D01*
X-6896762Y32302917D01*
X-6891753Y32352307D01*
X-6864406Y32379508D01*
X-6796431Y32389492D01*
X-6669536Y32387236D01*
X-6598462Y32384033D01*
X-6399649Y32383674D01*
X-6271147Y32408677D01*
X-6201012Y32464346D01*
X-6177297Y32555987D01*
X-6177000Y32571194D01*
X-6195069Y32650840D01*
X-6258003Y32706271D01*
X-6378893Y32744016D01*
X-6570828Y32770605D01*
X-6578226Y32771338D01*
X-6756083Y32800696D01*
X-6865249Y32856653D01*
X-6921018Y32955097D01*
X-6938686Y33111917D01*
X-6939000Y33146115D01*
X-6925885Y33289481D01*
X-6878485Y33386170D01*
X-6784714Y33443481D01*
X-6632489Y33468708D01*
X-6409726Y33469147D01*
X-6404296Y33468947D01*
X-6404296Y33468947D01*
G37*
X-6404296Y33468947D02*
X-6233048Y33459562D01*
X-6129474Y33444373D01*
X-6076597Y33419137D01*
X-6057939Y33382417D01*
X-6060152Y33344345D01*
X-6095731Y33321990D01*
X-6181010Y33311335D01*
X-6332319Y33308365D01*
X-6359213Y33308333D01*
X-6558021Y33299878D01*
X-6684637Y33270455D01*
X-6750217Y33213978D01*
X-6765918Y33124360D01*
X-6762333Y33088414D01*
X-6745850Y33036055D01*
X-6702090Y33000662D01*
X-6612528Y32973899D01*
X-6458639Y32947432D01*
X-6444180Y32945255D01*
X-6246651Y32909681D01*
X-6118969Y32865921D01*
X-6046409Y32801774D01*
X-6014246Y32705034D01*
X-6007667Y32583483D01*
X-6019171Y32425557D01*
X-6062128Y32318015D01*
X-6149200Y32251865D01*
X-6293052Y32218112D01*
X-6506346Y32207763D01*
X-6536833Y32207667D01*
X-6711257Y32208911D01*
X-6817739Y32215593D01*
X-6872999Y32232138D01*
X-6893757Y32262970D01*
X-6896762Y32302917D01*
X-6891753Y32352307D01*
X-6864406Y32379508D01*
X-6796431Y32389492D01*
X-6669536Y32387236D01*
X-6598462Y32384033D01*
X-6399649Y32383674D01*
X-6271147Y32408677D01*
X-6201012Y32464346D01*
X-6177297Y32555987D01*
X-6177000Y32571194D01*
X-6195069Y32650840D01*
X-6258003Y32706271D01*
X-6378893Y32744016D01*
X-6570828Y32770605D01*
X-6578226Y32771338D01*
X-6756083Y32800696D01*
X-6865249Y32856653D01*
X-6921018Y32955097D01*
X-6938686Y33111917D01*
X-6939000Y33146115D01*
X-6925885Y33289481D01*
X-6878485Y33386170D01*
X-6784714Y33443481D01*
X-6632489Y33468708D01*
X-6409726Y33469147D01*
X-6404296Y33468947D01*
G36*
X-5509460Y33473506D02*
G01*
X-5486532Y33452637D01*
X-5471539Y33402484D01*
X-5462803Y33310469D01*
X-5458648Y33164015D01*
X-5457397Y32950544D01*
X-5457333Y32842667D01*
X-5457888Y32598618D01*
X-5460671Y32426656D01*
X-5467358Y32314205D01*
X-5479627Y32248687D01*
X-5499154Y32217524D01*
X-5527617Y32208140D01*
X-5542000Y32207667D01*
X-5574540Y32211828D01*
X-5597468Y32232697D01*
X-5612462Y32282850D01*
X-5621198Y32374865D01*
X-5625353Y32521319D01*
X-5626604Y32734790D01*
X-5626667Y32842667D01*
X-5626112Y33086716D01*
X-5623330Y33258677D01*
X-5616642Y33371129D01*
X-5604374Y33436647D01*
X-5584847Y33467810D01*
X-5556384Y33477194D01*
X-5542000Y33477667D01*
X-5509460Y33473506D01*
X-5509460Y33473506D01*
G37*
X-5509460Y33473506D02*
X-5486532Y33452637D01*
X-5471539Y33402484D01*
X-5462803Y33310469D01*
X-5458648Y33164015D01*
X-5457397Y32950544D01*
X-5457333Y32842667D01*
X-5457888Y32598618D01*
X-5460671Y32426656D01*
X-5467358Y32314205D01*
X-5479627Y32248687D01*
X-5499154Y32217524D01*
X-5527617Y32208140D01*
X-5542000Y32207667D01*
X-5574540Y32211828D01*
X-5597468Y32232697D01*
X-5612462Y32282850D01*
X-5621198Y32374865D01*
X-5625353Y32521319D01*
X-5626604Y32734790D01*
X-5626667Y32842667D01*
X-5626112Y33086716D01*
X-5623330Y33258677D01*
X-5616642Y33371129D01*
X-5604374Y33436647D01*
X-5584847Y33467810D01*
X-5556384Y33477194D01*
X-5542000Y33477667D01*
X-5509460Y33473506D01*
G36*
X-2783561Y33466964D02*
G01*
X-2639125Y33413825D01*
X-2615107Y33396765D01*
X-2574110Y33358654D01*
X-2545559Y33311888D01*
X-2526632Y33240857D01*
X-2514508Y33129953D01*
X-2506366Y32963567D01*
X-2500332Y32761765D01*
X-2485498Y32207667D01*
X-2705667Y32207667D01*
X-2706315Y32683917D01*
X-2710005Y32881380D01*
X-2719507Y33051059D01*
X-2733309Y33172924D01*
X-2747104Y33223667D01*
X-2814997Y33264297D01*
X-2933643Y33284728D01*
X-3071496Y33284636D01*
X-3197009Y33263694D01*
X-3270660Y33229067D01*
X-3302053Y33188733D01*
X-3322728Y33119568D01*
X-3334684Y33006164D01*
X-3339920Y32833113D01*
X-3340667Y32689317D01*
X-3340667Y32207667D01*
X-3552333Y32207667D01*
X-3552333Y32842667D01*
X-3551779Y33086716D01*
X-3548996Y33258677D01*
X-3542309Y33371129D01*
X-3530040Y33436647D01*
X-3510513Y33467810D01*
X-3482050Y33477194D01*
X-3467667Y33477667D01*
X-3397407Y33448258D01*
X-3383000Y33389928D01*
X-3383000Y33302188D01*
X-3271458Y33389928D01*
X-3134428Y33454654D01*
X-2960229Y33480454D01*
X-2783561Y33466964D01*
X-2783561Y33466964D01*
G37*
X-2783561Y33466964D02*
X-2639125Y33413825D01*
X-2615107Y33396765D01*
X-2574110Y33358654D01*
X-2545559Y33311888D01*
X-2526632Y33240857D01*
X-2514508Y33129953D01*
X-2506366Y32963567D01*
X-2500332Y32761765D01*
X-2485498Y32207667D01*
X-2705667Y32207667D01*
X-2706315Y32683917D01*
X-2710005Y32881380D01*
X-2719507Y33051059D01*
X-2733309Y33172924D01*
X-2747104Y33223667D01*
X-2814997Y33264297D01*
X-2933643Y33284728D01*
X-3071496Y33284636D01*
X-3197009Y33263694D01*
X-3270660Y33229067D01*
X-3302053Y33188733D01*
X-3322728Y33119568D01*
X-3334684Y33006164D01*
X-3339920Y32833113D01*
X-3340667Y32689317D01*
X-3340667Y32207667D01*
X-3552333Y32207667D01*
X-3552333Y32842667D01*
X-3551779Y33086716D01*
X-3548996Y33258677D01*
X-3542309Y33371129D01*
X-3530040Y33436647D01*
X-3510513Y33467810D01*
X-3482050Y33477194D01*
X-3467667Y33477667D01*
X-3397407Y33448258D01*
X-3383000Y33389928D01*
X-3383000Y33302188D01*
X-3271458Y33389928D01*
X-3134428Y33454654D01*
X-2960229Y33480454D01*
X-2783561Y33466964D01*
G36*
X-1360966Y33468189D02*
G01*
X-1284990Y33442526D01*
X-1216689Y33393830D01*
X-1208341Y33386675D01*
X-1141283Y33316349D01*
X-1104702Y33234086D01*
X-1088227Y33110257D01*
X-1084613Y33033167D01*
X-1075833Y32779167D01*
X-1949729Y32754971D01*
X-1921572Y32618902D01*
X-1884242Y32503683D01*
X-1819104Y32430690D01*
X-1710191Y32392127D01*
X-1541539Y32380195D01*
X-1435667Y32381610D01*
X-1273281Y32384227D01*
X-1177952Y32377979D01*
X-1132214Y32358912D01*
X-1118601Y32323070D01*
X-1118167Y32309732D01*
X-1126426Y32270024D01*
X-1162115Y32244913D01*
X-1241605Y32230269D01*
X-1381266Y32221959D01*
X-1478000Y32218910D01*
X-1717451Y32221120D01*
X-1879149Y32243506D01*
X-1941504Y32267239D01*
X-2012600Y32317115D01*
X-2060306Y32383089D01*
X-2089293Y32481869D01*
X-2104236Y32630164D01*
X-2109808Y32844685D01*
X-2110025Y32869727D01*
X-2109055Y32927333D01*
X-1950394Y32927333D01*
X-1266333Y32927333D01*
X-1266333Y33051310D01*
X-1297167Y33190398D01*
X-1391235Y33275263D01*
X-1550885Y33307836D01*
X-1578766Y33308333D01*
X-1747432Y33288360D01*
X-1854385Y33221488D01*
X-1914320Y33097295D01*
X-1921905Y33064917D01*
X-1950394Y32927333D01*
X-2109055Y32927333D01*
X-2106117Y33101773D01*
X-2083113Y33263127D01*
X-2030362Y33367340D01*
X-1937214Y33427964D01*
X-1793019Y33458552D01*
X-1638072Y33470287D01*
X-1470148Y33475787D01*
X-1360966Y33468189D01*
X-1360966Y33468189D01*
G37*
X-1360966Y33468189D02*
X-1284990Y33442526D01*
X-1216689Y33393830D01*
X-1208341Y33386675D01*
X-1141283Y33316349D01*
X-1104702Y33234086D01*
X-1088227Y33110257D01*
X-1084613Y33033167D01*
X-1075833Y32779167D01*
X-1949729Y32754971D01*
X-1921572Y32618902D01*
X-1884242Y32503683D01*
X-1819104Y32430690D01*
X-1710191Y32392127D01*
X-1541539Y32380195D01*
X-1435667Y32381610D01*
X-1273281Y32384227D01*
X-1177952Y32377979D01*
X-1132214Y32358912D01*
X-1118601Y32323070D01*
X-1118167Y32309732D01*
X-1126426Y32270024D01*
X-1162115Y32244913D01*
X-1241605Y32230269D01*
X-1381266Y32221959D01*
X-1478000Y32218910D01*
X-1717451Y32221120D01*
X-1879149Y32243506D01*
X-1941504Y32267239D01*
X-2012600Y32317115D01*
X-2060306Y32383089D01*
X-2089293Y32481869D01*
X-2104236Y32630164D01*
X-2109808Y32844685D01*
X-2110025Y32869727D01*
X-2109055Y32927333D01*
X-1950394Y32927333D01*
X-1266333Y32927333D01*
X-1266333Y33051310D01*
X-1297167Y33190398D01*
X-1391235Y33275263D01*
X-1550885Y33307836D01*
X-1578766Y33308333D01*
X-1747432Y33288360D01*
X-1854385Y33221488D01*
X-1914320Y33097295D01*
X-1921905Y33064917D01*
X-1950394Y32927333D01*
X-2109055Y32927333D01*
X-2106117Y33101773D01*
X-2083113Y33263127D01*
X-2030362Y33367340D01*
X-1937214Y33427964D01*
X-1793019Y33458552D01*
X-1638072Y33470287D01*
X-1470148Y33475787D01*
X-1360966Y33468189D01*
G36*
X342333Y33141944D02*
G01*
X342053Y32837919D01*
X340584Y32608170D01*
X336986Y32442308D01*
X330317Y32329945D01*
X319635Y32260690D01*
X303998Y32224154D01*
X282466Y32209948D01*
X257667Y32207667D01*
X187407Y32237075D01*
X173000Y32295406D01*
X173000Y32383145D01*
X61457Y32295406D01*
X-71141Y32232673D01*
X-241432Y32205807D01*
X-414981Y32215463D01*
X-557356Y32262298D01*
X-588040Y32283044D01*
X-665549Y32392662D01*
X-716842Y32559093D01*
X-741538Y32758519D01*
X-740468Y32856171D01*
X-548244Y32856171D01*
X-535666Y32687182D01*
X-499458Y32540645D01*
X-440459Y32440820D01*
X-406747Y32417622D01*
X-282877Y32392073D01*
X-137888Y32398737D01*
X-6521Y32432543D01*
X76265Y32488117D01*
X108605Y32578986D01*
X126293Y32722697D01*
X129375Y32888713D01*
X117898Y33046494D01*
X91910Y33165502D01*
X75175Y33198706D01*
X-11263Y33257838D01*
X-144312Y33292270D01*
X-288501Y33298077D01*
X-408362Y33271334D01*
X-435782Y33255263D01*
X-499142Y33164471D01*
X-536349Y33023354D01*
X-548244Y32856171D01*
X-740468Y32856171D01*
X-739252Y32967125D01*
X-709603Y33161092D01*
X-652208Y33316603D01*
X-605680Y33380169D01*
X-522595Y33442208D01*
X-415305Y33471413D01*
X-282844Y33477667D01*
X-117636Y33464060D01*
X8686Y33427860D01*
X34849Y33412979D01*
X127204Y33348291D01*
X139519Y33698729D01*
X147234Y33871152D01*
X158954Y33976486D01*
X179871Y34032300D01*
X215178Y34056165D01*
X247083Y34062694D01*
X342333Y34076222D01*
X342333Y33141944D01*
X342333Y33141944D01*
G37*
X342333Y33141944D02*
X342053Y32837919D01*
X340584Y32608170D01*
X336986Y32442308D01*
X330317Y32329945D01*
X319635Y32260690D01*
X303998Y32224154D01*
X282466Y32209948D01*
X257667Y32207667D01*
X187407Y32237075D01*
X173000Y32295406D01*
X173000Y32383145D01*
X61457Y32295406D01*
X-71141Y32232673D01*
X-241432Y32205807D01*
X-414981Y32215463D01*
X-557356Y32262298D01*
X-588040Y32283044D01*
X-665549Y32392662D01*
X-716842Y32559093D01*
X-741538Y32758519D01*
X-740468Y32856171D01*
X-548244Y32856171D01*
X-535666Y32687182D01*
X-499458Y32540645D01*
X-440459Y32440820D01*
X-406747Y32417622D01*
X-282877Y32392073D01*
X-137888Y32398737D01*
X-6521Y32432543D01*
X76265Y32488117D01*
X108605Y32578986D01*
X126293Y32722697D01*
X129375Y32888713D01*
X117898Y33046494D01*
X91910Y33165502D01*
X75175Y33198706D01*
X-11263Y33257838D01*
X-144312Y33292270D01*
X-288501Y33298077D01*
X-408362Y33271334D01*
X-435782Y33255263D01*
X-499142Y33164471D01*
X-536349Y33023354D01*
X-548244Y32856171D01*
X-740468Y32856171D01*
X-739252Y32967125D01*
X-709603Y33161092D01*
X-652208Y33316603D01*
X-605680Y33380169D01*
X-522595Y33442208D01*
X-415305Y33471413D01*
X-282844Y33477667D01*
X-117636Y33464060D01*
X8686Y33427860D01*
X34849Y33412979D01*
X127204Y33348291D01*
X139519Y33698729D01*
X147234Y33871152D01*
X158954Y33976486D01*
X179871Y34032300D01*
X215178Y34056165D01*
X247083Y34062694D01*
X342333Y34076222D01*
X342333Y33141944D01*
G36*
X-5485483Y34059352D02*
G01*
X-5460122Y34007712D01*
X-5457333Y33946278D01*
X-5467967Y33854315D01*
X-5514271Y33820003D01*
X-5565979Y33816333D01*
X-5643387Y33828535D01*
X-5664736Y33882684D01*
X-5661229Y33932750D01*
X-5626152Y34028476D01*
X-5552583Y34062694D01*
X-5485483Y34059352D01*
X-5485483Y34059352D01*
G37*
X-5485483Y34059352D02*
X-5460122Y34007712D01*
X-5457333Y33946278D01*
X-5467967Y33854315D01*
X-5514271Y33820003D01*
X-5565979Y33816333D01*
X-5643387Y33828535D01*
X-5664736Y33882684D01*
X-5661229Y33932750D01*
X-5626152Y34028476D01*
X-5552583Y34062694D01*
X-5485483Y34059352D01*
D11*
X27905000Y29400000D03*
X-27705000Y29400000D03*
D12*
X-36350000Y29400000D03*
D13*
X35650000Y29400000D03*
M02*
