G04 #@! TF.GenerationSoftware,KiCad,Pcbnew,5.1.4-e60b266~84~ubuntu19.04.1*
G04 #@! TF.CreationDate,2019-09-15T17:49:51+02:00*
G04 #@! TF.ProjectId,middle,6d696464-6c65-42e6-9b69-6361645f7063,rev?*
G04 #@! TF.SameCoordinates,Original*
G04 #@! TF.FileFunction,Copper,L1,Top*
G04 #@! TF.FilePolarity,Positive*
%FSLAX46Y46*%
G04 Gerber Fmt 4.6, Leading zero omitted, Abs format (unit mm)*
G04 Created by KiCad (PCBNEW 5.1.4-e60b266~84~ubuntu19.04.1) date 2019-09-15 17:49:51*
%MOMM*%
%LPD*%
G04 APERTURE LIST*
%ADD10C,0.010000*%
%ADD11R,3.500000X3.500000*%
%ADD12C,3.500000*%
G04 APERTURE END LIST*
D10*
G36*
X-3562494Y27625083D02*
G01*
X-3573500Y25667167D01*
X-4081500Y25667167D01*
X-4094787Y25828400D01*
X-4108074Y25989634D01*
X-4269772Y25843549D01*
X-4471611Y25713850D01*
X-4723829Y25634063D01*
X-5005757Y25608055D01*
X-5296720Y25639695D01*
X-5325135Y25646088D01*
X-5531315Y25727357D01*
X-5690986Y25865889D01*
X-5807517Y26067076D01*
X-5884274Y26336311D01*
X-5918636Y26596236D01*
X-5938589Y27041321D01*
X-5919345Y27429005D01*
X-5881505Y27642998D01*
X-5351500Y27642998D01*
X-5351500Y26358336D01*
X-5228010Y26252115D01*
X-5159988Y26199706D01*
X-5091202Y26169373D01*
X-4997991Y26156557D01*
X-4856692Y26156698D01*
X-4752707Y26160530D01*
X-4574248Y26170556D01*
X-4456906Y26187007D01*
X-4377131Y26216510D01*
X-4311374Y26265690D01*
X-4283530Y26292546D01*
X-4237228Y26341112D01*
X-4205055Y26388760D01*
X-4184440Y26451105D01*
X-4172810Y26543765D01*
X-4167594Y26682357D01*
X-4166218Y26882498D01*
X-4166167Y27005102D01*
X-4166167Y27600279D01*
X-4304418Y27723806D01*
X-4381221Y27786363D01*
X-4455007Y27823302D01*
X-4551358Y27841290D01*
X-4695854Y27846996D01*
X-4778307Y27847333D01*
X-4955009Y27844135D01*
X-5071887Y27830833D01*
X-5153663Y27801871D01*
X-5225057Y27751690D01*
X-5232723Y27745166D01*
X-5351500Y27642998D01*
X-5881505Y27642998D01*
X-5861778Y27754555D01*
X-5766762Y28013234D01*
X-5635169Y28200306D01*
X-5620203Y28214732D01*
X-5457693Y28314737D01*
X-5245247Y28373910D01*
X-5004817Y28393603D01*
X-4758357Y28375167D01*
X-4527819Y28319955D01*
X-4335156Y28229319D01*
X-4220025Y28128513D01*
X-4194224Y28100431D01*
X-4175305Y28096240D01*
X-4162183Y28125922D01*
X-4153774Y28199459D01*
X-4148992Y28326832D01*
X-4146755Y28518023D01*
X-4145977Y28783013D01*
X-4145941Y28810417D01*
X-4145000Y29583000D01*
X-3551488Y29583000D01*
X-3562494Y27625083D01*
X-3562494Y27625083D01*
G37*
X-3562494Y27625083D02*
X-3573500Y25667167D01*
X-4081500Y25667167D01*
X-4094787Y25828400D01*
X-4108074Y25989634D01*
X-4269772Y25843549D01*
X-4471611Y25713850D01*
X-4723829Y25634063D01*
X-5005757Y25608055D01*
X-5296720Y25639695D01*
X-5325135Y25646088D01*
X-5531315Y25727357D01*
X-5690986Y25865889D01*
X-5807517Y26067076D01*
X-5884274Y26336311D01*
X-5918636Y26596236D01*
X-5938589Y27041321D01*
X-5919345Y27429005D01*
X-5881505Y27642998D01*
X-5351500Y27642998D01*
X-5351500Y26358336D01*
X-5228010Y26252115D01*
X-5159988Y26199706D01*
X-5091202Y26169373D01*
X-4997991Y26156557D01*
X-4856692Y26156698D01*
X-4752707Y26160530D01*
X-4574248Y26170556D01*
X-4456906Y26187007D01*
X-4377131Y26216510D01*
X-4311374Y26265690D01*
X-4283530Y26292546D01*
X-4237228Y26341112D01*
X-4205055Y26388760D01*
X-4184440Y26451105D01*
X-4172810Y26543765D01*
X-4167594Y26682357D01*
X-4166218Y26882498D01*
X-4166167Y27005102D01*
X-4166167Y27600279D01*
X-4304418Y27723806D01*
X-4381221Y27786363D01*
X-4455007Y27823302D01*
X-4551358Y27841290D01*
X-4695854Y27846996D01*
X-4778307Y27847333D01*
X-4955009Y27844135D01*
X-5071887Y27830833D01*
X-5153663Y27801871D01*
X-5225057Y27751690D01*
X-5232723Y27745166D01*
X-5351500Y27642998D01*
X-5881505Y27642998D01*
X-5861778Y27754555D01*
X-5766762Y28013234D01*
X-5635169Y28200306D01*
X-5620203Y28214732D01*
X-5457693Y28314737D01*
X-5245247Y28373910D01*
X-5004817Y28393603D01*
X-4758357Y28375167D01*
X-4527819Y28319955D01*
X-4335156Y28229319D01*
X-4220025Y28128513D01*
X-4194224Y28100431D01*
X-4175305Y28096240D01*
X-4162183Y28125922D01*
X-4153774Y28199459D01*
X-4148992Y28326832D01*
X-4146755Y28518023D01*
X-4145977Y28783013D01*
X-4145941Y28810417D01*
X-4145000Y29583000D01*
X-3551488Y29583000D01*
X-3562494Y27625083D01*
G36*
X-1613923Y28371118D02*
G01*
X-1391464Y28361551D01*
X-1206046Y28347556D01*
X-1077455Y28329413D01*
X-1046200Y28320999D01*
X-872616Y28221498D01*
X-723562Y28067655D01*
X-623776Y27887669D01*
X-603558Y27816489D01*
X-594327Y27728917D01*
X-585975Y27571007D01*
X-578924Y27357086D01*
X-573593Y27101480D01*
X-570401Y26818517D01*
X-569720Y26662000D01*
X-567833Y25667167D01*
X-1075833Y25667167D01*
X-1118167Y25992491D01*
X-1224000Y25877290D01*
X-1338358Y25779277D01*
X-1465996Y25704084D01*
X-1467332Y25703512D01*
X-1605476Y25665014D01*
X-1795514Y25637386D01*
X-2005120Y25622800D01*
X-2201970Y25623428D01*
X-2353739Y25641442D01*
X-2361801Y25643400D01*
X-2577787Y25732831D01*
X-2733460Y25877417D01*
X-2830906Y26080360D01*
X-2872212Y26344859D01*
X-2874005Y26429167D01*
X-2870776Y26467339D01*
X-2324667Y26467339D01*
X-2314368Y26319248D01*
X-2274898Y26218178D01*
X-2193394Y26155626D01*
X-2056997Y26123088D01*
X-1852843Y26112060D01*
X-1786749Y26111667D01*
X-1610063Y26113961D01*
X-1493539Y26124882D01*
X-1412714Y26150493D01*
X-1343122Y26196854D01*
X-1302824Y26231555D01*
X-1220911Y26317993D01*
X-1175745Y26412204D01*
X-1152650Y26548464D01*
X-1148747Y26591389D01*
X-1128849Y26831333D01*
X-1649341Y26831333D01*
X-1902537Y26828505D01*
X-2083260Y26815665D01*
X-2203630Y26786280D01*
X-2275770Y26733816D01*
X-2311801Y26651740D01*
X-2323844Y26533519D01*
X-2324667Y26467339D01*
X-2870776Y26467339D01*
X-2849580Y26717867D01*
X-2777454Y26938360D01*
X-2656523Y27093130D01*
X-2548273Y27161010D01*
X-2465667Y27190841D01*
X-2361786Y27211339D01*
X-2220878Y27223894D01*
X-2027191Y27229898D01*
X-1764971Y27230743D01*
X-1759226Y27230718D01*
X-1130286Y27227936D01*
X-1148187Y27475417D01*
X-1160279Y27609882D01*
X-1181938Y27709548D01*
X-1224571Y27779627D01*
X-1299583Y27825325D01*
X-1418380Y27851855D01*
X-1592368Y27864424D01*
X-1832953Y27868242D01*
X-2008825Y27868500D01*
X-2705715Y27868500D01*
X-2705691Y28089944D01*
X-2701932Y28220848D01*
X-2683152Y28291728D01*
X-2638040Y28327142D01*
X-2589250Y28342774D01*
X-2478405Y28359531D01*
X-2305663Y28370465D01*
X-2090810Y28375855D01*
X-1853634Y28375979D01*
X-1613923Y28371118D01*
X-1613923Y28371118D01*
G37*
X-1613923Y28371118D02*
X-1391464Y28361551D01*
X-1206046Y28347556D01*
X-1077455Y28329413D01*
X-1046200Y28320999D01*
X-872616Y28221498D01*
X-723562Y28067655D01*
X-623776Y27887669D01*
X-603558Y27816489D01*
X-594327Y27728917D01*
X-585975Y27571007D01*
X-578924Y27357086D01*
X-573593Y27101480D01*
X-570401Y26818517D01*
X-569720Y26662000D01*
X-567833Y25667167D01*
X-1075833Y25667167D01*
X-1118167Y25992491D01*
X-1224000Y25877290D01*
X-1338358Y25779277D01*
X-1465996Y25704084D01*
X-1467332Y25703512D01*
X-1605476Y25665014D01*
X-1795514Y25637386D01*
X-2005120Y25622800D01*
X-2201970Y25623428D01*
X-2353739Y25641442D01*
X-2361801Y25643400D01*
X-2577787Y25732831D01*
X-2733460Y25877417D01*
X-2830906Y26080360D01*
X-2872212Y26344859D01*
X-2874005Y26429167D01*
X-2870776Y26467339D01*
X-2324667Y26467339D01*
X-2314368Y26319248D01*
X-2274898Y26218178D01*
X-2193394Y26155626D01*
X-2056997Y26123088D01*
X-1852843Y26112060D01*
X-1786749Y26111667D01*
X-1610063Y26113961D01*
X-1493539Y26124882D01*
X-1412714Y26150493D01*
X-1343122Y26196854D01*
X-1302824Y26231555D01*
X-1220911Y26317993D01*
X-1175745Y26412204D01*
X-1152650Y26548464D01*
X-1148747Y26591389D01*
X-1128849Y26831333D01*
X-1649341Y26831333D01*
X-1902537Y26828505D01*
X-2083260Y26815665D01*
X-2203630Y26786280D01*
X-2275770Y26733816D01*
X-2311801Y26651740D01*
X-2323844Y26533519D01*
X-2324667Y26467339D01*
X-2870776Y26467339D01*
X-2849580Y26717867D01*
X-2777454Y26938360D01*
X-2656523Y27093130D01*
X-2548273Y27161010D01*
X-2465667Y27190841D01*
X-2361786Y27211339D01*
X-2220878Y27223894D01*
X-2027191Y27229898D01*
X-1764971Y27230743D01*
X-1759226Y27230718D01*
X-1130286Y27227936D01*
X-1148187Y27475417D01*
X-1160279Y27609882D01*
X-1181938Y27709548D01*
X-1224571Y27779627D01*
X-1299583Y27825325D01*
X-1418380Y27851855D01*
X-1592368Y27864424D01*
X-1832953Y27868242D01*
X-2008825Y27868500D01*
X-2705715Y27868500D01*
X-2705691Y28089944D01*
X-2701932Y28220848D01*
X-2683152Y28291728D01*
X-2638040Y28327142D01*
X-2589250Y28342774D01*
X-2478405Y28359531D01*
X-2305663Y28370465D01*
X-2090810Y28375855D01*
X-1853634Y28375979D01*
X-1613923Y28371118D01*
G36*
X6163167Y28385319D02*
G01*
X6382275Y28370525D01*
X6530628Y28352409D01*
X6622019Y28323158D01*
X6670238Y28274958D01*
X6689078Y28199996D01*
X6692332Y28090460D01*
X6692333Y28085549D01*
X6692333Y27867156D01*
X6233189Y27882871D01*
X6008261Y27887490D01*
X5848827Y27882165D01*
X5736116Y27865224D01*
X5651361Y27834995D01*
X5641777Y27830189D01*
X5550717Y27774785D01*
X5485829Y27708109D01*
X5442817Y27615670D01*
X5417384Y27482977D01*
X5405232Y27295542D01*
X5402066Y27038874D01*
X5402067Y27021833D01*
X5408755Y26715574D01*
X5434551Y26484003D01*
X5488589Y26317735D01*
X5580002Y26207382D01*
X5717922Y26143557D01*
X5911482Y26116873D01*
X6169816Y26117942D01*
X6276459Y26123093D01*
X6692333Y26146009D01*
X6692333Y25921700D01*
X6683364Y25771800D01*
X6654231Y25691803D01*
X6628856Y25673034D01*
X6538999Y25655019D01*
X6387607Y25640796D01*
X6197748Y25630921D01*
X5992493Y25625952D01*
X5794909Y25626446D01*
X5628068Y25632962D01*
X5515038Y25646056D01*
X5514800Y25646107D01*
X5257651Y25735544D01*
X5063611Y25881385D01*
X4940705Y26065527D01*
X4906732Y26147145D01*
X4882489Y26232345D01*
X4866376Y26337005D01*
X4856797Y26477004D01*
X4852152Y26668223D01*
X4850842Y26926541D01*
X4850833Y26958333D01*
X4852469Y27236669D01*
X4858274Y27446131D01*
X4869597Y27602465D01*
X4887786Y27721416D01*
X4914187Y27818732D01*
X4927664Y27855944D01*
X5039771Y28063003D01*
X5199376Y28217477D01*
X5412543Y28321965D01*
X5685332Y28379063D01*
X6023808Y28391369D01*
X6163167Y28385319D01*
X6163167Y28385319D01*
G37*
X6163167Y28385319D02*
X6382275Y28370525D01*
X6530628Y28352409D01*
X6622019Y28323158D01*
X6670238Y28274958D01*
X6689078Y28199996D01*
X6692332Y28090460D01*
X6692333Y28085549D01*
X6692333Y27867156D01*
X6233189Y27882871D01*
X6008261Y27887490D01*
X5848827Y27882165D01*
X5736116Y27865224D01*
X5651361Y27834995D01*
X5641777Y27830189D01*
X5550717Y27774785D01*
X5485829Y27708109D01*
X5442817Y27615670D01*
X5417384Y27482977D01*
X5405232Y27295542D01*
X5402066Y27038874D01*
X5402067Y27021833D01*
X5408755Y26715574D01*
X5434551Y26484003D01*
X5488589Y26317735D01*
X5580002Y26207382D01*
X5717922Y26143557D01*
X5911482Y26116873D01*
X6169816Y26117942D01*
X6276459Y26123093D01*
X6692333Y26146009D01*
X6692333Y25921700D01*
X6683364Y25771800D01*
X6654231Y25691803D01*
X6628856Y25673034D01*
X6538999Y25655019D01*
X6387607Y25640796D01*
X6197748Y25630921D01*
X5992493Y25625952D01*
X5794909Y25626446D01*
X5628068Y25632962D01*
X5515038Y25646056D01*
X5514800Y25646107D01*
X5257651Y25735544D01*
X5063611Y25881385D01*
X4940705Y26065527D01*
X4906732Y26147145D01*
X4882489Y26232345D01*
X4866376Y26337005D01*
X4856797Y26477004D01*
X4852152Y26668223D01*
X4850842Y26926541D01*
X4850833Y26958333D01*
X4852469Y27236669D01*
X4858274Y27446131D01*
X4869597Y27602465D01*
X4887786Y27721416D01*
X4914187Y27818732D01*
X4927664Y27855944D01*
X5039771Y28063003D01*
X5199376Y28217477D01*
X5412543Y28321965D01*
X5685332Y28379063D01*
X6023808Y28391369D01*
X6163167Y28385319D01*
G36*
X-7048135Y27520190D02*
G01*
X-6916225Y27150899D01*
X-6792798Y26805305D01*
X-6680835Y26491758D01*
X-6583316Y26218606D01*
X-6503221Y25994197D01*
X-6443530Y25826881D01*
X-6407224Y25725004D01*
X-6397270Y25696956D01*
X-6406404Y25668362D01*
X-6467668Y25653893D01*
X-6593837Y25651677D01*
X-6686323Y25654622D01*
X-6994542Y25667167D01*
X-7152890Y26090500D01*
X-7311239Y26513833D01*
X-8863431Y26513833D01*
X-9167059Y25667167D01*
X-9774929Y25642299D01*
X-9627357Y26056900D01*
X-9577186Y26197450D01*
X-9502997Y26404732D01*
X-9409430Y26665810D01*
X-9301125Y26967748D01*
X-9258918Y27085333D01*
X-8671926Y27085333D01*
X-7493089Y27085333D01*
X-7550518Y27244083D01*
X-7586741Y27344427D01*
X-7644022Y27503343D01*
X-7714758Y27699736D01*
X-7791351Y27912511D01*
X-7798364Y27932000D01*
X-7874157Y28141449D01*
X-7944128Y28332674D01*
X-8001008Y28485954D01*
X-8037530Y28581568D01*
X-8040174Y28588167D01*
X-8091566Y28715167D01*
X-8167174Y28503500D01*
X-8208866Y28386611D01*
X-8271462Y28210899D01*
X-8347502Y27997317D01*
X-8429525Y27766815D01*
X-8457355Y27688583D01*
X-8671926Y27085333D01*
X-9258918Y27085333D01*
X-9182722Y27297608D01*
X-9058861Y27642454D01*
X-8977625Y27868500D01*
X-8475466Y29265500D01*
X-8077650Y29277024D01*
X-7679833Y29288547D01*
X-7048135Y27520190D01*
X-7048135Y27520190D01*
G37*
X-7048135Y27520190D02*
X-6916225Y27150899D01*
X-6792798Y26805305D01*
X-6680835Y26491758D01*
X-6583316Y26218606D01*
X-6503221Y25994197D01*
X-6443530Y25826881D01*
X-6407224Y25725004D01*
X-6397270Y25696956D01*
X-6406404Y25668362D01*
X-6467668Y25653893D01*
X-6593837Y25651677D01*
X-6686323Y25654622D01*
X-6994542Y25667167D01*
X-7152890Y26090500D01*
X-7311239Y26513833D01*
X-8863431Y26513833D01*
X-9167059Y25667167D01*
X-9774929Y25642299D01*
X-9627357Y26056900D01*
X-9577186Y26197450D01*
X-9502997Y26404732D01*
X-9409430Y26665810D01*
X-9301125Y26967748D01*
X-9258918Y27085333D01*
X-8671926Y27085333D01*
X-7493089Y27085333D01*
X-7550518Y27244083D01*
X-7586741Y27344427D01*
X-7644022Y27503343D01*
X-7714758Y27699736D01*
X-7791351Y27912511D01*
X-7798364Y27932000D01*
X-7874157Y28141449D01*
X-7944128Y28332674D01*
X-8001008Y28485954D01*
X-8037530Y28581568D01*
X-8040174Y28588167D01*
X-8091566Y28715167D01*
X-8167174Y28503500D01*
X-8208866Y28386611D01*
X-8271462Y28210899D01*
X-8347502Y27997317D01*
X-8429525Y27766815D01*
X-8457355Y27688583D01*
X-8671926Y27085333D01*
X-9258918Y27085333D01*
X-9182722Y27297608D01*
X-9058861Y27642454D01*
X-8977625Y27868500D01*
X-8475466Y29265500D01*
X-8077650Y29277024D01*
X-7679833Y29288547D01*
X-7048135Y27520190D01*
G36*
X1816090Y28391298D02*
G01*
X2037204Y28335831D01*
X2223376Y28235862D01*
X2356224Y28092311D01*
X2363995Y28078977D01*
X2395455Y28048212D01*
X2444081Y28063679D01*
X2527584Y28132733D01*
X2555000Y28158302D01*
X2760762Y28295462D01*
X3020241Y28373769D01*
X3323917Y28390671D01*
X3401828Y28385352D01*
X3625941Y28343653D01*
X3793052Y28257252D01*
X3924508Y28113540D01*
X3961833Y28054575D01*
X3987449Y28005554D01*
X4007581Y27948577D01*
X4023054Y27872935D01*
X4034693Y27767920D01*
X4043322Y27622825D01*
X4049767Y27426941D01*
X4054853Y27169560D01*
X4059404Y26839975D01*
X4060155Y26778417D01*
X4073811Y25646000D01*
X3524049Y25646000D01*
X3510108Y26665795D01*
X3505552Y26985230D01*
X3500984Y27230760D01*
X3495292Y27413143D01*
X3487362Y27543134D01*
X3476083Y27631490D01*
X3460340Y27688965D01*
X3439020Y27726317D01*
X3411013Y27754300D01*
X3396227Y27766462D01*
X3286952Y27815752D01*
X3127407Y27843654D01*
X2949652Y27848525D01*
X2785748Y27828726D01*
X2702127Y27801988D01*
X2634894Y27766974D01*
X2582667Y27723643D01*
X2543368Y27661462D01*
X2514917Y27569894D01*
X2495236Y27438405D01*
X2482244Y27256458D01*
X2473864Y27013519D01*
X2468017Y26699053D01*
X2466722Y26609083D01*
X2453277Y25646000D01*
X1908667Y25646000D01*
X1905576Y26460917D01*
X1902006Y26838177D01*
X1893850Y27139234D01*
X1880187Y27372472D01*
X1860092Y27546276D01*
X1832642Y27669031D01*
X1796914Y27749119D01*
X1759205Y27790015D01*
X1666191Y27824013D01*
X1511076Y27843759D01*
X1394936Y27847333D01*
X1228913Y27842334D01*
X1118592Y27822520D01*
X1035352Y27780673D01*
X990277Y27745249D01*
X871500Y27643164D01*
X850333Y26655165D01*
X829167Y25667167D01*
X543417Y25654649D01*
X257667Y25642132D01*
X257667Y28355333D01*
X808000Y28355333D01*
X808000Y28003679D01*
X949862Y28149750D01*
X1126921Y28281490D01*
X1342567Y28365048D01*
X1578418Y28401344D01*
X1816090Y28391298D01*
X1816090Y28391298D01*
G37*
X1816090Y28391298D02*
X2037204Y28335831D01*
X2223376Y28235862D01*
X2356224Y28092311D01*
X2363995Y28078977D01*
X2395455Y28048212D01*
X2444081Y28063679D01*
X2527584Y28132733D01*
X2555000Y28158302D01*
X2760762Y28295462D01*
X3020241Y28373769D01*
X3323917Y28390671D01*
X3401828Y28385352D01*
X3625941Y28343653D01*
X3793052Y28257252D01*
X3924508Y28113540D01*
X3961833Y28054575D01*
X3987449Y28005554D01*
X4007581Y27948577D01*
X4023054Y27872935D01*
X4034693Y27767920D01*
X4043322Y27622825D01*
X4049767Y27426941D01*
X4054853Y27169560D01*
X4059404Y26839975D01*
X4060155Y26778417D01*
X4073811Y25646000D01*
X3524049Y25646000D01*
X3510108Y26665795D01*
X3505552Y26985230D01*
X3500984Y27230760D01*
X3495292Y27413143D01*
X3487362Y27543134D01*
X3476083Y27631490D01*
X3460340Y27688965D01*
X3439020Y27726317D01*
X3411013Y27754300D01*
X3396227Y27766462D01*
X3286952Y27815752D01*
X3127407Y27843654D01*
X2949652Y27848525D01*
X2785748Y27828726D01*
X2702127Y27801988D01*
X2634894Y27766974D01*
X2582667Y27723643D01*
X2543368Y27661462D01*
X2514917Y27569894D01*
X2495236Y27438405D01*
X2482244Y27256458D01*
X2473864Y27013519D01*
X2468017Y26699053D01*
X2466722Y26609083D01*
X2453277Y25646000D01*
X1908667Y25646000D01*
X1905576Y26460917D01*
X1902006Y26838177D01*
X1893850Y27139234D01*
X1880187Y27372472D01*
X1860092Y27546276D01*
X1832642Y27669031D01*
X1796914Y27749119D01*
X1759205Y27790015D01*
X1666191Y27824013D01*
X1511076Y27843759D01*
X1394936Y27847333D01*
X1228913Y27842334D01*
X1118592Y27822520D01*
X1035352Y27780673D01*
X990277Y27745249D01*
X871500Y27643164D01*
X850333Y26655165D01*
X829167Y25667167D01*
X543417Y25654649D01*
X257667Y25642132D01*
X257667Y28355333D01*
X808000Y28355333D01*
X808000Y28003679D01*
X949862Y28149750D01*
X1126921Y28281490D01*
X1342567Y28365048D01*
X1578418Y28401344D01*
X1816090Y28391298D01*
G36*
X7920000Y25646000D02*
G01*
X7369667Y25646000D01*
X7369667Y28355333D01*
X7920000Y28355333D01*
X7920000Y25646000D01*
X7920000Y25646000D01*
G37*
X7920000Y25646000D02*
X7369667Y25646000D01*
X7369667Y28355333D01*
X7920000Y28355333D01*
X7920000Y25646000D01*
G36*
X9326903Y28429417D02*
G01*
X9338167Y27275833D01*
X9474028Y27262696D01*
X9527047Y27261476D01*
X9576630Y27275184D01*
X9632552Y27313050D01*
X9704590Y27384306D01*
X9802519Y27498181D01*
X9936115Y27663907D01*
X10045528Y27802305D01*
X10481167Y28355051D01*
X10791728Y28355192D01*
X11102290Y28355333D01*
X10877949Y28069583D01*
X10741557Y27896348D01*
X10582388Y27694907D01*
X10430463Y27503244D01*
X10401129Y27466333D01*
X10287534Y27323211D01*
X10191703Y27201970D01*
X10127446Y27120105D01*
X10110839Y27098564D01*
X10120533Y27045903D01*
X10183741Y26932238D01*
X10301015Y26756723D01*
X10472903Y26518512D01*
X10584014Y26369633D01*
X10739419Y26162162D01*
X10875791Y25978058D01*
X10985464Y25827836D01*
X11060775Y25722011D01*
X11094059Y25671102D01*
X11095000Y25668485D01*
X11056180Y25657585D01*
X10953749Y25649625D01*
X10808753Y25646139D01*
X10788083Y25646094D01*
X10481167Y25646189D01*
X10057833Y26196333D01*
X9900120Y26400246D01*
X9783433Y26546353D01*
X9697593Y26644274D01*
X9632423Y26703631D01*
X9577743Y26734047D01*
X9523376Y26745142D01*
X9475750Y26746573D01*
X9317000Y26746667D01*
X9317000Y25646000D01*
X8766667Y25646000D01*
X8766667Y29583000D01*
X9315639Y29583000D01*
X9326903Y28429417D01*
X9326903Y28429417D01*
G37*
X9326903Y28429417D02*
X9338167Y27275833D01*
X9474028Y27262696D01*
X9527047Y27261476D01*
X9576630Y27275184D01*
X9632552Y27313050D01*
X9704590Y27384306D01*
X9802519Y27498181D01*
X9936115Y27663907D01*
X10045528Y27802305D01*
X10481167Y28355051D01*
X10791728Y28355192D01*
X11102290Y28355333D01*
X10877949Y28069583D01*
X10741557Y27896348D01*
X10582388Y27694907D01*
X10430463Y27503244D01*
X10401129Y27466333D01*
X10287534Y27323211D01*
X10191703Y27201970D01*
X10127446Y27120105D01*
X10110839Y27098564D01*
X10120533Y27045903D01*
X10183741Y26932238D01*
X10301015Y26756723D01*
X10472903Y26518512D01*
X10584014Y26369633D01*
X10739419Y26162162D01*
X10875791Y25978058D01*
X10985464Y25827836D01*
X11060775Y25722011D01*
X11094059Y25671102D01*
X11095000Y25668485D01*
X11056180Y25657585D01*
X10953749Y25649625D01*
X10808753Y25646139D01*
X10788083Y25646094D01*
X10481167Y25646189D01*
X10057833Y26196333D01*
X9900120Y26400246D01*
X9783433Y26546353D01*
X9697593Y26644274D01*
X9632423Y26703631D01*
X9577743Y26734047D01*
X9523376Y26745142D01*
X9475750Y26746573D01*
X9317000Y26746667D01*
X9317000Y25646000D01*
X8766667Y25646000D01*
X8766667Y29583000D01*
X9315639Y29583000D01*
X9326903Y28429417D01*
G36*
X6448354Y29577914D02*
G01*
X6515076Y29565070D01*
X6523000Y29557839D01*
X6499707Y29515135D01*
X6436806Y29419678D01*
X6344760Y29286990D01*
X6266116Y29176839D01*
X6009232Y28821000D01*
X5726366Y28822356D01*
X5443500Y28823713D01*
X5178414Y29192773D01*
X4913327Y29561833D01*
X5105292Y29574776D01*
X5206284Y29577902D01*
X5281216Y29562450D01*
X5353123Y29515789D01*
X5445038Y29425287D01*
X5513872Y29350706D01*
X5730487Y29113695D01*
X5939630Y29348348D01*
X6052209Y29470114D01*
X6134477Y29540473D01*
X6209964Y29573358D01*
X6302201Y29582704D01*
X6335886Y29583000D01*
X6448354Y29577914D01*
X6448354Y29577914D01*
G37*
X6448354Y29577914D02*
X6515076Y29565070D01*
X6523000Y29557839D01*
X6499707Y29515135D01*
X6436806Y29419678D01*
X6344760Y29286990D01*
X6266116Y29176839D01*
X6009232Y28821000D01*
X5726366Y28822356D01*
X5443500Y28823713D01*
X5178414Y29192773D01*
X4913327Y29561833D01*
X5105292Y29574776D01*
X5206284Y29577902D01*
X5281216Y29562450D01*
X5353123Y29515789D01*
X5445038Y29425287D01*
X5513872Y29350706D01*
X5730487Y29113695D01*
X5939630Y29348348D01*
X6052209Y29470114D01*
X6134477Y29540473D01*
X6209964Y29573358D01*
X6302201Y29582704D01*
X6335886Y29583000D01*
X6448354Y29577914D01*
G36*
X8404469Y29487750D02*
G01*
X8340014Y29414969D01*
X8234837Y29301354D01*
X8107341Y29166676D01*
X8049793Y29106750D01*
X7918331Y28972837D01*
X7825074Y28889011D01*
X7750346Y28843566D01*
X7674468Y28824800D01*
X7577764Y28821007D01*
X7569387Y28821000D01*
X7444789Y28826894D01*
X7392979Y28846852D01*
X7395614Y28873917D01*
X7432615Y28930099D01*
X7506154Y29036837D01*
X7603539Y29175806D01*
X7659525Y29254917D01*
X7892493Y29583000D01*
X8483455Y29583000D01*
X8404469Y29487750D01*
X8404469Y29487750D01*
G37*
X8404469Y29487750D02*
X8340014Y29414969D01*
X8234837Y29301354D01*
X8107341Y29166676D01*
X8049793Y29106750D01*
X7918331Y28972837D01*
X7825074Y28889011D01*
X7750346Y28843566D01*
X7674468Y28824800D01*
X7577764Y28821007D01*
X7569387Y28821000D01*
X7444789Y28826894D01*
X7392979Y28846852D01*
X7395614Y28873917D01*
X7432615Y28930099D01*
X7506154Y29036837D01*
X7603539Y29175806D01*
X7659525Y29254917D01*
X7892493Y29583000D01*
X8483455Y29583000D01*
X8404469Y29487750D01*
G36*
X-8082000Y30628633D02*
G01*
X-8077068Y30374941D01*
X-8062395Y30201066D01*
X-8038169Y30108950D01*
X-8031200Y30099467D01*
X-7947220Y30062502D01*
X-7818261Y30050279D01*
X-7680102Y30062113D01*
X-7568524Y30097317D01*
X-7550341Y30108678D01*
X-7513385Y30145883D01*
X-7488142Y30204430D01*
X-7471624Y30300696D01*
X-7460846Y30451055D01*
X-7453838Y30637845D01*
X-7439509Y31107000D01*
X-7224669Y31107000D01*
X-7245401Y30376750D01*
X-7254031Y30131900D01*
X-7264897Y29912920D01*
X-7276978Y29735400D01*
X-7289253Y29614932D01*
X-7298197Y29570851D01*
X-7380371Y29472787D01*
X-7531793Y29408206D01*
X-7756321Y29375850D01*
X-7910565Y29371333D01*
X-8080380Y29373261D01*
X-8182397Y29381683D01*
X-8233446Y29400560D01*
X-8250357Y29433852D01*
X-8251333Y29451518D01*
X-8241972Y29492219D01*
X-8202713Y29518110D01*
X-8116799Y29533942D01*
X-7967470Y29544468D01*
X-7914555Y29546996D01*
X-7749825Y29559895D01*
X-7616225Y29580321D01*
X-7537807Y29604342D01*
X-7530215Y29609852D01*
X-7495081Y29679481D01*
X-7465170Y29795560D01*
X-7458572Y29836948D01*
X-7434491Y30016482D01*
X-7535996Y29952944D01*
X-7659202Y29893212D01*
X-7755503Y29861999D01*
X-7891577Y29854671D01*
X-8040559Y29881769D01*
X-8170405Y29934038D01*
X-8249072Y30002225D01*
X-8250614Y30004988D01*
X-8267466Y30077470D01*
X-8281226Y30214686D01*
X-8290441Y30396718D01*
X-8293667Y30596217D01*
X-8293667Y31107000D01*
X-8082000Y31107000D01*
X-8082000Y30628633D01*
X-8082000Y30628633D01*
G37*
X-8082000Y30628633D02*
X-8077068Y30374941D01*
X-8062395Y30201066D01*
X-8038169Y30108950D01*
X-8031200Y30099467D01*
X-7947220Y30062502D01*
X-7818261Y30050279D01*
X-7680102Y30062113D01*
X-7568524Y30097317D01*
X-7550341Y30108678D01*
X-7513385Y30145883D01*
X-7488142Y30204430D01*
X-7471624Y30300696D01*
X-7460846Y30451055D01*
X-7453838Y30637845D01*
X-7439509Y31107000D01*
X-7224669Y31107000D01*
X-7245401Y30376750D01*
X-7254031Y30131900D01*
X-7264897Y29912920D01*
X-7276978Y29735400D01*
X-7289253Y29614932D01*
X-7298197Y29570851D01*
X-7380371Y29472787D01*
X-7531793Y29408206D01*
X-7756321Y29375850D01*
X-7910565Y29371333D01*
X-8080380Y29373261D01*
X-8182397Y29381683D01*
X-8233446Y29400560D01*
X-8250357Y29433852D01*
X-8251333Y29451518D01*
X-8241972Y29492219D01*
X-8202713Y29518110D01*
X-8116799Y29533942D01*
X-7967470Y29544468D01*
X-7914555Y29546996D01*
X-7749825Y29559895D01*
X-7616225Y29580321D01*
X-7537807Y29604342D01*
X-7530215Y29609852D01*
X-7495081Y29679481D01*
X-7465170Y29795560D01*
X-7458572Y29836948D01*
X-7434491Y30016482D01*
X-7535996Y29952944D01*
X-7659202Y29893212D01*
X-7755503Y29861999D01*
X-7891577Y29854671D01*
X-8040559Y29881769D01*
X-8170405Y29934038D01*
X-8249072Y30002225D01*
X-8250614Y30004988D01*
X-8267466Y30077470D01*
X-8281226Y30214686D01*
X-8290441Y30396718D01*
X-8293667Y30596217D01*
X-8293667Y31107000D01*
X-8082000Y31107000D01*
X-8082000Y30628633D01*
G36*
X-9618423Y31696404D02*
G01*
X-9587169Y31675488D01*
X-9570870Y31620227D01*
X-9564659Y31513929D01*
X-9563667Y31339901D01*
X-9563667Y30973855D01*
X-9452124Y31061594D01*
X-9310159Y31127562D01*
X-9132107Y31148409D01*
X-8954836Y31121978D01*
X-8886333Y31094689D01*
X-8782997Y30996414D01*
X-8713218Y30827037D01*
X-8679800Y30594342D01*
X-8677292Y30514333D01*
X-8689539Y30261806D01*
X-8734020Y30079495D01*
X-8814281Y29957959D01*
X-8909064Y29897118D01*
X-9104651Y29845951D01*
X-9308587Y29862279D01*
X-9330833Y29867448D01*
X-9434623Y29913398D01*
X-9484353Y29949031D01*
X-9540847Y29987849D01*
X-9570981Y29962207D01*
X-9578274Y29944661D01*
X-9636317Y29890846D01*
X-9689338Y29879333D01*
X-9717639Y29882243D01*
X-9738934Y29897992D01*
X-9754220Y29937110D01*
X-9764492Y30010130D01*
X-9770744Y30127580D01*
X-9773971Y30299992D01*
X-9774942Y30493167D01*
X-9563667Y30493167D01*
X-9551368Y30290310D01*
X-9508277Y30157129D01*
X-9425104Y30081407D01*
X-9292558Y30050928D01*
X-9225624Y30048667D01*
X-9060119Y30065082D01*
X-8956770Y30111476D01*
X-8952857Y30115191D01*
X-8913873Y30185011D01*
X-8892624Y30307426D01*
X-8886333Y30493167D01*
X-8894285Y30693107D01*
X-8925320Y30823387D01*
X-8990204Y30898116D01*
X-9099707Y30931400D01*
X-9225624Y30937667D01*
X-9379896Y30921494D01*
X-9481181Y30864833D01*
X-9538768Y30755467D01*
X-9561947Y30581181D01*
X-9563667Y30493167D01*
X-9774942Y30493167D01*
X-9775168Y30537897D01*
X-9775333Y30789500D01*
X-9775333Y31699667D01*
X-9669500Y31699667D01*
X-9618423Y31696404D01*
X-9618423Y31696404D01*
G37*
X-9618423Y31696404D02*
X-9587169Y31675488D01*
X-9570870Y31620227D01*
X-9564659Y31513929D01*
X-9563667Y31339901D01*
X-9563667Y30973855D01*
X-9452124Y31061594D01*
X-9310159Y31127562D01*
X-9132107Y31148409D01*
X-8954836Y31121978D01*
X-8886333Y31094689D01*
X-8782997Y30996414D01*
X-8713218Y30827037D01*
X-8679800Y30594342D01*
X-8677292Y30514333D01*
X-8689539Y30261806D01*
X-8734020Y30079495D01*
X-8814281Y29957959D01*
X-8909064Y29897118D01*
X-9104651Y29845951D01*
X-9308587Y29862279D01*
X-9330833Y29867448D01*
X-9434623Y29913398D01*
X-9484353Y29949031D01*
X-9540847Y29987849D01*
X-9570981Y29962207D01*
X-9578274Y29944661D01*
X-9636317Y29890846D01*
X-9689338Y29879333D01*
X-9717639Y29882243D01*
X-9738934Y29897992D01*
X-9754220Y29937110D01*
X-9764492Y30010130D01*
X-9770744Y30127580D01*
X-9773971Y30299992D01*
X-9774942Y30493167D01*
X-9563667Y30493167D01*
X-9551368Y30290310D01*
X-9508277Y30157129D01*
X-9425104Y30081407D01*
X-9292558Y30050928D01*
X-9225624Y30048667D01*
X-9060119Y30065082D01*
X-8956770Y30111476D01*
X-8952857Y30115191D01*
X-8913873Y30185011D01*
X-8892624Y30307426D01*
X-8886333Y30493167D01*
X-8894285Y30693107D01*
X-8925320Y30823387D01*
X-8990204Y30898116D01*
X-9099707Y30931400D01*
X-9225624Y30937667D01*
X-9379896Y30921494D01*
X-9481181Y30864833D01*
X-9538768Y30755467D01*
X-9561947Y30581181D01*
X-9563667Y30493167D01*
X-9774942Y30493167D01*
X-9775168Y30537897D01*
X-9775333Y30789500D01*
X-9775333Y31699667D01*
X-9669500Y31699667D01*
X-9618423Y31696404D01*
G36*
X3598341Y32601738D02*
G01*
X3820519Y32578708D01*
X3985512Y32536058D01*
X4106631Y32469994D01*
X4197187Y32376720D01*
X4216176Y32349369D01*
X4269679Y32219083D01*
X4309001Y32025692D01*
X4334265Y31787778D01*
X4345591Y31523927D01*
X4343102Y31252723D01*
X4326918Y30992749D01*
X4297161Y30762592D01*
X4253951Y30580835D01*
X4203936Y30474367D01*
X4068179Y30359091D01*
X3857864Y30278635D01*
X3575977Y30233832D01*
X3305667Y30224186D01*
X3112218Y30228706D01*
X2935736Y30238689D01*
X2803923Y30252341D01*
X2766977Y30259103D01*
X2547704Y30348944D01*
X2386344Y30499836D01*
X2343464Y30567649D01*
X2315138Y30631303D01*
X2294788Y30711874D01*
X2281184Y30823431D01*
X2273094Y30980047D01*
X2269288Y31195794D01*
X2268500Y31424500D01*
X2268515Y31429230D01*
X2755333Y31429230D01*
X2758154Y31152362D01*
X2772543Y30949216D01*
X2807386Y30808890D01*
X2871570Y30720480D01*
X2973982Y30673084D01*
X3123510Y30655801D01*
X3329039Y30657727D01*
X3382649Y30659646D01*
X3576462Y30674545D01*
X3701031Y30703783D01*
X3763649Y30742502D01*
X3796324Y30792253D01*
X3819390Y30875038D01*
X3835119Y31005848D01*
X3845777Y31199674D01*
X3849469Y31309590D01*
X3854267Y31587943D01*
X3847625Y31794480D01*
X3826183Y31941669D01*
X3786582Y32041974D01*
X3725461Y32107861D01*
X3639462Y32151795D01*
X3620675Y32158472D01*
X3441147Y32193155D01*
X3215851Y32196697D01*
X3180306Y32194379D01*
X3026448Y32178404D01*
X2914976Y32149196D01*
X2839088Y32094509D01*
X2791984Y32002100D01*
X2766863Y31859723D01*
X2756925Y31655135D01*
X2755333Y31429230D01*
X2268515Y31429230D01*
X2269407Y31692992D01*
X2273087Y31891368D01*
X2280977Y32034166D01*
X2294517Y32135927D01*
X2315145Y32211189D01*
X2344298Y32274494D01*
X2354345Y32292333D01*
X2441498Y32412883D01*
X2551311Y32500158D01*
X2697382Y32558685D01*
X2893314Y32592991D01*
X3152706Y32607601D01*
X3305667Y32608944D01*
X3598341Y32601738D01*
X3598341Y32601738D01*
G37*
X3598341Y32601738D02*
X3820519Y32578708D01*
X3985512Y32536058D01*
X4106631Y32469994D01*
X4197187Y32376720D01*
X4216176Y32349369D01*
X4269679Y32219083D01*
X4309001Y32025692D01*
X4334265Y31787778D01*
X4345591Y31523927D01*
X4343102Y31252723D01*
X4326918Y30992749D01*
X4297161Y30762592D01*
X4253951Y30580835D01*
X4203936Y30474367D01*
X4068179Y30359091D01*
X3857864Y30278635D01*
X3575977Y30233832D01*
X3305667Y30224186D01*
X3112218Y30228706D01*
X2935736Y30238689D01*
X2803923Y30252341D01*
X2766977Y30259103D01*
X2547704Y30348944D01*
X2386344Y30499836D01*
X2343464Y30567649D01*
X2315138Y30631303D01*
X2294788Y30711874D01*
X2281184Y30823431D01*
X2273094Y30980047D01*
X2269288Y31195794D01*
X2268500Y31424500D01*
X2268515Y31429230D01*
X2755333Y31429230D01*
X2758154Y31152362D01*
X2772543Y30949216D01*
X2807386Y30808890D01*
X2871570Y30720480D01*
X2973982Y30673084D01*
X3123510Y30655801D01*
X3329039Y30657727D01*
X3382649Y30659646D01*
X3576462Y30674545D01*
X3701031Y30703783D01*
X3763649Y30742502D01*
X3796324Y30792253D01*
X3819390Y30875038D01*
X3835119Y31005848D01*
X3845777Y31199674D01*
X3849469Y31309590D01*
X3854267Y31587943D01*
X3847625Y31794480D01*
X3826183Y31941669D01*
X3786582Y32041974D01*
X3725461Y32107861D01*
X3639462Y32151795D01*
X3620675Y32158472D01*
X3441147Y32193155D01*
X3215851Y32196697D01*
X3180306Y32194379D01*
X3026448Y32178404D01*
X2914976Y32149196D01*
X2839088Y32094509D01*
X2791984Y32002100D01*
X2766863Y31859723D01*
X2756925Y31655135D01*
X2755333Y31429230D01*
X2268515Y31429230D01*
X2269407Y31692992D01*
X2273087Y31891368D01*
X2280977Y32034166D01*
X2294517Y32135927D01*
X2315145Y32211189D01*
X2344298Y32274494D01*
X2354345Y32292333D01*
X2441498Y32412883D01*
X2551311Y32500158D01*
X2697382Y32558685D01*
X2893314Y32592991D01*
X3152706Y32607601D01*
X3305667Y32608944D01*
X3598341Y32601738D01*
G36*
X6034944Y32605715D02*
G01*
X6224259Y32598353D01*
X6370697Y32587780D01*
X6448917Y32576174D01*
X6521961Y32547087D01*
X6555846Y32494286D01*
X6565141Y32390451D01*
X6565333Y32357894D01*
X6565333Y32171067D01*
X6021926Y32178784D01*
X5766307Y32179780D01*
X5583276Y32171225D01*
X5460894Y32148403D01*
X5387220Y32106601D01*
X5350315Y32041106D01*
X5338238Y31947204D01*
X5337667Y31908648D01*
X5345327Y31799552D01*
X5364300Y31732978D01*
X5369876Y31727090D01*
X5422239Y31713827D01*
X5540853Y31692499D01*
X5708025Y31666067D01*
X5902796Y31637940D01*
X6149798Y31601103D01*
X6326856Y31565937D01*
X6448348Y31526486D01*
X6528654Y31476798D01*
X6582150Y31410916D01*
X6615144Y31342948D01*
X6652359Y31191560D01*
X6666143Y30997592D01*
X6657393Y30794788D01*
X6627008Y30616888D01*
X6593384Y30525316D01*
X6524511Y30414498D01*
X6443160Y30336263D01*
X6333637Y30284797D01*
X6180247Y30254289D01*
X5967296Y30238927D01*
X5808423Y30234633D01*
X5590876Y30233493D01*
X5384426Y30237219D01*
X5215448Y30245074D01*
X5126000Y30253684D01*
X4935500Y30281500D01*
X4910032Y30675398D01*
X5502223Y30668949D01*
X5750065Y30669406D01*
X5946090Y30676232D01*
X6079338Y30688787D01*
X6138580Y30706156D01*
X6192953Y30807324D01*
X6210227Y30939440D01*
X6186405Y31057711D01*
X6172115Y31081858D01*
X6122684Y31123312D01*
X6033580Y31157173D01*
X5889942Y31187518D01*
X5676913Y31218425D01*
X5672070Y31219047D01*
X5474688Y31247541D01*
X5297364Y31278817D01*
X5164338Y31308311D01*
X5113420Y31324236D01*
X4991354Y31410263D01*
X4912211Y31554421D01*
X4872855Y31764165D01*
X4867033Y31909555D01*
X4879776Y32139179D01*
X4925528Y32314740D01*
X5013121Y32442688D01*
X5151387Y32529473D01*
X5349157Y32581543D01*
X5615263Y32605348D01*
X5824500Y32608730D01*
X6034944Y32605715D01*
X6034944Y32605715D01*
G37*
X6034944Y32605715D02*
X6224259Y32598353D01*
X6370697Y32587780D01*
X6448917Y32576174D01*
X6521961Y32547087D01*
X6555846Y32494286D01*
X6565141Y32390451D01*
X6565333Y32357894D01*
X6565333Y32171067D01*
X6021926Y32178784D01*
X5766307Y32179780D01*
X5583276Y32171225D01*
X5460894Y32148403D01*
X5387220Y32106601D01*
X5350315Y32041106D01*
X5338238Y31947204D01*
X5337667Y31908648D01*
X5345327Y31799552D01*
X5364300Y31732978D01*
X5369876Y31727090D01*
X5422239Y31713827D01*
X5540853Y31692499D01*
X5708025Y31666067D01*
X5902796Y31637940D01*
X6149798Y31601103D01*
X6326856Y31565937D01*
X6448348Y31526486D01*
X6528654Y31476798D01*
X6582150Y31410916D01*
X6615144Y31342948D01*
X6652359Y31191560D01*
X6666143Y30997592D01*
X6657393Y30794788D01*
X6627008Y30616888D01*
X6593384Y30525316D01*
X6524511Y30414498D01*
X6443160Y30336263D01*
X6333637Y30284797D01*
X6180247Y30254289D01*
X5967296Y30238927D01*
X5808423Y30234633D01*
X5590876Y30233493D01*
X5384426Y30237219D01*
X5215448Y30245074D01*
X5126000Y30253684D01*
X4935500Y30281500D01*
X4910032Y30675398D01*
X5502223Y30668949D01*
X5750065Y30669406D01*
X5946090Y30676232D01*
X6079338Y30688787D01*
X6138580Y30706156D01*
X6192953Y30807324D01*
X6210227Y30939440D01*
X6186405Y31057711D01*
X6172115Y31081858D01*
X6122684Y31123312D01*
X6033580Y31157173D01*
X5889942Y31187518D01*
X5676913Y31218425D01*
X5672070Y31219047D01*
X5474688Y31247541D01*
X5297364Y31278817D01*
X5164338Y31308311D01*
X5113420Y31324236D01*
X4991354Y31410263D01*
X4912211Y31554421D01*
X4872855Y31764165D01*
X4867033Y31909555D01*
X4879776Y32139179D01*
X4925528Y32314740D01*
X5013121Y32442688D01*
X5151387Y32529473D01*
X5349157Y32581543D01*
X5615263Y32605348D01*
X5824500Y32608730D01*
X6034944Y32605715D01*
G36*
X8377081Y32618202D02*
G01*
X8641611Y32584230D01*
X8841733Y32520735D01*
X8986350Y32417507D01*
X9084366Y32264335D01*
X9144685Y32051011D01*
X9176209Y31767324D01*
X9180024Y31697443D01*
X9201990Y31234000D01*
X7654989Y31234000D01*
X7676995Y31038758D01*
X7697795Y30905046D01*
X7733584Y30807269D01*
X7796355Y30739928D01*
X7898103Y30697522D01*
X8050822Y30674553D01*
X8266505Y30665520D01*
X8492902Y30664634D01*
X9105333Y30666768D01*
X9105333Y30272395D01*
X8845123Y30245197D01*
X8607809Y30228353D01*
X8348498Y30222889D01*
X8094329Y30228282D01*
X7872435Y30244007D01*
X7721213Y30266904D01*
X7512095Y30354827D01*
X7349275Y30507389D01*
X7246989Y30710870D01*
X7241842Y30728959D01*
X7217055Y30873858D01*
X7200880Y31076525D01*
X7193253Y31313080D01*
X7194113Y31559644D01*
X7196321Y31615000D01*
X7654492Y31615000D01*
X8724333Y31615000D01*
X8724333Y31761175D01*
X8695729Y31955999D01*
X8608369Y32093391D01*
X8459936Y32174950D01*
X8248110Y32202278D01*
X8097328Y32194122D01*
X7908407Y32157235D01*
X7785674Y32084033D01*
X7713601Y31960361D01*
X7681968Y31815463D01*
X7654492Y31615000D01*
X7196321Y31615000D01*
X7203398Y31792339D01*
X7221046Y31987285D01*
X7245441Y32115566D01*
X7347561Y32317664D01*
X7516344Y32470050D01*
X7749051Y32571508D01*
X8042942Y32620821D01*
X8377081Y32618202D01*
X8377081Y32618202D01*
G37*
X8377081Y32618202D02*
X8641611Y32584230D01*
X8841733Y32520735D01*
X8986350Y32417507D01*
X9084366Y32264335D01*
X9144685Y32051011D01*
X9176209Y31767324D01*
X9180024Y31697443D01*
X9201990Y31234000D01*
X7654989Y31234000D01*
X7676995Y31038758D01*
X7697795Y30905046D01*
X7733584Y30807269D01*
X7796355Y30739928D01*
X7898103Y30697522D01*
X8050822Y30674553D01*
X8266505Y30665520D01*
X8492902Y30664634D01*
X9105333Y30666768D01*
X9105333Y30272395D01*
X8845123Y30245197D01*
X8607809Y30228353D01*
X8348498Y30222889D01*
X8094329Y30228282D01*
X7872435Y30244007D01*
X7721213Y30266904D01*
X7512095Y30354827D01*
X7349275Y30507389D01*
X7246989Y30710870D01*
X7241842Y30728959D01*
X7217055Y30873858D01*
X7200880Y31076525D01*
X7193253Y31313080D01*
X7194113Y31559644D01*
X7196321Y31615000D01*
X7654492Y31615000D01*
X8724333Y31615000D01*
X8724333Y31761175D01*
X8695729Y31955999D01*
X8608369Y32093391D01*
X8459936Y32174950D01*
X8248110Y32202278D01*
X8097328Y32194122D01*
X7908407Y32157235D01*
X7785674Y32084033D01*
X7713601Y31960361D01*
X7681968Y31815463D01*
X7654492Y31615000D01*
X7196321Y31615000D01*
X7203398Y31792339D01*
X7221046Y31987285D01*
X7245441Y32115566D01*
X7347561Y32317664D01*
X7516344Y32470050D01*
X7749051Y32571508D01*
X8042942Y32620821D01*
X8377081Y32618202D01*
G36*
X1562071Y32027750D02*
G01*
X1557809Y31602375D01*
X1551865Y31253789D01*
X1540943Y30974131D01*
X1521741Y30755537D01*
X1490962Y30590146D01*
X1445306Y30470095D01*
X1381473Y30387523D01*
X1296166Y30334568D01*
X1186083Y30303366D01*
X1047928Y30286058D01*
X878399Y30274779D01*
X825164Y30271649D01*
X427000Y30247894D01*
X427000Y30673911D01*
X655099Y30702410D01*
X760884Y30714749D01*
X845358Y30728348D01*
X911003Y30752034D01*
X960297Y30794634D01*
X995721Y30864975D01*
X1019753Y30971884D01*
X1034874Y31124188D01*
X1043563Y31330714D01*
X1048300Y31600289D01*
X1051564Y31941740D01*
X1053198Y32119542D01*
X1065562Y33393000D01*
X1575310Y33393000D01*
X1562071Y32027750D01*
X1562071Y32027750D01*
G37*
X1562071Y32027750D02*
X1557809Y31602375D01*
X1551865Y31253789D01*
X1540943Y30974131D01*
X1521741Y30755537D01*
X1490962Y30590146D01*
X1445306Y30470095D01*
X1381473Y30387523D01*
X1296166Y30334568D01*
X1186083Y30303366D01*
X1047928Y30286058D01*
X878399Y30274779D01*
X825164Y30271649D01*
X427000Y30247894D01*
X427000Y30673911D01*
X655099Y30702410D01*
X760884Y30714749D01*
X845358Y30728348D01*
X911003Y30752034D01*
X960297Y30794634D01*
X995721Y30864975D01*
X1019753Y30971884D01*
X1034874Y31124188D01*
X1043563Y31330714D01*
X1048300Y31600289D01*
X1051564Y31941740D01*
X1053198Y32119542D01*
X1065562Y33393000D01*
X1575310Y33393000D01*
X1562071Y32027750D01*
G36*
X11137333Y33276484D02*
G01*
X10907066Y33257389D01*
X10731410Y33233735D01*
X10623277Y33186792D01*
X10566867Y33099174D01*
X10546380Y32953496D01*
X10544667Y32858650D01*
X10544667Y32588667D01*
X11137333Y32588667D01*
X11137333Y32165333D01*
X10544667Y32165333D01*
X10544667Y30260333D01*
X10036667Y30260333D01*
X10036667Y32165333D01*
X9571000Y32165333D01*
X9571000Y32588667D01*
X10024117Y32588667D01*
X10049779Y32921435D01*
X10079253Y33179306D01*
X10129959Y33365359D01*
X10214237Y33491972D01*
X10344431Y33571527D01*
X10532882Y33616402D01*
X10763586Y33637434D01*
X11137333Y33658744D01*
X11137333Y33276484D01*
X11137333Y33276484D01*
G37*
X11137333Y33276484D02*
X10907066Y33257389D01*
X10731410Y33233735D01*
X10623277Y33186792D01*
X10566867Y33099174D01*
X10546380Y32953496D01*
X10544667Y32858650D01*
X10544667Y32588667D01*
X11137333Y32588667D01*
X11137333Y32165333D01*
X10544667Y32165333D01*
X10544667Y30260333D01*
X10036667Y30260333D01*
X10036667Y32165333D01*
X9571000Y32165333D01*
X9571000Y32588667D01*
X10024117Y32588667D01*
X10049779Y32921435D01*
X10079253Y33179306D01*
X10129959Y33365359D01*
X10214237Y33491972D01*
X10344431Y33571527D01*
X10532882Y33616402D01*
X10763586Y33637434D01*
X11137333Y33658744D01*
X11137333Y33276484D01*
G36*
X-4027098Y33517196D02*
G01*
X-4004882Y33501208D01*
X-3989991Y33460676D01*
X-3981350Y33384236D01*
X-3977882Y33260529D01*
X-3978511Y33078191D01*
X-3982161Y32825861D01*
X-3983632Y32737905D01*
X-3988767Y32461711D01*
X-3994560Y32257336D01*
X-4002612Y32111938D01*
X-4014526Y32012674D01*
X-4031904Y31946701D01*
X-4056347Y31901178D01*
X-4089458Y31863262D01*
X-4093213Y31859489D01*
X-4152875Y31811116D01*
X-4228410Y31780261D01*
X-4341226Y31761837D01*
X-4512733Y31750758D01*
X-4558880Y31748863D01*
X-4728567Y31745865D01*
X-4865120Y31750122D01*
X-4947142Y31760691D01*
X-4959917Y31766502D01*
X-4989931Y31834777D01*
X-4991667Y31854889D01*
X-4967388Y31885890D01*
X-4886497Y31903862D01*
X-4736913Y31910986D01*
X-4678857Y31911333D01*
X-4467282Y31922270D01*
X-4323583Y31960994D01*
X-4233109Y32036380D01*
X-4181208Y32157302D01*
X-4167901Y32220796D01*
X-4140209Y32382092D01*
X-4244662Y32313651D01*
X-4375079Y32264444D01*
X-4546276Y32244940D01*
X-4721062Y32255402D01*
X-4862245Y32296093D01*
X-4885070Y32309107D01*
X-4959900Y32385084D01*
X-5007381Y32504014D01*
X-5030016Y32678009D01*
X-5030235Y32855586D01*
X-4836445Y32855586D01*
X-4832747Y32682535D01*
X-4818845Y32573650D01*
X-4790526Y32508641D01*
X-4757798Y32476841D01*
X-4633138Y32429086D01*
X-4477210Y32424335D01*
X-4330675Y32460931D01*
X-4270465Y32496731D01*
X-4219394Y32549054D01*
X-4190392Y32617930D01*
X-4177538Y32726884D01*
X-4174883Y32876476D01*
X-4181752Y33072399D01*
X-4209817Y33198891D01*
X-4270264Y33270593D01*
X-4374279Y33302145D01*
X-4504833Y33308333D01*
X-4652305Y33299875D01*
X-4748654Y33264899D01*
X-4804428Y33189004D01*
X-4830175Y33057787D01*
X-4836444Y32856847D01*
X-4836445Y32855586D01*
X-5030235Y32855586D01*
X-5030314Y32919182D01*
X-5027008Y32995051D01*
X-5015639Y33163806D01*
X-4997141Y33272327D01*
X-4963565Y33345042D01*
X-4906962Y33406379D01*
X-4887652Y33423341D01*
X-4800118Y33486679D01*
X-4709952Y33513797D01*
X-4581261Y33513706D01*
X-4540111Y33510591D01*
X-4371326Y33481220D01*
X-4249346Y33429504D01*
X-4230323Y33414761D01*
X-4168669Y33363727D01*
X-4147385Y33374053D01*
X-4145000Y33428772D01*
X-4118843Y33503356D01*
X-4057716Y33520000D01*
X-4027098Y33517196D01*
X-4027098Y33517196D01*
G37*
X-4027098Y33517196D02*
X-4004882Y33501208D01*
X-3989991Y33460676D01*
X-3981350Y33384236D01*
X-3977882Y33260529D01*
X-3978511Y33078191D01*
X-3982161Y32825861D01*
X-3983632Y32737905D01*
X-3988767Y32461711D01*
X-3994560Y32257336D01*
X-4002612Y32111938D01*
X-4014526Y32012674D01*
X-4031904Y31946701D01*
X-4056347Y31901178D01*
X-4089458Y31863262D01*
X-4093213Y31859489D01*
X-4152875Y31811116D01*
X-4228410Y31780261D01*
X-4341226Y31761837D01*
X-4512733Y31750758D01*
X-4558880Y31748863D01*
X-4728567Y31745865D01*
X-4865120Y31750122D01*
X-4947142Y31760691D01*
X-4959917Y31766502D01*
X-4989931Y31834777D01*
X-4991667Y31854889D01*
X-4967388Y31885890D01*
X-4886497Y31903862D01*
X-4736913Y31910986D01*
X-4678857Y31911333D01*
X-4467282Y31922270D01*
X-4323583Y31960994D01*
X-4233109Y32036380D01*
X-4181208Y32157302D01*
X-4167901Y32220796D01*
X-4140209Y32382092D01*
X-4244662Y32313651D01*
X-4375079Y32264444D01*
X-4546276Y32244940D01*
X-4721062Y32255402D01*
X-4862245Y32296093D01*
X-4885070Y32309107D01*
X-4959900Y32385084D01*
X-5007381Y32504014D01*
X-5030016Y32678009D01*
X-5030235Y32855586D01*
X-4836445Y32855586D01*
X-4832747Y32682535D01*
X-4818845Y32573650D01*
X-4790526Y32508641D01*
X-4757798Y32476841D01*
X-4633138Y32429086D01*
X-4477210Y32424335D01*
X-4330675Y32460931D01*
X-4270465Y32496731D01*
X-4219394Y32549054D01*
X-4190392Y32617930D01*
X-4177538Y32726884D01*
X-4174883Y32876476D01*
X-4181752Y33072399D01*
X-4209817Y33198891D01*
X-4270264Y33270593D01*
X-4374279Y33302145D01*
X-4504833Y33308333D01*
X-4652305Y33299875D01*
X-4748654Y33264899D01*
X-4804428Y33189004D01*
X-4830175Y33057787D01*
X-4836444Y32856847D01*
X-4836445Y32855586D01*
X-5030235Y32855586D01*
X-5030314Y32919182D01*
X-5027008Y32995051D01*
X-5015639Y33163806D01*
X-4997141Y33272327D01*
X-4963565Y33345042D01*
X-4906962Y33406379D01*
X-4887652Y33423341D01*
X-4800118Y33486679D01*
X-4709952Y33513797D01*
X-4581261Y33513706D01*
X-4540111Y33510591D01*
X-4371326Y33481220D01*
X-4249346Y33429504D01*
X-4230323Y33414761D01*
X-4168669Y33363727D01*
X-4147385Y33374053D01*
X-4145000Y33428772D01*
X-4118843Y33503356D01*
X-4057716Y33520000D01*
X-4027098Y33517196D01*
G36*
X-8674667Y33160167D02*
G01*
X-8674960Y32860585D01*
X-8676493Y32635145D01*
X-8680244Y32473320D01*
X-8687193Y32364586D01*
X-8698319Y32298417D01*
X-8714601Y32264288D01*
X-8737017Y32251674D01*
X-8759333Y32250000D01*
X-8828700Y32278316D01*
X-8845287Y32345250D01*
X-8850889Y32408789D01*
X-8872897Y32394100D01*
X-8888792Y32368083D01*
X-8955541Y32309676D01*
X-9065717Y32258873D01*
X-9088588Y32251903D01*
X-9224735Y32220656D01*
X-9338134Y32217538D01*
X-9467573Y32237432D01*
X-9584465Y32286075D01*
X-9664818Y32385499D01*
X-9712683Y32545057D01*
X-9732107Y32774097D01*
X-9733000Y32850478D01*
X-9732429Y32863833D01*
X-9542500Y32863833D01*
X-9533018Y32662219D01*
X-9505583Y32528858D01*
X-9484400Y32489340D01*
X-9397069Y32439685D01*
X-9264376Y32419066D01*
X-9120486Y32427479D01*
X-8999569Y32464921D01*
X-8963750Y32489395D01*
X-8921002Y32546978D01*
X-8896932Y32636972D01*
X-8887196Y32780588D01*
X-8886333Y32867371D01*
X-8894520Y33066502D01*
X-8926246Y33196027D01*
X-8992263Y33270034D01*
X-9103324Y33302612D01*
X-9222840Y33308333D01*
X-9366764Y33297703D01*
X-9460534Y33256424D01*
X-9514281Y33170409D01*
X-9538133Y33025575D01*
X-9542500Y32863833D01*
X-9732429Y32863833D01*
X-9721814Y33112020D01*
X-9686386Y33299823D01*
X-9623910Y33422060D01*
X-9531582Y33486900D01*
X-9512446Y33492875D01*
X-9321958Y33518115D01*
X-9130521Y33501519D01*
X-9002750Y33458750D01*
X-8886333Y33398021D01*
X-8886333Y33734177D01*
X-8885185Y33901385D01*
X-8878101Y34001265D01*
X-8859621Y34051157D01*
X-8824289Y34068398D01*
X-8780500Y34070333D01*
X-8674667Y34070333D01*
X-8674667Y33160167D01*
X-8674667Y33160167D01*
G37*
X-8674667Y33160167D02*
X-8674960Y32860585D01*
X-8676493Y32635145D01*
X-8680244Y32473320D01*
X-8687193Y32364586D01*
X-8698319Y32298417D01*
X-8714601Y32264288D01*
X-8737017Y32251674D01*
X-8759333Y32250000D01*
X-8828700Y32278316D01*
X-8845287Y32345250D01*
X-8850889Y32408789D01*
X-8872897Y32394100D01*
X-8888792Y32368083D01*
X-8955541Y32309676D01*
X-9065717Y32258873D01*
X-9088588Y32251903D01*
X-9224735Y32220656D01*
X-9338134Y32217538D01*
X-9467573Y32237432D01*
X-9584465Y32286075D01*
X-9664818Y32385499D01*
X-9712683Y32545057D01*
X-9732107Y32774097D01*
X-9733000Y32850478D01*
X-9732429Y32863833D01*
X-9542500Y32863833D01*
X-9533018Y32662219D01*
X-9505583Y32528858D01*
X-9484400Y32489340D01*
X-9397069Y32439685D01*
X-9264376Y32419066D01*
X-9120486Y32427479D01*
X-8999569Y32464921D01*
X-8963750Y32489395D01*
X-8921002Y32546978D01*
X-8896932Y32636972D01*
X-8887196Y32780588D01*
X-8886333Y32867371D01*
X-8894520Y33066502D01*
X-8926246Y33196027D01*
X-8992263Y33270034D01*
X-9103324Y33302612D01*
X-9222840Y33308333D01*
X-9366764Y33297703D01*
X-9460534Y33256424D01*
X-9514281Y33170409D01*
X-9538133Y33025575D01*
X-9542500Y32863833D01*
X-9732429Y32863833D01*
X-9721814Y33112020D01*
X-9686386Y33299823D01*
X-9623910Y33422060D01*
X-9531582Y33486900D01*
X-9512446Y33492875D01*
X-9321958Y33518115D01*
X-9130521Y33501519D01*
X-9002750Y33458750D01*
X-8886333Y33398021D01*
X-8886333Y33734177D01*
X-8885185Y33901385D01*
X-8878101Y34001265D01*
X-8859621Y34051157D01*
X-8824289Y34068398D01*
X-8780500Y34070333D01*
X-8674667Y34070333D01*
X-8674667Y33160167D01*
G36*
X-7591808Y33510548D02*
G01*
X-7421183Y33463200D01*
X-7310033Y33363198D01*
X-7250719Y33204093D01*
X-7235333Y33010008D01*
X-7235333Y32800333D01*
X-8082000Y32800333D01*
X-8082000Y32676357D01*
X-8066714Y32561270D01*
X-8012487Y32485046D01*
X-7906769Y32440803D01*
X-7737008Y32421659D01*
X-7613310Y32419333D01*
X-7444856Y32417295D01*
X-7344136Y32408533D01*
X-7294262Y32389076D01*
X-7278346Y32354955D01*
X-7277667Y32340421D01*
X-7316309Y32281709D01*
X-7420003Y32239880D01*
X-7570399Y32217227D01*
X-7749151Y32216043D01*
X-7937908Y32238621D01*
X-7995265Y32250728D01*
X-8109959Y32294216D01*
X-8191030Y32353363D01*
X-8194612Y32357944D01*
X-8246074Y32477611D01*
X-8278843Y32657646D01*
X-8290117Y32875256D01*
X-8281452Y33064723D01*
X-8277089Y33091483D01*
X-8082000Y33091483D01*
X-8082000Y32969667D01*
X-7397940Y32969667D01*
X-7426930Y33107250D01*
X-7463812Y33230880D01*
X-7523365Y33298269D01*
X-7628275Y33325577D01*
X-7738944Y33329500D01*
X-7919868Y33309379D01*
X-8031363Y33246346D01*
X-8079196Y33136402D01*
X-8082000Y33091483D01*
X-8277089Y33091483D01*
X-8249291Y33261937D01*
X-8185559Y33391069D01*
X-8075116Y33467093D01*
X-7902822Y33504985D01*
X-7829546Y33511692D01*
X-7591808Y33510548D01*
X-7591808Y33510548D01*
G37*
X-7591808Y33510548D02*
X-7421183Y33463200D01*
X-7310033Y33363198D01*
X-7250719Y33204093D01*
X-7235333Y33010008D01*
X-7235333Y32800333D01*
X-8082000Y32800333D01*
X-8082000Y32676357D01*
X-8066714Y32561270D01*
X-8012487Y32485046D01*
X-7906769Y32440803D01*
X-7737008Y32421659D01*
X-7613310Y32419333D01*
X-7444856Y32417295D01*
X-7344136Y32408533D01*
X-7294262Y32389076D01*
X-7278346Y32354955D01*
X-7277667Y32340421D01*
X-7316309Y32281709D01*
X-7420003Y32239880D01*
X-7570399Y32217227D01*
X-7749151Y32216043D01*
X-7937908Y32238621D01*
X-7995265Y32250728D01*
X-8109959Y32294216D01*
X-8191030Y32353363D01*
X-8194612Y32357944D01*
X-8246074Y32477611D01*
X-8278843Y32657646D01*
X-8290117Y32875256D01*
X-8281452Y33064723D01*
X-8277089Y33091483D01*
X-8082000Y33091483D01*
X-8082000Y32969667D01*
X-7397940Y32969667D01*
X-7426930Y33107250D01*
X-7463812Y33230880D01*
X-7523365Y33298269D01*
X-7628275Y33325577D01*
X-7738944Y33329500D01*
X-7919868Y33309379D01*
X-8031363Y33246346D01*
X-8079196Y33136402D01*
X-8082000Y33091483D01*
X-8277089Y33091483D01*
X-8249291Y33261937D01*
X-8185559Y33391069D01*
X-8075116Y33467093D01*
X-7902822Y33504985D01*
X-7829546Y33511692D01*
X-7591808Y33510548D01*
G36*
X-6146255Y33497278D02*
G01*
X-6067160Y33448664D01*
X-6050000Y33392843D01*
X-6057552Y33347009D01*
X-6093315Y33325761D01*
X-6176950Y33324527D01*
X-6296901Y33335438D01*
X-6502587Y33341980D01*
X-6638404Y33308938D01*
X-6710782Y33233428D01*
X-6727333Y33142448D01*
X-6706866Y33051803D01*
X-6636772Y32997807D01*
X-6504017Y32973484D01*
X-6405567Y32970245D01*
X-6265635Y32954864D01*
X-6143641Y32924119D01*
X-6029837Y32843830D01*
X-5974790Y32704334D01*
X-5979436Y32508271D01*
X-5984931Y32476311D01*
X-6039953Y32349459D01*
X-6152556Y32265573D01*
X-6327826Y32223090D01*
X-6570847Y32220446D01*
X-6759083Y32238291D01*
X-6860804Y32266360D01*
X-6896089Y32323465D01*
X-6896667Y32335637D01*
X-6887841Y32375642D01*
X-6850337Y32400998D01*
X-6767619Y32416088D01*
X-6623149Y32425295D01*
X-6547417Y32428205D01*
X-6198167Y32440500D01*
X-6198167Y32736833D01*
X-6512674Y32788874D01*
X-6670952Y32819843D01*
X-6797832Y32853449D01*
X-6868684Y32883027D01*
X-6872507Y32886241D01*
X-6899104Y32952686D01*
X-6915410Y33070210D01*
X-6917833Y33139605D01*
X-6902991Y33304098D01*
X-6849321Y33411677D01*
X-6743110Y33475117D01*
X-6570641Y33507194D01*
X-6518492Y33511599D01*
X-6294805Y33517776D01*
X-6146255Y33497278D01*
X-6146255Y33497278D01*
G37*
X-6146255Y33497278D02*
X-6067160Y33448664D01*
X-6050000Y33392843D01*
X-6057552Y33347009D01*
X-6093315Y33325761D01*
X-6176950Y33324527D01*
X-6296901Y33335438D01*
X-6502587Y33341980D01*
X-6638404Y33308938D01*
X-6710782Y33233428D01*
X-6727333Y33142448D01*
X-6706866Y33051803D01*
X-6636772Y32997807D01*
X-6504017Y32973484D01*
X-6405567Y32970245D01*
X-6265635Y32954864D01*
X-6143641Y32924119D01*
X-6029837Y32843830D01*
X-5974790Y32704334D01*
X-5979436Y32508271D01*
X-5984931Y32476311D01*
X-6039953Y32349459D01*
X-6152556Y32265573D01*
X-6327826Y32223090D01*
X-6570847Y32220446D01*
X-6759083Y32238291D01*
X-6860804Y32266360D01*
X-6896089Y32323465D01*
X-6896667Y32335637D01*
X-6887841Y32375642D01*
X-6850337Y32400998D01*
X-6767619Y32416088D01*
X-6623149Y32425295D01*
X-6547417Y32428205D01*
X-6198167Y32440500D01*
X-6198167Y32736833D01*
X-6512674Y32788874D01*
X-6670952Y32819843D01*
X-6797832Y32853449D01*
X-6868684Y32883027D01*
X-6872507Y32886241D01*
X-6899104Y32952686D01*
X-6915410Y33070210D01*
X-6917833Y33139605D01*
X-6902991Y33304098D01*
X-6849321Y33411677D01*
X-6743110Y33475117D01*
X-6570641Y33507194D01*
X-6518492Y33511599D01*
X-6294805Y33517776D01*
X-6146255Y33497278D01*
G36*
X-1310155Y33489596D02*
G01*
X-1227279Y33458196D01*
X-1138985Y33393230D01*
X-1085755Y33297484D01*
X-1060361Y33151770D01*
X-1055245Y33001417D01*
X-1054667Y32800333D01*
X-1901333Y32800333D01*
X-1901333Y32676357D01*
X-1886047Y32561270D01*
X-1831820Y32485046D01*
X-1726102Y32440803D01*
X-1556341Y32421659D01*
X-1432643Y32419333D01*
X-1264189Y32417295D01*
X-1163470Y32408533D01*
X-1113596Y32389076D01*
X-1097680Y32354955D01*
X-1097000Y32340421D01*
X-1136047Y32281458D01*
X-1242701Y32239820D01*
X-1401234Y32217878D01*
X-1595919Y32218005D01*
X-1779707Y32237486D01*
X-1919927Y32290738D01*
X-2017957Y32404884D01*
X-2078103Y32586730D01*
X-2098694Y32741671D01*
X-2104624Y33023207D01*
X-2097178Y33067409D01*
X-1901333Y33067409D01*
X-1896768Y33019192D01*
X-1871669Y32990173D01*
X-1808928Y32975489D01*
X-1691441Y32970280D01*
X-1557375Y32969667D01*
X-1213417Y32969667D01*
X-1240669Y33105927D01*
X-1276759Y33227661D01*
X-1337877Y33295732D01*
X-1445342Y33324692D01*
X-1568196Y33329500D01*
X-1743961Y33307195D01*
X-1852322Y33237437D01*
X-1898697Y33115965D01*
X-1901333Y33067409D01*
X-2097178Y33067409D01*
X-2069014Y33234572D01*
X-1990537Y33380103D01*
X-1879033Y33459702D01*
X-1698422Y33506721D01*
X-1496046Y33516656D01*
X-1310155Y33489596D01*
X-1310155Y33489596D01*
G37*
X-1310155Y33489596D02*
X-1227279Y33458196D01*
X-1138985Y33393230D01*
X-1085755Y33297484D01*
X-1060361Y33151770D01*
X-1055245Y33001417D01*
X-1054667Y32800333D01*
X-1901333Y32800333D01*
X-1901333Y32676357D01*
X-1886047Y32561270D01*
X-1831820Y32485046D01*
X-1726102Y32440803D01*
X-1556341Y32421659D01*
X-1432643Y32419333D01*
X-1264189Y32417295D01*
X-1163470Y32408533D01*
X-1113596Y32389076D01*
X-1097680Y32354955D01*
X-1097000Y32340421D01*
X-1136047Y32281458D01*
X-1242701Y32239820D01*
X-1401234Y32217878D01*
X-1595919Y32218005D01*
X-1779707Y32237486D01*
X-1919927Y32290738D01*
X-2017957Y32404884D01*
X-2078103Y32586730D01*
X-2098694Y32741671D01*
X-2104624Y33023207D01*
X-2097178Y33067409D01*
X-1901333Y33067409D01*
X-1896768Y33019192D01*
X-1871669Y32990173D01*
X-1808928Y32975489D01*
X-1691441Y32970280D01*
X-1557375Y32969667D01*
X-1213417Y32969667D01*
X-1240669Y33105927D01*
X-1276759Y33227661D01*
X-1337877Y33295732D01*
X-1445342Y33324692D01*
X-1568196Y33329500D01*
X-1743961Y33307195D01*
X-1852322Y33237437D01*
X-1898697Y33115965D01*
X-1901333Y33067409D01*
X-2097178Y33067409D01*
X-2069014Y33234572D01*
X-1990537Y33380103D01*
X-1879033Y33459702D01*
X-1698422Y33506721D01*
X-1496046Y33516656D01*
X-1310155Y33489596D01*
G36*
X384667Y32250000D02*
G01*
X278833Y32250000D01*
X192002Y32273433D01*
X173000Y32320061D01*
X166905Y32366549D01*
X134190Y32353693D01*
X95823Y32320278D01*
X-21810Y32258933D01*
X-184004Y32228200D01*
X-355195Y32231346D01*
X-489155Y32266558D01*
X-598902Y32346944D01*
X-670315Y32476857D01*
X-706236Y32665656D01*
X-709061Y32887608D01*
X-506712Y32887608D01*
X-498102Y32723151D01*
X-477238Y32583014D01*
X-444671Y32494133D01*
X-437810Y32485857D01*
X-343174Y32439181D01*
X-204888Y32420899D01*
X-59231Y32431470D01*
X57523Y32471354D01*
X69659Y32479421D01*
X113371Y32525300D01*
X138533Y32597238D01*
X149766Y32716302D01*
X151833Y32853915D01*
X144919Y33056075D01*
X117191Y33188398D01*
X58173Y33265080D01*
X-42613Y33300316D01*
X-183550Y33308333D01*
X-318806Y33299044D01*
X-421773Y33275331D01*
X-453533Y33257533D01*
X-484976Y33181735D01*
X-502519Y33049447D01*
X-506712Y32887608D01*
X-709061Y32887608D01*
X-709508Y32922702D01*
X-706541Y32982326D01*
X-693645Y33157104D01*
X-674952Y33270236D01*
X-643409Y33344733D01*
X-591969Y33403607D01*
X-572063Y33421267D01*
X-424507Y33498398D01*
X-243810Y33523708D01*
X-64243Y33496603D01*
X61457Y33432261D01*
X173000Y33344522D01*
X173000Y33707428D01*
X173951Y33882573D01*
X180051Y33989744D01*
X196167Y34045633D01*
X227166Y34066932D01*
X277917Y34070333D01*
X384667Y34070333D01*
X384667Y32250000D01*
X384667Y32250000D01*
G37*
X384667Y32250000D02*
X278833Y32250000D01*
X192002Y32273433D01*
X173000Y32320061D01*
X166905Y32366549D01*
X134190Y32353693D01*
X95823Y32320278D01*
X-21810Y32258933D01*
X-184004Y32228200D01*
X-355195Y32231346D01*
X-489155Y32266558D01*
X-598902Y32346944D01*
X-670315Y32476857D01*
X-706236Y32665656D01*
X-709061Y32887608D01*
X-506712Y32887608D01*
X-498102Y32723151D01*
X-477238Y32583014D01*
X-444671Y32494133D01*
X-437810Y32485857D01*
X-343174Y32439181D01*
X-204888Y32420899D01*
X-59231Y32431470D01*
X57523Y32471354D01*
X69659Y32479421D01*
X113371Y32525300D01*
X138533Y32597238D01*
X149766Y32716302D01*
X151833Y32853915D01*
X144919Y33056075D01*
X117191Y33188398D01*
X58173Y33265080D01*
X-42613Y33300316D01*
X-183550Y33308333D01*
X-318806Y33299044D01*
X-421773Y33275331D01*
X-453533Y33257533D01*
X-484976Y33181735D01*
X-502519Y33049447D01*
X-506712Y32887608D01*
X-709061Y32887608D01*
X-709508Y32922702D01*
X-706541Y32982326D01*
X-693645Y33157104D01*
X-674952Y33270236D01*
X-643409Y33344733D01*
X-591969Y33403607D01*
X-572063Y33421267D01*
X-424507Y33498398D01*
X-243810Y33523708D01*
X-64243Y33496603D01*
X61457Y33432261D01*
X173000Y33344522D01*
X173000Y33707428D01*
X173951Y33882573D01*
X180051Y33989744D01*
X196167Y34045633D01*
X227166Y34066932D01*
X277917Y34070333D01*
X384667Y34070333D01*
X384667Y32250000D01*
G36*
X-5487963Y33494295D02*
G01*
X-5464526Y33472234D01*
X-5448567Y33419985D01*
X-5438132Y33324882D01*
X-5431264Y33174259D01*
X-5426010Y32955450D01*
X-5424452Y32874417D01*
X-5412737Y32250000D01*
X-5628930Y32250000D01*
X-5617215Y32874417D01*
X-5612063Y33116208D01*
X-5605886Y33286004D01*
X-5596729Y33396470D01*
X-5582637Y33460274D01*
X-5561654Y33490080D01*
X-5531826Y33498557D01*
X-5520833Y33498833D01*
X-5487963Y33494295D01*
X-5487963Y33494295D01*
G37*
X-5487963Y33494295D02*
X-5464526Y33472234D01*
X-5448567Y33419985D01*
X-5438132Y33324882D01*
X-5431264Y33174259D01*
X-5426010Y32955450D01*
X-5424452Y32874417D01*
X-5412737Y32250000D01*
X-5628930Y32250000D01*
X-5617215Y32874417D01*
X-5612063Y33116208D01*
X-5605886Y33286004D01*
X-5596729Y33396470D01*
X-5582637Y33460274D01*
X-5561654Y33490080D01*
X-5531826Y33498557D01*
X-5520833Y33498833D01*
X-5487963Y33494295D01*
G36*
X-3378738Y33484405D02*
G01*
X-3352490Y33433641D01*
X-3330443Y33374950D01*
X-3294165Y33381936D01*
X-3249964Y33419629D01*
X-3155357Y33468254D01*
X-3009217Y33502948D01*
X-2940908Y33510976D01*
X-2800042Y33517347D01*
X-2709855Y33501250D01*
X-2637477Y33453941D01*
X-2602897Y33421079D01*
X-2557694Y33372093D01*
X-2527119Y33320885D01*
X-2508317Y33250678D01*
X-2498434Y33144694D01*
X-2494614Y32986155D01*
X-2494000Y32781091D01*
X-2494766Y32561022D01*
X-2498524Y32411885D01*
X-2507461Y32319953D01*
X-2523767Y32271495D01*
X-2549631Y32252781D01*
X-2578667Y32250000D01*
X-2617681Y32256131D01*
X-2642738Y32284857D01*
X-2657175Y32351674D01*
X-2664331Y32472081D01*
X-2667541Y32661575D01*
X-2667553Y32662750D01*
X-2671394Y32904175D01*
X-2681423Y33073657D01*
X-2704037Y33183918D01*
X-2745633Y33247683D01*
X-2812606Y33277673D01*
X-2911355Y33286613D01*
X-2981492Y33287167D01*
X-3125409Y33283360D01*
X-3209558Y33266197D01*
X-3258703Y33227069D01*
X-3285876Y33181333D01*
X-3312593Y33082784D01*
X-3331207Y32918862D01*
X-3339726Y32708641D01*
X-3340043Y32662750D01*
X-3341554Y32472925D01*
X-3347529Y32352247D01*
X-3361173Y32285207D01*
X-3385691Y32256296D01*
X-3424289Y32250002D01*
X-3425333Y32250000D01*
X-3457873Y32254161D01*
X-3480802Y32275030D01*
X-3495795Y32325183D01*
X-3504531Y32417198D01*
X-3508686Y32563652D01*
X-3509937Y32777123D01*
X-3510000Y32885000D01*
X-3509001Y33131839D01*
X-3505145Y33306122D01*
X-3497148Y33419948D01*
X-3483724Y33485413D01*
X-3463589Y33514615D01*
X-3442537Y33520000D01*
X-3378738Y33484405D01*
X-3378738Y33484405D01*
G37*
X-3378738Y33484405D02*
X-3352490Y33433641D01*
X-3330443Y33374950D01*
X-3294165Y33381936D01*
X-3249964Y33419629D01*
X-3155357Y33468254D01*
X-3009217Y33502948D01*
X-2940908Y33510976D01*
X-2800042Y33517347D01*
X-2709855Y33501250D01*
X-2637477Y33453941D01*
X-2602897Y33421079D01*
X-2557694Y33372093D01*
X-2527119Y33320885D01*
X-2508317Y33250678D01*
X-2498434Y33144694D01*
X-2494614Y32986155D01*
X-2494000Y32781091D01*
X-2494766Y32561022D01*
X-2498524Y32411885D01*
X-2507461Y32319953D01*
X-2523767Y32271495D01*
X-2549631Y32252781D01*
X-2578667Y32250000D01*
X-2617681Y32256131D01*
X-2642738Y32284857D01*
X-2657175Y32351674D01*
X-2664331Y32472081D01*
X-2667541Y32661575D01*
X-2667553Y32662750D01*
X-2671394Y32904175D01*
X-2681423Y33073657D01*
X-2704037Y33183918D01*
X-2745633Y33247683D01*
X-2812606Y33277673D01*
X-2911355Y33286613D01*
X-2981492Y33287167D01*
X-3125409Y33283360D01*
X-3209558Y33266197D01*
X-3258703Y33227069D01*
X-3285876Y33181333D01*
X-3312593Y33082784D01*
X-3331207Y32918862D01*
X-3339726Y32708641D01*
X-3340043Y32662750D01*
X-3341554Y32472925D01*
X-3347529Y32352247D01*
X-3361173Y32285207D01*
X-3385691Y32256296D01*
X-3424289Y32250002D01*
X-3425333Y32250000D01*
X-3457873Y32254161D01*
X-3480802Y32275030D01*
X-3495795Y32325183D01*
X-3504531Y32417198D01*
X-3508686Y32563652D01*
X-3509937Y32777123D01*
X-3510000Y32885000D01*
X-3509001Y33131839D01*
X-3505145Y33306122D01*
X-3497148Y33419948D01*
X-3483724Y33485413D01*
X-3463589Y33514615D01*
X-3442537Y33520000D01*
X-3378738Y33484405D01*
G36*
X-5440273Y34052849D02*
G01*
X-5415447Y33984004D01*
X-5415000Y33964500D01*
X-5432485Y33883939D01*
X-5501330Y33859114D01*
X-5520833Y33858667D01*
X-5601394Y33876152D01*
X-5626220Y33944997D01*
X-5626667Y33964500D01*
X-5609182Y34045061D01*
X-5540337Y34069887D01*
X-5520833Y34070333D01*
X-5440273Y34052849D01*
X-5440273Y34052849D01*
G37*
X-5440273Y34052849D02*
X-5415447Y33984004D01*
X-5415000Y33964500D01*
X-5432485Y33883939D01*
X-5501330Y33859114D01*
X-5520833Y33858667D01*
X-5601394Y33876152D01*
X-5626220Y33944997D01*
X-5626667Y33964500D01*
X-5609182Y34045061D01*
X-5540337Y34069887D01*
X-5520833Y34070333D01*
X-5440273Y34052849D01*
D11*
X-36350000Y29400000D03*
D12*
X35650000Y29400000D03*
M02*
