<?xml version="1.0" encoding="UTF-8" standalone="no"?>
<!-- Created with Inkscape (http://www.inkscape.org/) -->

<svg
   xmlns:dc="http://purl.org/dc/elements/1.1/"
   xmlns:cc="http://creativecommons.org/ns#"
   xmlns:rdf="http://www.w3.org/1999/02/22-rdf-syntax-ns#"
   xmlns:svg="http://www.w3.org/2000/svg"
   xmlns="http://www.w3.org/2000/svg"
   xmlns:sodipodi="http://sodipodi.sourceforge.net/DTD/sodipodi-0.dtd"
   xmlns:inkscape="http://www.inkscape.org/namespaces/inkscape"
   width="100.0mm"
   height="100.0mm"
   viewBox="0 0 100.0 100.0"
   version="1.1"
   id="svg8"
   inkscape:version="0.92.4 (5da689c313, 2019-01-14)"
   sodipodi:docname="middle.svg">
  <defs
     id="defs2" />
  <sodipodi:namedview
     id="base"
     pagecolor="#ffffff"
     bordercolor="#666666"
     borderopacity="1.0"
     inkscape:pageopacity="0.0"
     inkscape:pageshadow="2"
     inkscape:zoom="2.8"
     inkscape:cx="152.7959"
     inkscape:cy="287.74769"
     inkscape:document-units="mm"
     inkscape:current-layer="g824"
     showgrid="true"
     inkscape:window-width="1920"
     inkscape:window-height="1019"
     inkscape:window-x="0"
     inkscape:window-y="27"
     inkscape:window-maximized="1"
     borderlayer="true"
     showguides="true"
     inkscape:guide-bbox="true">
    <inkscape:grid
       enabled="false"
       id="grid816"
       units="mm"
       type="xygrid"
       empspacing="1"
       spacingy="2.54"
       spacingx="2.54" />
    <inkscape:grid
       enabled="false"
       spacingx="2.54"
       spacingy="2.54"
       empspacing="1"
       type="xygrid"
       units="mm"
       id="grid854" />
    <inkscape:grid
       dotted="false"
       enabled="true"
       empopacity="0.25098039"
       empcolor="#d93fff"
       opacity="0.1254902"
       color="#b83f1a"
       spacingx="0.99999999"
       spacingy="0.99999999"
       id="grid871"
       type="xygrid" />
    <sodipodi:guide
       inkscape:color="rgb(0,0,255)"
       inkscape:label=""
       inkscape:locked="false"
       id="guide897"
       orientation="0,1"
       position="9.9999998,300" />
    <sodipodi:guide
       inkscape:color="rgb(0,0,255)"
       inkscape:label=""
       inkscape:locked="false"
       id="guide899"
       orientation="0,1"
       position="0,61.8" />
    <sodipodi:guide
       id="guide1016"
       inkscape:locked="false"
       orientation="0,1"
       position="84.999999,69.999999" />
    <sodipodi:guide
       inkscape:color="rgb(0,0,255)"
       inkscape:label=""
       inkscape:locked="false"
       id="guide1938"
       orientation="0,1"
       position="11,71.799999" />
    <sodipodi:guide
       inkscape:color="rgb(0,0,255)"
       inkscape:label=""
       inkscape:locked="false"
       id="guide1940"
       orientation="0,1"
       position="25,68.199999" />
    <sodipodi:guide
       inkscape:color="rgb(0,0,255)"
       inkscape:label=""
       inkscape:locked="false"
       id="guide1970"
       orientation="0,1"
       position="35.999999,69.799999" />
    <sodipodi:guide
       inkscape:locked="false"
       id="guide1987"
       orientation="0,1"
       position="43.999999,39.999999" />
    <sodipodi:guide
       inkscape:color="rgb(0,0,255)"
       inkscape:label=""
       inkscape:locked="false"
       id="guide1989"
       orientation="0,1"
       position="49.999999,41.6" />
    <sodipodi:guide
       inkscape:color="rgb(0,0,255)"
       inkscape:label=""
       inkscape:locked="false"
       id="guide1991"
       orientation="0,1"
       position="64.999999,38.2" />
    <sodipodi:guide
       inkscape:locked="false"
       id="guide2002"
       orientation="0,1"
       position="103,63.999999" />
  </sodipodi:namedview>
  <metadata
     id="metadata5">
    <rdf:RDF>
      <cc:Work
         rdf:about="">
        <dc:format>image/svg+xml</dc:format>
        <dc:type
           rdf:resource="http://purl.org/dc/dcmitype/StillImage" />
        <dc:title />
      </cc:Work>
    </rdf:RDF>
  </metadata>
  <g
     id="g822"
     inkscape:groupmode="layer"
     inkscape:label="[fixed] BG"
     style="display:inline">
    <rect
       id="rect820"
       style="fill:#ffffff;fill-opacity:1;stroke:none"
       height="100"
       width="100"
       y="9.7887459"
       x="0.066817373" />
  </g>
  <g
     id="g824"
     inkscape:groupmode="layer"
     inkscape:label="Edge.Cuts"
     style="display:inline">
    <path
       sodipodi:nodetypes="sccccccccccccssssccccccccccccccccccssss"
       inkscape:connector-curvature="0"
       id="rect875-0-9"
       d="M4.033407 7.0040699L4.999998 6.9999999L8.999998 7.0000009L14.999999 7.0000009L14.999999 5.3999999L34.999999 5.3999999L34.999999 7.0000009L64.999999 7.0000009L64.999999 5.3999999L84.999999 5.3999999L84.999999 6.9999999L89.999999 6.9999999L92.999999 6.9999999L96.066819 6.9706599L96.4761595225 6.9862419762L96.8720284922 7.03981604082L97.2526407627 7.12969997292L97.6162111875 7.25421165156L97.9609546201 7.41166895579L98.2850859141 7.60038976465L98.5868199229 7.8186919572L98.8643715 8.0648934125L99.115955499 8.33731200959L99.3397867734 8.63426562754L99.5340801768 8.95407214539L99.6970505625 9.29504944219L99.8269127842 9.655515397L99.9218816953 10.0337878889L99.9801721494 10.4281847969L99.999999 10.837024L99.999999 29.476504L99.97955546 29.8877632646L99.9195220859 30.2890246484L99.8218447471 30.6780129736L99.6884693125 31.0524530625L99.5213416514 31.4100697373L99.3224076328 31.7485878203L99.093613126 32.0657321338L98.836904 32.3592275L98.554226124 32.6267987412L98.2475253672 32.8661706797L97.9187475986 33.0750681377L97.5698386875 33.2512159375L97.2027445029 33.3923389014L96.8194109141 33.4961618516L96.42178379 33.5604096104L96.011809 33.582807L85.999999 33.600007L84.999999 33.600007L84.999999 35.200009L83.999999 35.200009L82.999999 35.200009L70.999999 35.200009L69.999999 35.200009L69.999999 34.499112L69.999999 33.600005L29.999999 33.600005L29.999999 35.299115L28.999999 35.299115L23.999999 35.299115L15.999999 35.299115L14.999999 35.299115L14.999999 34.499112L14.999999 33.600005L13.999999 33.600005L3.999999 33.576745L3.58978804761 33.5564373113L3.19149211523 33.4985735996L2.80712052759 33.4048178967L2.43868260938 33.2768342344L2.0881876853 33.1162866443L1.75764508008 32.9248391582L1.44906411841 32.7041558079L1.164454125 32.455900625L0.905824424561 32.1817376414L0.675184341797 31.8833308887L0.474543201416 31.5623443987L0.305910328125 31.2204422031L0.171295046631 30.8592883337L0.0727066816406 30.4805468223L0.0121545578613 30.0858817004L-0.008352 29.676957L4.80000000023e-05 11.016923L0.0211630554199 10.606773349L0.0827535058594 10.208643234L0.182745277588 9.82450978716L0.319064296875 9.45635014062L0.48963648999 9.10614142651L0.692387783203 8.77586077695L0.925244102783 8.46748532407L1.186131375 8.1829922L1.47297552612 7.92435853687L1.78370248242 7.6935614668L2.11623817017 7.49257812192L2.46850851563 7.32338563437L2.83843944507 7.18796113628L3.22395688477 7.08828175977L3.62298676099 7.02632463696L4.033455 7.0040669L4.033407 7.0040699"
       style="display:inline;fill:none;fill-opacity:1;stroke:#000000;stroke-width:0.1;stroke-miterlimit:4;stroke-dasharray:none;stroke-opacity:1" />
  </g>
  <g
     id="g826"
     inkscape:groupmode="layer"
     inkscape:label="B.Cu-disabled" />
  <g
     id="g828"
     inkscape:groupmode="layer"
     inkscape:label="B.Mask-disabled" />
  <g
     id="g830"
     inkscape:groupmode="layer"
     inkscape:label="B.Silk-disabled" />
  <g
     id="g832"
     inkscape:groupmode="layer"
     inkscape:label="F.Cu" />
  <g
     id="g834"
     inkscape:groupmode="layer"
     inkscape:label="F.Mask-disabled" />
  <g
     id="g836"
     inkscape:groupmode="layer"
     inkscape:label="F.Silk-disabled" />
  <g
     id="g838"
     inkscape:groupmode="layer"
     inkscape:label="Drill" />
</svg>
