G04 #@! TF.GenerationSoftware,KiCad,Pcbnew,5.1.4-e60b266~84~ubuntu19.04.1*
G04 #@! TF.CreationDate,2019-09-15T17:47:07+02:00*
G04 #@! TF.ProjectId,kicad,6b696361-642e-46b6-9963-61645f706362,rev?*
G04 #@! TF.SameCoordinates,Original*
G04 #@! TF.FileFunction,Legend,Top*
G04 #@! TF.FilePolarity,Positive*
%FSLAX46Y46*%
G04 Gerber Fmt 4.6, Leading zero omitted, Abs format (unit mm)*
G04 Created by KiCad (PCBNEW 5.1.4-e60b266~84~ubuntu19.04.1) date 2019-09-15 17:47:07*
%MOMM*%
%LPD*%
G04 APERTURE LIST*
%ADD10C,0.150000*%
%ADD11C,0.010000*%
%ADD12C,0.120000*%
G04 APERTURE END LIST*
D10*
X92047619Y-48452380D02*
X92238095Y-48452380D01*
X92333333Y-48500000D01*
X92428571Y-48595238D01*
X92476190Y-48785714D01*
X92476190Y-49119047D01*
X92428571Y-49309523D01*
X92333333Y-49404761D01*
X92238095Y-49452380D01*
X92047619Y-49452380D01*
X91952380Y-49404761D01*
X91857142Y-49309523D01*
X91809523Y-49119047D01*
X91809523Y-48785714D01*
X91857142Y-48595238D01*
X91952380Y-48500000D01*
X92047619Y-48452380D01*
X93238095Y-48928571D02*
X92904761Y-48928571D01*
X92904761Y-49452380D02*
X92904761Y-48452380D01*
X93380952Y-48452380D01*
X94095238Y-48928571D02*
X93761904Y-48928571D01*
X93761904Y-49452380D02*
X93761904Y-48452380D01*
X94238095Y-48452380D01*
X78880952Y-48452380D02*
X79071428Y-48452380D01*
X79166666Y-48500000D01*
X79261904Y-48595238D01*
X79309523Y-48785714D01*
X79309523Y-49119047D01*
X79261904Y-49309523D01*
X79166666Y-49404761D01*
X79071428Y-49452380D01*
X78880952Y-49452380D01*
X78785714Y-49404761D01*
X78690476Y-49309523D01*
X78642857Y-49119047D01*
X78642857Y-48785714D01*
X78690476Y-48595238D01*
X78785714Y-48500000D01*
X78880952Y-48452380D01*
X79738095Y-49452380D02*
X79738095Y-48452380D01*
X80309523Y-49452380D01*
X80309523Y-48452380D01*
D11*
G36*
X40834264Y-36645945D02*
G01*
X40890108Y-36675124D01*
X40897000Y-36700834D01*
X40869039Y-36744987D01*
X40776349Y-36763181D01*
X40727667Y-36764334D01*
X40558334Y-36764334D01*
X40558334Y-37166500D01*
X40557055Y-37353418D01*
X40551015Y-37471388D01*
X40536908Y-37536114D01*
X40511426Y-37563303D01*
X40473667Y-37568667D01*
X40435737Y-37563045D01*
X40411203Y-37536150D01*
X40397171Y-37472940D01*
X40390745Y-37358371D01*
X40389032Y-37177400D01*
X40389000Y-37128696D01*
X40390426Y-36918830D01*
X40400952Y-36779282D01*
X40429950Y-36695706D01*
X40486792Y-36653753D01*
X40580850Y-36639078D01*
X40709963Y-36637334D01*
X40834264Y-36645945D01*
X40834264Y-36645945D01*
G37*
X40834264Y-36645945D02*
X40890108Y-36675124D01*
X40897000Y-36700834D01*
X40869039Y-36744987D01*
X40776349Y-36763181D01*
X40727667Y-36764334D01*
X40558334Y-36764334D01*
X40558334Y-37166500D01*
X40557055Y-37353418D01*
X40551015Y-37471388D01*
X40536908Y-37536114D01*
X40511426Y-37563303D01*
X40473667Y-37568667D01*
X40435737Y-37563045D01*
X40411203Y-37536150D01*
X40397171Y-37472940D01*
X40390745Y-37358371D01*
X40389032Y-37177400D01*
X40389000Y-37128696D01*
X40390426Y-36918830D01*
X40400952Y-36779282D01*
X40429950Y-36695706D01*
X40486792Y-36653753D01*
X40580850Y-36639078D01*
X40709963Y-36637334D01*
X40834264Y-36645945D01*
G36*
X41643206Y-36671714D02*
G01*
X41657330Y-36678773D01*
X41727707Y-36752625D01*
X41788551Y-36875895D01*
X41824425Y-37013541D01*
X41828334Y-37066984D01*
X41819081Y-37107221D01*
X41779807Y-37130842D01*
X41693235Y-37142111D01*
X41542089Y-37145291D01*
X41510834Y-37145334D01*
X41332381Y-37150067D01*
X41231606Y-37168473D01*
X41201841Y-37206857D01*
X41236416Y-37271527D01*
X41302173Y-37342688D01*
X41388467Y-37413379D01*
X41476936Y-37434727D01*
X41580641Y-37424402D01*
X41688192Y-37411875D01*
X41733432Y-37424939D01*
X41736468Y-37469806D01*
X41735989Y-37472389D01*
X41687785Y-37523138D01*
X41584277Y-37554476D01*
X41452992Y-37564527D01*
X41321456Y-37551411D01*
X41217197Y-37513252D01*
X41209751Y-37508284D01*
X41100843Y-37383836D01*
X41041552Y-37216951D01*
X41033191Y-37034507D01*
X41045777Y-36985420D01*
X41193334Y-36985420D01*
X41231621Y-37003447D01*
X41330385Y-37015402D01*
X41426167Y-37018334D01*
X41575320Y-37009688D01*
X41650847Y-36984719D01*
X41659000Y-36968750D01*
X41623251Y-36881621D01*
X41538093Y-36804221D01*
X41436658Y-36765127D01*
X41422006Y-36764334D01*
X41332528Y-36797274D01*
X41246055Y-36874449D01*
X41196172Y-36963386D01*
X41193334Y-36985420D01*
X41045777Y-36985420D01*
X41077069Y-36863381D01*
X41171910Y-36732650D01*
X41314123Y-36658892D01*
X41484966Y-36637055D01*
X41643206Y-36671714D01*
X41643206Y-36671714D01*
G37*
X41643206Y-36671714D02*
X41657330Y-36678773D01*
X41727707Y-36752625D01*
X41788551Y-36875895D01*
X41824425Y-37013541D01*
X41828334Y-37066984D01*
X41819081Y-37107221D01*
X41779807Y-37130842D01*
X41693235Y-37142111D01*
X41542089Y-37145291D01*
X41510834Y-37145334D01*
X41332381Y-37150067D01*
X41231606Y-37168473D01*
X41201841Y-37206857D01*
X41236416Y-37271527D01*
X41302173Y-37342688D01*
X41388467Y-37413379D01*
X41476936Y-37434727D01*
X41580641Y-37424402D01*
X41688192Y-37411875D01*
X41733432Y-37424939D01*
X41736468Y-37469806D01*
X41735989Y-37472389D01*
X41687785Y-37523138D01*
X41584277Y-37554476D01*
X41452992Y-37564527D01*
X41321456Y-37551411D01*
X41217197Y-37513252D01*
X41209751Y-37508284D01*
X41100843Y-37383836D01*
X41041552Y-37216951D01*
X41033191Y-37034507D01*
X41045777Y-36985420D01*
X41193334Y-36985420D01*
X41231621Y-37003447D01*
X41330385Y-37015402D01*
X41426167Y-37018334D01*
X41575320Y-37009688D01*
X41650847Y-36984719D01*
X41659000Y-36968750D01*
X41623251Y-36881621D01*
X41538093Y-36804221D01*
X41436658Y-36765127D01*
X41422006Y-36764334D01*
X41332528Y-36797274D01*
X41246055Y-36874449D01*
X41196172Y-36963386D01*
X41193334Y-36985420D01*
X41045777Y-36985420D01*
X41077069Y-36863381D01*
X41171910Y-36732650D01*
X41314123Y-36658892D01*
X41484966Y-36637055D01*
X41643206Y-36671714D01*
G36*
X42728180Y-36646533D02*
G01*
X42747089Y-36681538D01*
X42739787Y-36753455D01*
X42704166Y-36873394D01*
X42638119Y-37052462D01*
X42576799Y-37208529D01*
X42490767Y-37405331D01*
X42418111Y-37522017D01*
X42353295Y-37561001D01*
X42290784Y-37524693D01*
X42225044Y-37415508D01*
X42204655Y-37370718D01*
X42142051Y-37219684D01*
X42077958Y-37053057D01*
X42020316Y-36893059D01*
X41977067Y-36761911D01*
X41956150Y-36681832D01*
X41955334Y-36673040D01*
X41990566Y-36643280D01*
X42033781Y-36637334D01*
X42078731Y-36655634D01*
X42123624Y-36719120D01*
X42175384Y-36840664D01*
X42232284Y-37006400D01*
X42289071Y-37178845D01*
X42326958Y-37280868D01*
X42353172Y-37322580D01*
X42374940Y-37314092D01*
X42399488Y-37265518D01*
X42406254Y-37249816D01*
X42448416Y-37138082D01*
X42499060Y-36985430D01*
X42530829Y-36880750D01*
X42578782Y-36737898D01*
X42623923Y-36662320D01*
X42676626Y-36637655D01*
X42685168Y-36637334D01*
X42728180Y-36646533D01*
X42728180Y-36646533D01*
G37*
X42728180Y-36646533D02*
X42747089Y-36681538D01*
X42739787Y-36753455D01*
X42704166Y-36873394D01*
X42638119Y-37052462D01*
X42576799Y-37208529D01*
X42490767Y-37405331D01*
X42418111Y-37522017D01*
X42353295Y-37561001D01*
X42290784Y-37524693D01*
X42225044Y-37415508D01*
X42204655Y-37370718D01*
X42142051Y-37219684D01*
X42077958Y-37053057D01*
X42020316Y-36893059D01*
X41977067Y-36761911D01*
X41956150Y-36681832D01*
X41955334Y-36673040D01*
X41990566Y-36643280D01*
X42033781Y-36637334D01*
X42078731Y-36655634D01*
X42123624Y-36719120D01*
X42175384Y-36840664D01*
X42232284Y-37006400D01*
X42289071Y-37178845D01*
X42326958Y-37280868D01*
X42353172Y-37322580D01*
X42374940Y-37314092D01*
X42399488Y-37265518D01*
X42406254Y-37249816D01*
X42448416Y-37138082D01*
X42499060Y-36985430D01*
X42530829Y-36880750D01*
X42578782Y-36737898D01*
X42623923Y-36662320D01*
X42676626Y-36637655D01*
X42685168Y-36637334D01*
X42728180Y-36646533D01*
G36*
X43835502Y-36381227D02*
G01*
X43847587Y-36493529D01*
X43856059Y-36665339D01*
X43860104Y-36884087D01*
X43860334Y-36954834D01*
X43859744Y-37194162D01*
X43856799Y-37361614D01*
X43849735Y-37469979D01*
X43836787Y-37532047D01*
X43816193Y-37560605D01*
X43786187Y-37568443D01*
X43775667Y-37568667D01*
X43739289Y-37563504D01*
X43715144Y-37538465D01*
X43700740Y-37479227D01*
X43693586Y-37371465D01*
X43691191Y-37200855D01*
X43691000Y-37081834D01*
X43686892Y-36844057D01*
X43673953Y-36686708D01*
X43651262Y-36605914D01*
X43617897Y-36597805D01*
X43585167Y-36637334D01*
X43529067Y-36673344D01*
X43454249Y-36675804D01*
X43401647Y-36647004D01*
X43396005Y-36626750D01*
X43430022Y-36580059D01*
X43513611Y-36511188D01*
X43621343Y-36437252D01*
X43727792Y-36375360D01*
X43807530Y-36342624D01*
X43820616Y-36341000D01*
X43835502Y-36381227D01*
X43835502Y-36381227D01*
G37*
X43835502Y-36381227D02*
X43847587Y-36493529D01*
X43856059Y-36665339D01*
X43860104Y-36884087D01*
X43860334Y-36954834D01*
X43859744Y-37194162D01*
X43856799Y-37361614D01*
X43849735Y-37469979D01*
X43836787Y-37532047D01*
X43816193Y-37560605D01*
X43786187Y-37568443D01*
X43775667Y-37568667D01*
X43739289Y-37563504D01*
X43715144Y-37538465D01*
X43700740Y-37479227D01*
X43693586Y-37371465D01*
X43691191Y-37200855D01*
X43691000Y-37081834D01*
X43686892Y-36844057D01*
X43673953Y-36686708D01*
X43651262Y-36605914D01*
X43617897Y-36597805D01*
X43585167Y-36637334D01*
X43529067Y-36673344D01*
X43454249Y-36675804D01*
X43401647Y-36647004D01*
X43396005Y-36626750D01*
X43430022Y-36580059D01*
X43513611Y-36511188D01*
X43621343Y-36437252D01*
X43727792Y-36375360D01*
X43807530Y-36342624D01*
X43820616Y-36341000D01*
X43835502Y-36381227D01*
G36*
X42853580Y-34168037D02*
G01*
X43024506Y-34284342D01*
X43155401Y-34454711D01*
X43236784Y-34669208D01*
X43259171Y-34917897D01*
X43252714Y-34999835D01*
X43191280Y-35231878D01*
X43074601Y-35422441D01*
X42915671Y-35562363D01*
X42727482Y-35642483D01*
X42523029Y-35653639D01*
X42378689Y-35616107D01*
X42180914Y-35495228D01*
X42042885Y-35315601D01*
X41966261Y-35080073D01*
X41950042Y-34879647D01*
X41955498Y-34832983D01*
X42213443Y-34832983D01*
X42222685Y-35021820D01*
X42271078Y-35193444D01*
X42358819Y-35324684D01*
X42410416Y-35363942D01*
X42560089Y-35408155D01*
X42716155Y-35386923D01*
X42840490Y-35307925D01*
X42940221Y-35144947D01*
X42984876Y-34945506D01*
X42974453Y-34737429D01*
X42908951Y-34548543D01*
X42840549Y-34453138D01*
X42709167Y-34370277D01*
X42550778Y-34353965D01*
X42418655Y-34394922D01*
X42311625Y-34496362D01*
X42243156Y-34650106D01*
X42213443Y-34832983D01*
X41955498Y-34832983D01*
X41981456Y-34610973D01*
X42073363Y-34394310D01*
X42222262Y-34235080D01*
X42424651Y-34138703D01*
X42429567Y-34137360D01*
X42652106Y-34115731D01*
X42853580Y-34168037D01*
X42853580Y-34168037D01*
G37*
X42853580Y-34168037D02*
X43024506Y-34284342D01*
X43155401Y-34454711D01*
X43236784Y-34669208D01*
X43259171Y-34917897D01*
X43252714Y-34999835D01*
X43191280Y-35231878D01*
X43074601Y-35422441D01*
X42915671Y-35562363D01*
X42727482Y-35642483D01*
X42523029Y-35653639D01*
X42378689Y-35616107D01*
X42180914Y-35495228D01*
X42042885Y-35315601D01*
X41966261Y-35080073D01*
X41950042Y-34879647D01*
X41955498Y-34832983D01*
X42213443Y-34832983D01*
X42222685Y-35021820D01*
X42271078Y-35193444D01*
X42358819Y-35324684D01*
X42410416Y-35363942D01*
X42560089Y-35408155D01*
X42716155Y-35386923D01*
X42840490Y-35307925D01*
X42940221Y-35144947D01*
X42984876Y-34945506D01*
X42974453Y-34737429D01*
X42908951Y-34548543D01*
X42840549Y-34453138D01*
X42709167Y-34370277D01*
X42550778Y-34353965D01*
X42418655Y-34394922D01*
X42311625Y-34496362D01*
X42243156Y-34650106D01*
X42213443Y-34832983D01*
X41955498Y-34832983D01*
X41981456Y-34610973D01*
X42073363Y-34394310D01*
X42222262Y-34235080D01*
X42424651Y-34138703D01*
X42429567Y-34137360D01*
X42652106Y-34115731D01*
X42853580Y-34168037D01*
G36*
X45850000Y-34691071D02*
G01*
X45851957Y-34955724D01*
X45861120Y-35147072D01*
X45882433Y-35276446D01*
X45920836Y-35355177D01*
X45981272Y-35394597D01*
X46068680Y-35406036D01*
X46160353Y-35402721D01*
X46288324Y-35397190D01*
X46353252Y-35408063D01*
X46376411Y-35444062D01*
X46379167Y-35492425D01*
X46351063Y-35583643D01*
X46273334Y-35625788D01*
X46045595Y-35655329D01*
X45835783Y-35607980D01*
X45824586Y-35603217D01*
X45722483Y-35540835D01*
X45657552Y-35469265D01*
X45656600Y-35467291D01*
X45640373Y-35395429D01*
X45623680Y-35258844D01*
X45608532Y-35077441D01*
X45597347Y-34880500D01*
X45574834Y-34372500D01*
X45349941Y-34359613D01*
X45219728Y-34348747D01*
X45154765Y-34329081D01*
X45135639Y-34290911D01*
X45138274Y-34253780D01*
X45151375Y-34207773D01*
X45186348Y-34179011D01*
X45260745Y-34162398D01*
X45392119Y-34152838D01*
X45500750Y-34148538D01*
X45850000Y-34136243D01*
X45850000Y-34691071D01*
X45850000Y-34691071D01*
G37*
X45850000Y-34691071D02*
X45851957Y-34955724D01*
X45861120Y-35147072D01*
X45882433Y-35276446D01*
X45920836Y-35355177D01*
X45981272Y-35394597D01*
X46068680Y-35406036D01*
X46160353Y-35402721D01*
X46288324Y-35397190D01*
X46353252Y-35408063D01*
X46376411Y-35444062D01*
X46379167Y-35492425D01*
X46351063Y-35583643D01*
X46273334Y-35625788D01*
X46045595Y-35655329D01*
X45835783Y-35607980D01*
X45824586Y-35603217D01*
X45722483Y-35540835D01*
X45657552Y-35469265D01*
X45656600Y-35467291D01*
X45640373Y-35395429D01*
X45623680Y-35258844D01*
X45608532Y-35077441D01*
X45597347Y-34880500D01*
X45574834Y-34372500D01*
X45349941Y-34359613D01*
X45219728Y-34348747D01*
X45154765Y-34329081D01*
X45135639Y-34290911D01*
X45138274Y-34253780D01*
X45151375Y-34207773D01*
X45186348Y-34179011D01*
X45260745Y-34162398D01*
X45392119Y-34152838D01*
X45500750Y-34148538D01*
X45850000Y-34136243D01*
X45850000Y-34691071D01*
G36*
X47331667Y-34139667D02*
G01*
X47649167Y-34139667D01*
X47810661Y-34140986D01*
X47905325Y-34148906D01*
X47950993Y-34169372D01*
X47965500Y-34208328D01*
X47966667Y-34245500D01*
X47962710Y-34299331D01*
X47938950Y-34330886D01*
X47877553Y-34346109D01*
X47760684Y-34350944D01*
X47649167Y-34351334D01*
X47331667Y-34351334D01*
X47332291Y-34764084D01*
X47338796Y-34987170D01*
X47356357Y-35162847D01*
X47383137Y-35273781D01*
X47387264Y-35282667D01*
X47425723Y-35341542D01*
X47479932Y-35372801D01*
X47574173Y-35384347D01*
X47700486Y-35384618D01*
X47844168Y-35385196D01*
X47924422Y-35397218D01*
X47962378Y-35427902D01*
X47978242Y-35479517D01*
X47977881Y-35549163D01*
X47929094Y-35592136D01*
X47844313Y-35620747D01*
X47609278Y-35656215D01*
X47389844Y-35634480D01*
X47298897Y-35591978D01*
X47202799Y-35513494D01*
X47199344Y-35509862D01*
X47156907Y-35458515D01*
X47127643Y-35399699D01*
X47108457Y-35316450D01*
X47096253Y-35191802D01*
X47087936Y-35008787D01*
X47083897Y-34877117D01*
X47068961Y-34351334D01*
X46925147Y-34351334D01*
X46826841Y-34342849D01*
X46787396Y-34305077D01*
X46781334Y-34245500D01*
X46792404Y-34173929D01*
X46842219Y-34144630D01*
X46929500Y-34139667D01*
X47077667Y-34139667D01*
X47077667Y-33932805D01*
X47081236Y-33808496D01*
X47101017Y-33744649D01*
X47150619Y-33717100D01*
X47204667Y-33707303D01*
X47331667Y-33688664D01*
X47331667Y-34139667D01*
X47331667Y-34139667D01*
G37*
X47331667Y-34139667D02*
X47649167Y-34139667D01*
X47810661Y-34140986D01*
X47905325Y-34148906D01*
X47950993Y-34169372D01*
X47965500Y-34208328D01*
X47966667Y-34245500D01*
X47962710Y-34299331D01*
X47938950Y-34330886D01*
X47877553Y-34346109D01*
X47760684Y-34350944D01*
X47649167Y-34351334D01*
X47331667Y-34351334D01*
X47332291Y-34764084D01*
X47338796Y-34987170D01*
X47356357Y-35162847D01*
X47383137Y-35273781D01*
X47387264Y-35282667D01*
X47425723Y-35341542D01*
X47479932Y-35372801D01*
X47574173Y-35384347D01*
X47700486Y-35384618D01*
X47844168Y-35385196D01*
X47924422Y-35397218D01*
X47962378Y-35427902D01*
X47978242Y-35479517D01*
X47977881Y-35549163D01*
X47929094Y-35592136D01*
X47844313Y-35620747D01*
X47609278Y-35656215D01*
X47389844Y-35634480D01*
X47298897Y-35591978D01*
X47202799Y-35513494D01*
X47199344Y-35509862D01*
X47156907Y-35458515D01*
X47127643Y-35399699D01*
X47108457Y-35316450D01*
X47096253Y-35191802D01*
X47087936Y-35008787D01*
X47083897Y-34877117D01*
X47068961Y-34351334D01*
X46925147Y-34351334D01*
X46826841Y-34342849D01*
X46787396Y-34305077D01*
X46781334Y-34245500D01*
X46792404Y-34173929D01*
X46842219Y-34144630D01*
X46929500Y-34139667D01*
X47077667Y-34139667D01*
X47077667Y-33932805D01*
X47081236Y-33808496D01*
X47101017Y-33744649D01*
X47150619Y-33717100D01*
X47204667Y-33707303D01*
X47331667Y-33688664D01*
X47331667Y-34139667D01*
G36*
X49203580Y-34168037D02*
G01*
X49374506Y-34284342D01*
X49505401Y-34454711D01*
X49586784Y-34669208D01*
X49609171Y-34917897D01*
X49602714Y-34999835D01*
X49541280Y-35231878D01*
X49424601Y-35422441D01*
X49265671Y-35562363D01*
X49077482Y-35642483D01*
X48873029Y-35653639D01*
X48728689Y-35616107D01*
X48530914Y-35495228D01*
X48392885Y-35315601D01*
X48316261Y-35080073D01*
X48300042Y-34879647D01*
X48305498Y-34832983D01*
X48563443Y-34832983D01*
X48572685Y-35021820D01*
X48621078Y-35193444D01*
X48708819Y-35324684D01*
X48760416Y-35363942D01*
X48910089Y-35408155D01*
X49066155Y-35386923D01*
X49190490Y-35307925D01*
X49284825Y-35160839D01*
X49330375Y-34987246D01*
X49331239Y-34805136D01*
X49291517Y-34632500D01*
X49215309Y-34487329D01*
X49106715Y-34387614D01*
X48972504Y-34351334D01*
X48851767Y-34366450D01*
X48768655Y-34394922D01*
X48661625Y-34496362D01*
X48593156Y-34650106D01*
X48563443Y-34832983D01*
X48305498Y-34832983D01*
X48331456Y-34610973D01*
X48423363Y-34394310D01*
X48572262Y-34235080D01*
X48774651Y-34138703D01*
X48779567Y-34137360D01*
X49002106Y-34115731D01*
X49203580Y-34168037D01*
X49203580Y-34168037D01*
G37*
X49203580Y-34168037D02*
X49374506Y-34284342D01*
X49505401Y-34454711D01*
X49586784Y-34669208D01*
X49609171Y-34917897D01*
X49602714Y-34999835D01*
X49541280Y-35231878D01*
X49424601Y-35422441D01*
X49265671Y-35562363D01*
X49077482Y-35642483D01*
X48873029Y-35653639D01*
X48728689Y-35616107D01*
X48530914Y-35495228D01*
X48392885Y-35315601D01*
X48316261Y-35080073D01*
X48300042Y-34879647D01*
X48305498Y-34832983D01*
X48563443Y-34832983D01*
X48572685Y-35021820D01*
X48621078Y-35193444D01*
X48708819Y-35324684D01*
X48760416Y-35363942D01*
X48910089Y-35408155D01*
X49066155Y-35386923D01*
X49190490Y-35307925D01*
X49284825Y-35160839D01*
X49330375Y-34987246D01*
X49331239Y-34805136D01*
X49291517Y-34632500D01*
X49215309Y-34487329D01*
X49106715Y-34387614D01*
X48972504Y-34351334D01*
X48851767Y-34366450D01*
X48768655Y-34394922D01*
X48661625Y-34496362D01*
X48593156Y-34650106D01*
X48563443Y-34832983D01*
X48305498Y-34832983D01*
X48331456Y-34610973D01*
X48423363Y-34394310D01*
X48572262Y-34235080D01*
X48774651Y-34138703D01*
X48779567Y-34137360D01*
X49002106Y-34115731D01*
X49203580Y-34168037D01*
G36*
X40647683Y-33678148D02*
G01*
X40687694Y-33699661D01*
X40724192Y-33752143D01*
X40764799Y-33849195D01*
X40817134Y-34004423D01*
X40863343Y-34150250D01*
X41012979Y-34626500D01*
X41158594Y-34160834D01*
X41222084Y-33960890D01*
X41269097Y-33827779D01*
X41307791Y-33747326D01*
X41346325Y-33705363D01*
X41392858Y-33687715D01*
X41434106Y-33682287D01*
X41509704Y-33679187D01*
X41551575Y-33702384D01*
X41574417Y-33771659D01*
X41591364Y-33893953D01*
X41603572Y-34015438D01*
X41618901Y-34199133D01*
X41635985Y-34424909D01*
X41653463Y-34672634D01*
X41669970Y-34922177D01*
X41684144Y-35153405D01*
X41694620Y-35346189D01*
X41700036Y-35480397D01*
X41700462Y-35504917D01*
X41689357Y-35587610D01*
X41636752Y-35618049D01*
X41574334Y-35621334D01*
X41447334Y-35621334D01*
X41442739Y-35081584D01*
X41438721Y-34849421D01*
X41431245Y-34623107D01*
X41421402Y-34429469D01*
X41410989Y-34301403D01*
X41383834Y-34060973D01*
X41259938Y-34462277D01*
X41202507Y-34644986D01*
X41160467Y-34761037D01*
X41124673Y-34824805D01*
X41085977Y-34850664D01*
X41035232Y-34852989D01*
X41012656Y-34850875D01*
X40954575Y-34839731D01*
X40910009Y-34810166D01*
X40869535Y-34746977D01*
X40823732Y-34634958D01*
X40763178Y-34458907D01*
X40755551Y-34436000D01*
X40621834Y-34033834D01*
X40595940Y-34732334D01*
X40586854Y-34973725D01*
X40578419Y-35191037D01*
X40571299Y-35367682D01*
X40566156Y-35487071D01*
X40564190Y-35526084D01*
X40540988Y-35596596D01*
X40467325Y-35620491D01*
X40436986Y-35621334D01*
X40315638Y-35621334D01*
X40332044Y-35314417D01*
X40346360Y-35068220D01*
X40363576Y-34806050D01*
X40382483Y-34543008D01*
X40401871Y-34294198D01*
X40420531Y-34074722D01*
X40437255Y-33899681D01*
X40450834Y-33784179D01*
X40457430Y-33748084D01*
X40516466Y-33687503D01*
X40596539Y-33674000D01*
X40647683Y-33678148D01*
X40647683Y-33678148D01*
G37*
X40647683Y-33678148D02*
X40687694Y-33699661D01*
X40724192Y-33752143D01*
X40764799Y-33849195D01*
X40817134Y-34004423D01*
X40863343Y-34150250D01*
X41012979Y-34626500D01*
X41158594Y-34160834D01*
X41222084Y-33960890D01*
X41269097Y-33827779D01*
X41307791Y-33747326D01*
X41346325Y-33705363D01*
X41392858Y-33687715D01*
X41434106Y-33682287D01*
X41509704Y-33679187D01*
X41551575Y-33702384D01*
X41574417Y-33771659D01*
X41591364Y-33893953D01*
X41603572Y-34015438D01*
X41618901Y-34199133D01*
X41635985Y-34424909D01*
X41653463Y-34672634D01*
X41669970Y-34922177D01*
X41684144Y-35153405D01*
X41694620Y-35346189D01*
X41700036Y-35480397D01*
X41700462Y-35504917D01*
X41689357Y-35587610D01*
X41636752Y-35618049D01*
X41574334Y-35621334D01*
X41447334Y-35621334D01*
X41442739Y-35081584D01*
X41438721Y-34849421D01*
X41431245Y-34623107D01*
X41421402Y-34429469D01*
X41410989Y-34301403D01*
X41383834Y-34060973D01*
X41259938Y-34462277D01*
X41202507Y-34644986D01*
X41160467Y-34761037D01*
X41124673Y-34824805D01*
X41085977Y-34850664D01*
X41035232Y-34852989D01*
X41012656Y-34850875D01*
X40954575Y-34839731D01*
X40910009Y-34810166D01*
X40869535Y-34746977D01*
X40823732Y-34634958D01*
X40763178Y-34458907D01*
X40755551Y-34436000D01*
X40621834Y-34033834D01*
X40595940Y-34732334D01*
X40586854Y-34973725D01*
X40578419Y-35191037D01*
X40571299Y-35367682D01*
X40566156Y-35487071D01*
X40564190Y-35526084D01*
X40540988Y-35596596D01*
X40467325Y-35620491D01*
X40436986Y-35621334D01*
X40315638Y-35621334D01*
X40332044Y-35314417D01*
X40346360Y-35068220D01*
X40363576Y-34806050D01*
X40382483Y-34543008D01*
X40401871Y-34294198D01*
X40420531Y-34074722D01*
X40437255Y-33899681D01*
X40450834Y-33784179D01*
X40457430Y-33748084D01*
X40516466Y-33687503D01*
X40596539Y-33674000D01*
X40647683Y-33678148D01*
G36*
X44359172Y-34146882D02*
G01*
X44500014Y-34192747D01*
X44527572Y-34209930D01*
X44611567Y-34281227D01*
X44671388Y-34360708D01*
X44711023Y-34463718D01*
X44734463Y-34605602D01*
X44745698Y-34801703D01*
X44748709Y-35060417D01*
X44749334Y-35621334D01*
X44495334Y-35621334D01*
X44495334Y-35097876D01*
X44493897Y-34873484D01*
X44488008Y-34716573D01*
X44475294Y-34609982D01*
X44453384Y-34536552D01*
X44419909Y-34479121D01*
X44407594Y-34462876D01*
X44337003Y-34392444D01*
X44249778Y-34359494D01*
X44112393Y-34351334D01*
X43904930Y-34351334D01*
X43893215Y-34975750D01*
X43881500Y-35600167D01*
X43743917Y-35613432D01*
X43606334Y-35626698D01*
X43606334Y-34188727D01*
X43742581Y-34158802D01*
X43955091Y-34128258D01*
X44169077Y-34124835D01*
X44359172Y-34146882D01*
X44359172Y-34146882D01*
G37*
X44359172Y-34146882D02*
X44500014Y-34192747D01*
X44527572Y-34209930D01*
X44611567Y-34281227D01*
X44671388Y-34360708D01*
X44711023Y-34463718D01*
X44734463Y-34605602D01*
X44745698Y-34801703D01*
X44748709Y-35060417D01*
X44749334Y-35621334D01*
X44495334Y-35621334D01*
X44495334Y-35097876D01*
X44493897Y-34873484D01*
X44488008Y-34716573D01*
X44475294Y-34609982D01*
X44453384Y-34536552D01*
X44419909Y-34479121D01*
X44407594Y-34462876D01*
X44337003Y-34392444D01*
X44249778Y-34359494D01*
X44112393Y-34351334D01*
X43904930Y-34351334D01*
X43893215Y-34975750D01*
X43881500Y-35600167D01*
X43743917Y-35613432D01*
X43606334Y-35626698D01*
X43606334Y-34188727D01*
X43742581Y-34158802D01*
X43955091Y-34128258D01*
X44169077Y-34124835D01*
X44359172Y-34146882D01*
G36*
X50657321Y-34455614D02*
G01*
X50764988Y-34495094D01*
X50803000Y-34564918D01*
X50794510Y-34608458D01*
X50757021Y-34633405D01*
X50672506Y-34644793D01*
X50522938Y-34647655D01*
X50506667Y-34647667D01*
X50210334Y-34647667D01*
X50210334Y-35621334D01*
X49998667Y-35621334D01*
X49998667Y-35071000D01*
X49999633Y-34866273D01*
X50002277Y-34696079D01*
X50006217Y-34576137D01*
X50011069Y-34522166D01*
X50012059Y-34520667D01*
X50057428Y-34513598D01*
X50161501Y-34495257D01*
X50272947Y-34474915D01*
X50489981Y-34448322D01*
X50657321Y-34455614D01*
X50657321Y-34455614D01*
G37*
X50657321Y-34455614D02*
X50764988Y-34495094D01*
X50803000Y-34564918D01*
X50794510Y-34608458D01*
X50757021Y-34633405D01*
X50672506Y-34644793D01*
X50522938Y-34647655D01*
X50506667Y-34647667D01*
X50210334Y-34647667D01*
X50210334Y-35621334D01*
X49998667Y-35621334D01*
X49998667Y-35071000D01*
X49999633Y-34866273D01*
X50002277Y-34696079D01*
X50006217Y-34576137D01*
X50011069Y-34522166D01*
X50012059Y-34520667D01*
X50057428Y-34513598D01*
X50161501Y-34495257D01*
X50272947Y-34474915D01*
X50489981Y-34448322D01*
X50657321Y-34455614D01*
G36*
X45660809Y-33511618D02*
G01*
X45774684Y-33559049D01*
X45835562Y-33652299D01*
X45833267Y-33764871D01*
X45787660Y-33842052D01*
X45691327Y-33916312D01*
X45598461Y-33910192D01*
X45511334Y-33843334D01*
X45441888Y-33730694D01*
X45443640Y-33623388D01*
X45507030Y-33542632D01*
X45622495Y-33509645D01*
X45660809Y-33511618D01*
X45660809Y-33511618D01*
G37*
X45660809Y-33511618D02*
X45774684Y-33559049D01*
X45835562Y-33652299D01*
X45833267Y-33764871D01*
X45787660Y-33842052D01*
X45691327Y-33916312D01*
X45598461Y-33910192D01*
X45511334Y-33843334D01*
X45441888Y-33730694D01*
X45443640Y-33623388D01*
X45507030Y-33542632D01*
X45622495Y-33509645D01*
X45660809Y-33511618D01*
G36*
X42853580Y-30993037D02*
G01*
X43024506Y-31109342D01*
X43155401Y-31279711D01*
X43236784Y-31494208D01*
X43259171Y-31742897D01*
X43252714Y-31824835D01*
X43191280Y-32056878D01*
X43074601Y-32247441D01*
X42915671Y-32387363D01*
X42727482Y-32467483D01*
X42523029Y-32478639D01*
X42378689Y-32441107D01*
X42180914Y-32320228D01*
X42042885Y-32140601D01*
X41966261Y-31905073D01*
X41950042Y-31704647D01*
X41955498Y-31657983D01*
X42213443Y-31657983D01*
X42222685Y-31846820D01*
X42271078Y-32018444D01*
X42358819Y-32149684D01*
X42410416Y-32188942D01*
X42560089Y-32233155D01*
X42716155Y-32211923D01*
X42840490Y-32132925D01*
X42940221Y-31969947D01*
X42984876Y-31770506D01*
X42974453Y-31562429D01*
X42908951Y-31373543D01*
X42840549Y-31278138D01*
X42709167Y-31195277D01*
X42550778Y-31178965D01*
X42418655Y-31219922D01*
X42311625Y-31321362D01*
X42243156Y-31475106D01*
X42213443Y-31657983D01*
X41955498Y-31657983D01*
X41981456Y-31435973D01*
X42073363Y-31219310D01*
X42222262Y-31060080D01*
X42424651Y-30963703D01*
X42429567Y-30962360D01*
X42652106Y-30940731D01*
X42853580Y-30993037D01*
X42853580Y-30993037D01*
G37*
X42853580Y-30993037D02*
X43024506Y-31109342D01*
X43155401Y-31279711D01*
X43236784Y-31494208D01*
X43259171Y-31742897D01*
X43252714Y-31824835D01*
X43191280Y-32056878D01*
X43074601Y-32247441D01*
X42915671Y-32387363D01*
X42727482Y-32467483D01*
X42523029Y-32478639D01*
X42378689Y-32441107D01*
X42180914Y-32320228D01*
X42042885Y-32140601D01*
X41966261Y-31905073D01*
X41950042Y-31704647D01*
X41955498Y-31657983D01*
X42213443Y-31657983D01*
X42222685Y-31846820D01*
X42271078Y-32018444D01*
X42358819Y-32149684D01*
X42410416Y-32188942D01*
X42560089Y-32233155D01*
X42716155Y-32211923D01*
X42840490Y-32132925D01*
X42940221Y-31969947D01*
X42984876Y-31770506D01*
X42974453Y-31562429D01*
X42908951Y-31373543D01*
X42840549Y-31278138D01*
X42709167Y-31195277D01*
X42550778Y-31178965D01*
X42418655Y-31219922D01*
X42311625Y-31321362D01*
X42243156Y-31475106D01*
X42213443Y-31657983D01*
X41955498Y-31657983D01*
X41981456Y-31435973D01*
X42073363Y-31219310D01*
X42222262Y-31060080D01*
X42424651Y-30963703D01*
X42429567Y-30962360D01*
X42652106Y-30940731D01*
X42853580Y-30993037D01*
G36*
X44334851Y-30954145D02*
G01*
X44528357Y-31041315D01*
X44602006Y-31098082D01*
X44732221Y-31250616D01*
X44806590Y-31437975D01*
X44830134Y-31675744D01*
X44826105Y-31793898D01*
X44792515Y-32017860D01*
X44715944Y-32188536D01*
X44583164Y-32331906D01*
X44531386Y-32372735D01*
X44398182Y-32435377D01*
X44226223Y-32470104D01*
X44058848Y-32469707D01*
X44008500Y-32459698D01*
X43823396Y-32367123D01*
X43674439Y-32209420D01*
X43571503Y-32001949D01*
X43524463Y-31760071D01*
X43522651Y-31705500D01*
X43776139Y-31705500D01*
X43795897Y-31826489D01*
X43844805Y-31970956D01*
X43907316Y-32098383D01*
X43947749Y-32152749D01*
X44064742Y-32216911D01*
X44215574Y-32232017D01*
X44362937Y-32194906D01*
X44374700Y-32188926D01*
X44462816Y-32101846D01*
X44533494Y-31959125D01*
X44574475Y-31789632D01*
X44580000Y-31705500D01*
X44558060Y-31533427D01*
X44500411Y-31373972D01*
X44419313Y-31256004D01*
X44374700Y-31222074D01*
X44221435Y-31179235D01*
X44064894Y-31197875D01*
X43955049Y-31260725D01*
X43885341Y-31358856D01*
X43822268Y-31500106D01*
X43782310Y-31643500D01*
X43776139Y-31705500D01*
X43522651Y-31705500D01*
X43522597Y-31703887D01*
X43554540Y-31462158D01*
X43644366Y-31257872D01*
X43779692Y-31097978D01*
X43948136Y-30989426D01*
X44137317Y-30939166D01*
X44334851Y-30954145D01*
X44334851Y-30954145D01*
G37*
X44334851Y-30954145D02*
X44528357Y-31041315D01*
X44602006Y-31098082D01*
X44732221Y-31250616D01*
X44806590Y-31437975D01*
X44830134Y-31675744D01*
X44826105Y-31793898D01*
X44792515Y-32017860D01*
X44715944Y-32188536D01*
X44583164Y-32331906D01*
X44531386Y-32372735D01*
X44398182Y-32435377D01*
X44226223Y-32470104D01*
X44058848Y-32469707D01*
X44008500Y-32459698D01*
X43823396Y-32367123D01*
X43674439Y-32209420D01*
X43571503Y-32001949D01*
X43524463Y-31760071D01*
X43522651Y-31705500D01*
X43776139Y-31705500D01*
X43795897Y-31826489D01*
X43844805Y-31970956D01*
X43907316Y-32098383D01*
X43947749Y-32152749D01*
X44064742Y-32216911D01*
X44215574Y-32232017D01*
X44362937Y-32194906D01*
X44374700Y-32188926D01*
X44462816Y-32101846D01*
X44533494Y-31959125D01*
X44574475Y-31789632D01*
X44580000Y-31705500D01*
X44558060Y-31533427D01*
X44500411Y-31373972D01*
X44419313Y-31256004D01*
X44374700Y-31222074D01*
X44221435Y-31179235D01*
X44064894Y-31197875D01*
X43955049Y-31260725D01*
X43885341Y-31358856D01*
X43822268Y-31500106D01*
X43782310Y-31643500D01*
X43776139Y-31705500D01*
X43522651Y-31705500D01*
X43522597Y-31703887D01*
X43554540Y-31462158D01*
X43644366Y-31257872D01*
X43779692Y-31097978D01*
X43948136Y-30989426D01*
X44137317Y-30939166D01*
X44334851Y-30954145D01*
G36*
X41099719Y-30489171D02*
G01*
X41305303Y-30562625D01*
X41455734Y-30674311D01*
X41510117Y-30751614D01*
X41565360Y-30931509D01*
X41565939Y-31127892D01*
X41517606Y-31315971D01*
X41426111Y-31470953D01*
X41323651Y-31555558D01*
X41287380Y-31579498D01*
X41272973Y-31612148D01*
X41284622Y-31668297D01*
X41326518Y-31762734D01*
X41402852Y-31910248D01*
X41448385Y-31995698D01*
X41535127Y-32160560D01*
X41604516Y-32297238D01*
X41648177Y-32388934D01*
X41659000Y-32418105D01*
X41622139Y-32437874D01*
X41533242Y-32446329D01*
X41530952Y-32446334D01*
X41427765Y-32427209D01*
X41368931Y-32354191D01*
X41359006Y-32329917D01*
X41315407Y-32234343D01*
X41243623Y-32096485D01*
X41160758Y-31948917D01*
X41078659Y-31812157D01*
X41018362Y-31733138D01*
X40959764Y-31696032D01*
X40882760Y-31685011D01*
X40824704Y-31684334D01*
X40643000Y-31684334D01*
X40643000Y-32446334D01*
X40389000Y-32446334D01*
X40389000Y-31066297D01*
X40643000Y-31066297D01*
X40646204Y-31230945D01*
X40654727Y-31361506D01*
X40666935Y-31436097D01*
X40671222Y-31444445D01*
X40730435Y-31468526D01*
X40840651Y-31463320D01*
X41002834Y-31431413D01*
X41176692Y-31357806D01*
X41284004Y-31235637D01*
X41320334Y-31071519D01*
X41282088Y-30901656D01*
X41175782Y-30771708D01*
X41014059Y-30695999D01*
X40983284Y-30689773D01*
X40830670Y-30670620D01*
X40731854Y-30683610D01*
X40675320Y-30741484D01*
X40649553Y-30856985D01*
X40643036Y-31042854D01*
X40643000Y-31066297D01*
X40389000Y-31066297D01*
X40389000Y-30504188D01*
X40583561Y-30475012D01*
X40854099Y-30458462D01*
X41099719Y-30489171D01*
X41099719Y-30489171D01*
G37*
X41099719Y-30489171D02*
X41305303Y-30562625D01*
X41455734Y-30674311D01*
X41510117Y-30751614D01*
X41565360Y-30931509D01*
X41565939Y-31127892D01*
X41517606Y-31315971D01*
X41426111Y-31470953D01*
X41323651Y-31555558D01*
X41287380Y-31579498D01*
X41272973Y-31612148D01*
X41284622Y-31668297D01*
X41326518Y-31762734D01*
X41402852Y-31910248D01*
X41448385Y-31995698D01*
X41535127Y-32160560D01*
X41604516Y-32297238D01*
X41648177Y-32388934D01*
X41659000Y-32418105D01*
X41622139Y-32437874D01*
X41533242Y-32446329D01*
X41530952Y-32446334D01*
X41427765Y-32427209D01*
X41368931Y-32354191D01*
X41359006Y-32329917D01*
X41315407Y-32234343D01*
X41243623Y-32096485D01*
X41160758Y-31948917D01*
X41078659Y-31812157D01*
X41018362Y-31733138D01*
X40959764Y-31696032D01*
X40882760Y-31685011D01*
X40824704Y-31684334D01*
X40643000Y-31684334D01*
X40643000Y-32446334D01*
X40389000Y-32446334D01*
X40389000Y-31066297D01*
X40643000Y-31066297D01*
X40646204Y-31230945D01*
X40654727Y-31361506D01*
X40666935Y-31436097D01*
X40671222Y-31444445D01*
X40730435Y-31468526D01*
X40840651Y-31463320D01*
X41002834Y-31431413D01*
X41176692Y-31357806D01*
X41284004Y-31235637D01*
X41320334Y-31071519D01*
X41282088Y-30901656D01*
X41175782Y-30771708D01*
X41014059Y-30695999D01*
X40983284Y-30689773D01*
X40830670Y-30670620D01*
X40731854Y-30683610D01*
X40675320Y-30741484D01*
X40649553Y-30856985D01*
X40643036Y-31042854D01*
X40643000Y-31066297D01*
X40389000Y-31066297D01*
X40389000Y-30504188D01*
X40583561Y-30475012D01*
X40854099Y-30458462D01*
X41099719Y-30489171D01*
G36*
X46186882Y-30970388D02*
G01*
X46278818Y-31013839D01*
X46346317Y-31078866D01*
X46392911Y-31177632D01*
X46422132Y-31322304D01*
X46437510Y-31525045D01*
X46442577Y-31798020D01*
X46442667Y-31851565D01*
X46442667Y-32446334D01*
X46231000Y-32446334D01*
X46231000Y-31919923D01*
X46227610Y-31644661D01*
X46215615Y-31443838D01*
X46192274Y-31307432D01*
X46154849Y-31225419D01*
X46100600Y-31187776D01*
X46029896Y-31184107D01*
X45972757Y-31193899D01*
X45937534Y-31218900D01*
X45917958Y-31276774D01*
X45907762Y-31385187D01*
X45901205Y-31546750D01*
X45893959Y-31717920D01*
X45883281Y-31821440D01*
X45863506Y-31874298D01*
X45828974Y-31893481D01*
X45784788Y-31896000D01*
X45726828Y-31890319D01*
X45695670Y-31859962D01*
X45683042Y-31784963D01*
X45680667Y-31645354D01*
X45680667Y-31644756D01*
X45671132Y-31429813D01*
X45639379Y-31287207D01*
X45580686Y-31206434D01*
X45490329Y-31176992D01*
X45470048Y-31176334D01*
X45342000Y-31176334D01*
X45342000Y-32446334D01*
X45128334Y-32446334D01*
X45151500Y-30989548D01*
X45311071Y-30956432D01*
X45529113Y-30952742D01*
X45630054Y-30978238D01*
X45758010Y-31010555D01*
X45863152Y-31000031D01*
X45922496Y-30978878D01*
X46060985Y-30946330D01*
X46186882Y-30970388D01*
X46186882Y-30970388D01*
G37*
X46186882Y-30970388D02*
X46278818Y-31013839D01*
X46346317Y-31078866D01*
X46392911Y-31177632D01*
X46422132Y-31322304D01*
X46437510Y-31525045D01*
X46442577Y-31798020D01*
X46442667Y-31851565D01*
X46442667Y-32446334D01*
X46231000Y-32446334D01*
X46231000Y-31919923D01*
X46227610Y-31644661D01*
X46215615Y-31443838D01*
X46192274Y-31307432D01*
X46154849Y-31225419D01*
X46100600Y-31187776D01*
X46029896Y-31184107D01*
X45972757Y-31193899D01*
X45937534Y-31218900D01*
X45917958Y-31276774D01*
X45907762Y-31385187D01*
X45901205Y-31546750D01*
X45893959Y-31717920D01*
X45883281Y-31821440D01*
X45863506Y-31874298D01*
X45828974Y-31893481D01*
X45784788Y-31896000D01*
X45726828Y-31890319D01*
X45695670Y-31859962D01*
X45683042Y-31784963D01*
X45680667Y-31645354D01*
X45680667Y-31644756D01*
X45671132Y-31429813D01*
X45639379Y-31287207D01*
X45580686Y-31206434D01*
X45490329Y-31176992D01*
X45470048Y-31176334D01*
X45342000Y-31176334D01*
X45342000Y-32446334D01*
X45128334Y-32446334D01*
X45151500Y-30989548D01*
X45311071Y-30956432D01*
X45529113Y-30952742D01*
X45630054Y-30978238D01*
X45758010Y-31010555D01*
X45863152Y-31000031D01*
X45922496Y-30978878D01*
X46060985Y-30946330D01*
X46186882Y-30970388D01*
D12*
X89950000Y-49220000D02*
X89950000Y-48430000D01*
X83050000Y-48430000D02*
X83050000Y-49220000D01*
X84900000Y-47380000D02*
X86600000Y-47380000D01*
X83650000Y-50230000D02*
X89350000Y-50230000D01*
X86400000Y-51520000D02*
X86400000Y-50230000D01*
X85300000Y-51730000D02*
X86200000Y-51730000D01*
X85100000Y-50230000D02*
X85100000Y-51520000D01*
X86400000Y-51520000D02*
X86200000Y-51730000D01*
X85100000Y-51520000D02*
X85300000Y-51730000D01*
X87900000Y-47380000D02*
X88100000Y-47380000D01*
D10*
X85166666Y-45704761D02*
X85309523Y-45752380D01*
X85547619Y-45752380D01*
X85642857Y-45704761D01*
X85690476Y-45657142D01*
X85738095Y-45561904D01*
X85738095Y-45466666D01*
X85690476Y-45371428D01*
X85642857Y-45323809D01*
X85547619Y-45276190D01*
X85357142Y-45228571D01*
X85261904Y-45180952D01*
X85214285Y-45133333D01*
X85166666Y-45038095D01*
X85166666Y-44942857D01*
X85214285Y-44847619D01*
X85261904Y-44800000D01*
X85357142Y-44752380D01*
X85595238Y-44752380D01*
X85738095Y-44800000D01*
X86071428Y-44752380D02*
X86309523Y-45752380D01*
X86500000Y-45038095D01*
X86690476Y-45752380D01*
X86928571Y-44752380D01*
X87833333Y-45752380D02*
X87261904Y-45752380D01*
X87547619Y-45752380D02*
X87547619Y-44752380D01*
X87452380Y-44895238D01*
X87357142Y-44990476D01*
X87261904Y-45038095D01*
M02*
