G04 #@! TF.GenerationSoftware,KiCad,Pcbnew,5.1.4-e60b266~84~ubuntu19.04.1*
G04 #@! TF.CreationDate,2019-09-15T17:47:07+02:00*
G04 #@! TF.ProjectId,kicad,6b696361-642e-46b6-9963-61645f706362,rev?*
G04 #@! TF.SameCoordinates,Original*
G04 #@! TF.FileFunction,Soldermask,Top*
G04 #@! TF.FilePolarity,Negative*
%FSLAX46Y46*%
G04 Gerber Fmt 4.6, Leading zero omitted, Abs format (unit mm)*
G04 Created by KiCad (PCBNEW 5.1.4-e60b266~84~ubuntu19.04.1) date 2019-09-15 17:47:07*
%MOMM*%
%LPD*%
G04 APERTURE LIST*
%ADD10C,0.010000*%
%ADD11C,2.600000*%
%ADD12R,1.400000X1.200000*%
%ADD13R,1.100000X1.900000*%
%ADD14C,1.300000*%
G04 APERTURE END LIST*
D10*
G36*
X30699886Y-35273448D02*
G01*
X30723452Y-35287273D01*
X30754265Y-35309881D01*
X30793922Y-35342338D01*
X30844020Y-35385708D01*
X30906157Y-35441058D01*
X30981928Y-35509451D01*
X31068666Y-35588084D01*
X31249289Y-35751878D01*
X31254933Y-35532029D01*
X31256971Y-35456351D01*
X31258937Y-35399994D01*
X31261266Y-35359706D01*
X31264394Y-35332235D01*
X31268755Y-35314329D01*
X31274784Y-35302737D01*
X31282916Y-35294208D01*
X31287228Y-35290623D01*
X31321759Y-35271670D01*
X31354617Y-35274441D01*
X31380682Y-35290633D01*
X31407333Y-35312199D01*
X31410648Y-35627151D01*
X31411565Y-35719779D01*
X31412032Y-35792544D01*
X31411887Y-35848161D01*
X31410968Y-35889342D01*
X31409113Y-35918803D01*
X31406161Y-35939255D01*
X31401950Y-35953413D01*
X31396318Y-35963991D01*
X31390073Y-35972474D01*
X31376561Y-35988207D01*
X31363117Y-35998636D01*
X31347876Y-36002639D01*
X31328974Y-35999094D01*
X31304545Y-35986879D01*
X31272727Y-35964871D01*
X31231652Y-35931949D01*
X31179458Y-35886991D01*
X31114278Y-35828875D01*
X31040444Y-35762099D01*
X30775155Y-35521458D01*
X30769511Y-35740589D01*
X30767469Y-35816128D01*
X30765498Y-35872354D01*
X30763161Y-35912524D01*
X30760019Y-35939896D01*
X30755636Y-35957728D01*
X30749576Y-35969279D01*
X30741400Y-35977807D01*
X30737216Y-35981282D01*
X30700235Y-36000372D01*
X30665292Y-35997493D01*
X30634864Y-35973100D01*
X30627903Y-35963286D01*
X30622477Y-35951826D01*
X30618397Y-35935968D01*
X30615471Y-35912963D01*
X30613508Y-35880062D01*
X30612317Y-35834516D01*
X30611708Y-35773573D01*
X30611489Y-35694486D01*
X30611466Y-35635956D01*
X30611540Y-35544407D01*
X30611887Y-35472687D01*
X30612699Y-35418045D01*
X30614167Y-35377732D01*
X30616481Y-35348998D01*
X30619833Y-35329093D01*
X30624412Y-35315268D01*
X30630411Y-35304772D01*
X30634864Y-35298811D01*
X30646150Y-35284691D01*
X30656699Y-35274029D01*
X30668107Y-35267892D01*
X30681970Y-35267343D01*
X30699886Y-35273448D01*
X30699886Y-35273448D01*
G37*
X30699886Y-35273448D02*
X30723452Y-35287273D01*
X30754265Y-35309881D01*
X30793922Y-35342338D01*
X30844020Y-35385708D01*
X30906157Y-35441058D01*
X30981928Y-35509451D01*
X31068666Y-35588084D01*
X31249289Y-35751878D01*
X31254933Y-35532029D01*
X31256971Y-35456351D01*
X31258937Y-35399994D01*
X31261266Y-35359706D01*
X31264394Y-35332235D01*
X31268755Y-35314329D01*
X31274784Y-35302737D01*
X31282916Y-35294208D01*
X31287228Y-35290623D01*
X31321759Y-35271670D01*
X31354617Y-35274441D01*
X31380682Y-35290633D01*
X31407333Y-35312199D01*
X31410648Y-35627151D01*
X31411565Y-35719779D01*
X31412032Y-35792544D01*
X31411887Y-35848161D01*
X31410968Y-35889342D01*
X31409113Y-35918803D01*
X31406161Y-35939255D01*
X31401950Y-35953413D01*
X31396318Y-35963991D01*
X31390073Y-35972474D01*
X31376561Y-35988207D01*
X31363117Y-35998636D01*
X31347876Y-36002639D01*
X31328974Y-35999094D01*
X31304545Y-35986879D01*
X31272727Y-35964871D01*
X31231652Y-35931949D01*
X31179458Y-35886991D01*
X31114278Y-35828875D01*
X31040444Y-35762099D01*
X30775155Y-35521458D01*
X30769511Y-35740589D01*
X30767469Y-35816128D01*
X30765498Y-35872354D01*
X30763161Y-35912524D01*
X30760019Y-35939896D01*
X30755636Y-35957728D01*
X30749576Y-35969279D01*
X30741400Y-35977807D01*
X30737216Y-35981282D01*
X30700235Y-36000372D01*
X30665292Y-35997493D01*
X30634864Y-35973100D01*
X30627903Y-35963286D01*
X30622477Y-35951826D01*
X30618397Y-35935968D01*
X30615471Y-35912963D01*
X30613508Y-35880062D01*
X30612317Y-35834516D01*
X30611708Y-35773573D01*
X30611489Y-35694486D01*
X30611466Y-35635956D01*
X30611540Y-35544407D01*
X30611887Y-35472687D01*
X30612699Y-35418045D01*
X30614167Y-35377732D01*
X30616481Y-35348998D01*
X30619833Y-35329093D01*
X30624412Y-35315268D01*
X30630411Y-35304772D01*
X30634864Y-35298811D01*
X30646150Y-35284691D01*
X30656699Y-35274029D01*
X30668107Y-35267892D01*
X30681970Y-35267343D01*
X30699886Y-35273448D01*
G36*
X32230343Y-35269260D02*
G01*
X32306701Y-35270174D01*
X32365217Y-35272311D01*
X32408255Y-35276175D01*
X32438183Y-35282267D01*
X32457368Y-35291090D01*
X32468176Y-35303146D01*
X32472973Y-35318939D01*
X32474127Y-35338970D01*
X32474133Y-35341335D01*
X32473131Y-35363992D01*
X32468396Y-35381503D01*
X32457333Y-35394574D01*
X32437348Y-35403913D01*
X32405846Y-35410227D01*
X32360232Y-35414222D01*
X32297913Y-35416606D01*
X32216293Y-35418086D01*
X32191277Y-35418414D01*
X31949200Y-35421467D01*
X31945814Y-35486378D01*
X31942429Y-35551289D01*
X32110576Y-35551289D01*
X32176266Y-35551531D01*
X32223172Y-35552556D01*
X32255083Y-35554811D01*
X32275791Y-35558742D01*
X32289084Y-35564798D01*
X32298755Y-35573424D01*
X32298817Y-35573493D01*
X32316356Y-35607112D01*
X32315722Y-35643448D01*
X32297314Y-35674423D01*
X32293671Y-35677607D01*
X32280741Y-35685812D01*
X32263024Y-35691521D01*
X32236570Y-35695162D01*
X32197432Y-35697167D01*
X32141662Y-35697964D01*
X32105994Y-35698045D01*
X31943555Y-35698045D01*
X31943555Y-35856089D01*
X32190161Y-35856089D01*
X32271580Y-35856231D01*
X32333410Y-35856814D01*
X32378637Y-35858068D01*
X32410248Y-35860227D01*
X32431231Y-35863523D01*
X32444573Y-35868189D01*
X32453261Y-35874457D01*
X32455450Y-35876733D01*
X32471614Y-35908280D01*
X32472797Y-35944168D01*
X32459536Y-35975285D01*
X32449043Y-35985271D01*
X32438129Y-35990769D01*
X32421217Y-35995022D01*
X32395633Y-35998180D01*
X32358701Y-36000392D01*
X32307746Y-36001806D01*
X32240094Y-36002572D01*
X32153069Y-36002838D01*
X32133394Y-36002845D01*
X32044911Y-36002787D01*
X31976227Y-36002467D01*
X31924564Y-36001667D01*
X31887145Y-36000167D01*
X31861190Y-35997749D01*
X31843922Y-35994194D01*
X31832562Y-35989282D01*
X31824332Y-35982795D01*
X31819817Y-35978138D01*
X31813021Y-35969889D01*
X31807712Y-35959669D01*
X31803706Y-35944800D01*
X31800821Y-35922602D01*
X31798874Y-35890393D01*
X31797681Y-35845496D01*
X31797061Y-35785228D01*
X31796829Y-35706911D01*
X31796800Y-35640994D01*
X31796871Y-35548628D01*
X31797208Y-35476117D01*
X31797998Y-35420737D01*
X31799426Y-35379765D01*
X31801679Y-35350478D01*
X31804943Y-35330153D01*
X31809404Y-35316066D01*
X31815248Y-35305495D01*
X31820197Y-35298811D01*
X31843594Y-35269067D01*
X32133774Y-35269067D01*
X32230343Y-35269260D01*
X32230343Y-35269260D01*
G37*
X32230343Y-35269260D02*
X32306701Y-35270174D01*
X32365217Y-35272311D01*
X32408255Y-35276175D01*
X32438183Y-35282267D01*
X32457368Y-35291090D01*
X32468176Y-35303146D01*
X32472973Y-35318939D01*
X32474127Y-35338970D01*
X32474133Y-35341335D01*
X32473131Y-35363992D01*
X32468396Y-35381503D01*
X32457333Y-35394574D01*
X32437348Y-35403913D01*
X32405846Y-35410227D01*
X32360232Y-35414222D01*
X32297913Y-35416606D01*
X32216293Y-35418086D01*
X32191277Y-35418414D01*
X31949200Y-35421467D01*
X31945814Y-35486378D01*
X31942429Y-35551289D01*
X32110576Y-35551289D01*
X32176266Y-35551531D01*
X32223172Y-35552556D01*
X32255083Y-35554811D01*
X32275791Y-35558742D01*
X32289084Y-35564798D01*
X32298755Y-35573424D01*
X32298817Y-35573493D01*
X32316356Y-35607112D01*
X32315722Y-35643448D01*
X32297314Y-35674423D01*
X32293671Y-35677607D01*
X32280741Y-35685812D01*
X32263024Y-35691521D01*
X32236570Y-35695162D01*
X32197432Y-35697167D01*
X32141662Y-35697964D01*
X32105994Y-35698045D01*
X31943555Y-35698045D01*
X31943555Y-35856089D01*
X32190161Y-35856089D01*
X32271580Y-35856231D01*
X32333410Y-35856814D01*
X32378637Y-35858068D01*
X32410248Y-35860227D01*
X32431231Y-35863523D01*
X32444573Y-35868189D01*
X32453261Y-35874457D01*
X32455450Y-35876733D01*
X32471614Y-35908280D01*
X32472797Y-35944168D01*
X32459536Y-35975285D01*
X32449043Y-35985271D01*
X32438129Y-35990769D01*
X32421217Y-35995022D01*
X32395633Y-35998180D01*
X32358701Y-36000392D01*
X32307746Y-36001806D01*
X32240094Y-36002572D01*
X32153069Y-36002838D01*
X32133394Y-36002845D01*
X32044911Y-36002787D01*
X31976227Y-36002467D01*
X31924564Y-36001667D01*
X31887145Y-36000167D01*
X31861190Y-35997749D01*
X31843922Y-35994194D01*
X31832562Y-35989282D01*
X31824332Y-35982795D01*
X31819817Y-35978138D01*
X31813021Y-35969889D01*
X31807712Y-35959669D01*
X31803706Y-35944800D01*
X31800821Y-35922602D01*
X31798874Y-35890393D01*
X31797681Y-35845496D01*
X31797061Y-35785228D01*
X31796829Y-35706911D01*
X31796800Y-35640994D01*
X31796871Y-35548628D01*
X31797208Y-35476117D01*
X31797998Y-35420737D01*
X31799426Y-35379765D01*
X31801679Y-35350478D01*
X31804943Y-35330153D01*
X31809404Y-35316066D01*
X31815248Y-35305495D01*
X31820197Y-35298811D01*
X31843594Y-35269067D01*
X32133774Y-35269067D01*
X32230343Y-35269260D01*
G36*
X33018309Y-35269275D02*
G01*
X33147288Y-35273636D01*
X33256991Y-35286861D01*
X33349226Y-35309741D01*
X33425802Y-35343070D01*
X33488527Y-35387638D01*
X33539212Y-35444236D01*
X33579663Y-35513658D01*
X33580459Y-35515351D01*
X33604601Y-35577483D01*
X33613203Y-35632509D01*
X33606231Y-35687887D01*
X33583654Y-35751073D01*
X33579372Y-35760689D01*
X33550172Y-35816966D01*
X33517356Y-35860451D01*
X33475002Y-35897417D01*
X33417190Y-35934135D01*
X33413831Y-35936052D01*
X33363504Y-35960227D01*
X33306621Y-35978282D01*
X33239527Y-35990839D01*
X33158565Y-35998522D01*
X33060082Y-36001953D01*
X33025286Y-36002251D01*
X32859594Y-36002845D01*
X32836197Y-35973100D01*
X32829257Y-35963319D01*
X32823842Y-35951897D01*
X32819765Y-35936095D01*
X32816837Y-35913175D01*
X32814867Y-35880396D01*
X32814225Y-35856089D01*
X32970844Y-35856089D01*
X33064726Y-35856089D01*
X33119664Y-35854483D01*
X33176060Y-35850255D01*
X33222345Y-35844292D01*
X33225139Y-35843790D01*
X33307348Y-35821736D01*
X33371114Y-35788600D01*
X33418452Y-35742847D01*
X33451382Y-35682939D01*
X33457108Y-35667061D01*
X33462721Y-35642333D01*
X33460291Y-35617902D01*
X33448467Y-35585400D01*
X33441340Y-35569434D01*
X33418000Y-35527006D01*
X33389880Y-35497240D01*
X33358940Y-35476511D01*
X33296966Y-35449537D01*
X33217651Y-35429998D01*
X33125253Y-35418746D01*
X33058333Y-35416270D01*
X32970844Y-35415822D01*
X32970844Y-35856089D01*
X32814225Y-35856089D01*
X32813668Y-35835021D01*
X32813050Y-35774311D01*
X32812825Y-35695526D01*
X32812800Y-35633920D01*
X32812800Y-35324485D01*
X32840509Y-35296776D01*
X32852806Y-35285544D01*
X32866103Y-35277853D01*
X32884672Y-35273040D01*
X32912786Y-35270446D01*
X32954717Y-35269410D01*
X33014737Y-35269270D01*
X33018309Y-35269275D01*
X33018309Y-35269275D01*
G37*
X33018309Y-35269275D02*
X33147288Y-35273636D01*
X33256991Y-35286861D01*
X33349226Y-35309741D01*
X33425802Y-35343070D01*
X33488527Y-35387638D01*
X33539212Y-35444236D01*
X33579663Y-35513658D01*
X33580459Y-35515351D01*
X33604601Y-35577483D01*
X33613203Y-35632509D01*
X33606231Y-35687887D01*
X33583654Y-35751073D01*
X33579372Y-35760689D01*
X33550172Y-35816966D01*
X33517356Y-35860451D01*
X33475002Y-35897417D01*
X33417190Y-35934135D01*
X33413831Y-35936052D01*
X33363504Y-35960227D01*
X33306621Y-35978282D01*
X33239527Y-35990839D01*
X33158565Y-35998522D01*
X33060082Y-36001953D01*
X33025286Y-36002251D01*
X32859594Y-36002845D01*
X32836197Y-35973100D01*
X32829257Y-35963319D01*
X32823842Y-35951897D01*
X32819765Y-35936095D01*
X32816837Y-35913175D01*
X32814867Y-35880396D01*
X32814225Y-35856089D01*
X32970844Y-35856089D01*
X33064726Y-35856089D01*
X33119664Y-35854483D01*
X33176060Y-35850255D01*
X33222345Y-35844292D01*
X33225139Y-35843790D01*
X33307348Y-35821736D01*
X33371114Y-35788600D01*
X33418452Y-35742847D01*
X33451382Y-35682939D01*
X33457108Y-35667061D01*
X33462721Y-35642333D01*
X33460291Y-35617902D01*
X33448467Y-35585400D01*
X33441340Y-35569434D01*
X33418000Y-35527006D01*
X33389880Y-35497240D01*
X33358940Y-35476511D01*
X33296966Y-35449537D01*
X33217651Y-35429998D01*
X33125253Y-35418746D01*
X33058333Y-35416270D01*
X32970844Y-35415822D01*
X32970844Y-35856089D01*
X32814225Y-35856089D01*
X32813668Y-35835021D01*
X32813050Y-35774311D01*
X32812825Y-35695526D01*
X32812800Y-35633920D01*
X32812800Y-35324485D01*
X32840509Y-35296776D01*
X32852806Y-35285544D01*
X32866103Y-35277853D01*
X32884672Y-35273040D01*
X32912786Y-35270446D01*
X32954717Y-35269410D01*
X33014737Y-35269270D01*
X33018309Y-35269275D01*
G36*
X35744665Y-35271034D02*
G01*
X35764255Y-35278035D01*
X35765010Y-35278377D01*
X35791613Y-35298678D01*
X35806270Y-35319561D01*
X35809138Y-35329352D01*
X35808996Y-35342361D01*
X35804961Y-35360895D01*
X35796146Y-35387257D01*
X35781669Y-35423752D01*
X35760645Y-35472687D01*
X35732188Y-35536365D01*
X35695415Y-35617093D01*
X35675175Y-35661216D01*
X35638625Y-35739985D01*
X35604315Y-35812423D01*
X35573552Y-35875880D01*
X35547648Y-35927708D01*
X35527910Y-35965259D01*
X35515650Y-35985884D01*
X35513224Y-35988733D01*
X35482183Y-36001302D01*
X35447121Y-35999619D01*
X35419000Y-35984332D01*
X35417854Y-35983089D01*
X35406668Y-35966154D01*
X35387904Y-35933170D01*
X35363875Y-35888380D01*
X35336897Y-35836032D01*
X35327201Y-35816742D01*
X35254014Y-35670150D01*
X35174240Y-35829393D01*
X35145767Y-35884415D01*
X35119350Y-35932132D01*
X35097148Y-35968893D01*
X35081319Y-35991044D01*
X35075954Y-35995741D01*
X35034257Y-36002102D01*
X34999849Y-35988733D01*
X34989728Y-35974446D01*
X34972214Y-35942692D01*
X34948735Y-35896597D01*
X34920720Y-35839285D01*
X34889599Y-35773880D01*
X34856799Y-35703507D01*
X34823750Y-35631291D01*
X34791881Y-35560355D01*
X34762619Y-35493825D01*
X34737395Y-35434826D01*
X34717636Y-35386481D01*
X34704772Y-35351915D01*
X34700231Y-35334253D01*
X34700277Y-35333613D01*
X34711326Y-35311388D01*
X34733410Y-35288753D01*
X34734710Y-35287768D01*
X34761853Y-35272425D01*
X34786958Y-35272574D01*
X34796368Y-35275466D01*
X34807834Y-35281718D01*
X34820010Y-35294014D01*
X34834357Y-35314908D01*
X34852336Y-35346949D01*
X34875407Y-35392688D01*
X34905030Y-35454677D01*
X34931745Y-35511898D01*
X34962480Y-35578226D01*
X34990021Y-35637874D01*
X35012938Y-35687725D01*
X35029798Y-35724664D01*
X35039173Y-35745573D01*
X35040540Y-35748845D01*
X35046689Y-35743497D01*
X35060822Y-35721109D01*
X35081057Y-35684946D01*
X35105515Y-35638277D01*
X35115248Y-35619022D01*
X35148217Y-35554004D01*
X35173643Y-35506654D01*
X35193612Y-35474219D01*
X35210210Y-35453946D01*
X35225524Y-35443082D01*
X35241640Y-35438875D01*
X35252143Y-35438400D01*
X35270670Y-35440042D01*
X35286904Y-35446831D01*
X35303035Y-35461566D01*
X35321251Y-35487044D01*
X35343739Y-35526061D01*
X35372689Y-35581414D01*
X35388662Y-35612903D01*
X35414570Y-35663087D01*
X35437167Y-35704704D01*
X35454458Y-35734242D01*
X35464450Y-35748189D01*
X35465809Y-35748770D01*
X35472261Y-35737793D01*
X35486708Y-35709290D01*
X35507703Y-35666244D01*
X35533797Y-35611638D01*
X35563546Y-35548454D01*
X35578180Y-35517071D01*
X35616250Y-35436078D01*
X35646905Y-35373756D01*
X35671737Y-35328071D01*
X35692337Y-35296989D01*
X35710298Y-35278478D01*
X35727210Y-35270504D01*
X35744665Y-35271034D01*
X35744665Y-35271034D01*
G37*
X35744665Y-35271034D02*
X35764255Y-35278035D01*
X35765010Y-35278377D01*
X35791613Y-35298678D01*
X35806270Y-35319561D01*
X35809138Y-35329352D01*
X35808996Y-35342361D01*
X35804961Y-35360895D01*
X35796146Y-35387257D01*
X35781669Y-35423752D01*
X35760645Y-35472687D01*
X35732188Y-35536365D01*
X35695415Y-35617093D01*
X35675175Y-35661216D01*
X35638625Y-35739985D01*
X35604315Y-35812423D01*
X35573552Y-35875880D01*
X35547648Y-35927708D01*
X35527910Y-35965259D01*
X35515650Y-35985884D01*
X35513224Y-35988733D01*
X35482183Y-36001302D01*
X35447121Y-35999619D01*
X35419000Y-35984332D01*
X35417854Y-35983089D01*
X35406668Y-35966154D01*
X35387904Y-35933170D01*
X35363875Y-35888380D01*
X35336897Y-35836032D01*
X35327201Y-35816742D01*
X35254014Y-35670150D01*
X35174240Y-35829393D01*
X35145767Y-35884415D01*
X35119350Y-35932132D01*
X35097148Y-35968893D01*
X35081319Y-35991044D01*
X35075954Y-35995741D01*
X35034257Y-36002102D01*
X34999849Y-35988733D01*
X34989728Y-35974446D01*
X34972214Y-35942692D01*
X34948735Y-35896597D01*
X34920720Y-35839285D01*
X34889599Y-35773880D01*
X34856799Y-35703507D01*
X34823750Y-35631291D01*
X34791881Y-35560355D01*
X34762619Y-35493825D01*
X34737395Y-35434826D01*
X34717636Y-35386481D01*
X34704772Y-35351915D01*
X34700231Y-35334253D01*
X34700277Y-35333613D01*
X34711326Y-35311388D01*
X34733410Y-35288753D01*
X34734710Y-35287768D01*
X34761853Y-35272425D01*
X34786958Y-35272574D01*
X34796368Y-35275466D01*
X34807834Y-35281718D01*
X34820010Y-35294014D01*
X34834357Y-35314908D01*
X34852336Y-35346949D01*
X34875407Y-35392688D01*
X34905030Y-35454677D01*
X34931745Y-35511898D01*
X34962480Y-35578226D01*
X34990021Y-35637874D01*
X35012938Y-35687725D01*
X35029798Y-35724664D01*
X35039173Y-35745573D01*
X35040540Y-35748845D01*
X35046689Y-35743497D01*
X35060822Y-35721109D01*
X35081057Y-35684946D01*
X35105515Y-35638277D01*
X35115248Y-35619022D01*
X35148217Y-35554004D01*
X35173643Y-35506654D01*
X35193612Y-35474219D01*
X35210210Y-35453946D01*
X35225524Y-35443082D01*
X35241640Y-35438875D01*
X35252143Y-35438400D01*
X35270670Y-35440042D01*
X35286904Y-35446831D01*
X35303035Y-35461566D01*
X35321251Y-35487044D01*
X35343739Y-35526061D01*
X35372689Y-35581414D01*
X35388662Y-35612903D01*
X35414570Y-35663087D01*
X35437167Y-35704704D01*
X35454458Y-35734242D01*
X35464450Y-35748189D01*
X35465809Y-35748770D01*
X35472261Y-35737793D01*
X35486708Y-35709290D01*
X35507703Y-35666244D01*
X35533797Y-35611638D01*
X35563546Y-35548454D01*
X35578180Y-35517071D01*
X35616250Y-35436078D01*
X35646905Y-35373756D01*
X35671737Y-35328071D01*
X35692337Y-35296989D01*
X35710298Y-35278478D01*
X35727210Y-35270504D01*
X35744665Y-35271034D01*
G36*
X36188614Y-35275877D02*
G01*
X36212327Y-35290647D01*
X36238978Y-35312227D01*
X36238978Y-35633773D01*
X36238893Y-35727830D01*
X36238529Y-35801932D01*
X36237724Y-35858704D01*
X36236313Y-35900768D01*
X36234133Y-35930748D01*
X36231021Y-35951267D01*
X36226814Y-35964949D01*
X36221348Y-35974416D01*
X36217472Y-35979082D01*
X36186034Y-35999575D01*
X36150233Y-35998739D01*
X36118873Y-35981264D01*
X36092222Y-35959684D01*
X36092222Y-35312227D01*
X36118873Y-35290647D01*
X36144594Y-35274949D01*
X36165600Y-35269067D01*
X36188614Y-35275877D01*
X36188614Y-35275877D01*
G37*
X36188614Y-35275877D02*
X36212327Y-35290647D01*
X36238978Y-35312227D01*
X36238978Y-35633773D01*
X36238893Y-35727830D01*
X36238529Y-35801932D01*
X36237724Y-35858704D01*
X36236313Y-35900768D01*
X36234133Y-35930748D01*
X36231021Y-35951267D01*
X36226814Y-35964949D01*
X36221348Y-35974416D01*
X36217472Y-35979082D01*
X36186034Y-35999575D01*
X36150233Y-35998739D01*
X36118873Y-35981264D01*
X36092222Y-35959684D01*
X36092222Y-35312227D01*
X36118873Y-35290647D01*
X36144594Y-35274949D01*
X36165600Y-35269067D01*
X36188614Y-35275877D01*
G36*
X29076178Y-35291645D02*
G01*
X29082758Y-35299218D01*
X29087921Y-35308987D01*
X29091836Y-35323571D01*
X29094676Y-35345585D01*
X29096613Y-35377648D01*
X29097817Y-35422375D01*
X29098461Y-35482385D01*
X29098716Y-35560294D01*
X29098755Y-35635956D01*
X29098686Y-35729802D01*
X29098362Y-35803689D01*
X29097614Y-35860232D01*
X29096268Y-35902049D01*
X29094154Y-35931757D01*
X29091100Y-35951973D01*
X29086934Y-35965314D01*
X29081484Y-35974398D01*
X29076178Y-35980267D01*
X29043174Y-35999947D01*
X29008009Y-35998181D01*
X28976545Y-35976717D01*
X28969316Y-35968337D01*
X28963666Y-35958614D01*
X28959401Y-35944861D01*
X28956327Y-35924389D01*
X28954248Y-35894512D01*
X28952970Y-35852541D01*
X28952299Y-35795789D01*
X28952041Y-35721567D01*
X28952000Y-35637537D01*
X28952000Y-35324485D01*
X28979709Y-35296776D01*
X29013863Y-35273463D01*
X29046994Y-35272623D01*
X29076178Y-35291645D01*
X29076178Y-35291645D01*
G37*
X29076178Y-35291645D02*
X29082758Y-35299218D01*
X29087921Y-35308987D01*
X29091836Y-35323571D01*
X29094676Y-35345585D01*
X29096613Y-35377648D01*
X29097817Y-35422375D01*
X29098461Y-35482385D01*
X29098716Y-35560294D01*
X29098755Y-35635956D01*
X29098686Y-35729802D01*
X29098362Y-35803689D01*
X29097614Y-35860232D01*
X29096268Y-35902049D01*
X29094154Y-35931757D01*
X29091100Y-35951973D01*
X29086934Y-35965314D01*
X29081484Y-35974398D01*
X29076178Y-35980267D01*
X29043174Y-35999947D01*
X29008009Y-35998181D01*
X28976545Y-35976717D01*
X28969316Y-35968337D01*
X28963666Y-35958614D01*
X28959401Y-35944861D01*
X28956327Y-35924389D01*
X28954248Y-35894512D01*
X28952970Y-35852541D01*
X28952299Y-35795789D01*
X28952041Y-35721567D01*
X28952000Y-35637537D01*
X28952000Y-35324485D01*
X28979709Y-35296776D01*
X29013863Y-35273463D01*
X29046994Y-35272623D01*
X29076178Y-35291645D01*
G36*
X28308297Y-35270351D02*
G01*
X28383112Y-35275581D01*
X28452694Y-35283750D01*
X28512998Y-35294550D01*
X28559980Y-35307673D01*
X28589594Y-35322813D01*
X28594140Y-35327269D01*
X28609946Y-35361850D01*
X28605153Y-35397351D01*
X28580636Y-35427725D01*
X28579466Y-35428596D01*
X28565046Y-35437954D01*
X28549992Y-35442876D01*
X28528995Y-35443473D01*
X28496743Y-35439861D01*
X28447927Y-35432154D01*
X28444000Y-35431505D01*
X28371261Y-35422569D01*
X28292783Y-35418161D01*
X28214073Y-35418119D01*
X28140639Y-35422279D01*
X28077989Y-35430479D01*
X28031630Y-35442557D01*
X28028584Y-35443771D01*
X27994952Y-35462615D01*
X27983136Y-35481685D01*
X27992386Y-35500439D01*
X28021953Y-35518337D01*
X28071089Y-35534837D01*
X28139043Y-35549396D01*
X28184355Y-35556406D01*
X28278544Y-35569889D01*
X28353456Y-35582214D01*
X28412283Y-35594449D01*
X28458215Y-35607661D01*
X28494445Y-35622917D01*
X28524162Y-35641285D01*
X28550558Y-35663831D01*
X28571770Y-35685971D01*
X28596935Y-35716819D01*
X28609319Y-35743345D01*
X28613192Y-35776026D01*
X28613333Y-35787995D01*
X28610424Y-35827712D01*
X28598798Y-35857259D01*
X28578677Y-35883486D01*
X28537784Y-35923576D01*
X28492183Y-35954149D01*
X28438487Y-35976203D01*
X28373308Y-35990735D01*
X28293256Y-35998741D01*
X28194943Y-36001218D01*
X28178711Y-36001177D01*
X28113151Y-35999818D01*
X28048134Y-35996730D01*
X27990748Y-35992356D01*
X27948078Y-35987140D01*
X27944628Y-35986541D01*
X27902204Y-35976491D01*
X27866220Y-35963796D01*
X27845850Y-35952190D01*
X27826893Y-35921572D01*
X27825573Y-35885918D01*
X27841915Y-35854144D01*
X27845571Y-35850551D01*
X27860685Y-35839876D01*
X27879585Y-35835276D01*
X27908838Y-35836059D01*
X27944349Y-35840127D01*
X27984030Y-35843762D01*
X28039655Y-35846828D01*
X28104594Y-35849053D01*
X28172215Y-35850164D01*
X28190000Y-35850237D01*
X28257872Y-35849964D01*
X28307546Y-35848646D01*
X28343390Y-35845827D01*
X28369776Y-35841050D01*
X28391074Y-35833857D01*
X28403874Y-35827867D01*
X28432000Y-35811233D01*
X28449932Y-35796168D01*
X28452553Y-35791897D01*
X28447024Y-35774263D01*
X28420740Y-35757192D01*
X28375522Y-35741458D01*
X28313192Y-35727838D01*
X28294829Y-35724804D01*
X28198910Y-35709738D01*
X28122359Y-35697146D01*
X28062220Y-35686111D01*
X28015540Y-35675720D01*
X27979363Y-35665056D01*
X27950735Y-35653205D01*
X27926702Y-35639251D01*
X27904308Y-35622281D01*
X27880598Y-35601378D01*
X27872620Y-35594049D01*
X27844647Y-35566699D01*
X27829840Y-35545029D01*
X27824048Y-35520232D01*
X27823111Y-35488983D01*
X27833425Y-35427705D01*
X27864248Y-35375640D01*
X27915405Y-35332958D01*
X27986717Y-35299825D01*
X28037600Y-35284964D01*
X28092900Y-35275366D01*
X28159147Y-35269936D01*
X28232294Y-35268367D01*
X28308297Y-35270351D01*
X28308297Y-35270351D01*
G37*
X28308297Y-35270351D02*
X28383112Y-35275581D01*
X28452694Y-35283750D01*
X28512998Y-35294550D01*
X28559980Y-35307673D01*
X28589594Y-35322813D01*
X28594140Y-35327269D01*
X28609946Y-35361850D01*
X28605153Y-35397351D01*
X28580636Y-35427725D01*
X28579466Y-35428596D01*
X28565046Y-35437954D01*
X28549992Y-35442876D01*
X28528995Y-35443473D01*
X28496743Y-35439861D01*
X28447927Y-35432154D01*
X28444000Y-35431505D01*
X28371261Y-35422569D01*
X28292783Y-35418161D01*
X28214073Y-35418119D01*
X28140639Y-35422279D01*
X28077989Y-35430479D01*
X28031630Y-35442557D01*
X28028584Y-35443771D01*
X27994952Y-35462615D01*
X27983136Y-35481685D01*
X27992386Y-35500439D01*
X28021953Y-35518337D01*
X28071089Y-35534837D01*
X28139043Y-35549396D01*
X28184355Y-35556406D01*
X28278544Y-35569889D01*
X28353456Y-35582214D01*
X28412283Y-35594449D01*
X28458215Y-35607661D01*
X28494445Y-35622917D01*
X28524162Y-35641285D01*
X28550558Y-35663831D01*
X28571770Y-35685971D01*
X28596935Y-35716819D01*
X28609319Y-35743345D01*
X28613192Y-35776026D01*
X28613333Y-35787995D01*
X28610424Y-35827712D01*
X28598798Y-35857259D01*
X28578677Y-35883486D01*
X28537784Y-35923576D01*
X28492183Y-35954149D01*
X28438487Y-35976203D01*
X28373308Y-35990735D01*
X28293256Y-35998741D01*
X28194943Y-36001218D01*
X28178711Y-36001177D01*
X28113151Y-35999818D01*
X28048134Y-35996730D01*
X27990748Y-35992356D01*
X27948078Y-35987140D01*
X27944628Y-35986541D01*
X27902204Y-35976491D01*
X27866220Y-35963796D01*
X27845850Y-35952190D01*
X27826893Y-35921572D01*
X27825573Y-35885918D01*
X27841915Y-35854144D01*
X27845571Y-35850551D01*
X27860685Y-35839876D01*
X27879585Y-35835276D01*
X27908838Y-35836059D01*
X27944349Y-35840127D01*
X27984030Y-35843762D01*
X28039655Y-35846828D01*
X28104594Y-35849053D01*
X28172215Y-35850164D01*
X28190000Y-35850237D01*
X28257872Y-35849964D01*
X28307546Y-35848646D01*
X28343390Y-35845827D01*
X28369776Y-35841050D01*
X28391074Y-35833857D01*
X28403874Y-35827867D01*
X28432000Y-35811233D01*
X28449932Y-35796168D01*
X28452553Y-35791897D01*
X28447024Y-35774263D01*
X28420740Y-35757192D01*
X28375522Y-35741458D01*
X28313192Y-35727838D01*
X28294829Y-35724804D01*
X28198910Y-35709738D01*
X28122359Y-35697146D01*
X28062220Y-35686111D01*
X28015540Y-35675720D01*
X27979363Y-35665056D01*
X27950735Y-35653205D01*
X27926702Y-35639251D01*
X27904308Y-35622281D01*
X27880598Y-35601378D01*
X27872620Y-35594049D01*
X27844647Y-35566699D01*
X27829840Y-35545029D01*
X27824048Y-35520232D01*
X27823111Y-35488983D01*
X27833425Y-35427705D01*
X27864248Y-35375640D01*
X27915405Y-35332958D01*
X27986717Y-35299825D01*
X28037600Y-35284964D01*
X28092900Y-35275366D01*
X28159147Y-35269936D01*
X28232294Y-35268367D01*
X28308297Y-35270351D01*
G36*
X27287206Y-35269146D02*
G01*
X27356614Y-35269518D01*
X27409003Y-35270385D01*
X27447153Y-35271946D01*
X27473841Y-35274403D01*
X27491847Y-35277957D01*
X27503951Y-35282810D01*
X27512931Y-35289161D01*
X27516182Y-35292084D01*
X27535957Y-35323142D01*
X27539518Y-35358828D01*
X27526509Y-35390510D01*
X27520494Y-35396913D01*
X27510765Y-35403121D01*
X27495099Y-35407910D01*
X27470592Y-35411514D01*
X27434339Y-35414164D01*
X27383435Y-35416095D01*
X27314974Y-35417539D01*
X27252383Y-35418418D01*
X27004666Y-35421467D01*
X27001281Y-35486378D01*
X26997895Y-35551289D01*
X27166042Y-35551289D01*
X27239041Y-35551919D01*
X27292483Y-35554553D01*
X27329372Y-35560309D01*
X27352712Y-35570304D01*
X27365506Y-35585656D01*
X27370758Y-35607482D01*
X27371555Y-35627738D01*
X27369077Y-35652592D01*
X27359723Y-35670906D01*
X27340617Y-35683637D01*
X27308882Y-35691741D01*
X27261641Y-35696176D01*
X27196017Y-35697899D01*
X27160199Y-35698045D01*
X26999022Y-35698045D01*
X26999022Y-35856089D01*
X27247378Y-35856089D01*
X27328787Y-35856202D01*
X27390658Y-35856712D01*
X27436032Y-35857870D01*
X27467946Y-35859930D01*
X27489441Y-35863146D01*
X27503557Y-35867772D01*
X27513332Y-35874059D01*
X27518311Y-35878667D01*
X27535390Y-35905560D01*
X27540889Y-35929467D01*
X27533037Y-35958667D01*
X27518311Y-35980267D01*
X27510454Y-35987066D01*
X27500312Y-35992346D01*
X27485156Y-35996298D01*
X27462259Y-35999113D01*
X27428891Y-36000982D01*
X27382325Y-36002098D01*
X27319833Y-36002651D01*
X27238686Y-36002833D01*
X27196578Y-36002845D01*
X27106402Y-36002765D01*
X27036076Y-36002398D01*
X26982871Y-36001552D01*
X26944060Y-36000036D01*
X26916913Y-35997659D01*
X26898702Y-35994229D01*
X26886700Y-35989554D01*
X26878178Y-35983444D01*
X26874844Y-35980267D01*
X26868245Y-35972670D01*
X26863073Y-35962870D01*
X26859154Y-35948239D01*
X26856316Y-35926152D01*
X26854385Y-35893982D01*
X26853188Y-35849103D01*
X26852552Y-35788889D01*
X26852303Y-35710713D01*
X26852266Y-35637923D01*
X26852300Y-35544707D01*
X26852535Y-35471431D01*
X26853170Y-35415458D01*
X26854406Y-35374151D01*
X26856444Y-35344872D01*
X26859483Y-35324984D01*
X26863723Y-35311850D01*
X26869365Y-35302832D01*
X26876609Y-35295293D01*
X26878394Y-35293612D01*
X26887055Y-35286172D01*
X26897118Y-35280409D01*
X26911375Y-35276112D01*
X26932617Y-35273064D01*
X26963636Y-35271051D01*
X27007223Y-35269860D01*
X27066169Y-35269275D01*
X27143266Y-35269083D01*
X27197999Y-35269067D01*
X27287206Y-35269146D01*
X27287206Y-35269146D01*
G37*
X27287206Y-35269146D02*
X27356614Y-35269518D01*
X27409003Y-35270385D01*
X27447153Y-35271946D01*
X27473841Y-35274403D01*
X27491847Y-35277957D01*
X27503951Y-35282810D01*
X27512931Y-35289161D01*
X27516182Y-35292084D01*
X27535957Y-35323142D01*
X27539518Y-35358828D01*
X27526509Y-35390510D01*
X27520494Y-35396913D01*
X27510765Y-35403121D01*
X27495099Y-35407910D01*
X27470592Y-35411514D01*
X27434339Y-35414164D01*
X27383435Y-35416095D01*
X27314974Y-35417539D01*
X27252383Y-35418418D01*
X27004666Y-35421467D01*
X27001281Y-35486378D01*
X26997895Y-35551289D01*
X27166042Y-35551289D01*
X27239041Y-35551919D01*
X27292483Y-35554553D01*
X27329372Y-35560309D01*
X27352712Y-35570304D01*
X27365506Y-35585656D01*
X27370758Y-35607482D01*
X27371555Y-35627738D01*
X27369077Y-35652592D01*
X27359723Y-35670906D01*
X27340617Y-35683637D01*
X27308882Y-35691741D01*
X27261641Y-35696176D01*
X27196017Y-35697899D01*
X27160199Y-35698045D01*
X26999022Y-35698045D01*
X26999022Y-35856089D01*
X27247378Y-35856089D01*
X27328787Y-35856202D01*
X27390658Y-35856712D01*
X27436032Y-35857870D01*
X27467946Y-35859930D01*
X27489441Y-35863146D01*
X27503557Y-35867772D01*
X27513332Y-35874059D01*
X27518311Y-35878667D01*
X27535390Y-35905560D01*
X27540889Y-35929467D01*
X27533037Y-35958667D01*
X27518311Y-35980267D01*
X27510454Y-35987066D01*
X27500312Y-35992346D01*
X27485156Y-35996298D01*
X27462259Y-35999113D01*
X27428891Y-36000982D01*
X27382325Y-36002098D01*
X27319833Y-36002651D01*
X27238686Y-36002833D01*
X27196578Y-36002845D01*
X27106402Y-36002765D01*
X27036076Y-36002398D01*
X26982871Y-36001552D01*
X26944060Y-36000036D01*
X26916913Y-35997659D01*
X26898702Y-35994229D01*
X26886700Y-35989554D01*
X26878178Y-35983444D01*
X26874844Y-35980267D01*
X26868245Y-35972670D01*
X26863073Y-35962870D01*
X26859154Y-35948239D01*
X26856316Y-35926152D01*
X26854385Y-35893982D01*
X26853188Y-35849103D01*
X26852552Y-35788889D01*
X26852303Y-35710713D01*
X26852266Y-35637923D01*
X26852300Y-35544707D01*
X26852535Y-35471431D01*
X26853170Y-35415458D01*
X26854406Y-35374151D01*
X26856444Y-35344872D01*
X26859483Y-35324984D01*
X26863723Y-35311850D01*
X26869365Y-35302832D01*
X26876609Y-35295293D01*
X26878394Y-35293612D01*
X26887055Y-35286172D01*
X26897118Y-35280409D01*
X26911375Y-35276112D01*
X26932617Y-35273064D01*
X26963636Y-35271051D01*
X27007223Y-35269860D01*
X27066169Y-35269275D01*
X27143266Y-35269083D01*
X27197999Y-35269067D01*
X27287206Y-35269146D01*
G36*
X25878629Y-35269066D02*
G01*
X25918111Y-35269467D01*
X26033800Y-35272259D01*
X26130689Y-35280550D01*
X26212081Y-35295232D01*
X26281277Y-35317193D01*
X26341580Y-35347322D01*
X26396292Y-35386510D01*
X26415833Y-35403532D01*
X26448250Y-35443363D01*
X26477480Y-35497413D01*
X26500009Y-35557323D01*
X26512321Y-35614739D01*
X26513600Y-35635956D01*
X26505583Y-35694769D01*
X26484101Y-35759013D01*
X26453001Y-35819821D01*
X26416134Y-35868330D01*
X26410146Y-35874182D01*
X26359421Y-35915321D01*
X26303875Y-35947435D01*
X26240304Y-35971365D01*
X26165506Y-35987953D01*
X26076278Y-35998041D01*
X25969418Y-36002469D01*
X25920472Y-36002845D01*
X25858238Y-36002545D01*
X25814472Y-36001292D01*
X25785069Y-35998554D01*
X25765921Y-35993801D01*
X25752923Y-35986501D01*
X25745955Y-35980267D01*
X25739374Y-35972694D01*
X25734212Y-35962924D01*
X25730297Y-35948340D01*
X25727457Y-35926326D01*
X25725520Y-35894264D01*
X25724316Y-35849536D01*
X25723672Y-35789526D01*
X25723417Y-35711617D01*
X25723378Y-35635956D01*
X25723130Y-35535041D01*
X25723183Y-35454427D01*
X25724143Y-35415822D01*
X25870133Y-35415822D01*
X25870133Y-35856089D01*
X25963266Y-35856004D01*
X26019307Y-35854396D01*
X26078001Y-35850256D01*
X26126972Y-35844464D01*
X26128462Y-35844226D01*
X26207608Y-35825090D01*
X26268998Y-35795287D01*
X26315695Y-35752878D01*
X26345365Y-35706961D01*
X26363647Y-35656026D01*
X26362229Y-35608200D01*
X26341012Y-35556933D01*
X26299511Y-35503899D01*
X26242002Y-35464600D01*
X26167250Y-35438331D01*
X26117292Y-35429035D01*
X26060584Y-35422507D01*
X26000481Y-35417782D01*
X25949361Y-35415817D01*
X25946333Y-35415808D01*
X25870133Y-35415822D01*
X25724143Y-35415822D01*
X25724740Y-35391851D01*
X25729002Y-35345055D01*
X25737170Y-35311778D01*
X25750444Y-35289759D01*
X25770026Y-35276739D01*
X25797117Y-35270457D01*
X25832918Y-35268653D01*
X25878629Y-35269066D01*
X25878629Y-35269066D01*
G37*
X25878629Y-35269066D02*
X25918111Y-35269467D01*
X26033800Y-35272259D01*
X26130689Y-35280550D01*
X26212081Y-35295232D01*
X26281277Y-35317193D01*
X26341580Y-35347322D01*
X26396292Y-35386510D01*
X26415833Y-35403532D01*
X26448250Y-35443363D01*
X26477480Y-35497413D01*
X26500009Y-35557323D01*
X26512321Y-35614739D01*
X26513600Y-35635956D01*
X26505583Y-35694769D01*
X26484101Y-35759013D01*
X26453001Y-35819821D01*
X26416134Y-35868330D01*
X26410146Y-35874182D01*
X26359421Y-35915321D01*
X26303875Y-35947435D01*
X26240304Y-35971365D01*
X26165506Y-35987953D01*
X26076278Y-35998041D01*
X25969418Y-36002469D01*
X25920472Y-36002845D01*
X25858238Y-36002545D01*
X25814472Y-36001292D01*
X25785069Y-35998554D01*
X25765921Y-35993801D01*
X25752923Y-35986501D01*
X25745955Y-35980267D01*
X25739374Y-35972694D01*
X25734212Y-35962924D01*
X25730297Y-35948340D01*
X25727457Y-35926326D01*
X25725520Y-35894264D01*
X25724316Y-35849536D01*
X25723672Y-35789526D01*
X25723417Y-35711617D01*
X25723378Y-35635956D01*
X25723130Y-35535041D01*
X25723183Y-35454427D01*
X25724143Y-35415822D01*
X25870133Y-35415822D01*
X25870133Y-35856089D01*
X25963266Y-35856004D01*
X26019307Y-35854396D01*
X26078001Y-35850256D01*
X26126972Y-35844464D01*
X26128462Y-35844226D01*
X26207608Y-35825090D01*
X26268998Y-35795287D01*
X26315695Y-35752878D01*
X26345365Y-35706961D01*
X26363647Y-35656026D01*
X26362229Y-35608200D01*
X26341012Y-35556933D01*
X26299511Y-35503899D01*
X26242002Y-35464600D01*
X26167250Y-35438331D01*
X26117292Y-35429035D01*
X26060584Y-35422507D01*
X26000481Y-35417782D01*
X25949361Y-35415817D01*
X25946333Y-35415808D01*
X25870133Y-35415822D01*
X25724143Y-35415822D01*
X25724740Y-35391851D01*
X25729002Y-35345055D01*
X25737170Y-35311778D01*
X25750444Y-35289759D01*
X25770026Y-35276739D01*
X25797117Y-35270457D01*
X25832918Y-35268653D01*
X25878629Y-35269066D01*
G36*
X29726957Y-30026571D02*
G01*
X29823232Y-30050809D01*
X29909816Y-30093641D01*
X29984627Y-30153419D01*
X30045582Y-30228494D01*
X30090601Y-30317220D01*
X30116864Y-30413530D01*
X30122714Y-30510795D01*
X30107860Y-30604654D01*
X30074160Y-30692511D01*
X30023472Y-30771770D01*
X29957655Y-30839836D01*
X29878566Y-30894112D01*
X29788066Y-30932002D01*
X29736800Y-30944426D01*
X29692302Y-30951947D01*
X29658001Y-30954919D01*
X29625040Y-30953094D01*
X29584566Y-30946225D01*
X29551469Y-30939250D01*
X29458053Y-30907741D01*
X29374381Y-30856617D01*
X29302335Y-30787429D01*
X29243800Y-30701728D01*
X29229852Y-30674489D01*
X29213414Y-30638122D01*
X29203106Y-30607582D01*
X29197540Y-30575450D01*
X29195331Y-30534307D01*
X29195052Y-30488222D01*
X29199139Y-30403865D01*
X29212554Y-30334586D01*
X29237744Y-30273961D01*
X29277154Y-30215567D01*
X29315702Y-30171302D01*
X29387594Y-30105484D01*
X29462687Y-30060053D01*
X29545438Y-30032850D01*
X29623072Y-30022576D01*
X29726957Y-30026571D01*
X29726957Y-30026571D01*
G37*
X29726957Y-30026571D02*
X29823232Y-30050809D01*
X29909816Y-30093641D01*
X29984627Y-30153419D01*
X30045582Y-30228494D01*
X30090601Y-30317220D01*
X30116864Y-30413530D01*
X30122714Y-30510795D01*
X30107860Y-30604654D01*
X30074160Y-30692511D01*
X30023472Y-30771770D01*
X29957655Y-30839836D01*
X29878566Y-30894112D01*
X29788066Y-30932002D01*
X29736800Y-30944426D01*
X29692302Y-30951947D01*
X29658001Y-30954919D01*
X29625040Y-30953094D01*
X29584566Y-30946225D01*
X29551469Y-30939250D01*
X29458053Y-30907741D01*
X29374381Y-30856617D01*
X29302335Y-30787429D01*
X29243800Y-30701728D01*
X29229852Y-30674489D01*
X29213414Y-30638122D01*
X29203106Y-30607582D01*
X29197540Y-30575450D01*
X29195331Y-30534307D01*
X29195052Y-30488222D01*
X29199139Y-30403865D01*
X29212554Y-30334586D01*
X29237744Y-30273961D01*
X29277154Y-30215567D01*
X29315702Y-30171302D01*
X29387594Y-30105484D01*
X29462687Y-30060053D01*
X29545438Y-30032850D01*
X29623072Y-30022576D01*
X29726957Y-30026571D01*
G36*
X38186507Y-32472245D02*
G01*
X38186526Y-32706662D01*
X38186552Y-32919603D01*
X38186625Y-33112168D01*
X38186782Y-33285459D01*
X38187064Y-33440576D01*
X38187509Y-33578620D01*
X38188156Y-33700692D01*
X38189045Y-33807894D01*
X38190213Y-33901326D01*
X38191701Y-33982090D01*
X38193546Y-34051286D01*
X38195789Y-34110015D01*
X38198469Y-34159379D01*
X38201623Y-34200478D01*
X38205292Y-34234413D01*
X38209513Y-34262286D01*
X38214327Y-34285198D01*
X38219773Y-34304249D01*
X38225888Y-34320540D01*
X38232712Y-34335173D01*
X38240285Y-34349249D01*
X38248645Y-34363868D01*
X38253839Y-34372974D01*
X38288104Y-34433689D01*
X37429955Y-34433689D01*
X37429955Y-34337733D01*
X37429224Y-34294370D01*
X37427272Y-34261205D01*
X37424463Y-34243424D01*
X37423221Y-34241778D01*
X37411799Y-34248662D01*
X37389084Y-34266505D01*
X37366385Y-34285879D01*
X37311800Y-34326614D01*
X37242321Y-34367617D01*
X37165270Y-34405123D01*
X37087965Y-34435364D01*
X37057113Y-34445012D01*
X36988616Y-34459578D01*
X36905764Y-34469539D01*
X36816371Y-34474583D01*
X36728248Y-34474396D01*
X36649207Y-34468666D01*
X36611511Y-34462858D01*
X36473414Y-34424797D01*
X36346113Y-34367073D01*
X36230292Y-34290211D01*
X36126637Y-34194739D01*
X36035833Y-34081179D01*
X35969031Y-33970381D01*
X35914164Y-33853625D01*
X35872163Y-33734276D01*
X35842167Y-33608283D01*
X35823311Y-33471594D01*
X35814732Y-33320158D01*
X35814006Y-33242711D01*
X35816100Y-33185934D01*
X36645217Y-33185934D01*
X36645424Y-33279002D01*
X36648337Y-33366692D01*
X36654000Y-33443772D01*
X36662455Y-33505009D01*
X36665038Y-33517350D01*
X36696840Y-33624633D01*
X36738498Y-33711658D01*
X36790363Y-33778642D01*
X36852781Y-33825805D01*
X36926100Y-33853365D01*
X37010669Y-33861541D01*
X37106835Y-33850551D01*
X37170311Y-33834829D01*
X37219454Y-33816639D01*
X37273583Y-33790791D01*
X37314244Y-33767089D01*
X37384800Y-33720721D01*
X37384800Y-32570530D01*
X37317392Y-32526962D01*
X37238867Y-32486040D01*
X37154681Y-32459389D01*
X37069557Y-32447465D01*
X36988216Y-32450722D01*
X36915380Y-32469615D01*
X36883426Y-32485184D01*
X36825501Y-32528181D01*
X36776544Y-32584953D01*
X36735390Y-32657575D01*
X36700874Y-32748121D01*
X36671833Y-32858666D01*
X36670552Y-32864533D01*
X36660381Y-32926788D01*
X36652739Y-33004594D01*
X36647670Y-33092720D01*
X36645217Y-33185934D01*
X35816100Y-33185934D01*
X35821857Y-33029895D01*
X35843802Y-32834059D01*
X35879786Y-32655332D01*
X35929759Y-32493845D01*
X35993668Y-32349726D01*
X36071462Y-32223106D01*
X36163089Y-32114115D01*
X36268497Y-32022883D01*
X36313662Y-31991932D01*
X36414611Y-31935785D01*
X36517901Y-31896174D01*
X36627989Y-31872014D01*
X36749330Y-31862219D01*
X36841836Y-31863265D01*
X36971490Y-31874231D01*
X37084084Y-31896046D01*
X37182875Y-31929714D01*
X37271121Y-31976236D01*
X37319986Y-32010448D01*
X37349353Y-32032362D01*
X37371043Y-32047333D01*
X37379253Y-32051733D01*
X37380868Y-32040904D01*
X37382159Y-32010251D01*
X37383138Y-31962526D01*
X37383817Y-31900479D01*
X37384210Y-31826862D01*
X37384330Y-31744427D01*
X37384188Y-31655925D01*
X37383797Y-31564107D01*
X37383171Y-31471724D01*
X37382320Y-31381528D01*
X37381260Y-31296271D01*
X37380001Y-31218703D01*
X37378556Y-31151576D01*
X37376938Y-31097641D01*
X37375161Y-31059650D01*
X37374669Y-31052667D01*
X37367092Y-30982251D01*
X37355531Y-30927102D01*
X37337792Y-30879981D01*
X37311682Y-30833647D01*
X37305415Y-30824067D01*
X37280983Y-30787378D01*
X38186311Y-30787378D01*
X38186507Y-32472245D01*
X38186507Y-32472245D01*
G37*
X38186507Y-32472245D02*
X38186526Y-32706662D01*
X38186552Y-32919603D01*
X38186625Y-33112168D01*
X38186782Y-33285459D01*
X38187064Y-33440576D01*
X38187509Y-33578620D01*
X38188156Y-33700692D01*
X38189045Y-33807894D01*
X38190213Y-33901326D01*
X38191701Y-33982090D01*
X38193546Y-34051286D01*
X38195789Y-34110015D01*
X38198469Y-34159379D01*
X38201623Y-34200478D01*
X38205292Y-34234413D01*
X38209513Y-34262286D01*
X38214327Y-34285198D01*
X38219773Y-34304249D01*
X38225888Y-34320540D01*
X38232712Y-34335173D01*
X38240285Y-34349249D01*
X38248645Y-34363868D01*
X38253839Y-34372974D01*
X38288104Y-34433689D01*
X37429955Y-34433689D01*
X37429955Y-34337733D01*
X37429224Y-34294370D01*
X37427272Y-34261205D01*
X37424463Y-34243424D01*
X37423221Y-34241778D01*
X37411799Y-34248662D01*
X37389084Y-34266505D01*
X37366385Y-34285879D01*
X37311800Y-34326614D01*
X37242321Y-34367617D01*
X37165270Y-34405123D01*
X37087965Y-34435364D01*
X37057113Y-34445012D01*
X36988616Y-34459578D01*
X36905764Y-34469539D01*
X36816371Y-34474583D01*
X36728248Y-34474396D01*
X36649207Y-34468666D01*
X36611511Y-34462858D01*
X36473414Y-34424797D01*
X36346113Y-34367073D01*
X36230292Y-34290211D01*
X36126637Y-34194739D01*
X36035833Y-34081179D01*
X35969031Y-33970381D01*
X35914164Y-33853625D01*
X35872163Y-33734276D01*
X35842167Y-33608283D01*
X35823311Y-33471594D01*
X35814732Y-33320158D01*
X35814006Y-33242711D01*
X35816100Y-33185934D01*
X36645217Y-33185934D01*
X36645424Y-33279002D01*
X36648337Y-33366692D01*
X36654000Y-33443772D01*
X36662455Y-33505009D01*
X36665038Y-33517350D01*
X36696840Y-33624633D01*
X36738498Y-33711658D01*
X36790363Y-33778642D01*
X36852781Y-33825805D01*
X36926100Y-33853365D01*
X37010669Y-33861541D01*
X37106835Y-33850551D01*
X37170311Y-33834829D01*
X37219454Y-33816639D01*
X37273583Y-33790791D01*
X37314244Y-33767089D01*
X37384800Y-33720721D01*
X37384800Y-32570530D01*
X37317392Y-32526962D01*
X37238867Y-32486040D01*
X37154681Y-32459389D01*
X37069557Y-32447465D01*
X36988216Y-32450722D01*
X36915380Y-32469615D01*
X36883426Y-32485184D01*
X36825501Y-32528181D01*
X36776544Y-32584953D01*
X36735390Y-32657575D01*
X36700874Y-32748121D01*
X36671833Y-32858666D01*
X36670552Y-32864533D01*
X36660381Y-32926788D01*
X36652739Y-33004594D01*
X36647670Y-33092720D01*
X36645217Y-33185934D01*
X35816100Y-33185934D01*
X35821857Y-33029895D01*
X35843802Y-32834059D01*
X35879786Y-32655332D01*
X35929759Y-32493845D01*
X35993668Y-32349726D01*
X36071462Y-32223106D01*
X36163089Y-32114115D01*
X36268497Y-32022883D01*
X36313662Y-31991932D01*
X36414611Y-31935785D01*
X36517901Y-31896174D01*
X36627989Y-31872014D01*
X36749330Y-31862219D01*
X36841836Y-31863265D01*
X36971490Y-31874231D01*
X37084084Y-31896046D01*
X37182875Y-31929714D01*
X37271121Y-31976236D01*
X37319986Y-32010448D01*
X37349353Y-32032362D01*
X37371043Y-32047333D01*
X37379253Y-32051733D01*
X37380868Y-32040904D01*
X37382159Y-32010251D01*
X37383138Y-31962526D01*
X37383817Y-31900479D01*
X37384210Y-31826862D01*
X37384330Y-31744427D01*
X37384188Y-31655925D01*
X37383797Y-31564107D01*
X37383171Y-31471724D01*
X37382320Y-31381528D01*
X37381260Y-31296271D01*
X37380001Y-31218703D01*
X37378556Y-31151576D01*
X37376938Y-31097641D01*
X37375161Y-31059650D01*
X37374669Y-31052667D01*
X37367092Y-30982251D01*
X37355531Y-30927102D01*
X37337792Y-30879981D01*
X37311682Y-30833647D01*
X37305415Y-30824067D01*
X37280983Y-30787378D01*
X38186311Y-30787378D01*
X38186507Y-32472245D01*
G36*
X34673574Y-31866552D02*
G01*
X34825492Y-31886567D01*
X34960756Y-31920202D01*
X35080239Y-31967725D01*
X35184815Y-32029405D01*
X35262424Y-32092965D01*
X35331265Y-32167099D01*
X35385006Y-32246871D01*
X35427910Y-32339091D01*
X35443384Y-32382161D01*
X35456244Y-32421142D01*
X35467446Y-32457289D01*
X35477120Y-32492434D01*
X35485396Y-32528410D01*
X35492403Y-32567050D01*
X35498272Y-32610185D01*
X35503131Y-32659649D01*
X35507110Y-32717273D01*
X35510340Y-32784891D01*
X35512949Y-32864334D01*
X35515067Y-32957436D01*
X35516824Y-33066027D01*
X35518349Y-33191942D01*
X35519772Y-33337012D01*
X35521025Y-33479778D01*
X35522351Y-33635968D01*
X35523556Y-33771239D01*
X35524766Y-33887246D01*
X35526106Y-33985645D01*
X35527700Y-34068093D01*
X35529675Y-34136246D01*
X35532156Y-34191760D01*
X35535269Y-34236292D01*
X35539138Y-34271498D01*
X35543889Y-34299034D01*
X35549648Y-34320556D01*
X35556539Y-34337722D01*
X35564689Y-34352186D01*
X35574223Y-34365606D01*
X35585266Y-34379638D01*
X35589566Y-34385071D01*
X35605386Y-34407910D01*
X35612422Y-34423463D01*
X35612444Y-34423922D01*
X35601567Y-34426121D01*
X35570582Y-34428147D01*
X35521957Y-34429942D01*
X35458163Y-34431451D01*
X35381669Y-34432616D01*
X35294944Y-34433380D01*
X35200457Y-34433686D01*
X35189550Y-34433689D01*
X34766657Y-34433689D01*
X34763395Y-34337622D01*
X34760133Y-34241556D01*
X34698044Y-34292543D01*
X34600714Y-34360057D01*
X34490813Y-34414749D01*
X34404349Y-34444978D01*
X34335278Y-34459666D01*
X34251925Y-34469659D01*
X34162159Y-34474646D01*
X34073845Y-34474313D01*
X33994851Y-34468351D01*
X33958622Y-34462638D01*
X33818603Y-34424776D01*
X33692178Y-34369932D01*
X33580260Y-34298924D01*
X33483762Y-34212568D01*
X33403600Y-34111679D01*
X33340687Y-33997076D01*
X33296312Y-33870984D01*
X33283978Y-33814401D01*
X33276368Y-33752202D01*
X33272739Y-33677363D01*
X33272245Y-33643467D01*
X33272310Y-33640282D01*
X34032248Y-33640282D01*
X34041541Y-33715333D01*
X34069728Y-33779160D01*
X34118197Y-33834798D01*
X34123254Y-33839211D01*
X34171548Y-33874037D01*
X34223257Y-33896620D01*
X34283989Y-33908540D01*
X34359352Y-33911383D01*
X34377459Y-33910978D01*
X34431278Y-33908325D01*
X34471308Y-33902909D01*
X34506324Y-33892745D01*
X34545103Y-33875850D01*
X34555745Y-33870672D01*
X34616396Y-33834844D01*
X34663215Y-33792212D01*
X34675952Y-33776973D01*
X34720622Y-33720462D01*
X34720622Y-33524586D01*
X34720086Y-33445939D01*
X34718396Y-33387988D01*
X34715428Y-33348875D01*
X34711057Y-33326741D01*
X34706972Y-33320274D01*
X34691047Y-33317111D01*
X34657264Y-33314488D01*
X34610340Y-33312655D01*
X34554993Y-33311857D01*
X34546106Y-33311842D01*
X34425330Y-33317096D01*
X34322660Y-33333263D01*
X34236106Y-33360961D01*
X34163681Y-33400808D01*
X34108751Y-33447758D01*
X34064204Y-33505645D01*
X34039480Y-33568693D01*
X34032248Y-33640282D01*
X33272310Y-33640282D01*
X33274178Y-33549712D01*
X33282522Y-33470812D01*
X33298768Y-33399590D01*
X33324405Y-33328864D01*
X33348401Y-33276493D01*
X33407020Y-33181196D01*
X33485117Y-33093170D01*
X33580315Y-33014017D01*
X33690238Y-32945340D01*
X33812510Y-32888741D01*
X33944755Y-32845821D01*
X34009422Y-32830882D01*
X34145604Y-32808777D01*
X34294049Y-32794194D01*
X34445505Y-32787813D01*
X34572064Y-32789445D01*
X34733950Y-32796224D01*
X34726530Y-32737245D01*
X34707238Y-32638092D01*
X34676104Y-32557372D01*
X34632269Y-32494466D01*
X34574871Y-32448756D01*
X34503048Y-32419622D01*
X34415941Y-32406447D01*
X34312686Y-32408611D01*
X34274711Y-32412612D01*
X34133520Y-32437780D01*
X33996707Y-32478814D01*
X33902178Y-32516815D01*
X33857018Y-32536190D01*
X33818585Y-32551760D01*
X33792234Y-32561405D01*
X33784546Y-32563452D01*
X33774802Y-32554374D01*
X33758083Y-32525405D01*
X33734232Y-32476217D01*
X33703093Y-32406484D01*
X33664507Y-32315879D01*
X33657910Y-32300089D01*
X33627853Y-32227772D01*
X33600874Y-32162425D01*
X33578136Y-32106906D01*
X33560806Y-32064072D01*
X33550048Y-32036781D01*
X33546941Y-32027942D01*
X33556940Y-32023187D01*
X33583217Y-32017910D01*
X33611489Y-32014231D01*
X33641646Y-32009474D01*
X33689433Y-32000028D01*
X33750612Y-31986820D01*
X33820946Y-31970776D01*
X33896194Y-31952820D01*
X33924755Y-31945797D01*
X34029816Y-31920209D01*
X34117480Y-31900147D01*
X34192068Y-31884969D01*
X34257903Y-31874035D01*
X34319307Y-31866704D01*
X34380602Y-31862335D01*
X34446110Y-31860287D01*
X34504128Y-31859889D01*
X34673574Y-31866552D01*
X34673574Y-31866552D01*
G37*
X34673574Y-31866552D02*
X34825492Y-31886567D01*
X34960756Y-31920202D01*
X35080239Y-31967725D01*
X35184815Y-32029405D01*
X35262424Y-32092965D01*
X35331265Y-32167099D01*
X35385006Y-32246871D01*
X35427910Y-32339091D01*
X35443384Y-32382161D01*
X35456244Y-32421142D01*
X35467446Y-32457289D01*
X35477120Y-32492434D01*
X35485396Y-32528410D01*
X35492403Y-32567050D01*
X35498272Y-32610185D01*
X35503131Y-32659649D01*
X35507110Y-32717273D01*
X35510340Y-32784891D01*
X35512949Y-32864334D01*
X35515067Y-32957436D01*
X35516824Y-33066027D01*
X35518349Y-33191942D01*
X35519772Y-33337012D01*
X35521025Y-33479778D01*
X35522351Y-33635968D01*
X35523556Y-33771239D01*
X35524766Y-33887246D01*
X35526106Y-33985645D01*
X35527700Y-34068093D01*
X35529675Y-34136246D01*
X35532156Y-34191760D01*
X35535269Y-34236292D01*
X35539138Y-34271498D01*
X35543889Y-34299034D01*
X35549648Y-34320556D01*
X35556539Y-34337722D01*
X35564689Y-34352186D01*
X35574223Y-34365606D01*
X35585266Y-34379638D01*
X35589566Y-34385071D01*
X35605386Y-34407910D01*
X35612422Y-34423463D01*
X35612444Y-34423922D01*
X35601567Y-34426121D01*
X35570582Y-34428147D01*
X35521957Y-34429942D01*
X35458163Y-34431451D01*
X35381669Y-34432616D01*
X35294944Y-34433380D01*
X35200457Y-34433686D01*
X35189550Y-34433689D01*
X34766657Y-34433689D01*
X34763395Y-34337622D01*
X34760133Y-34241556D01*
X34698044Y-34292543D01*
X34600714Y-34360057D01*
X34490813Y-34414749D01*
X34404349Y-34444978D01*
X34335278Y-34459666D01*
X34251925Y-34469659D01*
X34162159Y-34474646D01*
X34073845Y-34474313D01*
X33994851Y-34468351D01*
X33958622Y-34462638D01*
X33818603Y-34424776D01*
X33692178Y-34369932D01*
X33580260Y-34298924D01*
X33483762Y-34212568D01*
X33403600Y-34111679D01*
X33340687Y-33997076D01*
X33296312Y-33870984D01*
X33283978Y-33814401D01*
X33276368Y-33752202D01*
X33272739Y-33677363D01*
X33272245Y-33643467D01*
X33272310Y-33640282D01*
X34032248Y-33640282D01*
X34041541Y-33715333D01*
X34069728Y-33779160D01*
X34118197Y-33834798D01*
X34123254Y-33839211D01*
X34171548Y-33874037D01*
X34223257Y-33896620D01*
X34283989Y-33908540D01*
X34359352Y-33911383D01*
X34377459Y-33910978D01*
X34431278Y-33908325D01*
X34471308Y-33902909D01*
X34506324Y-33892745D01*
X34545103Y-33875850D01*
X34555745Y-33870672D01*
X34616396Y-33834844D01*
X34663215Y-33792212D01*
X34675952Y-33776973D01*
X34720622Y-33720462D01*
X34720622Y-33524586D01*
X34720086Y-33445939D01*
X34718396Y-33387988D01*
X34715428Y-33348875D01*
X34711057Y-33326741D01*
X34706972Y-33320274D01*
X34691047Y-33317111D01*
X34657264Y-33314488D01*
X34610340Y-33312655D01*
X34554993Y-33311857D01*
X34546106Y-33311842D01*
X34425330Y-33317096D01*
X34322660Y-33333263D01*
X34236106Y-33360961D01*
X34163681Y-33400808D01*
X34108751Y-33447758D01*
X34064204Y-33505645D01*
X34039480Y-33568693D01*
X34032248Y-33640282D01*
X33272310Y-33640282D01*
X33274178Y-33549712D01*
X33282522Y-33470812D01*
X33298768Y-33399590D01*
X33324405Y-33328864D01*
X33348401Y-33276493D01*
X33407020Y-33181196D01*
X33485117Y-33093170D01*
X33580315Y-33014017D01*
X33690238Y-32945340D01*
X33812510Y-32888741D01*
X33944755Y-32845821D01*
X34009422Y-32830882D01*
X34145604Y-32808777D01*
X34294049Y-32794194D01*
X34445505Y-32787813D01*
X34572064Y-32789445D01*
X34733950Y-32796224D01*
X34726530Y-32737245D01*
X34707238Y-32638092D01*
X34676104Y-32557372D01*
X34632269Y-32494466D01*
X34574871Y-32448756D01*
X34503048Y-32419622D01*
X34415941Y-32406447D01*
X34312686Y-32408611D01*
X34274711Y-32412612D01*
X34133520Y-32437780D01*
X33996707Y-32478814D01*
X33902178Y-32516815D01*
X33857018Y-32536190D01*
X33818585Y-32551760D01*
X33792234Y-32561405D01*
X33784546Y-32563452D01*
X33774802Y-32554374D01*
X33758083Y-32525405D01*
X33734232Y-32476217D01*
X33703093Y-32406484D01*
X33664507Y-32315879D01*
X33657910Y-32300089D01*
X33627853Y-32227772D01*
X33600874Y-32162425D01*
X33578136Y-32106906D01*
X33560806Y-32064072D01*
X33550048Y-32036781D01*
X33546941Y-32027942D01*
X33556940Y-32023187D01*
X33583217Y-32017910D01*
X33611489Y-32014231D01*
X33641646Y-32009474D01*
X33689433Y-32000028D01*
X33750612Y-31986820D01*
X33820946Y-31970776D01*
X33896194Y-31952820D01*
X33924755Y-31945797D01*
X34029816Y-31920209D01*
X34117480Y-31900147D01*
X34192068Y-31884969D01*
X34257903Y-31874035D01*
X34319307Y-31866704D01*
X34380602Y-31862335D01*
X34446110Y-31860287D01*
X34504128Y-31859889D01*
X34673574Y-31866552D01*
G36*
X32328429Y-30949071D02*
G01*
X32488570Y-30970245D01*
X32652510Y-31010385D01*
X32822313Y-31069889D01*
X33000043Y-31149154D01*
X33011310Y-31154699D01*
X33069005Y-31182725D01*
X33120552Y-31206802D01*
X33162191Y-31225249D01*
X33190162Y-31236386D01*
X33199733Y-31238933D01*
X33218950Y-31243941D01*
X33223561Y-31248147D01*
X33218458Y-31258580D01*
X33202418Y-31284868D01*
X33177288Y-31324257D01*
X33144914Y-31373991D01*
X33107143Y-31431315D01*
X33065822Y-31493476D01*
X33022798Y-31557718D01*
X32979917Y-31621285D01*
X32939026Y-31681425D01*
X32901971Y-31735380D01*
X32870600Y-31780397D01*
X32846759Y-31813721D01*
X32832294Y-31832597D01*
X32830309Y-31834787D01*
X32820191Y-31830138D01*
X32797850Y-31812962D01*
X32767280Y-31786440D01*
X32751536Y-31771964D01*
X32655047Y-31696682D01*
X32548336Y-31641241D01*
X32432832Y-31606141D01*
X32309962Y-31591880D01*
X32240561Y-31593051D01*
X32119423Y-31610212D01*
X32010205Y-31646094D01*
X31912582Y-31700959D01*
X31826228Y-31775070D01*
X31750815Y-31868688D01*
X31686018Y-31982076D01*
X31648601Y-32068667D01*
X31604748Y-32204366D01*
X31572428Y-32351850D01*
X31551557Y-32507314D01*
X31542051Y-32666956D01*
X31543827Y-32826973D01*
X31556803Y-32983561D01*
X31580894Y-33132918D01*
X31616018Y-33271240D01*
X31662092Y-33394724D01*
X31678373Y-33428978D01*
X31746620Y-33543064D01*
X31827079Y-33639557D01*
X31918570Y-33717670D01*
X32019911Y-33776617D01*
X32129920Y-33815612D01*
X32247415Y-33833868D01*
X32288883Y-33835211D01*
X32410441Y-33824290D01*
X32530878Y-33791474D01*
X32648666Y-33737439D01*
X32762277Y-33662865D01*
X32853685Y-33584539D01*
X32900215Y-33540008D01*
X33081483Y-33837271D01*
X33126580Y-33911433D01*
X33167819Y-33979646D01*
X33203735Y-34039459D01*
X33232866Y-34088420D01*
X33253750Y-34124079D01*
X33264924Y-34143984D01*
X33266375Y-34147079D01*
X33258146Y-34156718D01*
X33232567Y-34173999D01*
X33192873Y-34197283D01*
X33142297Y-34224934D01*
X33084074Y-34255315D01*
X33021437Y-34286790D01*
X32957621Y-34317722D01*
X32895860Y-34346473D01*
X32839388Y-34371408D01*
X32791438Y-34390889D01*
X32767986Y-34399318D01*
X32634221Y-34437133D01*
X32496327Y-34462136D01*
X32348622Y-34475140D01*
X32221833Y-34477468D01*
X32153878Y-34476373D01*
X32088277Y-34474275D01*
X32030847Y-34471434D01*
X31987403Y-34468106D01*
X31973298Y-34466422D01*
X31834284Y-34437587D01*
X31692757Y-34392468D01*
X31555275Y-34333750D01*
X31428394Y-34264120D01*
X31350889Y-34211441D01*
X31223481Y-34103239D01*
X31105178Y-33976671D01*
X30998172Y-33834866D01*
X30904652Y-33680951D01*
X30826810Y-33518053D01*
X30782956Y-33400756D01*
X30732708Y-33217128D01*
X30699209Y-33022581D01*
X30682449Y-32821325D01*
X30682416Y-32617568D01*
X30699101Y-32415521D01*
X30732493Y-32219392D01*
X30782580Y-32033391D01*
X30786397Y-32021803D01*
X30849281Y-31859750D01*
X30926028Y-31711832D01*
X31019242Y-31573865D01*
X31131527Y-31441661D01*
X31175392Y-31396399D01*
X31311534Y-31272457D01*
X31451491Y-31169915D01*
X31597411Y-31087656D01*
X31751442Y-31024564D01*
X31915732Y-30979523D01*
X32011289Y-30962033D01*
X32170023Y-30946466D01*
X32328429Y-30949071D01*
X32328429Y-30949071D01*
G37*
X32328429Y-30949071D02*
X32488570Y-30970245D01*
X32652510Y-31010385D01*
X32822313Y-31069889D01*
X33000043Y-31149154D01*
X33011310Y-31154699D01*
X33069005Y-31182725D01*
X33120552Y-31206802D01*
X33162191Y-31225249D01*
X33190162Y-31236386D01*
X33199733Y-31238933D01*
X33218950Y-31243941D01*
X33223561Y-31248147D01*
X33218458Y-31258580D01*
X33202418Y-31284868D01*
X33177288Y-31324257D01*
X33144914Y-31373991D01*
X33107143Y-31431315D01*
X33065822Y-31493476D01*
X33022798Y-31557718D01*
X32979917Y-31621285D01*
X32939026Y-31681425D01*
X32901971Y-31735380D01*
X32870600Y-31780397D01*
X32846759Y-31813721D01*
X32832294Y-31832597D01*
X32830309Y-31834787D01*
X32820191Y-31830138D01*
X32797850Y-31812962D01*
X32767280Y-31786440D01*
X32751536Y-31771964D01*
X32655047Y-31696682D01*
X32548336Y-31641241D01*
X32432832Y-31606141D01*
X32309962Y-31591880D01*
X32240561Y-31593051D01*
X32119423Y-31610212D01*
X32010205Y-31646094D01*
X31912582Y-31700959D01*
X31826228Y-31775070D01*
X31750815Y-31868688D01*
X31686018Y-31982076D01*
X31648601Y-32068667D01*
X31604748Y-32204366D01*
X31572428Y-32351850D01*
X31551557Y-32507314D01*
X31542051Y-32666956D01*
X31543827Y-32826973D01*
X31556803Y-32983561D01*
X31580894Y-33132918D01*
X31616018Y-33271240D01*
X31662092Y-33394724D01*
X31678373Y-33428978D01*
X31746620Y-33543064D01*
X31827079Y-33639557D01*
X31918570Y-33717670D01*
X32019911Y-33776617D01*
X32129920Y-33815612D01*
X32247415Y-33833868D01*
X32288883Y-33835211D01*
X32410441Y-33824290D01*
X32530878Y-33791474D01*
X32648666Y-33737439D01*
X32762277Y-33662865D01*
X32853685Y-33584539D01*
X32900215Y-33540008D01*
X33081483Y-33837271D01*
X33126580Y-33911433D01*
X33167819Y-33979646D01*
X33203735Y-34039459D01*
X33232866Y-34088420D01*
X33253750Y-34124079D01*
X33264924Y-34143984D01*
X33266375Y-34147079D01*
X33258146Y-34156718D01*
X33232567Y-34173999D01*
X33192873Y-34197283D01*
X33142297Y-34224934D01*
X33084074Y-34255315D01*
X33021437Y-34286790D01*
X32957621Y-34317722D01*
X32895860Y-34346473D01*
X32839388Y-34371408D01*
X32791438Y-34390889D01*
X32767986Y-34399318D01*
X32634221Y-34437133D01*
X32496327Y-34462136D01*
X32348622Y-34475140D01*
X32221833Y-34477468D01*
X32153878Y-34476373D01*
X32088277Y-34474275D01*
X32030847Y-34471434D01*
X31987403Y-34468106D01*
X31973298Y-34466422D01*
X31834284Y-34437587D01*
X31692757Y-34392468D01*
X31555275Y-34333750D01*
X31428394Y-34264120D01*
X31350889Y-34211441D01*
X31223481Y-34103239D01*
X31105178Y-33976671D01*
X30998172Y-33834866D01*
X30904652Y-33680951D01*
X30826810Y-33518053D01*
X30782956Y-33400756D01*
X30732708Y-33217128D01*
X30699209Y-33022581D01*
X30682449Y-32821325D01*
X30682416Y-32617568D01*
X30699101Y-32415521D01*
X30732493Y-32219392D01*
X30782580Y-32033391D01*
X30786397Y-32021803D01*
X30849281Y-31859750D01*
X30926028Y-31711832D01*
X31019242Y-31573865D01*
X31131527Y-31441661D01*
X31175392Y-31396399D01*
X31311534Y-31272457D01*
X31451491Y-31169915D01*
X31597411Y-31087656D01*
X31751442Y-31024564D01*
X31915732Y-30979523D01*
X32011289Y-30962033D01*
X32170023Y-30946466D01*
X32328429Y-30949071D01*
G36*
X29053600Y-30489054D02*
G01*
X29064465Y-30602993D01*
X29096082Y-30710616D01*
X29146985Y-30809615D01*
X29215707Y-30897684D01*
X29300781Y-30972516D01*
X29397768Y-31030384D01*
X29504036Y-31070005D01*
X29611050Y-31088573D01*
X29716700Y-31087434D01*
X29818875Y-31067930D01*
X29915466Y-31031406D01*
X30004362Y-30979205D01*
X30083454Y-30912673D01*
X30150631Y-30833152D01*
X30203783Y-30741987D01*
X30240801Y-30640523D01*
X30259573Y-30530102D01*
X30261511Y-30480206D01*
X30261511Y-30392267D01*
X30313440Y-30392267D01*
X30349747Y-30395111D01*
X30376645Y-30406911D01*
X30403751Y-30430649D01*
X30442133Y-30469031D01*
X30442133Y-32660602D01*
X30442124Y-32922739D01*
X30442092Y-33163241D01*
X30442028Y-33383048D01*
X30441924Y-33583101D01*
X30441773Y-33764344D01*
X30441566Y-33927716D01*
X30441294Y-34074160D01*
X30440950Y-34204617D01*
X30440526Y-34320029D01*
X30440013Y-34421338D01*
X30439403Y-34509484D01*
X30438688Y-34585410D01*
X30437860Y-34650057D01*
X30436911Y-34704367D01*
X30435833Y-34749280D01*
X30434617Y-34785740D01*
X30433255Y-34814687D01*
X30431739Y-34837063D01*
X30430062Y-34853809D01*
X30428214Y-34865868D01*
X30426187Y-34874180D01*
X30423975Y-34879687D01*
X30422892Y-34881537D01*
X30418729Y-34888549D01*
X30415195Y-34894996D01*
X30411365Y-34900900D01*
X30406318Y-34906286D01*
X30399129Y-34911178D01*
X30388877Y-34915598D01*
X30374636Y-34919572D01*
X30355486Y-34923121D01*
X30330501Y-34926270D01*
X30298760Y-34929042D01*
X30259338Y-34931461D01*
X30211314Y-34933551D01*
X30153763Y-34935335D01*
X30085763Y-34936837D01*
X30006390Y-34938080D01*
X29914721Y-34939089D01*
X29809834Y-34939885D01*
X29690804Y-34940494D01*
X29556710Y-34940939D01*
X29406627Y-34941243D01*
X29239633Y-34941430D01*
X29054804Y-34941524D01*
X28851217Y-34941548D01*
X28627950Y-34941525D01*
X28384078Y-34941480D01*
X28118679Y-34941437D01*
X28080296Y-34941432D01*
X27813318Y-34941389D01*
X27567998Y-34941318D01*
X27343417Y-34941213D01*
X27138655Y-34941066D01*
X26952794Y-34940869D01*
X26784912Y-34940616D01*
X26634092Y-34940300D01*
X26499413Y-34939913D01*
X26379956Y-34939447D01*
X26274801Y-34938897D01*
X26183029Y-34938253D01*
X26103721Y-34937511D01*
X26035957Y-34936661D01*
X25978818Y-34935697D01*
X25931383Y-34934611D01*
X25892734Y-34933397D01*
X25861951Y-34932047D01*
X25838115Y-34930555D01*
X25820306Y-34928911D01*
X25807605Y-34927111D01*
X25799092Y-34925145D01*
X25794734Y-34923477D01*
X25786272Y-34919906D01*
X25778503Y-34917270D01*
X25771398Y-34914634D01*
X25764927Y-34911062D01*
X25759061Y-34905621D01*
X25753771Y-34897375D01*
X25749026Y-34885390D01*
X25744798Y-34868731D01*
X25741057Y-34846463D01*
X25737773Y-34817652D01*
X25734917Y-34781363D01*
X25732460Y-34736661D01*
X25730371Y-34682611D01*
X25728622Y-34618279D01*
X25727183Y-34542730D01*
X25726024Y-34455030D01*
X25725117Y-34354243D01*
X25724431Y-34239434D01*
X25723937Y-34109670D01*
X25723605Y-33964015D01*
X25723407Y-33801535D01*
X25723313Y-33621295D01*
X25723292Y-33422360D01*
X25723315Y-33203796D01*
X25723354Y-32964668D01*
X25723378Y-32704040D01*
X25723378Y-32661889D01*
X25723364Y-32398992D01*
X25723339Y-32157732D01*
X25723329Y-31937165D01*
X25723358Y-31736352D01*
X25723452Y-31554349D01*
X25723638Y-31390216D01*
X25723941Y-31243011D01*
X25724386Y-31111792D01*
X25724966Y-31001867D01*
X26027803Y-31001867D01*
X26067593Y-31059711D01*
X26078764Y-31075479D01*
X26088834Y-31089441D01*
X26097862Y-31102784D01*
X26105903Y-31116693D01*
X26113014Y-31132356D01*
X26119253Y-31150958D01*
X26124675Y-31173686D01*
X26129338Y-31201727D01*
X26133299Y-31236267D01*
X26136615Y-31278492D01*
X26139341Y-31329589D01*
X26141536Y-31390744D01*
X26143255Y-31463144D01*
X26144556Y-31547975D01*
X26145495Y-31646422D01*
X26146130Y-31759674D01*
X26146516Y-31888916D01*
X26146712Y-32035334D01*
X26146773Y-32200116D01*
X26146757Y-32384447D01*
X26146720Y-32589513D01*
X26146711Y-32712133D01*
X26146735Y-32929082D01*
X26146769Y-33124642D01*
X26146757Y-33299999D01*
X26146642Y-33456341D01*
X26146370Y-33594857D01*
X26145882Y-33716734D01*
X26145124Y-33823160D01*
X26144038Y-33915322D01*
X26142569Y-33994409D01*
X26140660Y-34061608D01*
X26138256Y-34118107D01*
X26135299Y-34165093D01*
X26131734Y-34203755D01*
X26127505Y-34235280D01*
X26122554Y-34260855D01*
X26116827Y-34281670D01*
X26110267Y-34298911D01*
X26102817Y-34313765D01*
X26094421Y-34327422D01*
X26085024Y-34341069D01*
X26074568Y-34355893D01*
X26068477Y-34364783D01*
X26029704Y-34422400D01*
X26561268Y-34422400D01*
X26684517Y-34422365D01*
X26787013Y-34422215D01*
X26870580Y-34421878D01*
X26937044Y-34421286D01*
X26988229Y-34420367D01*
X27025959Y-34419051D01*
X27052060Y-34417269D01*
X27068356Y-34414951D01*
X27076672Y-34412026D01*
X27078832Y-34408424D01*
X27076661Y-34404075D01*
X27075465Y-34402645D01*
X27050315Y-34365573D01*
X27024417Y-34312772D01*
X27000808Y-34250770D01*
X26992539Y-34224357D01*
X26987922Y-34206416D01*
X26984021Y-34185355D01*
X26980752Y-34159089D01*
X26978034Y-34125532D01*
X26975785Y-34082599D01*
X26973923Y-34028204D01*
X26972364Y-33960262D01*
X26971028Y-33876688D01*
X26969831Y-33775395D01*
X26968692Y-33654300D01*
X26968315Y-33609600D01*
X26967298Y-33484449D01*
X26966540Y-33380082D01*
X26966097Y-33294707D01*
X26966030Y-33226533D01*
X26966395Y-33173765D01*
X26967252Y-33134614D01*
X26968659Y-33107285D01*
X26970675Y-33089986D01*
X26973357Y-33080926D01*
X26976764Y-33078312D01*
X26980956Y-33080351D01*
X26985429Y-33084667D01*
X26995784Y-33097602D01*
X27017842Y-33126676D01*
X27050043Y-33169759D01*
X27090826Y-33224718D01*
X27138630Y-33289423D01*
X27191895Y-33361742D01*
X27249060Y-33439544D01*
X27308563Y-33520698D01*
X27368845Y-33603072D01*
X27428345Y-33684536D01*
X27485502Y-33762957D01*
X27538755Y-33836204D01*
X27586543Y-33902147D01*
X27627307Y-33958654D01*
X27659484Y-34003593D01*
X27681515Y-34034834D01*
X27686083Y-34041466D01*
X27709004Y-34078369D01*
X27735812Y-34126359D01*
X27761211Y-34175897D01*
X27764432Y-34182577D01*
X27786110Y-34230772D01*
X27798696Y-34268334D01*
X27804426Y-34304160D01*
X27805544Y-34346200D01*
X27804910Y-34422400D01*
X28959349Y-34422400D01*
X28868185Y-34328669D01*
X28821388Y-34278775D01*
X28771101Y-34222295D01*
X28725056Y-34168026D01*
X28704631Y-34142673D01*
X28674193Y-34103128D01*
X28634138Y-34049916D01*
X28585639Y-33984667D01*
X28529865Y-33909011D01*
X28467989Y-33824577D01*
X28401181Y-33732994D01*
X28330613Y-33635892D01*
X28257455Y-33534901D01*
X28182879Y-33431650D01*
X28108056Y-33327768D01*
X28034157Y-33224885D01*
X27962354Y-33124631D01*
X27893816Y-33028636D01*
X27829716Y-32938527D01*
X27771225Y-32855936D01*
X27719514Y-32782492D01*
X27675753Y-32719824D01*
X27641115Y-32669561D01*
X27616770Y-32633334D01*
X27603889Y-32612771D01*
X27602131Y-32608668D01*
X27610090Y-32597342D01*
X27630885Y-32570162D01*
X27663153Y-32528829D01*
X27705530Y-32475044D01*
X27756653Y-32410506D01*
X27815159Y-32336918D01*
X27879686Y-32255978D01*
X27948869Y-32169388D01*
X28021347Y-32078848D01*
X28095754Y-31986060D01*
X28155483Y-31911702D01*
X29166489Y-31911702D01*
X29172398Y-31924659D01*
X29186728Y-31946908D01*
X29187775Y-31948391D01*
X29206562Y-31978544D01*
X29226209Y-32015375D01*
X29230108Y-32023511D01*
X29233644Y-32031940D01*
X29236770Y-32042059D01*
X29239514Y-32055260D01*
X29241908Y-32072938D01*
X29243981Y-32096484D01*
X29245765Y-32127293D01*
X29247288Y-32166757D01*
X29248581Y-32216269D01*
X29249674Y-32277223D01*
X29250597Y-32351011D01*
X29251381Y-32439028D01*
X29252055Y-32542665D01*
X29252650Y-32663316D01*
X29253195Y-32802374D01*
X29253721Y-32961232D01*
X29254255Y-33140089D01*
X29254794Y-33325207D01*
X29255228Y-33489145D01*
X29255491Y-33633303D01*
X29255516Y-33759079D01*
X29255235Y-33867871D01*
X29254581Y-33961077D01*
X29253486Y-34040097D01*
X29251882Y-34106328D01*
X29249703Y-34161170D01*
X29246881Y-34206021D01*
X29243349Y-34242278D01*
X29239039Y-34271341D01*
X29233883Y-34294609D01*
X29227815Y-34313479D01*
X29220767Y-34329351D01*
X29212671Y-34343622D01*
X29203460Y-34357691D01*
X29194960Y-34370158D01*
X29177824Y-34396452D01*
X29167678Y-34414037D01*
X29166489Y-34417257D01*
X29177396Y-34418334D01*
X29208589Y-34419335D01*
X29257777Y-34420235D01*
X29322667Y-34421010D01*
X29400970Y-34421637D01*
X29490393Y-34422091D01*
X29588644Y-34422349D01*
X29657555Y-34422400D01*
X29762548Y-34422180D01*
X29859390Y-34421548D01*
X29945893Y-34420549D01*
X30019868Y-34419227D01*
X30079126Y-34417626D01*
X30121480Y-34415791D01*
X30144740Y-34413765D01*
X30148622Y-34412493D01*
X30140924Y-34397591D01*
X30132926Y-34389560D01*
X30119754Y-34372434D01*
X30102515Y-34342183D01*
X30090593Y-34317622D01*
X30063955Y-34258711D01*
X30060880Y-33081845D01*
X30057805Y-31904978D01*
X29612147Y-31904978D01*
X29514330Y-31905142D01*
X29423936Y-31905611D01*
X29343370Y-31906347D01*
X29275038Y-31907316D01*
X29221344Y-31908480D01*
X29184695Y-31909803D01*
X29167496Y-31911249D01*
X29166489Y-31911702D01*
X28155483Y-31911702D01*
X28170730Y-31892722D01*
X28244910Y-31800537D01*
X28316931Y-31711204D01*
X28385431Y-31626424D01*
X28449045Y-31547898D01*
X28506412Y-31477326D01*
X28556167Y-31416409D01*
X28596948Y-31366847D01*
X28614112Y-31346178D01*
X28700404Y-31245516D01*
X28777003Y-31162259D01*
X28845817Y-31094438D01*
X28908752Y-31040089D01*
X28918133Y-31032722D01*
X28957644Y-31002117D01*
X27825884Y-31001867D01*
X27831173Y-31049844D01*
X27827870Y-31107188D01*
X27806339Y-31175463D01*
X27766365Y-31255212D01*
X27721057Y-31327495D01*
X27704839Y-31350140D01*
X27676786Y-31387696D01*
X27638570Y-31438021D01*
X27591863Y-31498973D01*
X27538339Y-31568411D01*
X27479669Y-31644194D01*
X27417525Y-31724180D01*
X27353579Y-31806228D01*
X27289505Y-31888196D01*
X27226973Y-31967943D01*
X27167657Y-32043327D01*
X27113229Y-32112207D01*
X27065361Y-32172442D01*
X27025725Y-32221889D01*
X26995994Y-32258408D01*
X26977839Y-32279858D01*
X26974780Y-32283156D01*
X26971921Y-32275149D01*
X26969707Y-32244855D01*
X26968143Y-32192556D01*
X26967233Y-32118531D01*
X26966980Y-32023063D01*
X26967387Y-31906434D01*
X26968296Y-31786445D01*
X26969618Y-31654333D01*
X26971143Y-31542594D01*
X26973119Y-31449025D01*
X26975794Y-31371419D01*
X26979418Y-31307574D01*
X26984239Y-31255283D01*
X26990506Y-31212344D01*
X26998468Y-31176551D01*
X27008373Y-31145700D01*
X27020469Y-31117586D01*
X27035007Y-31090005D01*
X27049689Y-31064966D01*
X27087686Y-31001867D01*
X26027803Y-31001867D01*
X25724966Y-31001867D01*
X25724999Y-30995617D01*
X25725805Y-30893544D01*
X25726830Y-30804633D01*
X25728100Y-30727941D01*
X25729640Y-30662527D01*
X25731476Y-30607449D01*
X25733633Y-30561765D01*
X25736137Y-30524534D01*
X25739013Y-30494813D01*
X25742287Y-30471662D01*
X25745985Y-30454139D01*
X25750131Y-30441301D01*
X25754753Y-30432208D01*
X25759874Y-30425918D01*
X25765522Y-30421488D01*
X25771721Y-30417978D01*
X25778496Y-30414445D01*
X25784492Y-30410876D01*
X25789725Y-30408300D01*
X25797901Y-30405972D01*
X25810114Y-30403878D01*
X25827459Y-30402007D01*
X25851031Y-30400347D01*
X25881923Y-30398884D01*
X25921232Y-30397608D01*
X25970050Y-30396504D01*
X26029473Y-30395561D01*
X26100596Y-30394767D01*
X26184512Y-30394109D01*
X26282317Y-30393575D01*
X26395106Y-30393153D01*
X26523971Y-30392829D01*
X26670009Y-30392592D01*
X26834314Y-30392430D01*
X27017980Y-30392330D01*
X27222103Y-30392280D01*
X27433247Y-30392267D01*
X29053600Y-30392267D01*
X29053600Y-30489054D01*
X29053600Y-30489054D01*
G37*
X29053600Y-30489054D02*
X29064465Y-30602993D01*
X29096082Y-30710616D01*
X29146985Y-30809615D01*
X29215707Y-30897684D01*
X29300781Y-30972516D01*
X29397768Y-31030384D01*
X29504036Y-31070005D01*
X29611050Y-31088573D01*
X29716700Y-31087434D01*
X29818875Y-31067930D01*
X29915466Y-31031406D01*
X30004362Y-30979205D01*
X30083454Y-30912673D01*
X30150631Y-30833152D01*
X30203783Y-30741987D01*
X30240801Y-30640523D01*
X30259573Y-30530102D01*
X30261511Y-30480206D01*
X30261511Y-30392267D01*
X30313440Y-30392267D01*
X30349747Y-30395111D01*
X30376645Y-30406911D01*
X30403751Y-30430649D01*
X30442133Y-30469031D01*
X30442133Y-32660602D01*
X30442124Y-32922739D01*
X30442092Y-33163241D01*
X30442028Y-33383048D01*
X30441924Y-33583101D01*
X30441773Y-33764344D01*
X30441566Y-33927716D01*
X30441294Y-34074160D01*
X30440950Y-34204617D01*
X30440526Y-34320029D01*
X30440013Y-34421338D01*
X30439403Y-34509484D01*
X30438688Y-34585410D01*
X30437860Y-34650057D01*
X30436911Y-34704367D01*
X30435833Y-34749280D01*
X30434617Y-34785740D01*
X30433255Y-34814687D01*
X30431739Y-34837063D01*
X30430062Y-34853809D01*
X30428214Y-34865868D01*
X30426187Y-34874180D01*
X30423975Y-34879687D01*
X30422892Y-34881537D01*
X30418729Y-34888549D01*
X30415195Y-34894996D01*
X30411365Y-34900900D01*
X30406318Y-34906286D01*
X30399129Y-34911178D01*
X30388877Y-34915598D01*
X30374636Y-34919572D01*
X30355486Y-34923121D01*
X30330501Y-34926270D01*
X30298760Y-34929042D01*
X30259338Y-34931461D01*
X30211314Y-34933551D01*
X30153763Y-34935335D01*
X30085763Y-34936837D01*
X30006390Y-34938080D01*
X29914721Y-34939089D01*
X29809834Y-34939885D01*
X29690804Y-34940494D01*
X29556710Y-34940939D01*
X29406627Y-34941243D01*
X29239633Y-34941430D01*
X29054804Y-34941524D01*
X28851217Y-34941548D01*
X28627950Y-34941525D01*
X28384078Y-34941480D01*
X28118679Y-34941437D01*
X28080296Y-34941432D01*
X27813318Y-34941389D01*
X27567998Y-34941318D01*
X27343417Y-34941213D01*
X27138655Y-34941066D01*
X26952794Y-34940869D01*
X26784912Y-34940616D01*
X26634092Y-34940300D01*
X26499413Y-34939913D01*
X26379956Y-34939447D01*
X26274801Y-34938897D01*
X26183029Y-34938253D01*
X26103721Y-34937511D01*
X26035957Y-34936661D01*
X25978818Y-34935697D01*
X25931383Y-34934611D01*
X25892734Y-34933397D01*
X25861951Y-34932047D01*
X25838115Y-34930555D01*
X25820306Y-34928911D01*
X25807605Y-34927111D01*
X25799092Y-34925145D01*
X25794734Y-34923477D01*
X25786272Y-34919906D01*
X25778503Y-34917270D01*
X25771398Y-34914634D01*
X25764927Y-34911062D01*
X25759061Y-34905621D01*
X25753771Y-34897375D01*
X25749026Y-34885390D01*
X25744798Y-34868731D01*
X25741057Y-34846463D01*
X25737773Y-34817652D01*
X25734917Y-34781363D01*
X25732460Y-34736661D01*
X25730371Y-34682611D01*
X25728622Y-34618279D01*
X25727183Y-34542730D01*
X25726024Y-34455030D01*
X25725117Y-34354243D01*
X25724431Y-34239434D01*
X25723937Y-34109670D01*
X25723605Y-33964015D01*
X25723407Y-33801535D01*
X25723313Y-33621295D01*
X25723292Y-33422360D01*
X25723315Y-33203796D01*
X25723354Y-32964668D01*
X25723378Y-32704040D01*
X25723378Y-32661889D01*
X25723364Y-32398992D01*
X25723339Y-32157732D01*
X25723329Y-31937165D01*
X25723358Y-31736352D01*
X25723452Y-31554349D01*
X25723638Y-31390216D01*
X25723941Y-31243011D01*
X25724386Y-31111792D01*
X25724966Y-31001867D01*
X26027803Y-31001867D01*
X26067593Y-31059711D01*
X26078764Y-31075479D01*
X26088834Y-31089441D01*
X26097862Y-31102784D01*
X26105903Y-31116693D01*
X26113014Y-31132356D01*
X26119253Y-31150958D01*
X26124675Y-31173686D01*
X26129338Y-31201727D01*
X26133299Y-31236267D01*
X26136615Y-31278492D01*
X26139341Y-31329589D01*
X26141536Y-31390744D01*
X26143255Y-31463144D01*
X26144556Y-31547975D01*
X26145495Y-31646422D01*
X26146130Y-31759674D01*
X26146516Y-31888916D01*
X26146712Y-32035334D01*
X26146773Y-32200116D01*
X26146757Y-32384447D01*
X26146720Y-32589513D01*
X26146711Y-32712133D01*
X26146735Y-32929082D01*
X26146769Y-33124642D01*
X26146757Y-33299999D01*
X26146642Y-33456341D01*
X26146370Y-33594857D01*
X26145882Y-33716734D01*
X26145124Y-33823160D01*
X26144038Y-33915322D01*
X26142569Y-33994409D01*
X26140660Y-34061608D01*
X26138256Y-34118107D01*
X26135299Y-34165093D01*
X26131734Y-34203755D01*
X26127505Y-34235280D01*
X26122554Y-34260855D01*
X26116827Y-34281670D01*
X26110267Y-34298911D01*
X26102817Y-34313765D01*
X26094421Y-34327422D01*
X26085024Y-34341069D01*
X26074568Y-34355893D01*
X26068477Y-34364783D01*
X26029704Y-34422400D01*
X26561268Y-34422400D01*
X26684517Y-34422365D01*
X26787013Y-34422215D01*
X26870580Y-34421878D01*
X26937044Y-34421286D01*
X26988229Y-34420367D01*
X27025959Y-34419051D01*
X27052060Y-34417269D01*
X27068356Y-34414951D01*
X27076672Y-34412026D01*
X27078832Y-34408424D01*
X27076661Y-34404075D01*
X27075465Y-34402645D01*
X27050315Y-34365573D01*
X27024417Y-34312772D01*
X27000808Y-34250770D01*
X26992539Y-34224357D01*
X26987922Y-34206416D01*
X26984021Y-34185355D01*
X26980752Y-34159089D01*
X26978034Y-34125532D01*
X26975785Y-34082599D01*
X26973923Y-34028204D01*
X26972364Y-33960262D01*
X26971028Y-33876688D01*
X26969831Y-33775395D01*
X26968692Y-33654300D01*
X26968315Y-33609600D01*
X26967298Y-33484449D01*
X26966540Y-33380082D01*
X26966097Y-33294707D01*
X26966030Y-33226533D01*
X26966395Y-33173765D01*
X26967252Y-33134614D01*
X26968659Y-33107285D01*
X26970675Y-33089986D01*
X26973357Y-33080926D01*
X26976764Y-33078312D01*
X26980956Y-33080351D01*
X26985429Y-33084667D01*
X26995784Y-33097602D01*
X27017842Y-33126676D01*
X27050043Y-33169759D01*
X27090826Y-33224718D01*
X27138630Y-33289423D01*
X27191895Y-33361742D01*
X27249060Y-33439544D01*
X27308563Y-33520698D01*
X27368845Y-33603072D01*
X27428345Y-33684536D01*
X27485502Y-33762957D01*
X27538755Y-33836204D01*
X27586543Y-33902147D01*
X27627307Y-33958654D01*
X27659484Y-34003593D01*
X27681515Y-34034834D01*
X27686083Y-34041466D01*
X27709004Y-34078369D01*
X27735812Y-34126359D01*
X27761211Y-34175897D01*
X27764432Y-34182577D01*
X27786110Y-34230772D01*
X27798696Y-34268334D01*
X27804426Y-34304160D01*
X27805544Y-34346200D01*
X27804910Y-34422400D01*
X28959349Y-34422400D01*
X28868185Y-34328669D01*
X28821388Y-34278775D01*
X28771101Y-34222295D01*
X28725056Y-34168026D01*
X28704631Y-34142673D01*
X28674193Y-34103128D01*
X28634138Y-34049916D01*
X28585639Y-33984667D01*
X28529865Y-33909011D01*
X28467989Y-33824577D01*
X28401181Y-33732994D01*
X28330613Y-33635892D01*
X28257455Y-33534901D01*
X28182879Y-33431650D01*
X28108056Y-33327768D01*
X28034157Y-33224885D01*
X27962354Y-33124631D01*
X27893816Y-33028636D01*
X27829716Y-32938527D01*
X27771225Y-32855936D01*
X27719514Y-32782492D01*
X27675753Y-32719824D01*
X27641115Y-32669561D01*
X27616770Y-32633334D01*
X27603889Y-32612771D01*
X27602131Y-32608668D01*
X27610090Y-32597342D01*
X27630885Y-32570162D01*
X27663153Y-32528829D01*
X27705530Y-32475044D01*
X27756653Y-32410506D01*
X27815159Y-32336918D01*
X27879686Y-32255978D01*
X27948869Y-32169388D01*
X28021347Y-32078848D01*
X28095754Y-31986060D01*
X28155483Y-31911702D01*
X29166489Y-31911702D01*
X29172398Y-31924659D01*
X29186728Y-31946908D01*
X29187775Y-31948391D01*
X29206562Y-31978544D01*
X29226209Y-32015375D01*
X29230108Y-32023511D01*
X29233644Y-32031940D01*
X29236770Y-32042059D01*
X29239514Y-32055260D01*
X29241908Y-32072938D01*
X29243981Y-32096484D01*
X29245765Y-32127293D01*
X29247288Y-32166757D01*
X29248581Y-32216269D01*
X29249674Y-32277223D01*
X29250597Y-32351011D01*
X29251381Y-32439028D01*
X29252055Y-32542665D01*
X29252650Y-32663316D01*
X29253195Y-32802374D01*
X29253721Y-32961232D01*
X29254255Y-33140089D01*
X29254794Y-33325207D01*
X29255228Y-33489145D01*
X29255491Y-33633303D01*
X29255516Y-33759079D01*
X29255235Y-33867871D01*
X29254581Y-33961077D01*
X29253486Y-34040097D01*
X29251882Y-34106328D01*
X29249703Y-34161170D01*
X29246881Y-34206021D01*
X29243349Y-34242278D01*
X29239039Y-34271341D01*
X29233883Y-34294609D01*
X29227815Y-34313479D01*
X29220767Y-34329351D01*
X29212671Y-34343622D01*
X29203460Y-34357691D01*
X29194960Y-34370158D01*
X29177824Y-34396452D01*
X29167678Y-34414037D01*
X29166489Y-34417257D01*
X29177396Y-34418334D01*
X29208589Y-34419335D01*
X29257777Y-34420235D01*
X29322667Y-34421010D01*
X29400970Y-34421637D01*
X29490393Y-34422091D01*
X29588644Y-34422349D01*
X29657555Y-34422400D01*
X29762548Y-34422180D01*
X29859390Y-34421548D01*
X29945893Y-34420549D01*
X30019868Y-34419227D01*
X30079126Y-34417626D01*
X30121480Y-34415791D01*
X30144740Y-34413765D01*
X30148622Y-34412493D01*
X30140924Y-34397591D01*
X30132926Y-34389560D01*
X30119754Y-34372434D01*
X30102515Y-34342183D01*
X30090593Y-34317622D01*
X30063955Y-34258711D01*
X30060880Y-33081845D01*
X30057805Y-31904978D01*
X29612147Y-31904978D01*
X29514330Y-31905142D01*
X29423936Y-31905611D01*
X29343370Y-31906347D01*
X29275038Y-31907316D01*
X29221344Y-31908480D01*
X29184695Y-31909803D01*
X29167496Y-31911249D01*
X29166489Y-31911702D01*
X28155483Y-31911702D01*
X28170730Y-31892722D01*
X28244910Y-31800537D01*
X28316931Y-31711204D01*
X28385431Y-31626424D01*
X28449045Y-31547898D01*
X28506412Y-31477326D01*
X28556167Y-31416409D01*
X28596948Y-31366847D01*
X28614112Y-31346178D01*
X28700404Y-31245516D01*
X28777003Y-31162259D01*
X28845817Y-31094438D01*
X28908752Y-31040089D01*
X28918133Y-31032722D01*
X28957644Y-31002117D01*
X27825884Y-31001867D01*
X27831173Y-31049844D01*
X27827870Y-31107188D01*
X27806339Y-31175463D01*
X27766365Y-31255212D01*
X27721057Y-31327495D01*
X27704839Y-31350140D01*
X27676786Y-31387696D01*
X27638570Y-31438021D01*
X27591863Y-31498973D01*
X27538339Y-31568411D01*
X27479669Y-31644194D01*
X27417525Y-31724180D01*
X27353579Y-31806228D01*
X27289505Y-31888196D01*
X27226973Y-31967943D01*
X27167657Y-32043327D01*
X27113229Y-32112207D01*
X27065361Y-32172442D01*
X27025725Y-32221889D01*
X26995994Y-32258408D01*
X26977839Y-32279858D01*
X26974780Y-32283156D01*
X26971921Y-32275149D01*
X26969707Y-32244855D01*
X26968143Y-32192556D01*
X26967233Y-32118531D01*
X26966980Y-32023063D01*
X26967387Y-31906434D01*
X26968296Y-31786445D01*
X26969618Y-31654333D01*
X26971143Y-31542594D01*
X26973119Y-31449025D01*
X26975794Y-31371419D01*
X26979418Y-31307574D01*
X26984239Y-31255283D01*
X26990506Y-31212344D01*
X26998468Y-31176551D01*
X27008373Y-31145700D01*
X27020469Y-31117586D01*
X27035007Y-31090005D01*
X27049689Y-31064966D01*
X27087686Y-31001867D01*
X26027803Y-31001867D01*
X25724966Y-31001867D01*
X25724999Y-30995617D01*
X25725805Y-30893544D01*
X25726830Y-30804633D01*
X25728100Y-30727941D01*
X25729640Y-30662527D01*
X25731476Y-30607449D01*
X25733633Y-30561765D01*
X25736137Y-30524534D01*
X25739013Y-30494813D01*
X25742287Y-30471662D01*
X25745985Y-30454139D01*
X25750131Y-30441301D01*
X25754753Y-30432208D01*
X25759874Y-30425918D01*
X25765522Y-30421488D01*
X25771721Y-30417978D01*
X25778496Y-30414445D01*
X25784492Y-30410876D01*
X25789725Y-30408300D01*
X25797901Y-30405972D01*
X25810114Y-30403878D01*
X25827459Y-30402007D01*
X25851031Y-30400347D01*
X25881923Y-30398884D01*
X25921232Y-30397608D01*
X25970050Y-30396504D01*
X26029473Y-30395561D01*
X26100596Y-30394767D01*
X26184512Y-30394109D01*
X26282317Y-30393575D01*
X26395106Y-30393153D01*
X26523971Y-30392829D01*
X26670009Y-30392592D01*
X26834314Y-30392430D01*
X27017980Y-30392330D01*
X27222103Y-30392280D01*
X27433247Y-30392267D01*
X29053600Y-30392267D01*
X29053600Y-30489054D01*
G36*
X36963065Y-35269163D02*
G01*
X37041772Y-35269542D01*
X37102863Y-35270333D01*
X37148817Y-35271670D01*
X37182114Y-35273683D01*
X37205236Y-35276506D01*
X37220662Y-35280269D01*
X37230871Y-35285105D01*
X37235813Y-35288822D01*
X37261457Y-35321358D01*
X37264559Y-35355138D01*
X37248711Y-35385826D01*
X37238348Y-35398089D01*
X37227196Y-35406450D01*
X37211035Y-35411657D01*
X37185642Y-35414457D01*
X37146798Y-35415596D01*
X37090280Y-35415821D01*
X37079180Y-35415822D01*
X36933244Y-35415822D01*
X36933244Y-35686756D01*
X36933148Y-35772154D01*
X36932711Y-35837864D01*
X36931712Y-35886774D01*
X36929928Y-35921773D01*
X36927137Y-35945749D01*
X36923117Y-35961593D01*
X36917645Y-35972191D01*
X36910666Y-35980267D01*
X36877734Y-36000112D01*
X36843354Y-35998548D01*
X36812176Y-35975906D01*
X36809886Y-35973100D01*
X36802429Y-35962492D01*
X36796747Y-35950081D01*
X36792601Y-35932850D01*
X36789750Y-35907784D01*
X36787954Y-35871867D01*
X36786972Y-35822083D01*
X36786564Y-35755417D01*
X36786489Y-35679589D01*
X36786489Y-35415822D01*
X36647127Y-35415822D01*
X36587322Y-35415418D01*
X36545918Y-35413840D01*
X36518748Y-35410547D01*
X36501646Y-35404992D01*
X36490443Y-35396631D01*
X36489083Y-35395178D01*
X36472725Y-35361939D01*
X36474172Y-35324362D01*
X36492978Y-35291645D01*
X36500250Y-35285298D01*
X36509627Y-35280266D01*
X36523609Y-35276396D01*
X36544696Y-35273537D01*
X36575389Y-35271535D01*
X36618189Y-35270239D01*
X36675595Y-35269498D01*
X36750110Y-35269158D01*
X36844233Y-35269068D01*
X36864260Y-35269067D01*
X36963065Y-35269163D01*
X36963065Y-35269163D01*
G37*
X36963065Y-35269163D02*
X37041772Y-35269542D01*
X37102863Y-35270333D01*
X37148817Y-35271670D01*
X37182114Y-35273683D01*
X37205236Y-35276506D01*
X37220662Y-35280269D01*
X37230871Y-35285105D01*
X37235813Y-35288822D01*
X37261457Y-35321358D01*
X37264559Y-35355138D01*
X37248711Y-35385826D01*
X37238348Y-35398089D01*
X37227196Y-35406450D01*
X37211035Y-35411657D01*
X37185642Y-35414457D01*
X37146798Y-35415596D01*
X37090280Y-35415821D01*
X37079180Y-35415822D01*
X36933244Y-35415822D01*
X36933244Y-35686756D01*
X36933148Y-35772154D01*
X36932711Y-35837864D01*
X36931712Y-35886774D01*
X36929928Y-35921773D01*
X36927137Y-35945749D01*
X36923117Y-35961593D01*
X36917645Y-35972191D01*
X36910666Y-35980267D01*
X36877734Y-36000112D01*
X36843354Y-35998548D01*
X36812176Y-35975906D01*
X36809886Y-35973100D01*
X36802429Y-35962492D01*
X36796747Y-35950081D01*
X36792601Y-35932850D01*
X36789750Y-35907784D01*
X36787954Y-35871867D01*
X36786972Y-35822083D01*
X36786564Y-35755417D01*
X36786489Y-35679589D01*
X36786489Y-35415822D01*
X36647127Y-35415822D01*
X36587322Y-35415418D01*
X36545918Y-35413840D01*
X36518748Y-35410547D01*
X36501646Y-35404992D01*
X36490443Y-35396631D01*
X36489083Y-35395178D01*
X36472725Y-35361939D01*
X36474172Y-35324362D01*
X36492978Y-35291645D01*
X36500250Y-35285298D01*
X36509627Y-35280266D01*
X36523609Y-35276396D01*
X36544696Y-35273537D01*
X36575389Y-35271535D01*
X36618189Y-35270239D01*
X36675595Y-35269498D01*
X36750110Y-35269158D01*
X36844233Y-35269068D01*
X36864260Y-35269067D01*
X36963065Y-35269163D01*
G36*
X38228823Y-35274533D02*
G01*
X38260202Y-35296776D01*
X38287911Y-35324485D01*
X38287911Y-35633920D01*
X38287838Y-35725799D01*
X38287495Y-35797840D01*
X38286692Y-35852780D01*
X38285241Y-35893360D01*
X38282952Y-35922317D01*
X38279636Y-35942391D01*
X38275105Y-35956321D01*
X38269169Y-35966845D01*
X38264514Y-35973100D01*
X38233783Y-35997673D01*
X38198496Y-36000341D01*
X38166245Y-35985271D01*
X38155588Y-35976374D01*
X38148464Y-35964557D01*
X38144167Y-35945526D01*
X38141991Y-35914992D01*
X38141228Y-35868662D01*
X38141155Y-35832871D01*
X38141155Y-35698045D01*
X37644444Y-35698045D01*
X37644444Y-35820700D01*
X37643931Y-35876787D01*
X37641876Y-35915333D01*
X37637508Y-35941361D01*
X37630056Y-35959897D01*
X37621047Y-35973100D01*
X37590144Y-35997604D01*
X37555196Y-36000506D01*
X37521738Y-35983089D01*
X37512604Y-35973959D01*
X37506152Y-35961855D01*
X37501897Y-35943001D01*
X37499352Y-35913620D01*
X37498029Y-35869937D01*
X37497443Y-35808175D01*
X37497375Y-35794000D01*
X37496891Y-35677631D01*
X37496641Y-35581727D01*
X37496723Y-35504177D01*
X37497231Y-35442869D01*
X37498262Y-35395690D01*
X37499913Y-35360530D01*
X37502279Y-35335276D01*
X37505457Y-35317817D01*
X37509544Y-35306041D01*
X37514634Y-35297835D01*
X37520266Y-35291645D01*
X37552128Y-35271844D01*
X37585357Y-35274533D01*
X37616735Y-35296776D01*
X37629433Y-35311126D01*
X37637526Y-35326978D01*
X37642042Y-35349554D01*
X37644006Y-35384078D01*
X37644444Y-35435776D01*
X37644444Y-35551289D01*
X38141155Y-35551289D01*
X38141155Y-35432756D01*
X38141662Y-35378148D01*
X38143698Y-35341275D01*
X38148035Y-35317307D01*
X38155447Y-35301415D01*
X38163733Y-35291645D01*
X38195594Y-35271844D01*
X38228823Y-35274533D01*
X38228823Y-35274533D01*
G37*
X38228823Y-35274533D02*
X38260202Y-35296776D01*
X38287911Y-35324485D01*
X38287911Y-35633920D01*
X38287838Y-35725799D01*
X38287495Y-35797840D01*
X38286692Y-35852780D01*
X38285241Y-35893360D01*
X38282952Y-35922317D01*
X38279636Y-35942391D01*
X38275105Y-35956321D01*
X38269169Y-35966845D01*
X38264514Y-35973100D01*
X38233783Y-35997673D01*
X38198496Y-36000341D01*
X38166245Y-35985271D01*
X38155588Y-35976374D01*
X38148464Y-35964557D01*
X38144167Y-35945526D01*
X38141991Y-35914992D01*
X38141228Y-35868662D01*
X38141155Y-35832871D01*
X38141155Y-35698045D01*
X37644444Y-35698045D01*
X37644444Y-35820700D01*
X37643931Y-35876787D01*
X37641876Y-35915333D01*
X37637508Y-35941361D01*
X37630056Y-35959897D01*
X37621047Y-35973100D01*
X37590144Y-35997604D01*
X37555196Y-36000506D01*
X37521738Y-35983089D01*
X37512604Y-35973959D01*
X37506152Y-35961855D01*
X37501897Y-35943001D01*
X37499352Y-35913620D01*
X37498029Y-35869937D01*
X37497443Y-35808175D01*
X37497375Y-35794000D01*
X37496891Y-35677631D01*
X37496641Y-35581727D01*
X37496723Y-35504177D01*
X37497231Y-35442869D01*
X37498262Y-35395690D01*
X37499913Y-35360530D01*
X37502279Y-35335276D01*
X37505457Y-35317817D01*
X37509544Y-35306041D01*
X37514634Y-35297835D01*
X37520266Y-35291645D01*
X37552128Y-35271844D01*
X37585357Y-35274533D01*
X37616735Y-35296776D01*
X37629433Y-35311126D01*
X37637526Y-35326978D01*
X37642042Y-35349554D01*
X37644006Y-35384078D01*
X37644444Y-35435776D01*
X37644444Y-35551289D01*
X38141155Y-35551289D01*
X38141155Y-35432756D01*
X38141662Y-35378148D01*
X38143698Y-35341275D01*
X38148035Y-35317307D01*
X38155447Y-35301415D01*
X38163733Y-35291645D01*
X38195594Y-35271844D01*
X38228823Y-35274533D01*
G36*
X30049919Y-35274599D02*
G01*
X30118435Y-35286095D01*
X30171057Y-35303967D01*
X30205292Y-35327499D01*
X30214621Y-35340924D01*
X30224107Y-35372148D01*
X30217723Y-35400395D01*
X30197570Y-35427182D01*
X30166255Y-35439713D01*
X30120817Y-35438696D01*
X30085674Y-35431906D01*
X30007581Y-35418971D01*
X29927774Y-35417742D01*
X29838445Y-35428241D01*
X29813771Y-35432690D01*
X29730709Y-35456108D01*
X29665727Y-35490945D01*
X29619539Y-35536604D01*
X29592855Y-35592494D01*
X29587337Y-35621388D01*
X29590949Y-35680012D01*
X29614271Y-35731879D01*
X29655176Y-35775978D01*
X29711541Y-35811299D01*
X29781240Y-35836829D01*
X29862148Y-35851559D01*
X29952140Y-35854478D01*
X30049090Y-35844575D01*
X30054564Y-35843641D01*
X30093125Y-35836459D01*
X30114506Y-35829521D01*
X30123773Y-35819227D01*
X30125994Y-35801976D01*
X30126044Y-35792841D01*
X30126044Y-35754489D01*
X30057569Y-35754489D01*
X29997100Y-35750347D01*
X29955835Y-35737147D01*
X29931825Y-35713730D01*
X29923123Y-35678936D01*
X29923017Y-35674394D01*
X29928108Y-35644654D01*
X29945567Y-35623419D01*
X29978061Y-35609366D01*
X30028257Y-35601173D01*
X30076877Y-35598161D01*
X30147544Y-35596433D01*
X30198802Y-35599070D01*
X30233761Y-35608800D01*
X30255530Y-35628353D01*
X30267220Y-35660456D01*
X30271940Y-35707838D01*
X30272800Y-35770071D01*
X30271391Y-35839535D01*
X30267152Y-35886786D01*
X30260064Y-35912012D01*
X30258689Y-35913988D01*
X30219772Y-35945508D01*
X30162714Y-35970470D01*
X30091131Y-35988340D01*
X30008642Y-35998586D01*
X29918861Y-36000673D01*
X29825408Y-35994068D01*
X29770444Y-35985956D01*
X29684234Y-35961554D01*
X29604108Y-35921662D01*
X29537023Y-35869887D01*
X29526827Y-35859539D01*
X29493698Y-35816035D01*
X29463806Y-35762118D01*
X29440643Y-35705592D01*
X29427702Y-35654259D01*
X29426142Y-35634544D01*
X29432782Y-35593419D01*
X29450432Y-35542252D01*
X29475703Y-35488394D01*
X29505211Y-35439195D01*
X29531281Y-35406334D01*
X29592235Y-35357452D01*
X29671031Y-35318545D01*
X29764843Y-35290494D01*
X29870850Y-35274179D01*
X29968000Y-35270192D01*
X30049919Y-35274599D01*
X30049919Y-35274599D01*
G37*
X30049919Y-35274599D02*
X30118435Y-35286095D01*
X30171057Y-35303967D01*
X30205292Y-35327499D01*
X30214621Y-35340924D01*
X30224107Y-35372148D01*
X30217723Y-35400395D01*
X30197570Y-35427182D01*
X30166255Y-35439713D01*
X30120817Y-35438696D01*
X30085674Y-35431906D01*
X30007581Y-35418971D01*
X29927774Y-35417742D01*
X29838445Y-35428241D01*
X29813771Y-35432690D01*
X29730709Y-35456108D01*
X29665727Y-35490945D01*
X29619539Y-35536604D01*
X29592855Y-35592494D01*
X29587337Y-35621388D01*
X29590949Y-35680012D01*
X29614271Y-35731879D01*
X29655176Y-35775978D01*
X29711541Y-35811299D01*
X29781240Y-35836829D01*
X29862148Y-35851559D01*
X29952140Y-35854478D01*
X30049090Y-35844575D01*
X30054564Y-35843641D01*
X30093125Y-35836459D01*
X30114506Y-35829521D01*
X30123773Y-35819227D01*
X30125994Y-35801976D01*
X30126044Y-35792841D01*
X30126044Y-35754489D01*
X30057569Y-35754489D01*
X29997100Y-35750347D01*
X29955835Y-35737147D01*
X29931825Y-35713730D01*
X29923123Y-35678936D01*
X29923017Y-35674394D01*
X29928108Y-35644654D01*
X29945567Y-35623419D01*
X29978061Y-35609366D01*
X30028257Y-35601173D01*
X30076877Y-35598161D01*
X30147544Y-35596433D01*
X30198802Y-35599070D01*
X30233761Y-35608800D01*
X30255530Y-35628353D01*
X30267220Y-35660456D01*
X30271940Y-35707838D01*
X30272800Y-35770071D01*
X30271391Y-35839535D01*
X30267152Y-35886786D01*
X30260064Y-35912012D01*
X30258689Y-35913988D01*
X30219772Y-35945508D01*
X30162714Y-35970470D01*
X30091131Y-35988340D01*
X30008642Y-35998586D01*
X29918861Y-36000673D01*
X29825408Y-35994068D01*
X29770444Y-35985956D01*
X29684234Y-35961554D01*
X29604108Y-35921662D01*
X29537023Y-35869887D01*
X29526827Y-35859539D01*
X29493698Y-35816035D01*
X29463806Y-35762118D01*
X29440643Y-35705592D01*
X29427702Y-35654259D01*
X29426142Y-35634544D01*
X29432782Y-35593419D01*
X29450432Y-35542252D01*
X29475703Y-35488394D01*
X29505211Y-35439195D01*
X29531281Y-35406334D01*
X29592235Y-35357452D01*
X29671031Y-35318545D01*
X29764843Y-35290494D01*
X29870850Y-35274179D01*
X29968000Y-35270192D01*
X30049919Y-35274599D01*
D11*
X24000000Y-23500000D03*
X24000000Y-47500000D03*
X117000000Y-47500000D03*
X117000000Y-23500000D03*
D12*
X82850000Y-47720000D03*
X90150000Y-47720000D03*
X90150000Y-49930000D03*
X82850000Y-49930000D03*
D13*
X88750000Y-47070000D03*
X87250000Y-47070000D03*
X84250000Y-47070000D03*
D14*
X88000000Y-48830000D03*
X85000000Y-48830000D03*
M02*
