G04 #@! TF.GenerationSoftware,KiCad,Pcbnew,5.1.4-e60b266~84~ubuntu19.04.1*
G04 #@! TF.CreationDate,2019-09-15T17:47:07+02:00*
G04 #@! TF.ProjectId,kicad,6b696361-642e-46b6-9963-61645f706362,rev?*
G04 #@! TF.SameCoordinates,Original*
G04 #@! TF.FileFunction,Profile,NP*
%FSLAX46Y46*%
G04 Gerber Fmt 4.6, Leading zero omitted, Abs format (unit mm)*
G04 Created by KiCad (PCBNEW 5.1.4-e60b266~84~ubuntu19.04.1) date 2019-09-15 17:47:07*
%MOMM*%
%LPD*%
G04 APERTURE LIST*
%ADD10C,0.100000*%
G04 APERTURE END LIST*
D10*
X116499999Y-50477394D02*
X24499993Y-50477394D01*
X24499993Y-50477394D02*
X24089887Y-50456818D01*
X24089887Y-50456818D02*
X23691886Y-50396410D01*
X23691886Y-50396410D02*
X23307970Y-50298150D01*
X23307970Y-50298150D02*
X22940122Y-50164019D01*
X22940122Y-50164019D02*
X22590319Y-49995998D01*
X22590319Y-49995998D02*
X22260545Y-49796067D01*
X22260545Y-49796067D02*
X21952778Y-49566205D01*
X21952778Y-49566205D02*
X21668999Y-49308395D01*
X21668999Y-49308395D02*
X21411189Y-49024616D01*
X21411189Y-49024616D02*
X21181328Y-48716849D01*
X21181328Y-48716849D02*
X20981396Y-48387074D01*
X20981396Y-48387074D02*
X20813375Y-48037271D01*
X20813375Y-48037271D02*
X20679244Y-47669422D01*
X20679244Y-47669422D02*
X20580985Y-47285506D01*
X20580985Y-47285506D02*
X20520576Y-46887504D01*
X20520576Y-46887504D02*
X20500000Y-46477397D01*
X20500000Y-46477397D02*
X20500000Y-24499998D01*
X20500000Y-24499998D02*
X20520576Y-24089891D01*
X20520576Y-24089891D02*
X20580985Y-23691889D01*
X20580985Y-23691889D02*
X20679244Y-23307973D01*
X20679244Y-23307973D02*
X20813375Y-22940124D01*
X20813375Y-22940124D02*
X20981396Y-22590321D01*
X20981396Y-22590321D02*
X21181328Y-22260546D01*
X21181328Y-22260546D02*
X21411189Y-21952779D01*
X21411189Y-21952779D02*
X21668999Y-21669000D01*
X21668999Y-21669000D02*
X21952778Y-21411190D01*
X21952778Y-21411190D02*
X22260545Y-21181328D01*
X22260545Y-21181328D02*
X22590319Y-20981397D01*
X22590319Y-20981397D02*
X22940122Y-20813376D01*
X22940122Y-20813376D02*
X23307970Y-20679245D01*
X23307970Y-20679245D02*
X23691886Y-20580985D01*
X23691886Y-20580985D02*
X24089887Y-20520577D01*
X24089887Y-20520577D02*
X24499993Y-20500001D01*
X24499993Y-20500001D02*
X34504508Y-20500001D01*
X34504508Y-20500001D02*
X35499998Y-20500001D01*
X35499998Y-20500001D02*
X35499998Y-20500001D01*
X35499998Y-20500001D02*
X35499998Y-21400002D01*
X35499998Y-21400002D02*
X35499998Y-22300004D01*
X35499998Y-22300004D02*
X36488883Y-22300004D01*
X36488883Y-22300004D02*
X49495905Y-22300001D01*
X49495905Y-22300001D02*
X50499999Y-22300001D01*
X50499999Y-22300001D02*
X50499999Y-21399999D01*
X50499999Y-21399999D02*
X50499999Y-20499998D01*
X50499999Y-20499998D02*
X90499999Y-20500001D01*
X90499999Y-20500001D02*
X90499999Y-21400002D01*
X90499999Y-21400002D02*
X90499999Y-22300004D01*
X90499999Y-22300004D02*
X91499859Y-22300004D01*
X91499859Y-22300004D02*
X104495069Y-22300004D01*
X104495069Y-22300004D02*
X105499999Y-22300004D01*
X105499999Y-22300004D02*
X105499999Y-21400002D01*
X105499999Y-21400002D02*
X105499999Y-20500001D01*
X105499999Y-20500001D02*
X106497159Y-20500001D01*
X106497159Y-20500001D02*
X116499999Y-20500001D01*
X116499999Y-20500001D02*
X116910106Y-20520577D01*
X116910106Y-20520577D02*
X117308108Y-20580985D01*
X117308108Y-20580985D02*
X117692024Y-20679245D01*
X117692024Y-20679245D02*
X118059874Y-20813376D01*
X118059874Y-20813376D02*
X118409677Y-20981397D01*
X118409677Y-20981397D02*
X118739452Y-21181328D01*
X118739452Y-21181328D02*
X119047220Y-21411190D01*
X119047220Y-21411190D02*
X119330999Y-21669000D01*
X119330999Y-21669000D02*
X119588810Y-21952779D01*
X119588810Y-21952779D02*
X119818671Y-22260546D01*
X119818671Y-22260546D02*
X120018603Y-22590321D01*
X120018603Y-22590321D02*
X120186624Y-22940124D01*
X120186624Y-22940124D02*
X120320755Y-23307973D01*
X120320755Y-23307973D02*
X120419015Y-23691889D01*
X120419015Y-23691889D02*
X120479423Y-24089891D01*
X120479423Y-24089891D02*
X120499999Y-24499998D01*
X120499999Y-24499998D02*
X120499999Y-46477397D01*
X120499999Y-46477397D02*
X120479423Y-46887504D01*
X120479423Y-46887504D02*
X120419015Y-47285506D01*
X120419015Y-47285506D02*
X120320755Y-47669422D01*
X120320755Y-47669422D02*
X120186624Y-48037271D01*
X120186624Y-48037271D02*
X120018603Y-48387074D01*
X120018603Y-48387074D02*
X119818671Y-48716849D01*
X119818671Y-48716849D02*
X119588810Y-49024616D01*
X119588810Y-49024616D02*
X119330999Y-49308395D01*
X119330999Y-49308395D02*
X119047220Y-49566205D01*
X119047220Y-49566205D02*
X118739452Y-49796067D01*
X118739452Y-49796067D02*
X118409677Y-49995998D01*
X118409677Y-49995998D02*
X118059874Y-50164019D01*
X118059874Y-50164019D02*
X117692024Y-50298150D01*
X117692024Y-50298150D02*
X117308108Y-50396410D01*
X117308108Y-50396410D02*
X116910106Y-50456818D01*
X116910106Y-50456818D02*
X116499999Y-50477394D01*
X116499999Y-50477394D02*
X116499999Y-50477394D01*
X116499999Y-50477394D02*
X116499999Y-50477394D01*
M02*
