G04 #@! TF.GenerationSoftware,KiCad,Pcbnew,5.1.4-e60b266~84~ubuntu19.04.1*
G04 #@! TF.CreationDate,2019-09-15T17:47:07+02:00*
G04 #@! TF.ProjectId,kicad,6b696361-642e-46b6-9963-61645f706362,rev?*
G04 #@! TF.SameCoordinates,Original*
G04 #@! TF.FileFunction,Copper,L2,Bot*
G04 #@! TF.FilePolarity,Positive*
%FSLAX46Y46*%
G04 Gerber Fmt 4.6, Leading zero omitted, Abs format (unit mm)*
G04 Created by KiCad (PCBNEW 5.1.4-e60b266~84~ubuntu19.04.1) date 2019-09-15 17:47:07*
%MOMM*%
%LPD*%
G04 APERTURE LIST*
%ADD10R,3.000000X3.000000*%
%ADD11R,3.000000X2.500000*%
%ADD12O,15.000000X3.000000*%
%ADD13O,14.000000X2.500000*%
%ADD14C,0.600000*%
%ADD15C,0.300000*%
G04 APERTURE END LIST*
D10*
X118000000Y-28750000D03*
X118000000Y-42250000D03*
D11*
X96000000Y-42500000D03*
X96000000Y-28500000D03*
X96000000Y-31750000D03*
X96000000Y-39250000D03*
D12*
X80575000Y-23000000D03*
X60500000Y-23000000D03*
D13*
X97850000Y-24150000D03*
X42900000Y-24200000D03*
D14*
X51450000Y-24272000D03*
X92598000Y-32908000D03*
X84216000Y-44084000D03*
X92344000Y-29860000D03*
D15*
X51378000Y-24200000D02*
X51450000Y-24272000D01*
X42900000Y-24200000D02*
X51378000Y-24200000D01*
X93756000Y-31750000D02*
X92598000Y-32908000D01*
X96000000Y-31750000D02*
X93756000Y-31750000D01*
X97850000Y-25700000D02*
X102000000Y-29850000D01*
X97850000Y-24150000D02*
X97850000Y-25700000D01*
X102000000Y-29850000D02*
X102000000Y-36000000D01*
X98750000Y-39250000D02*
X96000000Y-39250000D01*
X102000000Y-36000000D02*
X98750000Y-39250000D01*
X84216000Y-38216000D02*
X84216000Y-44084000D01*
X60500000Y-23000000D02*
X69000000Y-23000000D01*
X69000000Y-23000000D02*
X84216000Y-38216000D01*
X80575000Y-23850000D02*
X80575000Y-22300000D01*
X80575000Y-28875000D02*
X80575000Y-28075000D01*
X94200000Y-42500000D02*
X80575000Y-28875000D01*
X96000000Y-42500000D02*
X94200000Y-42500000D01*
X80575000Y-28825000D02*
X80575000Y-28075000D01*
X80575000Y-28075000D02*
X80575000Y-23850000D01*
X92484000Y-30000000D02*
X92344000Y-29860000D01*
X93704000Y-28500000D02*
X92344000Y-29860000D01*
X96000000Y-28500000D02*
X93704000Y-28500000D01*
M02*
